/* XPM */
static char * chicken_4_xpm[] = {
"64 64 533 2",
"  	c #446B24",
". 	c #46702A",
"+ 	c #3E6917",
"@ 	c #264A13",
"# 	c #3E622A",
"$ 	c #41641E",
"% 	c #345423",
"& 	c #3F6824",
"* 	c #527533",
"= 	c #4A6D2C",
"- 	c #325415",
"; 	c #416424",
"> 	c #4C732C",
", 	c #3D651D",
"' 	c #355A1B",
") 	c #426717",
"! 	c #3D6517",
"~ 	c #3D6223",
"{ 	c #4D7233",
"] 	c #355B15",
"^ 	c #3A5C1D",
"/ 	c #547B33",
"( 	c #2E4E1C",
"_ 	c #5D9115",
": 	c #558B25",
"< 	c #6E6F37",
"[ 	c #3D6614",
"} 	c #324E22",
"| 	c #395624",
"1 	c #294615",
"2 	c #48662D",
"3 	c #224405",
"4 	c #5B833B",
"5 	c #496D25",
"6 	c #3B5C23",
"7 	c #496633",
"8 	c #456A2B",
"9 	c #365A22",
"0 	c #33541B",
"a 	c #3D5C2A",
"b 	c #25431B",
"c 	c #3D5D33",
"d 	c #2E511B",
"e 	c #415F24",
"f 	c #304E15",
"g 	c #4B7325",
"h 	c #46701E",
"i 	c #537B2C",
"j 	c #4D792C",
"k 	c #4F7932",
"l 	c #35601B",
"m 	c #4B6D33",
"n 	c #2E5114",
"o 	c #466A32",
"p 	c #2A4C0E",
"q 	c #648F1E",
"r 	c #7EC302",
"s 	c #A0793C",
"t 	c #9F6A3D",
"u 	c #619215",
"v 	c #2D4C1A",
"w 	c #223E0C",
"x 	c #2B4C14",
"y 	c #43642B",
"z 	c #4E7339",
"A 	c #476D39",
"B 	c #568132",
"C 	c #57822B",
"D 	c #597D33",
"E 	c #5F893D",
"F 	c #1E4107",
"G 	c #32590F",
"H 	c #4D7925",
"I 	c #385C16",
"J 	c #436A1D",
"K 	c #254313",
"L 	c #51762C",
"M 	c #2F4F1A",
"N 	c #BD8D4A",
"O 	c #BB824B",
"P 	c #AB7335",
"Q 	c #B4753A",
"R 	c #AB8149",
"S 	c #3B5D22",
"T 	c #557B3A",
"U 	c #638B3D",
"V 	c #648C43",
"W 	c #3E691C",
"X 	c #314D1C",
"Y 	c #14320E",
"Z 	c #5E8A36",
"` 	c #365B29",
" .	c #597F2D",
"..	c #887C3E",
"+.	c #B47C43",
"@.	c #BB6C3A",
"#.	c #BB7533",
"$.	c #B28326",
"%.	c #B67939",
"&.	c #446B1A",
"*.	c #477123",
"=.	c #35542B",
"-.	c #57823B",
";.	c #555721",
">.	c #B36C32",
",.	c #B97A2B",
"'.	c #C07937",
").	c #B47626",
"!.	c #B87648",
"~.	c #58A80D",
"{.	c #3C631D",
"].	c #679146",
"^.	c #2A461C",
"/.	c #173406",
"(.	c #436431",
"_.	c #2F5023",
":.	c #566D2F",
"<.	c #A37430",
"[.	c #BB752D",
"}.	c #B97934",
"|.	c #BA7A3A",
"1.	c #486E31",
"2.	c #3F6229",
"3.	c #487226",
"4.	c #4B7A1B",
"5.	c #487613",
"6.	c #45741B",
"7.	c #507E24",
"8.	c #5B8334",
"9.	c #557A1D",
"0.	c #2C4B22",
"a.	c #23430C",
"b.	c #4C6527",
"c.	c #9C722C",
"d.	c #B47B2C",
"e.	c #B98635",
"f.	c #AD7B2E",
"g.	c #997D45",
"h.	c #39571E",
"i.	c #324E1C",
"j.	c #5B7F20",
"k.	c #8EAD28",
"l.	c #AA6B26",
"m.	c #AD7C34",
"n.	c #B47740",
"o.	c #BC8350",
"p.	c #B68B48",
"q.	c #C98A58",
"r.	c #958843",
"s.	c #3F6929",
"t.	c #415E2B",
"u.	c #456D22",
"v.	c #AC7B24",
"w.	c #BB7441",
"x.	c #BB733B",
"y.	c #BE7727",
"z.	c #B38234",
"A.	c #9B7B44",
"B.	c #526E35",
"C.	c #28460E",
"D.	c #42671D",
"E.	c #79A318",
"F.	c #AB9535",
"G.	c #C67B51",
"H.	c #C27432",
"I.	c #B2742E",
"J.	c #AA7A1D",
"K.	c #B6843D",
"L.	c #507A32",
"M.	c #466E24",
"N.	c #A48139",
"O.	c #BB6D33",
"P.	c #B77833",
"Q.	c #B57632",
"R.	c #8C6D39",
"S.	c #776832",
"T.	c #7F7838",
"U.	c #A38446",
"V.	c #BC7A43",
"W.	c #916C2A",
"X.	c #33551B",
"Y.	c #1E410B",
"Z.	c #707231",
"`.	c #B37A25",
" +	c #B47A3C",
".+	c #AF7A39",
"++	c #7F712B",
"@+	c #3B572B",
"#+	c #C76C43",
"$+	c #9D6C2E",
"%+	c #425E20",
"&+	c #1D3C0B",
"*+	c #6C7932",
"=+	c #C26F49",
"-+	c #A47722",
";+	c #6D6023",
">+	c #2F4B0D",
",+	c #4A6E2C",
"'+	c #5D8343",
")+	c #53753B",
"!+	c #A56B35",
"~+	c #AB7624",
"{+	c #877835",
"]+	c #775F30",
"^+	c #64941E",
"/+	c #5A7C42",
"(+	c #435220",
"_+	c #A57823",
":+	c #C2743B",
"<+	c #B16A1C",
"[+	c #C48553",
"}+	c #5B832C",
"|+	c #26490B",
"1+	c #6F5C2A",
"2+	c #AA8034",
"3+	c #AC7324",
"4+	c #9E6D2C",
"5+	c #597D3B",
"6+	c #2D510C",
"7+	c #517625",
"8+	c #2D4C15",
"9+	c #936626",
"0+	c #AA8128",
"a+	c #C1752C",
"b+	c #B46433",
"c+	c #A66632",
"d+	c #A97745",
"e+	c #66913C",
"f+	c #426916",
"g+	c #67924A",
"h+	c #4B4D19",
"i+	c #A56B2B",
"j+	c #AB6B2C",
"k+	c #203C13",
"l+	c #7C6927",
"m+	c #30500F",
"n+	c #395B23",
"o+	c #9C772C",
"p+	c #AE722C",
"q+	c #4F6626",
"r+	c #A6792D",
"s+	c #A56B33",
"t+	c #516E3B",
"u+	c #67612B",
"v+	c #AD7339",
"w+	c #AC6B32",
"x+	c #936729",
"y+	c #3A551C",
"z+	c #A57825",
"A+	c #4C5925",
"B+	c #B27738",
"C+	c #5C6C28",
"D+	c #AB721E",
"E+	c #9D7432",
"F+	c #A57233",
"G+	c #AB6B1C",
"H+	c #B2643A",
"I+	c #6F6F37",
"J+	c #547C40",
"K+	c #60712B",
"L+	c #B26C2D",
"M+	c #A56724",
"N+	c #997834",
"O+	c #557C3A",
"P+	c #688737",
"Q+	c #667A2C",
"R+	c #B16D26",
"S+	c #B26B3A",
"T+	c #AB652D",
"U+	c #6D6E34",
"V+	c #627333",
"W+	c #9F7124",
"X+	c #9C6E0C",
"Y+	c #A56C26",
"Z+	c #3C5C1E",
"`+	c #535E1E",
" @	c #AB6C25",
".@	c #AD6623",
"+@	c #635A28",
"@@	c #527B25",
"#@	c #545F22",
"$@	c #AC6633",
"%@	c #A56C24",
"&@	c #B86A2C",
"*@	c #A56632",
"=@	c #36491B",
"-@	c #626F32",
";@	c #A37424",
">@	c #755F35",
",@	c #5B5F20",
"'@	c #395024",
")@	c #4B6F1B",
"!@	c #467735",
"~@	c #2F4F28",
"{@	c #777338",
"]@	c #9D6D25",
"^@	c #A4662B",
"/@	c #5D5824",
"(@	c #996F30",
"_@	c #AD6B3B",
":@	c #A85B31",
"<@	c #916D2D",
"[@	c #486324",
"}@	c #A66B1C",
"|@	c #AA663D",
"1@	c #976E26",
"2@	c #46662B",
"3@	c #324F0C",
"4@	c #8B6425",
"5@	c #BA6435",
"6@	c #B56742",
"7@	c #6E7533",
"8@	c #1E3E12",
"9@	c #616934",
"0@	c #9E6F1D",
"a@	c #A88051",
"b@	c #4B731C",
"c@	c #51732E",
"d@	c #A2762A",
"e@	c #A6831D",
"f@	c #C27948",
"g@	c #AE8443",
"h@	c #4E7B28",
"i@	c #527541",
"j@	c #917C2E",
"k@	c #B68458",
"l@	c #679A23",
"m@	c #957637",
"n@	c #B58E52",
"o@	c #73AF23",
"p@	c #568221",
"q@	c #736E2A",
"r@	c #9D6E34",
"s@	c #B39457",
"t@	c #72AA1F",
"u@	c #3F6924",
"v@	c #4B6C3A",
"w@	c #1C3D04",
"x@	c #957B34",
"y@	c #A4702B",
"z@	c #B97A51",
"A@	c #80C709",
"B@	c #568E28",
"C@	c #7ABF14",
"D@	c #5A9318",
"E@	c #4C7621",
"F@	c #426C29",
"G@	c #416422",
"H@	c #274613",
"I@	c #35551C",
"J@	c #3F6222",
"K@	c #507D2B",
"L@	c #4B7E33",
"M@	c #51772A",
"N@	c #548A25",
"O@	c #66A111",
"P@	c #B4652A",
"Q@	c #9C8248",
"R@	c #417017",
"S@	c #61863B",
"T@	c #85CE01",
"U@	c #86CB0F",
"V@	c #7BBF0B",
"W@	c #B29C78",
"X@	c #CCC2AF",
"Y@	c #D5D9D4",
"Z@	c #D8D0CD",
"`@	c #C4B6AD",
" #	c #BBA98D",
".#	c #7BC013",
"+#	c #87D300",
"@#	c #98CA07",
"##	c #D8C5A9",
"$#	c #9E7834",
"%#	c #977F42",
"&#	c #487314",
"*#	c #89D901",
"=#	c #83D901",
"-#	c #E3CBB6",
";#	c #FCF4F4",
">#	c #F3FCFD",
",#	c #EAFAF9",
"'#	c #FCF3FD",
")#	c #FAFCEB",
"!#	c #91D203",
"~#	c #ECE6C7",
"{#	c #5F9D0F",
"]#	c #3C5E23",
"^#	c #E8D4AF",
"/#	c #E5FEFB",
"(#	c #ECF8F2",
"_#	c #FAF1ED",
":#	c #EDF2FC",
"<#	c #F3F4F3",
"[#	c #F4F5FD",
"}#	c #EDECEB",
"|#	c #7BBF0F",
"1#	c #4D7618",
"2#	c #E0B1AB",
"3#	c #E5E8D7",
"4#	c #F3F4ED",
"5#	c #F4F1E5",
"6#	c #BE996D",
"7#	c #987639",
"8#	c #736F2E",
"9#	c #6E6A2E",
"0#	c #826C34",
"a#	c #98672B",
"b#	c #9D6529",
"c#	c #B08455",
"d#	c #BD885A",
"e#	c #699F2F",
"f#	c #3C6216",
"g#	c #628432",
"h#	c #E6D6C7",
"i#	c #FCFBF4",
"j#	c #EDF4F3",
"k#	c #EAF4E9",
"l#	c #F8ECF7",
"m#	c #F5FAF3",
"n#	c #F5EAEA",
"o#	c #E2CEAD",
"p#	c #A76417",
"q#	c #946530",
"r#	c #50682B",
"s#	c #4A662D",
"t#	c #4F6520",
"u#	c #77743A",
"v#	c #956C30",
"w#	c #A66C31",
"x#	c #AA9B40",
"y#	c #83AF25",
"z#	c #548635",
"A#	c #547C2C",
"B#	c #415E34",
"C#	c #456439",
"D#	c #F6F8E7",
"E#	c #EDF9ED",
"F#	c #AF8763",
"G#	c #7A4F24",
"H#	c #314E15",
"I#	c #43652B",
"J#	c #507738",
"K#	c #598431",
"L#	c #42691A",
"M#	c #4F7621",
"N#	c #4E7A21",
"O#	c #4B7820",
"P#	c #4D7529",
"Q#	c #476C32",
"R#	c #E4C9C7",
"S#	c #AA744C",
"T#	c #776C33",
"U#	c #274314",
"V#	c #FCFAFD",
"W#	c #D5E0E6",
"X#	c #E4E4E4",
"Y#	c #B58545",
"Z#	c #A98046",
"`#	c #4E6734",
" $	c #DAE1E3",
".$	c #DEDEDC",
"+$	c #DAC8B7",
"@$	c #8BD309",
"#$	c #619220",
"$$	c #E7C5D3",
"%$	c #FAFFDF",
"&$	c #E6EDF5",
"*$	c #E2DEE8",
"=$	c #DCDDE3",
"-$	c #EBE1E5",
";$	c #C6B6A6",
">$	c #7CC113",
",$	c #4E7624",
"'$	c #CAAC88",
")$	c #F5ECDC",
"!$	c #D3D8DB",
"~$	c #6CB31B",
"{$	c #4C7525",
"]$	c #527818",
"^$	c #9F9C7D",
"/$	c #9B846A",
"($	c #4B7425",
"_$	c #5E8624",
":$	c #3C5920",
"<$	c #BAB19E",
"[$	c #D1D1AB",
"}$	c #EFF1DB",
"|$	c #DBE2DB",
"1$	c #E6E4E7",
"2$	c #A19B7F",
"3$	c #4C742C",
"4$	c #7B8440",
"5$	c #C19F71",
"6$	c #E1E4DB",
"7$	c #98A29E",
"8$	c #416024",
"9$	c #A2975F",
"0$	c #E2DEDC",
"a$	c #979B80",
"b$	c #3B5D1D",
"c$	c #163903",
"d$	c #A29F8A",
"e$	c #6D963A",
"f$	c #B3B9A5",
"g$	c #D6D7E6",
"h$	c #E4EADA",
"i$	c #9F9F81",
"j$	c #6A9337",
"k$	c #60794B",
"l$	c #E8DFF7",
"m$	c #838E5B",
"n$	c #688B49",
"o$	c #5D882F",
"p$	c #3E5D26",
"q$	c #EBE1E0",
"r$	c #EAE3DB",
"s$	c #D9D6BC",
"t$	c #679122",
"u$	c #1A3606",
"v$	c #A59983",
"w$	c #DBE6C4",
"x$	c #CAD0C6",
"y$	c #93C600",
"z$	c #669C2E",
"A$	c #6D8340",
"B$	c #DEDDFC",
"C$	c #BDBC8A",
"D$	c #6BAB24",
"E$	c #537D25",
"F$	c #709641",
"G$	c #4B740E",
"H$	c #294521",
"  . +   @ # $ % & * = = - ; >   ,   + . ' & ) ' ! ~ { ] ^ % / ( _ : < [ } | 1 | 2 3 ; 4 5 - 6 7 8 9 0 a b 0 > ~ c d e e f e ~ 9 ",
"8 g h i ' { ! 6 j .   ] 0 0 ]   c ' k ' ' l ' m n o / d p 6 % q r s t u v w v 2 ] x 6 ;   0 0 6 # ' > y ^ = z A % - ; a } y ; m ",
"~ B C l D B 5 E   F G   7 y H 8 v + B z . i I ) & z J K B L M N O P Q R S x ; D ^ T { x n ' ' 6 9 U 5 8 V W # o @ g 5 X Y 0 ^ @ ",
"6 Z ) ~ B h Z j k ` ~ L a 9 5 # n  .i & > B D $ 8 j 8 6  .F ..+.@.#.$.%.&.' / I 5 { * y 0 - 6 { & *.> # D & /   = = y a 1 ~ ^ v ",
"v ] G # i H B *.{ ` e D =.% g o 8 m   { ` 6 0 v { ' - -.> ;.>.,.'.,.).!.~.~ 4 i {.^ y - 0 x ~ ~ ~ T > ~ ' ].C H   ^.v ; J 5 1 ` ",
"# {.> ; # > W & & 1 e - /.X 5 @ ' 6 ] > v ^ p (.H _.] { :.<.[.#.}.@.#.|.O {.{.j ; 0 6 X m @ 6 1.2.3.4.5.6.7.8.0 x =.=.J 9.! 1 ^.",
"~ k . * n . 8.8 8 ' ~ 0 0.a.x 2 0 ^ 8.  x   D - {.a   b.c.d.e.#.f.d.|.d.P g.-.D f h.h.0 7 i.j.k.l.m.n.o.p.q.r.8 X a ;  .5 p } @ ",
"' & j {.y k H s.~ y y t.y 1 0 6 % = { K {.j I ; m / u.|.}.'.v.w.w.x.).[.y.z.A.' B.t.C.h.D.E.F.G.H.I.#.#.J.>.K.L.7 n i  .9 } a - ",
"= a ~ ; ~ k H # # ~ * n % % a.X ] > > ' ~ . L 6 -.M.N.O.d.@.P.|.Q.P.P.P.P.P.P.}.R.S.T.U.N V.Q d.P.}.}.P.}.}.P.W.X.Y.^ t.2 X w X ",
"- 8 y H # *.. ~ ` v ~ 6 y x a t.v 8 { # # . m v g Z.|.`.|.`.d.f. +P.P.P.P.P.P.P.Q.Q .+ +Q.Q.P.}.P.P.P.P.P.P.}.#.++v K v 8 h.e 1 ",
"] a.  > k -.J   (.0 y f 0 X e x 1 ` 0 ; W m | @+j !.#.z.Q.Q #+Q.P.P.P.P.I.}.P.P.}.P.I.P.P.P.P.,.P.P.P.P.P.P.P.P.I.$+%+a.^ B.e x ",
"6 &+~ m g l j { v v 9 | 2 | 1 f ^.^.y $ j @+K 0 *+f.x.#.m.w.y.$.P.P.P.#.#.P.P.P.,.}.}.}.}.}.P.d.P.P.P.P.P.P.P.P.=+>.-+;+>+0 B.,+",
"1 C.t.;   W '+/ % e e t.K | )+| 1 X m 5 $ X 1 w !+v.y.[.+.w.f.}.P.P.P.P.P.P.P.P.P.I.d.P.Q.Q.P.P.P.P.P.P.P.P.P.P.|.z.}.P ~+{+]+^+",
"v 6 m {./ i o ' 6 /+6 x w 7 7 X f 2 8 L - f 1 (+_+ +#.[.}.}.).:+P.P.P.P.P.P.P.P. +}.P. +Q Q.P.P.P.P.P.P.P.P.P.P.[.J.|.m.!.#.<+[+",
"] = 5 # }+= 6 0 m ; |+0 X % 1 y a 5 L > 6 v 1 1+[.#.x.[.d.m.d.P.P.P.P.P.P.P.P.P.).I.}.P.}. +}. +P.P.P.P.P.P.P.P.}.2+#+[. +3+4+f.",
"m C * > i 8.0 f {.5+= * | f 1 | h.6+7+6 ^.a 8+9+}.V.v.z.w.[.d.P.P.P.P.P.P.P.P.P. +}.#.#.}.#.}.#.P.P.P.P.P.P.P.I.#.}.|.0+a+b+c+d+",
"6 6 ; 9 * e+f+  W g+l H '+8 v 0 % a ; x a % h+#.P.P.P.P.P.P.#.P.P.P.P.P.P.P.P.P.P.P.P.#.P.P.P.P.P.P.P.P.P.P.P.P.#.P.P.}.I.i+j+P ",
"|+1 k+x i * 5+E 8 8 k . l k 8 6 ^ * 2 % | K l+Q P.P.P.P.P.P.Q.P.P.P.P.#.P.P.P.P.P.P.P.Q.P.P.P.P.P.P.P.P.P.P.P.P.P.P.P.P.j+j+j+j+",
"1 X | e = ' -.* ~ o z ^ >   * m+- z = 5+- n+o+`.P.P.P.P.P.P.P.P.P.P.P.Q.P.P.P.P.P.P.P.P.P.P.P.P.P.P.P.Q.P.P.Q.P.P. +}.P.p+j+j+j+",
"x y y 0 * g * T /+; | v ~ { > ~ 8 ~ ^ {.$ q+r+:+P.P.P.P.P.P.P.P.P.P.P.P.P.P.P.P.P.P.P.P.P.P.P.P.P.P.P.P.P.P.#.P.I.}.#.p+j+j+j+s+",
"d ~ 8 ] k . & ~ { ' 0 1 ' { ' y T ; e t+} u+v+:+P.P.P.P.P.P.P.P.P.P.P.#.P.P.P.P.P.P.P.P.P.P.P.P.P.P.P.P.P.P.P.P.P.}.}.j+j+s+j+w+",
". - 8 . / k -.  & {.; ; ^ # a w - 6 ^ 0 % x+:+P.P.P.P.P.P.P.P.P.P.P.P.P.P.P.P.P.P.P.P.P.P.P.P.P.P.P.P.P.P.P.P.P.P.}.P.j+j+j+j+P ",
"9 y T H W n # 5+l T )+8 ] ~ d | @+y h.^ y+z+P.2+#.P.P.P.P.P.P.P.P.P.P.P.P.P.P.P.P.P.P.#.P.P.P.P.P.P.P.P.P.P.P.P.P.P.j+j+j+i+j+Q ",
"0.  D T s.y ' 0 ~ ~ ; & { . y ^.e ^ X f A+H.+.d.P.P.P.P.P.P.P.P.P.P.P.P.P.P.P.P.P.P.P.P.P.P.P.P.P.P.P.#.P.P.P.P.P.I.j+j+w+i+s+B+",
"6 @+~ y = i ; 0 h.n ~ 4 C ] s.j 5 d y B C+$.I.w.P.P.P.P.P.P.P.P.P.P.P.P.P.P.P.P.P.P.P.P.P.P.P.P.P.P.}.P.}.I.P.P.a+D+E+F+j+G+H+I+",
"  6 ; d 5+7+6+y y 2 5 4 & 9 J+> 8 m '+H K+#.I.P.P.}.P.P.P.P.P.P.P.P.P.P.P.P.P.P.P.P.P.P.P.P.#.P.P.P.P.P.P.P.P.P.@.L+M+w+b+b+N+O+",
"j 4 / > P+/ ^ )+v ` 5 g ` F & T > . 8 ~ Q+:+f.d.P.P.P.P.P.P.P.P.P.P.P.P.P.P.P.P.P.P.P.P.P.P.P.P.P.P.P.P.}.P.P.Q.i+F+H+R+S+T+U+8 ",
"g j   B 5 y ^ k+@ {.5 { # k g = .   {.  V+P.P.x.P.P.P.P.P.P.P.P.P.P.P.P.P.P.P.P.P.P.P.P.P.P.P.P.P.P.[. +}.}.Q.Q.W+S+F+X+J.Y+Z+{.",
"j H T U ; a 9 K ' j ~ d 8.e+D ; s.s.> > `+z.#.#.P.P.P.P.P.P.P.P.P.#.P.P.#.P.P.P.P.P.P.P.P.P.P.P.P.P.P.Q.Q Q.>.j+ @s+L+.@j++@~ z ",
"j e+. > - 0 0 9 8 L @ # @@@@L L o o j   #@}. +`.P.P.P.P.P.P.P.P.P.Q.P.P.P.P.P.P.P.P.P.P.P.P.P.P.P.P.}.Q.Q.Q.j+j+$@%@b+&@*@=@d z ",
"B g+l ' 1 y ;   ; K v y   ; T I 8 i i = -@x. +,.P.P.P.P.P.P.P.#.P.P.P.P.P.P.P.P.P.P.#.P.P.P.P.P.P.}.}.Q.Q.j+j+j+ @H+;@&@>@} ` ; ",
"C & j ' f ^ = B ^ 0.% ] y (.^ 8 > @@g ; ,@P. +#.P.}.P.P.P.P.P.P.P.P.P.P.P.P.P.P.P.P.P.P.P.P.P.P.P.}.}.Q.w+j+j+w+R+c+j+s+'@1 0 L ",
"^.v i & w )@H !@y &+X 7 _.d ~ n ~@g g v {@}.w.d.P.#.P.P.P.P.P.P.Q.}.P.I.}.P.P.P.P.P.P.#.P.d.P.P.[.H.v.]@w+j+%@j+ @S+^@/@a - T ' ",
"h.%   ; ; i J j 6 3 | y ' ~ )+y y  .g z (@f.x.#.P.P.P.P.P.P.P.P.P.P.P.#.P.P.P.P.}.P.P.I.P.P.}.#.O.W+ @_@w+j+s+w+R+:@<@K % = 2 p ",
"e ~ ; h.5 L y g 9 h.T ; ] m 6 y *./ ! [@x.d.[.f.P.P.P.P.P.P.P.P.P.P.P.}.P.P.I.P.P.P.Q.P.P.P.Q.I.F+}@T+_@^@j+3+|@ @1@2@t.} e 2 v ",
"0   = =.h.3@|   = 5+; ^ 9 y x @ 5 m 0 4@[.}. +}.P.P.P.P.P.P.P.P.#.d.P.I.P.P.P.P.P.P.}.P.Q.j+j+^@i+b+w+L+}@ @5@ @6@7@m /+f X T x ",
"8 B   8@1 ; c v L ; x % % v x 2 7+6 9@w.`. +x.w.P.P.P.P.P.P.P.P.P.P.P.P.P.P.P.Q.P.P.I.j+j+j+j+j+j+w+ @G+b+L+0@5@a@` & 6 0 C.X | ",
"/ )+- 9 & 7 ~@  8.= /+v 8@7 8 > b@c@d@e@f@}.v+a+P.P.P.P.P.P.P.P.P.#.}.}.}.P.Q.Q.j+j+j+j+j+j+j+j+w+w+G+j+_@i+E+g@h@= y a.e X t.f ",
"@@m ' g / i@v ^ j ' 6 6 - m > 5 g j@v+:+[.f.).d.P.P.P.P.P.P.P.P.P.P.P.Q.Q.j+j+T+j+j+j+j+j+j+j+j+R+w+ @H+]@E+k@l@*.5 @ ] T ^.- I ",
"Z )+i 7+. k ~ - {   # m $ / J / m@I.|.#.).w.Q.P.P.P.P.P.P.P.P.P.Q.p+j+j+i+j+j+j+w+j+j+w+j+j+j+j+s+%@w+%@6@n@o@o p@8 { { 6 6 v D ",
"i@.  .P+e X 0 0 o ` # # ~ D f+q@ +#.P.#.,.P.I.x.Q.Q.Q.Q.>.p+j+ @^@ @L+j+ @j+ @w+ @b+;@H+r@s+w+%@G+T+]@!.s@t@u@T T > -.v@w@h.o 8.",
". -.8.$ f X C.p x y   8 y 5 x@I.f.d.d.I.Q.>.j+%@^@j+^@j+j+j+j+j+i+y@j+$@$@$@w+j+j+L+3+ @L+L+j+j+.@s+z@A@B@ .. ~ 8 8 ^ 1 = = @ / ",
"C@D@E@F@G@H@I@J@K@L@M@N@O@}.d.+.w.x.#.Q.w+w+w+j+w+j+w+j+w+w+j+w+S+$@ @ @ @i+i+ @$@c+^@M+i+3+b+P@w.Q@R@; D i > 8 ' - x # S@; y ' ",
"T@U@V@W@X@Y@Z@`@ #.#+#@###z@Q [.}.I.p+w+j+T+w+$@j+j+j+j+j+j+w+j+w+j+j+w+w+w+>.$@M+D+@.>.i+s+$#%#&#9 1 n D > > k { m d a / p m 9 ",
"*#=#-#;#>#,#'#)#'###!#~#;# +H.y.3+ @s+$@j+%@3+;@j+j+j+j+j+ @j+T+}@i+j+c+ @ @%@y@v+i+.@M+s+z@{#]#$ y 6 n ; ~ ; C   X } | *   e % ",
"T@^#>#/#(#'#_#:#<#;#[#)#}#s@[.v+@.c+s+p+ @R+j+c+p+s+j+j+j+j+j+ @&@&@P j+ @R+j+w+ @c+$#k@|#1#& % { ; y 3 y m '+g ' 1 0 f t.B.0 t.",
"2#3#4#[#;#5#4#>#<#;#/#4#[#6#^@4+$@i+%@%@^@$@7#8#9#0#a#b#j+w+j+j+c+^@]@i+c+6@_@P c#d#e#f#=.~@# g#B.* x &+(.0 -.. y v 6 e K | 5 X ",
"h#i#j#;#[#k#i#l#m#4#:#n#i#o#p#R+s+ @R+b+q#r#s.8 0 9 s#t#u#v#w#L+_@P.Q.V.z@x#y#z#A#g $ - a ^ i >   ] a.B#y $ & # |+v C.w@^.C#= 6 ",
"k#D#_#E#E#<#;#_#m#:#[#<#<#i#F#p#^@).p#G#H#* 6 % =.0 g 8.= I#J#K#L#M#N#O#P#Q#= = B Z 9 p d . . > # n ^ e x 2 k+| |+k+0 ^ e y % 5 ",
"m#:#'#;#<#,#m#[#5#<#<#m#j#j#R#S#i+|@T#U#h.- % 9 ' { > D 6 d S@f+^.a h.|+; y H L g T n @ { '+8.H 8 ~ m 2 2 6 f K ^ 0.a e h.^ %   ",
":#V#5#'#'#<#>#k#n#V#;#5#E#W#X#-#Y#Z#`#v@f y 9 n D 8 ' * 8 ^ > $ o 5 0 / > v   y   y = o Z * h j -.{.~ ~ ~ 8 -   9 ^.C.X @ n ` o ",
"k#n#D#k#<#;#}#[#'#:#[#4#X# $.$+$@$#$a.6 2 ; A y z |+^ 5+; 8 6 % H i = 4 * 6 ' a 6 y ^ - - 5 E > k & d 6 0 d m T ; v w@' 6 y a x ",
"$$%$>#<#)#E#_#'#[#&$<#'#*$=$-$;$>$,$$ f 8   & 5 @ v t.y - ] d =.-.B { * D 5 7+H ~ ' % n X S@* d . ^ f | 1 a y ' ; 5+] l * = 6 # ",
"'$)$l#[#:#j#'#_#_#<#<#;#}#!$X#3#~${$g * j # ^ 5 ~ x % % X 0 ; 8 L g }+J I * > / - y 1 |+v D v@% 5+@ 6 a x t+e ; ^ j * -.    j ~ ",
"]$^$_#;#'#V#E#m#;#4#i#<#}# $ $X#/$($j |+; m y > X K a.a.9 8 I $ i 4 _$i a ^ @  .2 0 K K X 6 n 8 > n ^ 0 h.C.6 o m g . k {.. 8.' ",
"- K :$<$-#[$}$[#l#,#j#m#}#|$|$1$2$3$; 8 { @ 6 5 ^.@+- 5 5 = W D 9 a _$5 | ~ ` p@^ 0 f ^.] y > -.. & & = e x x ^ s.J & s.W . C ' ",
"v y x = 4$5$6$'#l#_#4#j#j#6$=$X#7$8$c ' $ 6 - @ 1 x = / / > = L ^.n = ^ - ~ m T / D 0 ^.d   {.=.t.n = K o H g ~   ~ W ; y # ~ ; ",
"e y ^ p 4 9$'#m#>#j#<#[#}#0$*$X#a$b$2 D D o ^ m 7 f   ' / 0 > $ 0 & > j 8 )+8 0 > {.- @+c$> { 0 a.0 0 0 y 5+. s.* j   ; ; ' y n ",
"- ^ y * 5+' i#&$,#(#[#<#1$1$3#*$d$,+}+e$T - @@z v 6 2 - 1 - * 8 ^ $ / $ * = ^ o 8 T { 1 e D > 0 ^ y y a.' 9 ' z C H @@/ {.; % ~ ",
"y % x m ; - f$[#<#V#'#}$|$g$=$h$i$5 L f+n > j$n a.x v@1 X m y 5 = ; j * 8 6 y 8 ].D T y ' ; ^ 0 - % (.^ ~ 0 6+i 8.j g  .0 z ; )+",
"'+' y {.|+^ k$:#_#l#l$.$h$|$|$l$m$> 6 )+d 8 }+o 0 a 0 0 ^.a.0 ' m ~ 2 ; 6 X 1 t.].6+> n$x n 6 ; 0 % % 2   ~ & o$g 0 5+S@0 6 p T ",
"7+5   ^ ; T p$q$0$6$1$=$=$X#r$s$t$B | v n = G o % ; /+% % K v ' | a.n y h.u$v 0 g#{.! 8 - y ~ 6 # 9 ^ p ' d > }+# > 8 | = - K D ",
"}+i = y v 6 v v$1$=$w$|$r$-$x$y$z$8.y { C = d {.6 ' - x w@2 y h.| K c$X 1 v f o   9 x - - /+v@  % ^ = 0 _.y > / 9 ; )+e 6 2 y = ",
"> p 0 a.- T   A$s$=$B$r$R#C$y$=#D$E$i F$G$y ` l # x ^ = 0 f a X w t.| @+1 K 6 ; 0 K v@T 5+' ^ H 9 = {.v H$% ~ 9 ~ ~ ' ; 6 )+p m "};
