/* XPM */
static char * chicken_1_xpm[] = {
"64 64 410 2",
"  	c #4A6D33",
". 	c #4E7933",
"+ 	c #517B2D",
"@ 	c #467125",
"# 	c #5E893C",
"$ 	c #456B2C",
"% 	c #4C7333",
"& 	c #47712B",
"* 	c #4B732D",
"= 	c #496D2D",
"- 	c #436B25",
"; 	c #4D792C",
"> 	c #3F6A25",
", 	c #527B34",
"' 	c #5A833C",
") 	c #4A6D3A",
"! 	c #466C32",
"~ 	c #52753A",
"{ 	c #58842F",
"] 	c #547B3A",
"^ 	c #597E35",
"/ 	c #375D14",
"( 	c #416525",
"_ 	c #4E7A39",
": 	c #517635",
"< 	c #526F35",
"[ 	c #436632",
"} 	c #42652B",
"| 	c #597E3C",
"1 	c #4A7326",
"2 	c #3D6424",
"3 	c #36611A",
"4 	c #56813A",
"5 	c #467232",
"6 	c #466B39",
"7 	c #4E7439",
"8 	c #3A5D23",
"9 	c #3D682A",
"0 	c #48672E",
"a 	c #496733",
"b 	c #52762D",
"c 	c #496E26",
"d 	c #558134",
"e 	c #5A8335",
"f 	c #5F9132",
"g 	c #709A48",
"h 	c #426539",
"i 	c #567D43",
"j 	c #405D2D",
"k 	c #659048",
"l 	c #3E642A",
"m 	c #516F3B",
"n 	c #668D49",
"o 	c #5B8833",
"p 	c #3C5D2B",
"q 	c #4F8428",
"r 	c #73813A",
"s 	c #817532",
"t 	c #4D7333",
"u 	c #669246",
"v 	c #4D7B25",
"w 	c #3B631E",
"x 	c #5C8442",
"y 	c #5A7333",
"z 	c #7F7C2A",
"A 	c #A67B35",
"B 	c #BA7434",
"C 	c #C3743B",
"D 	c #93793C",
"E 	c #877132",
"F 	c #7E7831",
"G 	c #9D7E2E",
"H 	c #857F32",
"I 	c #5E6E30",
"J 	c #527C34",
"K 	c #3D681D",
"L 	c #5A7E42",
"M 	c #527B2D",
"N 	c #5A7B34",
"O 	c #797E3C",
"P 	c #97783A",
"Q 	c #A27637",
"R 	c #B57532",
"S 	c #B4753C",
"T 	c #B57A3A",
"U 	c #AD8134",
"V 	c #B77833",
"W 	c #B87934",
"X 	c #BA6E34",
"Y 	c #AC732A",
"Z 	c #957438",
"` 	c #568D2D",
" .	c #3F6431",
"..	c #4A7231",
"+.	c #578A2D",
"@.	c #728530",
"#.	c #776D2D",
"$.	c #977631",
"%.	c #A27D31",
"&.	c #BC743A",
"*.	c #B27B2C",
"=.	c #AD7926",
"-.	c #B97A2D",
";.	c #AD7C2B",
">.	c #BB8544",
",.	c #66942F",
"'.	c #5B7D29",
").	c #5E8942",
"!.	c #618C3D",
"~.	c #628B44",
"{.	c #4F7B39",
"].	c #A8803E",
"^.	c #B07B24",
"/.	c #C17334",
"(.	c #4B722C",
"_.	c #3B5E23",
":.	c #A68043",
"<.	c #AA8429",
"[.	c #B07E1F",
"}.	c #887A3B",
"|.	c #54822D",
"1.	c #4A6F2D",
"2.	c #8E7332",
"3.	c #BA6D3A",
"4.	c #B37B24",
"5.	c #B28225",
"6.	c #AD7935",
"7.	c #4B7530",
"8.	c #537442",
"9.	c #4C7433",
"0.	c #8A773B",
"a.	c #BA752D",
"b.	c #BA7B3B",
"c.	c #A47C44",
"d.	c #4D7433",
"e.	c #608543",
"f.	c #4F7539",
"g.	c #8D7E3E",
"h.	c #67972A",
"i.	c #5F8248",
"j.	c #365B23",
"k.	c #68A224",
"l.	c #BB7744",
"m.	c #AB8448",
"n.	c #4F7A33",
"o.	c #547D2A",
"p.	c #B48342",
"q.	c #B3742D",
"r.	c #C57344",
"s.	c #A67834",
"t.	c #507932",
"u.	c #597741",
"v.	c #957F42",
"w.	c #C37C3A",
"x.	c #507E2D",
"y.	c #355B1D",
"z.	c #517B24",
"A.	c #517F2B",
"B.	c #7F7236",
"C.	c #6DA923",
"D.	c #AB6B2D",
"E.	c #826C39",
"F.	c #456C2C",
"G.	c #426C1E",
"H.	c #426625",
"I.	c #B58D47",
"J.	c #A7672A",
"K.	c #896D33",
"L.	c #466D2C",
"M.	c #558629",
"N.	c #9B7433",
"O.	c #4B6D2D",
"P.	c #769F53",
"Q.	c #7A863D",
"R.	c #A56C33",
"S.	c #4A7524",
"T.	c #877D40",
"U.	c #B36C2B",
"V.	c #AD652C",
"W.	c #4B742B",
"X.	c #9B7634",
"Y.	c #AC7332",
"Z.	c #9C6A34",
"`.	c #42662B",
" +	c #517D38",
".+	c #B8822B",
"++	c #797636",
"@+	c #62792E",
"#+	c #BC663D",
"$+	c #B26A32",
"%+	c #A46C24",
"&+	c #6A7C41",
"*+	c #60863E",
"=+	c #918236",
"-+	c #AD6533",
";+	c #AB6A25",
">+	c #646F37",
",+	c #56823A",
"'+	c #B37B41",
")+	c #A66C2B",
"!+	c #AA7224",
"~+	c #65732D",
"{+	c #649138",
"]+	c #AC6C32",
"^+	c #B36533",
"/+	c #679430",
"(+	c #80803C",
"_+	c #4C782A",
":+	c #6D8E3D",
"<+	c #AA764C",
"[+	c #A96437",
"}+	c #8E832A",
"|+	c #4E7632",
"1+	c #B47C43",
"2+	c #A47224",
"3+	c #AA6F3B",
"4+	c #598330",
"5+	c #508129",
"6+	c #9F7126",
"7+	c #89782F",
"8+	c #557D27",
"9+	c #B56B39",
"0+	c #8E6A2F",
"a+	c #2E5614",
"b+	c #4E7B30",
"c+	c #A05C29",
"d+	c #4D6D32",
"e+	c #57802E",
"f+	c #A6712D",
"g+	c #A75B29",
"h+	c #7D7236",
"i+	c #5B9D22",
"j+	c #A47838",
"k+	c #466D32",
"l+	c #B59145",
"m+	c #B16B27",
"n+	c #4C7630",
"o+	c #71A029",
"p+	c #BA7B43",
"q+	c #A67923",
"r+	c #5E9721",
"s+	c #5C8C31",
"t+	c #CF824E",
"u+	c #A76C44",
"v+	c #68AC2A",
"w+	c #5A8F28",
"x+	c #B38740",
"y+	c #C37A4C",
"z+	c #87732F",
"A+	c #69954A",
"B+	c #48732B",
"C+	c #77BA1A",
"D+	c #6B762F",
"E+	c #588332",
"F+	c #77BB2A",
"G+	c #87D300",
"H+	c #8C671F",
"I+	c #7C7030",
"J+	c #5B7B35",
"K+	c #597F35",
"L+	c #6B844A",
"M+	c #829063",
"N+	c #A9B6A4",
"O+	c #B0A390",
"P+	c #C9B389",
"Q+	c #85CF08",
"R+	c #C9BA98",
"S+	c #BB8D44",
"T+	c #B1643A",
"U+	c #8E6726",
"V+	c #616C2D",
"W+	c #4D6E27",
"X+	c #598F2D",
"Y+	c #D6B6A5",
"Z+	c #F4FDF1",
"`+	c #FCFBFE",
" @	c #E5F8F4",
".@	c #EDF1F3",
"+@	c #D4BC99",
"@@	c #E9BFAF",
"#@	c #F3F4FD",
"$@	c #B0915A",
"%@	c #666B2F",
"&@	c #547B34",
"*@	c #567F33",
"=@	c #71BD1E",
"-@	c #E2CBAC",
";@	c #FCF4FD",
">@	c #FAEEF3",
",@	c #F2F5E4",
"'@	c #FCF4E3",
")@	c #F1FBFC",
"!@	c #CD8E6B",
"~@	c #A56C2E",
"{@	c #9E6B2D",
"]@	c #996D31",
"^@	c #917235",
"/@	c #887B38",
"(@	c #85752F",
"_@	c #846D2C",
":@	c #836F35",
"<@	c #7B702D",
"[@	c #7D6E2C",
"}@	c #717431",
"|@	c #5F7936",
"1@	c #476C32",
"2@	c #5E9A2C",
"3@	c #C7AF6F",
"4@	c #ECF3ED",
"5@	c #F6F9EB",
"6@	c #FCEEFB",
"7@	c #F3F4F3",
"8@	c #FDFBF6",
"9@	c #DCB687",
"0@	c #9C6519",
"a@	c #A56B1D",
"b@	c #846C2A",
"c@	c #747D3A",
"d@	c #647534",
"e@	c #627333",
"f@	c #5A712C",
"g@	c #5F7439",
"h@	c #587233",
"i@	c #4F7232",
"j@	c #4A6B2C",
"k@	c #476B2C",
"l@	c #4F7933",
"m@	c #557B3A",
"n@	c #A49D7B",
"o@	c #E8EAFA",
"p@	c #FAEBE4",
"q@	c #ECFAF2",
"r@	c #FAF4F4",
"s@	c #E6EAE6",
"t@	c #AA7938",
"u@	c #B55A3D",
"v@	c #7A6623",
"w@	c #6D994D",
"x@	c #57783B",
"y@	c #D9DED7",
"z@	c #FDF1EA",
"A@	c #976331",
"B@	c #897733",
"C@	c #84966F",
"D@	c #F1ECF3",
"E@	c #E4E4E3",
"F@	c #DEE2DD",
"G@	c #D5BBA2",
"H@	c #507539",
"I@	c #B7BFC3",
"J@	c #E9E5ED",
"K@	c #DCE4D5",
"L@	c #E4DDE3",
"M@	c #9B936D",
"N@	c #7B8F72",
"O@	c #E5EBFA",
"P@	c #EDF4FC",
"Q@	c #DCE3E6",
"R@	c #7D8E5D",
"S@	c #5F8545",
"T@	c #D8DCD0",
"U@	c #F6EFFC",
"V@	c #E5DCDE",
"W@	c #6F855A",
"X@	c #6E8D5B",
"Y@	c #E2DCAC",
"Z@	c #F5E5DE",
"`@	c #EDFDEA",
" #	c #7D9173",
".#	c #789D2C",
"+#	c #E5D6B6",
"@#	c #DCDDE3",
"##	c #DADFD7",
"$#	c #909F88",
"%#	c #395F1D",
"&#	c #EDE2C2",
"*#	c #FDEFE9",
"=#	c #E9E5DB",
"-#	c #A5ADA5",
";#	c #B5BFA4",
">#	c #E5FBEE",
",#	c #8E9E88",
"'#	c #B7AF8D",
")#	c #F3DFD6",
"!#	c #D3E1E2",
"~#	c #5E784C",
"{#	c #979A70",
"]#	c #DFDDE3",
"^#	c #CFE2F3",
"/#	c #ACAF97",
"(#	c #5D8A3F",
"_#	c #627B4E",
":#	c #738C66",
"<#	c #919C97",
"[#	c #CBCFC9",
"}#	c #697747",
"|#	c #536F37",
"1#	c #5B6E35",
"2#	c #6C9841",
"3#	c #436C25",
"4#	c #537C34",
"5#	c #3D671C",
"6#	c #52802E",
"7#	c #6A9F34",
"8#	c #669F2E",
"9#	c #649D15",
"0#	c #6AA521",
"a#	c #6DA82B",
"b#	c #72AD2D",
"c#	c #659E2F",
"  . + @ # . $ % $ & * = % % . - $ * & ; & - * > & & @ , % * ' + ) & ! $ ~ % { ] ^ / ( ' , % ; * ' _ $ : ~ < $ [ $ } ~ ~ | . }   ",
"$ - + 1 @ . $ $ & * $ 2 % $ } - } $ - & , 1 3 + > @ , > ! % 4 $ } - ~ ] 5 $ ^ _ ] * , + # * % , % , ] $ , 2 6 7 } 8 ~ ~ $ } - $ ",
"( , 1 * , ] : , 4 > > 9 = 0   $ a } $ ; * b c + _ d . > 9 % ~ * ! , ~ 0 [ a : a ! ] e ; , & * 4 5 f * ~ g * h i } j 0 $ ( $ $ 9 ",
"& # - ; ] % ] 4 k & $ % - l   } } % & . - * + 1 4 d ; . 5 % ] . % * : ! 0   m a $ 4 , - * - * , 5 # # n o ] 6 % p ) * $ 9 $ l % ",
"; ; d 5 & 9 ] 4 ' * * ! ) $ } l - , - . & 9 ( % # q d * * & ] - q & . * : $ [   * r s $ % $ ; , t d u ; v . 8 ! p ! = * 9 9 2 c ",
"& , & & $ 5 ] ] & $ 7 !   % : w 1 1 ; ; & $ 9 _ x & , * $ $ $ $ d d d - ^ _ [ y z A B C D E F G H I J , , . ] } [ 7 ( 2 } ( w * ",
". 4 K & _ $ ! & - $ L ] > } ] ; b * , & 9 5 $ % 9 2 $ % $ ! 2 % q 9 d M N O P Q B R B S T U V W X Y Z ` ' , x ; [ m - w } 2 - ^ ",
"4 > > o . % $ % _ $ $ 0 % ; , # 0 ' @ > . $ > * l ~ i } 5  ...+.@.#.$.%.&.*.B =.W W V -.-.-.&.C W -.;.>.,.& ! d [ } * @ $ 0 , '.",
").c = ] _ & ( . % $ $ * . _ . % * !.v ! l 9 & l * ~ ~., > {.].^.V V V V V V V V V V V V V V V B V S -./.&.(.: ) l & - : ( b * % ",
"o 1 0 = $ $ $ 5 ! 2 | ~ ' & - ] % _ * _ 7 $ } - $ % ~., _.:.<.B V V V V B V V V V V V V V V V V V T V [.&.}.0 9 & 2 ,     : $ 5 ",
"|.+ =   $ $ $ ! } ~ | : , 2 : } p [ } * % $ $ 0 $ _ c 1.2.3.;.C V V V V V V V V V V V V V V V V 4.T T B 5.6.7., * 2 %   0 } $ * ",
"v , * . % $ % _ [ ! ! : = : ] : 8.) ! e ] } [ : * _ 9.0.B a.*.T V V V V V V V V V V V V V V V V 5.b.S B a.3.c.d.1 % l % $ [ [ * ",
"2 $ } < ] , 4 ] l $ 0 ] 0 ^ e.~ a ) : !.e } } 0 % f.g.=.B C *.;.V V V V V V V V V V V V V V V V C *.B <.4.a.b.h.; i.} $   ~ [ 2 ",
"% ! 0   d d . - % L = 0 ( 0 | j j.0 ^ 1 * % ! l $ k.l.l.C 5.=.&.V V V V V V V V V V V B V V V V a.*.R T B -.R m.n.~   }   ~ 8 } ",
"! } 0 % . 4 d . L . . ( < } } ) ) - , _ % $ } $ o.p.q.=.r.*.B W V V V V V V V V V V V V V V V V *.B 6.V 5.V *.s.t.$ % ! ! $ 8 % ",
"  l = . . & * ~ & ' ^ * | $ ) u.[ ( $ % % w - ( v.T Y r.=.*.w.-.V B V V V V V V V V V V V V V V &.<.T B C &.V X x.& , _ ! . c [ ",
"~ y.j.)   ( . e 1 k q o # ] [ ! [ ( * z.~ ! 7 A.V V V V V V V V V V V V V V V V V V V V B V V V W V V V q.W W Y B.$ - : : ] } 9 ",
"2 8 (   * : ).d & # ).d 4 . - [ : ~ L : ! ! % C.V V V V V V V V V V V V V V V V V V V V V V V V R R V V V W W D.E.F.b ' ( b   ! ",
"2 } > 2 , . x * & G.# $ % - c : + * % a $ [ H.I.V B V V V V V V V V V V V V V V V V V V V V V V V V -.V R W V J.K.L.: ' * : $ } ",
"y.= 0 G., , ~ % u $ } % 8   - | q $ l 6 : 5 M.l.V V V V V V V V V V B V V V V V V V V V V V V V V R V -.W W R D.N.O.c c | ^   % ",
"} ~ . & . n ] % P.$ 9 $ = ! : b q 7 =   +   Q.X V V V V V V B V V V V V V V V V V V V V V V V V V V V V W V R D.R.S.b * e b < % ",
"~ - , @ * ' x . ] * : } ) - ^ * % % : b 1 ( T.;.V V V V V V V V V V V V V V V V V V V V V V V V V V V V W B U.D.V.W.: ' * = = ( ",
"0 c x > & - 4 ' $ ' ] ~ } : * ~ % ! : d $ ! X.C V V V V V V V V V V V V V V V V V B V V V V V V V V V V V Y.D.D.Z.`.& ; w * ,   ",
"- n x 5 & 4 ; & 1 , . $ c _   , ! = L o l  +Y .+V R V V V V V V V V V V V V V V V V V V V V V V R V V V V R J.D.++; . > 2 % _ - ",
"; d * c ^ z.c b - b ( = $ ! ' d * d ' ' @ @+;.&.V V V V V V V V V V V V V V V V V V V V V V V V T 5.C *.=.#+$+%+&+] 0 * w * b . ",
"~ ] ) $ b 1 : e , = ! $ , , *+d ^ ~ % ] ; =+B V V V V V V V V V V V V V V V V V V V V V V V V V B *.&.*.D.-+J.;+>+j l $ ; @ % % ",
"~ ] ! ! b c : *+, 0 ! ! . # d # _ & & _ ,+'+B V V V V V V V V V B V V V V V V V V V V V V B V V q.-.&.Y.)+R.!+U.~+} 6 } _ . ~ $ ",
"% ] ! ! ( c = : ~ % * * 9 % - + & 9 5 $ {+l.q.B V V V V V V V V V V V V V V V V V V V V V V V V *.V B ]+R.Y ;+^+/+! } $ $ !   _ ",
"+ # % 7 - : ) < b , d @ % !   % $ $ ! w (+*.*.&.V V V V V V V V V V V V V V V V V V V V V V V V V B R D.V.U.V.]+_+% 0 ! $ ~ % % ",
"o :+, _ = ^   * 1 e ~ $ % _ m [ $ %   2 <+*.5.&.V V V V V B V V V V V V V V B V V V V V V V V V V R Y V.D.D.[+}+7 $ c | ~ $ } . ",
"d f % ! * * $ * ; 4 $   $ a j p * ~ % |+1+B -.B V V V V V V V V V V V V V V V V V V V V V V V V R D.]+^+2+U.3+4+~ c b 0 [ } ! = ",
". 4 % ! : * ; o ~ * * 0 ~ [ } < , % ! 5+1+R C *.V V V V V V V V V V V V V V V V V V V V V V V V $+J.]+-+6+V.7+,   $ = a a 6 ) = ",
"! > 4 * @ ; & . ! 2 b : 8 ( < } j 7 ! 8+S -.*.;.V V V V V V V V V V V V V V V W V V V V V V R D.-+9+2+;+D.0+`.i ! | ! a ~ ) a = ",
"  $ % * ; - a+] < y.( | : !   } ) ) } b+Y /.B 1+R V V V V V V V B V V V W V R V V V V V V R Y J.Y %+D.U.c+d+! }   % } } % } ) ( ",
"! > $ 4 , ( y.4 : } ! | | ) h ) ! $ l e+;.B C V V V B V V V V V -.-.V R V V V V S V V R R D.J.D.;+f+R.g+h+} $ ~ %   $ ] } ! , ) ",
"* $ , x $ * % %   ! )   !    .! $ - ! i+C -.4.&.V V V V V V V V V V V V V V W W R R R D.D.V.D.D.D.D.R.j+k+}   % c ! % n ! } b : ",
"& . _ $ $ $ % %   b = }   ! p [ , @ % l+R V *.4.V V R V V V V V V V W W W B R Y ]+D.D.D.D.D.]+D.m+g+]+n+[ ! _ $ % % ] ; < ( * } ",
"+ , ; ( _ $ $ ~ % , ' ) 6 : -   , ; o+p+q+C W S V R V V V V V V V b.W B B Y.D.D.D.D.D.D.D.D.D.J.]+D.r+! ! ~ $ % * ~ ; w   : b 0 ",
"*+e ] _ _ % $ . , ] ' ! ! : $ = & s+t+q.T B W W V V V V V V R V W R Y.D.D.D.D.D.D.D.D.D.Y.D.D.D.u+v+] $ % ~ } ! $ , $ = , ' = c ",
"e # , $ % , & d !.* % . % ! } : w+x+Y q.y+[.-.W V V V V R q.q.D.D.J.D.D.D.D.D.]+D.D.]+D.D.J.D.z+% ~ ~ % ! $ % % ~ , ;   + * } ] ",
"] A+= 2 % - % , , ! & . ~ . B+C+;.R T q.4.W a.9+q.R D.D.D.D.D.D.R.6+%+U.$+Y )+R.m+^+)+!+-+[+D+, , * [ ! ) [ %   % |   (     c ] ",
"] e.] % * > : . $ 7 5 , E+F+G+w.a.r.*.&.S !+f+J.J.J.D.)+R.R.]+]+]+X $+f+)+$+^+D.%+X $+H+I+J+, ; , ~ ! ! ! }   % 0 : 7 - : | % % ",
"; : % % % 0 K+L+M+N+O+P+Q+G+R+S+Y 5.R X )+]+T+D.m+D.D.D.m+D.;+;+;+$+]+Y.D.D.^+U.3+U+V+W+: ^ ; * ] ] %   ! l ! % = % $ !   % : 0 ",
"% % $   9.X+Y+Z+`+ @`+.@+@@@#@$@B a.3+%+%+Y %+]+D.D.D.D.D.D.V.V.%+D.m+D.)+D.D.f+%@&@% $ % , l ( $ * $ ( - $ % 7 % % 2 7 % } , 0 ",
"$ $ ! *@=@-@;@Z+>@Z+,@#@'@'@)@!@$+]+V.9+V.;+V.D.)+R.D.~@{@]@^@/@(@_@:@<@[@}@|@1@( % % ! $ % j.2 $ % $ y.- ( %   _ 9 ! x ~ $ ) - ",
". = : 2@3@.@#@4@5@6@7@)@>@#@8@9@0@^+f+V.a@b@c@d@e@f@g@h@i@j@k@l@~.m@# # , $ ! % ~ $ . ~ $ ! ! l * x ^ 2 - ( ] , , ( 4 ] 5 % 0   ",
"x , . * n@8@o@)@ @7@p@q@ @r@)@s@t@u@q+v@! % # ] , * . $ % 5 ; d # w@# %   % ] * ~.* , 4 $ $ _ ! = | ~ }   % ] ' d ; ] % - ~ *   ",
"; , * - x@y@q@z@.@;@;@r@r@7@z@)@9@A@B@& * ).~.1 $ - 2 ( % 5 ; o f A+y. ., ^ d . 4 . 4 . . ( : $ * | !   ! ! * ; . . - $ $ % :   ",
"% 4 1 1 ] C@#@z@#@,@z@,@)@#@D@E@F@G@& $ * n , % ! $ % ! % $ & e m } ! > _ 4 ! % & ).5 & % , . ; 4 , & ; % % j.p . * _ $ ( ] * ; ",
"% , - ' % H@I@5@Z+7@;@5@7@r@J@K@L@M@% ! : % . ~ , % %   ] c , + [ ! 9 $ . % _ & & % $ 5 _ 4 , . , % ' . : : 8 } , ( $ % $ . , , ",
"% % c | $ ! N@O@4@.@P@r@>@8@J@K@Q@R@% % $ $ $ $ % % $ ] # - ] _ p ) $ % . ( ' k 2 9 & % . d % , 4 K x ~ l % | * & - 2 * & ; ' , ",
"! % $ : * _ S@T@;@;@ @)@U@7@4@V@J@W@% - } * $ % l c * # *+- ; % 0 0 % . 4 4 , 4 - $ % & _ . & , * ( . % 2 * ).e - , 2 $ & & , & ",
"; % - ' ' , ] X@Y@Z@`@.@6@q@.@L@L@ #% l , $ *   } ~ : * , c $ $ - % : 9 * x . $ 7 -   $ & d . , . & % 7 $ % # e & ] 9 % - & & * ",
", * $ _ # d # ; .#+#5@>@z@q@P@@###$#! 9 , - l $ ~ : ( %#=   $ ! c , * l ( % . % % y.@ & & ] ] 9 _ & | % * : ' ] % ] % ] > ; ' . ",
"; $ 9 $ ' , w@d % &#`+U@*#q@.@=#Q@-#> $ = % - = ) ( 8 l $   = , , , -   ) [ $ $ $ 3 & & . % = } 2 % % 2   : = ] * , _ , @ d A+; ",
". $ } x . @ ' _ !.;##@P@r@>#J@V@K@,#$ & , & % % ( 8 = : = * , : . * & 0   } } ! $ _ d & , $ } u.w : c = 0 , % $ ; d . , q ; *+* ",
"( ] % ' * * * b ' '#6@>#r@)#K@F@!#~#% > - . e.- l   ] ( - ] : $ & 2 ! & $ ) ) ! c e.* % * % % $ 2 % _ , b e x $ ] ] ~ % * ( ] - ",
"0 % : , ' * 2 } * {#]#O@@#@#L@^#/#* & ' ; * % ] = % ] y.% % % } 9 5 : . % ) ! % : ] $ } - & . - ( * _ * ^ ' 4 * * = * ! % - * $ ",
"! ! ( * , } | $ * (#_#:#<#[#s@V@}#  = , $ , . : ~ * , % $ % % $ > ; , * % * $ %   % _ w G.d ; ; 0 . ~ $ _ = - & = $ ( $ x # c $ ",
"[ e.0 * 1 - | x $ * ( ~ % 0 |#1#: ~ : - - & - = _ & ~ n = ! 5 ! $ & + . % . _ !   ! ] . ; d # d - % , $ $ } > , : : % , ' ]   , ",
"! & & ; G.# ] : % $ ( 0 } ( $ ) : 0 - 2 % c , ] * ; x ' ] & $ $ } c ; % 7 & % $ ; c : # - & n * ( - . $ }   ; d ] | % ; * - $ % ",
"  ( - * , # 1 - _ $ * $ - 0 : : a   - - * . . * $ . , $ = % % $ 8 $ = 0 8.9 2 9 - ] ~.1 3 * % $ } ( ] $ % ! % , , ~ % . $ $ ! } ",
"% . ' ] & & . % * $ $ % : % ] = ! % $ , , * * - * % * ( - , ] % $ ! % * | l 9 * $ , 2#3#$ 4 > : } * + @ ~ $ ! & - % | ] b :   ! ",
". . , - $ ' _ % , _ = : . * ' ] $ ~ % . & > * > $ , , - ~., : J 9.9.9.4#|+5#6#7#8#9#0#a#b#c#A.b ! . G.- | % ! % % : ~ * , n )   "};
