/* XPM */
static char * chicken_3_xpm[] = {
"64 64 480 2",
"  	c #466C31",
". 	c #4E7933",
"+ 	c #4D792D",
"@ 	c #457125",
"# 	c #558134",
"$ 	c #456B2C",
"% 	c #4C7333",
"& 	c #467031",
"* 	c #4A6D32",
"= 	c #51763A",
"- 	c #517534",
"; 	c #4A732D",
"> 	c #496D2D",
", 	c #436B25",
"' 	c #3D691E",
") 	c #46712B",
"! 	c #4F793A",
"~ 	c #5E8941",
"{ 	c #446633",
"] 	c #538529",
"^ 	c #61922D",
"/ 	c #4C7433",
"( 	c #5A833C",
"_ 	c #527B35",
": 	c #597E3C",
"< 	c #345D15",
"[ 	c #426E1F",
"} 	c #517B2E",
"| 	c #56813A",
"1 	c #578141",
"2 	c #547B3A",
"3 	c #496731",
"4 	c #4A672D",
"5 	c #3E6A29",
"6 	c #42662B",
"7 	c #4E7F24",
"8 	c #3A5E22",
"9 	c #416525",
"0 	c #496E25",
"a 	c #396317",
"b 	c #3E6924",
"c 	c #3D6324",
"d 	c #588537",
"e 	c #4C6C2C",
"f 	c #598436",
"g 	c #365C22",
"h 	c #4E7339",
"i 	c #557D38",
"j 	c #476C38",
"k 	c #3E6431",
"l 	c #6A944C",
"m 	c #587638",
"n 	c #537541",
"o 	c #3D5E2B",
"p 	c #669245",
"q 	c #3E642A",
"r 	c #51762C",
"s 	c #537D29",
"t 	c #4C6D3A",
"u 	c #5D8A3C",
"v 	c #62923E",
"w 	c #5B8937",
"x 	c #61863C",
"y 	c #456B2A",
"z 	c #496727",
"A 	c #3B631D",
"B 	c #5E742D",
"C 	c #677E24",
"D 	c #4F812C",
"E 	c #53832E",
"F 	c #446A2B",
"G 	c #619721",
"H 	c #3F6B29",
"I 	c #4A7426",
"J 	c #5D792E",
"K 	c #9D7D30",
"L 	c #A1832D",
"M 	c #406B29",
"N 	c #789819",
"O 	c #7FC811",
"P 	c #4E7C29",
"Q 	c #4F6C2D",
"R 	c #967E35",
"S 	c #B37532",
"T 	c #B47533",
"U 	c #C1733B",
"V 	c #698538",
"W 	c #586D2B",
"X 	c #557C39",
"Y 	c #647938",
"Z 	c #9D7235",
"` 	c #AB872A",
" .	c #9AAB19",
"..	c #74B316",
"+.	c #416625",
"@.	c #385D1E",
"#.	c #506D31",
"$.	c #997231",
"%.	c #AC7B2F",
"&.	c #B77833",
"*.	c #A47D27",
"=.	c #B67D3C",
"-.	c #B37B2E",
";.	c #A6742E",
">.	c #5D6F27",
",.	c #607433",
"'.	c #A27B31",
").	c #9D752B",
"!.	c #80792F",
"~.	c #6F8039",
"{.	c #657733",
"].	c #5F742D",
"^.	c #7A7D3A",
"/.	c #946E33",
"(.	c #B27332",
"_.	c #B97934",
":.	c #BA7533",
"<.	c #B3812B",
"[.	c #A5A624",
"}.	c #628E30",
"|.	c #5A7F2B",
"1.	c #628B44",
"2.	c #617A3A",
"3.	c #9D722D",
"4.	c #BB7B2E",
"5.	c #A3722F",
"6.	c #816E32",
"7.	c #557339",
"8.	c #616D32",
"9.	c #A47633",
"0.	c #B07834",
"a.	c #A97633",
"b.	c #AA7934",
"c.	c #B07734",
"d.	c #BA7A3A",
"e.	c #B9742C",
"f.	c #7EC50F",
"g.	c #547C3A",
"h.	c #56742D",
"i.	c #AE783A",
"j.	c #B37939",
"k.	c #B57439",
"l.	c #A47530",
"m.	c #8D7431",
"n.	c #737B37",
"o.	c #71873F",
"p.	c #5E7933",
"q.	c #6B8336",
"r.	c #7D8740",
"s.	c #9C7532",
"t.	c #AB732C",
"u.	c #90B618",
"v.	c #4D7A2F",
"w.	c #597D42",
"x.	c #7E7735",
"y.	c #AE7539",
"z.	c #B4753A",
"A.	c #B47C3A",
"B.	c #AE7B32",
"C.	c #B38A2D",
"D.	c #5C8E2D",
"E.	c #506F33",
"F.	c #947F3B",
"G.	c #C27A49",
"H.	c #BB743A",
"I.	c #AE822B",
"J.	c #679E27",
"K.	c #618644",
"L.	c #727D2F",
"M.	c #C38349",
"N.	c #BB7827",
"O.	c #B3752D",
"P.	c #AE7C2B",
"Q.	c #A77132",
"R.	c #689C1B",
"S.	c #435F2E",
"T.	c #5B832D",
"U.	c #BF8B49",
"V.	c #BB7C42",
"W.	c #B37A23",
"X.	c #9F8725",
"Y.	c #6B9D22",
"Z.	c #567C41",
"`.	c #4D7331",
" +	c #9EA925",
".+	c #B8873A",
"++	c #AC7332",
"@+	c #9B9719",
"#+	c #6DA52B",
"$+	c #5C8442",
"%+	c #6DAA23",
"&+	c #B49938",
"*+	c #B38334",
"=+	c #CA6F43",
"-+	c #AE7A25",
";+	c #A0980F",
">+	c #66A01F",
",+	c #33541B",
"'+	c #547E34",
")+	c #8A9F29",
"!+	c #C78848",
"~+	c #AA7124",
"{+	c #709223",
"]+	c #5E8D27",
"^+	c #9B9031",
"/+	c #B16533",
"(+	c #AA6F27",
"_+	c #AB662D",
":+	c #767C29",
"<+	c #5F941D",
"[+	c #B58846",
"}+	c #C27A44",
"|+	c #AB6B2D",
"1+	c #B46439",
"2+	c #79782A",
"3+	c #355B1D",
"4+	c #4A732B",
"5+	c #77A916",
"6+	c #AE6E38",
"7+	c #657932",
"8+	c #75A154",
"9+	c #5B8730",
"0+	c #96B11E",
"a+	c #B06C2D",
"b+	c #527830",
"c+	c #53802F",
"d+	c #AA992B",
"e+	c #BD8244",
"f+	c #C17B3E",
"g+	c #B16B34",
"h+	c #996D2D",
"i+	c #456A2A",
"j+	c #57832E",
"k+	c #B9953D",
"l+	c #8C6B32",
"m+	c #628E39",
"n+	c #B96A36",
"o+	c #B1662D",
"p+	c #A56C2A",
"q+	c #706F2F",
"r+	c #588333",
"s+	c #56782C",
"t+	c #558034",
"u+	c #B68243",
"v+	c #A56D24",
"w+	c #9A692D",
"x+	c #4D732D",
"y+	c #618135",
"z+	c #5F8748",
"A+	c #4B752D",
"B+	c #A47F3E",
"C+	c #9F6F1D",
"D+	c #AD6B31",
"E+	c #897134",
"F+	c #8D7737",
"G+	c #A6712A",
"H+	c #567532",
"I+	c #756C2F",
"J+	c #B56D3C",
"K+	c #716B2C",
"L+	c #AC6432",
"M+	c #648034",
"N+	c #747031",
"O+	c #947A2A",
"P+	c #4B6E32",
"Q+	c #6E6C2C",
"R+	c #576E2F",
"S+	c #616D31",
"T+	c #BC663C",
"U+	c #9B6523",
"V+	c #766F30",
"W+	c #2F5816",
"X+	c #547130",
"Y+	c #956630",
"Z+	c #4B672D",
"`+	c #52742F",
" @	c #A06732",
".@	c #517031",
"+@	c #617830",
"@@	c #AD6639",
"#@	c #6B6C2F",
"$@	c #80702F",
"%@	c #986B2D",
"&@	c #A77925",
"*@	c #A66B31",
"=@	c #737A2C",
"-@	c #7E7E33",
";@	c #A87D38",
">@	c #4E7530",
",@	c #62842A",
"'@	c #B37632",
")@	c #A58C3A",
"!@	c #6E7938",
"~@	c #AC7A2E",
"{@	c #A57324",
"]@	c #B77842",
"^@	c #527738",
"/@	c #648B49",
"(@	c #476D2C",
"_@	c #8A8C2E",
":@	c #A2902F",
"<@	c #466C21",
"[@	c #527634",
"}@	c #50762C",
"|@	c #67972D",
"1@	c #628F30",
"2@	c #4D782C",
"3@	c #74AB33",
"4@	c #A4621A",
"5@	c #759928",
"6@	c #487231",
"7@	c #4E7D23",
"8@	c #669829",
"9@	c #8EB347",
"0@	c #C6C6A3",
"a@	c #F3EEE3",
"b@	c #DDD9B8",
"c@	c #A69950",
"d@	c #74A021",
"e@	c #74A71F",
"f@	c #7BC518",
"g@	c #75D402",
"h@	c #ABB813",
"i@	c #B79043",
"j@	c #97A822",
"k@	c #4F7A29",
"l@	c #5F9E1C",
"m@	c #7EBB14",
"n@	c #AFD04E",
"o@	c #F3F5D9",
"p@	c #FBFAFC",
"q@	c #F3FAFB",
"r@	c #FDFBF4",
"s@	c #F6F8E8",
"t@	c #CEBDA3",
"u@	c #C48255",
"v@	c #F4DFDC",
"w@	c #F3F3EC",
"x@	c #B08C41",
"y@	c #598A28",
"z@	c #91CC04",
"A@	c #B7DA78",
"B@	c #ECF4FC",
"C@	c #F2ECF3",
"D@	c #E5E4E4",
"E@	c #F2FCF3",
"F@	c #FAF2ED",
"G@	c #A2833C",
"H@	c #6F882A",
"I@	c #426625",
"J@	c #B39152",
"K@	c #FCEDE8",
"L@	c #F5EEFE",
"M@	c #F5F4F4",
"N@	c #F4F4FB",
"O@	c #EDF4F3",
"P@	c #EEFCFD",
"Q@	c #C09C78",
"R@	c #A17233",
"S@	c #997B38",
"T@	c #8F7834",
"U@	c #857638",
"V@	c #8B6B2C",
"W@	c #956E2B",
"X@	c #AD8345",
"Y@	c #76833A",
"Z@	c #527431",
"`@	c #42672B",
" #	c #5A8531",
".#	c #D9D9C8",
"+#	c #EEEBDB",
"@#	c #EEF9EB",
"##	c #FBF3F4",
"$#	c #EAEEE3",
"%#	c #DBCAB6",
"&#	c #AA650A",
"*#	c #9F6E25",
"=#	c #6B7727",
"-#	c #638D3F",
";#	c #62883B",
">#	c #467325",
",#	c #47732B",
"'#	c #466725",
")#	c #4E6C2C",
"!#	c #617339",
"~#	c #67662D",
"{#	c #857533",
"]#	c #92762D",
"^#	c #AE7834",
"/#	c #AB6F36",
"(#	c #A68F41",
"_#	c #66842D",
":#	c #587738",
"<#	c #ECEFF7",
"[#	c #EEF5EE",
"}#	c #FCF5FC",
"|#	c #81682E",
"1#	c #507239",
"2#	c #4E762F",
"3#	c #4E7629",
"4#	c #4F7729",
"5#	c #5F8B35",
"6#	c #67953C",
"7#	c #59892C",
"8#	c #568528",
"9#	c #517F2C",
"0#	c #F3EEEB",
"a#	c #A27651",
"b#	c #7C7B33",
"c#	c #F9EFF0",
"d#	c #DDE3EE",
"e#	c #ECECEA",
"f#	c #E4C7CB",
"g#	c #9D8633",
"h#	c #DCDDDE",
"i#	c #E7DEE8",
"j#	c #D0BB9C",
"k#	c #627F2B",
"l#	c #D8CD9F",
"m#	c #E4E3DB",
"n#	c #A9A469",
"o#	c #527A31",
"p#	c #A5B724",
"q#	c #D4EAAA",
"r#	c #D7DCD6",
"s#	c #DDDDEB",
"t#	c #C1C5BF",
"u#	c #4E7632",
"v#	c #86C312",
"w#	c #79BB0F",
"x#	c #86C425",
"y#	c #B9E47D",
"z#	c #E9F8D9",
"A#	c #D3DEE4",
"B#	c #B0B7B8",
"C#	c #4E7533",
"D#	c #629E2A",
"E#	c #5D9327",
"F#	c #588E1E",
"G#	c #71AC2A",
"H#	c #8AB923",
"I#	c #B4D676",
"J#	c #CDE695",
"K#	c #96BB50",
"L#	c #5E8F34",
"M#	c #77B723",
"N#	c #D4E2E1",
"O#	c #DEDDE3",
"P#	c #6AA423",
"Q#	c #C7DD9F",
"R#	c #E1DDDD",
"S#	c #619439",
"T#	c #86AF41",
"U#	c #F5EEE8",
"V#	c #E6E8E5",
"W#	c #9BC04E",
"X#	c #4F7732",
"Y#	c #669338",
"Z#	c #E3ECF1",
"`#	c #D8E6E6",
" $	c #AAC290",
".$	c #426725",
"+$	c #5B813B",
"@$	c #C5D4C1",
"#$	c #E8DAD7",
"$$	c #A3BB8B",
"%$	c #9CBB7F",
"&$	c #96BA50",
"*$	c #4F7439",
"=$	c #6D9B3B",
"-$	c #E9E9F4",
";$	c #E6DECB",
">$	c #E1DEEC",
",$	c #81AF28",
"'$	c #679C26",
")$	c #CABF9F",
"!$	c #BCA96F",
"~$	c #88B01E",
"{$	c #5A8837",
"]$	c #50752F",
"  . + @ # + $ % $ $ & * = - % $   $ ; + > , @ ' + ) + % ! . ~ . { % % ] ^ / ( _ : < [ } | ; . ; 1 2 , 2 2 3 3 4 { 5 2 % 1 = 6 > ",
", ; 7 [ _ % $ ) , ; , 8 = * 9 $ , $ , ; _ 0 a + @ ) ) b 5 & | @ c   & d e % : 2 _ 0 } f _ % . . % _ . 6 : 6 6 =   g % = , 6 4 $ ",
", + + @ _ . % - f 5 b , * $ 4 $ $ , , + ; - ; ; + # . b 5 h | ) $ ! ! i 9 j ! k $ : f _ + % ; # + 1 | ; l m 6 n { o ,   , * , 9 ",
"+ _ + % : = _ ( p @ ) h $ q 4 9 $ $ ; _ , r r ; # # _ @ $ h : ; ) & % s $ * t   $ ( 2 > ; $ ; _ 5 u v w x 2 6 n o 3 * , y $ c & ",
"+ } ; ; & % . | # + & $ * 9 6 c z _ @ . ; 6 A # ~ + _ % & & 2 $ # ; B C 2 z 6 j & ( _ 8 % $ r 2 . D u E + + $ 6 6 3 > F G H c $ ",
"I } ; $ , j % . $ ) 2   $ * % b $ _ + % $ , b . ( > . . & $ & $ w J K L ( = , > _ # ; [ 2 > : 2 ! 5 _ _ _ _ 2 9 { h M N O P c ; ",
"+ + @ ; * % & % $ 5 2 h , ; ( ; > _ . ) 6 $ > ;   $ % $ > q c Q R S T U V 2 h % + 2 % > = * 2 - ) W X % ( ; _ - q Y Z `  ...+.( ",
"# 5 ' _ 2 & 5 h % $     % ) . u ; 2 @ b ! $ @.+ c % : b h #.$.%.&.*.=.-.;.>.q 2 2 u 2 m *   j , ,.'.).!.~.{.].^./.(._.:.<.[.}.|.",
"u ) 6 = : $ $ . h c & ; % _ > = % 1.; % & q 3 6 % . 1.2.3.4._.&.&.&.&.&.&.5.6.7.; # u |.I x * 8.9.&.&.&.0.a.b.c.4.d.e.<.T d.f.g.",
"E ; ; 4 * , $ & 5 c 1 _ ~ > % m 4 2 ; % &   6 6 5 h.i.j.-.-.&.k.&.&.&.&.&.&.&.l.m.n.o.p.q.r.s.t.&.&.&.&.&.&.&.&.&.d.&.&.T &.u.v.",
"E } - > > , ) & t * w.% : 9 > > { 6 , ; % > $ * x.j.T &.-.-.&.d.&.&.&.&.&.&.&.&.&.k.y.z.A.k._.-.&.&.&.:.&.&.&.&.:.4.:._.-.B.C.D.",
"r ; % & =   h ! 6 $ $ = ; % m - t E., | | 9 4 F.G.H.-._.&.&.T _.&.&.&.&.&.&.&.&.-.-.I.&.&.&.d.d.:.&.&.&.&.&.&.&.T &.H.e._.t.=.J.",
"$ 6     2 . # _ 8 $ $ m 9 m K.m j * > x | 9 L.M.d.T -._.H.H.&.&.&.:.&.&.&.&.&.&.k.k.e.N.e.&.T T &.&.&.&.&.&.&.&.O.&.d.P._.T Q.R.",
"$ 3 j $ 2 f # ) = _ h > 9 4 = 6 S.9 m _ ; T.U.V.-.P.&.&.H.d.&.T &.&.&.&.&.&.&.&.&.&.&.d.&.&.-.W.&.&.&.&.&.&.&.&.B.T d.&.d.&.X.Y.",
"j 3 * & _ . . & Z.: % 9 * 6 {   * $ : % `. +V..+-._.&.&.&.&.k.:.&.&.T &.&.&.&.&.4.&._.k.k.k.:.U &.&.&.&.&.&.&.d.k.-.&.H.-.++@+#+",
"> 9 9 % _ ; . Z.& ( 2 h $+  q 1 9 b $ ! %+&+*+=.H.k.d.&.-.P.&.U &.T &.&.&.&.&.&.&.&.&.&._._.&.&.&.&.:.&.&.&.&.&.H.N.B.=+-+t.;+>+",
"= @.,+h > , _ : + ~ D E p ! j > 9 3 j '+)+!+<.k.&.&.&.&.&.&.&.&.:.&.&.&.&.&.&.k.&.&.&.&.&.&.&.&.&.&.&.&.&.k.&.&.:.O.=.d.U ~+*.{+",
"9 @.$ $ % ; 1._ % w u # ! . 9 6 % m w.]+^+!+-.k._.&.T &.&._.&.&.&.&.&.&.&.&.&.&.&.&.&.&.&.:._.&.&.&.:.&.&.&.&.&.&.O.&.-./+(+_+:+",
"8 @.9 c % _ | ; & , f $   $ , = # ) + <+[+}+&.d.&.&.&.&.:.&.&.&.&.&.&.&.&.&.&.&._.T :.&.&.&.&.&.&.&.&.&.&.&.:.&.&.-._.-+|+t.1+2+",
"3+% $ 9 % - ; _ p , 6 - c h $ f # 5 4+5+M.d.O.d.:.&.&.&.&.&.&.&.&.&.&.&.&.&.&.&.&.&.&.&.&.&.&.T &.&.&.&.&.&.&.&.:.d.d.O.(+t.6+7+",
"q 2 % $ 2 1.: ; 8+, q $ * * % } + = 9+0+M.}+O.e.&.&.&.&.&.&.&.&.&.&.&.&.&.&.&.:.&.&._.:.&.&.&._.&.&.&.:.&.&.&.&._._.k.a+_+|+|+b+",
"= , _ , + ( 1.% 2 I r { t > : ) ) = c+d+e+f+P.e.:.&.&.&.&.&.&.&.&.&.&.:.&.&.&.&.&.&.&.&.&.&.&.&.:.&.&.&.&.&.&.&.4.P.++|+g+a+h+i+",
") $ ( ) 5 @ : | $ u m : o = ; h ; $ j+k+.+k.-.&.&.&.&.:.&.&.&._.&.&.&.&.&.&.&.&.&.&.&.&.&.:.&.&.&.&.&.&.&.:.&.&.:.W.|+|+++/+l+/ ",
"$ K.( ) . | ) % + + - [ - * % + $ & m+M.d.B._.:.&._.&.&.&.&.&.&.&.&.&.&.&.&.:._.&.T &.&.&.&.&.&.&.&.&.&.&._.&.&.k._.n+o+t.p+q+* ",
"I ( ) $ _ m ; I z > $ *   ; | |.+ 2 r+e+_.d.e.&.&.&.&.&.&.&.&.:.&.&.:.&.&.&.&.&.&.&.&.&.&.&.&.&.&.&.&.&.&.e.&.&._.k.|+(+1+t.s+; ",
"+ : $ $ - r + f _ > $ > 2 | | # _ _ t+u+_.&.T &.&.&.&.&.&.&.&.&.&.:.&.&.&.&.&.&.&.:.&.&.&.&.&.&.&.&.&.&.&.&.&.&.g+v+_+O.g+w+x+; ",
". : > $ > r r y+2 , $ > 2 z+| ( % $ A+B+k.&.T &.&.&.&.&.&.&.:.&.&.&.&.&.&.&.&.&.&.&.&.&.:.&.&.:.&.&.T &.&.d.&.T (+C+D+t._+E+% % ",
". 2 $ $ 4 4 0 - + + % $ , $ ; _ & , $ F+_.&.e._.&.&.&.:.&.&.&.&.&.&.&.&.&.&.&.:.&.&.&.&.&.&.&._.&.&.e.&.d.&.T O.G+D+D+G+_+H+h   ",
"E ( % > * m E.> I | _ $ $ $ > % j $ ; I+&.&.:._.&.&.&.&.&.&.&.&.&.&.&.&.&.&.&.&.&.&.&.&.&.&.&.&.&.&.&.&.d.T g+|+|+J+|+D+*.% * = ",
"w p _ + = 2 h ; + | ; & = h = 6 & & & K+&.-._.&.&.&.&.&.&.&.&.&.&.&.&.&.&.&.&.:.&.&.&.&.&.&.&.&.&.&.&.d.T T |+|+L+g+|+1+M+$ $ = ",
"# ~ . $ > ; $ ; } _ 4 $ h 3 o o % _ % N+&.O._.d.&.&.:.&.&.&.&.&.&.&.:.&.&.&.&.&.&.&.&.&.&.&.&.&.e.k.&.&.T |+D+|+L+G+_+O+P+6 6 * ",
") ~ % ) % + I f r r ; 4 * t o n - - > Q+&.-._.k.&.&.&.&.:.&.&.&.&.:.&.&.&.&.&.&.&.&.&.&.&.&.&.&.&.&.&.O.t.|+|+D+g+~+D+R+S.* = j ",
"h c | + @ + ; % 3 [ r - 6 9 $ { c n S.S+-+:.d.W.&.&.&.&.&.&.&.&._._.&.&.&.&.&.&.&.&.&.&.&.&.&.e.&.H.t.v+1+T+t.p+t.U+V+  = { 3 { ",
"  $ & , + , W+: j @.9 = - * * {   * { X+P.U &.k.&.&.&.&.&.&.&.&.&.T &.&.&.&.&.&.&.&.&.e.&.&.&.&.t.g+(+v+1+/+v+p+|+Y+Z+6 = 6 * 4 ",
"  6 ; : + , c h _ 6 j ( m t j * ) 6 6 `+T :.4.d.:.&.&.&.&.&.&.&.&.&.&.&.&.&.&.&.e.d.&.&.&.&.T O.|+g+(+(+|+v+v+D+ @.@* h $ 4 h = ",
"& , . ~ $ $ 2   &   * = * { o 3 ; q & +@T :.-.k.&.&.&.&.&.:.&.&.&.e.&.e.&.&.&.&.&.&.&.&.&.|+|+|+|+g+|+|+p+G+G+@@#@& 2 z+h * * > ",
"+ % % ; ;   % & 3 ; * q { j 6 o + ; . $@:.d.&.-.&.&.&.&.&.&.&.&.&.e.&.&.&._._.d.&.T t.|+|+|+|+|+|+|+|+_+|+g+L+%@% > : > - 6 = 9 ",
"_ | ; , 2 $   h & f : j j _ % { % _ . &@f+_.t.-.&.&.&.&.&.&.&.&.&.&.d._._.T T T |+|+|+|+|+|+D+|+|+v+_+a+|+_+*@=@2 % % A > % - $ ",
"( | _ % 2 h ) ! _ _ : %   *   3 + D -@-+U -.O.:.&.&.&.:.&.&.&.&.&.&.&.&.T |+_+|+p+_+|+|+|+D+|+|+p+|+/+(+(+1+;@>@; . ; > 2 1 9 4 ",
"u ~ _ 4 & % ) f u % ) ; ;     + ; ,@'@T &.O.O.}+&.&.&.&.&.&.&.k.T O.|+|+|+|+|+|+D+D+|+|+|+|+|+|+(+D+/+p+t.G.)@  % : + [ 2 % , : ",
"# 1.% q h 4 _ + 1 $ ) . ! _ % > !@~@e.d.d.f+&.t.T T 6+g+t.D+|+p+p+D+p+D+D+|+|+|+|+|+|+D+|+v+v+{@p+_+D+k.]@&+^@% ; 2 * 6 > h & _ ",
"_ /@2 $ * c r m & ! ) 2 _ 1 (@_@_.:._._.++a+o+g+_+_+(+(+(+(+O.|+_+|+|+|+|+|+|+|+D+p+v+p+/+1+/+D+p+Q.H.}+:@<@$ % $ ! % * m h ! ; ",
". : % % [@}@|@1@$ & $ . 2@3@[.e.&._.&.P.*.4@p+t.(+t.t.D+|+_+_+L+|+|+|+D+|+|+|+(+/+D+p+p+|+D+L+|+6+d.d+5@6@6 & = $ h 5 * * * _ , ",
"& $ 7@8@9@0@a@b@c@d@e@f@g@h@N.P.*+O.o+o+D+g+L+|+a+|+/+/+/+|+(+G+_+|+_+|+|+D+|+|+|+D+t.p+p+p+Q.=.i@j@k@,   6 = % h $ 5 % > > % $ ",
"l@m@n@o@p@q@r@q@s@t@u@v@w@_.e.]@B.Q.|+_+g+D+t.(+G+G+(+t.|+|+|+|+|+|+|+|+|+D+D+|+4@{@D+L+D+B..+x@y@; * 3+$ c = $ % , h : = * $ > ",
"z@A@B@C@a@r@D@E@p@q@o@B@F@!+W.Q.|+|+|+|+(+p+|+_+L+L+|+U+v+p+_+L+|+|+|+|+_+p+|+|+/+D+++]@G.G@H@I@; 2 2 c   6 : . _ c 2 m % % 6 > ",
"J@K@L@p@M@L@N@s@w@O@P@O@r@Q@4@6+_+D+D+o+L+R@S@T@U@V@W@L+|+|+(+(+|+|+_+p+|+Q.++6+I.V.X@Y@Z@`@h   % : m j * * Z.| f . _ - > = =  #",
".#r@+#@#E@B@p@F@O@##E@$#p@%#&#1+a+|+_+*#=#-#;#>#,#(@'#)#!#~#{#]#^#/#6+=.]@V.e+M.(#_#| ; %   % $ % 2 $ * > & % . + + ; $ 9 j :#`@",
"+#r@N@F@##<#p@K@E@w@M@[#N@}#J@4@|+1+|#  % /@_ = + A & & % , + w 1#2#3#4#5#6#7#8#9#( h & & _ % + 2 # ; ; > m ,+6 h $ : $ c ( > . ",
"E@a@F@##E@@#O@B@0#M@N@p@<#M@%#a#v+b#.   h _ % & = - % % : ; _ + q   6 , ; % . % 9 _ $ ) . : _ | _ . ( - = % c 9 _ b $ > * _ + | ",
"q@p@}#N@<#M@c#N@C@}###F@w@d#e#f#g#% % h 6 ) & * % % ) _ 1.> # . q   , % _ $ _ u @.% ) ) 2 : + _ . $ : % % % _ _ ; , A $ + . : _ ",
"D@r@e#M@M@F@F@N@N@q@E@0#D@h#i#j#k#%     $ $ $ h 9 & ) | 1.$ % % 6   $ . : _ 2 ( 6 4 % ) . _ + % + b & % 8 % ( | , % A ; > ; _ ) ",
"l#p@p@F@s@B@B@$#@#O@M@}#m#.#+#n#o#h . c 2 $ * & $ = . ) _ > $ $ , % h , ; : _ ; 2 5 $ ) ; : : . + @ = % 6 % 1.f h ! 5 2 , ) ; $ ",
"p#q#P@B@[#B@B@p@w@N@N@}#a@r#s#t#u#2 & c _ $ , $ =   5 b z ; z & ) % % c 5 _ $ > % g $ ) > _ % $ . ) : & % % ( _ % 2 + . b . | . ",
"v#w#x#y#z#}#c#c#p@<#p@F@e#s#A#B#C#. , $ > % 9 4 j c c q $ ; > _ _ . )     6 6 h 5 c ; ) + ; 6 $ 5 ; > , > ; = & ) | _ + , # l . ",
"D#E#F#G#H#I#0#M@0#E@O@e#L@s#J#K#& ,   ) _ ; + = 9 6     * = m } _ ! ,   t q       ) # ) _ h $ n c . > ; % 2 $ % _ . + E + + p , ",
"> % _ + L#M#N###[#w@p@M@0#O#A@P#= $ $ , $ + ( > c 6 = , & h     5 b ) ) & h   3 ; _ ) ! % & ; $ g . . | + 1 z+5 _ 2 . ! & , : $ ",
"$ & . | : j+Q###N@p@C@p@$#R#n@S#2 ; . | _ % _ = % % 2 q > 2 & , b $ _ %   & { % % 1 5 c & & ; , 5 . . ) : | | @ & ) , z % & & $ ",
"  % A + _ z T#U#N@##0#M@m#V#W#X#$ > % _ ; % % _ h ) _ $ & %   $ @ ; _ ; ) h h @ & ! h c + + |.+ 6 . . $ % * $ + > $ $ $ K.w.> > ",
"{ 2 ) ) 0 ; Y#Z#M@r@p@V#`#R# $.$h . % $ , ) $ - . $ : ( 2 >   % $ ; + ) . ! h $ & $ | _ ; _ ~ # , ) . $   $ b _ % _ % % K.: > % ",
"3 & ) ; r : +$@$K@w@`#A#i##$$$/ = $ , b + > ; m + + ( ( 2 $ $ $ c > - ; h &     ; , u _ , _ ( % , $ % ) 3 h ; _ 2 : % + > > > = ",
"h 5 @ ; _ : I %$s#h#m#V#s#i#&$*$$ $ q $ _ + _ ; ; % _ > ) ; . , c 4 > * Z.k 5 5 @ _ 1.) [ % & & 6 , 2 $ = $ % _ h _ % _ > 9 4 4 ",
"h ; | _ ; - % =$-$h#;$R#>$m#,$u#$ Z.% % = ; - [ ) % % , ) . : ; * > > % 2 q 5 & ) ; 1.; ; ; $ = $ & . , 2 9 $ h ) h _ : % 2 > $ ",
"% I + @ $ : | '$)$V#`#>$%#!$~${$q 2 $ _ ; ' ; $ ; . % ; : 2 2 _ % % + - 2 3+> K.% W+| _ ( % + % $ . b @ 1 % $ & . % _ % _ /@  ]$"};
