/* XPM */
static char * chicken_2_xpm[] = {
"64 64 473 2",
"  	c #456B2B",
". 	c #446C1E",
"+ 	c #4B7325",
"@ 	c #548126",
"# 	c #527B2D",
"$ 	c #466B32",
"% 	c #4C7332",
"& 	c #4B732C",
"* 	c #4E792C",
"= 	c #537B34",
"- 	c #496E24",
"; 	c #496E2C",
"> 	c #517634",
", 	c #3E642A",
"' 	c #41661D",
") 	c #436B25",
"! 	c #3C641D",
"~ 	c #467125",
"{ 	c #3F6924",
"] 	c #568134",
"^ 	c #4E7932",
"/ 	c #47712B",
"( 	c #5F8942",
"_ 	c #4E743A",
": 	c #597E34",
"< 	c #56803A",
"[ 	c #335A15",
"} 	c #5A8235",
"| 	c #557C3A",
"1 	c #467030",
"2 	c #5C8341",
"3 	c #52763A",
"4 	c #436532",
"5 	c #42662B",
"6 	c #4B6E39",
"7 	c #55812D",
"8 	c #3F692A",
"9 	c #37601D",
"0 	c #4A6E32",
"a 	c #5B833B",
"b 	c #3B5E24",
"c 	c #506F33",
"d 	c #3E691D",
"e 	c #638B3D",
"f 	c #4D7925",
"g 	c #679146",
"h 	c #5D893B",
"i 	c #395E1C",
"j 	c #477125",
"k 	c #5C7C3A",
"l 	c #6E7E39",
"m 	c #837431",
"n 	c #846F31",
"o 	c #7B742D",
"p 	c #3D6424",
"q 	c #416625",
"r 	c #51762D",
"s 	c #4D7332",
"t 	c #58792C",
"u 	c #737829",
"v 	c #A37637",
"w 	c #BB793A",
"x 	c #B3752E",
"y 	c #B8852C",
"z 	c #B37B2D",
"A 	c #957234",
"B 	c #4F793A",
"C 	c #5A892B",
"D 	c #486E1F",
"E 	c #4F7B2C",
"F 	c #5C8832",
"G 	c #5E8329",
"H 	c #788C35",
"I 	c #77742D",
"J 	c #8C7A38",
"K 	c #92783B",
"L 	c #B77833",
"M 	c #B9762D",
"N 	c #B57539",
"O 	c #B57632",
"P 	c #BA7A2D",
"Q 	c #957434",
"R 	c #607F43",
"S 	c #3B5F28",
"T 	c #4F802F",
"U 	c #608C25",
"V 	c #86A71E",
"W 	c #938323",
"X 	c #C1753A",
"Y 	c #BA7634",
"Z 	c #B48334",
"` 	c #B97934",
" .	c #A67634",
"..	c #355C1C",
"+.	c #3C5D30",
"@.	c #587F2E",
"#.	c #366021",
"$.	c #55852C",
"%.	c #95AE18",
"&.	c #A19326",
"*.	c #B67A43",
"=.	c #AD7B2A",
"-.	c #777133",
";.	c #416815",
">.	c #4A731E",
",.	c #5D882C",
"'.	c #5B8927",
").	c #43672B",
"!.	c #597E3B",
"~.	c #60903A",
"{.	c #4A6F2C",
"].	c #859C23",
"^.	c #A47631",
"/.	c #5B6732",
"(.	c #6A8A3F",
"_.	c #507731",
":.	c #A18531",
"<.	c #93AA15",
"[.	c #64972D",
"}.	c #629036",
"|.	c #688827",
"1.	c #AE862C",
"2.	c #A47633",
"3.	c #697D2A",
"4.	c #3C6024",
"5.	c #627C22",
"6.	c #A8802B",
"7.	c #B37B3B",
"8.	c #C5783C",
"9.	c #9D922E",
"0.	c #4C722B",
"a.	c #3C6028",
"b.	c #567D33",
"c.	c #A88729",
"d.	c #B26C32",
"e.	c #9A802A",
"f.	c #6B8230",
"g.	c #51732B",
"h.	c #4F712B",
"i.	c #5D7B32",
"j.	c #6C7929",
"k.	c #888028",
"l.	c #A87631",
"m.	c #7C8A28",
"n.	c #628A43",
"o.	c #8F812F",
"p.	c #AA7A2A",
"q.	c #9A702A",
"r.	c #A27431",
"s.	c #AC7839",
"t.	c #A99534",
"u.	c #587A24",
"v.	c #6F7D2F",
"w.	c #B87A27",
"x.	c #C37046",
"y.	c #A78734",
"z.	c #3A601C",
"A.	c #5F7524",
"B.	c #B3842C",
"C.	c #BB743B",
"D.	c #B66B38",
"E.	c #AD7A25",
"F.	c #9E7436",
"G.	c #436825",
"H.	c #5E8935",
"I.	c #456B2A",
"J.	c #AC732C",
"K.	c #936C2E",
"L.	c #517033",
"M.	c #59832D",
"N.	c #5A7E41",
"O.	c #577F40",
"P.	c #699728",
"Q.	c #C26F45",
"R.	c #C56B39",
"S.	c #876924",
"T.	c #466C32",
"U.	c #6A9345",
"V.	c #507C2B",
"W.	c #786F30",
"X.	c #7A9929",
"Y.	c #706D2F",
"Z.	c #416E1D",
"`.	c #B18B2C",
" +	c #AB6B2C",
".+	c #756B2C",
"++	c #79941E",
"@+	c #80702F",
"#+	c #6D954F",
"$+	c #4D6F32",
"%+	c #A6882E",
"&+	c #B16C2C",
"*+	c #77702E",
"=+	c #6B6F32",
"-+	c #A66B2B",
";+	c #677434",
">+	c #A17538",
",+	c #6F7A37",
"'+	c #649249",
")+	c #446A1D",
"!+	c #AE7539",
"~+	c #637338",
"{+	c #517624",
"]+	c #A66D33",
"^+	c #B46C24",
"/+	c #A66C32",
"(+	c #6E872A",
"_+	c #AD7C2E",
":+	c #AB6C25",
"<+	c #6F7623",
"[+	c #938231",
"}+	c #AC6B33",
"|+	c #A46C2C",
"1+	c #587F33",
"2+	c #4F7A32",
"3+	c #B37735",
"4+	c #908021",
"5+	c #517734",
"6+	c #577B2B",
"7+	c #AD6632",
"8+	c #6C8620",
"9+	c #618642",
"0+	c #5F831D",
"a+	c #A46E25",
"b+	c #5D8635",
"c+	c #578521",
"d+	c #9D911F",
"e+	c #4C6F39",
"f+	c #4D781F",
"g+	c #518C25",
"h+	c #A66E33",
"i+	c #75892B",
"j+	c #5B8520",
"k+	c #B26632",
"l+	c #A06B2B",
"m+	c #46692B",
"n+	c #568121",
"o+	c #A7742A",
"p+	c #AB7331",
"q+	c #AE5F38",
"r+	c #96782B",
"s+	c #558027",
"t+	c #AC652D",
"u+	c #A5672C",
"v+	c #A26B1F",
"w+	c #A57325",
"x+	c #AE5E2D",
"y+	c #4E7031",
"z+	c #568221",
"A+	c #9D7126",
"B+	c #677929",
"C+	c #375C24",
"D+	c #67971E",
"E+	c #778126",
"F+	c #8BA61F",
"G+	c #7A8623",
"H+	c #608B2B",
"I+	c #A59B23",
"J+	c #9C8A1C",
"K+	c #789322",
"L+	c #547C34",
"M+	c #547725",
"N+	c #537E2D",
"O+	c #7BB612",
"P+	c #96871C",
"Q+	c #66931E",
"R+	c #4F7931",
"S+	c #70931C",
"T+	c #A99325",
"U+	c #B35B37",
"V+	c #9D921B",
"W+	c #84AA16",
"X+	c #4A7523",
"Y+	c #61863A",
"Z+	c #5A8331",
"`+	c #808920",
" @	c #A48622",
".@	c #9AA612",
"+@	c #72AE1C",
"@@	c #527834",
"#@	c #496F2C",
"$@	c #476F2B",
"%@	c #6DA534",
"&@	c #849821",
"*@	c #B1642D",
"=@	c #9E6F21",
"-@	c #AB7025",
";@	c #97752B",
">@	c #6E722B",
",@	c #6C9530",
"'@	c #4D7A29",
")@	c #47722B",
"!@	c #669B22",
"~@	c #7EB917",
"{@	c #5E9226",
"]@	c #55862A",
"^@	c #557E33",
"/@	c #598538",
"(@	c #507B2F",
"_@	c #5A8A26",
":@	c #76A817",
"<@	c #9AB31A",
"[@	c #B69C35",
"}@	c #C58035",
"|@	c #967F29",
"1@	c #5A802C",
"2@	c #456C2B",
"3@	c #74A51E",
"4@	c #A9A34F",
"5@	c #E5C7AF",
"6@	c #E5D8B8",
"7@	c #CFDFA4",
"8@	c #A6BE61",
"9@	c #A5A547",
"0@	c #AA952A",
"a@	c #D7AC88",
"b@	c #AD7856",
"c@	c #AB7B34",
"d@	c #A0861D",
"e@	c #76991B",
"f@	c #3B6620",
"g@	c #547D34",
"h@	c #8CC410",
"i@	c #B9C674",
"j@	c #FCF3FB",
"k@	c #FAF4F3",
"l@	c #F4F4F4",
"m@	c #F4FCFB",
"n@	c #B38B47",
"o@	c #EFE4CE",
"p@	c #F8FFF7",
"q@	c #B0813D",
"r@	c #B9731B",
"s@	c #867927",
"t@	c #718F30",
"u@	c #527837",
"v@	c #4C752C",
"w@	c #77AF22",
"x@	c #9AC828",
"y@	c #FAFBFC",
"z@	c #EDF4FD",
"A@	c #FAF3EC",
"B@	c #F8EBF4",
"C@	c #EEF4F5",
"D@	c #F3EEF3",
"E@	c #F3F5FB",
"F@	c #AB6F2F",
"G@	c #907926",
"H@	c #6D8221",
"I@	c #5B8329",
"J@	c #507B31",
"K@	c #91C30B",
"L@	c #E4F1C3",
"M@	c #EFF3ED",
"N@	c #F1EBE0",
"O@	c #F4F3EB",
"P@	c #EBF8F5",
"Q@	c #EAF9FF",
"R@	c #CB9D73",
"S@	c #A66E35",
"T@	c #917C3D",
"U@	c #786E2D",
"V@	c #686D2C",
"W@	c #646727",
"X@	c #666B2B",
"Y@	c #68782D",
"Z@	c #536B26",
"`@	c #5E802D",
" #	c #65873A",
".#	c #608138",
"+#	c #547B31",
"@#	c #3F6524",
"##	c #D5D7B9",
"$#	c #F3EFEC",
"%#	c #E6D9C9",
"&#	c #9B5D24",
"*#	c #A75F2D",
"=#	c #7B7E32",
"-#	c #E9E7ED",
";#	c #FEF4E4",
">#	c #F2EFFF",
",#	c #AD5F17",
"'#	c #A06C2C",
")#	c #6B7D34",
"!#	c #F6F7DE",
"~#	c #E5F1FC",
"{#	c #AB845D",
"]#	c #979423",
"^#	c #5C842D",
"/#	c #DDDCDB",
"(#	c #D4E5F1",
"_#	c #95AF1C",
":#	c #639726",
"<#	c #F2E6D6",
"[#	c #E4E1E3",
"}#	c #DCE5EA",
"|#	c #82CC18",
"1#	c #658D48",
"2#	c #BFB584",
"3#	c #B6C3AD",
"4#	c #BDC5BB",
"5#	c #B8BCA7",
"6#	c #FCFCEA",
"7#	c #E6E2DA",
"8#	c #D6E2D4",
"9#	c #D8C3B0",
"0#	c #63931D",
"a#	c #80AD32",
"b#	c #D5EEA3",
"c#	c #E6F4DD",
"d#	c #D7DCE6",
"e#	c #CBDDE6",
"f#	c #4E7710",
"g#	c #618435",
"h#	c #4A7724",
"i#	c #4F7A2B",
"j#	c #75A924",
"k#	c #D8EBCB",
"l#	c #EBDDD2",
"m#	c #DFDEDD",
"n#	c #5B8026",
"o#	c #5D8540",
"p#	c #4A752A",
"q#	c #588433",
"r#	c #376115",
"s#	c #D8E7AB",
"t#	c #E2DFDD",
"u#	c #E4DFE3",
"v#	c #90A47C",
"w#	c #325B0F",
"x#	c #A2BA73",
"y#	c #D9DBD9",
"z#	c #B7BF9D",
"A#	c #3E6524",
"B#	c #ACBD89",
"C#	c #DDE3E4",
"D#	c #DFE8F1",
"E#	c #CBB7A9",
"F#	c #577E39",
"G#	c #BDC6B7",
"H#	c #C7AC94",
"I#	c #487124",
"J#	c #E7F1E9",
"K#	c #E9EAF9",
"L#	c #E6D7D0",
"M#	c #AC9F62",
"N#	c #4E782B",
"O#	c #30550F",
"P#	c #649F2A",
"Q#	c #C2E287",
"R#	c #D9DEF4",
"S#	c #D3E3E3",
"T#	c #C8E2B2",
"U#	c #B8D880",
"V#	c #9BB853",
"W#	c #728D34",
"X#	c #51772D",
"Y#	c #6AA92D",
"Z#	c #8ECB24",
"`#	c #CEE4A3",
" $	c #95CD42",
".$	c #72B61B",
"+$	c #5E922C",
"@$	c #4E7632",
"#$	c #638A35",
"$$	c #639A32",
"%$	c #7FBC17",
"&$	c #C6BA89",
"*$	c #E8E6E7",
"=$	c #A2CB51",
"-$	c #72AB18",
";$	c #4F7B29",
">$	c #2D5414",
"  . + . @ # $ % & * = - ; > = - , ' - & ) ! ~ { ) % ] ^ / / ( _ ; ^ : ) _ % ] = < [ * } = + | 1 2 3 4 3 % : 5 4 $ 4 6 | | & & ; ",
"; + . * @ 7 8 ) / * { ) > ; - ;   9 - = * [ [ * ) ~ | { ) ^ ^ ; ,   1 _ % 0 a < & / = = < & & % 3 % = & = 8 = 1 b 5 3 > ; 8 8 $ ",
"~ ] * * # # % } < ~ [ % c ) >   {   = & = =   * ^ & % d ^ = ^ ^   % 1 _ 8 5 a + ) : | ^ : % ~ = { e f + g 3 & * 8 ) & 5 5 $ 8 5 ",
") # *   = + ] } h { 9 = ;   % ) i & # - & < & ) = &   / a & ] * & ^ % 0 4 _ : ' j k l m n o & % ! h + } a ( | = ) / ; p , $ q 0 ",
"* # / - = > # + & /   1   ; , ) ) ~ * < ; { ; r = ^ ^ * ^ * h ~ ] / %   _ s t u v w x y z A > > % B $   * C ] * 0 ; q p q 5 ' - ",
"~ / ! d p - D 9   ; _ 1   0   ) & & & < q [ ) * ] ~ ] * / * ^ E F G H I J K L M N w O P x Q 3 R _ 1 S [ ] 7 *   4 ; q -   q ' D ",
"T B / D q = = 0 $ 8 _ 1 ; 1 < % & = : /   & > / % {     { / U V W L X Y O x z Z z ` Y x `  .3 c 8 ) ..& ~ & ] & +.c r @.; i & @.",
"T 8 & . 5 3 = q , $ #., _ 1 < < & & & ) 5 ; ' + / | , p 8 $.%.&.` L z P P L L N N L *.=.Z Y -.5 > e ;.>.= q % > +.0 D ,.'.).!.> ",
"~.#.q ) _ % f 8 8 8 ~ { B |   = & } +   5 ) > 5 ] + r & {.].w ` L L L L O ` x L L O ` O L L ^./.r (.;   > > 0 5 b _.:.Z <.[.% % ",
"}.& ! +   * ) / , #.^ % 2 1 & _ _ & & _ b 0 r 5 ~ - # r |.1.=.Y L L ` L ` O ` ` L ` x ` L L L 2.3.{.r r   ; 0 4.5.6.7.=.8.9.0.0 ",
"@ = ) # > ^ & B 6 $ 2 3 | a.% ; 8 4 q ; 1 0 5 0 f * q b.c.Y Y O L L O ` L ` ` ` ` O ` ` L L L L d.e.f.g.h.i.j.k.l.L z Y Y *.m.% ",
"~ = > & > ) & % 4 5   3 0 0 !.> $ _ 5 * n.S 4 0 # = r o.N w 8.z ` L ` O ` O L x L ` L L L M Y L w ` =.p.q.r.s.X L ` L ` z N t.{.",
"p 5 q ; - * < a S 5 b > ; !.R 3 0 6 0 u.= b _ q >   v.Y O w P z O ` ` L L L O ` O ` L L L L L L w.P ` w *.X ` =.P x.L z N N y.z.",
"6 0 4 5 # * = ~ 3 > q 5 0 4 3 S q ; ; + ~ 0   , 0 A.N O ` N x B.` O O ` ` O ` L L L L L L L L L w C.D.N O L ` ` ` C.E.x w N F.G.",
"c - ;   H.@.1 ~ % 3 r q c S 0 5 5 > & % & & #.8 I.Z D.z w w.N L L O ` L ` L L L L L L L L L L L 7.Y ` z z z P L 7.P B.N P J.K.L.",
"; @.+ > M.h 5 | ; % = > N.4 4 N.  ' ' O.6 ..; , P.1.Q.Z w.Y Z C.L L P O O ` O ` L L L L L L L L L M X ` L Y C.7.x w Z R.w =.S.T.",
"> i   , = U.+ } 1 < T T h B $ _ , 4 4 !.% 6 _ V.Z z ` L ` L L L ` L ` O ` O x ` L ` ` O ` O L L L L L L O ` ` x O 8.z z w J.W.8 ",
"q i 5 ) & ) } } 8 B ^ / ] = / $ & _ | & ' 5 _ X.B.z x ` L L ` x O L L ` O ` ` L L ` x ` O ` L ` L L L L L L O ` w.w x O w J.Y._ ",
"b q S , & ; n.r p 8 3 8 8 ~ & + ]   /   ) q Z.`.x L O L Y L L L ` x x ` ` L L L L ` ` O ` x x ` L L L L ` L O ` O L z z N  +.+1 ",
"i 0 5 i & = / r |   ; _ p ^ ~ : * {   / > 5 ++N L L L N ` O L L ` ` ` O ` L ` O ` O L L ` ` ` O L L L L ` x ` ` L L O O O  +@+% ",
"  1 / p > < ) % #+{ q ; %   ) = * 1 0 0 3 $+%+O ` L Y ` L L O M O L ` O ` x ` ` O L L ` ` L L ` L L ` O ` L L O L ` L x &+ +*+= ",
"_ { {   = % = % } ~ & { ;   0 & & $ ; > 0 =+N 1.L ` ` L L O L L ` L x ` L L ` O ` L ` x O ` ` O L L L L L L L ` L ` L x d.-+;+) ",
"8 ) | & ~ ) = % ) < / ; #.2 % 3   p ; = / >+N z ` L ` O L L L L L L ` ` O ` ` x L L ` O x ` L L L ` L L O ` x O O w N x  +-+,+; ",
"  < '+& / h & / _ 1 8 ! : & & ^ ! 5 a H.)+!+X x x L x O M L L Y ` ` O L ` O ` ` L ` O ` ` O ` ` L L L L ` L ` ` O w O &+ +-+~+$ ",
"& < !.{ > > & - ! & ! a # # ^ ^ / 3 a ] {+]+8.z O L L L L L L L O ` x ` ` L ` O O ` L x ` ` L O x ` O L L ` ` x z 7. +^+-+/+& ; ",
"= : / ' (.r - : % & & 2 * ] = | % : = ^ (+_+P L L L L L L L L L ` O ` O L L O ` L ` L ` ` O ` ` ` L ` ` O L ` L L 7. +:+ +<+& | ",
"& } } D : # & !.= , 1 = ~ ( a < / >.{ 8 [+L E.w L L L Y L L L L x L L ` L L ` L ` O L L O L ` x ` O ` x O L O ` Y }+ + +|+1+^ & ",
"& f # ] - ' ; 3 : q     & h ] & 8 d { 2+3+w E.w L L L L L L L L ` ` ` O L L L L ` x ` ` ` L O ` L ` ` O L ` O N O  + +:+4+5+{ ; ",
"T ^ # h - ; $ > r ; ; ) = H.= + / 8   6+O w z N L L L ` O ` L L L L L L L L L L ` ` O O O L O ` ` L O ` ` ` O O  + +7+:+8+3 0 4 ",
"T ( & & r 9+& 5 - & & / ^ * @.; { _ = 0+z Y L N L L L ` ` O L L Y L L L L L L L x ` ` L ` L ` ` ` O O x ` N O O a+:+7+E.b+4 0 3 ",
"h T d   > r p & & ^ % % ) - ; q - ^ : c+P M L N O O ` O L L L L M L L L L L L L L L O ` L L L O L L ` x O O d.-+-+-+ +d+e+4 6 5 ",
"T T *   ; ; # @.# / ; 1 , ; >   & f+& g+X w.7.Y ` ` L L L L L L L L L L L L L L ` O ` ` x ` L ` O ` ` ` O O  +-+D.h+^+i+5 5 3 r ",
"4 5 | - - ] f *   S 3 > 5 S 4 b , ; = j+Z L O y L L L L L L L L Y Y ` O L ` ` ` L L L ` ` L L L E.L 7.L &+k+7+ +-+-+l+m+N.0 0 q ",
"%   q ) = # ! & ; ..q 3 > 0 0 5   3 ) n+x N Y x L L L L L L L L L L L L O x P x ` L L O L O L L 8.O o+J.J. +-+:+p+q+r+b 5 > ; ) ",
"1 ~ ) ; : & p ^ r ) % !.> | 0 0 ~ ^ ) s+Y L w ` L L L L L L L L N L L L ` O L L L L L L L ` ` ` w O x t+u+v+w+}+}+x+y+$ 5 0 0 ; ",
"% / & > 1 / % ^ r r > c 5 0 p 5 ~ ~ ) z+Y ` P N L Y L L L L L L L ` L L L ` ` ` O L ` ` ` ` L N A+&+k+k+ +a+J.D.a+B+> 3 0 5 c r ",
"^ & & & ; 0 _ _ > ; ; 5 $ $ C+#./ # - D+M L z N L L L L O ` L L L L L L O O O L ` ` ` L O O x &+a+t+k+p+p+k+k+ +E+) !.; 5 c ; ; ",
"* ] &   1 ; { | !._ N.  6 c   ; = * & F+x O B.L L L L L ` O L L L L L L ` ` ` ` ` N O &+ +:+u+u+p+ +:+w+}+7+w+G+~   | b 0 3 c b ",
"= } < & > 1 { a ] T 2 $   > ; - * + H+I+B.L ` Y L L L L L ` L ` M L L ` ` O L O d.J. + +u+:+-+}+-+-+ +u+a+J+K+L+  & &   > > > q ",
"h & < > ^ a ^ ^ h / ~   5 r D M+* N+O+B.L O N Y L M Y L L ` O O ` L ` ` x x J. + +t+ + + +}+-+}+&+d.D.7+P+Q+= { ] / = ; & % { | ",
"& & = !.: ) - | < 5 , , / = ) - R+S+T+O N L L P Y ` w N L ` N ` x x x  + +7+ +t+p+d.d. + + + +:+U+J.V+W+X+0 - ] = ^ r ) & )   a ",
"^ * a = ; q = : ~ $ 8 1 / Y+E Z+`+T+` C.Y 7.O O O L O O O J.O  +&+d. + + +:+d.D.t+-+}+}+}+J.J.7+ @.@+@@@+ @./ /   ^ > ; a | ^ ^ ",
"= 1 & ) #@r =   ~ 1 8   $@%@&@D.` Y X Y x x -+}+ + + + + + + +:+*@u+-+ + +J.a+=@&+-+-+-@-+x+;@>@,@'@; 0 } f ) % 8 & ) ) a > & ) ",
"  / )@!@~@{@]@^@/@(@_@:@<@[@-@}@Y w 7.J.-@ +-+}+ + +-+ +-+ + +d.w+ +&+ +-+}+ +*@}+}+}+}+|@1@{ 6 ~ * > b !.r = = %   5 > !.    5 ",
"  2@3@4@5@6@7@8@9@0@B.*.a@b@*.c@x =.o+J. +&+ +-+ + +}+d.-+}+ + +*@t+ +-+ +t+}+d.}+:+d@e@f@6 ) S 5 { ) i % S ; M+% i > N.3 5 ; 4 ",
"g@h@i@j@k@l@m@m@m@a@n@o@p@q@r@}@N }+-+7+ +d. + +}+ + + + + + + +v+-@-+}+*@&+w+s@t@u@v@& 4 0 + q $ / :   4 6 n.+ ^ { !.!.; ; c ; ",
"w@x@y@z@m@y@A@B@C@y@D@E@o@n@w.*@d.7+7+t+u+}+ + +}+ + +-+t+ +-+ +}+ +F@G@H@I@J@_ e & g } _ 4 r e & 0 c 0 6   = ^ < ^ | %   ; !.0 ",
"K@L@M@z@m@N@O@P@k@O@m@Q@j@R@}+ +-+:+J.-+h+S@T@U@V@W@V@X@Y@Z@`@ #.#+#@#/ ] ~ / & C } C ) _ $ } - ! N._ 4 % ) ) _ ^ ^ ) q     3   ",
"##m@l@A@z@P@y@A@A@k@l@$#y@%#&#}+a+J.&+*#=#( = 6 & { | 3 & ! # H.0 $ 4 $ & 5 ; 0 7 h ~ ~ ~ %   + % < / ^ ; % ..4 =   _ 1 p B ^ ^ ",
"-#j@;#k@E@l@E@>#l@l@E@l@m@l@R@,#}+7+'#)#1 % % % | * = % % + } = i p , 5   i > 3 & &   & | h = # ] ) a ^ > | q p &   ~ /   | = ^ ",
"p@!#k@~#l@O@E@O@A@D@l@y@M@k@%#{#c@]#^#0     %   < &   # < + = =   )   1 % q ) q ; 8 1 _ | # f # a { ( % ; 1 | & ~   ! ) & = ] ^ ",
"k@$#m@Q@l@O@P@P@A@m@C@l@;#/#(#%#_#:#&   ; 0 0 q 1 & & : h   % _ !.> & : 2 = ) [ #.C+1 1 = < : } ^ ~ _ 1 .., n.h   % 9 { / / & * ",
"<#E@z@>#E@l@O@>#E@Q@y@C@/#[#}#R@|#@.; ) 3 ; 5 & 5 _ > ; = 0 0 5 a @.+ r > | & ) % % ^ ) & 1#|   / & _ _ { ; a h 8 ^ {   / 8   ) ",
"2#3#4#5#!#m@D@6#l@E@E@O@7#8#}#9#0#r & ' 3 ; ! ; % 0 q p ; ; q S : } @.+ p   ; !.~ ) ) / & | %   & / | ; % | | |   < % ^ / / / { ",
"~ / & = ^ a#b#c#A@D@E@A@<#d#[#e#f#; * ) > 0 ! - % b p q ; ) i ) * } g#f i p   ^ / / / * & ! p 0 & h#i#q ; > 0     ^ * * ~ * = ) ",
"_ / ) Y+!.q j#k#l@k@l@p@~#d#l#m#n#; + ) 1 0 q = b i ; > ; + ' u.  # @.- i & / * { 1 ^ ~ } / !.o#p#q#) > ; > 3 5 d d d d r#f ] d ",
", _ = < : & % s#O@l@E@D@D@t#t#u#v#, ; w#% $ h ; 5   & > # > r > #.{ % ! .._ 0 3 ^ h / / _ B 1     / = ] B 2 < 8 d i q p q q % $ ",
"    & = g#= ; x#E@l@M@6#O@d#y#c#z#A#' } | : * & 5 ; > - > > > q ) / ^ q ; | 5 0 % = ..{   % ~ / 8 / = % ^ 2 ^ ^ # * q q ;   = 8 ",
"5 % q # =   | B#z@l@$#l@C#}#D#d#E#F#} e & * H.) $ % / & - > %   / ) # + = | ) & / < { [ ~ & ~ #   & ^   B _ d # 7 M.+ @.< = = ) ",
"% 3 q & / ) a G#j@E@k@A@t#t#u#[#H#I#= f ~ # } + 1 = > a ; r ; | r q # >   % > / ( < ] ~ / ] h ]   / ^ 8 1 { r#7 * # @.h } <   = ",
"<   / ) % a ^ J#;#j@K#d#l#L#[#K#M#N#O#- D & < ] & & ( < |   1 1 0 p & _ 0 5 _ { U.d ] h ) = n.~ {   ^   1 8 ) H.@.: = !.& > p 2 ",
"< ) ) ) ^ h P#Q#k#y#}#R#S#T#U#V#W#X#-   * = ^ ^ ) % :   % ; %   5 ; ; ; | $ 8 { ] f h ] p ^ 1 8 { 8 ^ 8 _   * ] = < ; : & ; 5 | ",
"# # ) ) / B Y#Z#8#y#8#`# $.$+$@$N.@.) ] #$~ 3 { 8 ^   8   !.& >   0 & 1 N.p   1 / ] '+= * < { / 5 $   { 3 / / ^   ^ & = > = $ 1 ",
"f r / d   | $$%$&$*$y#=$-$;$& > ; @.= g f+d 1 )   : _ ~ !.a > = _ & = 3 _ [ % < _ >$= ^ a ^ / / $ / { 8 ( 1 / & 8   = > > n.; ; "};
