/* XPM */
static char * jambon_1_xpm[] = {
"64 64 452 2",
"  	c #4A6D33",
". 	c #4E7933",
"+ 	c #517B2D",
"@ 	c #467125",
"# 	c #5E893C",
"$ 	c #456C2C",
"% 	c #4C7333",
"& 	c #456B2C",
"* 	c #47712B",
"= 	c #4B732D",
"- 	c #496D2D",
"; 	c #436B25",
"> 	c #4D792C",
", 	c #3F6A25",
"' 	c #527B34",
") 	c #5A833C",
"! 	c #4A6D3A",
"~ 	c #466C32",
"{ 	c #52753A",
"] 	c #58842F",
"^ 	c #547B3A",
"/ 	c #597E35",
"( 	c #375D14",
"_ 	c #416525",
": 	c #4E7632",
"< 	c #4E7B2C",
"[ 	c #4E7A39",
"} 	c #517635",
"| 	c #526F35",
"1 	c #436632",
"2 	c #42652B",
"3 	c #597E3C",
"4 	c #4A7326",
"5 	c #3D6424",
"6 	c #36611A",
"7 	c #56813A",
"8 	c #467232",
"9 	c #466B39",
"0 	c #4E7439",
"a 	c #3A5D23",
"b 	c #3D682A",
"c 	c #48672E",
"d 	c #496733",
"e 	c #52762D",
"f 	c #496E26",
"g 	c #558134",
"h 	c #5A8335",
"i 	c #5F9132",
"j 	c #709A48",
"k 	c #426539",
"l 	c #567D43",
"m 	c #405D2D",
"n 	c #659048",
"o 	c #3E642A",
"p 	c #516F3B",
"q 	c #668D49",
"r 	c #5B8833",
"s 	c #3C5D2B",
"t 	c #4F8428",
"u 	c #669246",
"v 	c #4D7B25",
"w 	c #3B631E",
"x 	c #5C8442",
"y 	c #3D681D",
"z 	c #5A7E42",
"A 	c #597741",
"B 	c #3F6431",
"C 	c #57882F",
"D 	c #60863E",
"E 	c #537442",
"F 	c #44672C",
"G 	c #5B7D29",
"H 	c #5E8942",
"I 	c #618C3D",
"J 	c #628B44",
"K 	c #608543",
"L 	c #527735",
"M 	c #808E67",
"N 	c #A3A988",
"O 	c #AFB094",
"P 	c #C8C5AB",
"Q 	c #9FA884",
"R 	c #456D25",
"S 	c #648148",
"T 	c #DCD6BC",
"U 	c #F4EBD3",
"V 	c #F0E7CF",
"W 	c #D3BFAF",
"X 	c #C9C2AB",
"Y 	c #91A667",
"Z 	c #4E7532",
"` 	c #54822D",
" .	c #365B23",
"..	c #476E2C",
"+.	c #39651A",
"@.	c #4D7533",
"#.	c #466D2C",
"$.	c #5C8542",
"%.	c #5B863B",
"&.	c #5C8634",
"*.	c #4E772D",
"=.	c #9EA184",
"-.	c #FFF4DC",
";.	c #EEDCC9",
">.	c #CFBAAA",
",.	c #CABEA5",
"'.	c #8DA557",
").	c #567A2D",
"!.	c #44692B",
"~.	c #4F792C",
"{.	c #4F7627",
"].	c #66872F",
"^.	c #718326",
"/.	c #7C7C2A",
"(.	c #867031",
"_.	c #906A35",
":.	c #926437",
"<.	c #926A35",
"[.	c #90772E",
"}.	c #8E8E23",
"|.	c #8BB212",
"1.	c #75AC1A",
"2.	c #558727",
"3.	c #578139",
"4.	c #97B05E",
"5.	c #F4EAD1",
"6.	c #FAEDD6",
"7.	c #C4ADA1",
"8.	c #BBB498",
"9.	c #5D8037",
"0.	c #3F6B25",
"a.	c #4E7239",
"b.	c #5F7D28",
"c.	c #808033",
"d.	c #886138",
"e.	c #834B3C",
"f.	c #7C443A",
"g.	c #85493D",
"h.	c #944E42",
"i.	c #8A4A3F",
"j.	c #925C3C",
"k.	c #8A8529",
"l.	c #78B027",
"m.	c #609823",
"n.	c #5F9524",
"o.	c #6AA523",
"p.	c #9BCC39",
"q.	c #EFE9C9",
"r.	c #FAE9D3",
"s.	c #E7D2C0",
"t.	c #A8A685",
"u.	c #4C762A",
"v.	c #56802E",
"w.	c #586F1E",
"x.	c #786E32",
"y.	c #8D553F",
"z.	c #774238",
"A.	c #87971C",
"B.	c #83CB07",
"C.	c #AED554",
"D.	c #F8F1D1",
"E.	c #F3E4CE",
"F.	c #F4DCCB",
"G.	c #C8B9A5",
"H.	c #57772D",
"I.	c #5B7C28",
"J.	c #8A7231",
"K.	c #945241",
"L.	c #82473C",
"M.	c #A88E55",
"N.	c #D7C2B3",
"O.	c #FDF2D9",
"P.	c #FEF4DA",
"Q.	c #BAA798",
"R.	c #80A041",
"S.	c #507932",
"T.	c #62672D",
"U.	c #8A523E",
"V.	c #8E4C40",
"W.	c #734137",
"X.	c #C29584",
"Y.	c #ECD5C4",
"Z.	c #D4BCAF",
"`.	c #F1D6C7",
" +	c #CCB4A3",
".+	c #7AAC26",
"++	c #466C31",
"@+	c #355B1D",
"#+	c #517B24",
"$+	c #5A6735",
"%+	c #8C5541",
"&+	c #9A5246",
"*+	c #D3B4A2",
"=+	c #FBF0D8",
"-+	c #BCA597",
";+	c #EBD4C3",
">+	c #EAD5C2",
",+	c #E9D5BC",
"'+	c #A8C95A",
")+	c #5E9223",
"!+	c #5C6736",
"~+	c #805A3D",
"{+	c #925041",
"]+	c #A26456",
"^+	c #DBCAB8",
"/+	c #E4DEAD",
"(+	c #99CF2F",
"_+	c #A0CB43",
":+	c #AAC85E",
"<+	c #8CAF4F",
"[+	c #71A126",
"}+	c #6AA123",
"|+	c #5B8A2D",
"1+	c #426C1E",
"2+	c #5B8F1F",
"3+	c #678C20",
"4+	c #6D7534",
"5+	c #687233",
"6+	c #646B33",
"7+	c #646B37",
"8+	c #735D3A",
"9+	c #83583C",
"0+	c #914F41",
"a+	c #CCAC9B",
"b+	c #BFD575",
"c+	c #83C713",
"d+	c #6BA81E",
"e+	c #60971D",
"f+	c #517F29",
"g+	c #476F2B",
"h+	c #43662B",
"i+	c #60942B",
"j+	c #7B9C18",
"k+	c #845B3C",
"l+	c #86563D",
"m+	c #785139",
"n+	c #8C4E40",
"o+	c #AE7866",
"p+	c #BAD867",
"q+	c #6EAB19",
"r+	c #4E792A",
"s+	c #769F53",
"t+	c #4A722B",
"u+	c #6A8923",
"v+	c #876A33",
"w+	c #93553F",
"x+	c #6DA51D",
"y+	c #5E8037",
"z+	c #7B6A34",
"A+	c #9D5349",
"B+	c #B55E59",
"C+	c #CA6867",
"D+	c #D36C6D",
"E+	c #D96E70",
"F+	c #C26563",
"G+	c #AD5A53",
"H+	c #8F5440",
"I+	c #57832D",
"J+	c #677F3B",
"K+	c #8F6045",
"L+	c #CF6D6B",
"M+	c #DB7175",
"N+	c #D46E72",
"O+	c #CE6C70",
"P+	c #E27376",
"Q+	c #EF7A80",
"R+	c #E4757A",
"S+	c #7F623E",
"T+	c #537A37",
"U+	c #4D7A2A",
"V+	c #638B35",
"W+	c #796A38",
"X+	c #BC6960",
"Y+	c #D06E70",
"Z+	c #CB6A6D",
"`+	c #B25D57",
" @	c #7E633D",
".@	c #4D7823",
"+@	c #4B7225",
"@@	c #85AD19",
"#@	c #925C3F",
"$@	c #CF6C6B",
"%@	c #DE7378",
"&@	c #ED797F",
"*@	c #C86766",
"=@	c #856D3C",
"-@	c #4F7E23",
";@	c #4B742B",
">@	c #935C3C",
",@	c #EC767B",
"'@	c #ED7276",
")@	c #EC6E72",
"!@	c #906B35",
"~@	c #5D8D30",
"{@	c #476D32",
"]@	c #64732F",
"^@	c #BA615D",
"/@	c #E55C5B",
"(@	c #CC5150",
"_@	c #C64F4E",
":@	c #E85C5B",
"<@	c #8A812A",
"[@	c #5B8D28",
"}@	c #4E7630",
"|@	c #8B5E40",
"1@	c #EA6668",
"2@	c #D35251",
"3@	c #E75756",
"4@	c #E95F60",
"5@	c #849D22",
"6@	c #587731",
"7@	c #B4685D",
"8@	c #DA5453",
"9@	c #D77074",
"0@	c #7FB528",
"a@	c #6D8E3D",
"b@	c #597934",
"c@	c #C9756A",
"d@	c #BD6363",
"e@	c #A1554C",
"f@	c #699C3A",
"g@	c #577135",
"h@	c #DA7775",
"i@	c #8B792D",
"j@	c #578433",
"k@	c #5E7138",
"l@	c #E5797B",
"m@	c #E96363",
"n@	c #759320",
"o@	c #737D43",
"p@	c #E75857",
"q@	c #DD5958",
"r@	c #CC504F",
"s@	c #EB6A6D",
"t@	c #865E3E",
"u@	c #4D6E2D",
"v@	c #7C6F44",
"w@	c #EFBCAB",
"x@	c #F7CFBC",
"y@	c #CD716B",
"z@	c #BE4D4C",
"A@	c #6A7332",
"B@	c #876947",
"C@	c #F6BDAD",
"D@	c #F4E8D1",
"E@	c #7B603A",
"F@	c #4C7026",
"G@	c #8C724C",
"H@	c #FCE3CD",
"I@	c #C6AB9B",
"J@	c #E0C7B4",
"K@	c #FBD9C5",
"L@	c #703F35",
"M@	c #5D682B",
"N@	c #89704B",
"O@	c #FDE7D0",
"P@	c #E6D4BD",
"Q@	c #D8BBA9",
"R@	c #F19C90",
"S@	c #83503A",
"T@	c #5B7F35",
"U@	c #79713E",
"V@	c #F9D0BD",
"W@	c #AD9486",
"X@	c #DDC2AF",
"Y@	c #72753B",
"Z@	c #5F783C",
"`@	c #F1968C",
" #	c #D2B9A7",
".#	c #648C3C",
"+#	c #AA6A5E",
"@#	c #DDCCB5",
"##	c #866736",
"$#	c #69954A",
"%#	c #6B6438",
"&#	c #CE625E",
"*#	c #EFE4CD",
"=#	c #567C2B",
"-#	c #517234",
";#	c #BF7367",
">#	c #C75855",
",#	c #E79D91",
"'#	c #E69288",
")#	c #7F832C",
"!#	c #8F7050",
"~#	c #856D35",
"{#	c #5C8334",
"]#	c #5B7338",
"^#	c #D57873",
"/#	c #C6696D",
"(#	c #C84F4E",
"_#	c #577F30",
":#	c #A27258",
"<#	c #567B2E",
"[#	c #4B6D2E",
"}#	c #557F31",
"|#	c #5A6D38",
"1#	c #C3786A",
"2#	c #7B7742",
"3#	c #4C742D",
"4#	c #697542",
"5#	c #C27268",
"6#	c #D96B6F",
"7#	c #885E3F",
"8#	c #5D7534",
"9#	c #6D793B",
"0#	c #846240",
"a#	c #506C32",
"b#	c #6A9544",
"c#	c #C1776A",
"d#	c #8A543F",
"e#	c #716B39",
"f#	c #4D7333",
"g#	c #79A34F",
"h#	c #B0795D",
"i#	c #8F5241",
"j#	c #6E6036",
"k#	c #4E7333",
"l#	c #747A39",
"m#	c #7D593B",
"n#	c #4F662F",
"o#	c #5A6C3B",
"p#	c #B56C5F",
"q#	c #7C513A",
"r#	c #606232",
"s#	c #446B25",
"t#	c #536C36",
"u#	c #A5765A",
"v#	c #945544",
"w#	c #72613A",
"x#	c #4A6B2C",
"y#	c #6D994D",
"z#	c #4F732E",
"A#	c #7E7744",
"B#	c #BC6867",
"C#	c #D27471",
"D#	c #98644F",
"E#	c #586130",
"F#	c #476B2C",
"G#	c #5D8C2E",
"H#	c #4D732E",
"I#	c #726C40",
"J#	c #CA706C",
"K#	c #D97371",
"L#	c #CB776E",
"M#	c #7B6842",
"N#	c #415D26",
"O#	c #4E692A",
"P#	c #616931",
"Q#	c #66763A",
"R#	c #668344",
"S#	c #6C9841",
"  . + @ # . $ % & * = - % % . ; & = * > * ; = , * * @ ' % = ) + ! * ~ & { % ] ^ / ( _ ) ' : < = ) [ & } { | & 1 & 2 { { 3 . 2   ",
"& ; + 4 @ . & & * = & 5 % & 2 ; 2 & ; * ' 4 6 + , @ ' , ~ % 7 & 2 ; { ^ 8 & / [ ^ = ' + # = % ' % ' ^ & ' 5 9 0 2 a { { & 2 ; & ",
"_ ' 4 = ' ^ } ' 7 , , b - c   & d 2 & > = e f + [ g . , b % { = ~ ' { c 1 d } d ~ ^ h > ' * = 7 8 i = { j = k l 2 m c & _ & & b ",
"* # ; > ^ % ^ 7 n * & % ; o   2 2 % * . ; = + 4 7 g > . 8 % ^ . % = } ~ c   p d & 7 ' ; = ; = ' 8 # # q r ^ 9 % s ! = & b & o % ",
"> > g 8 * b ^ 7 ) = = ~ ! & 2 o ; ' ; . * b _ % # t g = = * ^ ; t * . = } & 1   = ) } & % & > ' % g u > v . a ~ s ~ - = b b 5 f ",
"* ' * * & 8 ^ ^ * & 0 ~   % } w 4 4 > > * & b [ x * ' = & & & & g g g ; / [ 1 % > ) . a l ~ } h [ b ' ' ' . ^ 2 1 0 _ 5 2 _ w = ",
". 7 y * [ & ~ * ; & z ^ , 2 ^ > e = ' * b 8 & % b 5 & % & ~ 5 % t b g + ' 7 0 & . ^ > c A ~ { ' 5 ' ; % ) ' x > 1 p ; w 2 5 ; / ",
"7 , , r . % & % [ & & c % > ' # c ) @ , . & , = o { l 2 8 B ~ 8 C b > ) . ; 1 ' x ) e D _ ~ ! 2 E = ; ~ h * ~ g 1 F = @ & c ' G ",
"H f - ^ [ * _ . % & & = . [ . % = I v ~ o b * o = { J ' , [ > * 5 _ % 0 1 a ~ % v g D > > K ; & % ~ m { L M N O P Q R } _ e = % ",
"r 4 c - & & & 8 ~ 5 3 { ) * ; ^ % [ = [ 0 & 2 ; & % J ' a = ^ ' b @ , 8 / - ~ ; = . # > g u ^ 9 ~ - { } S T U V W X Y Z   } & 8 ",
"` + -   & & & ~ 2 { 3 } ' 5 } 2 s 1 2 = % & & c & [ f -  .~ + f o b b { { $ ..+.@.#.$.%.&.= } ~ 2 - K *.=.-.-.-.;.>.,.'.).!.& = ",
"v ' = . % & % [ 1 ~ ~ } - } ^ } E ! ~ h ^ 2 1 } = [ % o   2 / ~.{.].^./.(._.:.:.<.[.}.|.1.2.> h ~ - 3.4.5.-.-.-.-.6.;.7.8.9.1 = ",
"5 & 2 | ^ ' 7 ^ o & c ^ c / K { d ! } I h 2 2 c % 0   0.a.b.c.d.e.f.f.g.h.h.h.i.h.h.h.h.j.k.l.m.n.o.p.q.-.-.-.-.-.-.-.r.s.t.1 5 ",
"% ~ c   g g . ; % z - c _ c 3 m  .c / 4 = % ~ o u.v.w.x.y.h.h.h.h.h.h.h.h.h.h.i.z.g.h.h.h.h.j.A.B.C.D.-.E.r.-.-.-.-.-.-.F.G.H.2 ",
"~ 2 c % . 7 g . z . . _ | 2 2 ! ! ; ' [ % & 2 I.J.K.h.i.h.h.g.h.h.h.h.h.h.h.h.h.i.f.z.g.L.i.h.K.M.>.F.F.N.O.-.-.-.-.-.P.F.Q.R.S.",
"  o - . . * = { * ) / = 3 & ! A 1 _ & % % w T.U.h.V.V.L.h.h.L.V.h.h.h.h.h.h.h.h.i.h.g.W.L.f.L.h.h.X.Y.Z.r.6.-.P.O.6.6.F.`. +.+++",
"{ @+ .!   _ . h 4 n t r # ^ 1 ~ 1 _ = #+{ $+%+L.i.h.g.L.V.h.L.g.h.h.h.h.h.h.h.h.L.h.h.i.W.z.L.h.h.&+*+F.=+6.Y. +-+Z.;+>+,+'+)+b ",
"5 a _   = } H g * # H g 7 . ; 1 } { z } !+~+{+L.f.h.i.g.L.f.f.L.h.g.h.h.h.h.h.h.f.h.h.h.h.z.W.V.h.i.]+`.^+F./+C.(+_+:+<+[+}+|+~ ",
"5 2 , 5 ' . x = * 1+# & : 2+3+4+5+6+7+8+9+0+h.L.z.h.h.V.i.V.z.W.i.g.g.h.h.h.h.h.f.h.h.h.h.h.L.W.V.L.h.a+ +b+c+d+e+f+} ) = } g+2 ",
"@+- c 1+' ' { % u & h+i+j+_.i.V.k+l+m+n+h.h.h.L.z.h.h.h.h.h.g.W.z.z.g.g.g.V.h.h.z.h.h.h.h.h.h.i.W.f.h.o+p+q+r+~ } c f f 3 /   % ",
"2 { . * . q ^ % s+t+u+v+h.h.h.V.V.g.L.L.i.h.h.L.L.h.h.h.h.h.i.z.h.g.W.f.i.V.V.h.z.h.h.h.h.h.h.h.V.W.h.w+x+r+3 0 } ; e = h e | % ",
"{ ; ' @ = ) x . y+z+A+B+C+D+E+D+F+G+&+h.g.i.h.L.V.h.h.h.h.h.i.W.h.V.V.f.W.g.h.h.z.h.h.h.h.h.h.h.h.W.i.H+I+a 3 ~ } & } ) = - - _ ",
"c f x , * ; 7 J+K+L+M+N+O+O+P+Q+Q+Q+R+F+&+h.h.h.h.h.h.h.h.h.V.z.h.h.L.f.g.W.z.V.z.h.h.h.h.h.h.h.h.W.h.S+T+2 c _ } 2 * > w = '   ",
"; q x 8 U+V+W+X+Y+Z+O+M+Q+Q+Q+Q+Q+Q+Q+Q+R+`+h.h.h.h.h.h.h.h.h.z.h.h.h.V.L.V.f.W.W.V.i.h.h.h.h.h.h.W.f. @.@~ o + ^ > . , 5 % [ ; ",
"> g = +@@@#@$@O+%@N+&@Q+Q+Q+Q+Q+Q+Q+Q+Q+Q+&@*@h.h.h.h.i.V.h.h.f.h.h.h.h.h.V.h.g.W.L.V.g.i.h.h.h.h.W.f.=@-@% { ) z ^ c = w = e . ",
"{ ^ ! ;@>@D+&@&@Q+Q+Q+Q+Q+Q+,@'@)@'@,@&@Q+Q+Q+D+&+h.h.h.g.h.h.i.h.h.h.h.h.h.h.h.W.W.f.V.L.h.h.h.h.W.i.!@~@% c ^ | m o & > @ % % ",
"{ ^ {@]@^@Q+Q+Q+Q+Q+Q+Q+'@/@(@_@_@_@(@:@)@&@Q+Q+D+&+h.h.h.h.h.h.h.h.h.h.h.h.h.h.W.V.f.z.V.g.h.h.h.W.h.<@[@* & & 2 2 9 2 [ . { & ",
"% ^ }@|@,@Q+Q+Q+Q+Q+&@1@2@2@3@(@2@2@(@3@3@4@,@Q+Q+*@h.h.h.h.h.h.h.h.h.h.h.h.h.h.W.h.h.L.z.h.h.h.h.W.h.5@~.' { o { ~ 2 & & ~   [ ",
"+ # 6@7@Q+Q+Q+Q+Q+&@1@(@8@3@3@3@3@3@3@3@3@3@:@'@Q+9@G+h.h.h.h.h.h.h.h.h.h.h.h.h.W.V.h.h.i.f.h.h.h.z.K.0@8 g x ! & % c ~ & { % % ",
"r a@b@c@Q+Q+R+N+Q+)@3@8@3@3@3@3@3@3@3@3@3@3@3@:@'@R+d@e@h.h.h.h.h.h.h.h.h.h.h.V.W.i.h.h.h.i.f.h.h.f.>@f@= > % ~ 0 & f 3 { & 2 . ",
"g i g@h@Q+Q+&@P+&@:@3@3@3@3@3@3@3@3@3@3@3@3@3@3@:@,@,@d@&+h.h.h.h.h.h.h.h.h.h.i.W.i.V.h.h.h.L.g.h.L.i@j@. . = . { f e c 1 2 ~ - ",
". 7 k@l@Q+Q+Q+Q+'@3@3@3@_@3@3@3@3@3@3@3@3@3@3@3@3@m@&@&@d@h.h.h.h.h.h.h.h.h.h.g.z.i.L.h.h.h.h.h.i.i.n@h u % % '   & - d d 9 ! - ",
"~ , o@Q+Q+Q+Q+Q+1@3@3@3@8@3@3@3@3@3@p@q@(@r@3@3@3@3@s@Q+,@A+h.h.h.h.h.g.f.f.h.L.f.i.i.h.h.h.h.h.h.t@u@} 3 _ 2 l ~ 3 ~ d { ! d - ",
"  & v@R+Q+Q+Q+Q+4@3@3@3@3@3@3@3@3@m@w@F.x@y@z@3@3@3@:@P+Z+*@h.h.h.h.h.h.f.f.h.f.L.g.h.h.h.h.h.h.h.A@} - 2 d ~ 2   % 2 2 % 2 ! _ ",
"~ , B@R+Q+Q+Q+&@:@3@3@3@3@3@3@3@p@C@D@;.F.r.y@3@3@3@3@1@&@,@A+h.h.h.g.h.h.f.z.W.i.V.h.h.h.h.h.h.E@F@~ d   2 & { %   & ^ 2 ~ ' ! ",
"= & G@N+&@Q+Q+&@:@3@3@3@3@3@3@3@:@H@E.a+I@J@K@/@3@3@3@:@,@Q+^@i.h.h.L.V.h.h.f.L@i.h.h.h.h.h.h.h.M@'   ! ~ 2   % f ~ % q ~ 2 e } ",
"* . N@N+,@Q+Q+Q+:@3@3@3@3@3@3@3@:@O@P@ +Q@Q@Y.R@3@3@3@3@)@Q+%@V.h.h.L.h.h.h.V.L@W.V.h.h.h.h.h.S@T@% & 1 1 ~ [ & % % ^ > | _ = 2 ",
"+ ' U@N+P+Q+Q+Q+m@3@3@3@3@3@3@3@p@V@E.W@*+Q@X@V@p@3@3@3@m@Q+&@A+V.h.V.h.h.h.g.z.L.W.h.h.h.h.h.Y@z ; b ~ ~ { & % = { > w   } e c ",
"D h Z@O+9@Q+Q+Q+s@3@3@3@3@3@3@3@3@`@O. +-+ + #H@:@3@3@3@q@&@Q+`+L.V.h.h.h.h.f.L.h.g.z.i.V.h.h..#  { ^ & % { 2 ~ & ' & - ' ) - f ",
"h # ' +#O+Q+Q+Q+,@p@3@3@3@3@3@3@3@/@V@r. # +@#K@p@3@3@3@(@,@Q+C+L.i.h.h.h.h.z.V.V.i.g.f.i.h.##> % { { % ~ & % % { ' >   + = 2 ^ ",
"^ $#- %#R+Q+Q+Q+&@:@3@3@3@3@3@3@3@3@&#K@O.E.*#R@3@3@3@3@(@,@Q+M+g.g.h.h.h.h.W.h.V.g.V.i.V.K.=#' ' = 1 ~ ! 1 %   % 3   _     f ^ ",
"^ K ^ -#;#Q+Q+Q+R+s@3@3@3@3@3@3@3@3@z@>#,#w@'#p@3@3@3@_@(@,@Q+P+g.h.h.h.h.i.f.h.h.h.h.h.h.)#' > ' { ~ ~ ~ 2   % c } 0 ; } 3 % % ",
"> } % % !#Q+Q+&@Z+N+:@3@3@3@3@3@3@3@3@8@8@3@3@3@3@3@3@_@2@,@Q+R+V.h.h.h.h.f.i.h.h.h.h.h.~#{#> = ^ ^ %   ~ o ~ % - % & ~   % } c ",
"% % &   ]#^#Q+Q+9@/#s@3@3@3@3@3@3@3@3@3@3@3@3@3@3@3@3@(#q@&@Q+R+V.h.h.h.L.W.V.h.h.h.h.>@_#' o _ & = & _ ; & % 0 % % 5 0 % 2 ' c ",
"& & ~ } % :#Q+Q+&@M+Z+m@3@3@3@3@3@3@3@3@3@3@3@3@3@3@3@r@m@Q+Q+P+h.h.h.h.V.W.f.L.h.h.w+<#& %  .5 & % & @+; _ %   [ b ~ x { & ! ; ",
". - } } _ [#Q+Q+Q+Q+R+N+:@3@3@3@3@3@3@3@3@3@3@3@3@3@3@r@)@Q+Q+M+h.h.h.h.g.V.z.V.h.w+}#{ & ~ ~ o = x / 5 ; _ ^ ' ' _ 7 ^ 8 % c   ",
"x ' . = 2 % |#1#Q+Q+Q+%@E+:@3@3@3@3@3@3@3@3@3@3@3@3@2@/@&@Q+Q+*@h.h.h.h.L.h.h.i.2#3#' 7 & & [ ~ - 3 { 2   % ^ ) g > ^ % ; { =   ",
"> ' = ; } / f 4#5#Q+Q+Q+M+6#:@3@3@3@3@2@2@3@3@3@3@3@3@'@Q+Q+R+G+h.h.h.V.i.h.7#8#7 . 7 . . _ } & = 3 ~   ~ ~ = > . . ; & & % }   ",
"% 7 4 4 ^ } % 7 9#N+R+Q+Q+%@D+m@3@3@3@3@3@3@3@3@3@p@)@Q+Q+&@/#&+h.h.h.i.h.0#a#% * H 8 * % ' . > 7 ' * > % %  .s . = [ & _ ^ = > ",
"% ' ; ) % % b ) b#c#&@Q+Q+P+/#/#)@:@p@3@3@3@3@3@:@)@Q+Q+&@/#F+h.h.h.h.d#e#f#[ * * % & 8 [ 7 ' . ' % ) . } } a 2 ' _ & % & . ' ' ",
"% % f 3 & ~ % } g#h#Q+Q+Q+Q+&@%@Q+&@'@s@1@m@1@)@&@Q+Q+Q+&@/#A+h.h.i#j#k#. _ ) n 5 b * % . g % ' 7 y x { o % 3 = * ; 5 = * > ) ' ",
"~ % & } = [ x > = l#P+Q+Q+Q+Q+Q+Q+Q+Q+Q+Q+Q+Q+Q+Q+Q+&@Q+%@B+h.i.m#n#% . 7 7 ' 7 ; & % * [ . * ' = _ . % 5 = H h ; ' 5 & * * ' * ",
"> % ; ) ) ' ^ > % _ o#p#Q+Q+Q+Q+Q+Q+Q+Q+Q+Q+Q+Q+Q+P+N+Q+D+h.q#r#s#% } b = x . & 0 ;   & * g . ' . * % 0 & % # h * ^ b % ; * * = ",
"' = & [ # g # > 0 = c k t#u#N+%@P+&@Q+Q+Q+Q+Q+Q+Q+Q+Q+M+v#w#x#~ f ' = o _ % . % % @+@ * * ^ ^ b [ * 3 % = } ) ^ % ^ % ^ , > ) . ",
"> & b & ) ' y#g % $#; ! { w z#A#B#/#N+&@Q+Q+Q+Q+Q+C#D#E#F#  - ' ' ' ;   ! 1 & & & 6 * * . % - 2 5 % % 5   } - ^ = ' [ ' @ g $#> ",
". & 2 x . @ ) [ I G#' 2 { = % = H#I#J#N+O+K#l@L#M#N#- } - = ' } . = * c   2 2 ~ & [ g * ' & 2 A w } f - c ' % & > g . ' t > D = ",
"_ ^ % ) = = = e ) ! d & 0 _ = g % ~ % O#P#Q#R#s#o   ^ _ ; ^ } & * 5 ~ * & ! ! ~ f K = % = % % & 5 % [ ' e h x & ^ ^ { % = _ ^ ; ",
"c % } ' ) = 5 2 = } 1 2 b 2 ^ # z = * ) > = % ^ - % ^ @+% % % 2 b 8 } . % ! ~ % } ^ & 2 ; * . ; _ = [ = / ) 7 = = - = ~ % ; = & ",
"~ ~ _ = ' 2 3 & = l & 0 c % [ * 2   - ' & ' . } { = ' % & % % & , > ' = % = & %   % [ w 1+g > > c . { & [ - ; * - & _ & x # f & ",
"1 K c = 4 ; 3 x & = _ { % c & _ } { } ; ; * ; - [ * { q - ~ 8 ~ & * + . % . [ ~   ~ ^ . > g # g ; % ' & & 2 , ' } } % ' ) ^   ' ",
"~ * * > 1+# ^ } % & _ c 2 _ & ! } c ; 5 % f ' ^ = > x ) ^ * & & 2 f > % 0 * % & > f } # ; * q = _ ; . & 2   > g ^ 3 % > = ; & % ",
"  _ ; = ' # 4 ; [ & = & ; c } } d   ; ; = . . = & . ' & - % % & a & - c E b 5 b ; ^ J 4 6 = % & 2 _ ^ & % ~ % ' ' { % . & & ~ 2 ",
"% . ) ^ * * . % = & & % } % ^ - ~ % & ' ' = = ; = % = _ ; ' ^ % & ~ % = 3 o b = & ' S#; & 7 , } 2 = + @ { & ~ * ; % 3 ^ e }   ~ ",
". . ' ; & ) [ % ' [ - } . = ) ^ & { % . * , = , & ' ' ; J ' } ' % % % ' % @+~ # [ @+= ^ # [ > e ~ . 1+; 3 % ~ % % } { = ' q !   "};
