/* XPM */
static char * pig_l_1_xpm[] = {
"64 64 586 2",
"  	c #4A6D33",
". 	c #42652B",
"+ 	c #4E7933",
"@ 	c #597E3C",
"# 	c #52753A",
"$ 	c #456B2C",
"% 	c #436632",
"& 	c #526F35",
"* 	c #517635",
"= 	c #4E7A39",
"- 	c #5A833C",
"; 	c #4B732D",
"> 	c #4D792C",
", 	c #52743C",
"' 	c #667A4E",
") 	c #5E8342",
"! 	c #416525",
"~ 	c #375D14",
"{ 	c #5D7E3B",
"] 	c #547B3A",
"^ 	c #58842F",
"/ 	c #4C7333",
"( 	c #56763F",
"_ 	c #466C32",
": 	c #4D7233",
"< 	c #506E42",
"[ 	c #517B2D",
"} 	c #527B34",
"| 	c #467125",
"1 	c #47712B",
"2 	c #3F6A25",
"3 	c #436B25",
"4 	c #496D2D",
"5 	c #5E893C",
"6 	c #466B2D",
"7 	c #54753D",
"8 	c #3C5D26",
"9 	c #43652D",
"0 	c #4F743A",
"a 	c #466B3A",
"b 	c #3D6425",
"c 	c #527A34",
"d 	c #547A3A",
"e 	c #4C7334",
"f 	c #4B7033",
"g 	c #3D5A28",
"h 	c #3C522B",
"i 	c #46672A",
"j 	c #517934",
"k 	c #4B6C33",
"l 	c #5E744F",
"m 	c #5E7C4E",
"n 	c #597E35",
"o 	c #5D6F47",
"p 	c #737A60",
"q 	c #677E53",
"r 	c #587641",
"s 	c #687253",
"t 	c #496632",
"u 	c #56813A",
"v 	c #36611A",
"w 	c #4A7326",
"x 	c #3D6424",
"y 	c #3D682A",
"z 	c #4A6C34",
"A 	c #6D725E",
"B 	c #55514E",
"C 	c #141511",
"D 	c #1D1D1A",
"E 	c #252522",
"F 	c #1C1B17",
"G 	c #080804",
"H 	c #311D1E",
"I 	c #615F60",
"J 	c #5F4F51",
"K 	c #262925",
"L 	c #0A150F",
"M 	c #1C1411",
"N 	c #4B3E3C",
"O 	c #685957",
"P 	c #746463",
"Q 	c #7A6465",
"R 	c #35322B",
"S 	c #3F3A32",
"T 	c #665D50",
"U 	c #867B79",
"V 	c #797370",
"W 	c #4B544E",
"X 	c #3C423E",
"Y 	c #464442",
"Z 	c #5D6C4B",
"` 	c #4E7432",
" .	c #558134",
"..	c #496E26",
"+.	c #52762D",
"@.	c #496733",
"#.	c #48672E",
"$.	c #41652E",
"%.	c #556A49",
"&.	c #2A371F",
"*.	c #704F56",
"=.	c #9B8B8B",
"-.	c #3A3D38",
";.	c #2E2D2A",
">.	c #937E80",
",.	c #D7A9B7",
"'.	c #7B6669",
").	c #1D201B",
"!.	c #4D3F41",
"~.	c #EBBDC1",
"{.	c #F3C4CA",
"].	c #FAC3CB",
"^.	c #E5BABD",
"/.	c #877D80",
"(.	c #161B16",
"_.	c #23391A",
":.	c #467232",
"<.	c #3E642A",
"[.	c #659048",
"}.	c #64754A",
"|.	c #586353",
"1.	c #16130E",
"2.	c #4C4542",
"3.	c #C49EA3",
"4.	c #F3CED1",
"5.	c #B28B91",
"6.	c #DCB5BB",
"7.	c #423433",
"8.	c #443C3A",
"9.	c #B29394",
"0.	c #F3BEC9",
"a.	c #ECC2C4",
"b.	c #E4B6BA",
"c.	c #E9BBBE",
"d.	c #EAB6BB",
"e.	c #E8B6B7",
"f.	c #EDC4C9",
"g.	c #292A24",
"h.	c #625454",
"i.	c #A38D91",
"j.	c #DCB2B5",
"k.	c #CDAAAC",
"l.	c #967677",
"m.	c #29301C",
"n.	c #53753B",
"o.	c #4F8428",
"p.	c #4A6D3A",
"q.	c #717167",
"r.	c #25241B",
"s.	c #78605E",
"t.	c #E3C0BE",
"u.	c #DBADB3",
"v.	c #FAC8CE",
"w.	c #D5ACB2",
"x.	c #3A322D",
"y.	c #24231C",
"z.	c #9A8984",
"A.	c #E0AFB5",
"B.	c #E6BDC1",
"C.	c #E4C1C2",
"D.	c #C4A9AB",
"E.	c #2C2622",
"F.	c #2C251E",
"G.	c #AA928F",
"H.	c #FCCCD2",
"I.	c #F9D6D8",
"J.	c #7B7472",
"K.	c #393F28",
"L.	c #516F3E",
"M.	c #5C8442",
"N.	c #3B631E",
"O.	c #4E7439",
"P.	c #454E43",
"Q.	c #4A443D",
"R.	c #EBC9CA",
"S.	c #3D3934",
"T.	c #DCBBBB",
"U.	c #E2B3B6",
"V.	c #160E12",
"W.	c #AA8B8D",
"X.	c #AD9295",
"Y.	c #846E70",
"Z.	c #424934",
"`.	c #4A6C35",
" +	c #5A7E42",
".+	c #3D681D",
"++	c #5F6B52",
"@+	c #342627",
"#+	c #CDADB1",
"$+	c #F9C1C7",
"%+	c #534A45",
"&+	c #241D1B",
"*+	c #F2C2C6",
"=+	c #F1BEC4",
"-+	c #444B44",
";+	c #D2A5AB",
">+	c #927375",
",+	c #6A5555",
"'+	c #635955",
")+	c #655C5A",
"!+	c #413935",
"~+	c #2F3F22",
"{+	c #485F36",
"]+	c #597D46",
"^+	c #5B8833",
"/+	c #5D764B",
"(+	c #5D5453",
"_+	c #6D6563",
":+	c #5E5D5B",
"<+	c #F3C9CC",
"[+	c #EDB7C0",
"}+	c #A38B8D",
"|+	c #9A7B7C",
"1+	c #988576",
"2+	c #787E74",
"3+	c #5F7649",
"4+	c #4D7B25",
"5+	c #618C3D",
"6+	c #5E8942",
"7+	c #477233",
"8+	c #60744F",
"9+	c #596D4C",
"0+	c #525240",
"a+	c #4D4340",
"b+	c #4D4D4A",
"c+	c #342D2B",
"d+	c #3D2D32",
"e+	c #D5B4B5",
"f+	c #92777A",
"g+	c #B3969A",
"h+	c #5E5B52",
"i+	c #758164",
"j+	c #456B2D",
"k+	c #43652C",
"l+	c #536A3C",
"m+	c #7F7F6F",
"n+	c #A59896",
"o+	c #857474",
"p+	c #170E0B",
"q+	c #958B8A",
"r+	c #564648",
"s+	c #5A594D",
"t+	c #5A7C46",
"u+	c #4B732E",
"v+	c #3C5D2B",
"w+	c #54822D",
"x+	c #5A7547",
"y+	c #74726B",
"z+	c #BAA4A2",
"A+	c #3B2D2B",
"B+	c #3D3433",
"C+	c #F1B9BF",
"D+	c #826B6B",
"E+	c #35312B",
"F+	c #828274",
"G+	c #517A3C",
"H+	c #5A8335",
"I+	c #4B6D3B",
"J+	c #537442",
"K+	c #4A6C33",
"L+	c #6D6B63",
"M+	c #5A4444",
"N+	c #A49393",
"O+	c #664C4A",
"P+	c #D7B5B9",
"Q+	c #C3A4A4",
"R+	c #5E6954",
"S+	c #567043",
"T+	c #4B6735",
"U+	c #608543",
"V+	c #3A5D23",
"W+	c #516A3F",
"X+	c #64635A",
"Y+	c #5B4B4B",
"Z+	c #735B5B",
"`+	c #9A8385",
" @	c #8D7679",
".@	c #2B1B1B",
"+@	c #5F784B",
"@@	c #355B1D",
"#@	c #365B23",
"$@	c #405D2D",
"%@	c #4D6E3B",
"&@	c #55504A",
"*@	c #CAA5A6",
"=@	c #523C3C",
"-@	c #322B27",
";@	c #777774",
">@	c #557B39",
",@	c #517B3D",
"'@	c #554E4B",
")@	c #8C8282",
"!@	c #F7BAC4",
"~@	c #C29A9D",
"{@	c #544544",
"]@	c #788A61",
"^@	c #597741",
"/@	c #537638",
"(@	c #836565",
"_@	c #F5C6D0",
":@	c #DAC1BD",
"<@	c #99767C",
"[@	c #858077",
"}@	c #628942",
"|@	c #517B24",
"1@	c #5C833F",
"2@	c #565853",
"3@	c #231916",
"4@	c #D8A9AF",
"5@	c #6C7B65",
"6@	c #496C34",
"7@	c #67615E",
"8@	c #6B5D5D",
"9@	c #D4B9BA",
"0@	c #63524D",
"a@	c #948282",
"b@	c #292F23",
"c@	c #828173",
"d@	c #426C1E",
"e@	c #4B6E2A",
"f@	c #AD7179",
"g@	c #CC8B96",
"h@	c #D3939B",
"i@	c #D69797",
"j@	c #AC858A",
"k@	c #5C584F",
"l@	c #717A6D",
"m@	c #6C8054",
"n@	c #4F792E",
"o@	c #466B39",
"p@	c #669246",
"q@	c #4C732E",
"r@	c #938A88",
"s@	c #C5878C",
"t@	c #D38C99",
"u@	c #8C6D6E",
"v@	c #634F52",
"w@	c #8A8D7F",
"x@	c #6B785D",
"y@	c #5B7C3F",
"z@	c #4E6E38",
"A@	c #769F53",
"B@	c #668D49",
"C@	c #7F8070",
"D@	c #353531",
"E@	c #826669",
"F@	c #E09EA2",
"G@	c #A7797A",
"H@	c #C99597",
"I@	c #483634",
"J@	c #DA98A3",
"K@	c #726C69",
"L@	c #7C6D65",
"M@	c #7E7A66",
"N@	c #56753F",
"O@	c #737C61",
"P@	c #483932",
"Q@	c #B5888B",
"R@	c #AC8D92",
"S@	c #4C4742",
"T@	c #4B4F3F",
"U@	c #546C49",
"V@	c #5C7549",
"W@	c #53743A",
"X@	c #55773C",
"Y@	c #45662F",
"Z@	c #778165",
"`@	c #916B6F",
" #	c #B37F83",
".#	c #5D5956",
"+#	c #9B8589",
"@#	c #626057",
"##	c #847D70",
"$#	c #64734F",
"%#	c #4E7934",
"&#	c #7B7D6E",
"*#	c #BC8991",
"=#	c #E3969E",
"-#	c #785F62",
";#	c #8C7B76",
">#	c #D3AAAC",
",#	c #AA8485",
"'#	c #C99FA2",
")#	c #B99799",
"!#	c #9A7D81",
"~#	c #2C3430",
"{#	c #696C61",
"]#	c #576E48",
"^#	c #50693F",
"/#	c #7E7A74",
"(#	c #68504E",
"_#	c #A38385",
":#	c #715A57",
"<#	c #4F6C35",
"[#	c #4F693A",
"}#	c #7B716A",
"|#	c #454D36",
"1#	c #507435",
"2#	c #60863E",
"3#	c #707D5E",
"4#	c #847D7A",
"5#	c #FCC5D1",
"6#	c #917D7E",
"7#	c #CCA4AA",
"8#	c #5A3F44",
"9#	c #958689",
"0#	c #6B7963",
"a#	c #4F6F36",
"b#	c #4E6D38",
"c#	c #636362",
"d#	c #7B6B6A",
"e#	c #BA9A9C",
"f#	c #5C514D",
"g#	c #615752",
"h#	c #5F6954",
"i#	c #597840",
"j#	c #53753E",
"k#	c #5C5A55",
"l#	c #93817E",
"m#	c #696B5C",
"n#	c #65744F",
"o#	c #6D8E3D",
"p#	c #55753D",
"q#	c #626156",
"r#	c #896768",
"s#	c #7F7870",
"t#	c #597047",
"u#	c #5F9132",
"v#	c #5B6856",
"w#	c #BF9CA0",
"x#	c #8B8680",
"y#	c #4D7335",
"z#	c #476C33",
"A#	c #77756D",
"B#	c #76575B",
"C#	c #6E6C68",
"D#	c #6A8457",
"E#	c #4B6D34",
"F#	c #7D726C",
"G#	c #89867E",
"H#	c #7B806C",
"I#	c #4D4B46",
"J#	c #837472",
"K#	c #466B2E",
"L#	c #677956",
"M#	c #33332C",
"N#	c #61734E",
"O#	c #595349",
"P#	c #8A7575",
"Q#	c #7A816B",
"R#	c #4D7334",
"S#	c #616F53",
"T#	c #A3858A",
"U#	c #807F77",
"V#	c #537B30",
"W#	c #4E6939",
"X#	c #5D645B",
"Y#	c #6A6964",
"Z#	c #628640",
"`#	c #70786C",
" $	c #746C6B",
".$	c #6D755E",
"+$	c #567B3D",
"@$	c #4E693B",
"#$	c #5C7D46",
"$$	c #40652D",
"%$	c #5B7B43",
"&$	c #8F857E",
"*$	c #5C7648",
"=$	c #5D7148",
"-$	c #68645D",
";$	c #5B7146",
">$	c #446B26",
",$	c #6E755F",
"'$	c #5E7C4B",
")$	c #558135",
"!$	c #50693D",
"~$	c #688451",
"{$	c #4F7934",
"]$	c #6B6C61",
"^$	c #5A7A3F",
"/$	c #5D754A",
"($	c #4C493B",
"_$	c #948887",
":$	c #8D8981",
"<$	c #637355",
"[$	c #687D55",
"}$	c #446A2A",
"|$	c #636356",
"1$	c #868275",
"2$	c #797E65",
"3$	c #6C4E56",
"4$	c #7E6F73",
"5$	c #CCB6B2",
"6$	c #8F8983",
"7$	c #4F6D39",
"8$	c #517937",
"9$	c #848677",
"0$	c #6C6661",
"a$	c #7E8A70",
"b$	c #426930",
"c$	c #858977",
"d$	c #857976",
"e$	c #8C8B87",
"f$	c #5C794D",
"g$	c #69954A",
"h$	c #527B35",
"i$	c #577142",
"j$	c #8C897F",
"k$	c #496C31",
"l$	c #3F4434",
"m$	c #5B6954",
"n$	c #767F68",
"o$	c #5D6D54",
"p$	c #30402F",
"q$	c #5F7C4A",
"r$	c #5F754B",
"s$	c #6B6561",
"t$	c #595F54",
"u$	c #606851",
"v$	c #646C58",
"w$	c #707565",
"x$	c #66854B",
"y$	c #4C6D31",
"z$	c #647455",
"A$	c #948D88",
"B$	c #DFBFC2",
"C$	c #797B63",
"D$	c #4C6D33",
"E$	c #6A705E",
"F$	c #A99A9A",
"G$	c #6C6E61",
"H$	c #677A57",
"I$	c #3A5C24",
"J$	c #5B833E",
"K$	c #757960",
"L$	c #70665E",
"M$	c #87877B",
"N$	c #636259",
"O$	c #5A6B47",
"P$	c #4E7335",
"Q$	c #4C6D30",
"R$	c #868276",
"S$	c #645C58",
"T$	c #56413E",
"U$	c #6E655C",
"V$	c #617E48",
"W$	c #466C2A",
"X$	c #7A7570",
"Y$	c #9B817E",
"Z$	c #4B5A34",
"`$	c #496B36",
" %	c #6C7D5A",
".%	c #3E3D31",
"+%	c #8C6F71",
"@%	c #6E7E59",
"#%	c #446629",
"$%	c #4A5A32",
"%%	c #44652E",
"&%	c #527636",
"*%	c #697260",
"=%	c #74716B",
"-%	c #55773B",
";%	c #9F9393",
">%	c #DEC2C1",
",%	c #556F41",
"'%	c #5E7847",
")%	c #807679",
"!%	c #686864",
"~%	c #656C5D",
"{%	c #657357",
"]%	c #607150",
"^%	c #5C7B48",
"/%	c #4A6735",
"(%	c #8E7B7C",
"_%	c #76716D",
":%	c #577045",
"<%	c #4A6D2E",
"[%	c #567B3C",
"}%	c #4E7336",
"|%	c #527637",
"1%	c #5D704C",
"2%	c #5D635C",
"3%	c #7B7C7A",
"4%	c #70745B",
"5%	c #628B44",
"  . + @ # # . $ % $ & # * $ = - ; > , ' ) ! ~ { ] ^ / ( $ _ : < [ - ; / } | 1 1 2 ; 3 1 > 1 ; $ 3 + / / 4 ; 1 $ / $ + 5 | [ +   ",
"$ 3 . 6 7 7 8 9 0 a b c $ d } e } f g h i j k l m n o p q r s t $ u / _ 2 } | 2 [ v w } 1 3 $ . 3 . $ / x $ ; 1 $ $ + | w [ 3 $ ",
"y $ z A B C D E F G H I J K L G M N O P Q O N R S T U V W X Y Z ` # / y 2 +  .= [ ..+.; > $ . @.$   #.4 y 2 2 u } * ] } ; w } ! ",
"/ $.%.&.M *.=.-.;.>.,.'.E ).!.>.,.~.{.{.{.].{.^./.K (.C F E E _.  ] / :.+ >  .u w [ ; 3 + 1 / . .   <.3 / $ 1 [.u ] / ] > 3 5 1 ",
"}.|.1.2.3.4.5.Q 6.6.7.G 8.9.{.0.a.b.b.c.d.e.f.5.g.F h.i.j.j.k.l.m.n.1 ; ;  .o.5 / ! y 1 + 3 } 3 <.. $ p._ ; ; - u ] y 1 :. .> > ",
"q.r.s.t.a.e.u.v.w.x.y.z.c.].A.B.^.B.C.c.^.a.D.E.F.G.{.].d.c.H.I.J.K.L.$ ; } 1 M.= y $ 1 > > w w N.* /   _ O.$ 1 ] ] :.$ 1 1 } 1 ",
"P.Q.B.c.e.^.R.w.S.7.^.].c.T.t.~.b.~.U.c.c.a.P V.W.f.d.U.C.T.X.Y.!.M Z.`./ $ x y / $ :.y 1 } ; +.> ] . 2 ]  +$ 3 1 _ $ = 1 .+u + ",
"++@+#+].$+~.t.%+&+k.c.c.C.U.*+b.c.c.^.t.=+w.H -+~.~.^.^.;+>+,+'+I )+!+~+{+]+# <.; 2 $ + 2 | - #.5 } > / #.$ $ = / $ / + ^+2 2 u ",
"/+!.@+(+_+:+8.V.s.<+b.c.c.t.t.c.c.[+^.^.].}+1.|+*+d.c.c.j.b.^.a.*+f.a.1+;.2+3+; <.1 y <._ 4+5+; / + = + ; $ $ / + ! 1 = ] 4 ..6+",
"7+8+9+0+a+b+c+d+e+a.c.b.b.c.c.c.^.c.^.T.{.f+F g+*+t.d.e.~.c.^.c.B.b.e.v.h.h+i+j+3 . $ O.= ; = / ] 3 1 - # @ x _ :.$ $ $ 4 #.w ^+",
"; $ k+l+m+n+2.o+H.b.=+~.c.a.c.c.^.~.^.^.$+W.p+q+{.j.t.t.t.^.c.e.~.U.d.<+r+s+t+$ #.$ $ / u+k+% v+. * x } * @ # . _ $ $ $   4 [ w+",
"; % % $ x+y+7.z+~.e.U.=+b.c.c.d.^.c.c.c.~.k.A+B+c.t.c.^.j.b.C+C+=+R.C.D+E+F+G+; * % . ] H+_ I+J+* ] * 4 * _ _ % = / $ / + ; } 4+",
"x % #   K+L+M+6.4.a.~.~.B.^.B.~.B.d.b.^.c.B.N+H O+P+{.0.].*+a.C.Q+o+c+M R+S+O./ #.. . H+5+* p.T+n.U+n #.] #.$ <.] u } ] & . $ x ",
". V+#   W+X+Y+B.Z+|+f.~.c.b.a.[+B.~.c.~.^.B.a.|+).c+'.`+`+ @P S..@C !./.+@@@_ $ <._ / ; w n #.#@$@@ #.! #.4  +/ 3 +  . .  #._ / ",
"/ V+$ _ %@&@Q *@G =@6.^.c.b.c.b.B.~.e.t.c.c.e.a.z+Y+-@y.E E.A+Z+'.1.;@=.>@+ $ 4 $ . $ / = } 3 p.p.. . & ! + +  ++  .u + / #.. _ ",
"% ..+ _ ,@'@Q *+)@W.~.d.=+*+a.*+B.~.^.c.R.*+C+^.!@{.u.Q+~@k.^.*+4.{@V.)@]@} _ / ! 3 N./ / $ ! % ^@p.$ @ ; n - 1 # ; 1 + + 4 <.  ",
"y . ] * /@B (@v.*+{.].*+e+k.3.;+B._@c.:@o+<@~.^.b.c.a.a.f.t.c.c.~.e+@+g.[@}@$ p.> O._ # |@; ! % _ % ] 5 ^+o.[.w H++ !   p.#@@@# ",
"_   +.! 1@2@Q <+C+;+ @%+c+3@C (.S.9.!@4@1.&+6.~.c.^.c.c.c.c.c.c.^.a.D..@D 5@6@/ ^ / _ _ *  +# * % 3 + u  .6+5 1  .6+* ;   ! V+x ",
". $ * ; 1@7@8@9@Q ;.D c+{@0@O+Q.D 3@*@*+f+a@a.c.c.c.c.b.b.c.c.c.B.c.0.g+y.b@c@z 4+! % $ @./ ; [ * ..3 / $ 5 d@1 ; M.+ } x 2 . x ",
"/   n @ e@)@7@M+.@h.f@g@h@h@h@i@j@M k@a.{.<+~.^.c.c.c.c.c.B.c.c.[+b.c.*+*@M+x.l@m@n@:.* o@<.$ o.@ 3   V+/ . $ p@/ # } } d@#.4 @@",
"/ & +.H+q@r@b+E.1+i@i@s@t@u@E.l.g@7.B+B.[+b.e.~.^.^.c.c.c.c.^.b.[+B.C.b.c.^.v@E '+w@x@y@z@4 O.o.+.* _ 4 $ y $ A@/ ] B@+ 1 + # . ",
"! 4 4 ; - C@D@E@F@f@G@H@t@G@I@f@J@7.I@b.~.^.d.~.c.c.c.c.c.^.c.c.B.^.^.^.B.^.a.W.7.8.)+K@L@M@N@/ ; n 3 p.. * ; ] + M.- ; | } 3 # ",
"  } ; N.> O@D@u@t@P@.@Q@g@Q@i@H@1+@+r+~.c.~.c.c.c.c.c.c.c.c.c.c.e.*+a.^.C.B.U.*+0.R@Z+(+(+S@T@U@V@W@X@Y@# ] - $ - u 3 1 2 M...#.",
"3 = / x 2 Z@x.`@F@s.,+s@s@t@t@ #!+M g+{.b.t.c.c.^.c.c.c.c.c.c.^.t.e.c.~.d.~.b.*+3.Q )+.#P }++#Q 2.8.@###$#%#} w 1 > u 1 :.M.B@3 ",
"+ +.; N.; &#2.Q.*#J@=#t@t@*#-#E.p+;#R.c.c.t.c.c.c.c.c.c.c.c.c.c.a.b.c.c.t.b.a.>#*.,#'#Q+o+,+)#v.{.!#y.~#{#]#+.3 +...|@n ..;  .> ",
"/ / | > $ ^#/#-@7.(#Z+O Q..@M D@W.C.b.c.c.U.a.b.c.c.^.c.c.c.c.c.c.c.~.b.c.=+f.,#z.I.>#~@B.#+u@X._#r+Y _+v@:#<#} H+* w +.$ p.] # ",
"$ # + = . o@[#}#B+c+F.y.;.Y+!#9@~.*+d.d.c.a.b.c.B.^.c.c.c.c.c.c.c.b.a.c.c.c.a.~@>+<+k.(@v@8@_+0@(+(@;+_@#+Y.|#1#2#* ..+._ _ ] # ",
"=   _ $ $ . _ 3#4#i.>#>#6.{.5#[+c.e.d.c.C.b.t.=+c.c.c.c.c.c.c.c.c.a.c.^.a.U.c.c.6#1+{.5#7#'#;+w.[+H.<+!#8#'@9#M+0#a#..! _ _ ] / ",
"/ / # $ _ #./ b#c#W.H.d.0.c.e.^.a.c.a.^.^.c.~.d.c.c.^.c.c.c.c.^.b.a.c.U.a.c.c.t.U.(@d#e#c.v.0.f.U.g+f#!+g+{.f.w.g#h#i#3 O./ 5 [ ",
"+ . $ # @ ..$ j#k#u@<+U.^.T.c.a.^.^.^.t.T.a.^.c.c.c.c.c.c.c.c.B.c.b.c.^.c.c.c.c.!@f.l#%+'+0@Y+8@M+Q.1+T.*+d.U.f.6.Y+m#n#= } o#^+",
"4 _ . % #.+...p#q#Z+].^.b.~.~.e.b.a.U.~.j.b.a.c.^.c.c.c.c.c.c.^.a.b.t.C.b.b.c.C+T.C.r#R@j.j@}+d+E@R.~.c.c.^.~.d.*+e+Y+s#t#/ u# .",
"4 p.o@@.@.4 $   v#Z+a.d.B.a.6.B.c.c.*+A.4@a.^.c.B.^.c.c.c.c.c.c.b.a.c.b.c.a.c.c.~.Q+N X.v.v.#+B+w#<+d.d.c.^.c.c.d.f.X.2.x#y#u + ",
"4 @.p.# @._ @ z#A#f#<+b.b.!@^.c.b.B.t.e#4@B.^.[+c.^.c.c.c.c.c.c.c.c.^.B.c.c.c.^.c.~.z.;.5.u.Y Q a.c.b.c.c.c.^.c.c.^.v.B#C#D#2 _ ",
"! p.. / . . / E#F#Y+t.c.~.~.t.c.^.a.^.9.^.a.e.^.c.c.c.c.c.c.c.B.c.c.c.^.c.c.c.B.T.~.{.D+@+O h.u.a.^.c.c.c.c.c.c.c.t.~.)#%+G#$   ",
"p.} _ . ] $   / H#%+k.a.;+j.t.c.c.a.h@)#a.c.~.^.c.c.c.c.c.c.c.^.^.c.c.c.c.c.c.^.C.e.d.f.8.I#I.c.c.c.c.c.c.c.c.c.c.b.c.{.{@J#K#_ ",
"* +.. _ B@/ _ ..L#2.9.!@d.W.T.~.[+a.1+;+~.e.~.c.^.B.c.c.[+^.c.c.c.c.c.c.c.c.c.c.B.~.^.{.}+M#;+c.b.c.c.c.c.c.c.c.c.c.c.<+D+2@N#; ",
". ; ! & > ] / / L.O#P#].t.e#_#~.B.b.l.j.~.~.^.^.^.c.c.c.c.^.c.c.c.c.B.c.c.c.c.c.[+c.:@^.^.A+|+<+^.c.c.c.c.c.B.c.c.t.b.*+g+8.Q#1 ",
"#.+.*   N.> # ; R#S#'+~.U.R.r#T#4.w#f+~.^.c.~.c.c.c.c.c.c.c.c.c.c.c.^.c.c.c.c.c.e.C+C.U.{.,+%+$+c.c.c.c.c.c.c.c.c.t.e.*+4@!+U#V#",
"..4 - } 4 $ } $ _ W#X#g+$+~.3.Y+e+W.>+a.B.e.~.c.c.c.c.c.c.c.B.^.c.c.c.c.c.c.^.c.~.[+b.~.{.P#E 6.~.c.c.c.c.c.^.c.B.c.t.d.~.2.Y#Z#",
"] . ; [   > } # / R#`#Q *+d.~. $*.<@-#Q+a.[+c.^.c.^.B.c.c.c.c.c.c.c.c.c.c.^.B.^.~.t.^.^.].e#D 9.a.c.b.c.c.^.c.c.B.c.^.c.].'+2@H+",
"] ..    !   @ /   / .$B 7#~.[+j.8#2.B 4@C.^.a.B.c.c.^.c.c.c.c.c.c.c.c.c.c.B.^.c.c.c.c.c.~.w.&+!#*+e.^.~.c.c.^.~.c.c.c.c.v.'.I#+$",
"/ / @ * 3 O.* #./   @$_+6#{.b.C._#c+S.,.a.b.^.[+c.c.c.c.c.^.c.c.^.B.c.c.c.c.c.c.c.^.c.d.~.j.-@D+<+c.^.c.c.c.^.c.c.^.c.d.{.D+%+#$",
"#.* /   _ $ / 4 / _ $$)@(+B.d.a.a.!+!+b.t.^.c.c.B.c.c.c.c.c.^.B.c.c.c.c.c.c.c.c.B.c.^.c.B.^.D@Z+{.b.^.[+c.c.c.c.c.^.c.b.a.o+Q.%$",
"#.} . / O.x / / O./ j+&$'@X.$+b.*+Y+B+6.c.c.a.^.^.c.c.c.c.c.c.c.c.c.^.c.c.c.c.^.~.c.^.~.c.T.M#Z+<+c.^.c.^.~.^.c.c.c.a.b.*+P#8.*$",
"3 p.$ # M._ y =   / ! =$-$,+a.b.=+,+E.j.f.d.^.^.c.c.c.B.^.c.c.c.c.c.c.c.^.c.c.^.b.c.c.c.b.^.g.'.{.c.c.c.^.t.c.c.b.c.^.^.<+o+I#;$",
"  #./ :.] u ! } } ] ! >$,$S.Q+a.].d#-@u.a.d.b.c.c.c.c.c.c.c.c.c.c.c.c.c.c.c.c.c.b.a.c.d.a.T.E.|+*+b.c.c.^.~.c.c.c.a.c.c.{.Z+.#'$",
"  ; # 3 / ] > )$- ] /   !$I#P a.=+a@E 7#t.c.c.C.c.c.c.c.c.c.c.c.c.c.c.c.c.c.c.c.c.c.C.d.{.k.c+e#*+c.c.c.b.c.c.c.c.c.t.C.^.Y+ $~$",
"  * / $ $ 3 + {$> ; _ _ E#]$x.j.$+z+y.~@{.c.c.b.^.c.c.c.c.^.c.c.c.c.c.c.c.c.^.c.c.b.t.d.*+*#x.e+~.b.c.c.c.c.c.c.^.b.^.a.j.=@4#^$",
"> ; ] ! $ = ; + v+#@/ / > /$($_${.d.F. $*+c.c.C+c.c.c.^.^.^.^.c.c.c.c.a.t.t.^.c.^.^.c.c.a.Z+%+{.b.~.c.c.c.t.*+b.c.c.^.{.}+S.:$R#",
"} } + $ / $ ! } . V+* * + - <$8.#+5#d#-@4@c.t.c.b.t.a.c.~.~.~.^.c.c.c.c.b.^.c.c.~.^.c.!@^.y.`+!@c.~.c.c.c.b.^.t.c.~.t.6.A+d#[$/ ",
"} - > 1 ; x 3 1 ; @ / <.# M.}$|$2.B.X.!+|+a.A.a.a.t.c.^.e.^.c.b.c.c.c.t.c.~.~.c.d.~.U.5#P#M#T.*+b.b.b.t.a.c.^.^.c.b.a.,+{@1$e / ",
"1 } 1 1 $ x } 3 H+6+; x / + ! 2$:+3$)+4$)#4@*+U.c.b.^.~.c.c.~.~.c.c.c.b.c.c.c.^.c.c.5#5$g.>+f.j.t.a.t.c.b.c.c.a.b.R.|+8.6$7$/ _ ",
"; 1 1 3 / y ] 1 H+5 / $ O./ 1 8$9$0$K `+<+U.^.t.c.c.c.a.B.^.^.e.c.b.d.*+t.c.^.c.^.c.^.I#P@U.c.c.d.c.U.c.c.c.c.C+a.,#Y+)@a$3 / > ",
"+ - > 2 ] / ] / ] - * ; / @ 1 = b$c$W T#].c.^.^.b.a.c.b.^.c.c.B.c.c.c.c.c.b.c.C.f.~.'+x.U.H.{.0.$+$+{.<+f.b.t.c.~@5.d$e$f$$ ; } ",
"> g$ .| } = h$; ] 4 *   x / / x . i$b+w#*+b.e.a.b.~.c.b.~.c.b.f.b.c.c.c.a.f.a.t.g+=@F.Y+6#}+R@g+g+g+T#f+(@|+k.a.*+5$7@j$k$y $ > ",
"; 2#> o.} %# .> $ / } #.4 ..* N.^@Y@r+w.t.^.C+B.c.c.b.a.~.>#~@4@c.c.*+c.b.*@|+(#l$m$n$o$p$@+&+~#E.;.S.%+D+Q+*+U.].;#q.q$M.. $ + ",
"3 ] ! ; / # ] ] $ M.H++.} = / x $ r$(+6.~.c.a.^.t.t.c.e.a.Q+,+%+Y+Z+8@s$t$u$v$w$n#x$+ y$z$A$7@8@;+;+U.C+].c.c.c.B$-#C$; - / ] ! ",
"$ ; 3 / _ ; 4 ; ; u - n ; = ; ! D$E$8@a.b.e.^.a.~.U.~.c.c.a.e+Q+F$r+G$H$I$] / 4 ] / ; > J$K$)@!+)#R.a.t.^.t.b.*+}+L$1#- } * / #.",
"$ ..5 M.$ ! $ 4 1 3 4 = $ # + #.M$Y+6#~.[+C.U.C+^.*+b.c.b.c.<+j.N$O$P$$ / } ; # * + } $ } Q$R$S$T$T.t.d.C+c.c.a.U$V$. } ; ! _ _ ",
"}   ] - } / * * } 2 . $ $ } / W$X$v@B.=+e.c.t.d.c.~.~.U.*+a.Y$Z$`$:._ 4 B@# 1 = 4 3 1 3 3 * n. %.%Z+R.$+=+$+t.+%@%@ 3 w ; #.U+% ",
"/ $ 3 ; > / @ ]  .>   . $ + 3 #%4#d#C.{.~.^.^.d.c.b.^.{.9@-#$%%%$ $ 1 ] - M.> ; ] } ../ x 3 #.&%*%2.v@d#'.P '+=%-%] 5 d@> 1 1 _ ",
". _ $ $ + / # } } / _ / $ ] ! . ;%J.>+3.j.C.C._@{.a.>%D.'+2.,%V+$ / / 4 $ } + $ ; + + ; 3 3   @.'%9#)%!%~%{%]%^%3 w 5 } ; 3 !   ",
"_   * +.] @ / 3 1 _ $ # | [ ; /% @=.(%(%B#h.-#o++%s.r+Y+_%=.:%$ / ] } 3 ! ; / ; 3 ; ; } } $ / _ <%[%}%|%/ $ $ ; / + 1 1 ] - + / ",
"  p.B@} ; # * / / _ / @ 3 d@+ 1%!# @e$_$q+J.7@:+2%_+3%9#=.f+4%R#} * } 5%3 } } $ 2 ; 2 1 + / # $ ] - ; + * 4 = } / = - $ 3 } + + "};
