/* XPM */
static char * pig_r_3_xpm[] = {
"64 64 593 2",
"  	c #726455",
". 	c #5A753E",
"+ 	c #4E792E",
"@ 	c #457125",
"# 	c #558134",
"$ 	c #4D792D",
"% 	c #456B2C",
"& 	c #4C7333",
"* 	c #467031",
"= 	c #4A6D32",
"- 	c #51763A",
"; 	c #517534",
"> 	c #466C31",
", 	c #4A732D",
"' 	c #527832",
") 	c #496D2D",
"! 	c #436B25",
"~ 	c #3D691E",
"{ 	c #46712B",
"] 	c #4F793A",
"^ 	c #4E7933",
"/ 	c #5E8941",
"( 	c #446633",
"_ 	c #5A833C",
": 	c #527B35",
"< 	c #597E3C",
"[ 	c #345D15",
"} 	c #446E23",
"| 	c #597B3A",
"1 	c #5E7F45",
"2 	c #58733E",
"3 	c #5C7842",
"4 	c #56723D",
"5 	c #5E7E49",
"6 	c #56763E",
"7 	c #46672D",
"8 	c #55773F",
"9 	c #5A7844",
"0 	c #5E694A",
"a 	c #6F6B5B",
"b 	c #576844",
"c 	c #456634",
"d 	c #3E6A29",
"e 	c #547B3A",
"f 	c #578141",
"g 	c #42662B",
"h 	c #466B28",
"i 	c #4E7F24",
"j 	c #426E1F",
"k 	c #3A5E22",
"l 	c #416525",
"m 	c #496E25",
"n 	c #396317",
"o 	c #3E6924",
"p 	c #56813A",
"q 	c #3D6324",
"r 	c #4A672D",
"s 	c #5A7E3D",
"t 	c #6D7654",
"u 	c #696D5F",
"v 	c #585A55",
"w 	c #34342D",
"x 	c #2A322B",
"y 	c #2B2A25",
"z 	c #2C2E2A",
"A 	c #252925",
"B 	c #282529",
"C 	c #0E1512",
"D 	c #1D2822",
"E 	c #392F30",
"F 	c #0C140D",
"G 	c #4A4534",
"H 	c #426031",
"I 	c #365B23",
"J 	c #598436",
"K 	c #4E7339",
"L 	c #486C39",
"M 	c #557344",
"N 	c #2D3B2C",
"O 	c #231C1A",
"P 	c #4B413E",
"Q 	c #5B504F",
"R 	c #6B5557",
"S 	c #645453",
"T 	c #493F42",
"U 	c #332D2A",
"V 	c #1A1A15",
"W 	c #1B1D19",
"X 	c #7E5E61",
"Y 	c #6F5E63",
"Z 	c #2B2423",
"` 	c #0F1A11",
" .	c #474946",
"..	c #373C38",
"+.	c #1A2B0E",
"@.	c #33442C",
"#.	c #576848",
"$.	c #536E3C",
"%.	c #669245",
"&.	c #3E642A",
"*.	c #51762C",
"=.	c #4D7335",
"-.	c #506D39",
";.	c #5B6C45",
">.	c #475737",
",.	c #3E3F33",
"'.	c #736966",
").	c #BC9A9B",
"!.	c #DCACB5",
"~.	c #EDC4C9",
"{.	c #F3C5CA",
"].	c #FAC4CC",
"^.	c #EBBDC1",
"/.	c #D4B2B5",
"(.	c #C39DA2",
"_.	c #9A7D82",
":.	c #1A1714",
"<.	c #AC999B",
"[.	c #6A625D",
"}.	c #544444",
"|.	c #A78789",
"1.	c #141513",
"2.	c #525042",
"3.	c #3D6325",
"4.	c #517B2E",
"5.	c #4D6431",
"6.	c #496727",
"7.	c #3B631D",
"8.	c #5D7D3C",
"9.	c #5F8842",
"0.	c #5B7742",
"a.	c #435532",
"b.	c #3B5A25",
"c.	c #314921",
"d.	c #2E3D24",
"e.	c #2E322A",
"f.	c #443C3A",
"g.	c #C4A3A5",
"h.	c #FFCCDA",
"i.	c #F3C2C6",
"j.	c #F2B6BE",
"k.	c #EAB6BB",
"l.	c #E9BBBE",
"m.	c #EBC2C4",
"n.	c #E6C1C2",
"o.	c #C7A6AA",
"p.	c #7D6C6C",
"q.	c #332B1E",
"r.	c #3C2D2D",
"s.	c #B19195",
"t.	c #B9908E",
"u.	c #D3ABAE",
"v.	c #FDCBD3",
"w.	c #E6BDC1",
"x.	c #13120D",
"y.	c #4A7426",
"z.	c #476C38",
"A.	c #476B2E",
"B.	c #4C6D34",
"C.	c #517836",
"D.	c #314B23",
"E.	c #745C5D",
"F.	c #E4B6BA",
"G.	c #E5BBBC",
"H.	c #E2B8B7",
"I.	c #DDBBBB",
"J.	c #54534D",
"K.	c #23221C",
"L.	c #9A807F",
"M.	c #E4C1BF",
"N.	c #E2B4B6",
"O.	c #927375",
"P.	c #3C6124",
"Q.	c #3B5E28",
"R.	c #4F4A3B",
"S.	c #CCADB1",
"T.	c #F9C9CF",
"U.	c #ECBBC6",
"V.	c #9B8484",
"W.	c #947B7C",
"X.	c #DEC1BE",
"Y.	c #DDB5B9",
"Z.	c #F2BCC3",
"`.	c #433534",
" +	c #AC9394",
".+	c #F4C9CC",
"++	c #416126",
"@+	c #5D8A3C",
"#+	c #385D1E",
"$+	c #537340",
"%+	c #314522",
"&+	c #C9A8A9",
"*+	c #F5CCD2",
"=+	c #BEA4A3",
"-+	c #332B25",
";+	c #F8BCC6",
">+	c #D9A5AC",
",+	c #D4ABB2",
"'+	c #DDB4B5",
")+	c #6C6463",
"!+	c #507734",
"~+	c #5A7F2B",
"{+	c #628B44",
"]+	c #496731",
"^+	c #687950",
"/+	c #4A4F40",
"(+	c #65645F",
"_+	c #8C7579",
":+	c #BA9EA1",
"<+	c #9D7B7C",
"[+	c #E9C0BE",
"}+	c #373A39",
"|+	c #332524",
"1+	c #4A6B33",
"2+	c #53832E",
"3+	c #587638",
"4+	c #638543",
"5+	c #2C372B",
"6+	c #624C4C",
"7+	c #7D6262",
"8+	c #8B6A6D",
"9+	c #CCA5AA",
"0+	c #3C3A34",
"a+	c #68645A",
"b+	c #64734B",
"c+	c #4C6D3A",
"d+	c #597D42",
"e+	c #3D5A2D",
"f+	c #574849",
"g+	c #CAA2A5",
"h+	c #B68E92",
"i+	c #413836",
"j+	c #8E8381",
"k+	c #5B6B40",
"l+	c #506F33",
"m+	c #517838",
"n+	c #3F4435",
"o+	c #585956",
"p+	c #618644",
"q+	c #61863C",
"r+	c #566F44",
"s+	c #4C4841",
"t+	c #D6B9B9",
"u+	c #C6969C",
"v+	c #795557",
"w+	c #331F20",
"x+	c #160B0C",
"y+	c #D5A6B0",
"z+	c #656763",
"A+	c #4D4A45",
"B+	c #4D6D3B",
"C+	c #435F2E",
"D+	c #4B732E",
"E+	c #4C6C34",
"F+	c #3A4C2D",
"G+	c #977C81",
"H+	c #4C3D3C",
"I+	c #363531",
"J+	c #D1A5AA",
"K+	c #755455",
"L+	c #4C4542",
"M+	c #537541",
"N+	c #567C41",
"O+	c #537439",
"P+	c #374B28",
"Q+	c #4C443B",
"R+	c #846E70",
"S+	c #AD8D92",
"T+	c #C5AAAB",
"U+	c #B99499",
"V+	c #486B30",
"W+	c #5C8442",
"X+	c #5E883E",
"Y+	c #466033",
"Z+	c #314129",
"`+	c #1B211B",
" @	c #211917",
".@	c #CDAAAD",
"+@	c #4E6D37",
"@@	c #33541B",
"#@	c #4F812C",
"$@	c #689047",
"%@	c #476B38",
"&@	c #496D2E",
"*@	c #628144",
"=@	c #727360",
"-@	c #847373",
";@	c #8B7374",
">@	c #7C6769",
",@	c #594D4B",
"'@	c #362527",
")@	c #43413C",
"!@	c #857976",
"~@	c #4A4940",
"{@	c #567737",
"]@	c #5B8937",
"^@	c #64794F",
"/@	c #3D483A",
"(@	c #616C4C",
"_@	c #5F8843",
":@	c #415B2C",
"<@	c #3C3432",
"[@	c #94767A",
"}@	c #52423F",
"|@	c #5C6D4D",
"1@	c #426526",
"2@	c #466B2D",
"3@	c #5A6C48",
"4@	c #626059",
"5@	c #7A7C5F",
"6@	c #55723F",
"7@	c #4F7930",
"8@	c #4A732E",
"9@	c #4B7921",
"0@	c #456B28",
"a@	c #467126",
"b@	c #558135",
"c@	c #628A45",
"d@	c #54743E",
"e@	c #2E451D",
"f@	c #746363",
"g@	c #7D605E",
"h@	c #3B312E",
"i@	c #B47E89",
"j@	c #DA929C",
"k@	c #DC9BA3",
"l@	c #E79DAA",
"m@	c #D28B93",
"n@	c #C58A8D",
"o@	c #526D43",
"p@	c #355B1D",
"q@	c #5C713F",
"r@	c #696858",
"s@	c #3C3C3B",
"t@	c #373931",
"u@	c #474335",
"v@	c #524E41",
"w@	c #444538",
"x@	c #313D29",
"y@	c #314425",
"z@	c #406129",
"A@	c #527934",
"B@	c #507733",
"C@	c #2C4B1C",
"D@	c #786864",
"E@	c #DEBEC1",
"F@	c #74625E",
"G@	c #D88DA1",
"H@	c #836866",
"I@	c #39512B",
"J@	c #75A154",
"K@	c #53643E",
"L@	c #81766A",
"M@	c #67635A",
"N@	c #776A68",
"O@	c #756F6C",
"P@	c #F1BABF",
"Q@	c #8A6967",
"R@	c #66514D",
"S@	c #B3787E",
"T@	c #CB8C94",
"U@	c #BE8A8E",
"V@	c #B48B8E",
"W@	c #393727",
"X@	c #5A833D",
"Y@	c #56753B",
"Z@	c #787369",
"`@	c #756C6A",
" #	c #836B6C",
".#	c #C48C95",
"+#	c #483032",
"@#	c #B98588",
"##	c #577142",
"$#	c #586F42",
"%#	c #616651",
"&#	c #8A7977",
"*#	c #544946",
"=#	c #6D6E5F",
"-#	c #5F7249",
";#	c #4C513F",
">#	c #7C736F",
",#	c #D2B0AF",
"'#	c #93666B",
")#	c #383D38",
"!#	c #6B6F58",
"~#	c #517239",
"{#	c #454638",
"]#	c #634748",
"^#	c #E9CBCC",
"/#	c #826062",
"(#	c #242422",
"_#	c #292F24",
":#	c #334920",
"<#	c #446A2C",
"[#	c #446B26",
"}#	c #557635",
"|#	c #4C5839",
"1#	c #625A55",
"2#	c #94807E",
"3#	c #9A757A",
"4#	c #8B646A",
"5#	c #745E61",
"6#	c #5C4444",
"7#	c #674E51",
"8#	c #25301A",
"9#	c #46622E",
"0#	c #556F40",
"a#	c #485837",
"b#	c #A99898",
"c#	c #4C5142",
"d#	c #666F4F",
"e#	c #4D5449",
"f#	c #DEC1C3",
"g#	c #5F5C51",
"h#	c #4F733A",
"i#	c #54723A",
"j#	c #6F6C63",
"k#	c #3C443C",
"l#	c #A77B7D",
"m#	c #635552",
"n#	c #507238",
"o#	c #607B45",
"p#	c #4F6B36",
"q#	c #56763F",
"r#	c #49682F",
"s#	c #486733",
"t#	c #544D4A",
"u#	c #516B37",
"v#	c #465E30",
"w#	c #6B5B5A",
"x#	c #5F7542",
"y#	c #476832",
"z#	c #52574A",
"A#	c #856E71",
"B#	c #28201D",
"C#	c #CC9EA3",
"D#	c #4D6C36",
"E#	c #4B6C36",
"F#	c #3E4530",
"G#	c #474C45",
"H#	c #487033",
"I#	c #537141",
"J#	c #B29B9C",
"K#	c #58554B",
"L#	c #5F8748",
"M#	c #56793E",
"N#	c #6A6D59",
"O#	c #577A40",
"P#	c #85706E",
"Q#	c #67794F",
"R#	c #5C8041",
"S#	c #444539",
"T#	c #4D7330",
"U#	c #5E8840",
"V#	c #42352E",
"W#	c #5B684F",
"X#	c #557E38",
"Y#	c #231C22",
"Z#	c #4D524B",
"`#	c #58733F",
" $	c #58793E",
".$	c #727164",
"+$	c #58783F",
"@$	c #645C5C",
"#$	c #565B52",
"$$	c #537140",
"%$	c #497034",
"&$	c #515142",
"*$	c #4C4741",
"=$	c #6A6F59",
"-$	c #62704E",
";$	c #4C5648",
">$	c #4F6639",
",$	c #4A7035",
"'$	c #69645B",
")$	c #68705F",
"!$	c #6F7863",
"~$	c #3E443B",
"{$	c #5B6E47",
"]$	c #5A7145",
"^$	c #3D463C",
"/$	c #E2AFB4",
"($	c #34322A",
"_$	c #5B6F4D",
":$	c #537B30",
"<$	c #4F5F42",
"[$	c #7D5C5D",
"}$	c #71675F",
"|$	c #51663B",
"1$	c #5A7C42",
"2$	c #271719",
"3$	c #544D45",
"4$	c #706E5B",
"5$	c #4D7334",
"6$	c #433F32",
"7$	c #385126",
"8$	c #4E7733",
"9$	c #445832",
"0$	c #476A30",
"a$	c #587940",
"b$	c #191D20",
"c$	c #846569",
"d$	c #CDB5B6",
"e$	c #4D7733",
"f$	c #618846",
"g$	c #222E13",
"h$	c #607A4D",
"i$	c #466B2E",
"j$	c #436A25",
"k$	c #44692C",
"l$	c #6A7551",
"m$	c #B09894",
"n$	c #456031",
"o$	c #507835",
"p$	c #3F6925",
"q$	c #736C63",
"r$	c #466034",
"s$	c #4A6D2E",
"t$	c #3D6224",
"u$	c #49603A",
"v$	c #7A6B63",
"w$	c #555545",
"x$	c #446B30",
"y$	c #456B27",
"z$	c #6A944C",
"A$	c #73735F",
"B$	c #4C7234",
"C$	c #44642F",
"D$	c #20301A",
"E$	c #978686",
"F$	c #5B674F",
"G$	c #548230",
"H$	c #67774E",
"I$	c #525849",
"J$	c #4E7039",
"K$	c #2D4321",
"L$	c #655E59",
"M$	c #556D3F",
"N$	c #343125",
"O$	c #697854",
"P$	c #3D5D25",
"Q$	c #9C8682",
"R$	c #605E57",
"S$	c #507935",
"T$	c #667A4E",
"U$	c #6B6B5C",
"V$	c #636757",
"W$	c #4F7336",
"X$	c #5A7340",
"Y$	c #B59F95",
"Z$	c #E5B5B8",
"`$	c #443F39",
" %	c #597941",
".%	c #618343",
"+%	c #655E53",
"@%	c #63784D",
"#%	c #5F7847",
"$%	c #D3B2AE",
"%%	c #576C4C",
"&%	c #4F7934",
"*%	c #467128",
"=%	c #496838",
"-%	c #656856",
";%	c #7B6C6A",
">%	c #485642",
",%	c #5E7449",
"'%	c #60754B",
")%	c #696A60",
"!%	c #5F7245",
"~%	c #486B31",
"{%	c #4C6D36",
"]%	c #476B2F",
"^%	c #567B41",
"/%	c #7A665C",
"(%	c #567B3D",
"_%	c #496439",
":%	c #40682C",
"<%	c #4D6B38",
"[%	c #576748",
"}%	c #867573",
"|%	c #5F5E51",
"1%	c #5A6449",
"2%	c #697259",
"3%	c #6D765A",
"4%	c #536B3D",
"5%	c #3D691F",
"6%	c #4D7331",
"7%	c #305818",
"8%	c #597E40",
"9%	c #55773D",
"0%	c #5D8142",
"a%	c #4E7336",
"b%	c #648B49",
"  . + @ # $ % & % % * = - ; & % > % , ' ) ! @ ~ $ { $ & ] ^ / ^ ( & & ) ; & _ : < [ } | 1 2 3 4 5 6 7 8 9 0 a b c d e & f - g ) ",
"h , i j : & % { ! , ! k - = l % ! % ! , : m n $ @ { { o d * p @ q > * - r & s t u v w x y y z A B C D E B F B G H I & - ! g r % ",
"! $ $ @ : ^ & ; J d o ! = % r % % ! ! $ , ; , , $ # ^ o d K p { % ] ] - l L M N O w P Q R S T U V O W T X Y Z `  ...+.@.#.$.! l ",
"$ : $ & < - : _ %.@ { K % &.r l % % , : ! *.*., # # : @ % K < , { * =.-.;.>.,.'.).!.~.{.{.].^./.(._.T :.:.X <.[.}./.|.E 1.2.3.* ",
"$ 4., , * & ^ p # $ * % = 5.g q 6.: @ ^ , g 7.8.9.$ : & * * 0.a.b.c.d.e.` f.g.h.i.j.k.l.l.l.l.^.{.m.n.o.p.q.r.s.t.u.v.w.p.x.q % ",
"y.4., % ! z.& ^ % { e > A.B.& o % : $ & % ! o C._ ) ^ ^ * % D.Z S R E.S f.:.r._.^.i.F.G.G.H.l.l.I.w.k.i.{./.J.K.L.M.N.j.].O.P., ",
"$ $ @ , = & * & % d e K ! , _ , ) : ^ { g % ) , > % & % ) Q.R.S.m.~.T.U.F.V.y ` W.w.^.k.G.n.w.l.F.l.l.X.Y.Z.n.`.x. +.+k.i.w.++_ ",
"# d ~ : e * d K & % > > & { ^ @+, e @ o ] % #+$ q & < o $+%+&+h.Z.i.G.w.^.*+=+-+Z =+^.U.^.w.F.^.^.l.k.;+l.G.m.>+B `.,+'+o.)+!+~+",
"@+{ g - < % % ^ K q * , & : ) - & {+, & * &.]+g & ^ {+^+/+V (+'._+:+!.l.^.Y.*+<+` X ].Y.[+G.m.^.l.F.m.H.l.l.k.T.|.` B }+x |+1+e ",
"2+, , r = ! % * d q f : / ) & 3+r e , & * > g g d , 4+5+:.`.6+7+8+<+9+l.k.^.G.l.0+r./.m.H.l.G.l.l.w.H.G.l.l.m.Y.m.S E )+a+b+% * ",
"2+4.; ) ) ! { * c+= d+& < l ) ) ( g ! , & ) % = { & e+f+g+F.T.{.].^.G.m.Y.w.l.i.p.1.=+].k.[+l.[+l.^.m.m.m.k.H.m.].h+i+j+k+g g & ",
"*., & * - > K ] g % % - , & 3+; c+l+! p p l r l+* m+n+/.].I.H.H.G.G.G.I.n.H.H.~.o+O g+^.l.l.l.G.l.k.l.H.k.l.n.g.=+m.0+)+]+g > & ",
"% g > > e ^ # : k % % 3+l 3+p+3+z.= ) q+p l r g * r+s+~.F.w.G.N.t+M.w.l.k.Z.T.u+V v+w.w.^.F.G.G.G.[+l.m.k.G.t+w+x+y+z+A+B+d+g l ",
"% ]+z.% e J # { - : K ) l r - g C+l 3+: D+= % g * E+F+G+*+Z.{.;+^.Z.k.;+^.{.o.H+I+J+;+G.G.w.G.Z.l.G.l.l.G.l.[+K+L+U._.f.]+M+k % ",
"z.]+= * : ^ ^ * N+< & l = g ( > = % < & = % g ! ! % O+P+Q+R+S+T+!.F.Y./.g.W.U O |..+w.G.G.G.G.l.l.G.m.[+Z.l.[+n.X.Z.U+f.V+! q - ",
") l l & : , ^ N+* _ e K W+> &.f l o % ] & &.! o z.y.: X+Y+Z+`+Z U I+I+w V  @}.:+].I.H.i.~.n.l.G.{.{.'+u.u.'+'+{.i.]..@0++@) K g ",
"- #+@@K ) ! : < $ / #@2+$@] %@&@l ]+z.: : > K ^ K ) : {+*@=@W -@;@>@E.7+<+g+l.i.F.^.U. + +l.l.{.S+,@y `+-+'@)@,@!@>+N.~@{@3+) g ",
"l #+% % & , {+: & ]@@+# ^@L+/@(@& 3+d+*.) = & 2+& ! $ %._@:@<@U.*+{.~.~.~.^.^.k.G.Z.,+x.x.u.T.[@x.x.r.}.}@K+H+0+W q.[.|@1@; * > ",
"k #+l q & : p , * ! J 2@3@A+o+4@5@6@7@l 8@r ! 9@0@a@b@c@d@e@S+^.k.k.^.^.G.H.l.^.G.l.F.f@g@^.,+K.h@i@j@k@l@m@j@n@i@K+K.o@6., % > ",
"p@& % l & ; , : %.! g q@r@}.U+I+s@B A t@u@v@w@x@y@z@A@B@C@D@].E@k.G.l.G.G.G.n.G.l.[+l.i.].T.V.F F@l@g@0+L.n@n@n@G@j@H@I@_ e , z.",
"&.e & % e {+< , J@! K@L@M@|+>+N@C Q !.k.^.u+W.-@O@ +).H@!@N.P@G.l.l.G.G.w.w.G.N.P@k.G.G.F.{.L.V Q@j@R@q.S@T@U+v+}.U@V@W@X@< { = ",
"- ! : ! $ _ {+& e Y@Z@S `.z |..+`@H+<+T+ #F@p.N@v+}@s..+{.m.H.l.w.l.l.l.k.^.^.Z.l.H.m.n.N..+:+x.R@u+T@T@T@T@.#+#y n@@#+###, { g ",
"{ % _ { d @ < p $#%#,@[@E@&#}@m.].|.f+P &#.@G.^.n.=+6+u+l.G.I.l.l.l.^.l.G.k.l.w.M.w.w.l.G.l.I.*# @K+T@j@T@m@T@U@i@k@|.Z =#$ & & ",
"% p+_ { ^ p { -#;#>#Y.].Z.l.J.E.[+T.Y.s.>@,@6+ #,#T.O.S+].G.w.Z.l.l.l.w.l.w.w.G.j.w.^.k.^.H.m.>+`.:.h@F@S@n@n@n@n@'#-+)#!#& * = ",
"y._ { % : 3+~#{#s.{.[+k.F.m.u.]#*#y+~.v.]./.9+^.^#,+/#9+m.l.H.w.l.l.l.l.l.l.l.l.G.l.l.l.G.G.G.i./.>@-+1.1.(#(#(#_#:#<#[#! , $ , ",
"$ < % % ; }#|#=+{.G.G.l.l.l.m.M.X r.1#2#u+t+F.g.3#4#u+~.G.l.w.l.l.l.l.l.l.l.l.l.G.l.m.F.G.l.l.G.w.{..@|.5#6#7#6+8#9#o % { , , , ",
"^ < ) % 0#a#b#{.l.N.l.l.F.l.H.m.,+|+f@6+*#R@6+f@3#,+w.w.k.G.{.F.l.l.l.l.l.l.l.l.m.'+m.G.G.[+G.G.l.Z.l.{.{.~.m.m.c#g g % & e & & ",
"^ e % d#e#)+T.k.l.[+l.m.w.l.w.Z.9+w u.*+m.J+1#f#*+~.w.^.G.[+k.w.l.l.l.l.l.l.G.l.l.l.N.'+m.Y.G.G.k.N.l.l.N.G.H.m.g#h#( &.> & K > ",
"2+_ i#j#k#G.j.H.k.l.F.G.m.G.l.l.F.P &#m.;+k.o+R@l#w.F.l.^.l.l.l.l.l.l.w.G.l.l.G.G.l.l..#u.n.G.l.m.G.G.w.^.l.G.w.m#n#]+> z.& = - ",
"]@%.o#0+j+].j.G.l.m.l.N.F.l.l.l.].|.V 9+Z.)+h@E.J+m.l.l.l.l.l.l.l.l.l.G.l.l.l.w.l.l.l.'+L.H.G.[+G.G.l.'+^.l.F.i.f@p#& 3+3+% % - ",
"# / q#`.w.w.F.^.l.G.l.i.^.l.H.w.M.w.,@H+1#W |.h.i.F.m.l.l.l.G.G.l.l.l.l.l.l.l.l.[+l.l.m.g+l#~.G.G.i.N.V@F.m.k.{.1#r#) l+= g g = ",
"{ / s#;@;+G.X.l.l.w.l.l.l.G.m.H.k.w.Y.}.V _.*+F.H.w.F.G.^.l.l.w.l.G.l.l.G.l.l.l.k.[+G.G.n.<+u+i.H.m.V@<+~.H.l.w.t#u#= ]+C+= - z.",
"K q v#u.m.H.G.l.l.l.G.l.l.l.l.G.k.m.^.h@w#].H.l.G.l.l.G.l.l.l.l.l.l.w.l.l.l.l.l.l.m.k.G.{.9+N@^.l.m.N@V@{.I.l.N.P x#= > - ( ]+( ",
"> y#z#w.l.l.w.l.l.l.l.l.l.l.l.l.G.i.A#B#u.m.G.l.w.l.l.l.G.l.l.l.G.l.G.l.l.l.l.G.l.G.l.G.k.G.w#g+P@t+f+C#i.G.[+C#)@D#r g - g = r ",
"E#F#&#.+l.l.l.G.l.l.G.l.G.l.l.l.m.>+K.f@].[+G.l.l.l.l.l.w.l.G.w.w.l.l.l.l.l.l.l.w.G.l.^.N..+f@;@v. +`.'+^.G.i.|.G#H#= K % r K - ",
"I#U J#i.j.l.F.w.l.l.l.G.l.l.G.l..+Q@`+T+;+G.l.w.l.l.l.l.l.l.l.l.l.l.l.l.l.w.G.l.l.[+k.l.l.m.W.}@T.F@R m.l.N.i.)+K#* e L#K = = ) ",
"M#<@S.^.k.[+H.w.l.w.l.l.^.l.G.l.l.U *#m.P@G.l.w.l.l.G.w.l.l.G.l.l.l.l.w.l.l.l.G.l.w.G.l.l.m.s.-+u+L+|.{.I.^.w.A+N#) < ) ; g - l ",
"O#T w.Z.G.G.m.l.H.w.G.l.l.l.k.m.U+V W.{.H.l.H.^.l.l.l.l.l.l.l.l.l.l.l.G.l.l.l.w.l.^.G.l.k.~.g+-+P#J.9+U.'+;+g.}+Q#& & 7.) & ; % ",
"R#,@^.^.G.G.Z.k.l.w.G.k.l.l.G.{. #K.S.Z.[+I.^.w.l.G.l.l.l.l.w.G.l.G.l.l.l.l.l.l.l.j.G.l.H.~.!.0+)@)+F.^.w.{.7+S#T#^ , ) e f l r ",
"U#1#i.k.M.G.l.w.k.w.l.l.l.G.G.{.,@r.I.l.G.G.G.U.l.l.l.l.l.l.l.l.l.l.l.l.G.l.l.l.l.^.I.l.w.^.Z.)@A A#;+w.l.N.V#W#& < $ j e & ! < ",
"X#R {.k.I.l.;+G.l.l.l.l.G.l.l.^.I+f+;+l.G.l.l.l.l.l.G.w.l.l.l.l.l.G.w.G.l.l.l.l.^.w.w.G.G.k.^.S Y#s.[+H.]._.Z#`#, e = g ) K * : ",
" $T l.l.[+G.k.[+l.l.l.l.l.l.l.l.<@f@{.F.X.^.l.G.l.l.l.G.l.l.l.l.l.l.G.^.l.^.l.l.^.F.w.w.G.l.{.1#y '+[+G.Y.,@.$& % ] & = 3+K ] , ",
"+$E J#~.G.l.G.G.l.l.l.l.w.l.l.l.<@!@].F.G.l.k.[+l.l.l.l.l.l.l.l.l.l.k.w.G.k.w.l.k.w.w.G.l.l.].@$E w.G.{.W.#$$$- % K d = = = : ! ",
"%$&$*#m.Z.F.w.[+l.w.G.G.l.l.G.w.i+_+].l.M.l.F.m.l.l.l.w.l.l.l.l.l.l.l.l.^.G.G.l.l.w.w.k.w.F.~.,@f.w.^.u.*$=$- & K % d & ) ) & % ",
"! -$U ).i.^.N.l.G.l.l.l.l.G.l.m.}.@$.+k.G.l.l.l.G.l.l.G.l.l.l.l.l.l.l.l.G.l.l.G.^.w.^.k.l.l.U.h@}.U.].-@;$>$- % & ! K < - = % ) ",
"& ,$'$}.l.w.l.l.F.l.l.l.l.k.l.{.R i+.+k.[+G.m.G.l.l.l.l.G.l.l.l.l.l.l.l.l.l.l.l.^.Y.^.l.'+i.S.V  #*+!.0+)$g < ^ : q e 3+& & g ) ",
"_ - !$V 7+n.{.k.l.l.G.l.l.G.w.{._.|+,#Z.l.H.G.l.l.l.w.G.G.G.l.l.l.G.w.l.l.l.l.l.l.H.w.l.H.i.[@W g.{./#~${$= N+p J ^ : ; ) - - ; ",
": $ ]$^$t#v+).i.i.l.G.G.l.G.l.^.T+B#V@i.G.m.Y.[+l.l.l.l.l.l.l.l.l.l.l.l.G.w.l.l.k.m.l.G.m.m.6#z G./$($_$&@* & ^ $ $ , % l z.3+g ",
", e :$<$>@C#1#[$h+U.T.;+j.Z.N.Y.w.}.6+~.F.l.l.G.G.l.l.k.G.k.l.G.l.l.l.l.k.l.l.l.l.[+G.Z.^#>#O }.*+}$|$D+) 3+@@g K % < % q _ ) ^ ",
"$ & 6.1$T U.t+3#<@L+N@<.I.~.m..+h..@2$ +].k.[+G.m.G.G.[+m.n.M.M.l.l.k.m.G.w.l.G.G.Z.U.t+>@2$@$3$4$5$_ ; - & q l : o % ) = : $ p ",
"& , , b@6$:+~.].w.V.f.y A f.5#A#_.S+t#(#g.{./$G.^.l.w.l.^.F.k.Z.G.G.G.l.G.l.l.l.H.k.,+S r.S+ +7$8$% < & & & : : , ! 7.% $ ^ < : ",
"% % * ^ 9$)+]./$U.{.w.9+G+7#x.C 1.1.Y#1.z ).].m.F.l.w.l.l.^.l.G.l.l.G.k.G.l.k.m.m.Z.g+&#=+v.(.0$$ o * & k & _ p ! & 7., ) , : { ",
"^ * % p a$B#G.l.G.G.l.j.].^#G+ @D b$Y#Y#W 2$c$d$].i.F.w.F.H.Y.n.k.m.i.l.{.[+G.I.F.^.l.~.k.].|.e$$ @ - & g & {+J K ] d e ! { , % ",
": & ! ^ f$ .g.[+H.l.G.G.G.G.~.K+C 2$Y#g$h$i$j$k$l$m$m.^#^.v.].;+~.t+u.g+u+U+g+G.w.w.G.l.j.Z.g.n$^ { < * & & _ : & e $ o$p$^ p ^ ",
"{ ! % % W+q$2#.+l.[+l.G.i.N.n.X.,@2$:.r$s$& l r z.q t$u$v$;@c$f@,@`.w++#[@u.l.H.F.{.H.l.l.{.S.w$x$, ) ! ) , - * { p : ' y$# z$^ ",
"^ , o p ^ A$f@G.k.l.l.^.F.l.G.G.w.o+D B$: , $ - l g > > C$D$1.C F x.)@E$^#m.G.Z.l.N.m.[+G.G.n.S F$^ ) , & e % & : ^ $ G$$ $ %.! ",
") & : $ - H$N@<.{.H.H.[+[+G.l.w.U.S I$[#% $ _ ) q g - ! * J$K$A T <+t+{.l.k.l.G.l.l.G.l.^.^.~.X L$^ ^ p $ f L#d : e ^ ] * ! < % ",
"% * ^ p < M$_+N@m.G.l.k.l.l.G..+-@N$O$p : & : - & & e &.) e * P$Q$*+m.'+l.^.l.[+l.m.G.G.l.F.n.&#R$S$^ { < p p @ * { ! 6.& * * % ",
"> & 7.$ : 6.T$U$u+{.H.l.[+k.i.u+x V$W$: , & & : K { : % * & > % @ X$Y$Z$^.G.G.H.F.k.k.l.l.l.i.u+`$ %^ % & = % $ ) % % % p+d+) ) ",
"( e { { m , _ .%+%S.m.i.Z.m.t+}.Z#@%& % ! { % ; ^ A.< _ e ) > & % , $ #%$%k.l.^.m.G.[+l.F.l.l.^.>#%%&%% > % o : & : & & p+< ) & ",
"]+* { , *.< < , *%=%-%;%N@N@,@>%,%% ! o $ ) , 3+$ $ _ _ e % % % q ) ; , '%U.{.F.'+l.l.w.l.l.l.{.V.)%!%{ ]+K , : e < & $ ) ) ) - ",
"K d @ , : < y.! ] { 2@~%{%]%B.K % % &.% : $ : , , & : ) { , ^ ! q r ) = ^%'.d$^.Z.h.U.Z.m./.g+|.>@E$/%% - % & : K : & : ) l r r ",
"K , p : , ; & ] K % l % : & : & % N+& & - , ; j { & & ! { ^ < , = ) ) & (%_%:%<%[%}%;@f@|%1%2%3%4%* o$! e l % K { K : < & e ) % ",
"& y.$ @ % < p * ^ ^ $ & ^ ^ < e &.e % : , 5%6%2@, ^ & , < e e : & & $ ; e p@) p+& 7%8%9%0%a%$ & % ^ o @ f & % * ^ & : & : b%> ]+"};
