/* XPM */
static char * pig_r_4_xpm[] = {
"64 64 580 2",
"  	c #446B24",
". 	c #46702A",
"+ 	c #3E6917",
"@ 	c #264A13",
"# 	c #3E622A",
"$ 	c #41641E",
"% 	c #345423",
"& 	c #3F6824",
"* 	c #527533",
"= 	c #4A6D2C",
"- 	c #325415",
"; 	c #416424",
"> 	c #4C732C",
", 	c #3C631D",
"' 	c #355A1B",
") 	c #426717",
"! 	c #3D6517",
"~ 	c #3D6223",
"{ 	c #4D7233",
"] 	c #355B15",
"^ 	c #3A5C1D",
"/ 	c #547B33",
"( 	c #2A461C",
"_ 	c #415E2B",
": 	c #48662D",
"< 	c #304E15",
"[ 	c #324E22",
"} 	c #395624",
"| 	c #294615",
"1 	c #46632B",
"2 	c #223F0B",
"3 	c #406224",
"4 	c #597F3B",
"5 	c #456429",
"6 	c #334E22",
"7 	c #395224",
"8 	c #42592F",
"9 	c #446030",
"0 	c #3A542E",
"a 	c #3F5534",
"b 	c #425A37",
"c 	c #374832",
"d 	c #384E27",
"e 	c #47652D",
"f 	c #395A23",
"g 	c #3D5D33",
"h 	c #2C4A1C",
"i 	c #3B5620",
"j 	c #415F24",
"k 	c #254016",
"l 	c #456A2B",
"m 	c #4B7325",
"n 	c #46701E",
"o 	c #537B2C",
"p 	c #3B5C23",
"q 	c #4D792C",
"r 	c #33541B",
"s 	c #4F7932",
"t 	c #35601B",
"u 	c #4B6D33",
"v 	c #2E5114",
"w 	c #466A32",
"x 	c #2E511B",
"y 	c #2A4C0E",
"z 	c #223E0C",
"A 	c #23430C",
"B 	c #314D1C",
"C 	c #2D4C1A",
"D 	c #3B5732",
"E 	c #3D4341",
"F 	c #2C322C",
"G 	c #333333",
"H 	c #262B29",
"I 	c #2C2B2A",
"J 	c #262A26",
"K 	c #2B2728",
"L 	c #191618",
"M 	c #242423",
"N 	c #372E31",
"O 	c #151B19",
"P 	c #423433",
"Q 	c #3D3E40",
"R 	c #454B4A",
"S 	c #344327",
"T 	c #2E481F",
"U 	c #43642B",
"V 	c #568132",
"W 	c #57822B",
"X 	c #597D33",
"Y 	c #496D25",
"Z 	c #5F893D",
"` 	c #1E4107",
" .	c #32590F",
"..	c #496633",
"+.	c #4D7925",
"@.	c #4E7339",
"#.	c #385C16",
"$.	c #436A1D",
"%.	c #254313",
"&.	c #51762C",
"*.	c #28460E",
"=.	c #314C20",
"-.	c #43612B",
";.	c #4B6730",
">.	c #2C3124",
",.	c #513D3E",
"'.	c #6E5659",
").	c #5B4B4B",
"!.	c #4A423D",
"~.	c #29221E",
"{.	c #151915",
"].	c #1B1514",
"^.	c #241E22",
"/.	c #5B4544",
"(.	c #7D6A6B",
"_.	c #635A56",
":.	c #413F40",
"<.	c #3B3433",
"[.	c #100806",
"}.	c #52514F",
"|.	c #2C411F",
"1.	c #5E8A36",
"2.	c #365B29",
"3.	c #3D5C2A",
"4.	c #365A22",
"5.	c #597F2D",
"6.	c #416827",
"7.	c #40532D",
"8.	c #364533",
"9.	c #38402B",
"0.	c #2D3727",
"a.	c #3C3F39",
"b.	c #545453",
"c.	c #4C4443",
"d.	c #433C3C",
"e.	c #C49DA2",
"f.	c #DCB4B9",
"g.	c #EBBDC1",
"h.	c #F9C4CC",
"i.	c #F4C4CA",
"j.	c #EBC2C4",
"k.	c #DBB9B7",
"l.	c #94777A",
"m.	c #4A3D3C",
"n.	c #08120C",
"o.	c #251917",
"p.	c #7A6967",
"q.	c #A89596",
"r.	c #5B5454",
"s.	c #9C8284",
"t.	c #1C1A16",
"u.	c #38591D",
"v.	c #477123",
"w.	c #35542B",
"x.	c #57823B",
"y.	c #264716",
"z.	c #526449",
"A.	c #18241B",
"B.	c #1E2723",
"C.	c #332D2A",
"D.	c #34322D",
"E.	c #1C1B1A",
"F.	c #534D4C",
"G.	c #D4B2B4",
"H.	c #FCCCD2",
"I.	c #E9BBBE",
"J.	c #EAB6BC",
"K.	c #E5BBBC",
"L.	c #F0B9BE",
"M.	c #F2BDC4",
"N.	c #EDC5C9",
"O.	c #E5C6C8",
"P.	c #BC9CA1",
"Q.	c #746464",
"R.	c #BD9B9E",
"S.	c #B98E95",
"T.	c #D6B7B9",
"U.	c #F3C9CD",
"V.	c #7B6464",
"W.	c #19110E",
"X.	c #36472B",
"Y.	c #3E691C",
"Z.	c #173406",
"`.	c #436431",
" +	c #2F5023",
".+	c #3C5A2A",
"++	c #525650",
"@+	c #141313",
"#+	c #43322F",
"$+	c #645354",
"%+	c #6A5454",
"&+	c #23221E",
"*+	c #4A3937",
"=+	c #B38D92",
"-+	c #E5C2C1",
";+	c #E5BDC1",
">+	c #CBABAC",
",+	c #231E1D",
"'+	c #AB8D91",
")+	c #E3B3B6",
"!+	c #E4C0BE",
"~+	c #826B6D",
"{+	c #2A341F",
"]+	c #5B8334",
"^+	c #2C4B22",
"/+	c #2B4C14",
"(+	c #2F4C1B",
"_+	c #745D5D",
":+	c #DCB4B6",
"<+	c #CEAEB2",
"[+	c #8B7475",
"}+	c #E8B1B7",
"|+	c #E4B6B9",
"1+	c #B59599",
"2+	c #DEC1BE",
"3+	c #3A312B",
"4+	c #3F6929",
"5+	c #2E4A19",
"6+	c #4D4B4A",
"7+	c #F9C9CE",
"8+	c #F7BAC4",
"9+	c #AC9394",
"0+	c #D6B9B9",
"a+	c #ECBBC6",
"b+	c #C5A4A9",
"c+	c #CBA2A5",
"d+	c #2A4515",
"e+	c #2A2925",
"f+	c #997C7D",
"g+	c #BDA1A3",
"h+	c #F5CDD2",
"i+	c #A6858A",
"j+	c #495149",
"k+	c #37571A",
"l+	c #5C5B5A",
"m+	c #534544",
"n+	c #63524D",
"o+	c #866668",
"p+	c #856E71",
"q+	c #B6888B",
"r+	c #D4AAAD",
"s+	c #D7A6AC",
"t+	c #5A4947",
"u+	c #4A4A46",
"v+	c #645C5B",
"w+	c #37501F",
"x+	c #2B411F",
"y+	c #010906",
"z+	c #DDBCBC",
"A+	c #2B2424",
"B+	c #010101",
"C+	c #233317",
"D+	c #3D5921",
"E+	c #1D3C0B",
"F+	c #3B572B",
"G+	c #1F390F",
"H+	c #0C1804",
"I+	c #EECACB",
"J+	c #F2C2C6",
"K+	c #DBADB2",
"L+	c #3C3C3B",
"M+	c #C3A3A5",
"N+	c #444342",
"O+	c #555857",
"P+	c #120C0C",
"Q+	c #2A4615",
"R+	c #526D35",
"S+	c #5D8343",
"T+	c #53753B",
"U+	c #264113",
"V+	c #0E1D04",
"W+	c #AC8A8C",
"X+	c #D0B1AF",
"Y+	c #311917",
"Z+	c #D4AEB2",
"`+	c #63605F",
" @	c #577940",
".@	c #5A7C42",
"+@	c #233913",
"@@	c #636562",
"#@	c #332625",
"$@	c #654C4C",
"%@	c #544845",
"&@	c #516D35",
"*@	c #5B832C",
"=@	c #26490B",
"-@	c #2F4A1A",
";@	c #2F471D",
">@	c #394836",
",@	c #505B4D",
"'@	c #353025",
")@	c #353A39",
"!@	c #597D3B",
"~@	c #39571E",
"{@	c #2D510C",
"]@	c #517625",
"^@	c #4B6435",
"/@	c #2F3032",
"(@	c #E1AEB4",
"_@	c #C39B9F",
":@	c #44413E",
"<@	c #66913C",
"[@	c #426916",
"}@	c #67924A",
"|@	c #5C8142",
"1@	c #2C4B19",
"2@	c #32521A",
"3@	c #426B28",
"4@	c #4E534E",
"5@	c #84716D",
"6@	c #A58584",
"7@	c #CCA6AA",
"8@	c #A4898C",
"9@	c #332B26",
"0@	c #8B7976",
"a@	c #3F5B29",
"b@	c #203C13",
"c@	c #224010",
"d@	c #213713",
"e@	c #31392A",
"f@	c #7A7B78",
"g@	c #3E5730",
"h@	c #426823",
"i@	c #2C441A",
"j@	c #664E51",
"k@	c #090204",
"l@	c #3B312E",
"m@	c #3C3226",
"n@	c #23400B",
"o@	c #527541",
"p@	c #223514",
"q@	c #2F3530",
"r@	c #2A3E1E",
"s@	c #354626",
"t@	c #3D502C",
"u@	c #283620",
"v@	c #444D47",
"w@	c #494E47",
"x@	c #3C4A3C",
"y@	c #3D473F",
"z@	c #3B2C2C",
"A@	c #C6898D",
"B@	c #D4949F",
"C@	c #DA929D",
"D@	c #D48A95",
"E@	c #CB8C95",
"F@	c #A47C7D",
"G@	c #785858",
"H@	c #233C11",
"I@	c #557B3A",
"J@	c #2A4818",
"K@	c #142409",
"L@	c #4C5552",
"M@	c #0A0B0A",
"N@	c #927575",
"O@	c #E89AA8",
"P@	c #BB858B",
"Q@	c #C2908F",
"R@	c #234803",
"S@	c #305019",
"T@	c #162809",
"U@	c #353C38",
"V@	c #9E7F82",
"W@	c #8B6D71",
"X@	c #DBBBC1",
"Y@	c #A26E72",
"Z@	c #C79398",
"`@	c #3E5B2A",
" #	c #3B6221",
".#	c #264111",
"+#	c #25251D",
"@#	c #3C3A36",
"##	c #C6ACAC",
"$#	c #10110E",
"%#	c #35241E",
"&#	c #B47D84",
"*#	c #446622",
"=#	c #5B833B",
"-#	c #3C6029",
";#	c #344A22",
">#	c #544748",
",#	c #9B8787",
"'#	c #6C5955",
")#	c #603E3F",
"!#	c #DF9BA6",
"~#	c #426629",
"{#	c #406029",
"]#	c #192C0E",
"^#	c #947B7D",
"/#	c #98817E",
"(#	c #746B69",
"_#	c #413835",
":#	c #946B6E",
"<#	c #333432",
"[#	c #3A5A22",
"}#	c #496C2B",
"|#	c #2E4618",
"1#	c #494749",
"2#	c #775D61",
"3#	c #353F37",
"4#	c #294415",
"5#	c #224405",
"6#	c #2E501B",
"7#	c #344A21",
"8#	c #F7D1D6",
"9#	c #CAB2B3",
"0#	c #835F61",
"a#	c #1E3510",
"b#	c #2D471A",
"c#	c #CA9BA3",
"d#	c #8D7A7B",
"e#	c #060608",
"f#	c #325519",
"g#	c #35551B",
"h#	c #282E24",
"i#	c #122108",
"j#	c #406324",
"k#	c #4B7724",
"l#	c #3B5728",
"m#	c #618A39",
"n#	c #B39395",
"o#	c #FEC6D3",
"p#	c #6C5D5C",
"q#	c #405F25",
"r#	c #54783C",
"s#	c #39551F",
"t#	c #496E23",
"u#	c #2C3D26",
"v#	c #2F481D",
"w#	c #2D4C12",
"x#	c #333E31",
"y#	c #5C4D51",
"z#	c #3C5925",
"A#	c #3F6421",
"B#	c #355928",
"C#	c #B69899",
"D#	c #BD979B",
"E#	c #343A36",
"F#	c #293C1B",
"G#	c #494948",
"H#	c #4B721C",
"I#	c #3C423F",
"J#	c #324727",
"K#	c #547A3A",
"L#	c #4B6C3A",
"M#	c #1C3D04",
"N#	c #304F1B",
"O#	c #212E18",
"P#	c #43682A",
"Q#	c #61863B",
"R#	c #7C7C7A",
"S#	c #37541E",
"T#	c #263C1A",
"U#	c #253623",
"V#	c #3F6223",
"W#	c #3E433A",
"X#	c #4B5046",
"Y#	c #44642E",
"Z#	c #526E35",
"`#	c #3D5B27",
" $	c #3D5631",
".$	c #472A2E",
"+$	c #5A685A",
"@$	c #456439",
"#$	c #50772A",
"$$	c #4F5349",
"%$	c #405C25",
"&$	c #485C38",
"*$	c #182E0D",
"=$	c #1C221D",
"-$	c #605D56",
";$	c #3A5E21",
">$	c #2E471A",
",$	c #3B4038",
"'$	c #2C4A18",
")$	c #2A4B14",
"!$	c #373A2E",
"~$	c #0D1312",
"{$	c #F0B7BE",
"]$	c #36561B",
"^$	c #395B26",
"/$	c #1C340F",
"($	c #234511",
"_$	c #516E3B",
":$	c #2A4617",
"<$	c #4D712E",
"[$	c #1C0D10",
"}$	c #2F4819",
"|$	c #50634A",
"1$	c #233E10",
"2$	c #3A5B1D",
"3$	c #3A5B23",
"4$	c #456831",
"5$	c #34581A",
"6$	c #638B3D",
"7$	c #303F1F",
"8$	c #435049",
"9$	c #405235",
"0$	c #314328",
"a$	c #2B4917",
"b$	c #3E6623",
"c$	c #264511",
"d$	c #294617",
"e$	c #567931",
"f$	c #505A4A",
"g$	c #BAA6A8",
"h$	c #505C4C",
"i$	c #35591B",
"j$	c #284714",
"k$	c #374D28",
"l$	c #4A4E47",
"m$	c #1E390E",
"n$	c #3E5B22",
"o$	c #47692E",
"p$	c #45622C",
"q$	c #315318",
"r$	c #2B3F18",
"s$	c #1D3010",
"t$	c #32531A",
"u$	c #5A5951",
"v$	c #7A736D",
"w$	c #454E38",
"x$	c #5A822C",
"y$	c #6D963A",
"z$	c #527B25",
"A$	c #284510",
"B$	c #464A41",
"C$	c #525049",
"D$	c #3C5A26",
"E$	c #304B1C",
"F$	c #436522",
"G$	c #6A9337",
"H$	c #3A5222",
"I$	c #6C6564",
"J$	c #293C20",
"K$	c #3F6022",
"L$	c #3D463D",
"M$	c #6D5E61",
"N$	c #827272",
"O$	c #4A5442",
"P$	c #3B5B1C",
"Q$	c #476830",
"R$	c #44533D",
"S$	c #161A14",
"T$	c #45632B",
"U$	c #5D882F",
"V$	c #365122",
"W$	c #415C29",
"X$	c #475C39",
"Y$	c #484F42",
"Z$	c #41463D",
"`$	c #45622B",
" %	c #23420C",
".%	c #324125",
"+%	c #454C42",
"@%	c #325018",
"#%	c #294B0E",
"$%	c #4B712B",
"%%	c #456632",
"&%	c #3B6023",
"*%	c #2A4C0C",
"=%	c #577A3E",
"-%	c #3E5D27",
";%	c #163903",
">%	c #294017",
",%	c #3A4634",
"'%	c #53584F",
")%	c #335219",
"!%	c #38561E",
"~%	c #467735",
"{%	c #709641",
"]%	c #4B740E",
"^%	c #253E19",
"/%	c #3B443D",
"(%	c #2B441B",
"_%	c #466F21",
":%	c #345721",
"<%	c #294521",
"[%	c #3C6122",
"}%	c #274115",
"  . +   @ # $ % & * = = - ; >   ,   + . ' & ) ' ! ~ { ] ^ % / ( ( _ : < [ } | } 1 2 3 4 5 6 7 8 9 0 a b c d e f g h i j < j ~ k ",
"l m n o ' { ! p q .   ] r r ]   g ' s ' ' t ' u v w / x y p % j z A z B C z C : D E F G H I F J K L M N M O I P G Q R S T U ; u ",
"~ V W t X V Y Z   `  .  ..U +.l C + V @.. o #.) & @.$.%.V &.C & } } *.| % =.-.;.>.P ,.'.'.).!.~.{.].^./.(._.M {.:.<.[.I }.|.^ @ ",
"p 1.) ~ V n 1.q s 2.~ &.3.4.Y # v 5.o & > V X $ l q l p 5.` 6.7.8.9.0.a.b.c.d.(.e.f.g.g.h.i.j.k.e.l.m.n.o.p.q.r.).f.s.P t.}.u.C ",
"C ]  .# o +.V v.{ 2.j X w.% m w l u   { 2.p r C { ' - x.> y.z.G A.B.C.D.E.F.G.H.I.g.g.J.K.K.K.L.M.N.O.P.Q.~.P R.S.T.U.g.V.W.X.2.",
"# , > ; # > Y.& & | j - Z.B Y @ ' p ] > C ^ y `.+. +] { .+++@+#+$+'.%+).C.&+*+=+j.K.J.-+K.I.J.I.;+;+I.M.H.>+/.,+'+-+)+I.!+~+{+( ",
"~ s . * v . ]+l l ' ~ r ^+A /+: r ^ ]+  /+  X - , 3.  (+R t._+:+h.i.i.N.<+[+].M =+j.g.L.I.J.I.I.}+M.|+K.:+h.|+C.[.1+H.J.U.2+3+@ ",
"' & q , U s +.4+~ U U _ U | r p % = { %., q #.; u / 5+{.6+P N.7+j.;+K.K.8+h.9+{.#+0+j.K.L.I.!+!+a+|+I.K.M.k.-+b+E.*+>+)+c+_+C.- ",
"= 3.~ ; ~ s +.# # ~ * v % % A B ] > > ' ~ . &.p x.d+@+6+G e+Q.Q.f+g+0+-+I.)+h+V.n.l.i.I.!+I.I.L.I.|+j.K.I.I.K.U.i+n.^.*+C.<.j+B ",
"- l U +.# v.. ~ 2.C ~ p U /+3._ C l { # # . u C k+J l+e+o.m+n+o+p+q+r+K.K.I.M.s+M t+-+I.|+!+I.K.K.K.|+K.J.I.j.)+N.u+<.v+E J w+| ",
"] A   > s x.$.  `.r U < r B j /+| 2.r ; Y.u } x+y+b.e+_+>+K.h+j.7+J.M.M.z+K.|+h.6+A+G.M.I.!+K.M.I.!+-+j.I.J.|+j.h.'+d.6+B+C+D+/+",
"p E+~ u m t q { C C 4.} : } | < ( ( U $ q F+G+H+H 6+$+I+J+g.)+I.)+I.K.)+j.z+j.K+L+#+T.g.K.K.K.j.K.I.|+)+I.j.!+M+b+f.N+O+P+Q+R+= ",
"| *._ ;   Y.S+/ % j j _ %.} T+} | B u Y $ B U+V+:.t+o+i.)+J.K.|+-+!+-+I.}+J.h+W+].p+;+a+K.I.I.I.K.J+I.I.I.I.X+Y+o.Z+`+6+,+ @4.p ",
"C p u , / o w ' p .@p /+z ....B < : l &.- < | +@L @@P g+U.U.i.j.M.g.K.I.h.U.1+#@).K+j.I.K.M.I.I.J.J.|+I.I.I.z+$@%@z+l.d.C.&@A - ",
"] = Y # *@= p r u ; =@r B % | U 3.Y &.> p C | -@;@>@,@'@).l.S.>+K+;+f.Z+P.Q.,+<.e.i.|+I.K.K.K.I.I.I.!+J+j.g.!+!+k.h+1+d.)@- } r ",
"u W * > o ]+r < , !@= * } < | } ~@{@]@p ( 3./+%.~ &.> ^@/@M ~.M D.<.P #@t.~.%+b+M.K.K.i.M.K.I.J.j.j.k.r+s+(@)+i.h.J+_@:@O+$ 3.% ",
"p p ; 4.* <@[@  Y.}@t +.|@l 1@2@% 3.; /+3.% *.y W !@~ 3@J 4@I f+5@V._+o+6@7@I.i.I.J.K.8@R.g.g.g.8@!.9@&+e+e+d.$+0@s+:+c.}.a@^ < ",
"=@| b@/+o * !@Z l l s . c@d@e@f@g@* : % } %.p o q ~ h@i@M t.j@H.N.N.N.U.i.J+g.I.k.M.P.k@C.;+g.p.y+o.l@m+$@n+!.m@&+#@v+@@d.n@r o@",
"| B } j = ' x.* ~ w @.^ p@G @@`+q@r@s@t@u@v@Q w@x@y@z@<.E o.r+M.}+}+I.I.K.J.I.I.K.a+G.n+p+7+P.{.!.A@B@B@C@D@D@E@F@G@,+4@e+H@=@o@",
"/+U U r * m * I@.@; } J@K@l+L+F.L@Q )@)@K A+G I A+J M J M@N@U.k.!+!+I.|+z+K.!+!+g.K.j.J+8+h.[+n.5@O@G@*+P@Q@A@Q@C@B@o+l@N+H@R@> ",
"x ~ l ] s . & ~ { ' S@T@U@u+d.^.#@<._.0@V@i+W@V.p.'.c.A+_+j.I.!+L.I.I.!+I.!+I.K.8+K.X@K.}+J+~+M Y@D@!.#+A@D@A@n+$@Z@i+z@v+`@Y X ",
". - l . / s x.   #.#+#c.@#&+Q.z@o+N.h+i.>+9+f+N@##H.N.T.j.I.I.}+!+I.I.J.I.I.L.I.I.K.;+!+K.h.8@$#_+C@Z@P@D@E@q+#+%#Z@&#<.v+*#=#~ ",
"4.U I@+.Y.v -#;#O >#t+m+5@!.,#l.z@P.<+o+'#'#p.`+)#F@K.J.I.I.|+J+I.I.I.L.I.I.I.I.0+K.K.j.I.I.G.P t.o+E@C@D@A@Q@A@P@!#F@C.}.~#l C ",
"^+  X I@4+{#]#)@b.>#^#0+I+/./#U.(#<.t+V@)+8+8+!+r+%@##M.I.I.I.!+I.I.I.!+I.!+I.I.L.g.;+J.I.K.N.Z@<.W._#o+/#A@A@D@&#:#%#:@<#[#4.% ",
"p F+~ U }#|#1#F.'#>+7+|+j.2#$@h+i.s._+V.m+n+5@>+h+N@q+N.K.I.I.I.I.I.I.I.I.I.I.I.I.I.I.I.I.I.I.J+<+_+~.P+@+^.M M ,+P+N+3#4#5#A U ",
"  p ; 6#7#r.c.(.j.j.K.K.N.M+#@p.O.8#h.O.9#R.J.h.>+0#c+!+!+)+!+I.I.I.K.I.I.I.I.I.K.K.J+)+j.I.|+g.M.i.>+6@2#t+%+m+~.r.F a#- p * I@",
"q =#/ b#1#c.p+O.8+}+I.I.|+j.9+P %@N@9+7@|+j.c#d#G@c+U.K.K.I.j.|+I.I.K.I.!+K.I.I.I.j.|+!+I.I.I.K.J.I.i.!+i.J+i.!+u+`+e#f#I@S+l l ",
"m q g#h#r.%+j.g.I.!+I.K.I.J.N.G.A+_#m+/.%+:@2#i+j.g.K.I.K.I.I.!+I.I.I.I.I.I.I.I.I.I.)+K+j.K.j.K.J.K.K.K.:+g.:+!+v+:@i#j#~ = ^ , ",
"q k#B+`+*+b+J+)+z+-+I.J.I.I.J.h.).(#O.T.0+V.d#0+e.j.|+K.K.I.|+g.I.I.I.I.I.I.I.I.!+I.I.c+:+!+K.!+j.;+|+j.I.g.I.|+$+L+l#; ; /+~ @.",
"q m#)@c.~+h+)+j.j.I.J.K.N.|+I.8+n#e+Z+8+o#=+F ,.Z@i.I.i.)+I.g.)+I.I.I.;+I.I.I.I.I.I.I.|+Z@|+L.I.|+K.I.G.g.J.M.L.p#c.q#~@U | x @.",
"V r#}.*+z+a+I.|+K.J.I.j.:+!+j.!+N.!.#+O.^#A._.J.j.)+j.)+I.I.I.g.I.K.I.K.K.I.I.K.!+J.!+!+>+S.j.K.L.i.K+q+|+j.;+|+v+F.s#} C [ 2.; ",
"t#u#<.~+N.J.K.;+I.I.I.!+I.I.L.|+g.f.C.v+A+_.U.K.K.I.K.I.-+I.K.I.I.;+I.I.I.I.I.I.I.I.I.!+j.q+c+j.K.-+6@6@I+|+K.K.>#6+v#B [ | r &.",
"B+L+*+c+i.:+!+I.I.K.K.I.K.I.I.I.J.N.7@#@m.K.N.J.I.I.K.I.;+K.I.I.I.I.I.I.I.I.I.I.I.I.!+K.J+b+l.i.K.N.`+_@j.z+g.s+N+N+w#B 3.- I@' ",
"O N+t+j.}+j.|+I.a+|+I.I.I.I.I.K.K.j.8@&+g+i.:+I.I.I.I.I.K.I.I.I.I.I.I.I.K.I.;+K.g.I.-+I.J.k.V.7@8+7@/.K+g.I.M._@N+x#] %.% = : y ",
"L+L+d#U.|+!+I.I.I.I.I.I.I.I.I.K.I.I.e+y#h.K.!+I.I.I.K.I.I.g.I.I.I.K.;+I.I.I.I.I.I.I.I.I.J.-+%+l.H./#!.|+|+I.8+^#u+z#U _ [ j : C ",
"b.z@M+J+J.K.J+I.I.I.I.K.I.I.K.K.i.f+{.R.J+|+I.K.I.I.a+K.I.K.I.I.I.I.I.I.K.I.I.I.|+j.K.I.I.g.(.t+j._.Q.i.;+J.h.'#6+A#u .@< B I@/+",
"O+P f.j.I.I.I.I.K.I.I.K.I.I.I.I.j.m.:@j.J.!+K.I.I.I.I.I.I.K.;+I.I.;+I.I.;+I.I.I.|+j.I.I.I.j.,#9@n#!.1+U.k.J.;+6+u+B#& p r *.B } ",
"L@m+a+K.K.!+|+!+I.I.I.I.I.K.K.j.7@~.(#h.)+!+L.j.I.I.I.K.I.I.K.I.I.K.I.I.I.I.I.I.I.I.I.I.)+i.C#~.V.%@Z+a+:+h.D#N+E#= U A j B _ < ",
"4@%+i.K.K.K.I.g.I.I.K.I.I.I.K.i./#].P.M.K.K.g.;+I.I.I.I.I.I.;+K.I.I.I.K.I.I.I.K.g.I.I.;+|+J+7@D.l@p#a+K.!+h._+L+F#Y @ ] I@( - #.",
"E 2#i.g.|+j.K.K.K.g.K.I.I.|+K.i.p#A+f.M.K.K.z+a+I.;+K.I.I.I.I.I.I.I.I.I.I.I.I.;+I.I.K.I.-+J.)+@#{.d#h.}+g.K+l@G#H#l { { p p C X ",
"I#p.h.I.|+K.g.I.I.I.g.K.I.I.I.J+N+_#M.J.z+j.z+I.I.I.I.I.I.I.I.I.I.;+I.I.K.I.I.K.K.-+K.I.!+J.g.c.~._@j.|+a+^#F.J#K#> x.L#M#~@w ]+",
"F.2#H.}+I.-+K.a+I.K.I.K.I.I.I.I.@#).i.J.I.I.I.I.I.I.I.I.I.K.I.I.I.K.I.I.I.I.I.I.I.I.a+;+K.I.i.m+D.|+K.j.G.).F.N#l l ^ | = = @ / ",
"6+>#O.M.K.|+I.K.I.K.I.I.a+I.K.I.l@(#h.J.!+I.!+I.I.I.K.I.I.K.;+I.I.I.I.I.I.I.I.I.I.I.K.I.|+I.N.>#!.i.J.N.W@b.O#P#' - /+# Q#; U ' ",
"4@C.R.M.J.!+j.J.I.K.g.K.I.K.J.j.P R#h.J.K.I.I.I.I.I.I.I.I.I.I.I.;+K.I.I.I.I.I.I.K.j.K.I.I.J.;+d.).J+K.b+t+O+S#s { u x 3./ y u 4.",
"T#N+n+N.)+I.K.g.I.I.I.I.I.K.K.i.!.Q.U.|+!+I.K.I.I.I.K.I.I.I.K.I.K.I.I.I.;+I.I.I.I.I.g.I.I.M.f.M p#8+U.p.F.U#V#W   B [ } *   j % ",
"% W#@#n#U.I.|+I.K.K.g.I.K.K.I.i.n+!.i.)+!+I.I.I.I.I.a+K.I.I.I.I.I.I.K.;+I.I.I.I.I.z+g.I.)+i.R.@+s.h.>+_#X#Y#S+m ' | r < _ Z#r _ ",
"A `#}.!.G.h.I.|+I.J.I.I.I.K.I.i.d##@:+K.!+I.I.K.g.K.I.I.I.I.I.I.I.I.I.K.K.I.I.K.I.I.I.I.|+N.V.M r+7+n+:@ $r x.. U C p j %.} Y B ",
"& !@L+&+$+s+J+-+I.K.I.I.I.I.K.j.g+o._@J+K.J.I.!+K.I.I.K.;+I.K.I.I.I.I.I.I.I.K.a+K.!+I.K.-+I..$I#U.c+D.+$U $ & # =@C *.M#( @$= p ",
"> #$)@l@).p#f+-+7+K.I.I.)+L.K.|+g.m.%+U.I.g.g.J.I.I.K.K.K.I.a+I.I.I.I.I.I.I.I.I.K.I.K.L.O.'#,+r.N.%+$$%$/+: b@} =@b@r ^ j U % Y ",
"o ; B._#^#<+o+j@[+##I+N.U.g.I.I.N.i+o.C#J+|+|+-+K.a+g.g.g.g.I.J.!+I.I.K.I.K.I.I.!+!+J+:+).~._.).p.).&$: : p < %.^ ^+3.j ~@^ %   ",
"]+= *$G %+8#j._@n+<.}.(#q.9#X@;+N.8#p#<.;+i.K.K.g.;+J.|+K.;+g.j.I.I.I.2+!+I.I.I.|+L.M+!.P e.^#=$).-$;$~ ~ l -   4.( *.B @ v 2.w ",
"V @.>$,$C.P.K.j.M.e.~+m.M e+I :@F.l+l+@+d.;+8+K.K.I.;+a+I.K.|+|+M.I.I.!+I.|+|+I.J+L.M+0@9#o#W+A.O+'$x p r x u I@; C M#' p U 3.)$",
"s > B !$I V.U.J.K.i.7+M.K+i+*+P+{.~$P+K =$#+c#O.j.I.K.K.I.I.I.K.:+K.J.{$8+i.-+2+K.I.M.N.I.i.^#D.@+]$< } | 3.U ' ; !@] t * = p ^$",
"p - j /$6+2#K.I.K.J.(@J.J+U.##m@L ^.L L+O+)@^.'.c+|+7+U.8+I.g.i.8#N.j.I.G.e._@r+g.I.K.|+L.J+'+c./@($p 3./+_$j ; ^ q * x.    q :$",
"' 3.U <$N+(#G.I.I.!+O.-+K.|+j.c##@[$E.1#}$u |$<.z@m+p.6@R.>+b+1+i+~+m+P '#9+)+{$I.|+!+!+J.8+g+r.N+1$2$r ~@*.3$4$u m . s , . ]+5$",
"- %.r 6$7$@@,#J+J.K.K.g.|+M.K.j.M+F 8$9${ @ p 0$E#E#D.E.E.&+^.E.n.@+m.8@K.N.I.!+I.J+J.I.z+!+0+$@1#a$b$= j /+c$^ 4+$.& 4+Y.. W ' ",
"d$U /+= e$f$(.K.I.K.I.I.I.M.|+-+g$d.h$i$$ p - @ | j$k$l$b.M @+I $@W+j.i.I.K.g.K.L.K.!+!+J.L.K.'#b.m$= %.w +.m ~   ~ Y.; U # ~ ; ",
"n$U ^ y =#o$Q.1+J+J.I.K.I.!+|+i.m.>#p$X X w ^ u ..<   q$r$1#:.N ##h+;+)+I.K.K.g.L.!+!+I.g.K.N.p.}.s$t$r U !@. 4+* q   ; ; ' U v ",
"- ^ U * !@' u$v$I.j.I.I.K.K.U.o+d.w$x$y$I@- z$@.C p : - | A$B$6+P ,#i.a+I.j.g.K.L.I.)+J.M.I.j.W+>#C$D$A ' 4.' @.W +.z$/ , ; % ~ ",
"U % /+u ; - E$(#N@X@g.g.j.I+6@#+u+F$&.[@v > G$v A /+L#| B u U H$O+6+2#f.g.|+I.K.L.!+!+!+J.I.I.g.p#I$J$^ ~ r {@o ]+q m 5.r @.; T+",
"S+' U , =@^ K$L$I$M$N$W@[+(#c.O$P$> p T+x l *@w r 3.r r ( A r ' Q$R$y#m.n#N.K.J.K.|+|+I.}+J+I.N.,#`+S$T$  ~ & U$m r !@Q#r p y I@",
"]@Y   ^ ; I@p V$W$X$Y$d.L+F.Z$`$+.V } C v =  .w % ; .@% % %.C ' }  %.%l+6+0@k.M.N.N.i.j.K.X+>+s.I$+%@%#%' x > *@# $%l } = - %.X ",
"*@o = U C p C C A B t$%%&%*%=%l @.]+U { W = x , p ' - /+M#: -%~@} %.;%>%,%'%).'.(.N$~+V.p#v+(#).E.)%= r  +U > / 4.!%T+j p : U = ",
"> y r A - I@  ~ A _ 3.' l l T+~%w z$o {%]%U 2.t # /+^ = r < 3.B z _ } F+| ^%E 4@r.`+v+O+b./%(%_%:%= , C <%% ~ 4.[%}%' ; p T+y u "};
