/* XPM */
static char * pig_l_4_xpm[] = {
"64 64 580 2",
"  	c #254016",
". 	c #3D6223",
"+ 	c #415F24",
"@ 	c #304E15",
"# 	c #3B5620",
"$ 	c #2C4A1C",
"% 	c #3D5D33",
"& 	c #395A23",
"* 	c #47652D",
"= 	c #384E27",
"- 	c #374832",
"; 	c #425A37",
"> 	c #3F5534",
", 	c #3A542E",
"' 	c #446030",
") 	c #42592F",
"! 	c #395224",
"~ 	c #334E22",
"{ 	c #456429",
"] 	c #597F3B",
"^ 	c #406224",
"/ 	c #223F0B",
"( 	c #46632B",
"_ 	c #395624",
": 	c #294615",
"< 	c #324E22",
"[ 	c #48662D",
"} 	c #415E2B",
"| 	c #2A461C",
"1 	c #547B33",
"2 	c #345423",
"3 	c #3A5C1D",
"4 	c #355B15",
"5 	c #4D7233",
"6 	c #3D6517",
"7 	c #355A1B",
"8 	c #426717",
"9 	c #3F6824",
"0 	c #46702A",
"a 	c #3E6917",
"b 	c #446B24",
"c 	c #3C631D",
"d 	c #4C732C",
"e 	c #416424",
"f 	c #325415",
"g 	c #4A6D2C",
"h 	c #527533",
"i 	c #41641E",
"j 	c #3E622A",
"k 	c #264A13",
"l 	c #4B6D33",
"m 	c #43642B",
"n 	c #2E481F",
"o 	c #344327",
"p 	c #454B4A",
"q 	c #3D3E40",
"r 	c #333333",
"s 	c #423433",
"t 	c #2C2B2A",
"u 	c #151B19",
"v 	c #242423",
"w 	c #372E31",
"x 	c #191618",
"y 	c #2B2728",
"z 	c #262A26",
"A 	c #2C322C",
"B 	c #262B29",
"C 	c #3D4341",
"D 	c #3B5732",
"E 	c #2D4C1A",
"F 	c #223E0C",
"G 	c #314D1C",
"H 	c #23430C",
"I 	c #3B5C23",
"J 	c #2A4C0E",
"K 	c #2E511B",
"L 	c #466A32",
"M 	c #2E5114",
"N 	c #35601B",
"O 	c #4F7932",
"P 	c #33541B",
"Q 	c #4D792C",
"R 	c #537B2C",
"S 	c #46701E",
"T 	c #4B7325",
"U 	c #456A2B",
"V 	c #2C411F",
"W 	c #52514F",
"X 	c #100806",
"Y 	c #3B3433",
"Z 	c #413F40",
"` 	c #151915",
" .	c #635A56",
"..	c #7D6A6B",
"+.	c #5B4544",
"@.	c #241E22",
"#.	c #1B1514",
"$.	c #29221E",
"%.	c #4A423D",
"&.	c #5B4B4B",
"*.	c #6E5659",
"=.	c #513D3E",
"-.	c #2C3124",
";.	c #4B6730",
">.	c #43612B",
",.	c #314C20",
"'.	c #28460E",
").	c #51762C",
"!.	c #568132",
"~.	c #254313",
"{.	c #436A1D",
"].	c #4E7339",
"^.	c #385C16",
"/.	c #4D7925",
"(.	c #496633",
"_.	c #32590F",
":.	c #1E4107",
"<.	c #5F893D",
"[.	c #496D25",
"}.	c #597D33",
"|.	c #57822B",
"1.	c #38591D",
"2.	c #1C1A16",
"3.	c #9C8284",
"4.	c #DCB4B9",
"5.	c #5B5454",
"6.	c #A89596",
"7.	c #7A6967",
"8.	c #251917",
"9.	c #08120C",
"0.	c #4A3D3C",
"a.	c #94777A",
"b.	c #C49DA2",
"c.	c #DBB9B7",
"d.	c #EBC2C4",
"e.	c #F4C4CA",
"f.	c #F9C4CC",
"g.	c #EBBDC1",
"h.	c #433C3C",
"i.	c #4C4443",
"j.	c #545453",
"k.	c #3C3F39",
"l.	c #2D3727",
"m.	c #38402B",
"n.	c #364533",
"o.	c #40532D",
"p.	c #416827",
"q.	c #597F2D",
"r.	c #365A22",
"s.	c #3D5C2A",
"t.	c #365B29",
"u.	c #5E8A36",
"v.	c #36472B",
"w.	c #19110E",
"x.	c #7B6464",
"y.	c #F3C9CD",
"z.	c #D6B7B9",
"A.	c #B98E95",
"B.	c #BD9B9E",
"C.	c #746464",
"D.	c #BC9CA1",
"E.	c #E5C6C8",
"F.	c #EDC5C9",
"G.	c #F2BDC4",
"H.	c #F0B9BE",
"I.	c #E5BBBC",
"J.	c #EAB6BC",
"K.	c #E9BBBE",
"L.	c #FCCCD2",
"M.	c #D4B2B4",
"N.	c #534D4C",
"O.	c #1C1B1A",
"P.	c #34322D",
"Q.	c #332D2A",
"R.	c #1E2723",
"S.	c #18241B",
"T.	c #526449",
"U.	c #264716",
"V.	c #57823B",
"W.	c #35542B",
"X.	c #477123",
"Y.	c #2A341F",
"Z.	c #826B6D",
"`.	c #E4C0BE",
" +	c #E3B3B6",
".+	c #E5C2C1",
"++	c #AB8D91",
"@+	c #231E1D",
"#+	c #CBABAC",
"$+	c #E5BDC1",
"%+	c #B38D92",
"&+	c #4A3937",
"*+	c #23221E",
"=+	c #6A5454",
"-+	c #645354",
";+	c #43322F",
">+	c #141313",
",+	c #525650",
"'+	c #3C5A2A",
")+	c #2F5023",
"!+	c #436431",
"~+	c #173406",
"{+	c #3E691C",
"]+	c #3A312B",
"^+	c #DEC1BE",
"/+	c #B59599",
"(+	c #E4B6B9",
"_+	c #DCB4B6",
":+	c #E8B1B7",
"<+	c #8B7475",
"[+	c #CEAEB2",
"}+	c #745D5D",
"|+	c #2F4C1B",
"1+	c #2B4C14",
"2+	c #5B8334",
"3+	c #2C4B22",
"4+	c #CBA2A5",
"5+	c #C5A4A9",
"6+	c #ECBBC6",
"7+	c #D6B9B9",
"8+	c #AC9394",
"9+	c #F7BAC4",
"0+	c #F9C9CE",
"a+	c #4D4B4A",
"b+	c #2E4A19",
"c+	c #3F6929",
"d+	c #495149",
"e+	c #A6858A",
"f+	c #F5CDD2",
"g+	c #BDA1A3",
"h+	c #997C7D",
"i+	c #2A2925",
"j+	c #2A4515",
"k+	c #37501F",
"l+	c #645C5B",
"m+	c #4A4A46",
"n+	c #5A4947",
"o+	c #D7A6AC",
"p+	c #D4AAAD",
"q+	c #B6888B",
"r+	c #856E71",
"s+	c #866668",
"t+	c #63524D",
"u+	c #534544",
"v+	c #5C5B5A",
"w+	c #37571A",
"x+	c #3D5921",
"y+	c #233317",
"z+	c #010101",
"A+	c #2B2424",
"B+	c #DDBCBC",
"C+	c #010906",
"D+	c #2B411F",
"E+	c #526D35",
"F+	c #2A4615",
"G+	c #120C0C",
"H+	c #555857",
"I+	c #444342",
"J+	c #C3A3A5",
"K+	c #3C3C3B",
"L+	c #DBADB2",
"M+	c #F2C2C6",
"N+	c #EECACB",
"O+	c #0C1804",
"P+	c #1F390F",
"Q+	c #3B572B",
"R+	c #1D3C0B",
"S+	c #577940",
"T+	c #63605F",
"U+	c #D4AEB2",
"V+	c #311917",
"W+	c #D0B1AF",
"X+	c #AC8A8C",
"Y+	c #0E1D04",
"Z+	c #264113",
"`+	c #53753B",
" @	c #5D8343",
".@	c #516D35",
"+@	c #544845",
"@@	c #654C4C",
"#@	c #332625",
"$@	c #636562",
"%@	c #233913",
"&@	c #5A7C42",
"*@	c #353A39",
"=@	c #353025",
"-@	c #505B4D",
";@	c #394836",
">@	c #2F471D",
",@	c #2F4A1A",
"'@	c #26490B",
")@	c #5B832C",
"!@	c #44413E",
"~@	c #C39B9F",
"{@	c #E1AEB4",
"]@	c #2F3032",
"^@	c #4B6435",
"/@	c #517625",
"(@	c #2D510C",
"_@	c #39571E",
":@	c #597D3B",
"<@	c #3F5B29",
"[@	c #8B7976",
"}@	c #332B26",
"|@	c #A4898C",
"1@	c #CCA6AA",
"2@	c #A58584",
"3@	c #84716D",
"4@	c #4E534E",
"5@	c #426B28",
"6@	c #32521A",
"7@	c #2C4B19",
"8@	c #5C8142",
"9@	c #67924A",
"0@	c #426916",
"a@	c #66913C",
"b@	c #527541",
"c@	c #23400B",
"d@	c #3C3226",
"e@	c #3B312E",
"f@	c #090204",
"g@	c #664E51",
"h@	c #2C441A",
"i@	c #426823",
"j@	c #3E5730",
"k@	c #7A7B78",
"l@	c #31392A",
"m@	c #213713",
"n@	c #224010",
"o@	c #203C13",
"p@	c #233C11",
"q@	c #785858",
"r@	c #A47C7D",
"s@	c #CB8C95",
"t@	c #D48A95",
"u@	c #DA929D",
"v@	c #D4949F",
"w@	c #C6898D",
"x@	c #3B2C2C",
"y@	c #3D473F",
"z@	c #3C4A3C",
"A@	c #494E47",
"B@	c #444D47",
"C@	c #283620",
"D@	c #3D502C",
"E@	c #354626",
"F@	c #2A3E1E",
"G@	c #2F3530",
"H@	c #223514",
"I@	c #234803",
"J@	c #C2908F",
"K@	c #BB858B",
"L@	c #E89AA8",
"M@	c #927575",
"N@	c #0A0B0A",
"O@	c #4C5552",
"P@	c #142409",
"Q@	c #2A4818",
"R@	c #557B3A",
"S@	c #3E5B2A",
"T@	c #C79398",
"U@	c #A26E72",
"V@	c #DBBBC1",
"W@	c #8B6D71",
"X@	c #9E7F82",
"Y@	c #353C38",
"Z@	c #162809",
"`@	c #305019",
" #	c #5B833B",
".#	c #446622",
"+#	c #B47D84",
"@#	c #35241E",
"##	c #10110E",
"$#	c #C6ACAC",
"%#	c #3C3A36",
"&#	c #25251D",
"*#	c #264111",
"=#	c #3B6221",
"-#	c #426629",
";#	c #DF9BA6",
">#	c #603E3F",
",#	c #6C5955",
"'#	c #9B8787",
")#	c #544748",
"!#	c #344A22",
"~#	c #3C6029",
"{#	c #3A5A22",
"]#	c #333432",
"^#	c #946B6E",
"/#	c #98817E",
"(#	c #413835",
"_#	c #746B69",
":#	c #947B7D",
"<#	c #192C0E",
"[#	c #406029",
"}#	c #224405",
"|#	c #294415",
"1#	c #353F37",
"2#	c #775D61",
"3#	c #494749",
"4#	c #2E4618",
"5#	c #496C2B",
"6#	c #1E3510",
"7#	c #835F61",
"8#	c #CAB2B3",
"9#	c #F7D1D6",
"0#	c #344A21",
"a#	c #2E501B",
"b#	c #325519",
"c#	c #060608",
"d#	c #8D7A7B",
"e#	c #CA9BA3",
"f#	c #2D471A",
"g#	c #406324",
"h#	c #122108",
"i#	c #282E24",
"j#	c #35551B",
"k#	c #3B5728",
"l#	c #4B7724",
"m#	c #405F25",
"n#	c #6C5D5C",
"o#	c #FEC6D3",
"p#	c #B39395",
"q#	c #618A39",
"r#	c #39551F",
"s#	c #54783C",
"t#	c #2F481D",
"u#	c #2C3D26",
"v#	c #496E23",
"w#	c #2D4C12",
"x#	c #333E31",
"y#	c #3C5925",
"z#	c #5C4D51",
"A#	c #3F6421",
"B#	c #355928",
"C#	c #343A36",
"D#	c #BD979B",
"E#	c #B69899",
"F#	c #293C1B",
"G#	c #4B721C",
"H#	c #494948",
"I#	c #1C3D04",
"J#	c #4B6C3A",
"K#	c #547A3A",
"L#	c #324727",
"M#	c #3C423F",
"N#	c #304F1B",
"O#	c #61863B",
"P#	c #43682A",
"Q#	c #212E18",
"R#	c #37541E",
"S#	c #7C7C7A",
"T#	c #3F6223",
"U#	c #253623",
"V#	c #263C1A",
"W#	c #526E35",
"X#	c #44642E",
"Y#	c #4B5046",
"Z#	c #3E433A",
"`#	c #3D5631",
" $	c #3D5B27",
".$	c #456439",
"+$	c #5A685A",
"@$	c #472A2E",
"#$	c #405C25",
"$$	c #4F5349",
"%$	c #50772A",
"&$	c #485C38",
"*$	c #3A5E21",
"=$	c #605D56",
"-$	c #1C221D",
";$	c #182E0D",
">$	c #2A4B14",
",$	c #2C4A18",
"'$	c #3B4038",
")$	c #2E471A",
"!$	c #395B26",
"~$	c #36561B",
"{$	c #F0B7BE",
"]$	c #0D1312",
"^$	c #373A2E",
"/$	c #2A4617",
"($	c #516E3B",
"_$	c #234511",
":$	c #1C340F",
"<$	c #34581A",
"[$	c #456831",
"}$	c #3A5B23",
"|$	c #3A5B1D",
"1$	c #233E10",
"2$	c #50634A",
"3$	c #2F4819",
"4$	c #1C0D10",
"5$	c #4D712E",
"6$	c #264511",
"7$	c #3E6623",
"8$	c #2B4917",
"9$	c #314328",
"0$	c #405235",
"a$	c #435049",
"b$	c #303F1F",
"c$	c #638B3D",
"d$	c #1E390E",
"e$	c #4A4E47",
"f$	c #374D28",
"g$	c #284714",
"h$	c #35591B",
"i$	c #505C4C",
"j$	c #BAA6A8",
"k$	c #505A4A",
"l$	c #567931",
"m$	c #294617",
"n$	c #32531A",
"o$	c #1D3010",
"p$	c #2B3F18",
"q$	c #315318",
"r$	c #45622C",
"s$	c #47692E",
"t$	c #3E5B22",
"u$	c #527B25",
"v$	c #3C5A26",
"w$	c #525049",
"x$	c #464A41",
"y$	c #284510",
"z$	c #6D963A",
"A$	c #5A822C",
"B$	c #454E38",
"C$	c #7A736D",
"D$	c #5A5951",
"E$	c #293C20",
"F$	c #6C6564",
"G$	c #3A5222",
"H$	c #6A9337",
"I$	c #436522",
"J$	c #304B1C",
"K$	c #5D882F",
"L$	c #45632B",
"M$	c #161A14",
"N$	c #44533D",
"O$	c #476830",
"P$	c #3B5B1C",
"Q$	c #4A5442",
"R$	c #827272",
"S$	c #6D5E61",
"T$	c #3D463D",
"U$	c #3F6022",
"V$	c #4B712B",
"W$	c #294B0E",
"X$	c #325018",
"Y$	c #454C42",
"Z$	c #324125",
"`$	c #23420C",
" %	c #45622B",
".%	c #41463D",
"+%	c #484F42",
"@%	c #475C39",
"#%	c #415C29",
"$%	c #365122",
"%%	c #38561E",
"&%	c #335219",
"*%	c #53584F",
"=%	c #3A4634",
"-%	c #294017",
";%	c #163903",
">%	c #3E5D27",
",%	c #577A3E",
"'%	c #2A4C0C",
")%	c #3B6023",
"!%	c #456632",
"~%	c #274115",
"{%	c #3C6122",
"]%	c #294521",
"^%	c #345721",
"/%	c #466F21",
"(%	c #2B441B",
"_%	c #3B443D",
":%	c #253E19",
"<%	c #4B740E",
"[%	c #709641",
"}%	c #467735",
"  . + @ + # $ % & * = - ; > , ' ) ! ~ { ] ^ / ( _ : _ < @ [ } | | 1 2 3 4 5 . 6 7 8 9 7 0 a b c b d e f g g h 9 2 i j k b a 0 b ",
"l e m n o p q r s t u v w v x y z A t B r A C D [ E F E G F H F + 2 I J K 1 L M l 7 N 7 7 O 7 % b 4 P P 4 b 0 Q I 6 5 7 R S T U ",
"k 3 V W t X Y Z ` v  ...+.@.#.` $.%.&.*.*.=.s -.;.>.,.2 : '._ _ 9 E ).!.~.{.].9 8 ^.R 0 ].!.a E U /.m (.b _.:.b <.[.!.}.N |.!.. ",
"E 1.W 2.s 3.4.&.5.6.7.8.9.0.a.b.c.d.e.f.g.g.4.b...h.i.j.k.l.m.n.o.p.:.q.I U Q U i }.!.d 9 R q.M j [.r.s.).. t.O Q u.S !.. 8 u.I ",
"t.v.w.x.g.y.z.A.B.s $.C.D.E.F.G.H.I.I.I.J.g.g.K.L.M.N.O.P.Q.R.S.r T.U.d V.f 7 5 E P I t.5 b l U L T 2 W.}.+ t.5 X.!./.R j _.4 E ",
"| Y.Z.`.K. +.+++@++.#+L.G.K.$+$+K.J.K.I..+J.I.d.%+&+*+Q.&.=+*.-+;+>+,+'+5 4 )+/.!+J 3 E d 4 I 7 k [.G ~+f + : 9 9 {+d j e d c j ",
"k ]+^+y.J.L./+X Q.(+f._+I.(+G.:+K.K.J.K.H.g.d.%+v #.<+[+F.e.e.f._+}+2.p |+b s.c f }.b 1+b 2+3 P [ 1+H 3+P . 7 U U 2+0 M h 0 O . ",
"f Q.}+4+ +#+&+O.5+.+c.G.I.K.(+6+`.`.K.H.I.d.7+;+` 8+f.9+I.I.$+d.0+F.s a+` b+1 l e ^.Q c ~.5 g 2 I P : m } m m . c+/.O m c Q 9 7 ",
"G d+Y Q.&+@.9.e+y.I.K.K.I.d.(+K.H.K.K.`.K.e.a.9.x.f+ +K..+7+g+h+C.C.i+r a+>+j+V.I ).0 . 7 d d 4 G H 2 2 M h . j j /.O . e . s.g ",
": k+z C l+Y m+F. +d.K.J.I.(+I.I.I.K.`.(+K..+n+v o+G.K.I.I.p+q+r+s+t+u+8.i+v+z w+E l 0 j j 5 U E } s.1+m I . E t.. 0 X.j /.m U f ",
"1+x+y+z+a+h.++f.d.(+J.K.d..+`.K.G.I.`.K.G.M.A+a+f.(+I.B+G.G.J.0+d.f+I.#+}+i+j.C+D+_ l {+e P t.: 1++ G P @ m P !+b {.V.O d b H 4 ",
"g E+F+G+H+I+4.5+J+`.d.K. +(+K.I.d.I.I.I.g.z.;+K+L+d.B+d. +I.K. +K. +g.M+N+-+a+B O+P+Q+Q i m | | @ : _ [ _ r.E E 5 Q N T l . R+I ",
"I r.S+@+a+T+U+8.V+W+K.K.K.K.M+I.K.K.K.I.6+$+r+#.X+f+J.:+K..+`..+(+I.J. +e.s+n+Z Y+Z+G i [.l G : _ `+_ ~.} + + 2 1  @{+b e } '.: ",
"f H .@Q.h.a.B++@@@B+K.K.K.(+J.J.K.K.G.I.K.d.L+&.#@/+y.f.K.I.g.G.d.e.y.y.g+s $@x %@: @ f ).U [ @ G (.(.F 1+I &@I 7 L R 1 c l I E ",
"P _ f *@h./+f+c.`.`.g.d.M+`.K.K.K.I.I.I.K.(+e.b.Y @+C.D.U+4.$+L+#+A.a.&.=@-@;@>@,@: E I d ).[.s.m : 2 G P '@e l P I g )@j [.g 4 ",
"2 s.i H+!@~@M+f.e. +{@o+p+c.d.d.J.K.I.G.e.I.I.G.5+=+$.2.#@s Y P.v $.v ]@^@d ).. ~.1+s.| I /@(@_@_ : @ _ h g :@c @ P 2+R d h |.l ",
"@ 3 <@W i._+o+[@-+h.i+i+*+}@%.|@g.g.g.B.|@I.J.K.e.K.1@2@s+}+x.3@h+t 4@z 5@. :@|.J '.2 s.1+e s.2 6@7@U 8@/.N 9@{+b 0@a@h r.e I I ",
"b@P c@h.$@l+#@*+d@%.t+@@u+e@8.C+7.g.$+Q.f@D.G.c.K.g.M+e.y.F.F.F.L.g@2.v h@i@. Q R I ~._ 2 [ h j@k@l@m@n@0 O U U <.:@h R 1+o@: '@",
"b@'@p@i+4@@+q@r@s@t@t@u@v@v@w@%.` D.0+r+t+M.6+I.K.K.J.I.K.K.:+:+G.p+8.C Y x@y@z@A@q B@C@D@E@F@G@T+$@r H@3 ].L . h V.7 g + _ G : ",
"d I@p@I+e@s+v@u@J@w@J@K@&+q@L@3@9.<+f.9+M+d.I.g.`.`.I.B+(+K.`.`.c.y.M@N@z v z A+t r A+y *@*@q O@N.K+v+P@Q@_ e &@R@h T h P m m 1+",
"}.[.S@l+x@e+T@@@t+w@t@w@;+%.t@U@v Z.M+:+I.V@I.9+I.K.`.K.`.K.K.H.`.K.d.}+A+i.*.7.x.W@e+X@[@ .Y #@@.h.m+Y@Z@`@7 5 . 9 0 O 4 U . K ",
".  #.#l+Y +#T@@#;+q+s@t@K@T@u@}+##|@f.I.`.$+I.K.K.H.K.K.J.K.K.`.:+K.K.d.z.F.L.$#M@h+8+#+e.f+F.s+x@C.*+%#i.&#*#=#b V.O 1 0 U f 0 ",
"E U -#W Q.r@;#K@w@J@w@t@u@s@s+2.s M.K.K.d.I.I.7+K.K.K.K.H.K.K.K.M+(+K.K.J.I.r@>#T+7.,#,#s+[+D.x@a.'#%.3@u+n+)#u !#~#M {+/.R@m r.",
"2 r.{#]#!@@#^#+#t@w@w@/#s+(#w.Y T@F.I.K.J.$+g.H.K.K.`.K.`.K.K.K.`.K.K.K.G.$#+@p+`.9+9+ +X@n+Y _#y./#+.N+7+:#)#j.*@<#[#c+R@}.b 3+",
"m H }#|#1#I+G+@+v v @.>+G+$.}+[+M+K.K.K.K.K.K.K.K.K.K.K.K.K.K.K.K.K.K.I.F.q+M@f+#+3@t+u+x.}+3.e.f+@@2#d.(+0+#+,#N.3#4#5#m . Q+I ",
"R@h I f 6#A 5.$.u+=+n+2#2@#+e.G.g.(+K.d. +M+I.I.K.K.K.K.K.I.K.K.K.`. +`.`.4+7##+f.J.B.8#E.f.9#E.7.#@J+F.I.I.d.d...i.5.0#a#e I b ",
"U U  @R@b#c#T+m+`.e.M+e.`.e.K.J.I.K.K.K.`.(+d.K.K.K.I.`.K.I.K.K.(+d.K.I.I.y.4+q@d#e#d.(+1@8+M@+@s 8+d.(+K.K.:+9+E.r+i.3#f#1  #Q ",
"c 3 g . g#h#!@l+`._+g._+I.I.I.J.I.d.I.d.L+ +K.K.K.K.K.K.K.K.K.K.`.K.K.I.K.I.g.d.e+2#!@=++.u+(#A+M.F.J.K.I.K.`.K.g.d.=+5.i#j#Q T ",
"].. 1+e e k#K+-+(+K.g.K.d.(+$+d.`.I.`._+4+K.K.`.K.K.K.K.K.K.K.K.g.(+K.I.I.(+d.b.7+d#x.7+z.E._#&.f.J.K.K.J.K..+B+ +M+5+&+T+z+l#Q ",
"].K : m _@m#i.n#H.G.J.g.M.K.I.(+K.H.(+T@(+K.K.K.K.K.K.K.$+K.K.K. +g.K. +e.K.e.T@=.A %+o#9+U+i+p#9+K.(+F.I.J.K.d.d. +f+Z.i.*@q#Q ",
"e t.< E _ r#N.l+(+$+d.(+q+L+e.H.I.d.A.#+`.`.J.`.I.K.K.I.I.K.I.K.g.K.K.K. +d. +d.J. .S.:#E.;+%.F.`.d.`._+d.K.J.I.(+K.6+B+&+W s#!.",
").P : < G t#a+)#I.I.(+N+2@2@.+I.d.4+q+d.`.K.K.K.K.K.K.K.K.K.$+K.K.I.K..+K.I.K.I.I.y. .A+l+Q.4.g.(+H.K.K.`.K.K.K.$+I.J.F.Z.Y u#v#",
"7 R@f s.G w#I+I+o+g.B+d.~@T+F.I.e.a.5+M+I.`.K.K.K.K.K.K.K.K.K.K.K.K.I.$+K.I.K.K.J.F.I.0.#@1@F.J.K.K.K.I.K.I.I.K.K.`._+e.4+&+K+z+",
"J [ g 2 ~.4 x#I+~@G.K.g.L++.1@9+1@x.c.J.K..+K.g.I.$+K.I.K.K.K.K.K.K.K.I.K.K.K.K.K._+e.g+*+|@d.I.I.K.K.K.K.K.(+6+K.(+d.:+d.n+I+u ",
"E [ + < } m y#m+:#9+K.(+(+%./#L.a.=+.+J.K.K.K.K.K.K.K.K.K.$+I.K.K.K.g.K.K.I.K.K.K.`.I.f.z#i+K.K.I.K.K.K.K.K.K.K.K.K.`.(+y.d#K+K+",
"1+R@G @ &@l A#a+,#f.J.$+e.C. .d.n+..g.K.K.I.d.(+K.K.K.I.K.K.K.K.K.K.I.K.I.6+K.K.I.K.(+M+B.` h+e.I.I.K.K.I.K.K.K.K.M+I.J.M+J+x@j.",
"_ G '.P I 9 B#m+a+$+J.c.y./+%.p#}@'#d.K.K.K.d.(+K.K.K.$+K.K.$+K.K.$+I.K.K.K.K.K.K.I.`.J.d.!@0.d.K.K.K.K.I.K.K.I.K.K.K.K.d.4.s H+",
"@ } G + H m g C#I+D#f._+6+U++@x.$.E#e. +K.K.K.K.K.K.K.K.K.K.I.K.K.I.K.K.I.K.K.K.d.H.`. +f._#$.1@d.I.I.K.K.K.K.K.`.(+`.I.I.6+u+O@",
"^.f | R@4 k [.F#K+}+f.`.I.6+n#e@P.1@M+(+$+K.K.g.I.K.K.K.I.K.K.K.I.$+K.K.K.K.K.K.$+g.I.I.G.D.#./#e.I.K.K.K.I.K.K.g.K.I.I.I.e.=+4@",
"}.E I I 5 5 U G#H#e@L+g.:+f.d#` %# +J..+K.I.K.K.$+K.K.K.K.K.K.K.K.K.K.K.K.I.$+K.6+B+I.I.G.4.A+n#e.I.(+K.K.I.g.I.I.I.d.(+g.e.2#C ",
"2+L _@I#J#V.d K#L#N.:#6+(+d.~@$.i.g.J.`.K.I..+I.I.K.K.I.K.K.$+K.K.K.K.K.K.K.K.K.K.B+d.B+J.G.(#I+M+K.K.K.I.g.K.K.K.g.I.(+K.f.7.M#",
"1 k g g : 3 U U N#N.&.M.d.I.(+P.u+e.K.I.$+6+K.K.K.K.K.K.K.K.I.K.K.K.I.K.K.K.K.K.K.K.K.K.J.e.&.%#K.K.K.K.I.K.I.K.6+I..+K.:+L.2#N.",
"7 m e O#j 1+f 7 P#Q#j.W@F.J.e.%.)#F.K.(+K.I.K.K.K.K.K.K.K.K.K.K.K.$+I.K.K.I.K.K.K.`.K.`.J.f._#e@K.I.K.6+K.K.I.K.I.K.(+I.G.E.)#a+",
"r.l J 1 s.K l 5 O R#H+n+5+I.M+&.h.$+J.K.K.I.d.I.K.K.K.K.K.K.I.$+K.K.K.K.K.K.K.K.K.K.K.I.J.f.S#s d.J.I.K.I.g.I.K.J.d.`.J.G.B.Q.4@",
"2 + b h _ < G b |.T#U#N.7.y.9+n#v 4.G.K.K.g.K.K.K.K.K.$+K.K.K.I.K.I.K.K.K.I.K.K.K.I.K.`.(+y.C.%.e.I.I.K.K.K.K.K.g.I.K. +F.t+I+V#",
"} P W#} @ P : 7 T  @X#Y#(##+f.3.>+B.e. +K.g.B+K.K.K.K.K.$+I.K.K.K.K.K.K.I.6+K.K.K.K.K.`. +e.%.t+e.K.I.I.K.g.I.I.K.(+K.y.p#%#Z#2 ",
"G [._ ~.+ I E m 0 V.P `#!@t+0+p+v x.F.(+K.K.K.K.I.K.K.I.I.K.K.K.K.K.K.K.K.K.I.g.I.K.K.`.I._+#@d#e.K.I.K.K.K.J.K.(+K.f.M.%.W  $H ",
"I g .$| I#'.E '@j 9 i m +$P.4+y.M#@$K..+I.K.`.I.6+I.K.K.K.K.K.K.K.I.K.$+I.K.K.I.`.K.J.I.M+~@8.g+d.I.K.K.K.K.I.K..+M+o+-+*+K+:@9 ",
"[.2 m + 3 P o@'@_ o@[ 1+#$$$=+F.5.@+,#E.H.I.K.I.K.K.K.K.K.K.K.K.K.6+K.I.I.I.K.K.J.g.g.K.y.=+0.g.(+I.H. +K.K.I.0+.+h+n#&.e@*@%$d ",
"b 2 3 _@+ s.3+3 ~.@ I [ [ &$&.7.&. .$.&._+M+`.`.K.K.I.K.I.K.K.`.J.K.g.g.g.g.6+I..+(+(+M+E#8.e+F.K.K.g.y.F.N+$#<+g@s+[+:#(#R.e R ",
"L t.M k G '.| r.b f U . . *$=$&.-$:#b.s %.J+H.(+K.K.K.`.^+K.K.K.d.g.$+I.(+J.$+g.I.I.e.$+Y n#9#F.$+V@8#6._#W Y t+~@d.9#=+r ;$g 2+",
">$s.m I 7 I#E e R@l K P I K ,$H+S.X+o#8#[@J+H.M+K.(+(+K.`.K.K.G.(+(+I.K.6+$+K.I.I.9+$+h.>+v+v+N.!@t i+v 0.Z.b.G.d.I.D.Q.'$)$].!.",
"!$I g h N 4 :@e 7 m s.: _ @ ~$>+P.:#e.K.F.G.K.I.^+.+e.9+{$J.I._+I.K.K.K.I.I.K.d.E.e#;+-$y G+]$` G+&+e+L+G.0+e.I.J.y.x.t ^$G d O ",
"/$Q b b V.h Q 3 e + ($1+s.I _$]@i.++M+H.(+I.K.g.p+~@b.M.K.d.F.9#e.g.K.9+y.0+(+4+*.@.*@H+K+x @.x d@$#y.M+J.{@J.I.K.I.2#a+:$+ f I ",
"<$2+0 c O 0 T l [$}$'._@P |$1$I+5.g+9+J.`.`.(+K.{$ +8+,#s u+Z.e+/+5+#+B.2@7.u+x@Y 2$l 3$3#O.4$#@e#d.(+I..+E.`.K.K.M._#I+5$m s.7 ",
"7 |.0 {+c+9 {.c+3 6$1++ g 7$8$3#@@7+`.B+K.J.M+K.`.K.F.I.|@0.>+9.O.@.*+O.O.P.C#C#9$I k 5 0$a$A J+d.I.G.(+g.I.I.J.M+'#$@b$c$P ~.f ",
"e . j m e {+. b . T /.L ~.g d$j.,#I.H.J.`.`.I.H.I.g.I.K.e.d.X+@@t >+v j.e$f$g$: k f I i h$i$h.j$.+(+G.K.K.K.I.K.I...k$l$g 1+m m$",
"M m 7 e e b Q h c+0 :@m P n$o$W 7.F.I.g.K.`.`.H.g.I.I.K. +$+f+$#w Z 3#p$q$b @ (.l 3 L }.}.r$)#0.e.(+`.K.I.K.J.M+/+C.s$ #J 3 m t$",
". 2 e c 1 u$/.|.].7 r.7 H v$w$)#X+d.K.G.J. +K.H.I.g.d.K.6+e.'#s a+x$y$: f [ I E ].u$f R@z$A$B$h.s+y.I.I.K.K.d.K.C$D$7 :@h m 3 f ",
"`+e ].P q.T Q 2+R (@P . 3 E$F$n#g.K.K.J.`.`.`.H.I.K.(+g.4.2#a+H+G$m l G : J#1+H M H$d M 0@).I$m+;+2@N+d.g.g.V@M@_#J$f e l 1+2 m ",
"R@J I P O#:@P T K$9 . b L$M$T+'#F.K.M+:+K.(+(+I.J.I.F.p#0.z#N$O$7 P H | P P s.P L )@U K `+I d P$Q$i._#<+W@R$S$F$T$U$3 '@c m 7  @",
"}.~.f g _ U V$j )@d K 7 W$X$Y$F$3.#+W+I.d.e.F.F.G.c.[@a+v+Z$`$_ 7 E ~.2 2 &@e 2 L _.g M E _ !./. %.%N.K+h.+%@%#%$%I R@e 3 b [./@",
"g m [ I + `+%%r.1 d m )+P g &%O.&._#l+n#x.Z.R$..*.&.*%=%-%;%~._ _@>%[ I#1+f 7 I c K g |.5 m 2+].U ,%'%)%!%n$G H E E I E m g R )@",
"l J `+I e 7 ~%{%r.. 2 ]%E c g ^%/%(%_%j.H+l+T+5.4@C :%: Q+_ } F G s.@ P g 3 1+j N t.m <%[%R u$L }%`+U U 7 s.} H . b R@f H P J d "};
