/* XPM */
static char * pig_r_2_xpm[] = {
"64 64 564 2",
"  	c #456B2B",
". 	c #446C1E",
"+ 	c #4B7325",
"@ 	c #548126",
"# 	c #527B2D",
"$ 	c #466B32",
"% 	c #4C7332",
"& 	c #4B732C",
"* 	c #4E792C",
"= 	c #537B34",
"- 	c #496E24",
"; 	c #496E2C",
"> 	c #517634",
", 	c #3E642A",
"' 	c #41661D",
") 	c #436B25",
"! 	c #3C641D",
"~ 	c #467125",
"{ 	c #3F6924",
"] 	c #568134",
"^ 	c #4E7932",
"/ 	c #47712B",
"( 	c #5F8942",
"_ 	c #4E743A",
": 	c #597E34",
"< 	c #446B26",
"[ 	c #50733D",
"} 	c #56803A",
"| 	c #335A15",
"1 	c #5A8235",
"2 	c #567B3C",
"3 	c #487032",
"4 	c #5C8341",
"5 	c #52763A",
"6 	c #436532",
"7 	c #42662B",
"8 	c #4B6E39",
"9 	c #557C3A",
"0 	c #55812D",
"a 	c #3F692A",
"b 	c #37601D",
"c 	c #467030",
"d 	c #4E7236",
"e 	c #506C3D",
"f 	c #5D8240",
"g 	c #587E3E",
"h 	c #4A6F30",
"i 	c #42672B",
"j 	c #46662D",
"k 	c #3F5C29",
"l 	c #405A2C",
"m 	c #344E23",
"n 	c #3B5829",
"o 	c #466432",
"p 	c #476A30",
"q 	c #527835",
"r 	c #537A34",
"s 	c #3E682A",
"t 	c #527A34",
"u 	c #466F30",
"v 	c #3B5D24",
"w 	c #42662C",
"x 	c #53763B",
"y 	c #527636",
"z 	c #496E2D",
"A 	c #506F33",
"B 	c #3E691D",
"C 	c #476834",
"D 	c #54534C",
"E 	c #352C2A",
"F 	c #2D2A25",
"G 	c #4B413E",
"H 	c #72565A",
"I 	c #927679",
"J 	c #947C7D",
"K 	c #9B7B7C",
"L 	c #846C6C",
"M 	c #625655",
"N 	c #3D3432",
"O 	c #262521",
"P 	c #0F120C",
"Q 	c #393738",
"R 	c #695E60",
"S 	c #A6878A",
"T 	c #785B60",
"U 	c #1C1B19",
"V 	c #1C221B",
"W 	c #453F41",
"X 	c #160E0D",
"Y 	c #353331",
"Z 	c #636657",
"` 	c #5D893B",
" .	c #395E1C",
"..	c #5B833B",
"+.	c #4B6E35",
"@.	c #3D5232",
"#.	c #2A201F",
"$.	c #847373",
"%.	c #CCB3B5",
"&.	c #E5BABC",
"*.	c #F3CACC",
"=.	c #FBC4CC",
"-.	c #F9C3C7",
";.	c #EBBDC1",
">.	c #E6BDC1",
",.	c #C39DA2",
"'.	c #090906",
").	c #231D1B",
"!.	c #B39294",
"~.	c #BCA2A3",
"{.	c #544C49",
"].	c #6B5455",
"^.	c #8B7375",
"/.	c #3B2726",
"(.	c #24311D",
"_.	c #486937",
":.	c #416625",
"<.	c #4A6E32",
"[.	c #51762D",
"}.	c #507930",
"|.	c #547A36",
"1.	c #416822",
"2.	c #517A32",
"3.	c #436A29",
"4.	c #44662D",
"5.	c #324D1F",
"6.	c #1F2E17",
"7.	c #4B4945",
"8.	c #D5B7B9",
"9.	c #E9BBBE",
"0.	c #E9B6BB",
"a.	c #E4B6B9",
"b.	c #EBC2C4",
"c.	c #E3B4B6",
"d.	c #5B4D4C",
"e.	c #7A6B6C",
"f.	c #AA8A8C",
"g.	c #CDA5AA",
"h.	c #FBCBD2",
"i.	c #DDB3B6",
"j.	c #6A5855",
"k.	c #2B3C1A",
"l.	c #446426",
"m.	c #3D6424",
"n.	c #486E1F",
"o.	c #416626",
"p.	c #476B29",
"q.	c #9C7F82",
"r.	c #CAA4A7",
"s.	c #B48E92",
"t.	c #88716F",
"u.	c #44423E",
"v.	c #11120E",
"w.	c #412E2E",
"x.	c #E8C0BE",
"y.	c #DDBABB",
"z.	c #F1B9BD",
"A.	c #F3C4CA",
"B.	c #A38486",
"C.	c #261817",
"D.	c #6B5856",
"E.	c #E3C2C2",
"F.	c #745B5C",
"G.	c #2E301F",
"H.	c #66715C",
"I.	c #4F802F",
"J.	c #4F793A",
"K.	c #406927",
"L.	c #375123",
"M.	c #FCD2D9",
"N.	c #FAC9CE",
"O.	c #8B7976",
"P.	c #2F302C",
"Q.	c #D5AAAD",
"R.	c #A47C81",
"S.	c #5A4345",
"T.	c #EDC5C9",
"U.	c #322926",
"V.	c #545452",
"W.	c #366021",
"X.	c #3F642B",
"Y.	c #406429",
"Z.	c #3B582D",
"`.	c #293421",
" +	c #8C7779",
".+	c #E5CACB",
"++	c #736364",
"@+	c #E6ADB6",
"#+	c #D5B3B5",
"$+	c #7B6464",
"%+	c #2C2523",
"&+	c #747371",
"*+	c #60903A",
"=+	c #4D7925",
"-+	c #577F37",
";+	c #6F7463",
">+	c #45453B",
",+	c #1E201A",
"'+	c #4B3C3C",
")+	c #534946",
"!+	c #6B565B",
"~+	c #54383A",
"{+	c #C6AAAB",
"]+	c #F2BDC4",
"^+	c #4A3838",
"/+	c #1B1B15",
"(+	c #2D2D29",
"_+	c #736669",
":+	c #629036",
"<+	c #3B5E24",
"[+	c #4D7234",
"}+	c #444440",
"|+	c #433433",
"1+	c #B79EA0",
"2+	c #DAAEB3",
"3+	c #ECCBCB",
"4+	c #A7898A",
"5+	c #585E51",
"6+	c #556D3A",
"7+	c #527635",
"8+	c #547B36",
"9+	c #4B6D30",
"0+	c #4F683F",
"a+	c #3B5F28",
"b+	c #4F792C",
"c+	c #3E3A32",
"d+	c #F7C9D2",
"e+	c #F2C2C6",
"f+	c #BD9B9C",
"g+	c #5A6D48",
"h+	c #43662D",
"i+	c #597E3B",
"j+	c #628A43",
"k+	c #527B2E",
"l+	c #464B30",
"m+	c #C5A6A9",
"n+	c #E4C1BE",
"o+	c #F3B5BD",
"p+	c #151512",
"q+	c #DEB5BA",
"r+	c #F6D1D4",
"s+	c #466132",
"t+	c #607F43",
"u+	c #587A24",
"v+	c #485B37",
"w+	c #635659",
"x+	c #EDB6C1",
"y+	c #C3A2A4",
"z+	c #998888",
"A+	c #342624",
"B+	c #AC8D91",
"C+	c #3B5330",
"D+	c #506F34",
"E+	c #5A7E41",
"F+	c #526A45",
"G+	c #242A23",
"H+	c #735E60",
"I+	c #645A59",
"J+	c #937F80",
"K+	c #8D6F71",
"L+	c #A5797B",
"M+	c #383D2A",
"N+	c #486736",
"O+	c #5E8935",
"P+	c #587F2E",
"Q+	c #496A33",
"R+	c #627356",
"S+	c #4B5042",
"T+	c #443D3C",
"U+	c #5C5A56",
"V+	c #887978",
"W+	c #4D673C",
"X+	c #59832D",
"Y+	c #577F40",
"Z+	c #355C1C",
"`+	c #4F772B",
" @	c #6D7B58",
".@	c #6A5C5C",
"+@	c #4C4442",
"@@	c #23221E",
"#@	c #4C6B35",
"$@	c #6A9345",
"%@	c #537734",
"&@	c #5C514F",
"*@	c #B79396",
"=@	c #C2999D",
"-@	c #BB969A",
";@	c #F6BEC9",
">@	c #B49B9B",
",@	c #392E36",
"'@	c #3C3B3A",
")@	c #534544",
"!@	c #517531",
"~@	c #4E7034",
"{@	c #051A07",
"]@	c #433936",
"^@	c #3C3935",
"/@	c #1E2B24",
"(@	c #5F7F43",
"_@	c #527A24",
":@	c #507832",
"<@	c #476331",
"[@	c #D08F93",
"}@	c #D9959B",
"|@	c #D6949B",
"1@	c #C98C94",
"2@	c #BC8791",
"3@	c #855D67",
"4@	c #658446",
"5@	c #446B28",
"6@	c #537730",
"7@	c #4A6E33",
"8@	c #54753F",
"9@	c #45622E",
"0@	c #70635C",
"a@	c #E2A3AE",
"b@	c #896669",
"c@	c #B78588",
"d@	c #C48A8E",
"e@	c #E4909D",
"f@	c #516F37",
"g@	c #6D954F",
"h@	c #507732",
"i@	c #466A32",
"j@	c #486832",
"k@	c #476631",
"l@	c #496734",
"m@	c #3F512B",
"n@	c #3A3C2C",
"o@	c #866A71",
"p@	c #694C52",
"q@	c #311C19",
"r@	c #9A817F",
"s@	c #8B6C6C",
"t@	c #D699A0",
"u@	c #A87A81",
"v@	c #526E3A",
"w@	c #496B32",
"x@	c #3C5623",
"y@	c #38382A",
"z@	c #625857",
"A@	c #898480",
"B@	c #544848",
"C@	c #D3ADB2",
"D@	c #DEBDC0",
"E@	c #5D5453",
"F@	c #C68B92",
"G@	c #CC9495",
"H@	c #CD818B",
"I@	c #B67E87",
"J@	c #647E48",
"K@	c #547725",
"L@	c #42682E",
"M@	c #47712C",
"N@	c #4F6C39",
"O@	c #404E36",
"P@	c #45423C",
"Q@	c #776967",
"R@	c #816466",
"S@	c #67514E",
"T@	c #97666B",
"U@	c #966C76",
"V@	c #667C53",
"W@	c #649249",
"X@	c #4B6C3B",
"Y@	c #38442F",
"Z@	c #CB9AA1",
"`@	c #3A2D2C",
" #	c #617353",
".#	c #4B732D",
"+#	c #5F7351",
"@#	c #24341B",
"##	c #3E322D",
"$#	c #7C726F",
"%#	c #D8A7AD",
"&#	c #9D8283",
"*#	c #1A1413",
"=#	c #644D4E",
"-#	c #36392E",
";#	c #67695B",
">#	c #4C6D32",
",#	c #6A8A3F",
"'#	c #697559",
")#	c #74716E",
"!#	c #4E4D4A",
"~#	c #69605E",
"{#	c #CCAAAD",
"]#	c #34332D",
"^#	c #5A5F50",
"/#	c #4F6443",
"(#	c #647D4E",
"_#	c #4B4A3C",
":#	c #755657",
"<#	c #556B42",
"[#	c #516F34",
"}#	c #4A4D41",
"|#	c #506E35",
"1#	c #5D893C",
"2#	c #515B44",
"3#	c #517239",
"4#	c #3E691E",
"5#	c #4D5C3B",
"6#	c #54773C",
"7#	c #584942",
"8#	c #D4A4B0",
"9#	c #AD9698",
"0#	c #C29499",
"a#	c #44662E",
"b#	c #484F37",
"c#	c #A98689",
"d#	c #516D47",
"e#	c #4F6040",
"f#	c #AF908E",
"g#	c #394430",
"h#	c #595855",
"i#	c #567742",
"j#	c #35382D",
"k#	c #5C6354",
"l#	c #656A59",
"m#	c #7B7473",
"n#	c #586E4C",
"o#	c #597941",
"p#	c #45463E",
"q#	c #42692A",
"r#	c #4F514E",
"s#	c #5F6656",
"t#	c #5C6F4C",
"u#	c #5C5C59",
"v#	c #64615E",
"w#	c #4D6B34",
"x#	c #53684B",
"y#	c #5B544D",
"z#	c #6C6463",
"A#	c #6A6D64",
"B#	c #547A35",
"C#	c #466B2D",
"D#	c #475831",
"E#	c #5A624F",
"F#	c #44662C",
"G#	c #6A6A64",
"H#	c #546D44",
"I#	c #6D6E67",
"J#	c #466B2C",
"K#	c #46543E",
"L#	c #BFA5A8",
"M#	c #5B635B",
"N#	c #5E704B",
"O#	c #4B5D39",
"P#	c #727B66",
"Q#	c #446B27",
"R#	c #6B6F65",
"S#	c #51763A",
"T#	c #5B6750",
"U#	c #746C6B",
"V#	c #5E5A53",
"W#	c #62824D",
"X#	c #587A3F",
"Y#	c #997577",
"Z#	c #414735",
"`#	c #586F49",
" $	c #49712B",
".$	c #465238",
"+$	c #4F6342",
"@$	c #48712D",
"#$	c #5D883D",
"$$	c #60794A",
"%$	c #787B76",
"&$	c #486931",
"*$	c #57793E",
"=$	c #57783E",
"-$	c #4F7933",
";$	c #6A6157",
">$	c #2B401A",
",$	c #4F683B",
"'$	c #4B6E34",
")$	c #4C6439",
"!$	c #5D5C4D",
"~$	c #4E6D38",
"{$	c #476A2F",
"]$	c #61863A",
"^$	c #51653D",
"/$	c #A78989",
"($	c #4A6831",
"_$	c #5E7948",
":$	c #66685E",
"<$	c #43453C",
"[$	c #2E2D25",
"}$	c #5C8242",
"|$	c #43662C",
"1$	c #376115",
"2$	c #4D732F",
"3$	c #71685A",
"4$	c #35302A",
"5$	c #506F38",
"6$	c #325B0F",
"7$	c #466631",
"8$	c #666F53",
"9$	c #67675C",
"0$	c #4A6737",
"a$	c #618435",
"b$	c #5D6A49",
"c$	c #5E5850",
"d$	c #426621",
"e$	c #537438",
"f$	c #586A45",
"g$	c #6E7066",
"h$	c #64645F",
"i$	c #495E3B",
"j$	c #42692E",
"k$	c #577B3D",
"l$	c #716C61",
"m$	c #6B785D",
"n$	c #638B3D",
"o$	c #54743E",
"p$	c #445639",
"q$	c #5C564E",
"r$	c #5F6B51",
"s$	c #4F7233",
"t$	c #627F4C",
"u$	c #706C61",
"v$	c #446A28",
"w$	c #577C3D",
"x$	c #585E50",
"y$	c #534E48",
"z$	c #4F723C",
"A$	c #496A31",
"B$	c #546641",
"C$	c #6B675B",
"D$	c #756965",
"E$	c #5F6658",
"F$	c #45652F",
"G$	c #30550F",
"H$	c #516F43",
"I$	c #6F6F68",
"J$	c #456B2C",
"K$	c #416927",
"L$	c #56793D",
"M$	c #506D39",
"N$	c #527339",
"O$	c #657556",
"P$	c #4B4F42",
"Q$	c #6A765F",
"R$	c #638A35",
"S$	c #497035",
"T$	c #617C4D",
"U$	c #4D5A3B",
"V$	c #5F5951",
"W$	c #796C6A",
"X$	c #7E766E",
"Y$	c #676E5B",
"Z$	c #4C633A",
"`$	c #50752F",
" %	c #679146",
".%	c #4D781F",
"+%	c #335A16",
"@%	c #4E7337",
"#%	c #577D3F",
"$%	c #4F733D",
"%%	c #2E5417",
"&%	c #537B35",
"*%	c #4E7933",
"=%	c #5C833D",
"-%	c #4F7934",
";%	c #4F6B38",
"  . + . @ # $ % & * = - ; > = - , ' - & ) ! ~ { ) % ] ^ / / ( _ ; ^ : < [ % ] = } | * 1 = + 2 3 4 5 6 5 % : 7 6 $ 6 8 9 9 & & ; ",
"; + . * @ 0 a ) / * { ) > ; - ;   b - = * | | * ) ~ 9 { ) ^ ^ ; ,   c _ d e f g h i j k l m m n o p q & r s t u v w x y z a a $ ",
"~ ] * * # # % 1 } ~ | % A ) >   {   = & = =   * ^ & % B ^ = ^ ^   % c _ C D E F G H I J K L M N O P Q R S T U V W E X Y Z $ a 7 ",
") # *   = + ] 1 ` { b = ;   % )  .& # - & } & ) = &   / ..& ] * & ^ % +.@.#.$.%.&.*.=.-.=.*.;.>.,.$.Q '.).!.~.{.].%.^./.(._.:.<.",
"* # / - = > # + & /   c   ; , ) ) ~ * } ; { ; [.= ^ ^ * ^ }.|.1.2.3.4.5.6.7.8.-.9.0.&.&.a.b.c.9.;.*.&.S d.X e.&.f.g.h.i.j.k.l.- ",
"~ / ! B m.- n.b   ; _ c   <.  ) & & & } o.| ) * ] ~ ] * / p.E q.~.r.s.t.u.v.w.,.x.&.&.x.8.&.;.0.y.a.z.=.A.B.C.D.A.>.i.b.E.F.G.H.",
"I.J./ n.:.= = <.$ a _ c ; c } % & = : /   & > / % {     K.L.%.M.=.;.N.N.8.O.).P.Q.b.c.b.b.0.;.;.b.0.&.y.a.h.R.'.S.E.T.c.*.&.U.V.",
"I.a & . 7 5 = :., $ W., _ c } } & & & ) 7 ; ' + / 9 X.Y.Z.`. +s.g.b.9.c.z.h.J P ].b.&.9.0.9.a.&.9.&.x.9.9.y..+D.'.++0.@+#+$+%+&+",
"*+W.:.) _ % =+a a a ~ { J.9   = & 1 +   7 ) > 7 -+;+>+,+E '+7.)+!+S i.9.9.0.E.~+O {+]+&.&.E.&.;.9.;.&.9.a.;.&.&.^+/+Q W P.(+_+&+",
":+& ! +   * ) / , W.^ % 4 c & _ _ & & _ <+<.[.7 [+}+|+1+>.;.;.0.2+Q.i.;.a.>.3+ +X B.*.a.x.&.9.;.;.;.&.>.;.>.0.]+4+%+5+6+7+8+9+0+",
"@ = ) # > ^ & J.8 $ 4 5 9 a+% ; a 6 :.; c <.7 <.b+c+s.d+9.9.b.9.e+E.y.x.&.0.b.f+/+L -.9.9.9.b.&.0.;.>.&.&.&.>.;.y.'+g+h+A 7   % ",
"~ = > & > ) & % 6 7   5 <.<.i+> $ _ 7 * j+a+6 <.k+l+m+A.&.&.c.&.a.x.n+&.o+o+*.f.p+I b.a.&.9.9.&.0.;.&.;.&.b.>.q+r+++s+<.7 7 <.; ",
"m.7 :.; - * } ..a+7 <+> ; i+t+5 <.8 <.u+= <+_ :.> v+w+8.*.x+]+9.9.c.&.0.@+-.8.G #.y+A.&.x.9.c.x.>.>.a.9.9.T.z+A+f.B+C+D+A E+<. .",
"8 <.6 7 # * = ~ 5 > :.7 <.6 5 a+:.; ; + ~ <.  , <.F+G+F H+y+i.T.A.-.A.h.*.#+I+/+J+>.a.9.&.]+b.&.y.;.0.]+a.b.K+'.L+{+M+N+8 5 <+:.",
"A - ;   O+P+c ~ % 5 [.:.A a+<.7 7 > & % & & W.a 7 Q+R+S+(+O T+U+K f.f.B.e.N ).V+*.0.c.b.i.x+]+a.9.a.&.e+9.&.#+~.a.#+'+W+:.<.<+A ",
"; P++ > X+` 7 9 ; % = > E+6 6 E+  ' ' Y+8 Z+; , % : `+ @.@/+N +@G+U @@O V {.!.=.;.0.-.A.E.;.0.b.-.x.&.i.;.b.N.=.;.q+'+#@7 % 7 $ ",
">  .  , = $@+ 1 c } I.I.` J.$ _ , 6 6 i+% 8 _ * 1 ( * %@&@X *@]+r.=@s.-@Q.;.b.9.&.;@V+F.#+&.-.>@!+,@,@'@T+.@I 1+;.T.)@!@5 # % a ",
":. .7 ) & ) 1 1 a J.^ / ] = / $ & _ 9 & ' 7 _ ] ~ { ~ ~@O _+.+;.e+T.b.;.b.;.9.&.;.#+E '.f+h.q./+{@F |+]@^@/.#./@S.B+U+(@m.- c _ ",
"<+:.a+, & ; j+[.m.a 5 a a ~ & + ]   /   ) :.B _@B / :@<@++.+;.0.c.&.9.9.&.&.&.9.&.*.>@J ;.#+O U.L+[@}@|@1@2@L+3@|+/.U+4@<.P+; c ",
" .<.7  .& = / [.9   ; _ m.^ ~ : * {   / > 7 5@6@7@8@9@0@;.x+0.&.x.x.9.&.9.9.9.&.a.0.]+T.-.f.P 3@a@b@S.c@d@[@}@e@!.S.^@f@E+= & % ",
"  c / m.> } ) % g@{ :.; %   ) = h@i@j@k@l@m@n@%+U.,@].#+;.o+9.&.0.0.9.9.9.9.;.;.x.9.]+0.A.K V o@|@p@q@r@e@d@s@s@t@u@E v@..[.& = ",
"_ { {   = % = % 1 ~ & { ;   w@x@y@z@A@z+$.B@W  +C@D@C@i.a.&.b.;.9.x.b.9.9.&.a.&.x.&.&.a.e+f+/+E@}@d@d@F@F@G@q@/@H@I@E J@> K@> ) ",
"L@) 9 & ~ ) = % ) } M@N@O@P@Q@1+;.M.,.R@S@H+$+z@L+T.;.9.>.a.&.&.9.0.0.a.9.9.9.9.a.&.E.&.9.&.'+U b@}@|@d@d@1@T@U@|@c@E V@7 ~ 9 ; ",
"  } W@& / ` & / _ X@Y@p+@@T+I+++!.4+b@f+>.b.;.2+D.f+b.0.9.&.;.9.&.9.9.x.;.&.&.&.b.0.;.9.9.b.Z@`@p+G L+d@G@G@e@}@2@~+}+ #  ) _ $ ",
"& } i+{ > > .#+#@#p+##F.^.F.)+E (+G t.I $#s@%#N.&#4+T.&.9.&.9.&.9.&.&.;.&.9.9.9.a.;.9.a.;.a.e+Q.V.p+*#U.7.=#=#S.%+-#;#>#B & & ; ",
"= : / ' ,#[.'#T+++)#!#^@~#~.d+]+{#,.!.t.I r.b.#+s@{#&.c.;.;.9.9.9.9.9.9.;.&.&.9.b.a.9.b.9.x.a.9.A.,.o@W `@F ]#G+^#/#7   * - & 9 ",
"& 1 1 n.: (#_#R.=.-.,.$.B@|+S@y+A.N.h.r+M.b.*@:#-@*.&.x.;.9.9.&.9.&.;.9.9.9.;.&.9.9.9.9.a.b.a.b.0.;@T.>.D@2+i.B.<#6 6 <+/ = ^ & ",
"& =+# ] [#}#&#A.0.0.A.e+x.{+F.w.G D.Q@$.R@F.Q@y+b.9.a.b.0.&.;.&.9.9.&.9.&.9.9.9.a.b.9.9.9.9.9.a.9.&.&.0.>.0.r+c@|#6 , m.  > { ; ",
"I.^ # 1#2#L b.]+&.y.&.b.a.*.*.r@O L R@O.J F..+=.9.c.9.0.9.9.9.9.9.9.;.&.;.9.9.9.9.9.a.9.b.9.9.9.&.&.&.&.b.a.E.f.  5 5 :.:.5 <.6 ",
"I.( & 3#&@y.b.a.9.9.9.9.a.i.E.y+]#{+h.=.b.H $+=@x.x.9.b.9.9.&.&.;.9.&.9.&.9.;.&.;.&.&.b.c.;.9.;.9.&.x.9.9.0.e+R.%   ; % 5 6 <.5 ",
"` I.4#5#4+N.a.&.&.&.&.9.e+x.a.*.U+{.E.;.m+|+{.~.e+&.c.b.a.9.;.;.&.&.9.9.;.&.&.9.9.9.9.9.Q.%#9.9.E.a.b.9.q+>.3+L c   :.  8 6 8 7 ",
"I.I.6#7#;.;.&.&.;.b.&.>.a.&.9.z.8#w.S@9#).I+;.;@9.&.x.&.&.b.&.;.&.;.9.9.&.9.9.9.9.9.0.x.i.0#b.a.;.z.c.2+0.;.T.R@c _ :.> 7 7 5 [.",
"6 a#b#R.A.y.>.x+;.&.&.;.9.9.9.9.x.g.|+v.'+>.;.&.&.9.9.&.9.9.&.9.9.9.&.9.9.&.;.&.9.0.x.;.]+c#{+;.n+z.i.Z@b.c.b.D.> > ; 7 E+<.<.:.",
"% d#|+Q.b.&.>.0.9.&.9.9.&.9.&.9.&.-.z+).{+*.c.9.;.9.9.;.&.9.9.>.9.9.;.&.9.9.9.9.&.9.E.a.e+y+&#e+a.;.#+*@9.;.#+w+P+& & <+7 > ; ) ",
"c e#&@A.;.y.>.;.9.&.9.9.9.;.9.a.c.e+'@w+=.c.a.9.&.9.9.&.;.&.;.0.9.&.9.9.9.&.9.9.&.;.x.0.;.&.$+i.9.e+!.f#e+e+,.E@; & <.$ 7 <.<.; ",
"% g#&#-.&.a.;.;.0.;.9.&.9.9.9.&.N.c#P m+=.&.9.b.9.9.9.9.9.9.&.9.&.;.9.9.9.;.&.9.;.9.a.b.a.T.s@!.;@b.^.f+e+]+B+h#) & > 5 <.7 A [.",
"i#j#1+;@y.x.a.;.&.;.&.&.;.&.&.9.]+)@7.b.9.&.0.a.9.0.>.9.;.&.9.9.;.&.0.;.9.;.&.;.9.&.a.x.a.*.s.L =.{#!+#+a.A. +k#& ) i+; 7 A ; ; ",
"l#]@#+;.x.&.9.&.&.;.9.9.;.&.&.b.g.@@m#-.a.&.b.b.&.;.;.&.&.9.9.9.&.;.&.&.9.&.&.0.9.&.b.9.&.A.,.S.h.r@H b.0.b.z@n#~   9 <+<.5 A <+",
"I++@;.0.b.c.;.a.&.;.&.9.;.a.&.T.S P -@]+9.9.y.x+&.9.&.9.&.9.&.;.9.&.9.9.;.&.;.&.9.b.9.&.&.;.g.T+y+E@K *.e+r.u.o#  & &   > > > :.",
"U+d.T.0.&.9.;.&.&.;.0.9.;.0.&.-.H+%+a.;.c.9.E.x+;.9.9.9.;.9.9.&.&.;.9.9.&.;.&.9.9.9.a.b.&.;.q+G H+N #+;.A.B.p#q#] / = ; & % { 9 ",
"r#H b.i.b.0.9.9.9.&.;.&.0.;.&.b.B@T+;.a.;.&.b.0.;.&.9.9.&.;.;.&.9.9.&.;.>.9.&.9.9.&.>.;.9.0.;.+@v.$+A.&.T.H s#] = ^ [.) & )   ..",
"r#T T.;.i.9.;.&.&.&.;.&.;.&.&.;.T+!#A.&.9.&.9.&.&.9.9.9.9.&.&.0.9.9.9.&.0.;.9.9.0.>.>.0.9.9.b.{.F r.z.9.r.B@t#/   ^ > ; ..9 ^ ^ ",
"u#].*.0.&.E.a.;.9.0.9.9.9.9.0.;.`@z@A.&.x.9.9.9.9.9.;.&.9.&.;.;.0.;.9.9.9.&.&.;.>.&.;.0.9.9.&.N v#h.a.T.L v#w#% a & ) ) ..> & ) ",
"x#y#]+x+9.&.x.9.9.&.9.&.;.&.&.;.^+z#;@a.9.9.a.b.9.9.&.9.9.9.&.9.>.&.9.9.9.9.9.&.9.>.>.&.9.;.y.@@J+-.e+#+'+A#B#= %   7 > i+    7 ",
"C#D##+e+a.&.x.a.9.&.9.&.&.9.&.T.d.~#N.&.0.0.9.&.&.;.&.9.&.9.9.9.9.&.&.;.&.9.&.;.9.>.>.;.a.9.#+U c#;.-.V++@E#; K@%  .> E+5 7 ; 6 ",
"= F#L T.9.b.x.9.;.&.;.9.9.&.9.-.H B@*.9.&.9.x.&.9.9.9.9.;.9.9.&.9.9.9.9.9.9.9.&.9.>.>.;.a.b.*@@@Z@N.C@^@G#H#j++ ^ { i+i+; ; A ; ",
": 2 U.{+;.9.>.&.&.&.;.9.9.&.9.e+J U.2+x.0.9.x.9.9.9.;.&.&.9.9.9.9.&.;.9.9.&.;.;.9.&.0.;.&.*.s@F i.T.I Y I#J#= ^ } ^ 9 %   ; i+<.",
"& 9 K#D.=.9.a.b.;.0.&.9.9.9.&.b.L#C.=@T.0.9.0.x.&.;.&.9.9.9.9.&.9.9.&.9.&.;.0.&.9.>.;.a.&.*.p@u.e+0.^@M#N#) ) _ ^ ^ ) :.    5   ",
"+ = O#Y  +d+x+9.9.;.9.a.x.x.9.0.;.]@~#h.0.0.b.9.0.9.9.&.9.&.9.;.x.9.;.9.9.;.&.;.9.n+9.0.N.=@C.e.M.&#N P#z % Z+6 =   _ c m.J.^ ^ ",
"= ) Q#V.N b@i..+;.9.9.9.0.a.9.x.-.O.U.#+;.&.c.x.a.x.&.&.;.E.&.&.x.a.&.x.;.&.&.9.9.y.x.N.{#|+P.m+m+~+R#S#> 9 :.m.&   ~ /   9 = ^ ",
"..~ ) T#)+I :#r@%#9.*.T.&.0.9.c.0.q+`@].*.0.b.a.]+;.9.b.;.0.&.e+E.x.&.a.&.;.;.&.9.b.&.f.w.)+U#L#G V#W#% ; c 9 & ~   ! ) & = ] ^ ",
"9 = c X#^@%.r.s@D S@$.=@i.9.A.e+*.*.>@A+Y#*.i.9.9.9.z.c.9.;.a.y.a.9.x.b.9.a.9.&.o+x.Q.D.z+&.=#Z#`# $_ c Z+, j+`   % b { / / & * ",
"= ^   } .$K+h.T.{+ +B@E F N d.I+.@$+o@'@). +>.=.a.x.&.&.x.&.x.b.b.9.@+9.x.a.x.x.]+E.y.>.*.>.N +$@$& _ _ { ; ..#$a ^ {   / a   ) ",
"9 ~ ) & $$T ;.&.;@A.]+C@f.$.!#G+P *#p+'@%$P.B@B+b.b.b.9.9.9.a.c.c.9.9.e+&.&.b.a.a.b.o+0.>.>.w+&$& / 9 ; % 9 *$=$  } % ^ / / / { ",
"~ / & = -$;$&.9.x+>.&.b.A.-.9.@+++O >$,$7+'$)$!$F.4+#+&.b.e+A.A.T.*.a.C@g.Q.;.;.E.9.o+9.>.]+$+7@& ~ & :.; > ~${$  ^ * * ~ * = ) ",
"_ / ) ]$i+^$/$A.a.>.x.a.a.9.9.9.=.D ($) c <.:._$:$<$[$|+B@)@M Q@$.:#G t.y+i.;.0.9.a.E.&.9.=.^.}$/ ] ) > ; > 5 |$B B B B 1$=+] B ",
", _ = } : 2$3$;.&.>.a.e+0.9.9.-.z+4$5$6$% $ ` ; 7$8$9$V.'@p+v.P './+F.#+b.9.;.;.;.&.;.&.9.-.q.0$  / = ] J.4 } a B  .:.m.:.:.% $ ",
"    & = a$= b$m+b.&.9.9.x.&.>.{+E c$d$1 9 : * & 7 ; e$f$g$h$W ^@I C@>.;.9.;.0.&.0.9.9.9.a.T.L#i$j$/ = % ^ 4 ^ ^ # * :.:.;   = a ",
"7 % :.# =   k$l$T.9.@+9.a.&.3+:#G m$1 n$& * O+) $ % / & - > o$p$p@q+*.0.]+9.&.E.&.9.a.E.&.9.&.q$r$s$^   J._ B # 0 X++ P+} = = ) ",
"% 5 :.& / ) ..t$Y#T.*.z.9.3+^./.u$v$= =+~ # 1 + c = > ..; [.; w$x$'+q.T.9.a.&.&.E.&.9.&.a.0.-.s.y$z$^ a c { 1$0 * # P+` 1 }   = ",
"}   / ) % ..^ ^ A$B$C$D$O.z@+@E$F$& G$- n.& } ] & & ( } 9   c c H$I$G !+#+*.b.@+>.0.0.;.;.]+-.{#k#  ^   c a ) O+P+: = i+& > m.4 ",
"} ) ) ) ^ ` ^ ) > & J$K$L$M$N$; > [.-   * = ^ ^ ) % :   % ; %   7 z O$P$)+>@&.-.]+=.T.T.8.{#9#Q@Q$a ^ a _   * ] = } ; : & ; 7 9 ",
"# # ) ) / J.}   > ; ;   > / % % E+P+) ] R$~ 5 { a ^   a   i+& >   <.& S$T$U$V$F.L K+R@.@w+W$X$Y$Z$$   { 5 / / ^   ^ & = > = $ c ",
"`$[./ B   9 9 % > % ) % { / & > ; P+=  %.%B c )   : _ ~ i+..> = _ & = 5 _ +%@%#%$%%%&%*%=%-%M@/ $ / { a ( c / & a   = > > j+; ;%"};
