/* XPM */
static char * pig_r_1_xpm[] = {
"64 64 586 2",
"  	c #4A6D33",
". 	c #4E7933",
"+ 	c #517B2D",
"@ 	c #467125",
"# 	c #5E893C",
"$ 	c #456B2C",
"% 	c #4C7333",
"& 	c #47712B",
"* 	c #4B732D",
"= 	c #496D2D",
"- 	c #436B25",
"; 	c #4D792C",
"> 	c #3F6A25",
", 	c #527B34",
"' 	c #5A833C",
") 	c #506E42",
"! 	c #4D7233",
"~ 	c #466C32",
"{ 	c #56763F",
"] 	c #58842F",
"^ 	c #547B3A",
"/ 	c #5D7E3B",
"( 	c #375D14",
"_ 	c #416525",
": 	c #5E8342",
"< 	c #667A4E",
"[ 	c #52743C",
"} 	c #4E7A39",
"| 	c #517635",
"1 	c #52753A",
"2 	c #526F35",
"3 	c #436632",
"4 	c #42652B",
"5 	c #597E3C",
"6 	c #4A7326",
"7 	c #3D6424",
"8 	c #36611A",
"9 	c #56813A",
"0 	c #496632",
"a 	c #687253",
"b 	c #587641",
"c 	c #677E53",
"d 	c #737A60",
"e 	c #5D6F47",
"f 	c #597E35",
"g 	c #5E7C4E",
"h 	c #5E744F",
"i 	c #4B6C33",
"j 	c #517934",
"k 	c #46672A",
"l 	c #3C522B",
"m 	c #3D5A28",
"n 	c #4B7033",
"o 	c #4C7334",
"p 	c #547A3A",
"q 	c #527A34",
"r 	c #3D6425",
"s 	c #466B3A",
"t 	c #4F743A",
"u 	c #43652D",
"v 	c #3C5D26",
"w 	c #54753D",
"x 	c #466B2D",
"y 	c #3D682A",
"z 	c #48672E",
"A 	c #496733",
"B 	c #52762D",
"C 	c #496E26",
"D 	c #558134",
"E 	c #4E7432",
"F 	c #5D6C4B",
"G 	c #464442",
"H 	c #3C423E",
"I 	c #4B544E",
"J 	c #797370",
"K 	c #867B79",
"L 	c #665D50",
"M 	c #3F3A32",
"N 	c #35322B",
"O 	c #4B3E3C",
"P 	c #685957",
"Q 	c #7A6465",
"R 	c #746463",
"S 	c #1C1411",
"T 	c #080804",
"U 	c #0A150F",
"V 	c #262925",
"W 	c #5F4F51",
"X 	c #615F60",
"Y 	c #311D1E",
"Z 	c #1C1B17",
"` 	c #252522",
" .	c #1D1D1A",
"..	c #141511",
"+.	c #55514E",
"@.	c #6D725E",
"#.	c #4A6C34",
"$.	c #659048",
"%.	c #3E642A",
"&.	c #467232",
"*.	c #23391A",
"=.	c #161B16",
"-.	c #877D80",
";.	c #E5BABD",
">.	c #F3C4CA",
",.	c #FAC3CB",
"'.	c #EBBDC1",
").	c #D7A9B7",
"!.	c #937E80",
"~.	c #4D3F41",
"{.	c #1D201B",
"].	c #7B6669",
"^.	c #2E2D2A",
"/.	c #3A3D38",
"(.	c #9B8B8B",
"_.	c #704F56",
":.	c #2A371F",
"<.	c #556A49",
"[.	c #41652E",
"}.	c #4A6D3A",
"|.	c #4F8428",
"1.	c #53753B",
"2.	c #29301C",
"3.	c #967677",
"4.	c #CDAAAC",
"5.	c #DCB2B5",
"6.	c #A38D91",
"7.	c #625454",
"8.	c #292A24",
"9.	c #B28B91",
"0.	c #EDC4C9",
"a.	c #E8B6B7",
"b.	c #EAB6BB",
"c.	c #E9BBBE",
"d.	c #E4B6BA",
"e.	c #ECC2C4",
"f.	c #F3BEC9",
"g.	c #B29394",
"h.	c #443C3A",
"i.	c #423433",
"j.	c #DCB5BB",
"k.	c #F3CED1",
"l.	c #C49EA3",
"m.	c #4C4542",
"n.	c #16130E",
"o.	c #586353",
"p.	c #64754A",
"q.	c #4E7439",
"r.	c #3B631E",
"s.	c #5C8442",
"t.	c #516F3E",
"u.	c #393F28",
"v.	c #7B7472",
"w.	c #F9D6D8",
"x.	c #FCCCD2",
"y.	c #AA928F",
"z.	c #2C251E",
"A.	c #2C2622",
"B.	c #C4A9AB",
"C.	c #E4C1C2",
"D.	c #E6BDC1",
"E.	c #E0AFB5",
"F.	c #9A8984",
"G.	c #24231C",
"H.	c #3A322D",
"I.	c #D5ACB2",
"J.	c #FAC8CE",
"K.	c #DBADB3",
"L.	c #E3C0BE",
"M.	c #78605E",
"N.	c #25241B",
"O.	c #717167",
"P.	c #3D681D",
"Q.	c #5A7E42",
"R.	c #4A6C35",
"S.	c #424934",
"T.	c #846E70",
"U.	c #AD9295",
"V.	c #DCBBBB",
"W.	c #E2B3B6",
"X.	c #AA8B8D",
"Y.	c #160E12",
"Z.	c #3D3934",
"`.	c #EBC9CA",
" +	c #4A443D",
".+	c #454E43",
"++	c #5B8833",
"@+	c #597D46",
"#+	c #485F36",
"$+	c #2F3F22",
"%+	c #413935",
"&+	c #655C5A",
"*+	c #635955",
"=+	c #6A5555",
"-+	c #927375",
";+	c #D2A5AB",
">+	c #444B44",
",+	c #F1BEC4",
"'+	c #F2C2C6",
")+	c #241D1B",
"!+	c #534A45",
"~+	c #F9C1C7",
"{+	c #CDADB1",
"]+	c #342627",
"^+	c #5F6B52",
"/+	c #5E8942",
"(+	c #618C3D",
"_+	c #4D7B25",
":+	c #5F7649",
"<+	c #787E74",
"[+	c #988576",
"}+	c #9A7B7C",
"|+	c #A38B8D",
"1+	c #EDB7C0",
"2+	c #F3C9CC",
"3+	c #5E5D5B",
"4+	c #6D6563",
"5+	c #5D5453",
"6+	c #5D764B",
"7+	c #456B2D",
"8+	c #758164",
"9+	c #5E5B52",
"0+	c #B3969A",
"a+	c #92777A",
"b+	c #D5B4B5",
"c+	c #3D2D32",
"d+	c #342D2B",
"e+	c #4D4D4A",
"f+	c #4D4340",
"g+	c #525240",
"h+	c #596D4C",
"i+	c #60744F",
"j+	c #477233",
"k+	c #54822D",
"l+	c #3C5D2B",
"m+	c #43652C",
"n+	c #4B732E",
"o+	c #5A7C46",
"p+	c #5A594D",
"q+	c #564648",
"r+	c #958B8A",
"s+	c #170E0B",
"t+	c #857474",
"u+	c #A59896",
"v+	c #7F7F6F",
"w+	c #536A3C",
"x+	c #537442",
"y+	c #4B6D3B",
"z+	c #5A8335",
"A+	c #517A3C",
"B+	c #828274",
"C+	c #35312B",
"D+	c #826B6B",
"E+	c #F1B9BF",
"F+	c #3D3433",
"G+	c #3B2D2B",
"H+	c #BAA4A2",
"I+	c #74726B",
"J+	c #5A7547",
"K+	c #608543",
"L+	c #4B6735",
"M+	c #567043",
"N+	c #5E6954",
"O+	c #C3A4A4",
"P+	c #D7B5B9",
"Q+	c #664C4A",
"R+	c #A49393",
"S+	c #5A4444",
"T+	c #6D6B63",
"U+	c #4A6C33",
"V+	c #405D2D",
"W+	c #365B23",
"X+	c #355B1D",
"Y+	c #5F784B",
"Z+	c #2B1B1B",
"`+	c #8D7679",
" @	c #9A8385",
".@	c #735B5B",
"+@	c #5B4B4B",
"@@	c #64635A",
"#@	c #516A3F",
"$@	c #3A5D23",
"%@	c #557B39",
"&@	c #777774",
"*@	c #322B27",
"=@	c #523C3C",
"-@	c #CAA5A6",
";@	c #55504A",
">@	c #4D6E3B",
",@	c #597741",
"'@	c #788A61",
")@	c #8C8282",
"!@	c #544544",
"~@	c #C29A9D",
"{@	c #F7BAC4",
"]@	c #554E4B",
"^@	c #517B3D",
"/@	c #517B24",
"(@	c #628942",
"_@	c #858077",
":@	c #99767C",
"<@	c #DAC1BD",
"[@	c #F5C6D0",
"}@	c #836565",
"|@	c #537638",
"1@	c #496C34",
"2@	c #6C7B65",
"3@	c #D8A9AF",
"4@	c #231916",
"5@	c #565853",
"6@	c #5C833F",
"7@	c #426C1E",
"8@	c #828173",
"9@	c #292F23",
"0@	c #948282",
"a@	c #63524D",
"b@	c #D4B9BA",
"c@	c #6B5D5D",
"d@	c #67615E",
"e@	c #669246",
"f@	c #466B39",
"g@	c #4F792E",
"h@	c #6C8054",
"i@	c #717A6D",
"j@	c #5C584F",
"k@	c #AC858A",
"l@	c #D69797",
"m@	c #D3939B",
"n@	c #CC8B96",
"o@	c #AD7179",
"p@	c #4B6E2A",
"q@	c #668D49",
"r@	c #769F53",
"s@	c #4E6E38",
"t@	c #5B7C3F",
"u@	c #6B785D",
"v@	c #8A8D7F",
"w@	c #634F52",
"x@	c #8C6D6E",
"y@	c #D38C99",
"z@	c #C5878C",
"A@	c #938A88",
"B@	c #4C732E",
"C@	c #56753F",
"D@	c #7E7A66",
"E@	c #7C6D65",
"F@	c #726C69",
"G@	c #483634",
"H@	c #DA98A3",
"I@	c #A7797A",
"J@	c #C99597",
"K@	c #E09EA2",
"L@	c #826669",
"M@	c #353531",
"N@	c #7F8070",
"O@	c #45662F",
"P@	c #55773C",
"Q@	c #53743A",
"R@	c #5C7549",
"S@	c #546C49",
"T@	c #4B4F3F",
"U@	c #4C4742",
"V@	c #AC8D92",
"W@	c #B5888B",
"X@	c #483932",
"Y@	c #737C61",
"Z@	c #4E7934",
"`@	c #64734F",
" #	c #847D70",
".#	c #626057",
"+#	c #9B8589",
"@#	c #5D5956",
"##	c #B37F83",
"$#	c #916B6F",
"%#	c #778165",
"&#	c #576E48",
"*#	c #696C61",
"=#	c #2C3430",
"-#	c #9A7D81",
";#	c #B99799",
">#	c #C99FA2",
",#	c #AA8485",
"'#	c #D3AAAC",
")#	c #8C7B76",
"!#	c #785F62",
"~#	c #BC8991",
"{#	c #E3969E",
"]#	c #7B7D6E",
"^#	c #4F6C35",
"/#	c #715A57",
"(#	c #A38385",
"_#	c #68504E",
":#	c #7E7A74",
"<#	c #50693F",
"[#	c #60863E",
"}#	c #507435",
"|#	c #454D36",
"1#	c #7B716A",
"2#	c #4F693A",
"3#	c #4F6F36",
"4#	c #6B7963",
"5#	c #958689",
"6#	c #5A3F44",
"7#	c #CCA4AA",
"8#	c #FCC5D1",
"9#	c #917D7E",
"0#	c #847D7A",
"a#	c #707D5E",
"b#	c #597840",
"c#	c #5F6954",
"d#	c #615752",
"e#	c #5C514D",
"f#	c #BA9A9C",
"g#	c #7B6B6A",
"h#	c #636362",
"i#	c #4E6D38",
"j#	c #6D8E3D",
"k#	c #65744F",
"l#	c #696B5C",
"m#	c #93817E",
"n#	c #5C5A55",
"o#	c #53753E",
"p#	c #5F9132",
"q#	c #597047",
"r#	c #7F7870",
"s#	c #896768",
"t#	c #626156",
"u#	c #55753D",
"v#	c #4D7335",
"w#	c #8B8680",
"x#	c #BF9CA0",
"y#	c #5B6856",
"z#	c #6A8457",
"A#	c #6E6C68",
"B#	c #76575B",
"C#	c #77756D",
"D#	c #476C33",
"E#	c #89867E",
"F#	c #7D726C",
"G#	c #4B6D34",
"H#	c #466B2E",
"I#	c #837472",
"J#	c #4D4B46",
"K#	c #7B806C",
"L#	c #61734E",
"M#	c #33332C",
"N#	c #677956",
"O#	c #7A816B",
"P#	c #8A7575",
"Q#	c #595349",
"R#	c #537B30",
"S#	c #807F77",
"T#	c #A3858A",
"U#	c #616F53",
"V#	c #4D7334",
"W#	c #628640",
"X#	c #6A6964",
"Y#	c #5D645B",
"Z#	c #4E6939",
"`#	c #746C6B",
" $	c #70786C",
".$	c #567B3D",
"+$	c #6D755E",
"@$	c #5C7D46",
"#$	c #4E693B",
"$$	c #5B7B43",
"%$	c #40652D",
"&$	c #5C7648",
"*$	c #8F857E",
"=$	c #5B7146",
"-$	c #68645D",
";$	c #5D7148",
">$	c #5E7C4B",
",$	c #6E755F",
"'$	c #446B26",
")$	c #688451",
"!$	c #50693D",
"~$	c #558135",
"{$	c #5A7A3F",
"]$	c #6B6C61",
"^$	c #4F7934",
"/$	c #8D8981",
"($	c #948887",
"_$	c #4C493B",
":$	c #5D754A",
"<$	c #687D55",
"[$	c #637355",
"}$	c #868275",
"|$	c #636356",
"1$	c #446A2A",
"2$	c #4F6D39",
"3$	c #8F8983",
"4$	c #CCB6B2",
"5$	c #7E6F73",
"6$	c #6C4E56",
"7$	c #797E65",
"8$	c #7E8A70",
"9$	c #6C6661",
"0$	c #848677",
"a$	c #517937",
"b$	c #5C794D",
"c$	c #8C8B87",
"d$	c #857976",
"e$	c #858977",
"f$	c #426930",
"g$	c #496C31",
"h$	c #8C897F",
"i$	c #577142",
"j$	c #527B35",
"k$	c #69954A",
"l$	c #5F7C4A",
"m$	c #30402F",
"n$	c #5D6D54",
"o$	c #767F68",
"p$	c #5B6954",
"q$	c #3F4434",
"r$	c #797B63",
"s$	c #DFBFC2",
"t$	c #948D88",
"u$	c #647455",
"v$	c #4C6D31",
"w$	c #66854B",
"x$	c #707565",
"y$	c #646C58",
"z$	c #606851",
"A$	c #595F54",
"B$	c #6B6561",
"C$	c #5F754B",
"D$	c #70665E",
"E$	c #757960",
"F$	c #5B833E",
"G$	c #3A5C24",
"H$	c #677A57",
"I$	c #6C6E61",
"J$	c #A99A9A",
"K$	c #6A705E",
"L$	c #4C6D33",
"M$	c #617E48",
"N$	c #6E655C",
"O$	c #56413E",
"P$	c #645C58",
"Q$	c #868276",
"R$	c #4C6D30",
"S$	c #4E7335",
"T$	c #5A6B47",
"U$	c #636259",
"V$	c #87877B",
"W$	c #6E7E59",
"X$	c #8C6F71",
"Y$	c #3E3D31",
"Z$	c #6C7D5A",
"`$	c #496B36",
" %	c #4B5A34",
".%	c #9B817E",
"+%	c #7A7570",
"@%	c #466C2A",
"#%	c #55773B",
"$%	c #74716B",
"%%	c #697260",
"&%	c #527636",
"*%	c #44652E",
"=%	c #4A5A32",
"-%	c #446629",
";%	c #5C7B48",
">%	c #607150",
",%	c #657357",
"'%	c #656C5D",
")%	c #686864",
"!%	c #807679",
"~%	c #5E7847",
"{%	c #556F41",
"]%	c #DEC2C1",
"^%	c #9F9393",
"/%	c #527637",
"(%	c #4E7336",
"_%	c #567B3C",
":%	c #4A6D2E",
"<%	c #577045",
"[%	c #76716D",
"}%	c #8E7B7C",
"|%	c #4A6735",
"1%	c #628B44",
"2%	c #70745B",
"3%	c #7B7C7A",
"4%	c #5D635C",
"5%	c #5D704C",
"  . + @ # . $ % $ & * = % % . - $ * & ; & - * > & & @ , % * ' + ) ! ~ $ { % ] ^ / ( _ : < [ ; * ' } $ | 1 2 $ 3 $ 4 1 1 5 . 4   ",
"$ - + 6 @ . $ $ & * $ 7 % $ 4 - 4 $ - & , 6 8 + > @ , > ~ % 9 $ 0 a b c d e f g h i j k l m n , o , p $ q r s t u v w w x 4 - $ ",
"_ , 6 * , ^ | , 9 > > y = z   $ A 4 $ ; * B C + } D . > y % 1 E F G H I J K L M N O P Q R P O S T U V W X Y T Z `  ...+.@.#.$ y ",
"& # - ; ^ % ^ 9 $.& $ % - %.  4 4 % & . - * + 6 9 D ; . &.% ^   *.` ` Z ..=.V -.;.>.,.>.>.>.'.).!.~.{.` ].).!.^./.(._.S :.<.[.% ",
"; ; D &.& y ^ 9 ' * * ~ }.$ 4 %.- , - . & y _ % # |.D * * & 1.2.3.4.5.5.6.7.Z 8.9.0.a.b.c.d.d.e.f.>.g.h.T i.j.j.Q 9.k.l.m.n.o.p.",
"& , & & $ &.^ ^ & $ q.~   % | r.6 6 ; ; & $ y } s.& , * $ t.u.v.w.x.c.b.,.>.y.z.A.B.e.;.c.C.D.;.D.E.,.c.F.G.H.I.J.K.a.e.L.M.N.O.",
". 9 P.& } $ ~ & - $ Q.^ > 4 ^ ; B * , & y &.$ % y 7 $ % R.S.S ~.T.U.V.C.W.b.0.X.Y.R e.c.c.W.'.d.'.L.V.c.,.;.i.Z.I.`.;.a.c.D. +.+",
"9 > > ++. % $ % } $ $ z % ; , # z ' @ > . $ > * %.1 @+#+$+%+&+X *+=+-+;+;.;.'.'.>+Y I.,+L.;.c.c.d.'+W.C.c.c.4.)+!+L.'.~+,.{+]+^+",
"/+C = ^ } & _ . % $ $ * . } . % * (+_+~ %.y & %.* :+<+^.[+e.0.'+e.;.d.5.c.c.b.'+}+n.|+,.;.;.1+c.c.L.L.c.c.d.2+M.Y.h.3+4+5+]+~.6+",
"++6 z = $ $ $ &.~ 7 5 1 ' & - ^ % } * } q.$ 4 - 7+8+9+7.J.a.d.D.c.;.c.'.a.b.L.'+0+Z a+>.V.;.c.;.c.c.c.d.d.c.e.b+c+d+e+f+g+h+i+j+",
"k++ =   $ $ $ ~ 4 1 5 | , 7 | 4 l+3 m+n+% $ $ z $ o+p+q+2+b.W.'.a.c.;.L.L.L.5.>.r+s+X.~+;.;.'.;.c.c.e.c.'.,+d.x.t+m.u+v+w+m+$ * ",
"_+, * . % $ % } 3 ~ ~ | = | ^ | x+y+~ z+^ 4 3 | * A+B+C+D+C.`.,+E+E+d.5.;.c.L.c.F+G+4.'.c.c.c.;.b.c.c.d.,+W.a.'.H+i.I+J+$ 3 3 * ",
"7 $ 4 2 ^ , 9 ^ %.$ z ^ z f K+1.L+}.| (+z+4 4 z % q.M+N+S d+t+O+C.e.'+,.f.>.P+Q+Y R+D.c.;.d.b.D.'.D.;.D.'.'.e.k.j.S+T+U+  1 3 7 ",
"% ~ z   D D . - % Q.= z _ z 5 V+W+z f 6 * % ~ %.$ ~ X+Y+-.~...Z+Z.R `+ @ @].d+{.}+e.D.;.'.c.'.D.1+e.d.c.'.0.}+.@D.+@@@#@  1 $@4 ",
"~ 4 z % . 9 D . Q.. . _ 2 4 4 }.}.- , } % $ 4 $ = $ . %@(.&@n.]..@G+A.` G.*@+@H+e.a.c.c.L.a.'.D.d.c.d.c.;.j.=@T -@Q ;@>@~ $ $@% ",
"  %.= . . & * 1 & ' f * 5 $ }.,@3 _ $ % % r.- _ % ~ , '@)@Y.!@k.'+;.4.~@O+K.>.{@;.E+'+`.c.;.'.D.'+e.'+,+b.'.X.)@'+Q ]@^@~ . C 3 ",
"1 X+W+}.  _ . z+6 $.|.++# ^ 3 ~ 3 _ * /@1 ~ q.; }.$ (@_@8.]+b+'.c.c.L.0.e.e.c.d.;.'.:@t+<@c.[@D.;+l.4.b+'+,.>.'+J.}@+.|@| ^ 4 y ",
"7 $@_   * | /+D & # /+D 9 . - 3 | 1 Q.| ~ ~ % ] % 1@2@ .Z+B.e.;.c.c.c.c.c.c.;.c.'.j.)+n.3@{@g.Z.=...4@d+!+`+;+E+2+Q 5@6@_ B   ~ ",
"7 4 > 7 , . s.* & 7@# $ % - C | + * % A $ 3 _ _+#.8@9@G.0+f.c.D.c.c.c.d.d.c.c.c.c.e.0@a+'+-@4@ . +Q+a@!@d+ .^.Q b@c@d@6@* | $ 4 ",
"X+= z 7@, , 1 % e@$ 4 % $@  - 5 |.$ %.f@| &.g@h@i@H.S+-@'+c.d.1+c.c.D.c.c.c.c.c.;.'.2+>.e.j@S k@l@m@m@m@n@o@7.Z+S+d@)@p@5 f   % ",
"4 1 . & . q@^ % r@$ y $ = ~ | B |.q.= s@t@u@v@*+` w@;.c.d.C.D.1+d.;.c.c.c.c.;.;.'.a.d.1+D.F+i.n@3.A.x@y@z@l@l@[+A.e+A@B@z+B 2 % ",
"1 - , @ * ' s.. ^ * | 4 }.- f * % C@D@E@F@&+h.i.X.e.;.D.;.;.;.D.c.c.;.c.c.c.c.c.'.b.;.'.d.G@i.H@o@G@I@y@J@I@o@K@L@M@N@' * = = _ ",
"z C s.> & - 9 ' $ ' ^ 1 O@P@Q@R@S@T@U@5+5+.@V@f.'+W.D.C.;.e.'+a.c.c.c.c.c.c.c.c.c.c.'.c.'.q+]+[+J@l@W@n@W@Z+X@y@x@M@Y@; r.* ,   ",
"- q@s.&.& 9 ; & 6 , Z@`@ #.#h.m.Q +#|+R @#&+Q l.'+d.'.b.'.c.a.L.;.c.c.c.c.c.c.;.c.c.L.d.>.0+S %+##y@y@z@z@=+M.K@$#H.%#> 7 % } - ",
"; D * C f /@C B - B &#*#=#G.-#>.J.;#=+t+O+>#,#_.'#e.d.L.c.c.d.e.c.c.c.c.c.c.c.c.c.c.L.c.c.`.)#s+A.!#~#y@y@{#H@~# +m.]#* r.* B . ",
"1 ^ }.$ B 6 | z+, ^#/#w@4+G q+(#U.x@{+D.~@'#w.F.,#0.,+c.d.'.c.c.c.c.c.c.c.;.c.c.d.e.W.c.c.d.C.X.M@S Z+ +P .@_#i.*@:#<#$ ; @ % % ",
"1 ^ ~ ~ B C | [#}#|#T.{+[@;+}@5+a@4+c@w@}@4.2+-+~@e.c.c.c.e.d.c.c.c.c.c.c.c.;.D.c.d.e.c.b.b.'+'.b@-#+@^.G.z.d+F+1#2#f@4 } . 1 $ ",
"% ^ ~ ~ _ C 3#4#S+5#]@6#-#2+x.1+I.;+>#7#8#>.[+9#c.c.W.e.;.c.e.c.c.c.c.c.c.c.c.c.,+L.d.C.c.b.a.c.1+8#>.j.'#'#6.0#a#~ 4 $ $ ~   } ",
"+ # % q.- b#c#d#I.0.>.0+%+e#0+W.0.f.J.c.f#g#}@W.L.c.c.e.W.c.e.d.;.c.c.c.c.;.c.c.b.'.c.;.;.e.c.e.;.a.c.f.b.x.X.h#i#% z ~ $ 1 % % ",
"++j#, } k#l#+@j.0.W.b.'+V.[+ +S+c@+@a@*+!+m#0.{@c.c.c.c.;.c.d.c.D.c.c.c.c.c.c.c.c.;.e.V.L.;.;.;.e.c.V.;.W.2+x@n#o#$ C 5 1 $ 4 . ",
"D p#% q#r#+@b+'+b.'.;.c.c.'.`.L@c+|+k@5.V@s#C.V.E+c.d.d.C.L.d.e.;.c.c.c.c.c.c.;.c.e.d.5.'.W.e.d.a.'.'.d.;.,..@t#u#C B z 3 4 ~ = ",
". 9 v#w#m.U.0.b.c.c.;.c.b.b.2+x#F+{+J.J.U.O O+'.c.c.e.c.d.c.e.d.c.c.c.c.c.c.;.D.c.;.e.3@E.'+c.c.D.j.e.D.b.e..@y#  $ = A A f@}.= ",
"~ > z#A#B#J.;.c.c.;.c.c.c.d.c.e.Q G K.9.^.F.'.c.;.c.c.c.D.;.c.c.c.c.c.c.c.c.;.c.1+;.D.3@f#L.D.d.c.;.{@d.d.2+e#C#D#5 ~ A 1 }.A = ",
"  $ E#!+;#'.L.c.c.c.c.c.c.c.;.e.K.7.P ]+D+>.'.V.D.c.c.c.;.c.c.c.D.c.c.c.c.c.c.c.;.a.e.;.g.;.e.;.c.L.'.'.c.L.+@F#G#% 4 4 % 4 }._ ",
"~ H#I#!@>.c.d.c.c.c.c.c.c.c.c.c.c.w.J#h.0.b.a.C.;.c.c.c.c.c.c.;.;.c.c.c.c.c.c.c.;.'.c.e.;#m@e.c.c.L.5.;+e.4.!+K#%   $ ^ 4 ~ , }.",
"* L#5@D+2+c.c.c.c.c.c.c.c.c.c.d.c.;+M#|+>.;.'.D.c.c.c.c.c.c.c.c.c.c.;.1+c.c.D.;.c.'.a.'.;+[+e.1+'.V.X.b.{@g.m.N#C ~ % q@~ 4 B | ",
"& O#h.0+'+d.L.c.c.D.c.c.c.c.c.;.2+}+G+;.;.<@c.1+c.c.c.c.c.D.c.c.c.c.;.c.c.c.c.;.;.;.'.'.5.3.d.D.'.(#f#L.,.P#Q#t.% % ^ ; 2 _ * 4 ",
"R#S#%+3@'+a.L.c.c.c.c.c.c.c.c.c.~+!+=+>.W.C.E+a.c.c.c.c.c.;.c.c.c.c.c.c.c.c.c.c.c.'.c.;.'.a+x#k.T#s#`.W.'.*+U#V#* 1 ; r.  | B z ",
"W#X#m.'.b.L.c.D.c.;.c.c.c.c.c.'.j.` P#>.'.d.1+'.c.;.c.c.c.c.c.c.;.D.c.c.c.c.c.c.c.'.a.D.e.-+X.b++@l.'.~+0+Y#Z#~ $ , $ = , ' = C ",
"z+5@*+,.c.;.c.D.c.c.;.c.c.d.c.e.g. .f#,.;.;.L.'.;.D.;.c.c.c.c.c.c.c.c.c.c.D.;.c.;.c.1+e.O+!#:@_.`#'.b.'+Q  $V#% 1 , ;   + * 4 ^ ",
".$J#].J.c.c.c.c.'.;.c.c.'.;.a.'+-#)+I.'.c.c.c.c.c.;.D.c.c.c.c.c.c.c.c.c.c.;.c.c.D.e.;.C.3@+.m.6#5.1+'.7#+.+$%   % 5   _     C ^ ",
"@$!+D+>.b.c.;.c.c.;.c.c.c.;.c.2+D+*@5.'.b.c.;.c.c.c.c.c.c.c.D.;.c.c.;.c.c.c.c.c.1+;.d.e.).Z.d+(#C.d.>.9#4+#$  % z | q.- | 5 % % ",
"$$ +t+e.d.c.;.c.c.c.c.c.1+;.d.>..@M@;.D.c.;.c.D.c.c.c.c.c.c.c.c.D.;.c.c.c.c.c.D.c.c.;.L.d.%+%+e.e.b.D.5+)@%$~ % = % $ ~   % | z ",
"&$h.P#'+d.e.c.c.c.;.'.;.c.;.c.2+.@M#V.c.'.;.c.'.;.c.c.c.c.;.c.c.c.c.c.c.c.c.c.;.;.e.c.c.j.F++@'+d.~+U.]@*$7+% q.% % 7 q.% 4 , z ",
"=$J#t+2+;.;.c.d.c.c.L.;.c.c.c.>.].8.;.d.c.c.c.d.;.c.c.;.c.c.c.c.c.c.c.;.D.c.c.c.;.;.b.0.5.A.=+,+d.e.=+-$;$_ %   } y ~ s.1 $ }.- ",
">$@#.@>.c.c.e.c.c.c.'.;.c.c.d.'+}+A.V.e.b.c.e.d.c.c.c.c.c.c.c.c.c.c.c.c.c.c.c.c.c.d.b.e.K.*@g#,.e.O+Z.,$'$_ ^ , , _ 9 ^ &.% z   ",
")$`#+@;.C.L.c.c.c.c.c.d.c.c.c.'+f#d+4.>.b.C.c.c.c.c.c.c.c.c.c.c.c.c.c.c.c.c.c.c.C.c.c.L.7#` 0@,+e.R J#!$  % ^ ' ~$; ^ % - 1 *   ",
"{$0#=@5.e.;.d.;.c.c.c.c.c.c.d.'.b+H.~#'+b.L.d.c.c.;.c.c.c.c.c.c.c.c.;.c.c.c.c.;.d.c.c.>.~@G.H+~+5.H.]$G#~ ~ * ; ^$. - $ $ % |   ",
"V#/$Z.|+>.;.c.c.d.'+L.c.c.c.'.d.>.!+.@e.c.c.;.;.c.;.L.L.e.c.c.c.c.;.;.;.;.c.c.c.E+c.c.'+`#z.b.>.($_$:$; % % W+l+. * } $ _ ^ * ; ",
"% <$g#G+j.L.'.c.L.;.d.c.c.c.'.c.{@ @G.;.{@c.;.'.c.c.;.d.c.c.c.c.;.'.'.'.c.e.L.d.c.L.c.3@*@g#8#{+h.[$' . | | $@4 , _ $ % $ . , , ",
"% o }$!@=+e.d.c.;.;.c.e.L.d.d.d.'+V.M#P#8#W.'.b.c.'.'.c.L.c.c.c.d.c.;.a.;.c.L.e.e.E.e.}+%+U.D.m.|$1$s.1 %.% 5 * & - 7 * & ; ' , ",
"~ % 2$3$h.}+`.d.e.c.c.d.c.L.e.L.5.0.-+8.4$8#c.c.;.c.c.c.d.c.c.c.'.'.c.c.'.;.d.c.W.'+3@;#5$&+6$3+7$_ . % 7 * /+z+- , 7 $ & & , & ",
"; % - 8$)@+@,#e.E+c.c.c.c.W.c.b.c.c.W.X@J#;.c.;.c.;.c.L.'+b.d.c.a.;.;.D.e.c.c.c.L.;.W.2+ @V 9$0$a$& % q.$ % # z+& ^ y % - & & * ",
", * $ b$c$d$9.~@c.L.d.0.2+>.~+~+f.>.x.W.H.*+'.0.C.c.d.c.c.c.c.c.D.c.c.;.d.c.e.d.;.;.c.,.T#I e$f$} & 5 % * | ' ^ % ^ % ^ > ; ' . ",
"; $ y g$h$d@4$'+e.4.}+}@a+T#0+0+0+V@|+9#+@z.=@0+L.e.0.e.c.c.c.d.0.d.c.'.d.c.'.d.e.a.d.'+x#e+i$4 7 % % 7   | = ^ * j$} , @ D k$; ",
". $ 4 s.l$O.)#,.W.'+O+D+!+Z.^.A.=#)+]+m$n$o$p$q$_#}+-@d.c.'+c.c.3@~@'#'.e.d.c.c.D.E+;.L.I.q+O@,@r.| C = z , % $ ; D Z@, |.; [#* ",
"_ ^ % ' * r$!#s$c.c.c.,.E+W.;+;+c@d@t$u$v$. w$k#x$y$z$A$B$c@.@+@!+=+O+e.a.c.L.L.;.e.c.'.j.5+C$$ 7 % } , B z+s.$ ^ ^ 1 % * _ ^ - ",
"z % | , ' }#D$|+'+d.L.;.L.e.`.;#%+)@E$F$; * % ^ = % ^ G$H$I$q+J$O+b+e.c.c.'.W.'.e.;.a.d.e.c@K$L$_ * } * f ' 9 * * = * ~ % - * $ ",
"~ ~ _ * , 4 M$N$e.c.c.E+b.L.V.O$P$Q$R$, $ , . | 1 * , % $ S$T$U$5.2+c.d.c.d.'+;.E+W.C.1+'.9#+@V$z . 1 $ } = - & = $ _ $ s.# C $ ",
"3 K+z * 6 - 5 W$X$L.~+,+~+`..@Y$Z$1.| - - & - = } & 1 q@= ~ &.`$ %.%e.'+W.'.'.c.b.L.c.a.,+D.w@+%@%% , $ $ 4 > , | | % , ' ^   , ",
"~ & & ; 7@# ^ #%$%*+R ].g#w@m.%%&%z - 7 % C , ^ * ; s.' ^ & $ $ *%=%!#b@>.;.d.c.b.;.;.'.>.C.g#0#-%- . $ 4   ; D ^ 5 % ; * - $ % ",
"  _ - * , # 6 - ;%>%,%'%)%!%5#~%A   - - * . . * $ . , $ = % % $ $@{%m.*+B.]%e.>.[@C.C.5.l.-+v.^%4 _ ^ $ % ~ % , , 1 % . $ $ ~ 4 ",
"% . ' ^ & & . % * $ $ % /%(%_%:%~ % $ , , * * - * % * _ - , ^ % $ <%(.[%+@q+M.X$t+!#7.B#}%}%(.`+|%* + @ 1 $ ~ & - % 5 ^ B |   ~ ",
". . , - $ ' } % , } = | . * ' ^ $ 1 % . & > * > $ , , - 1%, | , V#2%a+(.5#3%4+4%3+d@v.r+($c$`+-#5%. 7@- 5 % ~ % % | 1 * , q@}.  "};
