/* XPM */
static char * pig_eats_xpm[] = {
"64 64 498 2",
"  	c #456B2B",
". 	c #446C1E",
"+ 	c #4B7325",
"@ 	c #548126",
"# 	c #527B2D",
"$ 	c #466B32",
"% 	c #4C7332",
"& 	c #4B732C",
"* 	c #4E792C",
"= 	c #537B34",
"- 	c #496E24",
"; 	c #496E2C",
"> 	c #517634",
", 	c #3E642A",
"' 	c #41661D",
") 	c #436B25",
"! 	c #3C641D",
"~ 	c #467125",
"{ 	c #3F6924",
"] 	c #568134",
"^ 	c #4E7932",
"/ 	c #47712B",
"( 	c #5F8942",
"_ 	c #4E743A",
": 	c #597E34",
"< 	c #56803A",
"[ 	c #335A15",
"} 	c #5A8235",
"| 	c #557C3A",
"1 	c #467030",
"2 	c #5C8341",
"3 	c #52763A",
"4 	c #436532",
"5 	c #42662B",
"6 	c #4B6E39",
"7 	c #55812D",
"8 	c #3F692A",
"9 	c #37601D",
"0 	c #4A6E32",
"a 	c #5B833B",
"b 	c #3B5E24",
"c 	c #506F33",
"d 	c #3E691D",
"e 	c #638B3D",
"f 	c #4D7925",
"g 	c #679146",
"h 	c #5D893B",
"i 	c #395E1C",
"j 	c #3D6424",
"k 	c #416625",
"l 	c #51762D",
"m 	c #4F793A",
"n 	c #5A892B",
"o 	c #486E1F",
"p 	c #597E3B",
"q 	c #607F43",
"r 	c #3B5F28",
"s 	c #4F802F",
"t 	c #355C1C",
"u 	c #3C5D30",
"v 	c #587F2E",
"w 	c #366021",
"x 	c #416815",
"y 	c #4A731E",
"z 	c #60903A",
"A 	c #6A8A3F",
"B 	c #629036",
"C 	c #4A7528",
"D 	c #4C7623",
"E 	c #4D7432",
"F 	c #618642",
"G 	c #4A6E30",
"H 	c #436338",
"I 	c #527535",
"J 	c #628D28",
"K 	c #72A520",
"L 	c #619227",
"M 	c #4B7528",
"N 	c #476E2B",
"O 	c #3B6414",
"P 	c #628A43",
"Q 	c #4B6F32",
"R 	c #58842B",
"S 	c #69992A",
"T 	c #527631",
"U 	c #436151",
"V 	c #4F5F6B",
"W 	c #807A90",
"X 	c #B29DB4",
"Y 	c #D6B6D3",
"Z 	c #C6A7CB",
"` 	c #9D85B8",
" .	c #5D5398",
"..	c #353D6C",
"+.	c #547735",
"@.	c #83BD0C",
"#.	c #77AF14",
"$.	c #558319",
"%.	c #507639",
"&.	c #597C24",
"*.	c #5B8631",
"=.	c #4F7624",
"-.	c #4A6B3F",
";.	c #384C54",
">.	c #425B46",
",.	c #464380",
"'.	c #AC97C5",
").	c #F8BAD3",
"!.	c #FEB0CC",
"~.	c #FFD5E3",
"{.	c #374957",
"].	c #405949",
"^.	c #4C7327",
"/.	c #385D24",
"(.	c #61863A",
"_.	c #5A7E41",
":.	c #4B712C",
"<.	c #6C9E1B",
"[.	c #7567A6",
"}.	c #BF9DC5",
"|.	c #E5BBBC",
"1.	c #3C564C",
"2.	c #4B7223",
"3.	c #547725",
"4.	c #5E8935",
"5.	c #598428",
"6.	c #353973",
"7.	c #D47AAD",
"8.	c #38426E",
"9.	c #6B9A1D",
"0.	c #6E9942",
"a.	c #41671D",
"b.	c #59832D",
"c.	c #4C741C",
"d.	c #394C5D",
"e.	c #DEA6C8",
"f.	c #C571A9",
"g.	c #93549B",
"h.	c #7AAC28",
"i.	c #6A9345",
"j.	c #4A6D33",
"k.	c #A776AF",
"l.	c #3C2383",
"m.	c #CB74AB",
"n.	c #A176A7",
"o.	c #5C7F35",
"p.	c #527C2A",
"q.	c #425E49",
"r.	c #7A4694",
"s.	c #7E4995",
"t.	c #DB84AB",
"u.	c #4F7042",
"v.	c #608E30",
"w.	c #405A45",
"x.	c #54318A",
"y.	c #D17CA8",
"z.	c #4D6E41",
"A.	c #5A8829",
"B.	c #5A822B",
"C.	c #724292",
"D.	c #E483B2",
"E.	c #6C3F90",
"F.	c #673B8F",
"G.	c #59802F",
"H.	c #6D954F",
"I.	c #659724",
"J.	c #3A4D51",
"K.	c #E7AFBA",
"L.	c #6F4091",
"M.	c #26177C",
"N.	c #B96BA6",
"O.	c #3B5050",
"P.	c #699A22",
"Q.	c #688C42",
"R.	c #618435",
"S.	c #4C742C",
"T.	c #689821",
"U.	c #48387F",
"V.	c #28197D",
"W.	c #B266A4",
"X.	c #78AE14",
"Y.	c #64962A",
"Z.	c #638A35",
"`.	c #587E36",
" +	c #4C550A",
".+	c #533529",
"++	c #72422A",
"@+	c #774547",
"#+	c #B36789",
"$+	c #985766",
"%+	c #59381E",
"&+	c #574C05",
"*+	c #525403",
"=+	c #5A831B",
"-+	c #4C7529",
";+	c #649249",
">+	c #4C732B",
",+	c #756721",
"'+	c #E98B01",
")+	c #FD9601",
"!+	c #F99707",
"~+	c #935A08",
"{+	c #A55E72",
"]+	c #864E98",
"^+	c #E3B4BA",
"/+	c #DB8201",
"(+	c #FF9801",
"_+	c #C77701",
":+	c #51580B",
"<+	c #669520",
"[+	c #416B24",
"}+	c #527B2C",
"|+	c #93711F",
"1+	c #8A5609",
"2+	c #DD7FA0",
"3+	c #874E53",
"4+	c #E09930",
"5+	c #6B9C19",
"6+	c #5A8827",
"7+	c #6C4C07",
"8+	c #E993B5",
"9+	c #FF92B9",
"0+	c #7B4917",
"a+	c #FDC371",
"b+	c #587919",
"c+	c #4B7524",
"d+	c #5C8831",
"e+	c #58770B",
"f+	c #9D5A9E",
"g+	c #452A87",
"h+	c #522F89",
"i+	c #FFCE88",
"j+	c #699C27",
"k+	c #74A91B",
"l+	c #525607",
"m+	c #BC6CA6",
"n+	c #6C5AA4",
"o+	c #9A75AF",
"p+	c #79AF1A",
"q+	c #5E843F",
"r+	c #4E752B",
"s+	c #7FB910",
"t+	c #B16C06",
"u+	c #C6718E",
"v+	c #BE70A9",
"w+	c #699708",
"x+	c #78AD27",
"y+	c #5B8625",
"z+	c #564E08",
"A+	c #FFAF39",
"B+	c #E989AA",
"C+	c #F9BA5E",
"D+	c #F4AE48",
"E+	c #5A7805",
"F+	c #618D28",
"G+	c #507B32",
"H+	c #56771A",
"I+	c #FFA726",
"J+	c #F3B761",
"K+	c #7DB512",
"L+	c #517E2D",
"M+	c #5A8926",
"N+	c #83BC07",
"O+	c #353508",
"P+	c #722E7B",
"Q+	c #648D09",
"R+	c #89C607",
"S+	c #7CB518",
"T+	c #5E8A34",
"U+	c #4C7429",
"V+	c #76AB14",
"W+	c #4E651A",
"X+	c #959290",
"Y+	c #835414",
"Z+	c #6F6C66",
"`+	c #6C6075",
" @	c #1F2667",
".@	c #C16FA8",
"+@	c #A25D9F",
"@@	c #A45EA0",
"#@	c #351B77",
"$@	c #362081",
"%@	c #B5A7D1",
"&@	c #5E5987",
"*@	c #332B52",
"=@	c #83857C",
"-@	c #5C830D",
";@	c #73A416",
">@	c #4D742B",
",@	c #4B722B",
"'@	c #707B66",
")@	c #4E5143",
"!@	c #C7C7C7",
"~@	c #F3F3F3",
"{@	c #2E2B7B",
"]@	c #18117B",
"^@	c #C93381",
"/@	c #693A8E",
"(@	c #A7A8A6",
"_@	c #6A6D5F",
":@	c #4F782B",
"<@	c #527D20",
"[@	c #7E8476",
"}@	c #F5F5F9",
"|@	c #888688",
"1@	c #86C207",
"2@	c #526F10",
"3@	c #262E6B",
"4@	c #4A4699",
"5@	c #35318B",
"6@	c #272579",
"7@	c #5A358B",
"8@	c #AC63A2",
"9@	c #461679",
"0@	c #60892B",
"a@	c #39462B",
"b@	c #D7D7D7",
"c@	c #E6E6EA",
"d@	c #9BA099",
"e@	c #4D7231",
"f@	c #4A752A",
"g@	c #6DA024",
"h@	c #4C602B",
"i@	c #B9BAB9",
"j@	c #4C5C2A",
"k@	c #8365A6",
"l@	c #BD8CBA",
"m@	c #573F92",
"n@	c #8B5099",
"o@	c #E0A7B8",
"p@	c #517017",
"q@	c #557C32",
"r@	c #588236",
"s@	c #6D9D29",
"t@	c #527017",
"u@	c #536232",
"v@	c #648F27",
"w@	c #D5A1B4",
"x@	c #A5A7A4",
"y@	c #AFB2AF",
"z@	c #517015",
"A@	c #7AB114",
"B@	c #5E8539",
"C@	c #588039",
"D@	c #6B992F",
"E@	c #4C612E",
"F@	c #586441",
"G@	c #392B88",
"H@	c #824B96",
"I@	c #87C30A",
"J@	c #75AA26",
"K@	c #6B9D25",
"L@	c #547D23",
"M@	c #527B27",
"N@	c #64961D",
"O@	c #629123",
"P@	c #598238",
"Q@	c #578234",
"R@	c #54862D",
"S@	c #638E3D",
"T@	c #5A852C",
"U@	c #7DB51B",
"V@	c #D89AB3",
"W@	c #6D6CAE",
"X@	c #D0D0E5",
"Y@	c #C4C4DF",
"Z@	c #ADAAD1",
"`@	c #9696C5",
" #	c #8787BD",
".#	c #7F7FB9",
"+#	c #88C50A",
"@#	c #7BB222",
"##	c #629025",
"$#	c #4E792A",
"%#	c #466F24",
"&#	c #456C2B",
"*#	c #43672B",
"=#	c #557C2C",
"-#	c #608E1A",
";#	c #5A812A",
">#	c #4A2C85",
",#	c #FDFDFE",
"'#	c #5C842C",
")#	c #7AAF20",
"!#	c #608938",
"~#	c #416725",
"{#	c #436C25",
"]#	c #578121",
"^#	c #2F1C80",
"/#	c #DB82B0",
"(#	c #8F8FC1",
"_#	c #DA7DAF",
":#	c #374858",
"<#	c #699929",
"[#	c #578132",
"}#	c #527A24",
"|#	c #507B22",
"1#	c #618D26",
"2#	c #25325F",
"3#	c #725F7E",
"4#	c #2A3B5B",
"5#	c #638B2F",
"6#	c #467225",
"7#	c #6C993A",
"8#	c #618B2A",
"9#	c #679424",
"0#	c #927696",
"a#	c #EEEEF6",
"b#	c #3A2A7E",
"c#	c #2B3967",
"d#	c #58822A",
"e#	c #638C42",
"f#	c #72A625",
"g#	c #86C209",
"h#	c #77AC17",
"i#	c #4F3085",
"j#	c #60559C",
"k#	c #7CB413",
"l#	c #608E26",
"m#	c #80B913",
"n#	c #70A21C",
"o#	c #6D9E1D",
"p#	c #629419",
"q#	c #30550F",
"r#	c #578421",
"s#	c #7DB516",
"t#	c #6D9E1E",
"u#	c #679627",
"v#	c #5B892E",
"w#	c #7AB213",
"x#	c #557835",
"y#	c #6B9C2D",
"z#	c #679732",
"A#	c #E7A5C7",
"B#	c #6A9A24",
"C#	c #315611",
"D#	c #5F8B29",
"E#	c #363C71",
"F#	c #CE94BE",
"G#	c #37416E",
"H#	c #608D2A",
"I#	c #577F2D",
"J#	c #5C842E",
"K#	c #68982B",
"L#	c #537F31",
"M#	c #6FA11F",
"N#	c #76AD17",
"O#	c #547E2C",
"P#	c #698D30",
"Q#	c #6E6D7F",
"R#	c #716D85",
"S#	c #A1C539",
"T#	c #6D9C2A",
"U#	c #5A8335",
"V#	c #909766",
"W#	c #605B83",
"X#	c #817C88",
"Y#	c #3E377E",
"Z#	c #CCC495",
"`#	c #ABC353",
" $	c #649133",
".$	c #BFBD87",
"+$	c #514D81",
"@$	c #BAB392",
"#$	c #C7C38C",
"$$	c #AEC554",
"%$	c #7DB51F",
"&$	c #56812F",
"*$	c #658D48",
"=$	c #75A427",
"-$	c #B2C361",
";$	c #BCBF7E",
">$	c #8EC612",
",$	c #6DA114",
"'$	c #446C23",
")$	c #547C21",
"!$	c #6E981D",
"~$	c #88AF30",
"{$	c #8DB037",
"]$	c #829D40",
"^$	c #6E8D35",
"/$	c #567627",
"($	c #65842B",
"_$	c #577831",
":$	c #608532",
"<$	c #688A34",
"[$	c #6D8A33",
"}$	c #73942B",
"|$	c #7BA22F",
"1$	c #709C26",
"2$	c #5F8D28",
"3$	c #5D8634",
"4$	c #517E29",
"5$	c #5A7F3B",
"6$	c #376115",
"7$	c #325B0F",
"8$	c #4D781F",
"9$	c #2D5414",
"  . + . @ # $ % & * = - ; > = - , ' - & ) ! ~ { ) % ] ^ / / ( _ ; ^ : ) _ % ] = < [ * } = + | 1 2 3 4 3 % : 5 4 $ 4 6 | | & & ; ",
"; + . * @ 7 8 ) / * { ) > ; - ;   9 - = * [ [ * ) ~ | { ) ^ ^ ; ,   1 _ % 0 a < & / = = < & & % 3 % = & = 8 = 1 b 5 3 > ; 8 8 $ ",
"~ ] * * # # % } < ~ [ % c ) >   {   = & = =   * ^ & % d ^ = ^ ^   % 1 _ 8 5 a + ) : | ^ : % ~ = { e f + g 3 & * 8 ) & 5 5 $ 8 5 ",
") # *   = + ] } h { 9 = ;   % ) i & # - & < & ) = &   / a & ] * & ^ % 0 4 _ : ' ~ | < &   ~ & % ! h + } a ( | = ) / ; j , $ k 0 ",
"* # / - = > # + & /   1   ; , ) ) ~ * < ; { ; l = ^ ^ * ^ * h ~ ] / %   _ % * f ^ < = ) & ; > > % m $   * n ] * 0 ; k j k 5 ' - ",
"~ / ! d j - o 9   ; _ 1   0   ) & & & < k [ ) * ] ~ ] * / * ^ * ] * h ~ | _ + # / p & { p & 3 q _ 1 r [ ] 7 *   4 ; k -   k ' o ",
"s m / o k = = 0 $ 8 _ 1 ; 1 < % & = : /   & > / % {     { /   % { / < * = | : = l : l 5 3 0 3 c 8 ) t & ~ & ] & u c l v ; i & v ",
"s 8 & . 5 3 = k , $ w , _ 1 < < & & & ) 5 ; ' + / | , j 8 1 1 5 w j * a = = 3 % a a > p ; 5 c 5 > e x y = k % > u 0 o v ; 5 p > ",
"z w k ) _ % f 8 8 8 ~ { m |   = & } +   5 ) > 5 ] + l & ; _ a < = ~ ~ & ^ , 1 % * h h . ] < ; 4 l A ;   > > 0 5 b % ) = ' = % % ",
"B & ! +   * ) / , w ^ % 2 1 & _ _ & & _ b 0 l 5 ~ - # l &   a # / C D E _   % % # & = / = F 3 0 l ; l l   ; 0 b k { > l > = ; 0 ",
"@ = ) # > ^ & m 6 $ 2 3 | r % ; 8 4 k ; 1 0 5 0 f * k = 5 E = G H I J K L M N % O ) & % ~ _ % ; ! - > ; ; > 5 > ) k & 5 c 5   % ",
"~ = > & > ) & % 4 5   3 0 0 p > $ _ 5 * P r 4 Q R S T U V W X Y Y Z `  ...+.@.#.$.%._ 1 ;   & p k b 0 ; k ; > ) & | 5 0 5 5 0 ; ",
"j 5 k ; - * < a r 5 b > ; p q 3 0 6 0 &.*.=.-.;.>.,.'.).!.).~.~.~.~.).!.).'.,.>.{.].^./.0 = : * k b k 5 ; > p - (.< r c c _.0 i ",
"6 0 4 5 # * = ~ 3 > k 5 0 4 3 r k ; :.<.{.[.Y ).}.).|.|.|.|.|.|.|.|.|.|.|.|.).}.).Y [.1.2.- A 3.t 0 k 5 > > > = P ; 5 5 6 3 b k ",
"c - ;   4.v 1 ~ % 3 l k c r 0 5 5 > 5.6.Z !.|.|.7.|.|.|.|.|.|.|.|.|.|.|.|.|.|.7.|.|.!.Z 8.9.0.a.5 0 ; ; ; ; / ; = { % k k 0 b c ",
"; v + > b.h 5 | ; % = > _.4 4 _.  c.d.e.|.|.|.|.f.g.|.|.|.|.|.|.|.|.|.|.|.|.g.f.|.|.|.|.e...h.l 0 3 ; b p a ; | & & = ; 5 % 5 $ ",
"> i   , = i.+ } 1 < s s h m $ _ , j.k.|.|.|.|.|.|.l.m.|.|.|.|.|.|.|.|.|.|.m.l.|.|.|.|.|.|.n.o.= > %   / | ; k = ) } | f 3 # % 8 ",
"k i 5 ) & ) } } 8 m ^ / ] = / $ p.q.|.|.|.|.|.|.|.r.s.|.|.|.|.|.|.|.|.|.|.s.r.|.|.|.|.|.|.t.u.  = & = < F % ) (.! + = } j - 1 _ ",
"b k r , & ; P l j 8 3 8 8 ~ & + v.w.|.|.|.|.|.|.|.g.x.|.|.|.|.|.|.|.|.|.|.x.g.|.|.|.|.|.|.y.z.5 } * * % _ ; . 3., - % (.0 v ; 1 ",
"i 0 5 i & = / l |   ; _ j ^ ~ : A.B.C.|.|.|.|.|.D.E.F.|.|.|.|.|.|.|.|.|.|.F.E.D.|.|.|.|.|.C.G.6 ^ = = 0 0   l 3.= l ; o _.= & % ",
"  1 / j > < ) % H.{ k ; %   ) = I.J.l.C.D.|.K.f.L.M.N.|.|.|.|.|.|.|.|.|.|.N.M.L.f.K.|.D.C.l.O.P./ = _ 5 , 5 Q.R.& f l o a l & = ",
"_ { {   = % = % } ~ & { ;   0 S.T.U.|.C.M.V.M.M.x.W.|.|.|.|.|.|.|.|.|.|.|.|.W.x.M.M.V.M.C.|.U.X.Y.& 8 8 4 , p : . o : Z.> 3.> ) ",
"8 ) | & ~ ) = % ) < / ; w 2 % `. +.+++@+#+|.|.|.D.|.|.|.|.|.|.|.|.|.|.|.|.|.|.|.|.|.|.|.|.$+%+&+*+=+-+^ 3 3 ) ) ] f ) 4.5 ~ | ; ",
"  < ;+& / h & / _ 1 8 ! : & >+,+'+)+)+!+~+{+|.|.7.]+|.|.|.|.|.|.|.|.|.|.|.|.]+^+|.|.|.|.++/+)+(+)+_+:+<+[+= k l < # 9 +   ) _ $ ",
"& < p { > > & - ! & ! a # }+|+)+(+(+(+(+)+1+2+|.|.m.s.|.|.|.|.|.|.|.|.|.|.s.m.|.|.|.|.3+'+(+(+(+(+(+4+&+5+& ; p a | 0 ; d & & ; ",
"= : / ' A l - : % & & 2 6+7+)+(+(+(+(+(+(+'+$+8+D.|.7.|.|.|.|.|.|.|.|.|.|.7.9+D.8+|.|.0+(+(+(+(+(+(+a+4+b+c+5 p c r 5   * - & | ",
"& } } o : # & p = , 1 d+e+'+(+(+(+(+(+(+(+!+@+f+g+h+8+|.|.|.K.|.|.K.|.|.|.8+h+g+f+|.|.1+(+(+(+(+(+(+!+i+&+j+r 4 ; 4 4 b / = ^ & ",
"& f # ] - ' ; 3 : k   k+l+)+(+(+(+(+(+(+(+'+3+|.|.m+s.|.|.C.n+o+o+n+C.|.|.s.m+|.|.|.|.0+(+(+(+(+(+(+(+i+1+p+q+b c 4 , j   > { ; ",
"s ^ # h - ; $ > l ; r+s+&+)+(+(+(+(+(+(+(+t+u+|.|.|.|.|.]+|.v+|.|.v+|.]+|.|.|.|.|.|.|.3+'+(+(+(+(+(+(+i+~+w+x+0   3 3 k k 3 0 4 ",
"s ( & & l F & 5 - & y+z+_+(+(+(+(+(+(+A+!+++|.|.|.|.|.|.E.|.r.K.K.r.|.E.|.|.|.|.|.|.|.B+1+)+(+(+(+(+(+C+D+~+E+F+%   ; % 3 4 0 3 ",
"h s d   > l j & & G+H+_+(+(+(+I+I+A+i+J+0+2+|.|.|.|.|.|.m+g+E.E.E.E.g+m+|.|.|.|.|.|.|.|.#+1+!+(+(+(+(+(+!+_+*+K+L+  k   6 4 6 5 ",
"s s *   ; ; # v # M+N+O+'+(+D+a+C+D+t+++2+|.|.|.|.|.|.|.|.|.|.|.|.|.|.|.|.|.|.|.|.|.|.|.|.P+.+~+t+_+(+(+)+O+Q+R+S+T+k > 5 5 3 l ",
"4 5 | - - ] f * U+V+W+X+~+/+!+Y+Z+`+ @.@|.|.|.|.|.|.|.|.+@@@|.|.|.|.E.#@g+7.|.|.|.|.|.|.f.$@%@'.&@*@/+_+7+X+=@Q+-@;@>@5 _.0 0 k ",
"%   k ) = # ! ,@'@)@!@~@Z+O+t+`+%@n+{@E.m+8+|.|.|.|.|.|.|.@@h+$@l.]@P+^@^@/@|.|.|.|.K.m+E.{@n+%@'.{@&+*+W+!@~@(@!@_@:@b 5 > ; ) ",
"1 ~ ) ; : & <@[@}@~@~@|@Q+1@2@3@4@5@|@6@7@8@m.|.|.|.|.|.|.|.|.|.|.W.#@9@9@8@|.|.K.m.8@7@6@|@5@4@3@0@1@R+@.a@b@c@b@d@e@$ 5 0 0 ; ",
"% / & > 1 f@g@h@i@X+c@j@R+R+R+@. @k@l@m@g+$@n@|.|.|.|.|.|.|.|.|.|.|.K.|.o@|.|.m+W.n@$@g+m@l@k@ @@.R+R+R+R+2@c@c@)@p@q@3 0 5 c l ",
"^ & & & ; 0 r@s@t@!@~@u@1@R+R+v@k@|.|.W.g+8@h+$@C.f+8@W.|.|.|.|.|.|.|.w@|.|.|.C.$@h+8@g+W.|.|.k@v@R+R+R+R+-@x@y@z@A@B@; 5 c ; ; ",
"* ] &   1 ; { C@D@E@F@w+R+R+R+>.|.|.|.|.7@|.|.8@]@4@G@g+7@L.r.H@H@r.L.7@g+G@4@]@8@|.|.7@|.|.|.|.>.R+R+I@J@K@L@M@N@O@P@b 0 3 c b ",
"= } < & > 1 { a Q@R@S@T@O@U@R+>.|.|.|.|.l.V@W.|.E.W@X@Y@Z@`@ #.#o+ #`@Z@Y@X@W@E.|.W.V@l.|.|.|.|.>.+#@###$#%#& =   & &   > > > k ",
"h & < > ^ a ^ ^ h / ~ &#*#=#-#;#H@|.|.D.7@E.W.|.|.>#`@,#,#,#,#,#,#,#,#,#,#`@>#|.|.W.E.7@D.|.|.H@'#)#!#~#' - = { ] / = ; & % { | ",
"& & = p : ) - | < 5 , , / = {#]#;.F.E.^#g+g+/#|.|.|.g+(#}@,#,#,#,#,#,#}@(#g+|.|.|._#g+g+^#E.F.:#<#[#}#3.k 0 - ] = ^ l ) & )   a ",
"^ * a = ; k = : ~ $ 8 1 / (.* > |#1#2#4@3#|.|.|.|.|.|.x.W@c@,#,#,#,#c@W@x.|.|.|.|.8+M. @4@4#5#- e ] l > + v / /   ^ > ; a | ^ ^ ",
"= 1 & ) ; l =   ~ 1 8     e l : 6#7#8#3@9#0#|.|.|.|.|.|.s.5@Z@a#a#Z@5@s.|.|.|.|.|.|.b#9#c#d#* 5 Z./ ; 0 } f ) % 8 & ) ) a > & ) ",
"  / / / > & * > | $ ; k : p l > % e#f#g#h#i#|.|.|.|.|.|.|.|.|.j#j#|..@|.|.|.|.|.|.|.i#h#k#1 { 6 ~ * > b p l = = %   5 > p     5 ",
"    ; & ; & & ;   t   ) P > & / & P l#m#n#7@_#|.|.|.|.|.|.|.|.|.|.|.|.|.|.|.|.|.|._#7@o#p#6 ) r 5 { ) i % r ; 3.% i > _.3 5 ; 4 ",
"=   1 & i % p i { q#) = a &   % ) a r#s#n#7@@@r.8@|.|.|.|.|.|.|.|.|.|.|.|.|.|.8@r.@@7@t#u#0 + k $ / :   4 6 P + ^ { p p ; ; c ; ",
": | = ^ j % = ; & ) * : % _ % _ ) / v#w#+.V.G@` G@|.|.|.|.|.|.|.|.|.|.|.|.|.8@G@` G@V.x#y#4 l e & 0 c 0 6   = ^ < ^ | %   ; p 0 ",
"& | ) ) > | - > % ) # /   % % ) & a z#t#|.A#A#|.m.>#|.|.|.|.|.|.|.|.|.|.|.|.>#m.|.A#A# .B#$ } - ! _._ 4 % ) ) _ ^ ^ ) k     3   ",
"+ = C#; % > & | ^ { = ) &   > / 7 ;+D#E#F#|.|.|.|.x.8@|.|.|.|.|.|.|.|.|.|.|.x.|.|.|.|.F#G#H#  + % < / ^ ; % t 4 =   _ 1 j m ^ ^ ",
"= ) ) %     k a ( /   & ) w a ) ] h I#k.|.|.|.|.|.f+H@|.|.|.|.|.|.|.|.|.|.H@f+|.|.|.|.|.k.J#K## ] ) a ^ > | k j &   ~ /   | = ^ ",
"a ~ ) ~ 8 % / 8 H.^ = 5 5 ; & ^ f L#M#>#|.|.|.|.|.8@C.|.|.|.|.|.|.|.|.|.|.C.8@|.|.|.|.|.>#h#N#O#a { ( % ; 1 | & ~   ! ) & = ] ^ ",
"| = 1 = / % < ) ^ 3 _ | p ; & / # # P#Q#C.8+|.|.|.F.7@s.g.|.|.|.|.|.|.g.s.7@F.|.|.|.8+C.R#S#T#U#^ ~ _ 1 t , P h   % 9 { / / & * ",
"= ^   < P = | _ > ; 5 0 ; ; p & a v ; V#W#x.W.f.g.{@R#X#&@,.U.Y#Y#U.,.&@X#R#{@g.f.W.x.W#Z#`# $  / & _ _ { ; a h 8 ^ {   / 8   ) ",
"| ~ ) & 2 2   ) & ; % ; p : - ' - l & ' .$X+Y#b#+$@$Z#Z#Z#Z#Z#Z#Z#Z#Z#Z#Z#Z#@$+$b#Y#X+#$$$%$&$  & / | ; % | | |   < % ^ / / / { ",
"~ / & = ^   ! , | *$; j _.) l ) C#; * ) =$S#-$;$#$Z#Z#Z#Z#Z#Z#Z#Z#Z#Z#Z#Z#Z#Z##$;$-$S#>$R+,$'$0 & ~ & k ; > 0     ^ * * ~ * = ) ",
"_ / ) (.p k k   h a | 5 > ; : + { ; + ) 1 0 k = )$!$~${$]$^$/$($_$:$<$[$}$|$1$2${ 1 ^ ~ 3$4$5$2 / ] ) > ; > 3 5 d d d d 6$f ] d ",
", _ = < : & % 5 % _ $ $ 1 ; & < k , ; 7$% $ h ; 5   & > # > l > w { % ! t _ 0 3 ^ h / / _ m 1     / = ] m 2 < 8 d i k j k k % $ ",
"    & = R.= ; ! > 0 ; 5 5 / a a < j ' } | : * & 5 ; > - > > > k ) / ^ k ; | 5 0 % = t {   % ~ / 8 / = % ^ 2 ^ ^ # * k k ;   = 8 ",
"5 % k # =   | ; > _ 1 0 8 ; | ; & | } e & * 4.) $ % / & - > %   / ) # + = | ) & / < { [ ~ & ~ #   & ^   m _ d # 7 b.+ v < = = ) ",
"% 3 k & / ) a a   /   % ; | > ) ; ) = f ~ # } + 1 = > a ; l ; | l k # >   % > / ( < ] ~ / ] h ]   / ^ 8 1 { 6$7 * # v h } <   = ",
"<   / ) % a ^ ^ ) ; w ) % 3 % 0 5 & q#- o & < ] & & ( < |   1 1 0 j & _ 0 5 _ { i.d ] h ) = P ~ {   ^   1 8 ) 4.v : = p & > j 2 ",
"< ) ) ) ^ h ^ ) > &   { | ; & ; > l -   * = ^ ^ ) % :   % ; %   5 ; ; ; | $ 8 { ] f h ] j ^ 1 8 { 8 ^ 8 _   * ] = < ; : & ; 5 | ",
"# # ) ) / m <   > ; ;   > / % % _.v ) ] Z.~ 3 { 8 ^   8   p & >   0 & 1 _.j   1 / ] ;+= * < { / 5 $   { 3 / / ^   ^ & = > = $ 1 ",
"f l / d   | | % > % ) % { / & > ; v = g 8$d 1 )   : _ ~ p a > = _ & = 3 _ [ % < _ 9$= ^ a ^ / / $ / { 8 ( 1 / & 8   = > > P ; ; "};
