/* XPM */
static char * pig_l_2_xpm[] = {
"64 64 564 2",
"  	c #496E2C",
". 	c #4B732C",
"+ 	c #557C3A",
"@ 	c #4B6E39",
"# 	c #436532",
"$ 	c #466B32",
"% 	c #42662B",
"& 	c #597E34",
"* 	c #4C7332",
"= 	c #52763A",
"- 	c #5C8341",
"; 	c #487032",
"> 	c #567B3C",
", 	c #4B7325",
"' 	c #537B34",
") 	c #5A8235",
"! 	c #4E792C",
"~ 	c #335A15",
"{ 	c #56803A",
"] 	c #568134",
"^ 	c #50733D",
"/ 	c #446B26",
"( 	c #4E7932",
"_ 	c #4E743A",
": 	c #5F8942",
"< 	c #47712B",
"[ 	c #436B25",
"} 	c #3F6924",
"| 	c #467125",
"1 	c #3C641D",
"2 	c #496E24",
"3 	c #41661D",
"4 	c #3E642A",
"5 	c #517634",
"6 	c #527B2D",
"7 	c #548126",
"8 	c #446C1E",
"9 	c #456B2B",
"0 	c #3F692A",
"a 	c #496E2D",
"b 	c #527636",
"c 	c #53763B",
"d 	c #42662C",
"e 	c #3B5D24",
"f 	c #466F30",
"g 	c #527A34",
"h 	c #3E682A",
"i 	c #537A34",
"j 	c #527835",
"k 	c #476A30",
"l 	c #466432",
"m 	c #3B5829",
"n 	c #344E23",
"o 	c #405A2C",
"p 	c #3F5C29",
"q 	c #46662D",
"r 	c #42672B",
"s 	c #4A6F30",
"t 	c #587E3E",
"u 	c #5D8240",
"v 	c #506C3D",
"w 	c #4E7236",
"x 	c #467030",
"y 	c #37601D",
"z 	c #55812D",
"A 	c #636657",
"B 	c #353331",
"C 	c #160E0D",
"D 	c #352C2A",
"E 	c #453F41",
"F 	c #1C221B",
"G 	c #1C1B19",
"H 	c #785B60",
"I 	c #A6878A",
"J 	c #695E60",
"K 	c #393738",
"L 	c #0F120C",
"M 	c #262521",
"N 	c #3D3432",
"O 	c #625655",
"P 	c #846C6C",
"Q 	c #9B7B7C",
"R 	c #947C7D",
"S 	c #927679",
"T 	c #72565A",
"U 	c #4B413E",
"V 	c #2D2A25",
"W 	c #54534C",
"X 	c #476834",
"Y 	c #3E691D",
"Z 	c #506F33",
"` 	c #4A6E32",
" .	c #416625",
"..	c #486937",
"+.	c #24311D",
"@.	c #3B2726",
"#.	c #8B7375",
"$.	c #CCB3B5",
"%.	c #6B5455",
"&.	c #544C49",
"*.	c #BCA2A3",
"=.	c #B39294",
"-.	c #231D1B",
";.	c #090906",
">.	c #847373",
",.	c #C39DA2",
"'.	c #E6BDC1",
").	c #EBBDC1",
"!.	c #F3CACC",
"~.	c #FBC4CC",
"{.	c #F9C3C7",
"].	c #E5BABC",
"^.	c #2A201F",
"/.	c #3D5232",
"(.	c #4B6E35",
"_.	c #5B833B",
":.	c #395E1C",
"<.	c #5D893B",
"[.	c #446426",
"}.	c #2B3C1A",
"|.	c #6A5855",
"1.	c #DDB3B6",
"2.	c #FBCBD2",
"3.	c #CDA5AA",
"4.	c #AA8A8C",
"5.	c #7A6B6C",
"6.	c #5B4D4C",
"7.	c #E9BBBE",
"8.	c #E3B4B6",
"9.	c #EBC2C4",
"0.	c #E4B6B9",
"a.	c #E9B6BB",
"b.	c #D5B7B9",
"c.	c #4B4945",
"d.	c #1F2E17",
"e.	c #324D1F",
"f.	c #44662D",
"g.	c #436A29",
"h.	c #517A32",
"i.	c #416822",
"j.	c #547A36",
"k.	c #507930",
"l.	c #51762D",
"m.	c #66715C",
"n.	c #2E301F",
"o.	c #745B5C",
"p.	c #E3C2C2",
"q.	c #F3C4CA",
"r.	c #6B5856",
"s.	c #261817",
"t.	c #A38486",
"u.	c #F1B9BD",
"v.	c #DDBABB",
"w.	c #E8C0BE",
"x.	c #412E2E",
"y.	c #11120E",
"z.	c #44423E",
"A.	c #88716F",
"B.	c #B48E92",
"C.	c #CAA4A7",
"D.	c #9C7F82",
"E.	c #476B29",
"F.	c #416626",
"G.	c #486E1F",
"H.	c #3D6424",
"I.	c #545452",
"J.	c #322926",
"K.	c #EDC5C9",
"L.	c #5A4345",
"M.	c #A47C81",
"N.	c #D5AAAD",
"O.	c #2F302C",
"P.	c #8B7976",
"Q.	c #FAC9CE",
"R.	c #FCD2D9",
"S.	c #375123",
"T.	c #406927",
"U.	c #4F793A",
"V.	c #4F802F",
"W.	c #747371",
"X.	c #2C2523",
"Y.	c #7B6464",
"Z.	c #D5B3B5",
"`.	c #E6ADB6",
" +	c #736364",
".+	c #E5CACB",
"++	c #8C7779",
"@+	c #293421",
"#+	c #3B582D",
"$+	c #406429",
"%+	c #3F642B",
"&+	c #366021",
"*+	c #736669",
"=+	c #2D2D29",
"-+	c #1B1B15",
";+	c #4A3838",
">+	c #F2BDC4",
",+	c #C6AAAB",
"'+	c #54383A",
")+	c #6B565B",
"!+	c #534946",
"~+	c #4B3C3C",
"{+	c #1E201A",
"]+	c #45453B",
"^+	c #6F7463",
"/+	c #577F37",
"(+	c #4D7925",
"_+	c #60903A",
":+	c #4F683F",
"<+	c #4B6D30",
"[+	c #547B36",
"}+	c #527635",
"|+	c #556D3A",
"1+	c #585E51",
"2+	c #A7898A",
"3+	c #ECCBCB",
"4+	c #DAAEB3",
"5+	c #B79EA0",
"6+	c #433433",
"7+	c #444440",
"8+	c #4D7234",
"9+	c #3B5E24",
"0+	c #629036",
"a+	c #43662D",
"b+	c #5A6D48",
"c+	c #BD9B9C",
"d+	c #F2C2C6",
"e+	c #F7C9D2",
"f+	c #3E3A32",
"g+	c #4F792C",
"h+	c #3B5F28",
"i+	c #466132",
"j+	c #F6D1D4",
"k+	c #DEB5BA",
"l+	c #151512",
"m+	c #F3B5BD",
"n+	c #E4C1BE",
"o+	c #C5A6A9",
"p+	c #464B30",
"q+	c #527B2E",
"r+	c #628A43",
"s+	c #597E3B",
"t+	c #5A7E41",
"u+	c #506F34",
"v+	c #3B5330",
"w+	c #AC8D91",
"x+	c #342624",
"y+	c #998888",
"z+	c #C3A2A4",
"A+	c #EDB6C1",
"B+	c #635659",
"C+	c #485B37",
"D+	c #587A24",
"E+	c #607F43",
"F+	c #486736",
"G+	c #383D2A",
"H+	c #A5797B",
"I+	c #8D6F71",
"J+	c #937F80",
"K+	c #645A59",
"L+	c #735E60",
"M+	c #242A23",
"N+	c #526A45",
"O+	c #4D673C",
"P+	c #887978",
"Q+	c #5C5A56",
"R+	c #443D3C",
"S+	c #4B5042",
"T+	c #627356",
"U+	c #496A33",
"V+	c #587F2E",
"W+	c #5E8935",
"X+	c #4C6B35",
"Y+	c #23221E",
"Z+	c #4C4442",
"`+	c #6A5C5C",
" @	c #6D7B58",
".@	c #4F772B",
"+@	c #355C1C",
"@@	c #577F40",
"#@	c #59832D",
"$@	c #517531",
"%@	c #534544",
"&@	c #3C3B3A",
"*@	c #392E36",
"=@	c #B49B9B",
"-@	c #F6BEC9",
";@	c #BB969A",
">@	c #C2999D",
",@	c #B79396",
"'@	c #5C514F",
")@	c #537734",
"!@	c #6A9345",
"~@	c #5F7F43",
"{@	c #1E2B24",
"]@	c #3C3935",
"^@	c #433936",
"/@	c #051A07",
"(@	c #4E7034",
"_@	c #658446",
":@	c #855D67",
"<@	c #BC8791",
"[@	c #C98C94",
"}@	c #D6949B",
"|@	c #D9959B",
"1@	c #D08F93",
"2@	c #476331",
"3@	c #507832",
"4@	c #527A24",
"5@	c #516F37",
"6@	c #E4909D",
"7@	c #C48A8E",
"8@	c #B78588",
"9@	c #896669",
"0@	c #E2A3AE",
"a@	c #70635C",
"b@	c #45622E",
"c@	c #54753F",
"d@	c #4A6E33",
"e@	c #537730",
"f@	c #446B28",
"g@	c #526E3A",
"h@	c #A87A81",
"i@	c #D699A0",
"j@	c #8B6C6C",
"k@	c #9A817F",
"l@	c #311C19",
"m@	c #694C52",
"n@	c #866A71",
"o@	c #3A3C2C",
"p@	c #3F512B",
"q@	c #496734",
"r@	c #476631",
"s@	c #486832",
"t@	c #466A32",
"u@	c #507732",
"v@	c #6D954F",
"w@	c #547725",
"x@	c #647E48",
"y@	c #B67E87",
"z@	c #CD818B",
"A@	c #CC9495",
"B@	c #C68B92",
"C@	c #5D5453",
"D@	c #D3ADB2",
"E@	c #DEBDC0",
"F@	c #544848",
"G@	c #898480",
"H@	c #625857",
"I@	c #38382A",
"J@	c #3C5623",
"K@	c #496B32",
"L@	c #667C53",
"M@	c #966C76",
"N@	c #97666B",
"O@	c #67514E",
"P@	c #816466",
"Q@	c #776967",
"R@	c #45423C",
"S@	c #404E36",
"T@	c #4F6C39",
"U@	c #47712C",
"V@	c #42682E",
"W@	c #617353",
"X@	c #3A2D2C",
"Y@	c #CB9AA1",
"Z@	c #38442F",
"`@	c #4B6C3B",
" #	c #649249",
".#	c #4C6D32",
"+#	c #67695B",
"@#	c #36392E",
"##	c #644D4E",
"$#	c #1A1413",
"%#	c #9D8283",
"&#	c #D8A7AD",
"*#	c #7C726F",
"=#	c #3E322D",
"-#	c #24341B",
";#	c #5F7351",
">#	c #4B732D",
",#	c #4F6443",
"'#	c #5A5F50",
")#	c #34332D",
"!#	c #CCAAAD",
"~#	c #69605E",
"{#	c #4E4D4A",
"]#	c #74716E",
"^#	c #697559",
"/#	c #6A8A3F",
"(#	c #556B42",
"_#	c #755657",
":#	c #4B4A3C",
"<#	c #647D4E",
"[#	c #506E35",
"}#	c #4A4D41",
"|#	c #516F34",
"1#	c #515B44",
"2#	c #5D893C",
"3#	c #517239",
"4#	c #4D5C3B",
"5#	c #3E691E",
"6#	c #C29499",
"7#	c #AD9698",
"8#	c #D4A4B0",
"9#	c #584942",
"0#	c #54773C",
"a#	c #A98689",
"b#	c #484F37",
"c#	c #44662E",
"d#	c #516D47",
"e#	c #AF908E",
"f#	c #4F6040",
"g#	c #595855",
"h#	c #394430",
"i#	c #5C6354",
"j#	c #35382D",
"k#	c #567742",
"l#	c #586E4C",
"m#	c #7B7473",
"n#	c #656A59",
"o#	c #597941",
"p#	c #42692A",
"q#	c #45463E",
"r#	c #5F6656",
"s#	c #4F514E",
"t#	c #5C6F4C",
"u#	c #4D6B34",
"v#	c #64615E",
"w#	c #5C5C59",
"x#	c #547A35",
"y#	c #6A6D64",
"z#	c #6C6463",
"A#	c #5B544D",
"B#	c #53684B",
"C#	c #5A624F",
"D#	c #475831",
"E#	c #466B2D",
"F#	c #546D44",
"G#	c #6A6A64",
"H#	c #44662C",
"I#	c #466B2C",
"J#	c #6D6E67",
"K#	c #5E704B",
"L#	c #5B635B",
"M#	c #BFA5A8",
"N#	c #46543E",
"O#	c #727B66",
"P#	c #4B5D39",
"Q#	c #51763A",
"R#	c #6B6F65",
"S#	c #446B27",
"T#	c #62824D",
"U#	c #5E5A53",
"V#	c #746C6B",
"W#	c #5B6750",
"X#	c #49712B",
"Y#	c #586F49",
"Z#	c #414735",
"`#	c #997577",
" $	c #587A3F",
".$	c #5D883D",
"+$	c #48712D",
"@$	c #4F6342",
"#$	c #465238",
"$$	c #57783E",
"%$	c #57793E",
"&$	c #486931",
"*$	c #787B76",
"=$	c #60794A",
"-$	c #476A2F",
";$	c #4E6D38",
">$	c #5D5C4D",
",$	c #4C6439",
"'$	c #4B6E34",
")$	c #4F683B",
"!$	c #2B401A",
"~$	c #6A6157",
"{$	c #4F7933",
"]$	c #376115",
"^$	c #43662C",
"/$	c #5C8242",
"($	c #2E2D25",
"_$	c #43453C",
":$	c #66685E",
"<$	c #5E7948",
"[$	c #4A6831",
"}$	c #A78989",
"|$	c #51653D",
"1$	c #61863A",
"2$	c #4A6737",
"3$	c #67675C",
"4$	c #666F53",
"5$	c #466631",
"6$	c #325B0F",
"7$	c #506F38",
"8$	c #35302A",
"9$	c #71685A",
"0$	c #4D732F",
"a$	c #42692E",
"b$	c #495E3B",
"c$	c #64645F",
"d$	c #6E7066",
"e$	c #586A45",
"f$	c #537438",
"g$	c #426621",
"h$	c #5E5850",
"i$	c #5D6A49",
"j$	c #618435",
"k$	c #4F7233",
"l$	c #5F6B51",
"m$	c #5C564E",
"n$	c #445639",
"o$	c #54743E",
"p$	c #638B3D",
"q$	c #6B785D",
"r$	c #716C61",
"s$	c #577B3D",
"t$	c #4F723C",
"u$	c #534E48",
"v$	c #585E50",
"w$	c #577C3D",
"x$	c #446A28",
"y$	c #706C61",
"z$	c #627F4C",
"A$	c #6F6F68",
"B$	c #516F43",
"C$	c #30550F",
"D$	c #45652F",
"E$	c #5F6658",
"F$	c #756965",
"G$	c #6B675B",
"H$	c #546641",
"I$	c #496A31",
"J$	c #6A765F",
"K$	c #4B4F42",
"L$	c #657556",
"M$	c #527339",
"N$	c #506D39",
"O$	c #56793D",
"P$	c #416927",
"Q$	c #456B2C",
"R$	c #4C633A",
"S$	c #676E5B",
"T$	c #7E766E",
"U$	c #796C6A",
"V$	c #5F5951",
"W$	c #4D5A3B",
"X$	c #617C4D",
"Y$	c #497035",
"Z$	c #638A35",
"`$	c #4F6B38",
" %	c #4F7934",
".%	c #5C833D",
"+%	c #4E7933",
"@%	c #537B35",
"#%	c #2E5417",
"$%	c #4F733D",
"%%	c #577D3F",
"&%	c #4E7337",
"*%	c #335A16",
"=%	c #4D781F",
"-%	c #679146",
";%	c #50752F",
"  . . + + @ # $ # % & * = # = - ; > , ' ) ! ~ { ' ] * ^ / & (   _ : < < ( ] * [ } | 1 [ . 2 3 4 2 ' 5   2 ' ! . * $ 6 7 8 , 8 9 ",
"$ 0 0 a b c d e f g h i . j k l m n n o p q r s t u v w _ x 9 4   ( ( [ } + | [ ! ~ ~ ! ' 2 y 9   2   5 [ } ! < [ 0 z 7 ! 8 ,   ",
"% 0 $ A B C D E F G H I J K L M N O P Q R S T U V D W X _ x * 9 ( ( ' ( Y * . ( ! 9 ' ' . ' 9 } 9 5 [ Z * ~ | { ) * 6 6 ! ! ] | ",
"`  ...+.@.#.$.%.&.*.=.-.;.K >.,.'.).!.~.{.~.!.].$.>.^./.(.* ( . ! ] . _.< 9 . ' [ . { . 2 6 . :.[ * 9   ' y } <.) ] , ' 9 ! 6 [ ",
"2 [.}.|.1.2.3.4.].5.C 6.I ].!.).7.8.9.0.].].a.7.{.b.c.d.e.f.g.h.i.j.k.( ! ( ( ' l.  }   { ! | [ [ 4   9 x 9 < . , 6 5 ' 2 < 6 ! ",
"m.n.o.p.9.1.'.q.r.s.t.q.~.u.0.v.a.).].b.w.].].w.,.x.y.z.A.B.C.*.D.D E.< ! ] | ] ! [ ~ F.{ . . . [ 9 ` 9 x _   9 y G.2 H.Y 1 < | ",
"I.J.].!.8.K.p.L.;.M.2.0.v.].a.9.).).a.9.9.8.9.N.O.-.P.b.Q.Q.).~.R.$.S.T.9 9 } * < 5 . 9 < & ' . * { x   x _ 0 $ ` ' '  .G.< U.V.",
"W.X.Y.Z.`.a. +;.r..+v.7.7.w.].7.].0.7.a.7.].9.%.L R 2.u.8.7.9.3.B.++@+#+$+%++ < , 3   % [ . . . { { x _ 4 &+$ 4  .' = % 8 . 0 V.",
"W.*+=+O.E K -+;+].].).0.7.].).7.).].p.].].>+,+M '+p.a.7.7.1.I )+!+c.~+D {+]+^+/+% 5 [ % 9 , ) . ' 9 + U.} | 0 0 0 (+* _ [  .&+_+",
":+<+[+}+|+1+X.2+>+a.'.).'.].).).).7.].w.0.!.t.C ++3+'.0.).1.N.4+a.).).'.5+6+7+8+% l.` 9+_ . . _ _ . x - * ( &+4 < [ ! 9 , 1 . 0+",
"* 9 % Z a+b+~+v.).'.].].].'.).a.].9.7.7.7.{.P -+c+9.a.].w.v.p.d+7.9.7.7.e+B.f+g+` % ` x    .# 0   * h++ = - $ @ U.. ( 5 6 [ ' 7 ",
"  ` % % ` i+ +j+k+'.9.].).].).a.].7.7.].0.9.S l+4.!.m+m+].n+w.0.].8.].].q.o+p+q+` # h+r+! % _ $ 5 s+` ` = 9 % # * . [ 5 . 5 ' | ",
":.` t+Z u+v+w+4.x+y+K.7.7.0.'.'.w.8.7.w.].q.z+^.U b.{.`.a.].8.7.7.>+A+!.b.B+C+5  ._ 9+' D+` @ ` = E+s+  5 9+% h+_.{ ! 2    .% H.",
" .9+= @ F+G+,+H+;.I+9.0.>+a.).v.].9.>+].7.0.'.J+-+K+Z.!.2.q.{.q.K.1.z+L+V M+N+` 4 9 ` | ,      .h+= # ` %  .5 = | ' ! 6 % # ` @ ",
"Z 9+`  .O+~+Z.0.*.Z.].7.d+].0.7.0.>+A+1.9.8.a.!.P+-.N 5.t.4.4.Q Q+R+M =+S+T+U+% 0 &+. . * . 5 % % ` h+Z  .l.= * | x V+W+9   2 Z ",
"$ % * % X+~+k+).~.Q.9.).1.].w.{.9.a.).p.q.{.a.).~.=.&.F M Y+G M+Z+N -+`+ @.@& * 4   +@@ @@3 3 9 t+# # t+5 ' *   + % <.#@5 , V+  ",
"0 * 6 = $@%@K.).5+S `+R+&@*@*@)+=@{.].Z.o.P+-@].7.9.).N.;@B.>@C.>+,@C '@)@! : ) ! _ @ * s+# # 4 _ $ U.<.V.V.{ x ) , !@' 4 9 :.5 ",
"_ x 2 H.~@Q+w+L.{@^.@.]@^@6+V /@-+D.2.c+;.D Z.).].7.).9.).9.K.d+)..+*+M (@| } | ] _ % 3 . + _ . $ < ' ] < ( U.0 ) ) [ . [ % :. .",
"x   V+` _@Q+@.6+:@H+<@[@}@|@1@H+J.M Z.).R =@!.].7.].].].7.7.].8.a.)..+ +2@3@< Y 4@Y  .[ 9 < 9 ] , . | 0 0 = 0 H.l.r+  . 4 h+ .9+",
"* . ' t+5@]@L.=.6@|@1@7@8@L.9@0@:@L 4.{.K.>+a.0.].7.7.7.].7.w.w.].a.A+).a@b@c@d@e@f@% 5 < 9 } ! & | ( H._   9 + l.< ' . :.% ` :.",
"' . l._.g@D h@i@j@j@7@6@k@l@m@}@n@F Q q.a.>+7.w.).).7.7.7.7.a.a.].7.m+).Z.%.*@J.X.o@p@q@r@s@t@u@' [ 9 *    .} v@* [ { 5 H.< x 9 ",
"[ 5 w@5 x@D y@z@{@l@A@B@B@7@7@|@C@-+c+d+0.].].w.].0.].7.7.9.w.7.).9.].0.1.D@E@D@++E F@>.y+G@H@I@J@K@9   } . | ) * ' * ' 9 } } _ ",
"  + | % L@D 8@}@M@N@[@7@7@}@|@9@G ~+].7.].p.].0.7.7.7.7.0.a.a.7.].].0.'.7.).K.H+H@Y.L+O@P@,.R.).5+Q@R@S@T@U@{ [ * ' [ | . + [ V@",
"$ _ [ 9 W@7+'+<@|@6@A@A@7@H+U l+X@Y@9.7.7.).a.9.].].].).w.7.7.].7.).].7.a.9.c+r.4+).9.'.c+9@2+=. +K+R+Y+l+Z@`@_ < . <.< .  #{ 9 ",
"  . . Y .#+#@#X.L.####c.J.$#l+I.N.d+0.).0.7.).0.7.7.7.].).].].7.].7.].7.].K.2+%#Q.&#j@*#S A.U =+D !+o.#.o.=#l+-#;#>#5 5 } s+{ . ",
"+ . 2 ! 9 % ,#'#M+)#V X@E n@,.q.7.0.w.7.9.7.0.9.7.].].).7.7.7.7.7.7.).).8.].!#j@Z.9.C.S A.=.,.!#>+e+*.~#]@{#]# +R+^#l./#3 < & ' ",
". ( ' < 9+# # (#t.1.4+E@'.K.-@a.9.0.9.0.7.7.7.7.].).7.7.7.).].7.].7.7.).w.].!.;@_#,@9.R.j+2.Q.q.z+O@6+F@>.,.{.~.M.:#<#& G.) ) . ",
"  } 5 9 H.4 # [#8@j+a.'.a.].].7.0.7.7.7.7.7.9.0.7.7.7.].7.].7.7.].).].a.9.0.7.9.z+Q@o.P@>.Q@r.U x.o.,+w.d+q.a.a.q.%#}#|#] 6 (+. ",
"# ` =  . .= = 9 4.p.0.9.].].].].7.7.7.9.7.0.7.7.7.7.7.).].).7.7.7.7.7.7.a.7.8.7.~..+o.R P.P@P M k@!.!.0.9.].v.].>+9.P 1#2#6 ( V.",
"= ` # = *   9 * M.d+a.7.7.w.].7.).7.).8.9.].].).].).7.].7.].7.).].].7.7.9.7.w.w.>@Y.T 9.~.2.,+)#z+p.1.0.7.7.7.7.0.9.v.'@3#. : V.",
"% @ # @ 9  .9 x P 3+'.k+7.9.0.p.7.7.&#N.7.7.7.7.7.].].).7.7.].].).).7.0.9.8.].d+*.&.6+o+).p.&.Q+!.0.w.d+7.].].].].0.Q.2+4#5#V.<.",
"l.= % % 5  ._ x P@K.).a.4+8.u.).0.9.6#1.w.a.7.7.7.7.7.].7.7.).].).].9.].].w.].7.-@).K+-.7#O@x.8#u.7.].0.'.].9.).].].).).9#0#V.V.",
" .` ` t+%   5 5 r.9.8.9.Y@1.u.n+).,+a#>+).w.a.7.].).].7.7.].7.7.7.].7.7.].7.7.].].).'.~+y.6+3.w.7.7.7.7.).].].).A+'.v.q.M.b#c## ",
"[   5 % 9+. . V+B+Z.).7.,@Z.).0.d+%#z+d+0.p.7.].7.7.7.7.].).7.7.'.7.7.].).7.7.).7.8.!.,+-.y+{.].7.].7.].7.7.].7.a.'.].9.N.6+d#* ",
"  ` ` % $ ` .   C@,.d+d+e#=.d+7.1.Y.].).a.w.).].7.7.].7.7.7.].7.a.).].).].7.7.].7.0.8.~.B+&@d+8.0.7.).7.7.7.].7.).'.v.).q.'@f#x ",
"l.Z % ` = 5 . [ g#w+>+d+c+#.9.-@=.j@K.0.9.0.7.).7.].).7.7.7.).].7.].7.7.7.7.7.7.9.7.].~.o+L a#Q.].7.7.7.].7.).a.).).0.].{.%#h#* ",
"    Z %   s+[ . i#++q.0.Z.)+!#~.P B.!.0.w.0.].7.).].).7.).a.].).7.7.].).7.'.a.7.0.a.].7.9.c.%@>+7.].].).].].).].).0.w.v.-@5+j#k#",
"9+Z = ` 9++ 9 | l#H@9.a.9.T k@2.L.,.q.].7.9.].7.a.].].7.].].).].7.7.7.].].).).].9.9.].0.{.m#Y+3.9.].].).7.7.).].].7.].w.).Z.^@n#",
" .5 5 5 9 . . 9 o#z.C.d+!.Q C@z+R+3.).].].7.9.7.].).].).7.7.].7.).].7.].7.].7.].A+v.7.7.>+;@L I K.].0.).7.].).].0.).8.9.a.).Z+K+",
"+ } * .   ' < ] p#q#t.q.).Z.N L+U k+).].9.0.7.7.7.].).].7.7.).].].7.7.).7.7.7.).A+p.7.8.).0.X.L+{.].a.).7.a.).].].).7.].a.K.6.Q+",
"_.9 [ . [ l.( ' ] r#T K.].q.Y.y.Z+).a.7.).'.].7.7.].7.'.).].7.7.].).).].7.7.].).a.9.].).0.).R+F@9.].).a.].).].7.7.7.a.9.1.9.T s#",
"( ( + _.  5 ( 9 < t#F@C.7.u.C.V &.9.7.7.a.'.'.a.7.7.).a.].7.7.7.a.].].7.7.7.7.].].7.].7.].q.{#R+).].].).].).].].].).7.1.).K.H s#",
"[ . 5 _.[ [ . 0 * u#v#P K.0.2.v#N ].7.7.a.).].'.).].].7.7.7.).a.).).].7.].).7.7.7.7.7.w.].q.H@X@).a.7.7.7.7.a.7.).0.p.].a.!.%.w#",
"% 9 9 s+5 % 9 * ' x#y#~+Z.d+{.J+Y+v.).7.].'.'.7.].7.7.7.7.7.].'.7.].7.7.7.].7.7.9.0.7.7.0.-@z#;+).].].).].7.].7.7.w.].7.A+>+A#B#",
"#   % = t+5 :.* w@  C#Z+P+{.).a#G Z.7.0.).'.'.7.).].7.].).].].7.7.7.7.].7.].).].].7.a.a.].Q.~#6.K.].7.].].7.].7.0.w.].0.d+Z.D#E#",
"  Z     s+s+} ( , r+F#G#]@D@Q.Y@Y+,@9.0.).'.'.7.].7.7.7.7.7.7.7.].7.7.).7.7.7.7.].w.7.].7.!.F@T {.7.].7.7.).].).7.w.9.7.K.P H#' ",
"` s+  9 * + ( { ( ' I#J#B S K.1.V j@!.].).a.].7.).).].7.7.).].7.7.7.7.].].).7.7.7.w.7.a.w.4+J.R d+7.].7.7.).].].].'.7.).,+J.> & ",
"9 = 9 9  .[ ( ( _ [ [ K#L#]@a.d+z.m@!.].0.).'.7.].a.).].7.].7.7.].7.7.7.7.].).].w.a.7.a.K.>@s.M#9.].7.7.7.].a.).9.0.7.~.r.N#+ . ",
"( ( U.H.x _ 9 ' # +@* a O#N %#R.5.s.>@Q.a.7.n+7.).].).7.7.).7.w.).7.].7.].7.7.a.7.9.a.a.2.~#^@).a.7.w.w.0.7.).7.7.A+e+++B P#' , ",
"( ' + 9 < | 9 . H. .+ 5 Q#R#'+o+o+O.6+!#Q.w.v.7.7.].].).w.].0.w.].].p.).].].w.0.w.8.].).Z.J.P.{.w.7.0.a.7.7.7.)..+1.9@N I.S#[ ' ",
"( ] ' . [ 1 9 | . + x   * T#U#U M#V#!+x.4.].9.7.].).).].0.].w.p.d+].a.).9.7.).>+0.9.a.!.%.X@k+a.8.7.a.].K.!.7.&#k@_#S !+W#[ | _.",
"! . < < } y * 9 <.r+4 +@x _ X#Y#Z###].y+r.N.w.m+].7.0.7.9.w.7.0.v.0.).7.8.u.7.7.7.1.!.`#x+=@!.!.d+q.7.1.>@>.O@W j@C.$.]@ $x ' + ",
"[ 9 0 < 9 } ( 0 .$_.  } _ _ . +$@$N '.!.'.v.p.>+w.w.0.w.7.`.7.9.9.w.].w.].].w.0.~.'.++-.&@n@Y.`+K+6.N V D F@++,+K.2.I+#${ 9 ( ' ",
"} < < < ( * { 9 $$%$+ *   + < . &$B+'.'.a.m+9.0.0.9.].].d+7.7.8.8.0.7.7.7.9.9.9.w+F@O.*$&@l+$#L M+{#>.4.D@>+q.-@].).H =$. [ | + ",
"[ ' ! | ! ! ( 9 -$;$5    .. | . d@Y.>+'.7.m+7.p.).).N.3.D@0.!.K.q.q.d+9.].Z.2+o.>$,$'$}+)$!$M  +`.7.{.q.9.].'.A+7.].~${$' . < | ",
"Y ] (+]$Y Y Y Y ^$= 5   5 [ ] < /$#.~.7.].p.0.7.a.).1.z+A.U _#>.Q@O %@F@6+($_$:$<$ .` x [ [$W ~.7.7.7.0.0.w.'.0.q.}$|$s+1$[ < _ ",
"$ *  . .H. .:.Y 0 { - U.] ' < 9 2$D.{.7.].).].).).).7.9.Z.o.-+;.L y.l+&@I.3$4$5$  <.$ * 6$7$8$y+{.7.7.a.d+0.'.].).9$0$& { ' _ 4 ",
"0 ' 9    . .! 6 ( ( - ( * ' < a$b$M#K.0.7.7.7.a.].a.).7.).'.D@S ]@E c$d$e$f$  % . ! & + ) g$h$D ,+'.].w.7.7.].9.o+i$' j$' . 9 9 ",
"[ ' ' { V+, #@z 6 Y _ U.9 ( k$l$m$].7.].p.0.7.].p.].7.>+a.!.k+m@n$o$5 2 . < * $ [ W+! . p$) q$U _#3+].0.7.`.7.K.r$s$9 ' 6  .* % ",
"' 9 { ) <.V+6 ! z ]$} x 0 ( t$u$B.{.a.0.].7.].p.].].0.7.K.D.~+v$w$  l.  _.5 ' x , ) 6 | (+' x$y$@.#.3+7.u.!.K.`#z$_.[ < .  .= * ",
"- H.5 . s+' & V+W+[ 0 x 9 ( 9 i#!#{.>+).).a.a.'.`.9.!.Z.)+U A$B$x x 9 + { : . . ] { . G.2 C$. D$E$Z+H@P.F$G$H$I$( ( _.* [ < 9 { ",
"+ %   . &   { ' ] ! 9 _ 0 ( 0 J$Q@7#!#b.K.K.~.>+{.].=@!+K$L$a % 9 *   * 9 & * [ ( ( ' ! 9 2 l.5   M$N$O$P$Q$. 5 [ ( <.( [ [ [ { ",
"x $ ' 5 ' . ( 9 ( < < = } 9 $ R$S$T$U$B+`+P@I+P o.V$W$X$Y$. ` 9 5 . s+9 0 9 ( 0 } = | Z$] [ V+t+* * < 5 9     5 9 { U.< [ [ 6 6 ",
"`$  r+5 5 ' 9 0 . < x : 0 } < $ < U@ %.%+%@%#%$%%%&%*%_ = ' . _ ' 5 _.s+| _ & 9 [ x Y =%-%' V+  5 . < } * [ * 5 * + + 9 Y < l.;%"};
