/* XPM */
static char * pig_l_3_xpm[] = {
"64 64 593 2",
"  	c #496D2D",
". 	c #42662B",
"+ 	c #51763A",
"@ 	c #578141",
"# 	c #4C7333",
"$ 	c #547B3A",
"% 	c #3E6A29",
"& 	c #456634",
"* 	c #576844",
"= 	c #6F6B5B",
"- 	c #5E694A",
"; 	c #5A7844",
"> 	c #55773F",
", 	c #46672D",
"' 	c #56763E",
") 	c #5E7E49",
"! 	c #56723D",
"~ 	c #5C7842",
"{ 	c #58733E",
"] 	c #5E7F45",
"^ 	c #597B3A",
"/ 	c #446E23",
"( 	c #345D15",
"_ 	c #597E3C",
": 	c #527B35",
"< 	c #5A833C",
"[ 	c #517534",
"} 	c #446633",
"| 	c #4E7933",
"1 	c #5E8941",
"2 	c #4F793A",
"3 	c #4D792D",
"4 	c #46712B",
"5 	c #3D691E",
"6 	c #457125",
"7 	c #436B25",
"8 	c #527832",
"9 	c #4A732D",
"0 	c #456B2C",
"a 	c #466C31",
"b 	c #4A6D32",
"c 	c #467031",
"d 	c #558134",
"e 	c #4E792E",
"f 	c #5A753E",
"g 	c #726455",
"h 	c #4A672D",
"i 	c #365B23",
"j 	c #426031",
"k 	c #4A4534",
"l 	c #282529",
"m 	c #0C140D",
"n 	c #392F30",
"o 	c #1D2822",
"p 	c #0E1512",
"q 	c #252925",
"r 	c #2C2E2A",
"s 	c #2B2A25",
"t 	c #2A322B",
"u 	c #34342D",
"v 	c #585A55",
"w 	c #696D5F",
"x 	c #6D7654",
"y 	c #5A7E3D",
"z 	c #3D6324",
"A 	c #56813A",
"B 	c #3E6924",
"C 	c #396317",
"D 	c #496E25",
"E 	c #416525",
"F 	c #3A5E22",
"G 	c #426E1F",
"H 	c #4E7F24",
"I 	c #466B28",
"J 	c #536E3C",
"K 	c #576848",
"L 	c #33442C",
"M 	c #1A2B0E",
"N 	c #373C38",
"O 	c #474946",
"P 	c #0F1A11",
"Q 	c #2B2423",
"R 	c #6F5E63",
"S 	c #7E5E61",
"T 	c #493F42",
"U 	c #1B1D19",
"V 	c #231C1A",
"W 	c #1A1A15",
"X 	c #332D2A",
"Y 	c #645453",
"Z 	c #6B5557",
"` 	c #5B504F",
" .	c #4B413E",
"..	c #2D3B2C",
"+.	c #557344",
"@.	c #486C39",
"#.	c #4E7339",
"$.	c #598436",
"%.	c #3D6325",
"&.	c #525042",
"*.	c #141513",
"=.	c #A78789",
"-.	c #D4B2B5",
";.	c #544444",
">.	c #6A625D",
",.	c #AC999B",
"'.	c #1A1714",
").	c #9A7D82",
"!.	c #C39DA2",
"~.	c #EBBDC1",
"{.	c #FAC4CC",
"].	c #F3C5CA",
"^.	c #EDC4C9",
"/.	c #DCACB5",
"(.	c #BC9A9B",
"_.	c #736966",
":.	c #3E3F33",
"<.	c #475737",
"[.	c #5B6C45",
"}.	c #506D39",
"|.	c #4D7335",
"1.	c #51762C",
"2.	c #3E642A",
"3.	c #669245",
"4.	c #13120D",
"5.	c #7D6C6C",
"6.	c #E6BDC1",
"7.	c #FDCBD3",
"8.	c #D3ABAE",
"9.	c #B9908E",
"0.	c #B19195",
"a.	c #3C2D2D",
"b.	c #332B1E",
"c.	c #C7A6AA",
"d.	c #E6C1C2",
"e.	c #EBC2C4",
"f.	c #E9BBBE",
"g.	c #EAB6BB",
"h.	c #F2B6BE",
"i.	c #F3C2C6",
"j.	c #FFCCDA",
"k.	c #C4A3A5",
"l.	c #443C3A",
"m.	c #2E322A",
"n.	c #2E3D24",
"o.	c #314921",
"p.	c #3B5A25",
"q.	c #435532",
"r.	c #5B7742",
"s.	c #5F8842",
"t.	c #5D7D3C",
"u.	c #3B631D",
"v.	c #496727",
"w.	c #4D6431",
"x.	c #517B2E",
"y.	c #3C6124",
"z.	c #927375",
"A.	c #E2B4B6",
"B.	c #E4C1BF",
"C.	c #9A807F",
"D.	c #23221C",
"E.	c #54534D",
"F.	c #DDBBBB",
"G.	c #E2B8B7",
"H.	c #E5BBBC",
"I.	c #E4B6BA",
"J.	c #745C5D",
"K.	c #314B23",
"L.	c #517836",
"M.	c #4C6D34",
"N.	c #476B2E",
"O.	c #476C38",
"P.	c #4A7426",
"Q.	c #416126",
"R.	c #F4C9CC",
"S.	c #AC9394",
"T.	c #433534",
"U.	c #F2BCC3",
"V.	c #DDB5B9",
"W.	c #DEC1BE",
"X.	c #947B7C",
"Y.	c #9B8484",
"Z.	c #ECBBC6",
"`.	c #F9C9CF",
" +	c #CCADB1",
".+	c #4F4A3B",
"++	c #3B5E28",
"@+	c #5A7F2B",
"#+	c #507734",
"$+	c #6C6463",
"%+	c #DDB4B5",
"&+	c #D4ABB2",
"*+	c #D9A5AC",
"=+	c #F8BCC6",
"-+	c #BEA4A3",
";+	c #332B25",
">+	c #F5CCD2",
",+	c #C9A8A9",
"'+	c #314522",
")+	c #537340",
"!+	c #385D1E",
"~+	c #5D8A3C",
"{+	c #4A6B33",
"]+	c #332524",
"^+	c #373A39",
"/+	c #E9C0BE",
"(+	c #9D7B7C",
"_+	c #BA9EA1",
":+	c #8C7579",
"<+	c #65645F",
"[+	c #4A4F40",
"}+	c #687950",
"|+	c #628B44",
"1+	c #496731",
"2+	c #64734B",
"3+	c #68645A",
"4+	c #3C3A34",
"5+	c #CCA5AA",
"6+	c #8B6A6D",
"7+	c #7D6262",
"8+	c #624C4C",
"9+	c #2C372B",
"0+	c #638543",
"a+	c #587638",
"b+	c #53832E",
"c+	c #5B6B40",
"d+	c #8E8381",
"e+	c #413836",
"f+	c #B68E92",
"g+	c #CAA2A5",
"h+	c #574849",
"i+	c #3D5A2D",
"j+	c #597D42",
"k+	c #4C6D3A",
"l+	c #585956",
"m+	c #3F4435",
"n+	c #517838",
"o+	c #506F33",
"p+	c #4D6D3B",
"q+	c #4D4A45",
"r+	c #656763",
"s+	c #D5A6B0",
"t+	c #160B0C",
"u+	c #331F20",
"v+	c #D6B9B9",
"w+	c #795557",
"x+	c #C6969C",
"y+	c #4C4841",
"z+	c #566F44",
"A+	c #61863C",
"B+	c #618644",
"C+	c #537541",
"D+	c #4C4542",
"E+	c #755455",
"F+	c #D1A5AA",
"G+	c #363531",
"H+	c #4C3D3C",
"I+	c #977C81",
"J+	c #3A4C2D",
"K+	c #4C6C34",
"L+	c #4B732E",
"M+	c #435F2E",
"N+	c #486B30",
"O+	c #B99499",
"P+	c #C5AAAB",
"Q+	c #AD8D92",
"R+	c #846E70",
"S+	c #4C443B",
"T+	c #374B28",
"U+	c #537439",
"V+	c #567C41",
"W+	c #4E6D37",
"X+	c #CDAAAD",
"Y+	c #211917",
"Z+	c #1B211B",
"`+	c #314129",
" @	c #466033",
".@	c #5E883E",
"+@	c #5C8442",
"@@	c #567737",
"#@	c #4A4940",
"$@	c #857976",
"%@	c #594D4B",
"&@	c #43413C",
"*@	c #362527",
"=@	c #7C6769",
"-@	c #8B7374",
";@	c #847373",
">@	c #727360",
",@	c #628144",
"'@	c #496D2E",
")@	c #476B38",
"!@	c #689047",
"~@	c #4F812C",
"{@	c #33541B",
"]@	c #426526",
"^@	c #5C6D4D",
"/@	c #52423F",
"(@	c #94767A",
"_@	c #3C3432",
":@	c #415B2C",
"<@	c #5F8843",
"[@	c #616C4C",
"}@	c #3D483A",
"|@	c #64794F",
"1@	c #5B8937",
"2@	c #526D43",
"3@	c #B47E89",
"4@	c #C58A8D",
"5@	c #DA929C",
"6@	c #D28B93",
"7@	c #E79DAA",
"8@	c #DC9BA3",
"9@	c #3B312E",
"0@	c #7D605E",
"a@	c #746363",
"b@	c #2E451D",
"c@	c #54743E",
"d@	c #628A45",
"e@	c #558135",
"f@	c #467126",
"g@	c #456B28",
"h@	c #4B7921",
"i@	c #4A732E",
"j@	c #4F7930",
"k@	c #55723F",
"l@	c #7A7C5F",
"m@	c #626059",
"n@	c #5A6C48",
"o@	c #466B2D",
"p@	c #39512B",
"q@	c #836866",
"r@	c #D88DA1",
"s@	c #74625E",
"t@	c #DEBEC1",
"u@	c #786864",
"v@	c #2C4B1C",
"w@	c #507733",
"x@	c #527934",
"y@	c #406129",
"z@	c #314425",
"A@	c #313D29",
"B@	c #444538",
"C@	c #524E41",
"D@	c #474335",
"E@	c #373931",
"F@	c #3C3C3B",
"G@	c #696858",
"H@	c #5C713F",
"I@	c #355B1D",
"J@	c #5A833D",
"K@	c #393727",
"L@	c #B48B8E",
"M@	c #BE8A8E",
"N@	c #CB8C94",
"O@	c #B3787E",
"P@	c #66514D",
"Q@	c #8A6967",
"R@	c #F1BABF",
"S@	c #756F6C",
"T@	c #776A68",
"U@	c #67635A",
"V@	c #81766A",
"W@	c #53643E",
"X@	c #75A154",
"Y@	c #577142",
"Z@	c #483032",
"`@	c #B98588",
" #	c #C48C95",
".#	c #836B6C",
"+#	c #756C6A",
"@#	c #787369",
"##	c #56753B",
"$#	c #6D6E5F",
"%#	c #544946",
"&#	c #8A7977",
"*#	c #616651",
"=#	c #586F42",
"-#	c #6B6F58",
";#	c #383D38",
">#	c #93666B",
",#	c #D2B0AF",
"'#	c #7C736F",
")#	c #4C513F",
"!#	c #5F7249",
"~#	c #446B26",
"{#	c #446A2C",
"]#	c #334920",
"^#	c #292F24",
"/#	c #242422",
"(#	c #826062",
"_#	c #E9CBCC",
":#	c #634748",
"<#	c #454638",
"[#	c #517239",
"}#	c #46622E",
"|#	c #25301A",
"1#	c #674E51",
"2#	c #5C4444",
"3#	c #745E61",
"4#	c #8B646A",
"5#	c #9A757A",
"6#	c #94807E",
"7#	c #625A55",
"8#	c #4C5839",
"9#	c #557635",
"0#	c #4C5142",
"a#	c #A99898",
"b#	c #485837",
"c#	c #556F40",
"d#	c #4F733A",
"e#	c #5F5C51",
"f#	c #DEC1C3",
"g#	c #4D5449",
"h#	c #666F4F",
"i#	c #507238",
"j#	c #635552",
"k#	c #A77B7D",
"l#	c #3C443C",
"m#	c #6F6C63",
"n#	c #54723A",
"o#	c #4F6B36",
"p#	c #607B45",
"q#	c #49682F",
"r#	c #56763F",
"s#	c #516B37",
"t#	c #544D4A",
"u#	c #486733",
"v#	c #5F7542",
"w#	c #6B5B5A",
"x#	c #465E30",
"y#	c #4D6C36",
"z#	c #CC9EA3",
"A#	c #28201D",
"B#	c #856E71",
"C#	c #52574A",
"D#	c #476832",
"E#	c #487033",
"F#	c #474C45",
"G#	c #3E4530",
"H#	c #4B6C36",
"I#	c #5F8748",
"J#	c #58554B",
"K#	c #B29B9C",
"L#	c #537141",
"M#	c #6A6D59",
"N#	c #56793E",
"O#	c #67794F",
"P#	c #85706E",
"Q#	c #577A40",
"R#	c #4D7330",
"S#	c #444539",
"T#	c #5C8041",
"U#	c #5B684F",
"V#	c #42352E",
"W#	c #5E8840",
"X#	c #58733F",
"Y#	c #4D524B",
"Z#	c #231C22",
"`#	c #557E38",
" $	c #727164",
".$	c #58793E",
"+$	c #537140",
"@$	c #565B52",
"#$	c #645C5C",
"$$	c #58783F",
"%$	c #6A6F59",
"&$	c #4C4741",
"*$	c #515142",
"=$	c #497034",
"-$	c #4F6639",
";$	c #4C5648",
">$	c #62704E",
",$	c #68705F",
"'$	c #69645B",
")$	c #4A7035",
"!$	c #5B6E47",
"~$	c #3E443B",
"{$	c #6F7863",
"]$	c #5B6F4D",
"^$	c #34322A",
"/$	c #E2AFB4",
"($	c #3D463C",
"_$	c #5A7145",
":$	c #51663B",
"<$	c #71675F",
"[$	c #7D5C5D",
"}$	c #4F5F42",
"|$	c #537B30",
"1$	c #4D7334",
"2$	c #706E5B",
"3$	c #544D45",
"4$	c #271719",
"5$	c #5A7C42",
"6$	c #4E7733",
"7$	c #385126",
"8$	c #433F32",
"9$	c #476A30",
"0$	c #445832",
"a$	c #4D7733",
"b$	c #CDB5B6",
"c$	c #846569",
"d$	c #191D20",
"e$	c #587940",
"f$	c #3F6925",
"g$	c #507835",
"h$	c #456031",
"i$	c #B09894",
"j$	c #6A7551",
"k$	c #44692C",
"l$	c #436A25",
"m$	c #466B2E",
"n$	c #607A4D",
"o$	c #222E13",
"p$	c #618846",
"q$	c #6A944C",
"r$	c #456B27",
"s$	c #446B30",
"t$	c #555545",
"u$	c #7A6B63",
"v$	c #49603A",
"w$	c #3D6224",
"x$	c #4A6D2E",
"y$	c #466034",
"z$	c #736C63",
"A$	c #548230",
"B$	c #5B674F",
"C$	c #978686",
"D$	c #20301A",
"E$	c #44642F",
"F$	c #4C7234",
"G$	c #73735F",
"H$	c #655E59",
"I$	c #2D4321",
"J$	c #4E7039",
"K$	c #525849",
"L$	c #67774E",
"M$	c #507935",
"N$	c #605E57",
"O$	c #9C8682",
"P$	c #3D5D25",
"Q$	c #697854",
"R$	c #343125",
"S$	c #556D3F",
"T$	c #597941",
"U$	c #443F39",
"V$	c #E5B5B8",
"W$	c #B59F95",
"X$	c #5A7340",
"Y$	c #4F7336",
"Z$	c #636757",
"`$	c #6B6B5C",
" %	c #667A4E",
".%	c #4F7934",
"+%	c #576C4C",
"@%	c #D3B2AE",
"#%	c #5F7847",
"$%	c #63784D",
"%%	c #655E53",
"&%	c #618343",
"*%	c #5F7245",
"=%	c #696A60",
"-%	c #60754B",
";%	c #5E7449",
">%	c #485642",
",%	c #7B6C6A",
"'%	c #656856",
")%	c #496838",
"!%	c #467128",
"~%	c #7A665C",
"{%	c #567B41",
"]%	c #476B2F",
"^%	c #4C6D36",
"/%	c #486B31",
"(%	c #536B3D",
"_%	c #6D765A",
":%	c #697259",
"<%	c #5A6449",
"[%	c #5F5E51",
"}%	c #867573",
"|%	c #576748",
"1%	c #4D6B38",
"2%	c #40682C",
"3%	c #496439",
"4%	c #567B3D",
"5%	c #648B49",
"6%	c #4E7336",
"7%	c #5D8142",
"8%	c #55773D",
"9%	c #597E40",
"0%	c #305818",
"a%	c #4D7331",
"b%	c #3D691F",
"  . + @ # $ % & * = - ; > , ' ) ! ~ { ] ^ / ( _ : < # [   # # } | 1 | 2 # 3 4 3 5 6 7   8 9 0 a 0 # [ + b c 0 0 # 0 3 d 6 e f g ",
"0 h . 7 + # i j k l m l n o p l q r s s t u v w x y # h + c a z 6 A c % B 4 4 6 3 C D : 9 7 0 7 0 E b + F 7 9 7 4 0 # : G H 9 I ",
"E 7 J K L M N O P Q R S T U V W X T Y Z `  .u V ..+.@.E + 2 2 0 4 A #.% B | d 3 9 9 [ 9 3 7 7 0 0 h 0 b 7 B % $.[ # | : 6 3 3 7 ",
"c %.&.*.n =.-.;.>.,.S '.'.T ).!.-.~.{.].].^./.(._.:.<.[.}.|.c 4 9 _ #.0 6 : d d 9 1.1.7 : 9 0 0 E h 2.0 #.4 6 3.< : + _ # 3 : 3 ",
"0 z 4.5.6.7.8.9.0.a.b.5.c.d.e.].~.f.f.f.f.g.h.i.j.k.l.P m.n.o.p.q.r.c c # : 3 s.t.u.. 9 | 6 : v.z . w.b 0 c 3 d A | # c 9 9 x.3 ",
"9 y.z.{.h.A.B.C.D.E.-.].i.g.6.F.f.f.G.H.H.I.i.~.).a.'.l.Y J.Z Y Q K.0 c | |   < L.B 7 0 # 3 : 0 B # M.N.a $ 4 0 | # O.7 0 9 x.P.",
"< Q.6.i.g.R.S.4.T.d.U.V.W.f.f.I.f.6.d.H.g.~.6.X.P s Y.I.Z.`.^.e. +.+++  0 # 0 a 9   0 . 4 | :   9 < 9 7 #.$ % 0 # c # b 9 6 3 3 ",
"@+#+$+c.%+&+T.l *+e.H.f.=+g.f.~.~.I.6.~.Z.~.-+Q ;+-+>+~.6.H.i.U.j.,+'+)+B _ # z 3 !+0 2 B 6 $ 9 ~+| 4 # a a 0 # #.% c $ : 5 % d ",
"$ {+]+t ^+l P =.`.g.f.f.G.e.I.f.~.e.H./+V.{.S P (+>+V.~.f./._+:+_.<+W [+}+|+| # . 1+2.c # 9 |+# +   : # 9 c z #.| 0 0 _ + . 4 ~+",
"c 0 2+3+$+n Y e.V.e.f.f.H.G.6.f.f.H.f.G.e.-.a.4+f.H.~.g.f.5+(+6+7+8+T.'.9+0+9 % . . a c # 9 $ h a+#   1 : @ z % c 0 7 b h 9 9 b+",
"# . . c+d+e+f+{.e.G.g.e.e.e.~.f./+f./+g.{.-+*.5.i.f.6.V.e.H.~.{.].`.I.g+h+i+# 4 b 0   # 9 7 . }     E _ # j+b k+c 4 7     [ x.b+",
"# a . 1+$+4+e.-+k.d.f.g.G.f.g.f.H.f.f.f.~.g+V l+^.G.G.d.F.H.H.H.G.G.F.{.-.m+n+c o+h E A A 7 o+k+[ a+# 9 + 0 0 . 2 #.a + c # 9 1.",
"E . j+p+q+r+s+t+u+v+H.g.e.f./+H.H.H.I.~.6.6.w+W x+`.U.g.f.6.B.v+A.H.6.I.^.y+z+c . h E A A+  b O.a+B+a+E a+0 0 F : d | $ a a . 0 ",
"0 F C+1+l.).Z.D+E+/+f.H.f.f.H.f.U.H.6.H.H.=+F+G+H+c.].~.=+g.U.~.=+].U.>+I+J+K+c . 0 b L+: a+E M+. + h E   #.: + 4 d $.$ 0 O.1+0 ",
"+ z 7 N+l.O+U.W.d./+f.U./+e.H.f.f.H.H.H.H.6.R.=.V X X.k.-.V.I./.P+Q+R+S+T+U+0 7 7 . 0 b # _ 0 b a } . b E # _ V+c | | : c b 1+O.",
". #.  W+4+X+{.i.].%+%+8.8.%+].].H.f.d.^.i.G.F.{._+;.Y+W u G+G+X Q Z+`+ @.@: P.O.B 7 2.# 2 0 B E @ 2.a +@#.$ < c V+| 9 : # E E   ",
".   a+@@#@A.*+$@%@&@*@;+Z+s %@Q+].f.f.S.S.Z.~.I.i.f.g+(+7+J.=@-@;@U >@,@|+:   #.| #.a : : O.1+E '@)@2 !@b+~@1 3 _ : 7   #.{@!++ ",
"a c [ ]@^@>.b.U 4+H+E+/@;.a.4.4.(@`.8.4.4.&+U.H.g.~.~.^.^.^.].>+Z._@:@<@3.3 7 # b+# b   1.j+a+# [@}@D+|@d ~+1@# : |+9 # 0 0 !+E ",
"a 0 9 v.2@D.E+3@4@5@6@7@8@5@3@9@D.&+~.0@a@I.f.H.~.f.G.H.~.~.g.g.~.Q+b@c@d@e@f@g@h@7 h i@E j@k@l@m@l+q+n@o@$.7 c 9 A : # z E !+F ",
"O.9 $ < p@q@5@r@4@4@4@C.4+0@7@s@m Y.`.{.i.f./+f.H.d.H.H.H.f.H.g.t@{.u@v@w@x@y@z@A@B@C@D@E@q l F@G+O+;.G@H@. 7 3.: 9 [ # E 0 # I@",
"b 4 _ J@K@L@M@;.w+O+N@O@b.P@5@Q@W C.].I.H.H.g.R@A.H.6.6.H.H.f.f.H.R@A.$@q@(.S.S@;@X.x+~.g./.` p T@*+]+U@V@W@7 X@9 _ |+$ 0 # $ 2.",
". 4 9 Y@Z@`@4@s Z@ #N@N@N@N@x+P@4._+R.A.d.e.G.f.U.~.~.g.f.f.f.6.f.G.e.].R.0./@w+T@5.s@.#P+(+H++#R.=.r T.Y @###$ # |+< 3 7 : 7 + ",
"# # 3 $#Q =.8@3@M@N@6@N@5@N@E+Y+%#F.f.H.f.6.6.B.6.f.g.H.f.~.f.f.f.F.H.f.x+8+-+d.~.H.X+&# .h+=.{.e./@&#t@(@%@*#=#A _ 6 % 4 < 0 4 ",
"b c # -#;#;+>#4@4@4@4@O@s@9@'.T.*+e.G.~.g.~.6.h.H.6.6.f.6.f.f.f.U.6.H.{.Q+z.`.,#.#8+%@=@0.V.`./+J.E.f.U.{.V.'#)#!#4 A | 4 < B+0 ",
"9 3 9 7 ~#{#]#^#/#/#/#*.*.;+=@-.i.H.H.H.f.f.f.H.f.f.f.f.f.f.f.f.6.G.f.e.5+(#&+_#~.5+-.{.7.^.s+%#:#8.e.I.g./+].0.<#[#a+: 0 4 < P.",
"9 9 9 4 0 B }#|#8+1#2#3#=.X+].6.H.f.f.H.I.e.f.H.f.f.f.f.f.f.f.f.f.6.f.H.^.x+4#5#k.I.v+x+6#7#a.S B.e.f.f.f.H.H.].-+8#9#[ 0 0 _ 3 ",
"# # $ # 0 . . 0#e.e.^.].].f.U.f.H.H./+H.H.e.%+e.f.f.f.f.f.f.f.f.I.].H.g.6.6.&+5#a@8+P@%#8+a@]+&+e.G.f.I.f.f.A.f.].a#b#c#0   _ | ",
"a #.# a 2.} d#e#e.G.H.A.f.f.A.g.H.H.V.e.%+A.f.f.f.H.f.f.f.f.f.f.6.g./+H.~.6.^.>+f#7#F+e.>+8.u 5+U.6.f.6.e.f./+f.g.`.$+g#h#0 $ | ",
"+ b # O.a 1+i#j#6.H.f.~.6.H.H.e.f.H.d.8. #f.f.H.H.f.f.H.6.f.f.f.f.f.f.~.f.I.6.k#P@l+g.=+e.&# .I.f.f.H.e.H.I.f.g.G.h.H.l#m#n#< b+",
"+ 0 0 a+a+# o#a@i.I.f.~.%+f.H.H./+H.G.C.%+f.f.f.6.f.f.f.H.f.f.f.f.f.f.f.f.f.e.F+J.9@$+U.5+W =.{.f.f.f.I.A.f.e.f.H.h.{.d+4+p#3.1@",
"b . . b o+  q#7#].g.e.I.L@A.i.H.H.^.k#g+e.f.f./+f.f.f.f.f.f.f.f.H.H.f.f.f.e.I.i.j.=.U 7#H+%@6.B.6.G.f.~.i.f.H.f.~.I.6.6.T.r#1 d ",
"O.+ b M+1+b s#t#6.f.G.^.(+L@e.G.i.x+(+d.H.H./+g.f.f.f.H.f.f.H.f.6.f.f.~.H.I.6.G.I.>+).W ;.V.6.g.G.e.H.f.f.f.6.f.f.W.H.=+-@u#1 4 ",
"} 1+} + a b v# .A.f.F.].L@T@e.f.~.T@5+].H.g.e.f.f.f.f.f.f.6.f.f.f.f.f.f.H.f.f.H.f.G.{.w#9@~.e.g.H.f.f.f.f.H.f.f.f.H.G.e.8.x#z #.",
"h b . + . h y#&@z#/+H.i.z#h+v+R@g+w#H.g.H.f.H.f.H.f.f.f.f.H.f.H.f.f.f.H.f.f.f.6.f.H.e.8.A#B#i.H.f.f.f.f.f.f.f.f.f.6.f.f.6.C#D#a ",
"+ #.h 0 #.b E#F#=.i.H.~.%+T.S.7.-@a@R.A.~.f.H.6.f.f.f.f.f.f.f.6.6.H.f.6.f.f.f.f.f.H./+{.a@D.*+e.f.f.f.H.f.H.f.f.H.f.f.f.R.&#G#H#",
"  b b #.I#$ c J#$+i.A.f.e.Z s@`./@X.e.f.f.g./+f.f.H.6.f.f.f.f.f.f.f.f.f.f.f.f.f.6.f.H.=+P+Z+Q@R.f.H.f.f.H.f.f.f.6.I.f.h.i.K#X L#",
"E + . [   _   M#q+6.~.F.].=.D+x+;+0.e.f.f.H.6.f.H.f.f.f.6.f.f.f.f.H.f.f.6.H.f.f.6.f.H.R@e.%#X f.f.H.f.~.f.f.6.f.6.G./+g.~. +_@N#",
"0 [ #   u.# # O#^+k.=+%+Z.5+E.P#;+g+^.g.f.H.~.f.6.f.f.f.H.f.f.f.f.f.f.f.f.f.f.f.~.G.f.G.].X.W O+e.g.f.f.f.H.6.G.f.e.H.H.U.6.T Q#",
"h E @ $   9 | R#S#7+].6.~.I.$+&@4+/.^.G.f.H.h.f.f.f.f.f.f.f.H.f.H.6.f.f.f.f.H.f.6.~.F./+U. +D..#].H.f.f.g.H.6.f.g.U.H.H.~.~.%@T#",
"_ 7 # $ G 3 _ # U#V#A.f.6.=+B#q &@U.~.6.f.F.~.f.f.f.f.H.f.f.f.f.f.f.f.f.f.f.f.f.Z.H.H.H.f.F.a.%@].H.H.f.f.f.6.g.6.f.H.B.g.i.7#W#",
": c #.  . b $ 9 X#Y#).{.G./+0.Z#Y ~.g.H.H.6.6.~.f.f.f.f.H.6.H.f.f.f.f.f.6.H.f.f.f.f.f.H.f.=+h+G+~.f.f.H.f.f.f.f.H.=+f.F.g.].Z `#",
"9 2 #.a+b # 2 0 #  $%@V.H./+%+s 7#].f.H.6.6.I.~.f.f.~.f.~.H.f.f.f.f.f.f.H.f.f.f.H.f.~.W.I.].a@_@f.f.f.f.f.f.f.f./+g.H./+f.f.T .$",
"7 : b b b % #.0 + +$@$X.].H.6.n #${.f.f.H.6.6.g.f.6.g.H.6.g.f.f.f.f.f.f.f.f.f.f./+g.f.H.I.{.$@_@f.f.f.6.f.f.f.f.H.H.f.H.^.K#n $$",
"0 #     # % 0 #.# + %$&$8.~.6.l.%@^.I.6.g.6.6.f.f.H.H.~.f.f.f.f.f.f.f.f.6.f.f.f.e.I.f.B.f.{.:+e+6.H.f.f.H.H.6.f./+6.I.U.e.%#*$=$",
"  0 b + _ #.7 # 0 + -$;$;@{.Z.;.9@Z.f.f.g.~.6.~.H.f.f.H.f.f.f.f.f.f.f.f.H.f.f.H.f.f.f.H.g.R.#$;.e.f.H.f.f.f.f.H.f.A.~.i.(.X >$7 ",
"  . # # a+$ z : | _ . ,$4+/.>+.#W  +i.%+f.~.V.~.f.f.f.f.f.f.f.f.f.f.f.H.f.f.f.f.H.e.H./+g.R.e+Z ].f.g.f.f.f.f.I.f.f.6.f.;.'$)$# ",
"[ + +   [ : | $.A V+b !$~$(#].k.U (@i.G.f.6.G.f.f.f.f.f.f.6.H.f.f.f.H.H.H.6.f.f.f.H.G.f.U.,#]+).].6.H.f.f.H.f.f.g.].d.7+W {$+ < ",
". a+O.E 0 9 3 3 | # c '@]$^$/$H.r 2#e.e.H.f.e.g.f.f.6.H.f.f.f.f.f.f.f.f.f.f.f.f./+V.e.H.i.L@A#P+~.f.H.f.H.H.f.i.i.(.w+t#($_$3 : ",
"|   < z 0 _ 0 #.. {@a+  L+:$<$>+;.V '#_#U.H./+f.f.f.f.g.f.f.f.f.H.f.g.H.g.f.f.H.H.f.f.I.^.8+;.6.V.A.U.h.=+`.Z.f+[$7#z#=@}$|$$ 9 ",
"A 3 : b   0 B : E z # + [ < 1$2$3$#$4$=@v+Z.U.H.H.f.6.H.e.g.f.f.B.B.d.e./+H.H.e.H./+g.{.S.4$X+j.R.e.^.F.,.T@D+_@5#v+Z.T 5$v.# 3 ",
": _ | 3 0 u.7 9 : : # # # _ 0 6$7$S.Q+a.Y &+g.G.f.f.f.H.f.H.H.H.U.g.I.~.f.6.f.~.H./$].k./#t#Q+).B#3#l.q s l.Y.6.{.^._+8$e@9 9 # ",
"4 : 9   9 u.# 7 A < # F # c B 3 9$!.7.-+&#g+U.e.e.g.f.H.g.H.f.f.H.f.~.f.f.6.f.I.e.{.(.r *.Z#*.*.p 4.1#I+5+6.].Z./${.$+0$| c 0 0 ",
"0 9 4 7 $ % 2 #.$.|+# . # + 6 3 a$=.{.g.^.f.~.I.F.H./+].f.i.e.g.d.V.G.I.6.I.i.{.b$c$4$U Z#Z#d$o Y+I+_#{.h.f.H.H.f.H.A#e$A 0 c | ",
"| A | f$g$3 $ # : < # # c _ 4 | h$k.U.h.f.H.6.6.H.g+O+x+g+8.v+^.=+{.7.~._#e.i$j$k$l$m$n$o$Z#4$p E+^.H.H.H.H.f.G./+k.O p$| 7 # : ",
"| q$d r$8 : A 4 c + 9   7   9 s$t$ +].f.f.G.].I.G.f.8.(@Z@u+T.%@a@c$-@u$v$w$z O.h E # x$y$'.4$%@W.d.A.i.H.f./+f.R.6#z$+@0 0 7 4 ",
"7 3.3 3 A$3 | : # 0 $ # 9   | B$Y d.H.H./+e.A.f.U.H.e._#C$&@4.m p *.D$E$a a . E + 3 9 : F$o l+6.H.H.f.I.~.f.f.g.H.a@G$| A B 9 | ",
"0 _ 7 c 2 | $ : % I#@ 3 A | | H$S ^.~.~.f.H.f.f.H.f.g.f.].v+(+T q I$J$c 7 + . z   < 3 0 ~#K$Y Z.6.f.H./+/+G.G.].,.T@L$+ 3 : #   ",
"0 c c # v.7 4 c 6 A A _ 4 | M$N$&#d.I.f.H.H.e.f./+f.~.f.%+e.>+O$P$c $   2.$ # # + : # : A Q$R$;@R.H.f.f.g.f.H.e.T@:+S$_ A | c 0 ",
"    j+B+0 0 0   3 0 b # 0 | T$U$x+i.f.f.f.g.g.I.G.H.H.~.V$W$X$6 0 a # c 0 : 4 #.: # # 9 : Y$Z$t x+i.g./+f.G.].x+`$ %v.: 3 u.# a ",
"#   _ B+# # : # : B 0 a 0 .%+%'#~.f.f.I.f./+H.e.~.f.g.@%#%3 9 0 # a   $ < _ N.| [ 0 4 7 0 # $%Y#;.v+e.U.i.e. +%%&%< 9 D 4 4 $ } ",
"+       3 # _ $ : 9 #.1+4 *%=%Y.].f.f.f.6.f.f.%+I.].Z.-%9 [   z 0 0 0 $ < < 3 3 a+9   3 B 7 0 ;%>%%@T@T@,%'%)%!%9 _ _ 1.9 4 c 1+",
"h h E   : # : #.: # 0 + 0 ~%C$=@=.g+-.e.U.Z.j.U.~.b$_.{%b   h z 7 | 9 4   : # 9 9 : 3 : 0 2.0 0 #.M.]%^%/%o@4 2 7 P._ : 9 6 % #.",
"0   $ # _ : #.4 #.0 E $ 7 g$c (%_%:%<%[%a@-@}%|%1%2%3%4%#     b 9 _ | 4 7 # # 4 G [ 9 + # # V+0 # : # : 0 E 0 #.2 # [ 9 : A 9 #.",
"1+a 5%: # : # | c 0 # @ 6 B | 0 # 3 6%7%8%9%0%# B+  I@$ [ 3 # # : $ $ _ 9 # | 9 o@a%b%9 : 0 $ 2.$ _ | | # 3 | | c A _ 0 6 3 P.# "};
