/* XPM */
static char * house_3_xpm[] = {
"64 64 625 2",
"  	c #466C31",
". 	c #4E7933",
"+ 	c #4D792D",
"@ 	c #457125",
"# 	c #558134",
"$ 	c #456B2C",
"% 	c #4C7333",
"& 	c #44692B",
"* 	c #467031",
"= 	c #4A6D32",
"- 	c #51763A",
"; 	c #517534",
"> 	c #4A732D",
", 	c #496D2D",
"' 	c #436B25",
") 	c #3D691E",
"! 	c #46712B",
"~ 	c #4F793A",
"{ 	c #4B7531",
"] 	c #4D7134",
"^ 	c #253C1A",
"/ 	c #1B1657",
"( 	c #6F6EB6",
"_ 	c #8E8CC5",
": 	c #8B8AB0",
"< 	c #7865A7",
"[ 	c #464686",
"} 	c #425F42",
"| 	c #527A35",
"1 	c #597E3C",
"2 	c #345D15",
"3 	c #426E1F",
"4 	c #517B2E",
"5 	c #56813A",
"6 	c #4A722D",
"7 	c #578141",
"8 	c #547B3A",
"9 	c #496731",
"0 	c #4A672D",
"a 	c #446633",
"b 	c #3E6A29",
"c 	c #42662B",
"d 	c #4E7F24",
"e 	c #527B35",
"f 	c #426A24",
"g 	c #3A5E22",
"h 	c #416525",
"i 	c #496E25",
"j 	c #396317",
"k 	c #3E6924",
"l 	c #436E27",
"m 	c #A29DBF",
"n 	c #FDFEFB",
"o 	c #FDFDF4",
"p 	c #F7F5F5",
"q 	c #C8CEDA",
"r 	c #6C7785",
"s 	c #517A36",
"t 	c #598436",
"u 	c #365C22",
"v 	c #517434",
"w 	c #547D33",
"x 	c #4E7339",
"y 	c #6E7671",
"z 	c #FCFFE9",
"A 	c #ACABBD",
"B 	c #557849",
"C 	c #6A944C",
"D 	c #587638",
"E 	c #537541",
"F 	c #3D5E2B",
"G 	c #527736",
"H 	c #669245",
"I 	c #3E642A",
"J 	c #51752C",
"K 	c #51762C",
"L 	c #E5E4EC",
"M 	c #AAADBF",
"N 	c #52783C",
"O 	c #5D8A3C",
"P 	c #62923E",
"Q 	c #5B8937",
"R 	c #61863C",
"S 	c #3D6324",
"T 	c #558039",
"U 	c #496727",
"V 	c #3B631D",
"W 	c #5E8941",
"X 	c #548034",
"Y 	c #426729",
"Z 	c #365147",
"` 	c #8174AC",
" .	c #E2DCEB",
"..	c #656093",
"+.	c #395C22",
"@.	c #4F812C",
"#.	c #53832E",
"$.	c #4A7426",
"%.	c #466B37",
"&.	c #4B7233",
"*.	c #5A833C",
"=.	c #46692C",
"-.	c #385046",
";.	c #7455A3",
">.	c #C9C4D9",
",.	c #304F38",
"'.	c #4C7233",
").	c #5E7D64",
"!.	c #CDD0D1",
"~.	c #F5F3F3",
"{.	c #48536F",
"].	c #385D1E",
"^.	c #588240",
"/.	c #6D799B",
"(.	c #53655F",
"_.	c #476C38",
":.	c #5A7F2B",
"<.	c #628B44",
"[.	c #486630",
"}.	c #406329",
"|.	c #4B7232",
"1.	c #41622A",
"2.	c #56792B",
"3.	c #40632C",
"4.	c #41652B",
"5.	c #4C6E34",
"6.	c #4A7330",
"7.	c #4C6D3A",
"8.	c #597D42",
"9.	c #4A6C32",
"0.	c #497029",
"a.	c #38591B",
"b.	c #365825",
"c.	c #456B31",
"d.	c #44672D",
"e.	c #3F5F28",
"f.	c #5B873B",
"g.	c #628649",
"h.	c #506F33",
"i.	c #395826",
"j.	c #29411E",
"k.	c #253338",
"l.	c #0F102D",
"m.	c #02010B",
"n.	c #213718",
"o.	c #3E6621",
"p.	c #2D4B1E",
"q.	c #243519",
"r.	c #324D18",
"s.	c #3A6020",
"t.	c #618644",
"u.	c #476A2C",
"v.	c #2E491D",
"w.	c #182427",
"x.	c #594599",
"y.	c #684A99",
"z.	c #764DA4",
"A.	c #2D1752",
"B.	c #020112",
"C.	c #243718",
"D.	c #3B6527",
"E.	c #3D6929",
"F.	c #2A451B",
"G.	c #241858",
"H.	c #29225D",
"I.	c #55387C",
"J.	c #4E7532",
"K.	c #435F2E",
"L.	c #3C5D25",
"M.	c #1E322A",
"N.	c #372679",
"O.	c #89589B",
"P.	c #DAA8C7",
"Q.	c #96599C",
"R.	c #9769A6",
"S.	c #E8A5B9",
"T.	c #B784A9",
"U.	c #784C9A",
"V.	c #2B1870",
"W.	c #243A36",
"X.	c #466C34",
"Y.	c #4D7833",
"Z.	c #3C5D29",
"`.	c #18261B",
" +	c #E8ABD7",
".+	c #C897C4",
"++	c #4A6C38",
"@+	c #537638",
"#+	c #3C6022",
"$+	c #213513",
"%+	c #1E1768",
"&+	c #7658A7",
"*+	c #C995B9",
"=+	c #E094AC",
"-+	c #ECA4AC",
";+	c #8B619B",
">+	c #674AA6",
",+	c #E897B8",
"'+	c #E29AAD",
")+	c #DD9AAC",
"!+	c #9469B3",
"~+	c #553F85",
"{+	c #2E3950",
"]+	c #324D29",
"^+	c #2D461C",
"/+	c #1B280E",
"(+	c #060B13",
"_+	c #F6C4D5",
":+	c #4A722E",
"<+	c #4A6B37",
"[+	c #325222",
"}+	c #5C8442",
"|+	c #3B6028",
"1+	c #27411A",
"2+	c #171839",
"3+	c #B68EB3",
"4+	c #E799A6",
"5+	c #EB9CAB",
"6+	c #9E709F",
"7+	c #795499",
"8+	c #A979B5",
"9+	c #D798B9",
"0+	c #EA9CB2",
"a+	c #DC9AB2",
"b+	c #B97BB3",
"c+	c #6D519D",
"d+	c #2B2867",
"e+	c #02032B",
"f+	c #03021C",
"g+	c #FBBCD3",
"h+	c #E7ACC9",
"i+	c #597D3F",
"j+	c #33541B",
"k+	c #4C7331",
"l+	c #547739",
"m+	c #517A34",
"n+	c #3F6028",
"o+	c #1B2D27",
"p+	c #B175C4",
"q+	c #E8ADD2",
"r+	c #FDBAC4",
"s+	c #D68BA5",
"t+	c #E49BB9",
"u+	c #C78AB6",
"v+	c #8667B2",
"w+	c #593CA3",
"x+	c #ECC1C8",
"y+	c #5D8744",
"z+	c #476F2B",
"A+	c #618943",
"B+	c #54773F",
"C+	c #283C13",
"D+	c #D493B2",
"E+	c #E39BB3",
"F+	c #A975A8",
"G+	c #FAC2C6",
"H+	c #E9B7BC",
"I+	c #EAB7D5",
"J+	c #F4BBCC",
"K+	c #7B5CA5",
"L+	c #CB8BAC",
"M+	c #C991AD",
"N+	c #7B5A9C",
"O+	c #546D5E",
"P+	c #3F6727",
"Q+	c #203436",
"R+	c #563A97",
"S+	c #E4B2C5",
"T+	c #EDB3CA",
"U+	c #F4AED5",
"V+	c #FBBDCD",
"W+	c #CBA5BB",
"X+	c #9572B3",
"Y+	c #D48DB2",
"Z+	c #C685A8",
"`+	c #835A9D",
" @	c #48457F",
".@	c #3C5D2C",
"+@	c #355B1D",
"@@	c #568034",
"#@	c #42652C",
"$@	c #333A66",
"%@	c #A56CB2",
"&@	c #D88DB5",
"*@	c #AB86B8",
"=@	c #EBB4BD",
"-@	c #F5BBD3",
";@	c #E8B9C6",
">@	c #F9B9D9",
",@	c #E5B5CA",
"'@	c #DB94AC",
")@	c #D9A2B5",
"!@	c #544C8A",
"~@	c #4D7339",
"{@	c #75A154",
"]@	c #496C31",
"^@	c #3B5A28",
"/@	c #283263",
"(@	c #C489AD",
"_@	c #DD94BA",
":@	c #9873AC",
"<@	c #F4B4D2",
"[@	c #FDC2CD",
"}@	c #F9B8C6",
"|@	c #ECB3C5",
"1@	c #574CA5",
"2@	c #8D64A3",
"3@	c #D896A4",
"4@	c #9C769A",
"5@	c #546B56",
"6@	c #436434",
"7@	c #436532",
"8@	c #344B27",
"9@	c #1F2839",
"0@	c #B67AA8",
"a@	c #F3A3B5",
"b@	c #BB83AC",
"c@	c #CDADCC",
"d@	c #98A8C9",
"e@	c #B2CBC9",
"f@	c #7155B4",
"g@	c #8365A9",
"h@	c #A26EA4",
"i@	c #DB8DAC",
"j@	c #90699D",
"k@	c #3E4F60",
"l@	c #375A2B",
"m@	c #537A39",
"n@	c #577537",
"o@	c #38512F",
"p@	c #3B2987",
"q@	c #7A55A3",
"r@	c #F2B5CC",
"s@	c #CCD2D5",
"t@	c #D2D7E6",
"u@	c #646AA6",
"v@	c #FCC2D2",
"w@	c #F2B3C5",
"x@	c #6B488C",
"y@	c #AA749C",
"z@	c #D297CB",
"A@	c #6A54A5",
"B@	c #1E2844",
"C@	c #385A1E",
"D@	c #47712B",
"E@	c #33454E",
"F@	c #C484AC",
"G@	c #97639B",
"H@	c #F4ACC9",
"I@	c #ECAEC5",
"J@	c #696599",
"K@	c #B292C9",
"L@	c #EDB9CC",
"M@	c #F4B8B9",
"N@	c #483988",
"O@	c #2F4525",
"P@	c #3C5C29",
"Q@	c #416824",
"R@	c #497225",
"S@	c #314644",
"T@	c #553E86",
"U@	c #E68FB1",
"V@	c #ACB2CE",
"W@	c #7584B3",
"X@	c #B9B5CC",
"Y@	c #95A7BD",
"Z@	c #B6ABD8",
"`@	c #73549B",
" #	c #8867A8",
".#	c #E296B3",
"+#	c #16282B",
"@#	c #31511A",
"##	c #436A25",
"$#	c #4E722A",
"%#	c #385A2C",
"&#	c #3F4675",
"*#	c #DB94B3",
"=#	c #7379AB",
"-#	c #F1ACC4",
";#	c #9B77B9",
">#	c #436C29",
",#	c #486C2D",
"'#	c #3E6127",
")#	c #293F1D",
"!#	c #1C204A",
"~#	c #ECB3D2",
"{#	c #F29EB5",
"]#	c #494F80",
"^#	c #527838",
"/#	c #2B451A",
"(#	c #1B2D1F",
"_#	c #4B3C97",
":#	c #BAB7D5",
"<#	c #E388A9",
"[#	c #A1759F",
"}#	c #3F5556",
"|#	c #4F7434",
"1#	c #20133E",
"2#	c #6A3E9D",
"3#	c #FAAED4",
"4#	c #8870C3",
"5#	c #4D4B93",
"6#	c #DB6C94",
"7#	c #E7759D",
"8#	c #DB799C",
"9#	c #39525B",
"0#	c #496631",
"a#	c #598736",
"b#	c #47682F",
"c#	c #231B67",
"d#	c #F477A3",
"e#	c #3F5E30",
"f#	c #558034",
"g#	c #5A843E",
"h#	c #48702F",
"i#	c #3E5D3C",
"j#	c #525A77",
"k#	c #30306A",
"l#	c #3B5E2B",
"m#	c #476A39",
"n#	c #C793C0",
"o#	c #3B5738",
"p#	c #456936",
"q#	c #4D782D",
"r#	c #A88998",
"s#	c #3C5238",
"t#	c #756988",
"u#	c #30493D",
"v#	c #736B9F",
"w#	c #B885B6",
"x#	c #324F3E",
"y#	c #4E7239",
"z#	c #56468F",
"A#	c #865EA3",
"B#	c #A469A6",
"C#	c #8857AE",
"D#	c #314F3B",
"E#	c #5F8748",
"F#	c #48348B",
"G#	c #344D3C",
"H#	c #3D3780",
"I#	c #D592AC",
"J#	c #D48DAD",
"K#	c #37543B",
"L#	c #3E535F",
"M#	c #C17DAF",
"N#	c #8458A7",
"O#	c #8B5DA3",
"P#	c #3F6335",
"Q#	c #3E623B",
"R#	c #462B88",
"S#	c #563A89",
"T#	c #4F703D",
"U#	c #4C7237",
"V#	c #925CA6",
"W#	c #4E7336",
"X#	c #648B49",
"Y#	c #50742C",
"Z#	c #6E5E92",
"`#	c #4B7437",
" $	c #4F695E",
".$	c #4B6F37",
"+$	c #466C39",
"@$	c #4B3A99",
"#$	c #B7809F",
"$$	c #43682B",
"%$	c #4D6F37",
"&$	c #426924",
"*$	c #4C6F3A",
"=$	c #3C6224",
"-$	c #486937",
";$	c #2A2274",
">$	c #4D7732",
",$	c #3C5828",
"'$	c #4C772C",
")$	c #486D30",
"!$	c #24351E",
"~$	c #1D1487",
"{$	c #42662A",
"]$	c #2F4E1E",
"^$	c #080638",
"/$	c #6A5699",
"($	c #2C4B18",
"_$	c #3C5F3D",
":$	c #596D9B",
"<$	c #849BB6",
"[$	c #1D2844",
"}$	c #2B4932",
"|$	c #4C7637",
"1$	c #67778E",
"2$	c #A9B0CA",
"3$	c #B1D4CB",
"4$	c #B5DDBB",
"5$	c #A9CBD4",
"6$	c #84A2B3",
"7$	c #5F6C97",
"8$	c #405D45",
"9$	c #466F31",
"0$	c #416053",
"a$	c #899FA9",
"b$	c #BCE4BA",
"c$	c #AEDACD",
"d$	c #B3DBCB",
"e$	c #535798",
"f$	c #BDE4D2",
"g$	c #BAE4C4",
"h$	c #4B6862",
"i$	c #4A6F31",
"j$	c #4D5C7B",
"k$	c #A4C2C3",
"l$	c #B8E6C9",
"m$	c #ADD4D5",
"n$	c #9DC6C3",
"o$	c #A4CABA",
"p$	c #5A6BA4",
"q$	c #5C669A",
"r$	c #8CB2AD",
"s$	c #B5D9D4",
"t$	c #B1D4C4",
"u$	c #A3BDB6",
"v$	c #537B42",
"w$	c #385753",
"x$	c #8EA1B2",
"y$	c #A6D1C3",
"z$	c #B8E5D2",
"A$	c #9BBAC7",
"B$	c #6A76A9",
"C$	c #9BC5B7",
"D$	c #A3CCC2",
"E$	c #7791AB",
"F$	c #4C7635",
"G$	c #4E7836",
"H$	c #89A593",
"I$	c #AACDC3",
"J$	c #312E8C",
"K$	c #B3DCC5",
"L$	c #ADD4C4",
"M$	c #AEDAC4",
"N$	c #92B99E",
"O$	c #5A7D50",
"P$	c #ABD3BA",
"Q$	c #97B9B8",
"R$	c #A7C5C7",
"S$	c #87A5B9",
"T$	c #7C94B3",
"U$	c #768FAD",
"V$	c #7386AE",
"W$	c #AAD7BB",
"X$	c #8AAC95",
"Y$	c #467032",
"Z$	c #94B798",
"`$	c #C1E5CF",
" %	c #B6E2CB",
".%	c #BBE3CC",
"+%	c #BADDC9",
"@%	c #ABD3BD",
"#%	c #6D8783",
"$%	c #406148",
"%%	c #ADD4CA",
"&%	c #45644D",
"*%	c #45702B",
"=%	c #3F6341",
"-%	c #5F737C",
";%	c #9CBAB8",
">%	c #6A77A6",
",%	c #304255",
"'%	c #56793F",
")%	c #546A70",
"!%	c #677790",
"~%	c #90AFB6",
"{%	c #A6C8D0",
"]%	c #7A8EC3",
"^%	c #3A4862",
"/%	c #3C5A2B",
"(%	c #466B31",
"_%	c #4E7040",
":%	c #557854",
"<%	c #708D73",
"[%	c #83AA8D",
"}%	c #9BBFA9",
"|%	c #A2CDB1",
"1%	c #596BA1",
"2%	c #414F6E",
"3%	c #40613A",
"4%	c #517934",
"5%	c #46693D",
"6%	c #597277",
"7%	c #66769F",
"8%	c #688094",
"9%	c #708C8E",
"0%	c #799191",
"a%	c #83A599",
"b%	c #9FA8BC",
"c%	c #A1C7B6",
"d%	c #B2D6D0",
"e%	c #A5CBC8",
"f%	c #90AFB5",
"g%	c #8AACA5",
"h%	c #8396A8",
"i%	c #7F949E",
"j%	c #788F91",
"k%	c #6C898C",
"l%	c #648086",
"m%	c #516876",
"n%	c #496264",
"o%	c #384E4E",
"p%	c #395839",
"q%	c #466739",
"r%	c #436D2A",
"s%	c #507537",
"t%	c #3B5C26",
"u%	c #4A7138",
"v%	c #5B7C54",
"w%	c #577956",
"x%	c #567954",
"y%	c #547B49",
"z%	c #4D733C",
"A%	c #517539",
"B%	c #547B3F",
"C%	c #365B25",
"D%	c #496D32",
"E%	c #618546",
"F%	c #4C7236",
"G%	c #2F581C",
"H%	c #56813B",
"  . + @ # + $ % $ & * = - ; % $   $ > + , ' @ ) + ! + % ~ { ] ^ / ( _ : < [ } | 1 2 3 4 5 > . 6 7 8 ' 8 8 9 9 0 a b 8 % 7 - c , ",
"' > d 3 e % $ ! f > ' g - = h $ ' $ ' > e i j + @ ! ! k b * 5 l m n o o o p q r s i 4 t e % . . % e . c 1 c c -   u % - ' c 0 $ ",
"' + + @ e . % v w b k ' = $ 0 $ $ ' ' + > ; > > + # . k b x 5 ! y p z p p p o z A B t e + % > # + 7 5 > C D c E a F '   ' = ' h ",
"+ e + % 1 - e G H @ ! x $ I 0 h $ $ > e ' J K > # # e @ $ x 1 > ! _ L o z p p p n M N , > $ > e b O P Q R 8 c E F 9 = ' c $ S * ",
"+ 4 > > * % { T # + * $ = h c S U e @ . > c V # W + e % * * 8 $ X Y Z `  .n o o p z ..+.% $ K 8 . @.O #.+ + $ c c 9 , c I b S $ ",
"$.4 > $ ' %.&.. $ ! 8   $ = % k $ e + % $ ' k . *., . . * $ * $ Q + # =.-.;.>.o o n >.,.8 , 1 8 ~ b e e e e 8 h a x b V c $ S > ",
"+ + @ > = '.* % $ b 8 x ' > *.> , e . ! c $ , >   $ % $ , I S $ #.@ Q + 1 8 x % ).!.~.{.- = 8 ; ! c ~ % *.> e ; I - , h , h h *.",
"# b ) e 8 * b x % $     % ! . O > 8 @ k ~ $ ].+ S % 1 k x   c e Q 2 e 5 % ' I 8 8 ^./.(.=   _.' % 8 S = 1 ; > 1 a F $ > $ h e :.",
"O ! c - 1 $ $ . x S * > % e , - % <.> % * I [.}.|.. <.8 V 8 D K k V + $ $ u 9 x > # 1.2.$.R =   * 0 h ; - = 8 _.S . ' K h ; $ 8 ",
"#.> > 0 = ' $ * b S 7 e W , % D 0 8 > % * 3.4.c b > R % g , - K S ' ' * 7 9 9 ' $.e 5.6.t <.- c $ $ D - = = $ S b k ; > ; - $ * ",
"#.4 ; , , ' ! * 7.= 8.% 1 h , , a c ' > % , $ = ! % % c S 9.0.a.b.c.b x 8   $ S ! ! d.e.f.> % % $   g.= h , * - + V * = = c c % ",
"K > % * -   x ~ c $ $ - > % D ; 7.h.' 5 5 h 0 h.* . x 4.i.j.k.l.m.n.o.x $ b * k $   p.q.r.s.> *.%   8.g g $ * ~ ! + $ 9 9 c   % ",
"$ c     8 . # e g $ $ D h D t.D _.= , R 5 h 0 c * % u.v.w.x.y.z.x.A.B.C.D.% e . * E.F.G.H.I.R >   I   S = - % ! + <.$ a 7.8.c h ",
"$ 9 _.$ 8 t # ! - J.x , h 0 - c K.h D e > = $ c * L.M.N.O.P.Q.R.S.T.U.V.W.X.|.W Y.Z.`.<  +.+e V S I $ c 8 8 8 x % 8 * I 9 E g $ ",
"_.9 = * e . . * ++@+% h = c a   = $ 1 % = $ c #+$+%+&+*+=+-+;+>+,+'+)+*+!+~+{+]+^+/+(+&+_+P.:+' h % % 9 , c $   = ' x * $ ' S - ",
", h h % e > . <+[+*.8 x }+  I 7 h k $ ~ % |+1+2+y.3+4+5+,+6+y.< 7+8+9+0+4+a+b+c+d+e+f+< g+h+i+- > - % c 0 = c c I * x 1 ' , x c ",
"- ].j+x , ' k+l++ W @.#.H ~ _., h 9 _.m+n+o+I.p+)+5+'+8+>+< q+r+*+&+>+R.s+0+t+a+u+v+N.w+x+x+y+4 8 % $ + 1 0     a $ , K K D , c ",
"h ].$ $ '.z+A+e % Q O # ~ . h c % D B+C+%+v+D+4+E+F+y.z.*+G+H+I+J+G+.+K+y.;+L+)+=+t+M+N+y.p+O+, 1 ! ; 1 *., c x I S > R h ; *   ",
"g ].h S % e 5 > * ' t $   $ ' - # P+Q+R+b+5+S.3+z.>+.+g+r+S+T+U+T+T+g+V+W+X+x.O.Y+t+s+t+Z+`+ @.@t ' + e ; > S ' $ ' % 5 U > $   ",
"+@% $ h % ; > e H ' c ; S x $ @@#@$@%@S.0+&@;+R+*@H+U+=@g+x+J+J+g+-@T+;@>@-@,@X+x.O.'@4+a+)@M+%@!@~@D $ c $ = c % $ > > *.8 > _.",
"I 8 % $ 8 <.1 > {@' I $ = ]@^@/@z.(@-+_@:@x.v+<@[@;@}@,@!+&+&+v+R.8+S._+T+|@<@r+P.v+1@2@3@'@t+a+9+4@5@6@I c }+- % , > $.*.1 ! = ",
"- ' e ' + *.<.% 8 $.K 7@8@9@R+0@)@a@b@y.&+c@G+H+,@J+*+>+d@e@1@ .>.d@f@F+r+U+h+I+<@g+.+g@>+h@3@9+i@,+a+j@k@l@m@  - $ + *.> > ! c ",
"! $ *.! b @ 1 5 $ O n@o@p@!+9+S.s+q@x.T.g+-@S+r@U+P.y.s@n n 1@t@n n p u@2@v@r@=@T+w@r+J+.+g@x@y@)+a+D+=+z@A@B@C@% ' > 8 V + % % ",
"$ t.*.! . 5 ! % + D@E@;.F@5+,+G@1@:@H@g+S+T+<@I@r+z.t@n n n ( c@n o n n J@K@J+H@T+L@T+I+}@M@.+f@>+G@D+S.=+=+8+N@O@P@Q@' k % * = ",
"$.*.! $ e D > R@S@T@0@U@t+8+x@< I@r@T+T+T+|@T+-@W+>+V@V@K@V@1@W@X@Y@d@Z@`@2@[@H@r@r@I@T+I@S+g+-@z@ #x.;+L+5+.#D+v+N.+#@###> + > ",
"+ 1 $ $ ; $#%#&#R.*#-+F@y.A@3+g+T+r@T+T+r@T+|@r@)@&+Z@V@X@>.=#A@X@Z@Z@X@d@>+I+=@T+T+,@L@r@-#h+I@J+}@h+;#x.2@D+S.3@Z+7+V.>#> > > ",
". 1 ,#'#)#!#;.&@a@D+2@x.*@J+}@I@T+r@T+|@|@T+|@T+J+ #L n n n Z@v+n n p o X@&+_+~#J+T+r@J+S+T+J+g+J+T+r@[@~# #x@h@_@{#3+]#% 8 % % ",
". ^#/#(#_#F+0+t+R.x.v+S+r+r@S+<@T+T+|@T+T+r@T+T+|@c@&+:#n o t@( n z p s@>+.+M@~#H@i@<#t+|@-@S.<#q+I@=@S+;@g+z@g@U.[#}#I   % x   ",
"#.|#1#2#Z+a@F@y.&+P.V+;@,@<@>@,@|@T+T+r@|@T+r@T+3#[@S+K+4#K@:#5# .>._ ;.*+g+r@T+-#<#6#7#<#U@8#8#S.L@I+~#r@T+T+V+*@9#0#  _.% = - ",
"a#b#c#!+)@F+x.*@M@-@h+<@<@S+|@J+|@T+T+T+T+r@T+T+w@S.>@[@W+p+!+K+ #2@b+I+_+q+L@T+-@S.8#6#d#7#6#8#I@T+-#r@g+I@=@J+K@e#% D D $ $ - ",
"f#g#h#i#j#k#3+G+T+;@J+-#w@J+I@-#T+r@T+T+r@T+|@r@;@~#T+~#r@r+V+v@x+>@v@T+S.q+H+|@L@T+,+8#6#8#<#S.r@r@|@T+T+w@r@J+K@l#, h.= c c = ",
"! W % ! % m#n#_+,@<@h+L@,@h+-@,@I@r@T+|@J+T+S+r@I+w@=@;@L@S+<@S+;@I@~#;@J+=@I+w@|@r@r@I@a+,+r@r@q+T+w@;@I+q+T+r+*@o#= 9 K.= - p#",
"x S 5 + @ q#r#>@|@T+r@S+|@T+|@T+w@T+|@S+|@|@w@|@~#T+T+T+~#I+T+L@S+r@S+S+J+|@|@|@T+T+T+T+r@T+,@T+|@|@|@|@T+T+S+J+K@s#=   - a 9 7@",
"  $ * ' + ' t#M@T+T+T+T+T+T+T+h+h+T+~#T+<@~#~#~#M@}@V+r@}@}@g+g+J+v@-@[@>@>@>@v@V+V+V+V+[@[@[@V+>@g+v@v@g+V+}@[@K@u#0 c - c = 0 ",
"  c > 1 + ' v#_+J+V+g+V+V+V+V+J+J+J+J+J+J+w@|@=@P.P..+.+*+3+w#w#*@8+F+:@:@:@ #:@:@X+X+X+X+X+X+X+:@:@:@!+ #g@N+;+z.x#= x $ 0 y#- ",
"* ' . W $ $ z#R.g@g@g@g@g@g@ # #K+K+K+< K+N+;.;.f@&+N+`+g@A#A# #2@R.R.R.B#B#F+F+h@h@h@h@h@h@h@h@B#6+F+F+8+0@T.(@C#D#8 E#x = = , ",
"+ % % > >   F#F+0@0@0@0@0@0@0@0@Z+Z+F@F@L+L+u+Y+'@'@4+)+E+t+a+'+E+,+0+E+0+E+E+'@E+E+'+E+a+E+E+E+E+'+E+)+*#_@*#,+;#G#1 , ; c - h ",
"e 5 > ' 8 $ H#9+'@E+'+'@)+E+'+)+*#'@'@'@'@&@.#.#'@'@_@_@Y+'@a+E+=+'+E+9+D+D+9+Y+Y+I#I#D+J#Y+D+J#&@D+&@i@*#'@'@'+ #K#% V , % ; $ ",
"*.5 e % 8 x L#T.*#_@*#.#_@_@*#i@*#*#*#J#J#s+L+J#M+F@L+Y+I#L+M#Q.C#N#O#R.b@*#S.4+,+E+t+t+t+t+.#_@a+'@'@'@D+*#J#*#K+P#> , 8 7 h 0 ",
"O W e 0 * % Q#z.`@`@`@`@`@`@`@c+c+c+c+c+c+c+c+`@c+;.&+y.R#R+g@: 3+3+3+;#`@y.7+A#N+N+N+N+7+`@`@`@q@;.`@c+c+c+c+7+S#T#+ 3 8 % ' 1 ",
"# <.% I x 0 U#v+s+b@(@L+(@(@L+(@F@L+D+I#D+&@9+I#D+{#V#x.*@r@g+V+[@J+V+V+[@*@p@:@T.b+8+0@w#T.b@b@0@F@F@(@L+L+L+a+>+W#= c , x * e ",
"e X#8 $ = S Y#Z#,+_@9+'@'@'@'@'@t+I#J#J#&@*#Y+I#.#7+c+T+v@<@=@T+;@|@H@h+,@_+K@S#3@5+s+0+*#i@=+,+,+_@*#9+*#i@'@.#x.`#% = D x ~ > ",
". 1 % % ; , e  $'@4+)+,+E+=+E+*#'@'@=+E+.#4+i@S.h@>+L@r+h+H+>@;@|@T+<@T+q+w@[@f@7+S._@9+I#E+3@*#)+)+'@)+a+)+a+E+F#.$b = = = e ' ",
"* $ ' * 4 ; ; +$!+F+B#F+F+b+b@w#M#b@(@b@0@0@0@T.@$.+M@J+q+r@L@T+r@J+S+r@<@I@J+P.S#b@u+w#(@u+#$w#w#0@T.0@F+F+F+B#p@$$b % , , % $ ",
"' $ > ; i , > %$>+G@;+< O.O.`+`+`+q@q@7+K+O#!+@$N#G+I+I+H@<@;@T+T+T+;@-#r@I+,@r+f@R+O.7+O.O.7+z.7+U.O#N#O#A#O#A#p@&$x 1 - = $ , ",
"% * e % $ , i *$!+0+a+a+'+.#3@3@'+9+'+E+)@'+t+x@w#>@=@S.|@|@I@}@L@U+M@I+r@=@T+r+8+y.S.a+'@i@)@)+.#.#E+E+'@)+t+)+N.=$8 D % % c , ",
"*.- e > , D , -$&+=+Y+D+J#&@9+9+J#&@i@J#&@'@&@R+P.I+v@[@L@,@<@=@;@J+I@h+T+w@J+<@9+R+Y+&@*#*#L+&@D+D+'@*#I#I#D+L+;$>$e ; , - - ; ",
"e + %   = 1 $ ,$;.5+,+9+=+,+)+'@S.9+5+5+9+'+L+x.|@c@`+u+-@,@T+J+-#;@~#r@;@U+T+;@P.5#*#t+3@a+)+*#*#I#'@I#J#*#_@Y+;$'$> $ h _.D c ",
"> 8 4 @ # % )$!$1@0@y@6+8+h@0@F+F+F+B#R.:@h@;+5#[@A@~$~$c@r@-#,@r@r@T+r@T+r@T+r@)@@$6+T.0@F@M#&@J#J#I#a+&@'@'@u+;${$1 $ S *., . ",
"+ % U 5 > 6 ]$^$p@Q.O#2@2@;+R.N+g@;+2@R.G@G@U.>+[@8+R+/$P.<@r@~#T+|@T+T+r@L@T+,@I+R+O.O#K+N#`@/$7+&+N+`@c+U.N+;.;$($& , = e + 5 ",
"% > > # ' _$:$<$x.u+S.)+E+'+,+E+,+0+5+'@'+H@%@>+G+>@,@r@}@=@|@w@T+T+J+L@T+T+T+T+I+x.L+-+'@E+3@9+J#L+L+I#J#J#3@M#p@[$}$$$+ . 1 e ",
"$ $ * |$1$2$3$4$5#w#a+3@'+.#'@*#D+I#*#*#)+t+R.;.-@h+r@w@h+>@I+T+L@L@;@|@|@T+J+T+h+y.M#'@_@'@'@*#_@D+I#*#_@*#'@M#@$5$6$7$8$> e ! ",
". 9$0$a$b$c$d$d$A@Q.b+b+b+T.Z+T.b@L+L+F@Z+L+G@x.J+T+T+;@J+<@h+T+S+T+T+r@r@r@r@r@T+F#(@*+(@J#J#'@*#*#'@'@i@'@a+M#e$f$c$g$e@h$> $ ",
"i$j$k$l$m$n$o$f$p$x@;+U.U.`@q@>+;.`@z.q@7+O.c+1@}@h+h+q+T+I@}@w@J+r@I@T+|@|@-#r@,@@$7+`@z.;.`@;.`@c+/$`@;.`@A#R+q$n$r$s$t$u$v$. ",
"w$x$b$y$z$o$A$g$q$%@w@a@S.S.-+a@5+a@a@t+0+-#u+/$v@g+v@_+J+|@v@J+J+I+J+J+V+J+}@g+h+y.t+E+'+E+_@&@*#i@I#'@.#'@E+y@B$z$C$s$D$z$E$F$",
"G$H$d$s$o$I$y$z$p$y.R.O.G@2@Q.V#2@O#O.O#G@G@C#R+*@w#u+w#u+*+w#K@w#w#u+z@z@.+*+*+8+J$B#G@R.G@G@2@O#O#2@O#V#O#!+2#p$c$K$L$M$c$N$' ",
", O$P$m$Q$n$d$t$R$<$S$S$6$T$U$<$6$6$S$<$T$U$<$T$T$=#V$B$B$V$=#V$=#W@=#B$B$B$B$=#B$V$U$T$T$T$T$S$6$6$S$6$6$S$d@<$A$t$3$5$n$W$X$$ ",
"$ Y$Z$b$y$o$K$W$W$g$z$s$I$z$`$W$W$f$ %W$K$.%+%+%L$y$ % %z$ %.% %l$l$M$ %d$.%l$K$ %K$l$l$M$z$ % %`$.%+%f$f$y$ %g$4$@%+%o$C$z$#%$ ",
"  % $%A$ %s$y$c$n$C$d$y$r$L$K$o$R$m$m$C$o$%%%%3$C$C$3$t$t$C$t$3$%%%%r$3$%%3$I$3$s$e@e@L$Q$o$3$L$@%t$y$3$L$r$L$3$y$A$%%@%f$A$&%, ",
"a 8 *%=%-%;%f$g$o$C$3$%%@%3$%%3$L$o$%%d$@%K$t$t$%%%%d$d$L$Q$y$d$y$d$C$%%d$%%C$%%L$t$d$d$D$%%%%D$s$%%c$y$y$%%c$%%C$Q$.%5$>%,%u.% ",
"9 * ! > K '%)%!%~%{%d$g$g$4$c$%%%%Q$n$c$L$3$t$y$c$L$C$%%c$D$L$L$L$M$c$L$%%L$C$y$K$K$M$@%d$c$y$C$W$L$c$n$C$c$K$l$.%c$]%^%/%u., - ",
"x b @ > e 1 $.' ~ ! $ (%_%:%<%[%}%|%K$.% % %+%d$3$L$C$L$K$M$K$L$3$Q$I$d$L$3$3$3$@%M$y$C$K$K$+%K$+%`$+%g$t$3$Y@6$1%2%3%4%, h 0 0 ",
"x > 5 e > ; % ~ x $ h $ e % e % 5%6%7%8%9%0%a%b%c%%%I$d$d$M$d$d$.%C$L$ %d$+%g$d$ %d%e%f%~%g%h%i%j%k%l%m%n%o%p%q%r%x e 1 % 8 , $ ",
"% $.+ @ $ 1 5 * . . + % . . 1 8 I s%t%| > ) > $ > . % u%v%w%x%y%z%~@. A%B%C%D%E%F%G%H%e *.% + % $ . k @ 7 % $ * . % e % e X#  9 "};
