/* XPM */
static char * house_2_xpm[] = {
"64 64 625 2",
"  	c #456B2B",
". 	c #446C1E",
"+ 	c #4B7325",
"@ 	c #548126",
"# 	c #527B2D",
"$ 	c #466B32",
"% 	c #4C7332",
"& 	c #4B732C",
"* 	c #4E792C",
"= 	c #537B34",
"- 	c #496E24",
"; 	c #496E2C",
"> 	c #517634",
", 	c #3E642A",
"' 	c #41661D",
") 	c #436B25",
"! 	c #3C641D",
"~ 	c #467125",
"{ 	c #3F6924",
"] 	c #568134",
"^ 	c #4E7932",
"/ 	c #47712B",
"( 	c #416828",
"_ 	c #2F471F",
": 	c #080736",
"< 	c #2A2368",
"[ 	c #6956A5",
"} 	c #8E89C4",
"| 	c #726AB3",
"1 	c #5A4798",
"2 	c #2B432D",
"3 	c #507632",
"4 	c #56803A",
"5 	c #335A15",
"6 	c #5A8235",
"7 	c #557C3A",
"8 	c #467030",
"9 	c #5C8341",
"0 	c #52763A",
"a 	c #436532",
"b 	c #597E34",
"c 	c #42662B",
"d 	c #4B6E39",
"e 	c #55812D",
"f 	c #3F692A",
"g 	c #37601D",
"h 	c #4A7430",
"i 	c #283F35",
"j 	c #8D75B6",
"k 	c #EEE8F1",
"l 	c #FDFDF3",
"m 	c #FCFDEB",
"n 	c #FDFDFC",
"o 	c #E2DDEA",
"p 	c #A8B4D0",
"q 	c #595A88",
"r 	c #4A712C",
"s 	c #3B5E24",
"t 	c #506F33",
"u 	c #3E691D",
"v 	c #507732",
"w 	c #2F3073",
"x 	c #F8F7E8",
"y 	c #F6F7F9",
"z 	c #9E98D5",
"A 	c #587D35",
"B 	c #638B3D",
"C 	c #4D7925",
"D 	c #679146",
"E 	c #5D893B",
"F 	c #395E1C",
"G 	c #5B833B",
"H 	c #486E2A",
"I 	c #273D1D",
"J 	c #595891",
"K 	c #D4D2D5",
"L 	c #F0F1EE",
"M 	c #8679B1",
"N 	c #5F8942",
"O 	c #3D6424",
"P 	c #416625",
"Q 	c #4A6E32",
"R 	c #51762D",
"S 	c #4B752B",
"T 	c #4C7130",
"U 	c #3D6321",
"V 	c #4F724D",
"W 	c #6D887C",
"X 	c #BCBEC0",
"Y 	c #EFF1EE",
"Z 	c #F3F4F1",
"` 	c #EEEEDE",
" .	c #51773D",
"..	c #4F793A",
"+.	c #5A892B",
"@.	c #486E1F",
"#.	c #4E743A",
"$.	c #4D772B",
"%.	c #598240",
"&.	c #576C72",
"*.	c #889793",
"=.	c #ADB8AB",
"-.	c #B1BBA4",
";.	c #E8EBE6",
">.	c #E4E0E7",
",.	c #6E7D89",
"'.	c #597E3B",
").	c #607F43",
"!.	c #3B5F28",
"~.	c #4F802F",
"{.	c #B1BCA0",
"].	c #ADAFC6",
"^.	c #41652E",
"/.	c #355C1C",
"(.	c #3C5D30",
"_.	c #587F2E",
":.	c #366021",
"<.	c #9EAA9F",
"[.	c #516F52",
"}.	c #416815",
"|.	c #4A731E",
"1.	c #60903A",
"2.	c #687B86",
"3.	c #426631",
"4.	c #568034",
"5.	c #6A8A3F",
"6.	c #629036",
"7.	c #618642",
"8.	c #3B6414",
"9.	c #628A43",
"0.	c #547725",
"a.	c #4D7339",
"b.	c #49702B",
"c.	c #557938",
"d.	c #587A24",
"e.	c #3A582B",
"f.	c #42652F",
"g.	c #3A5D27",
"h.	c #365A23",
"i.	c #4A6D32",
"j.	c #517933",
"k.	c #4C6C2B",
"l.	c #4C752A",
"m.	c #61863A",
"n.	c #5A7E41",
"o.	c #3C5E25",
"p.	c #14221E",
"q.	c #3F5352",
"r.	c #48656C",
"s.	c #586959",
"t.	c #445C53",
"u.	c #476C3E",
"v.	c #597F3F",
"w.	c #45682D",
"x.	c #464379",
"y.	c #42425F",
"z.	c #303D5C",
"A.	c #415639",
"B.	c #537625",
"C.	c #5E8935",
"D.	c #3B5925",
"E.	c #573B97",
"F.	c #BB82AC",
"G.	c #655291",
"H.	c #947197",
"I.	c #D092A0",
"J.	c #A175A0",
"K.	c #5C5C7B",
"L.	c #3E613A",
"M.	c #45692D",
"N.	c #45692A",
"O.	c #4C7138",
"P.	c #46702A",
"Q.	c #3D6023",
"R.	c #2E4C2F",
"S.	c #B88BC3",
"T.	c #F3BCC5",
"U.	c #A992C6",
"V.	c #495F50",
"W.	c #59832D",
"X.	c #577F40",
"Y.	c #03022A",
"Z.	c #28185B",
"`.	c #876AA7",
" +	c #E494B8",
".+	c #F5A4B6",
"++	c #674999",
"@+	c #7A58A5",
"#+	c #E8A1AD",
"$+	c #EBA4B4",
"%+	c #E295B4",
"&+	c #C789B6",
"*+	c #8C718A",
"=+	c #51576D",
"-+	c #334D3E",
";+	c #253E28",
">+	c #39551E",
",+	c #2B4718",
"'+	c #182734",
")+	c #9278C7",
"!+	c #F9C2C6",
"~+	c #C698C4",
"{+	c #526A4B",
"]+	c #6A9345",
"^+	c #496C36",
"/+	c #263E17",
"(+	c #1A1468",
"_+	c #72468D",
":+	c #C486AB",
"<+	c #D48CB6",
"[+	c #8A639A",
"}+	c #6B64A8",
"|+	c #A1769E",
"1+	c #D591AD",
"2+	c #EA9DBA",
"3+	c #DC95B3",
"4+	c #7454A2",
"5+	c #8968B6",
"6+	c #FDC2D3",
"7+	c #CDA7CC",
"8+	c #4B625E",
"9+	c #4A722B",
"0+	c #385918",
"a+	c #253A22",
"b+	c #0F1054",
"c+	c #573D87",
"d+	c #B47BB1",
"e+	c #D492B3",
"f+	c #835AA3",
"g+	c #614CA4",
"h+	c #8D6BA5",
"i+	c #DAA8C5",
"j+	c #FCBCCC",
"k+	c #C08BC1",
"l+	c #484996",
"m+	c #9768A8",
"n+	c #EC96B7",
"o+	c #DC94AD",
"p+	c #E99CB4",
"q+	c #B985A9",
"r+	c #8B62AC",
"s+	c #372987",
"t+	c #E7B5BA",
"u+	c #ECB3C5",
"v+	c #404B6E",
"w+	c #44692A",
"x+	c #365820",
"y+	c #1C300E",
"z+	c #110D4A",
"A+	c #462C89",
"B+	c #DBA3B7",
"C+	c #814EAB",
"D+	c #9372AD",
"E+	c #E5ABC5",
"F+	c #F6C1D5",
"G+	c #F7B7D8",
"H+	c #E9ACD1",
"I+	c #554D8C",
"J+	c #8D62A3",
"K+	c #C994B8",
"L+	c #E39AAD",
"M+	c #CD8DAC",
"N+	c #8558A6",
"O+	c #2A1D78",
"P+	c #395925",
"Q+	c #587D34",
"R+	c #416624",
"S+	c #102007",
"T+	c #11073A",
"U+	c #34257A",
"V+	c #A66DAA",
"W+	c #7351AA",
"X+	c #9B74A7",
"Y+	c #FBC3CC",
"Z+	c #EDBACB",
"`+	c #F5ACD5",
" @	c #E5B4CA",
".@	c #FCB8C7",
"+@	c #D997B9",
"@@	c #9778B7",
"#@	c #795699",
"$@	c #E39BBA",
"%@	c #E19CC2",
"&@	c #D489A8",
"*@	c #96669B",
"=@	c #383687",
"-@	c #273945",
";@	c #476E2D",
">@	c #6D954F",
",@	c #3D6121",
"'@	c #080908",
")@	c #241968",
"!@	c #E7A6BA",
"~@	c #C588A8",
"{@	c #6849A6",
"]@	c #E5B4C5",
"^@	c #ECADCA",
"/@	c #EDB4CB",
"(@	c #FEC3DB",
"_@	c #F4BACC",
":@	c #F1B3C4",
"<@	c #F4BBD3",
"[@	c #FBBDD2",
"}@	c #ECB3D2",
"|@	c #A976A9",
"1@	c #754D95",
"2@	c #B47BA6",
"3@	c #3C4A78",
"4@	c #426330",
"5@	c #496D36",
"6@	c #41652B",
"7@	c #688C42",
"8@	c #618435",
"9@	c #46692A",
"0@	c #213613",
"a@	c #02020B",
"b@	c #734C9B",
"c@	c #A883B8",
"d@	c #E9B8D3",
"e@	c #AE7DC4",
"f@	c #7764A9",
"g@	c #8465AB",
"h@	c #68589D",
"i@	c #B688B8",
"j@	c #E495A9",
"k@	c #413F63",
"l@	c #2A4729",
"m@	c #3B5A2C",
"n@	c #638A35",
"o@	c #36531F",
"p@	c #010101",
"q@	c #220756",
"r@	c #ECB4BC",
"s@	c #A678B6",
"t@	c #C6C5DB",
"u@	c #5C49A4",
"v@	c #E4E8E8",
"w@	c #B6DAD2",
"x@	c #293D2F",
"y@	c #3F6523",
"z@	c #649249",
"A@	c #40672C",
"B@	c #030800",
"C@	c #EBADC3",
"D@	c #E39AB3",
"E@	c #DD9AAD",
"F@	c #293D34",
"G@	c #4B7032",
"H@	c #50792C",
"I@	c #2C4B14",
"J@	c #1A1657",
"K@	c #865BB3",
"L@	c #4A3694",
"M@	c #F2B5CB",
"N@	c #5457AA",
"O@	c #9899CA",
"P@	c #F3ADC6",
"Q@	c #020113",
"R@	c #45672E",
"S@	c #466A22",
"T@	c #2C4118",
"U@	c #8E8BBA",
"V@	c #F2B4D2",
"W@	c #A479B5",
"X@	c #463688",
"Y@	c #43692A",
"Z@	c #456725",
"`@	c #070428",
" #	c #DD9AB3",
".#	c #CFE1D6",
"+#	c #D9D4E7",
"@#	c #5B61B0",
"##	c #CDCBD2",
"$#	c #84579B",
"%#	c #D7939A",
"&#	c #2B355C",
"*#	c #456E2A",
"=#	c #547E33",
"-#	c #1D300B",
";#	c #B693B8",
">#	c #E8BAC5",
",#	c #2D491A",
"'#	c #4F7333",
")#	c #4D7731",
"!#	c #3E5E27",
"~#	c #1F2C15",
"{#	c #B06AA9",
"]#	c #96A6BB",
"^#	c #E8E6ED",
"/#	c #74529C",
"(#	c #E488A7",
"_#	c #19144B",
":#	c #1F3414",
"<#	c #33511C",
"[#	c #507338",
"}#	c #39563D",
"|#	c #875297",
"1#	c #A472AB",
"2#	c #DC6D94",
"3#	c #DC779B",
"4#	c #304A1E",
"5#	c #4B7131",
"6#	c #706F72",
"7#	c #DC98A6",
"8#	c #693D96",
"9#	c #66689E",
"0#	c #E3739B",
"a#	c #263737",
"b#	c #406424",
"c#	c #364665",
"d#	c #2C1C8A",
"e#	c #F4B7BD",
"f#	c #3E5D40",
"g#	c #476B23",
"h#	c #A686AD",
"i#	c #4F7237",
"j#	c #314942",
"k#	c #A688AD",
"l#	c #4A722E",
"m#	c #40632F",
"n#	c #A584AC",
"o#	c #416829",
"p#	c #49702E",
"q#	c #44652E",
"r#	c #9263A3",
"s#	c #9C6BA4",
"t#	c #A46DA3",
"u#	c #A973A4",
"v#	c #B87CA9",
"w#	c #3D612F",
"x#	c #416227",
"y#	c #39592F",
"z#	c #3E642B",
"A#	c #39592B",
"B#	c #517534",
"C#	c #CE92AD",
"D#	c #365725",
"E#	c #3C6121",
"F#	c #0A0648",
"G#	c #8B5D9D",
"H#	c #4F3BA3",
"I#	c #3B5D2F",
"J#	c #3F6323",
"K#	c #EBA3BB",
"L#	c #F1ABAD",
"M#	c #3E612E",
"N#	c #273847",
"O#	c #D58EAD",
"P#	c #492C8E",
"Q#	c #C97DAE",
"R#	c #3D5E2B",
"S#	c #416531",
"T#	c #EACBD0",
"U#	c #395A27",
"V#	c #466B2E",
"W#	c #654E93",
"X#	c #2F4F1A",
"Y#	c #557939",
"Z#	c #553F90",
"`#	c #34581D",
" $	c #493788",
".$	c #446B2B",
"+$	c #3A591C",
"@$	c #476F2D",
"#$	c #315611",
"$$	c #2A4317",
"%$	c #3C5D25",
"&$	c #416528",
"*$	c #261A9B",
"=$	c #2D481B",
"-$	c #2C432B",
";$	c #5C669A",
">$	c #3A611C",
",$	c #486F3E",
"'$	c #ACD3CA",
")$	c #264242",
"!$	c #3F6824",
"~$	c #56803B",
"{$	c #A6CBB5",
"]$	c #BCE2D3",
"^$	c #AEDAC4",
"/$	c #ACD4C4",
"($	c #5565A3",
"_$	c #C2E6C8",
":$	c #9EBDD1",
"<$	c #5F787C",
"[$	c #477030",
"}$	c #6D9367",
"|$	c #ACD9CA",
"1$	c #9AC2C2",
"2$	c #ADD5D2",
"3$	c #B8E3C7",
"4$	c #B4E0BC",
"5$	c #A7D3BA",
"6$	c #BBE4CB",
"7$	c #9FBAB0",
"8$	c #4C6E5E",
"9$	c #466F2C",
"0$	c #618657",
"a$	c #9CC3BA",
"b$	c #9DC4BB",
"c$	c #9BC5B7",
"d$	c #545A94",
"e$	c #AD819C",
"f$	c #A96D9C",
"g$	c #8DB3AF",
"h$	c #A9CDC8",
"i$	c #BADCCB",
"j$	c #4C607C",
"k$	c #426925",
"l$	c #6F8F63",
"m$	c #9CC6AD",
"n$	c #A9C9D4",
"o$	c #4D5398",
"p$	c #B4DBCB",
"q$	c #89ADA3",
"r$	c #3E691F",
"s$	c #465185",
"t$	c #97BAB9",
"u$	c #7887B2",
"v$	c #6974A6",
"w$	c #A6D3C2",
"x$	c #8BAC90",
"y$	c #323F5D",
"z$	c #93A4B7",
"A$	c #A1C6C4",
"B$	c #A2CABB",
"C$	c #B2DBC5",
"D$	c #A4CBC3",
"E$	c #99B9C7",
"F$	c #89A7B3",
"G$	c #B2D5CB",
"H$	c #6B8E74",
"I$	c #405966",
"J$	c #7D80A8",
"K$	c #B1D8C7",
"L$	c #B2DBBD",
"M$	c #B5D5C6",
"N$	c #B5DBCA",
"O$	c #567A4B",
"P$	c #3B5C29",
"Q$	c #3F5165",
"R$	c #6874A3",
"S$	c #B1CCC7",
"T$	c #91A3B3",
"U$	c #456A30",
"V$	c #416824",
"W$	c #395828",
"X$	c #42585A",
"Y$	c #5A6A8E",
"Z$	c #91A2B3",
"`$	c #374E4C",
" %	c #5C883B",
".%	c #416826",
"+%	c #4B6C41",
"@%	c #476652",
"#%	c #5F698C",
"$%	c #6D809D",
"%%	c #ACD4BD",
"&%	c #A0CCB9",
"*%	c #9CC4AD",
"=%	c #81A89A",
"-%	c #A1C3B8",
";%	c #A7CDBA",
">%	c #AAC5BF",
",%	c #2F3F47",
"'%	c #466C29",
")%	c #43692B",
"!%	c #4D7037",
"~%	c #436542",
"{%	c #486752",
"]%	c #4C6767",
"^%	c #617A79",
"/%	c #70927D",
"(%	c #7C9B9C",
"_%	c #90B2AD",
":%	c #9DC3B2",
"<%	c #99C0AB",
"[%	c #A3C6B9",
"}%	c #9AC4AB",
"|%	c #A8CBC0",
"1%	c #B3D5C2",
"2%	c #C7D9CD",
"3%	c #8CB0A7",
"4%	c #8DB298",
"5%	c #83A88E",
"6%	c #82A585",
"7%	c #729573",
"8%	c #688A6A",
"9%	c #5E835A",
"0%	c #567E4C",
"a%	c #5E8848",
"b%	c #699655",
"c%	c #588042",
"d%	c #567F40",
"e%	c #5F874D",
"f%	c #577D51",
"g%	c #648A60",
"h%	c #6D8C6E",
"i%	c #69876B",
"j%	c #5F8169",
"k%	c #5B7961",
"l%	c #5C7A64",
"m%	c #4C6F53",
"n%	c #456946",
"o%	c #4A6F48",
"p%	c #3F6034",
"q%	c #466E2F",
"r%	c #679047",
"s%	c #4D7722",
"t%	c #3E6825",
"u%	c #466F37",
"v%	c #436A30",
"w%	c #466A38",
"x%	c #587B41",
"y%	c #4F7248",
"z%	c #476E3E",
"A%	c #587A4C",
"B%	c #5A7F4E",
"C%	c #527449",
"D%	c #547A43",
"E%	c #4E7341",
"F%	c #4B7331",
"G%	c #537B36",
"H%	c #2D5414",
"  . + . @ # $ % & * = - ; > = - , ' - & ) ! ~ { ) % ] ^ / ( _ : < [ } | 1 < 2 3 4 5 * 6 = + 7 8 9 0 a 0 % b c a $ a d 7 7 & & ; ",
"; + . * @ e f ) / * { ) > ; - ;   g - = * 5 5 * ) ~ 7 { ) h i j k l m l n o p q r / = = 4 & & % 0 % = & = f = 8 s c 0 > ; f f $ ",
"~ ] * * # # % 6 4 ~ 5 % t ) >   {   = & = =   * ^ & % u ^ v w k n x x x x y n m z A 7 ^ b % ~ = { B C + D 0 & * f ) & c c $ f c ",
") # *   = + ] 6 E { g = ;   % ) F & # - & 4 & ) = &   / G H I J K L n x l y n l l M 4 &   ~ & % ! E + 6 G N 7 = ) / ; O , $ P Q ",
"* # / - = > # + & /   8   ; , ) ) ~ * 4 ; { ; R = ^ ^ * ^ S T U V W X Y Z ` ` x l x  .) & ; > > % ..$   * +.] * Q ; P O P c ' - ",
"~ / ! u O - @.g   ; #.8   Q   ) & & & 4 P 5 ) * ] ~ ] * / $.^ * ] * %.&.*.=.-.;.>.l ,.{ '.& 0 ).#.8 !.5 ] e *   a ; P -   P ' @.",
"~.../ @.P = = Q $ f #.8 ; 8 4 % & = b /   & > / % {     { /   % { / 4 * = 7 b = {.Z ].^.0 Q 0 t f ) /.& ~ & ] & (.t R _.; F & _.",
"~.f & . c 0 = P , $ :., #.8 4 4 & & & ) c ; ' + / 7 , O f 8 8 c :.O * G = = 0 % G <.y [.; c t c > B }.|.= P % > (.Q @._.; c '.> ",
"1.:.P ) #.% C f f f ~ { ..7   = & 6 +   c ) > c ] + R & ; #.G 4 = ~ ~ & ^ , 8 % * E 2.3.4.4 ; a R 5.;   > > Q c s % ) = ' = % % ",
"6.& ! +   * ) / , :.^ % 9 8 & #.#.& & #.s Q R c ~ - # R &   G # / f ) % #.  % % # & v / = 7.0 Q R ; R R   ; Q s P { > R > = ; Q ",
"@ = ) # > ^ & ..d $ 9 0 7 !.% ; f a P ; 8 Q c Q C * P = c % = + O $ ^ = 8 ,   % 8.) & % ~ #.% ; ! - > ; ; > c > ) P & c t c   % ",
"~ = > & > ) & % a c   0 Q Q '.> $ #.c * 9.!.a Q # = R % c   = 0.,   $ /   f   { g #.a.8 ;   b.c.P s Q ; P ; > ) & 7 c Q c c Q ; ",
"O c P ; - * 4 G !.c s > ; '.).0 Q d Q d.= s #.P >   %   e.f.7 = f d % )     7 % b 0 g.h.i.j.k.l.P s P c ; > '.- m.4 !.t t n.Q F ",
"d Q a c # * = ~ 0 > P c Q a 0 !.P ; ; + ~ Q   , Q P P o.p.q.r.s.t.u.v.) ) , 9 9 ;   w.x.y.z.A.B./.Q P c > > > = 9.; c c d 0 s P ",
"t - ;   C._.8 ~ % 0 R P t !.Q c c > & % & & :.f c   D.: E.F.G.H.I.J.K.L.M.N.O.P.= Q.R.S.T.U.V.' c Q ; ; ; ; / ; = { % P P Q s t ",
"; _.+ > W.E c 7 ; % = > n.a a n.  ' ' X.d /.; , w.Y.Z.`. +.+++@+#+$+%+&+*+=+-+;+>+,+'+)+!+~+{+R Q 0 ; s '.G ; 7 & & = ; c % c $ ",
"> F   , = ]++ 6 8 4 ~.~.E ..$ #., a a '.% d ^+/+(+_+:+.+<+[+E.}+_+|+1+2+%+3+F.4+< Y.Y.5+6+7+8+= > %   / 7 ; P = ) 6 7 C 0 # % f ",
"P F c ) & ) 6 6 f ..^ / ] = / $ & #.7 9+0+a+b+c+d+$+e+f+g+h+i+j+k+@+l+m+%+n+o+p+q+r+s+1 t+u+v+  = & = 4 7.% ) m.! + = 6 O - 8 #.",
"s P !., & ; 9.R O f 0 f f ~ & + ] w+x+y+z+A+d+B+<+C+++D+E+F+u+t+F+G+H+[ I+J+K+3+L+2+M+N+++5+O+P+6 * * % #.; . 0., - % m.Q _.; 8 ",
"F Q c F & = / R 7   ; #.O ^ ~ Q+R+S+T+U+V+.+F.W+[ X+u+Y+Z+H+u+`+t+ @u+.@+@@@++#@q+n+$@%@&@*@=@-@;@= = Q Q   R 0.= R ; @.n.= & % ",
"  8 / O > 4 ) % >@{ P ; %   ,@'@Y.)@r+!@~@++{@q+]@F+^@/@!+T.(@_@(@j+:@ @<@[@}@|@++1@2@L+n+p+e+h+3@4@5@6@, c 7@8@& C R @.G R & = ",
"#.{ {   = % = % 6 ~ & { 9@0@a@)@b@~+3+#@1 c@!+[@}@d@F+!@e@h+f@@+g@d+i+Y+Z+}@`+j+ @k+h@++i@L+p+j@+@N+k@l@m@, '.b . @.b n@> 0.> ) ",
"f ) 7 & ~ ) = % ) 4 P.o@p@q@{@q+.+2@c+h+u+.@G+d@r@!+s@f@p t@u@v@w@z [ m+F+r@u+/@`+T.Y+s@u@4+2@2+ +j@e+5+U+x@y@) ] C ) C.c ~ 7 ; ",
"  4 z@& / E & / #.A@B@T+A+s@!@1+u@_+~+(@}@/@]@C@[@m+f@y l v@[ y n m y j 1@H+]@/@T./@^@Y+u+c@++#@:+$@D@E@<+r+U+F@G@H@g +   ) #.$ ",
"& 4 '.{ > > & - I@a@J@K@2+j@*@L@q+/@(@/@u+M@/@M@$@u@n l l l N@y y n m n O@@+[@}@ @M@P@u+ @(@}@|+u@#@:+p+j@j@K+#@Z.Q@R@; u & & ; ",
"= b / ' 5.R S@T@b+E.&+.+m+l+`.E+<@}@/@E+M@u+u+<@7+l+} U@U@@@=@@@U.O@U.U.U@E.t+M@Z+Z+M@M@^@E+V@[@/@W@1 b@K+%@3+p+e@X@: Y@* - & 7 ",
"& 6 6 @.b Z@`@(+m+ #F.1 h@7+(@:@/@/@u+/@M@u+u+<@S.f@.#t@+#+#@#} ##p t@##t@g+i+V@P@Z+Z+u+:@M@M@^@ @6+V@W@1 $#~@+@3+%#@+&#*#= ^ & ",
"& C # =#-#: X@:++@#@++i@.@_@^@:@/@/@_@/@u+/@M@M@H+{@k n l n } ;#n l l n O@W+Y+:@V@C@_@M@]@>#Z+<@u+u+P@.@>#D+++$#<+2+W+J@,#'#{ ; ",
"~.)#!#~#(+J+C@{#L@s@u+.@`+`+T.}@_@u+u+_@u+/@M@/@T.~+W+z v@n ]#U@y l ^#} /#E+!+}@_@&@(#$+_@^@%+%+T.}@Z+]@u+6+/@j I+E._#:#<#[#i.a ",
"~.N }#c+i@#+|#1 B+_@<@ @u+u+/@Z+C@]@u+/@u+u+/@M@P@!+t+@@| j | @#;#} W+1#[@<@ @d@ @(#2#2#(#(#2#3#^@Z+d@}@u+]@^@6+| T+4#5#0 a Q 0 ",
"E ~.u 6#7#8#9#Z+V@H+}@M@u+ @Z+r@_@M@Z+/@/@M@Z+/@ @/@M@_@[@%@&+i@c@~+t+F+`+r@ @}@_@P@3#3#3#0#3#.+T.M@^@_@V@M@r@<@s@a#b#  d a d c ",
"~.~.*   c#d#i+G+/@M@u+u+_@Z+/@}@/@/@/@}@Z+/@/@M@V@:@/@G+E+_@.@<@!+.@V@>#u+H+M@e#M@M@2+3#2#3#%+/@}@M@r@:@^@Z+}@M@i@f#P > c c 0 R ",
"a c 7 - g#)@~+e#/@}@/@M@Z+/@/@/@u+]@/@/@/@/@/@M@/@/@/@/@/@/@:@/@u+>#/@u+u+u+/@/@/@_@M@C@2+!@^@_@/@M@M@/@M@/@u+_@h#i#; c n.Q Q P ",
"%   P ) = j#i@G+u+u+:@:@u+:@u+^@/@/@/@^@/@u+u+u+u+u+u+/@/@/@/@^@V@M@^@:@/@M@M@/@]@u+M@/@E+/@/@u+u+^@:@u+u+u+u+_@k#l#& s c > ; ) ",
"8 ~ ) ; b m#g@<@/@Z+<@M@M@V@Z+M@j+j+j+j+[@[@[@V@[@j+j+[@[@Y+6+6+G+[@[@[@Y+_@j+6+<@<@[@[@[@[@[@<@[@_@j+_@_@_@T.Y+n#l#Q $ c Q Q ; ",
"% / & > 8 o#W+_@i+ @ @i+i+i+i+i+K+;#K+;#i@i@i@c@c@W@c@@@D+`.`.D+D+D+D+D+D+D+D+D+D+D+h+h+h+D+D+h+g@g@`.g@g@g@g@h+b@p#> 0 Q c t R ",
"^ & & & ; q#s+|#4+4+@+4+4+4+4+4+@+@+f+f+f+J+r+`.r#r#s#s#s#t#u#u#t#t#t#t#t#V+1#V+u#u#t#|@u#|@u#u#2@2@2@q+v#v#2@q+r+w#'.; c t ; ; ",
"* ] &   8 x#s+S.&@&@1+1+3+3+%+ #D@D@L+%+L+L+L+p+p+L+D@%+p+ +%+%+E@E@E@ #%+ # #L+%+%+D@ # +%+ +D@$@3+%+ # +%+%+2+K@y#7 s Q 0 t s ",
"= 6 4 & > z#Z.k+$+#+D@D@D@%+%+p+7#E@o+L+%+3+o+3+o+o+o+D@ #L+ ##+p+D@%+p+D@p+j@j@D@ #3+3+o+o+%+ # #E@E@1+3+3+1+D@@+A#&   > > > P ",
"E & 4 > ^ B#z+N+X+s#r#r#r#[+r#r#1#1#1#d+d+F.v#F.v#d+F.|@s#[+f+J+f+f+f+$#*@X+|@|@2@2@2@v#F.F.v#v#2@F.:+:+:+:+~@C#/#D#= ; & % { 7 ",
"& & = '.b E#F#++*@*@s#X+m+s#s#*@f+G#f+f+|#1@}+$#/#K@++d#H#f@W@i@i@;#S.h+l+d#++r#@+f+@+|#/#@+4+#@#@/#/#/#4+4+b@#@1 I#R ) & )   G ",
"^ * G = ; J#z+f@K#L+D@#+D@%+!@D@p+D@$@D@j@ # #%+.+|+++i@.@j+_@[@Y+j+G+G+!+K+8#F.L#%# +$+E@L+ +D@ #E@ #o+3+ #o+L+g+M#> ; G 7 ^ ^ ",
"= 8 & ) ; R N#5+o+1+1+3+e+e+e+1+e+O#e+K+<+e+C#e+v#X@7+6+V@t+d@^@}@Z+u+Z+}@(@S.P#Q#E@+@O#1+1+<+<+e+O#O#e+<+e+e+ #g+R#) ) G > & ) ",
"  / / / > & S#W+K#%+1+e+O#O#1+3+3+o+3+E@%+o+7#K#++@@Y+C@>#t+d@M@M@r@>#>#}@:@T#@@_+!@ # #E@ #7#$+2+D@p+%+o+o+o+o+E.U#c > '.    c ",
"    ; & ; & V#W##@#@/#/#b@b@/#/#@+#@b@b@W+@+#@b@H#]@`+`+_@}@:@}@.@H+u+/@u+V@}@!@L@[+$#K@*@r#[+|##@/#b@4+/#b@/#b@s+X#> n.0 c ; a ",
"=   8 & F % Y#Z#~@~@M+M+C#C#M+M+&+~@:+~@:+&+M+N+[ (@t+ @M@ @M@r@]@G+C@T.Z+u+r@6+[ b@d+V+t#t#u#2@v#F.F.:+:+:+K+i@U+`#'.'.; ; t ; ",
"b 7 = ^ O % T  $3++@3+e++@3+o+3+%+o++@o+3+ +#+b@D+!+^@V@t+:@V@u+d@r@`+:@u+`+:@6+)+@+!@7#$@+@ #E@3+3+%+%+3+%++@M+< .$7 %   ; '.Q ",
"& 7 ) ) > 7 +$A+M+e+e+e+1+<+1+O#1+1++@o+e+1+ #E.&+F+j+<@<@P@:@ @u+Z+/@H+V@Z+H+!+h+b@E@j@e+M+3+1+1+3+<+3+O#O#+@:+)@@$) P     0   ",
"+ = #$; % > $$(+d+#+p+2+p+%@3+7#$@ #E@ +%+L+K+E.E+S.I+`.>#V@`+:@M@/@/@/@/@M@u+[@s@g+C@$@2+D@ #j@p+7#2+D@$@D@!@Q#O+%$#.8 O ..^ ^ ",
"= ) ) %   &$a@: {@V+G#J+[+$#f+@+/#/##@#@/##@4+L@d@{@*$O+7+u+u+T#M@/@/@Z+M@/@u+_@i@X@*@J+[+*@m+V+s#s#m+*@|@t#|+J+(+=$~ /   7 = ^ ",
"G ~ ) ~ f -$=@;$A+u#s#1#2@u#F.F.2@:+:+v#F.&+*@c+:@i+D+k+<@C@V@r@/@/@/@/@/@/@u+[@c@L@u#X+1#*@h+G#G#J+J+G#r#G#*@f+z+'@>$) & = ] ^ ",
"7 = 8 = ,$O@'$'$L@K+B+3+E@D@2+&@ +3+o+3++@D@2@{@_@M@j+:@r@G+^@M@/@u+/@/@Z+/@u+<@i@++$+3+L+D@ #L+$+L+p+L+E@D@!@{#=@l+)$!$/ / & * ",
"= ^   ~${$]$^$/$1 u#B+ #L+E@$@L+%+L+E@3+E@$+F.1 _@/@}@/@M@E+/@u+/@/@/@/@Z+M@u+[@i@E.$+3+D@2+ #%+3+3+$@$@ + +!@{#($_$:$<$[$f   ) ",
"7 ~ ) }$|$1$2$3$N@8#|#|#N+g@N+r+[+G#s#s#r#r#1@u@T./@u+:@V@_@T._@M@/@/@/@/@u+^@j+;#L@t#r#G#*@r#m+r#s#t#*@X+*@u#f+($4$5$6$7$8$9${ ",
"~ / 0$a$^$b$c$3$d$r#K+:+v#e$u#t#1#1#u#f$1#d+s#1  @}@G+/@/@u+]@^@M@Z+_@/@M@/@:@[@;#L@|@s@s#t#X+1#V+s#*@*@s#*@u#b@($w@g$h$i$i$j$k$",
"#.l$m$^$^$/$n$6$o$N+:+Q#Q#:+M+o+ +O#O#3+&@1+<+E.C@M@u+_@V@M@:@V@M@M@_@M@[@V@_@(@i@++.+2+.+K#$+L#.+$+K#$+2+2+!@f$@#6$5$^$'$p$q$r$",
"s$w@'$^$5$t$w@i$u$;$v$v$v$}+9#[ }+}+;$[ @#}+[ l+}+f@f@f@f@f@f@f@f@h@f@h@g@g@g@f@u@X@@+4+N+N+`.[+f+@+#@@+/#[ 4+1 v$_$|$1$w$5$x$$ ",
"y$z$_$|$A$B$C$^$w@p$3$p$p$i$]$/$D$w@w$B$C$5$h$h$/$c$A$D$B$h$B$B$A$h$A$A$1$t$t$t$E$t$E$F$F$F$u$F$F$F$E$t$t$1$h$1$G$/$|$1$1$]$H$f ",
"P+I$J$K$_$L$'$w$B$w$2$c$1$'$|$B$c$'$h$t$G$p$L$L$p$b$G$i$|$'$p$p$L$C$c$M$C$C$C$6$C$3$3$6$B$C$6$3$i$i$p$i$G$c$^$C$p$1$/$5$p$N$O$) ",
"% 0 P$Q$R$n$w@3$t$A$w@1$D$G$/$C$'$B$]$5$/$G$/$G$G$t$h$^$M$t$/$/$2$w@t$h$G$n$B$w@M$S$G$w@t$B$'$t$^$C$5$/$^$c$|$'$^$g$'$i$3$T$U$= ",
"4   / V$W$X$Y$Z$B$G$6$3$6$C$2$2$'$g$'$G$w@p$'$'$p$w$c$'$|$c$/$|$p$/$^$^$p$w$c$^$/$M$/$b$'$G$h$B$G$'$G$t$A$2$2$w@L$6$i$E$@#`$O 9 ",
"4 ) ) ) ^  %)#.%+%@%#%$%E$h$p$3$_$C$i$'$'$/$C$^$^$'$g$/$p$|$|$|$5$g$/$M$/$M$/$G$%%&%*%=%-%;%>%M$^$|$]$B$i$_$i$C$p u$o$,%'%; c 7 ",
"# # ) ) / ..4   > ; ; )%!%~%{%]%^%/%(%_%:%<%[%}%|%1%c$p$p$i$p$w@2%3%4%5%6%7%8%9%0%a%b%c%d%e%f%g%h%i%j%k%l%m%n%o%p%q%b.= > = $ 8 ",
"C R / u   7 7 % > % ) % { / & > ; _.= r%s%t%u%v%w%x%y%z%A%B%C%D%E%F%G%0 #.5 % 4 #.H%= ^ G ^ / / $ / { f N 8 / & f   = > > 9.; ; "};
