/* XPM */
static char * house_4_xpm[] = {
"64 64 676 2",
"  	c #446B24",
". 	c #46702A",
"+ 	c #3E6917",
"@ 	c #264A13",
"# 	c #3E622A",
"$ 	c #41641E",
"% 	c #345423",
"& 	c #3F6824",
"* 	c #527533",
"= 	c #4A6D2C",
"- 	c #325415",
"; 	c #416424",
"> 	c #4C732C",
", 	c #3C631D",
"' 	c #456E29",
") 	c #355A1B",
"! 	c #426717",
"~ 	c #3D6517",
"{ 	c #3D6223",
"] 	c #4D7233",
"^ 	c #355B15",
"/ 	c #3A5C1D",
"( 	c #517731",
"_ 	c #080736",
": 	c #2A2368",
"< 	c #6956A5",
"[ 	c #8E89C4",
"} 	c #726AB3",
"| 	c #5A4798",
"1 	c #03022A",
"2 	c #223517",
"3 	c #46642C",
"4 	c #224405",
"5 	c #5B833B",
"6 	c #496D25",
"7 	c #3B5C23",
"8 	c #496633",
"9 	c #416428",
"0 	c #365A22",
"a 	c #33541B",
"b 	c #3D5C2A",
"c 	c #25431B",
"d 	c #486E2A",
"e 	c #2D4A19",
"f 	c #3D5D33",
"g 	c #2E511B",
"h 	c #415F24",
"i 	c #304E15",
"j 	c #456A2B",
"k 	c #4B7325",
"l 	c #46701E",
"m 	c #537B2C",
"n 	c #4D792C",
"o 	c #4F7932",
"p 	c #35601B",
"q 	c #4B6D33",
"r 	c #2E5114",
"s 	c #466A32",
"t 	c #547B33",
"u 	c #2A4C0E",
"v 	c #315025",
"w 	c #8D75B6",
"x 	c #EEE8F1",
"y 	c #FDFDF3",
"z 	c #FCFDEB",
"A 	c #FDFDFC",
"B 	c #E2DDEA",
"C 	c #A8B4D0",
"D 	c #594995",
"E 	c #1E342E",
"F 	c #2A4A13",
"G 	c #43642B",
"H 	c #4E7339",
"I 	c #446937",
"J 	c #324E22",
"K 	c #568132",
"L 	c #57822B",
"M 	c #597D33",
"N 	c #5F893D",
"O 	c #1E4107",
"P 	c #32590F",
"Q 	c #4D7925",
"R 	c #2D4C1A",
"S 	c #385C16",
"T 	c #436A1D",
"U 	c #254313",
"V 	c #51762C",
"W 	c #2C4247",
"X 	c #F8F7E8",
"Y 	c #F6F7F9",
"Z 	c #9E98D5",
"` 	c #34494F",
" .	c #4B6F32",
"..	c #2B4C14",
"+.	c #638B3D",
"@.	c #648C43",
"#.	c #3E691C",
"$.	c #314D1C",
"%.	c #14320E",
"&.	c #5E8A36",
"*.	c #365B29",
"=.	c #597F2D",
"-.	c #416828",
";.	c #5B5894",
">.	c #9278C7",
",.	c #27392C",
"'.	c #42632B",
").	c #477123",
"!.	c #294615",
"~.	c #35542B",
"{.	c #57823B",
"].	c #33531F",
"^.	c #342877",
"/.	c #96A6BB",
"(.	c #383775",
"_.	c #2D4B13",
":.	c #557B3A",
"<.	c #679146",
"[.	c #2A461C",
"}.	c #173406",
"|.	c #436431",
"1.	c #2F5023",
"2.	c #5B8334",
"3.	c #33531B",
"4.	c #365326",
"5.	c #303A4D",
"6.	c #6963A4",
"7.	c #C1BDE0",
"8.	c #1B2D26",
"9.	c #4A6C32",
"0.	c #2F4F28",
"a.	c #376014",
"b.	c #557A1D",
"c.	c #2C4B22",
"d.	c #23430C",
"e.	c #48662D",
"f.	c #467735",
"g.	c #294914",
"h.	c #2E4535",
"i.	c #393975",
"j.	c #9899CA",
"k.	c #1C1B66",
"l.	c #3E572C",
"m.	c #527B25",
"n.	c #3F6929",
"o.	c #415E2B",
"p.	c #476D39",
"q.	c #537932",
"r.	c #4A6D2F",
"s.	c #2A3648",
"t.	c #7664A6",
"u.	c #D9D4E7",
"v.	c #373477",
"w.	c #233810",
"x.	c #2A4A1A",
"y.	c #21314A",
"z.	c #352A6C",
"A.	c #13230F",
"B.	c #517625",
"C.	c #638C33",
"D.	c #1E410B",
"E.	c #223E0C",
"F.	c #4A6E31",
"G.	c #2D4320",
"H.	c #070B1C",
"I.	c #10180B",
"J.	c #58782D",
"K.	c #39571E",
"L.	c #395624",
"M.	c #3B572B",
"N.	c #3E6221",
"O.	c #1B2412",
"P.	c #010101",
"Q.	c #162809",
"R.	c #2C4A22",
"S.	c #26490B",
"T.	c #526E35",
"U.	c #1D3C0B",
"V.	c #38561E",
"W.	c #2D4719",
"X.	c #3A5B22",
"Y.	c #172814",
"Z.	c #030800",
"`.	c #28460E",
" +	c #5D8343",
".+	c #53753B",
"++	c #395223",
"@+	c #0C1135",
"#+	c #070428",
"$+	c #02020B",
"%+	c #142408",
"&+	c #4A6D36",
"*+	c #142513",
"=+	c #597D3B",
"-+	c #5A7C42",
";+	c #3A5B23",
">+	c #233B1C",
",+	c #2B2857",
"'+	c #261A9B",
")+	c #795699",
"!+	c #463688",
"~+	c #19144B",
"{+	c #2B3B23",
"]+	c #2B4913",
"^+	c #37591F",
"/+	c #3D6129",
"(+	c #34581C",
"_+	c #463583",
":+	c #42266F",
"<+	c #241968",
"[+	c #416519",
"}+	c #4B6C3A",
"|+	c #5B832C",
"1+	c #43632B",
"2+	c #395820",
"3+	c #203232",
"4+	c #573B97",
"5+	c #BB82AC",
"6+	c #674999",
"7+	c #A472AB",
"8+	c #E99CB4",
"9+	c #A976A9",
"0+	c #152708",
"a+	c #3F6C30",
"b+	c #1B3B04",
"c+	c #1E3827",
"d+	c #B68AC1",
"e+	c #F3BCC5",
"f+	c #A992C6",
"g+	c #698A3F",
"h+	c #2D510C",
"i+	c #244213",
"j+	c #2E4C19",
"k+	c #1B2A2A",
"l+	c #28185B",
"m+	c #876AA7",
"n+	c #E494B8",
"o+	c #F5A4B6",
"p+	c #7A58A5",
"q+	c #E8A1AD",
"r+	c #EBA4B4",
"s+	c #E295B4",
"t+	c #C789B6",
"u+	c #A66DAA",
"v+	c #573D87",
"w+	c #1C1E4A",
"x+	c #0E1B29",
"y+	c #1C2F0F",
"z+	c #0D1D03",
"A+	c #0F1735",
"B+	c #F9C2C6",
"C+	c #C698C4",
"D+	c #5A793F",
"E+	c #66913C",
"F+	c #426916",
"G+	c #67924A",
"H+	c #24400C",
"I+	c #12250C",
"J+	c #1A1468",
"K+	c #72468D",
"L+	c #C486AB",
"M+	c #D48CB6",
"N+	c #8A639A",
"O+	c #6B64A8",
"P+	c #A1769E",
"Q+	c #D591AD",
"R+	c #EA9DBA",
"S+	c #DC95B3",
"T+	c #7454A2",
"U+	c #8968B6",
"V+	c #FDC2D3",
"W+	c #CDA7CC",
"X+	c #4A5E60",
"Y+	c #52792E",
"Z+	c #577840",
"`+	c #203C13",
" @	c #345323",
".@	c #2F481D",
"+@	c #11201A",
"@@	c #131952",
"#@	c #B47BB1",
"$@	c #D492B3",
"%@	c #835AA3",
"&@	c #614CA4",
"*@	c #8D6BA5",
"=@	c #DAA8C5",
"-@	c #FCBCCC",
";@	c #C08BC1",
">@	c #484996",
",@	c #9768A8",
"'@	c #EC96B7",
")@	c #DC94AD",
"!@	c #B985A9",
"~@	c #8B62AC",
"{@	c #372987",
"]@	c #E7B5BA",
"^@	c #ECB3C5",
"/@	c #393974",
"(@	c #1F3A12",
"_@	c #688737",
":@	c #3C5B1E",
"<@	c #304C1C",
"[@	c #486C24",
"}@	c #527541",
"|@	c #30500F",
"1@	c #3F5E25",
"2@	c #334A20",
"3@	c #141648",
"4@	c #462C89",
"5@	c #DBA3B7",
"6@	c #814EAB",
"7@	c #9372AD",
"8@	c #E5ABC5",
"9@	c #F6C1D5",
"0@	c #F7B7D8",
"a@	c #E9ACD1",
"b@	c #554D8C",
"c@	c #8D62A3",
"d@	c #C994B8",
"e@	c #E39AAD",
"f@	c #CD8DAC",
"g@	c #8558A6",
"h@	c #2A1D78",
"i@	c #1E3112",
"j@	c #406323",
"k@	c #486838",
"l@	c #395B18",
"m@	c #36571B",
"n@	c #44682A",
"o@	c #11073A",
"p@	c #34257A",
"q@	c #7351AA",
"r@	c #9B74A7",
"s@	c #FBC3CC",
"t@	c #EDBACB",
"u@	c #F5ACD5",
"v@	c #E5B4CA",
"w@	c #FCB8C7",
"x@	c #D997B9",
"y@	c #9778B7",
"z@	c #E39BBA",
"A@	c #E19CC2",
"B@	c #D489A8",
"C@	c #96669B",
"D@	c #383687",
"E@	c #0F1744",
"F@	c #274115",
"G@	c #517631",
"H@	c #315315",
"I@	c #3E562D",
"J@	c #234803",
"K@	c #3F5E28",
"L@	c #3A5532",
"M@	c #292B62",
"N@	c #E7A6BA",
"O@	c #C588A8",
"P@	c #6849A6",
"Q@	c #E5B4C5",
"R@	c #ECADCA",
"S@	c #EDB4CB",
"T@	c #FEC3DB",
"U@	c #F4BACC",
"V@	c #F1B3C4",
"W@	c #F4BBD3",
"X@	c #FBBDD2",
"Y@	c #ECB3D2",
"Z@	c #754D95",
"`@	c #B47BA6",
" #	c #21312C",
".#	c #395824",
"+#	c #365226",
"@#	c #242260",
"##	c #734C9B",
"$#	c #A883B8",
"%#	c #E9B8D3",
"&#	c #AE7DC4",
"*#	c #7764A9",
"=#	c #8465AB",
"-#	c #68589D",
";#	c #B688B8",
">#	c #E495A9",
",#	c #132125",
"'#	c #203B09",
")#	c #31511A",
"!#	c #345914",
"~#	c #344C3E",
"{#	c #634A9D",
"]#	c #ECB4BC",
"^#	c #A678B6",
"/#	c #C6C5DB",
"(#	c #5C49A4",
"_#	c #E4E8E8",
":#	c #B6DAD2",
"<#	c #0D162A",
"[#	c #293C17",
"}#	c #324E16",
"|#	c #537838",
"1#	c #5D882F",
"2#	c #406223",
"3#	c #33532E",
"4#	c #48467A",
"5#	c #A378B2",
"6#	c #EBADC3",
"7#	c #E39AB3",
"8#	c #DD9AAD",
"9#	c #1D330F",
"0#	c #547D29",
"a#	c #37551D",
"b#	c #203B10",
"c#	c #212953",
"d#	c #865BB3",
"e#	c #4A3694",
"f#	c #F2B5CB",
"g#	c #5457AA",
"h#	c #F3ADC6",
"i#	c #2D4220",
"j#	c #305114",
"k#	c #2C500C",
"l#	c #324C1F",
"m#	c #1B2750",
"n#	c #8E8BBA",
"o#	c #F2B4D2",
"p#	c #A479B5",
"q#	c #162633",
"r#	c #203711",
"s#	c #2F4F13",
"t#	c #507530",
"u#	c #1C2D26",
"v#	c #DD9AB3",
"w#	c #B88BC3",
"x#	c #CFE1D6",
"y#	c #5B61B0",
"z#	c #CDCBD2",
"A#	c #84579B",
"B#	c #D7939A",
"C#	c #304820",
"D#	c #5C8142",
"E#	c #558032",
"F#	c #3D5C1E",
"G#	c #1E2E34",
"H#	c #B693B8",
"I#	c #E8BAC5",
"J#	c #2A3B4C",
"K#	c #3B5F22",
"L#	c #4B762B",
"M#	c #497323",
"N#	c #456432",
"O#	c #2F421D",
"P#	c #B06AA9",
"Q#	c #E8E6ED",
"R#	c #74529C",
"S#	c #E488A7",
"T#	c #514189",
"U#	c #496840",
"V#	c #658F3B",
"W#	c #3C5E37",
"X#	c #564780",
"Y#	c #875297",
"Z#	c #DC6D94",
"`#	c #DC779B",
" $	c #294125",
".$	c #35601D",
"+$	c #7E6A86",
"@$	c #DC98A6",
"#$	c #693D96",
"$$	c #66689E",
"%$	c #E3739B",
"&$	c #274413",
"*$	c #34562E",
"=$	c #2A2773",
"-$	c #2C1C8A",
";$	c #F4B7BD",
">$	c #456932",
",$	c #1A3108",
"'$	c #2B2F62",
")$	c #456738",
"!$	c #B387B4",
"~$	c #44692C",
"{$	c #50752C",
"]$	c #7D65A0",
"^$	c #446641",
"/$	c #324F0C",
"($	c #695297",
"_$	c #2D473C",
":$	c #476830",
"<$	c #1E3E12",
"[$	c #393E75",
"}$	c #9263A3",
"|$	c #9C6BA4",
"1$	c #A46DA3",
"2$	c #A973A4",
"3$	c #B87CA9",
"4$	c #315034",
"5$	c #343B6F",
"6$	c #496C2C",
"7$	c #2A3647",
"8$	c #755C9C",
"9$	c #304C38",
"0$	c #CE92AD",
"a$	c #69697D",
"b$	c #2D4A2A",
"c$	c #8B5D9D",
"d$	c #4F3BA3",
"e$	c #576A6D",
"f$	c #1C3D04",
"g$	c #26421C",
"h$	c #EBA3BB",
"i$	c #F1ABAD",
"j$	c #525F71",
"k$	c #2F4924",
"l$	c #D58EAD",
"m$	c #492C8E",
"n$	c #C97DAE",
"o$	c #4E5478",
"p$	c #61863B",
"q$	c #3D5928",
"r$	c #EACBD0",
"s$	c #525A75",
"t$	c #44652E",
"u$	c #3E5067",
"v$	c #3F6323",
"w$	c #34445C",
"x$	c #2E4D15",
"y$	c #374A52",
"z$	c #2F4F1D",
"A$	c #25344F",
"B$	c #456439",
"C$	c #162F0C",
"D$	c #293163",
"E$	c #244612",
"F$	c #13250E",
"G$	c #222D5F",
"H$	c #29461F",
"I$	c #243729",
"J$	c #393B84",
"K$	c #5C669A",
"L$	c #141749",
"M$	c #192A11",
"N$	c #26420E",
"O$	c #345919",
"P$	c #51617D",
"Q$	c #ACD3CA",
"R$	c #111A4F",
"S$	c #233D24",
"T$	c #34521F",
"U$	c #314D1D",
"V$	c #62768A",
"W$	c #B9DECF",
"X$	c #BCE2D3",
"Y$	c #AEDAC4",
"Z$	c #ACD4C4",
"`$	c #5565A3",
" %	c #C2E6C8",
".%	c #9EBDD1",
"+%	c #7887B2",
"@%	c #3A3B84",
"#%	c #39552B",
"$%	c #50695C",
"%%	c #B4DFC3",
"&%	c #ACD9CA",
"*%	c #9AC2C2",
"=%	c #ADD5D2",
"-%	c #B8E3C7",
";%	c #B4E0BC",
">%	c #A7D3BA",
",%	c #BBE4CB",
"'%	c #B1CCC7",
")%	c #5962A6",
"!%	c #406530",
"~%	c #3C6123",
"{%	c #425D3F",
"]%	c #9FC2B0",
"^%	c #9DC4BB",
"/%	c #9BC5B7",
"(%	c #545A94",
"_%	c #AD819C",
":%	c #A96D9C",
"<%	c #8DB3AF",
"[%	c #A9CDC8",
"}%	c #BADCCB",
"|%	c #494D93",
"1%	c #12211C",
"2%	c #334E3E",
"3%	c #93AB90",
"4%	c #ABD6C0",
"5%	c #A9C9D4",
"6%	c #4D5398",
"7%	c #B4DBCB",
"8%	c #97BAB9",
"9%	c #3D4A71",
"0%	c #B3D6CE",
"a%	c #6974A6",
"b%	c #A6D3C2",
"c%	c #405D2C",
"d%	c #83959F",
"e%	c #A1C6C4",
"f%	c #A2CABB",
"g%	c #B2DBC5",
"h%	c #A4CBC3",
"i%	c #99B9C7",
"j%	c #89A7B3",
"k%	c #B2D5CB",
"l%	c #395A2C",
"m%	c #777C9D",
"n%	c #B1D8C7",
"o%	c #B2DBBD",
"p%	c #B5D5C6",
"q%	c #2A4B16",
"r%	c #415360",
"s%	c #6873A3",
"t%	c #293C1B",
"u%	c #22430D",
"v%	c #303E57",
"w%	c #5B6697",
"x%	c #28384B",
"y%	c #27470F",
"z%	c #375621",
"A%	c #2B412D",
"B%	c #30395D",
"C%	c #3D4679",
"D%	c #182612",
"E%	c #32531B",
"F%	c #4D7239",
"G%	c #446D2D",
"H%	c #334E40",
"I%	c #455572",
"J%	c #4D548F",
"K%	c #404F71",
"L%	c #425367",
"M%	c #273C3E",
"N%	c #304B21",
"O%	c #4A6935",
"P%	c #3F5C23",
"Q%	c #4A712B",
"R%	c #45692B",
"S%	c #4D6D37",
"T%	c #365D29",
"U%	c #334D2D",
"V%	c #395627",
"W%	c #3C583F",
"X%	c #546D58",
"Y%	c #405751",
"Z%	c #45576A",
"`%	c #3F526A",
" &	c #3F5468",
".&	c #465B6E",
"+&	c #40506C",
"@&	c #495B70",
"#&	c #4C616E",
"$&	c #42546C",
"%&	c #46556F",
"&&	c #4F6176",
"*&	c #4B5B75",
"=&	c #424E6F",
"-&	c #4C5C72",
";&	c #4E5F75",
">&	c #495972",
",&	c #44516F",
"'&	c #3E4D6B",
")&	c #415269",
"!&	c #445769",
"~&	c #3E4E68",
"{&	c #303D65",
"]&	c #42556B",
"^&	c #475E6B",
"/&	c #50606C",
"(&	c #3F5168",
"_&	c #45586C",
":&	c #4D676D",
"<&	c #3F5169",
"[&	c #41555D",
"}&	c #2F4A41",
"|&	c #243D26",
"1&	c #243D23",
"2&	c #314F21",
"3&	c #3C6022",
"  . +   @ # $ % & * = = - ; >   ,   + ' ) & ! ) ~ { ] ^ / % ( _ : < [ } | : 1 2 3 4 ; 5 6 - 7 8 9 0 a b c a d e f g h h i h { 0 ",
"j k l m ) ] ~ 7 n .   ^ a a ^   f ) o ) ) p ) q r s t g u 7 v w x y z y A B C D E F 7 ;   a a 7 # ) > G / = H I % - ; b J G ; q ",
"{ K L p M K 6 N   O P   8 G Q j R + K H . m S ! & H T U K V W x A X X X X Y A z Z `  ...r ) ) 7 0 +.6 j @.#.# s @ k 6 $.%.a / @ ",
"7 &.! { K l &.n o *.{ V b 0 6 # r =.m & > K M $ j n j 7 =.O -.;.x A A X y Y A y y >.,.'.a - 7 ] & ).> # M & t   = = G b !.{ / R ",
"R ^ P # m Q K ).] *.h M ~.% k s j q   ] *.7 a R ] ) - {.> @ &.].^./.B A A X X X y X (._.a ..{ { { :.> { ) <.L Q   [.R ; T 6 !.*.",
"# , > ; # > #.& & !.h - }.$.6 @ ) 7 ^ > R / u |.Q 1.^ ] j & 2.j 3.4.5.6.7.Y y A x y [ 8.9.@ 7 s 0.*., a., Q 2.a ..~.~.T b.~ !.[.",
"{ o . * r . 2.j j ) { a c.d...e.a / 2.  ..  M - , b   { . f.. . ; ) R g.h.i.j.B z A 7.k.l.$.% 7 % ) S   n m.m j $.b ; =.6 u J @ ",
") & n , G o Q n.{ G G o.G !.a 7 % = ] U , n S ; q t { *., p.f.& , - ....] q.r.s.t.u.Y v.w.a !.a G &.  ] > , - ] 8 r m =.0 J b - ",
"= b { ; { o Q # # { * r % % d.$.^ > > ) { . V 7 {.  n > s o :.5 > = ; 6 n ; / a x.y.} z.A., ~.a B.C.).j = $.% ) a D./ o.e.$.E.$.",
"- j G Q # ).. { *.R { 7 G ..b o.R j ] # # . q R k , m :.= u j t h ..h T H p.*.> M F.G.H.I.J.~.7 = 6 ] G ..$.[...{ R U R j K.h !.",
"^ d.  > o {.T   |.a G i a $.h ..!.*.a ; #.q L.M.n K ! > ; r / = a $./ M ] f g t , + N.O.P.Q.R.6 b G q S...o.; e.j a / d./ T.h ..",
"7 U.{ q k p n ] R R 0 L.e.L.!.i [.[.G $ n M.U a > M * :.] G G V.W.X.|.R *., { - #.* { Y.Z.Z.e./ ..# j V q = 6 n $ a E.a S.a T.= ",
"!.`.o.;   #. +t % h h o.U L..+L.!.$.q 6 $ $.!.E.% s j / ; ++@+#+$+%+&+G 7 n ; G o G g *+P.Z.! =+7 R # #.7 / M ~ 5 =+b $.U -+0 7 ",
"R 7 q , t m s ) 7 -+7 ..E.8 8 $.i e.j V - i !.$.g R - ;+>+,+'+)+!+~+{+]+^+/+ +@.p.@ (+_+:+<+[+6 d.0 j j }+e.a & 5 > % K.L.T.d.- ",
"^ = 6 # |+= 7 a q ; S.a $.% !.G b 6 V > 7 R !.$.G 1+2+3+4+5+6+7+8+9+6+<+_ 0+a+j ] b+c+d+e+f+g+G R d.G 7 7 `.g :.o , s j E.- L.a ",
"q L * > m 2.a i , =+= * L.i !.L.K.h+B.7 [.b ..i+j+k+l+m+n+o+6+p+q+r+s+t+u+v+w+x+y+z+A+>.B+C+D+; ~./ G ) V M H Q n Q .+k $.$ b % ",
"7 7 ; 0 * E+F+  #.G+p Q  +j R a % b ; ..b % H+I+J+K+L+o+M+N+4+O+K+P+Q+R+s+S+5+T+: 1 1 U+V+W+X+/ M.S = ; 0 0 j 6 T Y+Z+h L.o./ i ",
"S.!.`+..m * =+N j j o . p o j 7 / * e. @.@+@@@v+#@r+$@%@&@*@=@-@;@p+>@,@s+'@)@8+!@~@{@| ]@^@/@(@7 G G V e.b ; _@# :@<@[@/ u a }@",
"!.$.L.h = ) {.* { s H / >   * |@- H 1@2@3@4@#@5@M+6@6+7@8@9@^@]@9@0@a@< b@c@d@S+e@R+f@g@6+U+h@i@j@G u a a o.= B.# n k@l@m@a S.}@",
"..G G a * k * :.-+; L.R { ] > { n@e o@p@u+o+5+q@< r@^@s@t@a@^@u@]@v@^@w@x@y@6+)+!@'@z@A@B@C@D@E@F@G@T.L.$.7 m 6 m B.M.H@I@a J@> ",
"g { j ^ o . & { ] ) a !.) ] ) K@L@M@~@N@O@6+P@!@Q@9@R@S@B+e+T@U@T@-@V@v@W@X@Y@9+6+Z@`@e@'@8+$@*@D@ #.#U [.K.  @.B.B.G J@b q 6 M ",
". - j . t o {.  & , ; ; / # +#@###C+S+)+| $#B+X@Y@%#9@N@&#*@*#p+=##@=@s@t@Y@u@-@v@;@-#6+;#e@8+>#x@g@:+,#'#)#; =.$ m.{ 2.* 6 5 { ",
"0 G :.Q #.r # =+p :..+j !#~#{#!@o+`@v+*@^@w@0@%#]#B+^#*#C /#(#_#:#Z < ,@9@]#^@S@u@e+s@^#(#T+`@R+n+>#$@U+p@<#[#}#|#m.) 1#, j j R ",
"c.  M :.n.G ) a { { 2#3#4#5#N@Q+(#K+C+T@Y@S@Q@6#X@,@*#Y y _#< Y A z Y w Z@a@Q@S@e+S@R@s@^@$#6+)+L+z@7#8#M+~@p@_ 9#0#{ n ..7 0 % ",
"7 M.{ G = m ; a a#b#c#d#R+>#C@e#!@S@T@S@^@f#S@f#z@(#A y y y g#Y Y A z A j.p+X@Y@v@f#h#^@v@T@Y@P+(#)+L+8+>#>#d@)+l+i#j#0 a 4 d.G ",
"  7 ; g =+B.k#l#m#4+t+o+,@>@m+8@W@Y@S@8@f#^@^@W@W+>@[ n#n#y@D@y@f+j.f+f+n#4+]@f#t@t@f#f#R@8@o#X@S@p#| ##d@A@S+8+&#!+q#r#s#7 * :.",
"n 5 t > _@t#u#J+,@v#5+| -#W+T@V@S@S@^@S@f#^@^@W@w#*#x#/#u.u.y#[ z#C /#z#/#&@=@o#h#t@t@^@V@f#f#R@v@V+o#p#| A#O@x@S+B#p+<+C#D#j j ",
"k n   E#F#G#!+L+x@)+6+;#w@U@R@V@S@S@U@S@^@S@f#f#a@P@x A y A [ H#A y y A j.q@s@V@o#6#U@f#Q@I#t@W@^@^@h#w@I#7@6+A#M+R+q@J#K#= / , ",
"L#M#N#O#J+c@6#P#e#^#^@w@u@u@e+Y@U@^@^@U@^@S@f#S@e+C+q@Z _#A /.n#Y y Q#[ R#8@B+Y@U@B@S#r+U@R@s+s+e+Y@t@Q@^@V+S@w b@T#U#; ; ..{ H ",
"n V#W#X#;#q+Y#| 5@U@W@v@^@^@S@t@6#Q@^@S@^@^@S@f#h#B+]@y@} w } y#H#[ q@7+X@W@v@%#v@S#Z#Z#S#S#Z#`#R@t@%#Y@^@Q@R@V+}  $= K.G !.g H ",
"K G+.$+$@$#$$$t@o#a@Y@f#^@v@t@]#U@f#t@S@S@f#t@S@v@S@f#U@X@A@t+;#$#C+]@9@u@]#v@Y@U@h#`#`#`#%$`#o+e+f#R@U@o#f#]#W@^#&$h L.R J *.; ",
"L & n *$=$-$=@0@S@f#^@^@U@t@S@Y@S@S@S@Y@t@S@S@f#o#V@S@0@8@U@w@W@B+w@o#I#^@a@f#;$f#f#R+`#Z#`#s+S@Y@f#]#V@R@t@Y@f#;#>$L.$.J !.a V ",
"[.R m & ,$'$C+;$S@Y@S@f#t@S@S@S@^@Q@S@S@S@S@S@f#S@S@S@S@S@S@V@S@^@I#S@^@^@^@S@S@S@U@f#6#R+N@R@U@S@f#f#S@f#S@^@U@w#=.- $.b - :.) ",
"K.%   ; ; )$!$0@^@^@V@V@^@V@^@R@S@S@S@R@S@^@^@^@^@^@^@S@S@S@S@R@o#f#R@V@S@f#f#S@Q@^@f#S@8@S@S@^@^@R@V@^@^@^@^@U@w#~$^ U % = e.u ",
"h { ; K.6 {$]$W@S@t@W@f#f#o#t@f#-@-@-@-@X@X@X@o#X@-@-@X@X@s@V+V+0@X@X@X@s@U@-@V+W@W@X@X@X@X@X@W@X@U@-@U@U@U@e+s@w#^$G o.J h e.R ",
"a   = ~.K./$($U@=@v@v@=@=@=@=@=@d@H#d@H#;#;#;#$#$#p#$#y@7@m+m+7@7@7@7@7@7@7@7@7@7@7@*@*@*@7@7@*@=#=#m+=#=#=#=#*@##_$:$-+i $.:...",
"j K   <$!.; [$Y#T+T+p+T+T+T+T+T+p+p+%@%@%@c@~@m+}$}$|$|$|$1$2$2$1$1$1$1$1$u+7+u+2$2$1$9+2$9+2$2$`@`@`@!@3$3$`@!@~@4$& 7 a `.$.L.",
"t .+- 0 & 8 5$w#B@B@Q+Q+S+S+s+v#7#7#e@s+e@e@e@8+8+e@7#s+8+n+s+s+8#8#8#v#s+v#v#e@s+s+7#v#n+s+n+7#z@S+s+v#n+s+s+R+d#6$G d.h $.o.i ",
"m.q ) k t }@7$;@r+q+7#7#7#s+s+8+@$8#)@e@s+S+)@S+)@)@)@7#v#e@v#q+8+7#s+8+7#8+>#>#7#v#S+S+)@)@s+v#v#8#8#Q+S+S+Q+7#8$6 @ ^ :.[.- S ",
"&..+m B.. o 9$g@r@|$}$}$}$N+}$}$7+7+7+#@#@5+3$5+3$#@5+9+|$N+%@c@%@%@%@A#C@r@9+9+`@`@`@3$5+5+3$3$`@5+L+L+L+L+O@0$a$j ] ] 7 7 R M ",
"}@. =._@h $.b$6+C@C@|$r@,@|$|$C@%@c$%@%@Y#Z@O+A#R#d#6+-$d$*#p#;#;#H#w#*@>@-$6+}$p+%@p+Y#R#p+T+)+)+R#R#R#T+T+##)+e$> {.}+f$K.s 2.",
". {.2.$ i $.g$*#h$e@7#q+7#s+N@7#8+7#z@7#>#v#v#s+o+P+6+;#w@-@U@X@s@-@0@0@B+d@#$5+i$B#n+r+8#e@n+7#v#8#v#)@S+v#)@e@j$j / !.= = @ t ",
"> $ { # 7 `+k$U+)@Q+Q+S+$@$@$@Q+$@l$$@d@M+$@0$$@3$!+W+V+o#]@%#R@Y@t@^@t@Y@T@w#m$n$8#x@l$Q+Q+M+M+$@l$l$$@M+$@$@v#o$- ..# p$; G ) ",
"  G % f .+/ q$q@h$s+Q+$@l$l$Q+S+S+)@S+8#s+)@@$h$6+y@s@6#I#]@%#f#f#]#I#I#Y@V@r$y@K+N@v#v#8#v#@$r+R+7#8+s+)@)@)@)@s$q g b t u q 0 ",
"d.U 1.j   k t$6+)+)+R#R#####R#R#p+)+####q@p+)+##d$Q@u@u@U@Y@V@Y@w@a@^@S@^@o#Y@N@e#N+A#d#C@}$N+Y#)+R###T+R###R###u$$.J L.*   h % ",
"% U b > + =.v$4+O@O@f@f@0$0$f@f@t+O@L+O@L+t+f@g@< T@]@v@f#v@f#]#Q@0@6#e+t@^@]#V+< ###@u+1$1$2$`@3$5+5+L+L+L+d@;#w$!.a i o.T.a o.",
"d.G ] ) ^ = x$m$S+x@S+$@x@S+)@S+s+)@x@)@S+n+q+##7@B+R@o#]@V@o#^@%#]#u@V@^@u@V@V+>.p+N@@$z@x@v#8#S+S+s+s+S+s+x@f@y$R 7 h U L.6 $.",
"& =+{ !.b H z$4@f@$@$@$@Q+M+Q+l$Q+Q+x@)@$@Q+v#4+t+9@-@W@W@h#V@v@^@t@S@a@o#t@a@B+*@##8#>#$@f@S+Q+Q+S+M+S+l$l$x@L+A$R `.f$[.B$= 7 ",
"> m 7 o k H C$J+#@q+8+R+8+A@S+@$z@v#8#n+s+e@d@4+8@w#b@m+I#o#u@V@f#S@S@S@S@f#^@X@^#&@6#z@R+7#v#>#8+@$R+7#z@7#N@n$D$`+a / h G % 6 ",
"m ; { :.) E$F$_ P@u+c$c@N+A#%@p+R#R#)+)+R#)+T+e#%#P@'+h@W+^@^@r$f#S@S@t@f#S@^@U@;#!+C@c@N+C@,@u+|$|$,@C@9+1$P+c@G$H$b h K./ %   ",
"2.= ) n i+I$J$K$4@2$|$7+`@2$5+5+`@L+L+3$5+t+C@v+V@=@7@;@W@6#o#]#S@S@S@S@S@S@^@X@$#e#2$r@7+C@*@c$c$c@c@c$}$c$C@%@L$M$N$$.@ r *.s ",
"K H $.O$P$j.Q$Q$e#d@5@S+8#7#R+B@n+S+)@S+x@7#`@P@U@f#-@V@]#0@R@f#S@^@S@S@t@S@^@W@;#6+r+S+e@7#v#e@r+e@8+e@8#7#N@P#D@>@R$S$T$G b ..",
"o > U$V$W$X$Y$Z$| 2$5@v#e@8#z@e@s+e@8#S+8#r+5+| U@S@Y@S@f#8@S@^@S@S@S@S@t@f#^@X@;#4+r+S+7#R+v#s+S+S+z@z@n+n+N@P#`$ %.%+%@%#%7 # ",
"7 - $%%%&%*%=%-%g##$Y#Y#g@=#g@~@N+c$|$|$}$}$Z@(#e+S@^@V@o#U@e+U@f#S@S@S@S@^@R@-@H#e#1$}$c$C@}$,@}$|$1$C@r@C@2$%@`$;%>%,%'%)%!%~%",
") {%]%=%Y$^%/%-%(%}$d@L+3$_%2$1$7+7+2$:%7+#@|$| v@Y@0@S@S@^@Q@R@f#t@U@S@f#S@V@X@H#e#9+^#|$1$r@7+u+|$C@C@|$C@2$##`$:#<%[%}%}%|%1%",
"2%3%4%Y$Y$Z$5%,%6%g@L+n$n$L+f@)@n+l$l$S+B@Q+M+4+6#f#^@U@o#f#V@o#f#f#U@f#X@o#U@T@;#6+o+R+o+h$r+i$o+r+h$r+R+R+N@:%y#,%>%Y$Q$7%8%h@",
"9%0%Q$Y$>%8%:#}%+%K$a%a%a%O+$$< O+O+K$< y#O+< >@O+*#*#*#*#*#*#*#*#-#*#-#=#=#=#*#(#!+p+T+g@g@m+N+%@p+)+p+R#< T+| a% %&%*%b%>%}%g#",
"c%d% %&%e%f%g%Y$:#7%-%7%7%}%X$Z$h%:#b%f%g%>%[%[%Z$/%e%h%f%[%f%f%e%[%e%e%*%8%8%8%i%8%i%j%j%j%+%j%j%j%i%8%8%*%[%*%k%Z$&%*%*%X$i%D@",
"- l%m%n% %o%Q$b%f%b%=%/%*%Q$&%f%/%Q$[%8%k%7%o%o%7%^%k%}%&%Q$7%7%o%g%/%p%g%g%g%,%g%-%-%,%f%g%,%-%}%}%7%}%k%/%Y$g%7%*%Z$>%7%X$a%_ ",
"G % q%r%s%5%:#-%8%e%:#*%h%k%Z$g%Q$f%X$>%Z$k%Z$k%k%8%[%Y$p%8%Z$Z$=%:#8%[%k%5%f%:#p%'%k%:#8%f%Q$8%Y$g%>%Z$Y$/%&%Q$Y$<%Q$}%-%/.v.t%",
" +) G , u%v%w%/.f%k%,%-%,%g%=%=%Q$<%Q$k%:#7%Q$Q$7%b%/%Q$&%/%Z$&%7%Z$Y$Y$7%b%/%Y$Z$p%Z$^%Q$k%[%f%k%Q$k%8%e%=%=%:#o%,%}%i%y#x%y%:.",
"B.6   / ; :.z%A%B%C%$$+%i%[%7%-% %g%}%Q$Q$Z$g%Y$Y$Q$<%Z$7%&%&%&%>%<%Z$p%Z$p%Z$k%g%&%Z$<%:#7%'%p%Y$&%X$f%}% %}%g%C +%6%~+D%j#U M ",
"|+m = G R 7 R R d.$.E%F%G%H%I%J%a%j%.%5%Q$Z$:#Y$:#}%/%7%7%}%7%:#x#e%7%7%7%,%:#k%Q$Z$Q$f%Q$k%7%7%p%'%i%/.+%w%K%L%M%N%O%P%7 e.G = ",
"Q%u a d.- :.  { d.o.b ) j R%S%T%U%V%W%X%Y%Z%`% &.&+&@&#&$&%&&&*&=&-&;&>&,&'&)&!&~&{&]&^&/&(&_&:&<&[&}&|&1&2&3&0 { { ) ; 7 .+u q "};
