/* XPM */
static char * house_1_xpm[] = {
"64 64 641 2",
"  	c #4A6D33",
". 	c #4E7933",
"+ 	c #4F7549",
"@ 	c #467128",
"# 	c #5E893C",
"$ 	c #456B2C",
"% 	c #4C7333",
"& 	c #47712B",
"* 	c #4B732D",
"= 	c #496D2D",
"- 	c #436B25",
"; 	c #4D792C",
"> 	c #4B7233",
", 	c #3F6A29",
"' 	c #467125",
") 	c #527B34",
"! 	c #4B6E4D",
"~ 	c #454A8C",
"{ 	c #3A2D98",
"] 	c #3A2A8A",
"^ 	c #4A439C",
"/ 	c #745EB2",
"( 	c #8876B8",
"_ 	c #7169B4",
": 	c #342C93",
"< 	c #3D359D",
"[ 	c #587459",
"} 	c #375D14",
"| 	c #416525",
"1 	c #5A833C",
"2 	c #4E7A39",
"3 	c #517635",
"4 	c #52753A",
"5 	c #526F35",
"6 	c #436632",
"7 	c #42652E",
"8 	c #597E3C",
"9 	c #42652B",
"0 	c #4A6B3D",
"a 	c #517B2D",
"b 	c #4A7326",
"c 	c #3D6424",
"d 	c #36611A",
"e 	c #3F6A25",
"f 	c #466C32",
"g 	c #3E5075",
"h 	c #5957A5",
"i 	c #C5C3DB",
"j 	c #F8F8EA",
"k 	c #FEFDF4",
"l 	c #FCFDEC",
"m 	c #EDEEED",
"n 	c #58478D",
"o 	c #3E5176",
"p 	c #4B7236",
"q 	c #547B3A",
"r 	c #466B39",
"s 	c #4E7439",
"t 	c #3A5D24",
"u 	c #456A33",
"v 	c #56813A",
"w 	c #3D682A",
"x 	c #48672E",
"y 	c #496733",
"z 	c #52762D",
"A 	c #496E26",
"B 	c #558134",
"C 	c #51607C",
"D 	c #F7F7F7",
"E 	c #868AB4",
"F 	c #3F5374",
"G 	c #587E4C",
"H 	c #467232",
"I 	c #5F9132",
"J 	c #709A48",
"K 	c #426539",
"L 	c #567D43",
"M 	c #405D2D",
"N 	c #3D6730",
"O 	c #659048",
"P 	c #3E642A",
"Q 	c #676793",
"R 	c #FEFDFD",
"S 	c #888BB8",
"T 	c #333A8D",
"U 	c #436934",
"V 	c #668D49",
"W 	c #5B8833",
"X 	c #3C5D2B",
"Y 	c #4A6D3A",
"Z 	c #4C7238",
"` 	c #4F8428",
" .	c #313783",
"..	c #CECEE5",
"+.	c #445A6C",
"@.	c #4C7334",
"#.	c #669246",
"$.	c #4D7B25",
"%.	c #3A5D23",
"&.	c #3B631E",
"*.	c #4D7648",
"=.	c #5C8442",
"-.	c #456B2E",
";.	c #466055",
">.	c #405373",
",.	c #3B4084",
"'.	c #7A75B6",
").	c #948DC9",
"!.	c #343782",
"~.	c #5A8335",
"{.	c #3D681D",
"].	c #5A7E42",
"^.	c #4B6F47",
"/.	c #4C7042",
"(.	c #44686C",
"_.	c #2F3483",
":.	c #4B42A3",
"<.	c #B7D7D2",
"[.	c #CFCED2",
"}.	c #57715A",
"|.	c #516F3B",
"1.	c #597D38",
"2.	c #4A6E46",
"3.	c #3F6431",
"4.	c #57882F",
"5.	c #4D7735",
"6.	c #52745C",
"7.	c #3F5282",
"8.	c #544E99",
"9.	c #AE92C3",
"0.	c #E7DFE6",
"a.	c #5647A4",
"b.	c #3A4A7A",
"c.	c #537442",
"d.	c #5B7D2A",
"e.	c #5E8942",
"f.	c #618C3D",
"g.	c #3F5D54",
"h.	c #4B732F",
"i.	c #628B44",
"j.	c #3A5B35",
"k.	c #3D5862",
"l.	c #3F4195",
"m.	c #747AAB",
"n.	c #35328A",
"o.	c #608543",
"p.	c #42633A",
"q.	c #435D65",
"r.	c #456939",
"s.	c #597E35",
"t.	c #4B7230",
"u.	c #4D763C",
"v.	c #61855A",
"w.	c #517162",
"x.	c #466074",
"y.	c #54822D",
"z.	c #456840",
"A.	c #45654D",
"B.	c #486730",
"C.	c #365B23",
"D.	c #466C33",
"E.	c #5A813C",
"F.	c #4B732E",
"G.	c #426431",
"H.	c #4A6C36",
"I.	c #435D59",
"J.	c #53705F",
"K.	c #4B7138",
"L.	c #47712C",
"M.	c #4D792D",
"N.	c #395F1D",
"O.	c #4A6561",
"P.	c #444B88",
"Q.	c #42498E",
"R.	c #485384",
"S.	c #426148",
"T.	c #5E883F",
"U.	c #5F8248",
"V.	c #587B48",
"W.	c #405D2E",
"X.	c #355B1D",
"Y.	c #4B703E",
"Z.	c #3C4593",
"`.	c #39378C",
" +	c #394386",
".+	c #527560",
"++	c #5E8844",
"@+	c #4E7838",
"#+	c #425E55",
"$+	c #426430",
"%+	c #4E773E",
"&+	c #45577E",
"*+	c #3D237A",
"=+	c #744F99",
"-+	c #684A97",
";+	c #6A56A4",
">+	c #7957A9",
",+	c #4D378C",
"'+	c #495A76",
")+	c #3E5F5C",
"!+	c #466D42",
"~+	c #496D2E",
"{+	c #3B6130",
"]+	c #4C6E44",
"^+	c #4E7934",
"/+	c #597D40",
"(+	c #456B2D",
"_+	c #597741",
":+	c #456848",
"<+	c #3A4189",
"[+	c #56459A",
"}+	c #A36AA7",
"|+	c #E8A6BA",
"1+	c #8A5493",
"2+	c #AB74AB",
"3+	c #F2A3B6",
"4+	c #C38BAD",
"5+	c #89649A",
"6+	c #573A99",
"7+	c #3A4881",
"8+	c #425D5A",
"9+	c #3E6336",
"0+	c #5A853F",
"a+	c #465F6A",
"b+	c #344278",
"c+	c #75678B",
"d+	c #BCA095",
"e+	c #B594A4",
"f+	c #5A7B5C",
"g+	c #436633",
"h+	c #5B8834",
"i+	c #517B24",
"j+	c #4C7736",
"k+	c #435C62",
"l+	c #454396",
"m+	c #AA74A5",
"n+	c #DB94AC",
"o+	c #ED97AD",
"p+	c #D78CAC",
"q+	c #E39BB3",
"r+	c #D493AD",
"s+	c #B47BA5",
"t+	c #825CA0",
"u+	c #44408E",
"v+	c #394288",
"w+	c #404990",
"x+	c #43448E",
"y+	c #3C3792",
"z+	c #FBBCC5",
"A+	c #DAA7C8",
"B+	c #4E6876",
"C+	c #466C34",
"D+	c #466B36",
"E+	c #435674",
"F+	c #443D98",
"G+	c #8E5EAC",
"H+	c #E9A5AC",
"I+	c #B886B3",
"J+	c #73549D",
"K+	c #7467AA",
"L+	c #9C79B5",
"M+	c #784EA3",
"N+	c #875A9C",
"O+	c #CB8BAC",
"P+	c #E59BBA",
"Q+	c #D595A7",
"R+	c #CD93AC",
"S+	c #96669C",
"T+	c #3B2D94",
"U+	c #2D268A",
"V+	c #F8C4D9",
"W+	c #EBADCC",
"X+	c #4A4485",
"Y+	c #486846",
"Z+	c #3F6A28",
"`+	c #426C1E",
" @	c #436548",
".@	c #3F4888",
"+@	c #845BA7",
"@@	c #E99DB3",
"#@	c #8A67B3",
"$@	c #AB85B9",
"%@	c #F2B5D3",
"&@	c #FCB4CC",
"*@	c #E5B3CA",
"=@	c #9B73AA",
"-@	c #B879AA",
";@	c #DA94B9",
">@	c #D492B2",
",@	c #45419B",
"'@	c #6A5399",
")@	c #394488",
"!@	c #587D4E",
"~@	c #486633",
"{@	c #3E6332",
"]@	c #3D5177",
"^@	c #E29AAD",
"/@	c #7B55A2",
"(@	c #69478A",
"_@	c #A578B3",
":@	c #EDB3CB",
"<@	c #F8C4C8",
"[@	c #ECB3C5",
"}@	c #E8B7C9",
"|@	c #FCC2D3",
"1@	c #B194C7",
"2@	c #9566A6",
"3@	c #E0A39E",
"4@	c #E295B3",
"5@	c #D98DB7",
"6@	c #4D308F",
"7@	c #3433A1",
"8@	c #484DA1",
"9@	c #496660",
"0@	c #527B36",
"a@	c #4E7839",
"b@	c #769F53",
"c@	c #4F842A",
"d@	c #4A6A55",
"e@	c #434587",
"f@	c #9C6CAA",
"g@	c #F7B7D8",
"h@	c #EDBAC5",
"i@	c #F3BBD3",
"j@	c #F2B5CB",
"k@	c #E5ADC3",
"l@	c #CA8DC6",
"m@	c #4C4A9C",
"n@	c #E696B9",
"o@	c #D397B9",
"p@	c #423594",
"q@	c #332B8D",
"r@	c #3F438B",
"s@	c #4E6875",
"t@	c #456A36",
"u@	c #527B35",
"v@	c #4A703A",
"w@	c #415870",
"x@	c #755BA0",
"y@	c #D07DAA",
"z@	c #8864A8",
"A@	c #ECB5D2",
"B@	c #E6A9C9",
"C@	c #FBBCD3",
"D@	c #9C6AA4",
"E@	c #DC9DBA",
"F@	c #DD9BAC",
"G@	c #38428D",
"H@	c #466555",
"I@	c #3A5D26",
"J@	c #42652C",
"K@	c #4F704D",
"L@	c #4B5D6D",
"M@	c #56488E",
"N@	c #CDABD0",
"O@	c #F5B7BD",
"P@	c #A179C3",
"Q@	c #F4BBCB",
"R@	c #CA98C1",
"S@	c #7C5BA5",
"T@	c #CB92B3",
"U@	c #936AA3",
"V@	c #4A3C94",
"W@	c #323583",
"X@	c #42556D",
"Y@	c #496638",
"Z@	c #4E7837",
"`@	c #436357",
" #	c #3D4E7B",
".#	c #493C89",
"+#	c #DBA7BC",
"@#	c #C888B3",
"##	c #795898",
"$#	c #B38CB5",
"%#	c #F1ACCB",
"&#	c #EFC2C7",
"*#	c #DDEDE1",
"=#	c #684BA4",
"-#	c #F3BAC5",
";#	c #F1B3C5",
">#	c #C696BD",
",#	c #E395AC",
"'#	c #DD9BB3",
")#	c #313A88",
"!#	c #4C6E65",
"~#	c #547A3C",
"{#	c #436A29",
"]#	c #4E676B",
"^#	c #363792",
"/#	c #A574A8",
"(#	c #EAAEC5",
"_#	c #FBBDCC",
":#	c #8B6FAC",
"<#	c #6967A7",
"[#	c #F2AED4",
"}#	c #EAB8D5",
"|#	c #9D719D",
"1#	c #E797A8",
"2#	c #475582",
"3#	c #517259",
"4#	c #4B7232",
"5#	c #587C4E",
"6#	c #43558C",
"7#	c #34318A",
"8#	c #BB85A6",
"9#	c #623E9B",
"0#	c #A36CA4",
"a#	c #ABB5CD",
"b#	c #EAB5BB",
"c#	c #8A6AAD",
"d#	c #D99CC6",
"e#	c #4A3A92",
"f#	c #303C8C",
"g#	c #314188",
"h#	c #43654E",
"i#	c #496C35",
"j#	c #445786",
"k#	c #313192",
"l#	c #7B8AB5",
"m#	c #4D549B",
"n#	c #7A539C",
"o#	c #C686A7",
"p#	c #49378C",
"q#	c #41604B",
"r#	c #425C5A",
"s#	c #333A80",
"t#	c #4A3695",
"u#	c #C27DA7",
"v#	c #98A8C1",
"w#	c #466546",
"x#	c #4C7239",
"y#	c #415682",
"z#	c #FCC2CD",
"A#	c #F2ABC4",
"B#	c #5F4593",
"C#	c #456943",
"D#	c #6D8E3E",
"E#	c #4A4793",
"F#	c #4A3C9C",
"G#	c #E79AC3",
"H#	c #D57696",
"I#	c #E27697",
"J#	c #3E4381",
"K#	c #46674C",
"L#	c #5E8F3D",
"M#	c #333A8C",
"N#	c #996CA7",
"O#	c #F8B6C0",
"P#	c #435F58",
"Q#	c #4B6D51",
"R#	c #484F76",
"S#	c #D56E99",
"T#	c #E86EA4",
"U#	c #446939",
"V#	c #4A6F41",
"W#	c #31408D",
"X#	c #587D40",
"Y#	c #496C5C",
"Z#	c #4C7236",
"`#	c #353685",
" $	c #4A6C38",
".$	c #40576D",
"+$	c #B77AB6",
"@$	c #7C5689",
"#$	c #416154",
"$$	c #835CA2",
"%$	c #9B66A3",
"&$	c #45674A",
"*$	c #4536A2",
"=$	c #C484AB",
"-$	c #52743E",
";$	c #60863E",
">$	c #3C3990",
",$	c #DB94B2",
"'$	c #D38EB3",
")$	c #517A38",
"!$	c #35437A",
"~$	c #BB7DA5",
"{$	c #527A38",
"]$	c #69954A",
"^$	c #465F60",
"/$	c #587D3F",
"($	c #4E6F4D",
"_$	c #C791A5",
":$	c #50743B",
"<$	c #577A42",
"[$	c #48359E",
"}$	c #544B92",
"|$	c #4C713C",
"1$	c #4F7245",
"2$	c #4A587C",
"3$	c #4A6E48",
"4$	c #444294",
"5$	c #4B6E5A",
"6$	c #507050",
"7$	c #342C9B",
"8$	c #507644",
"9$	c #49674C",
"0$	c #2D2795",
"a$	c #DEB5C6",
"b$	c #537C43",
"c$	c #496946",
"d$	c #553DA1",
"e$	c #F8BEE1",
"f$	c #4C714F",
"g$	c #4B6D4E",
"h$	c #3C348D",
"i$	c #456179",
"j$	c #40644E",
"k$	c #3D3C9B",
"l$	c #4952A1",
"m$	c #F9C6BD",
"n$	c #200C8B",
"o$	c #3E3E8C",
"p$	c #41623A",
"q$	c #476757",
"r$	c #3E408D",
"s$	c #B0759F",
"t$	c #3C5276",
"u$	c #3D6233",
"v$	c #4F7A3D",
"w$	c #80A491",
"x$	c #A7CAC5",
"y$	c #6769A0",
"z$	c #445A80",
"A$	c #426056",
"B$	c #446A45",
"C$	c #477030",
"D$	c #5B833F",
"E$	c #8AAD89",
"F$	c #ACD2C7",
"G$	c #B7E2CA",
"H$	c #C1E4CC",
"I$	c #B4DBD2",
"J$	c #7B8AA9",
"K$	c #354984",
"L$	c #456756",
"M$	c #5C854F",
"N$	c #A4CAAE",
"O$	c #B1E9BA",
"P$	c #5A6CB1",
"Q$	c #556596",
"R$	c #B3DBCC",
"S$	c #9BC2C2",
"T$	c #B3DCB9",
"U$	c #BBDDCC",
"V$	c #493DA2",
"W$	c #4B753D",
"X$	c #4A6D3E",
"Y$	c #7D9D84",
"Z$	c #8DBB9C",
"`$	c #9AC3B9",
" %	c #BBE3CD",
".%	c #686899",
"+%	c #5D66A9",
"@%	c #8FB1B5",
"#%	c #B4DBC4",
"$%	c #353393",
"%%	c #AAD4C5",
"&%	c #ACD4C4",
"*%	c #C4E4D7",
"=%	c #C0E8B3",
"-%	c #AFD5D2",
";%	c #97B9B7",
">%	c #AAD5BA",
",%	c #8DA1BB",
"'%	c #6B77A9",
")%	c #646DA3",
"!%	c #3B467D",
"~%	c #AED9CB",
"{%	c #BBE5D3",
"]%	c #B2D5CA",
"^%	c #ACD5CB",
"/%	c #B1D5C5",
"(%	c #B7E1D2",
"_%	c #426353",
":%	c #5D6B91",
"<%	c #96BEAD",
"[%	c #9BCCAF",
"}%	c #486731",
"|%	c #49685C",
"1%	c #6F849C",
"2%	c #A4C7C1",
"3%	c #A6CBBC",
"4%	c #B9DCC6",
"5%	c #43518B",
"6%	c #46625A",
"7%	c #52793B",
"8%	c #5E893E",
"9%	c #557A46",
"0%	c #57784E",
"a%	c #5B8057",
"b%	c #618460",
"c%	c #61835C",
"d%	c #62815F",
"e%	c #60825D",
"f%	c #5E8058",
"g%	c #5D825B",
"h%	c #628563",
"i%	c #6D906F",
"j%	c #62816B",
"k%	c #6E9479",
"l%	c #92B7A3",
"m%	c #A2CBBA",
"n%	c #91A3B6",
"o%	c #496668",
"p%	c #496F3E",
"q%	c #436B26",
"r%	c #52793D",
"s%	c #618958",
"t%	c #5F8853",
"u%	c #587E4A",
"v%	c #597C50",
"w%	c #618959",
"x%	c #608855",
"y%	c #5E825B",
"z%	c #608457",
"A%	c #648960",
"B%	c #62875D",
"C%	c #5A7958",
"D%	c #598052",
"E%	c #5F8158",
"F%	c #607F5B",
"G%	c #668865",
"H%	c #5C825A",
"I%	c #5B7E58",
"J%	c #5B825F",
"K%	c #6B8E68",
"L%	c #7FA383",
"M%	c #8BB395",
"N%	c #7DAA85",
"O%	c #93B89F",
"P%	c #99BFAA",
"Q%	c #A6CDBB",
"R%	c #B4D3CE",
"S%	c #AFD6C7",
"T%	c #87A99F",
"U%	c #6E9279",
"V%	c #567B4B",
"W%	c #52753C",
"X%	c #6C9841",
"  . + @ # . $ % $ & * = % % . - $ * & ; & - > , & & ' ) ! ~ { ] ^ / ( ( _ ^ : < [ } | 1 ) % ; * 1 2 $ 3 4 5 $ 6 $ 7 4 4 8 . 9 0 ",
"$ - a b ' . $ $ & * $ c % $ 9 - 9 $ - & ) b d a e ' ) e f g h i j k k k l m i n o p ) a # * % ) % ) q $ ) c r s 9 t 4 4 $ 9 - u ",
"| ) b * ) q 3 ) v e e w = x   $ y 9 $ ; * z A a 2 B . e w C D k j k j D D k D k E F G ; ) & * v H I * 4 J * K L 9 M x $ | $ $ N ",
"& # - ; q % q v O & $ % - P   9 9 % & . - * a b v B ; . H Q R k D m k k j D D D D S T U * - * ) H # # V W q r % X Y * $ w $ P Z ",
"; ; B H & w q v 1 * * f Y $ 9 P - ) - . & w | % # ` B * *  .h ..D R j j j j k j k j ^ +.@.$ ; ) % B #.; $.. %.f X f = * w w c = ",
"& ) & & $ H q q & $ s f   % 3 &.b b ; ; & $ w *.=.& ) * -.;.>.,.'.i m l k k m R D l ).!.L f 3 ~.2 w ) ) ) . q 9 6 s | c 9 | &.> ",
". v {.& 2 $ f & - $ ].q e 9 q ; z * ) & w H $ ^.w c $ % $ f c /.(._.:.( <.D k k D k [.{ }.f 4 ) c ) - % 1 ) =.; 6 |.- &.9 c - 1.",
"v e e W . % $ % 2 $ $ x % ; ) # x 1 ' e . $ e 2.P 4 L 9 H 3.f H 4.w 5.6.7.8.9.0.R R j a.b.f Y 9 c.* - f ~.& f B 6 9 * ' $ x ) d.",
"e.A = q 2 & | . % $ $ * . 2 . % * f.$.f P w & g.h.4 i.) e 2 ; & c | % s 6 j.k.l.( [.R m.n.o.- $ % f M 4 3 = 3 Y P & - 3 | z * % ",
"W b x = $ $ $ H f c 8 4 1 & - q % 2 * 2 s $ p.q.r.% i.) %.* q ) w ' e H s.= f - t.u.v.w.x.#.q r f = 4 3 3 = x w & c )     3 $ H ",
"y.a =   $ $ $ f 9 4 8 3 ) c 3 9 X 6 9 * % z.A.B.$ 2 A = C.D.a A P w w 4 4 $ $ d % $ =.1 E.F.3 f 9 = o.* 9 6 f ) * c %   x 9 $ * ",
"$.) * . % $ % 2 6 f f 3 = 3 q 3 c.Y f ~.q G.6 3 * 2 % P H.I.J.K.X r $ & 3.f & f H $ P L $ L.M.~.f = q N.C.$ f % b % P % $ 6 6 * ",
"c $ 9 5 q ) v q P $ x q x s.o.4 y Y 3 f.~.9 9 x % s   e O.P.Q.R.S.K v B 3.2 B H $ $ P P 4 2 T.& $ 6 f %.= ; %   ; U.9 $   4 6 c ",
"% f x   B B . - % ].= x | B.V.W.C.x s.b * % f P $ f X.Y.Z.< { `. +.+++{.- . ; #.f % P 3 . # @+d c 3.r f ) a ) % . 4   9   4 %.9 ",
"f 9 x % . v B . ].. . | 5 #+$+Y Y - ) 2 % $ 9 $ = $ %+&+*+=+-+;+>+,+'+)+!+~+f ) q -.{+5.' ]+*.$ 9 % s f   x $ $ % $ % f f $ %.% ",
"  P = ^+. & * 4 & 1 s.* /+(+Y _+6 | $ % % &.- | % :+<+[+}+|+1+2+3+4+5+6+: 7+8+9+0+a+b+c+d+e+f+*   3 * | 9 r g+- 3.& ) 2 f . A 6 ",
"4 X.C.Y   | . ~.b O ` h+# q 6 f 6 | * i+4 f s j+k+l+m+n+o+3+1+-+p+|+q+r+s+t+u+v+w+x+y+>+z+A+B+a a %   * ) y C+= $ $ - 3 3 q 9 w ",
"c %.|   * 3 e.B & # e.B v . - 6 3 4 ].3 f D+E+F+G+4+H+q+I+J+K+L+M+N+O+|+P+Q+R+S+6+T+U+J+V+W+X+Y+) ; * # i.Y f   9 $ z 1 | z   f ",
"c 9 Z+c ) . =.* & `+# $ % - A 3 a * % y  @.@+@4+q+@@O+#@-+$@%@&@*@=@-+=+-@;@@@q+>@-@h ,@4+V+'@)@!@z A 3 3 | w $ - $ 3 1 * 3 $ 9 ",
"X.= ~@`+) ) 4 % #.$ 9 % %.  - 8 ` $ {@]@[+m+^@o+R+/@(@_@:@<@[@}@}@|@W+1@M+'@2@n+3@4@5@s+(@/ 6@7@8@9@0@  $ A $ f 3 x A A 8 s.  % ",
"9 4 a@& . V q % b@$ w $ = f 3 z c@d@e@#@5@3+r+f@^ _@g@z+h@i@j@%@g@k@[@j@&@l@#@m@2@n@@@o@n@s+J+p@q@r@s@t@9 $ 8 s 3 - z * ~.z 5 % ",
"4 - u@' * 1 =.. q * 3 9 Y - s.v@w@x@y@H+q+2@(@z@k@i@:@g@A@A+o@o@B@[@<@h@}@C@<@|+N+(@D@E@P+n+F@4+S+6+: G@H@I@8 f 3 $ 3 1 * = = | ",
"x A =.e & - v 1 $ 1 q 4 J@K@L@M@s+E@3+-@-+/ N@<@%@j@O@P@#@'.^ S '.#@_@k@Q@W+%@&@V+R@S@-+}+B@p+o+@@T@U@V@W@X@Y@| 3 9 & ; &.* )   ",
"- V =.H & v ; & b ) Z@`@ #.#S++#3+@###=+$#i@j@%#:@&###( *#m =#D l m ).'@A+-#;#*@W+Q@C@>###n _@,#'#,#^@O++@p@)#!#~#; . e c % 2 - ",
"; B * A s.i+A z {#]#^#T+N+R+H+>@K+(@/#i@Q@(#;#[@_#:#( R l R <#N@k k R i =#*@[#}#;#[@:@Q@C@R@##h |#>@1#1#P+s+n T+2#3#x 4#&.* z . ",
"4 q Y $ z b 3 5#6#7#-+8#3+q+}+9#0#}#V+B@%@Q@(#g@A+a.m m 0.m _ a#R 0.0.j _ L+z+b#}@Q@:@:@b#|@g@R@c#-++@o@1#n@d#|#e#f#g#h#; ' % % ",
"4 q f f z i#j#k#(@/#@@|+_@n S@A+V+j@:@:@[@:@A@A@A+=#).l#).S m#=#).:#( )._ =+|@:@h@k@*@A@:@b#|+_#C@A+L+a.n#o#,#P+o@1+p#q#2 . 4 $ ",
"% q f f r#s#t#=@>@3+u#-+;+R@Q@[@(#%@j@[@-#:@[@-#+##@l R R R v#( R k j k [.=#V+*@(#C@g@%@:@:@i@}@-#&@C@g@$@'@U@T@n@o+4+w#$ f   2 ",
"a # x#y#U+N+p+H+I+>+-+-@C@|@[@;#j@(#:@i@:@h@;#;#&#$@( j l l i _ k j D D _ L+z#[@j@P+n@3+j@:@%#A#;#-#h@|+&@%#=@=#S+R@B#C#$ 4 % % ",
"W D#E#F#0#n@G#5+-+_@[@z#:@W+j@[@[@-#:@*@*@:@j@j@%@Q@R@;+1@....h R m <./ L+&#%#g@W+H#I#I#,#@@H#I#A+%@:@[@[@Q@i@:@z@J#K#8 4 $ 9 . ",
"B L#M#N#H+4+=#:#}@z#h@k@}#:@[@-#h@}@W+-#Q@%@A@:@[#j@C@+#$@:#_ n ( c#2@d#|@|+O#W+%@n+I#I#I#H#I#I#;#}@i@}@;#:@[@Q@>#P#z x 6 9 f = ",
". v Q#R#S@*+P@z#&@B@}#%@;#;#%@*@W+j@j@j@W+[@[@:@b#h@[@%@<@i@z+[#A+b#C@&@A@}@}@h@A#A#p+S#T#T#y@P+j@;#h@:@A@W+Q@O#$@U#= y y r Y = ",
"f e v V#W#: d#-#:@:@j@j@[@j@[@:@:@;#:@:@:@j@:@:@j@:@:@j@:@[@;#;#i@:@}@:@j@:@[@[@:@j@A#,#p+,#(#%@j@j@j@*@:@[@[@_#$@X#f y 4 Y y = ",
"  $ % * Y#: l@i@:@:@:@:@:@:@A@:@h@:@:@:@:@A@:@:@[@[@:@:@:@:@A@%@k@}@[@(#k@j@%@j@*@}@j@:@%#W+*@*@;#(#;#(#W+W+:@i@$@Z#9 9 % 9 Y | ",
"f e $ v 0@`#_@&#}@(#:@}@:@W+}@W+}@(#(#:@:@:@:@j@j@j@Q@Q@Q@Q@Q@-#z+C@|@|@z#_#Q@&#<@i@_#z#_#_#_#<@C@&#|@_#_#_#&@|@$@ $$ q 9 f ) Y ",
"* $ ) =.$ .$c#V+_#_#_#_#_#_#_#_#_#C@C@C@Q@j@j@j@*@A++#R@R@R@>#1@1@+$_@_@L+L+_@_@_@L+_@_@_@L+_@_@$@L+L+L+( c#z@#@@$D+% V f 9 z 3 ",
"& . 2 $ $ #$6+}+#@#@c#c#:#c#c##@+@+@K++@S@S@S@S@/@S@S@$$N+N+N+N+5+2@U@D@D@0#0#0#%$D@f@f@f@D@D@D@S+%$0#m+2+s+s+8###Z q ; 5 | * 9 ",
"a ) ; | 2 &$*$0#s+s+s+s+s+s+-@8#8#8#8#8#=$4+4+4+p+r+4@4@n@4@E@n@n@@@P+P+q+4@'#q+@@@@^@,#^@@@@@@@@@^@@@^@4@^@F@@@U@-$; &.  3 z x ",
";$~.q 2 2 Y.>$+#,#4@,#,$q+4@4@4@^@4@^@4@,#4@^@4@'#'#n+F@F@F@'#'#^@Q+n+F@'#r+R+R+r+r+>@r+>@r+r+O+'$'$5@'$>@'#,$P+z@)$$ = ) 1 = A ",
"~.# ) $ % 0@!$~$>@>@'$>@'$>@'$'$T@'$O+O+@#=$=$=$@#=$=$=$4+I+0#S+>++@$$1+s+;@n@,#;@'#q+4@,$n+,$,$F@r+r+>@r+O+O+'$##{$;   a * 9 q ",
"q ]$= c % - ^$-+1+=#J+n#/@J+=+'@-+M+/@J+n#J+-+/@=+S@$$6+] =#( 8#>#A+l@I+c#a.J+$$1+n#J+>+M+=+M+n#J+=+M+'@'@=+=+S@6+/$  |     A q ",
"q o.q % * e ($>+4@T@R+p+R+R+5@>@>@4@>@'#4@,$P+,#;@H+$$/@>#i@z#g@Q@&#}@C@<@$#6@S+>#u#I+=$=$_$4+R+O+O+O+p+r+>@n+P+6+:$s - 3 8 % % ",
"; 3 % % % x <$-+n@>@n+4@>@Q+'$n+>@r+r+R+p+r+>@R+,#=+S@:@V+%@b#:@*@h@h@:@%#_#R@[$@#1#n+n+4@Q+5@5@,$n+,#>@>@n+p+n+}$|$$ f   % 3 x ",
"% % $   % % 1$T+>@'#F@n@@@q+q+@@q+,#H+n+P+q+1#|+z@'@V+-#*@k@g@*@h@W+:@[@g@A#&#P@(@o+|+F@4@|+P+q+@@4@q+q+q+n@q+q+2$Z#c s % 9 ) x ",
"$ $ f 3 % = 3$: -+5+N+G+U@U@f@}+_@}+/#S+f@}+%$z@V@W+:@%@O#b#*@A@O@A@:@j@;#h@A@b#4$f@2+D@}+|#%$S+U@2@S+U@5+z@5+$$5$w f =.4 $ Y - ",
". = 3 3 | = 6$7$/@I+2+2+0#%$%$S+S+S+S+=@f@/#+$[+U@V+A@*@A#i@[@&@[#%@(#*@}#}@:@C@#@6+D@%$f@D@2@f@D@0#D@0#0#2+2+2+8$| v q H % x   ",
"=.) . * 9 % 9$0$N+1#,#P+^@@@q+q+,#n@q+@@E@1#q+(@T@}@O#h@a$:@[@b#}#|+C@h@b#[@W+<@I+-+|+q+F@o+@@^@q+q+q+@@,#4@q+p+b$; q % - 4 *   ",
"; ) * - 3 s.c$7$J+'#>@@#Q+r+R+'$r+;@5@p+>@p+T@d$A+e$k@&@j@}#A@:@;#:@:@%#:@h@A@&@+#F#O+5@R+,$T@>@>@T@p+r+r+r+>@o#f$. - $ $ % 3   ",
"% v b b q 3 g$7$-+3+'#n+4@,#n@4@,#4@,$Q+n+q+I+9#%@L+h$S@a$j@[#[@:@[@:@:@j@:@:@:@A+6+5@q+n+4@q+'#F@q+|+F@n@q+F@>@i$F.2 $ | q * ; ",
"% ) - 1 % % j$7$k$5+n#S@>+J+/@J+S@>+n#/@M+n#-+l$m$n#n$n$d#z+:@a$j@:@:@j@:@:@Q@Q@k@p@$$$$z@+@S+S+m+}+/#0#}+m+m+f@o$p$$ % $ . ) ) ",
"% % A 8 $ f q$r$t#-@@#4+4+o#O+8#8#o#_$8#O+5@D@-+z#}#=@$#h@[@j@[@Q@:@:@:@:@[@:@j@}@-+s$=$I++$2+2+U@2@S+U@2@2@f@z@] t$u$* & ; 1 ) ",
"f % $ 3 * v$w$x$n =$P+>@F@n+p+F@F@5@;@E@>@E@/#=#j@W+V+<@[@A@W+j@:@[@:@Q@Q@:@:@:@A@[+@#'#Q+,#n+q+^@'#F@'#q+^@^@@#t#y$z$A$B$C$) & ",
"; % - 1 D$E$F$G$:.+$;@Q+^@'#5@n@o+4@,#1#Q+3+-@=#C@W+}#*@%@(#V+a$[@:@:@:@:@[@:@:@*@[+@#@@^@3+'#o@n@q+q+P+n@,$@@u#m#H$I$x$J$K$L$* ",
") * $ M$N$x$x$O$P$-+@$=+n#/@/@##n#S@S@+@G++@(@m@[@j@b#O#;#j@[@[@Q@:@:@:@:@:@j@Q@k@F#N+5+N+N+2@S+%$2@S+S+f@S+}+n#Q$R$S$T$U$S : V$",
"W$X$Y$Z$G$`$`$ %.%2@'#5@=$>#@#4+8#4+8#8#o#5@2+'@<@&@%#(#g@g@:@g@:@A@j@j@j@:@%@j@E@=#-@8#8#+$+$+$m+2+m+/#2+m+I+N++%I$@%G$#%H$+%q@",
"$%a#T$I$x$%%&%*%+%$$u#-@u#u#u#~$u#u#-@u#u#o#2+6+d#B@a$k@B@G#k@+#+#|+k@}@W+:@[@W+>#t#@#O+~$o#=$8#-@~$8#~$+$u#=$1+h =%-%&%-%#%;%: ",
"7$x$>%G$S$`$#%<.,%.%'%l#'%)%)%'%'%'%'%m.)%)%m.)%<#<#;+.%K+<#<#K+<#<#K+<#K+<#K+;+<#m#<#)%)%)%'%'%'%'%m.'%J$'%J$)%,%U$%%%%%%#%a#`.",
"!%)%*%#%~%S$-%#%G${%G$G$#% % %R$#% %{% % %R$]%*%~%R$I$^%&%]%#%&%#%]%x$/%x$&%/%>%/%]%U${%R${%R$U$ % %G${%I$U$(%(%I$U$#%S$`$G$S$`.",
"f _%:%x$T$(%^%>%x$;%^%^%@%%%-%`$`$~%I$<%`$R$>%/%<%S$^%^%R$&%]%>%^%&%<%&%]%R$]%R$/%#%/%>%<%]%/%]%]%%%&%&%%%[%>%%%%%;%~%&%U$x$m#: ",
"6 o.}%|%1%2%H$H$3%[%R$%%3%/%4%#%-%x$R$%%3%R$R$/%~%(%I$]%&%<%^%<.&%U$`$^%R$/%`$%%]%/%]%^%`$-%]%`$]%/%<.x$^%`$<.-%[%`$R$<.l#5%6%7%",
"f & & ; `+8%9%0%a%b%c%d%e%f%g%h%i%j%k%l%m%%%%%T$T$&%3%/%]%x$/%]%^%/%R$R$&%^%3%3%~%^%R$x$~%^%%%;%&%R$%%`$<%~%~%R$I$U$n%o%p%q%$ % ",
"  | - * ) # b - 2 $ * $ - x 3 3 y   - - r%s%t%u%v%w%x%y%z%A%B%y%C%D%E%F%G%H%I%J%K%L%M%N%O%P%Q%R%4%G${% %%%S%T%U%V%W%% . $ $ f 9 ",
"% . 1 q & & . % * $ $ % 3 % q = f % $ ) ) * * - * % * | - ) q % $ f % * 8 P w * $ ) X%- $ v e 3 9 * a ' 4 $ f & - % 8 q z 3   f ",
". . ) - $ 1 2 % ) 2 = 3 . * 1 q $ 4 % . & e * e $ ) ) - i.) 3 ) % % % ) % X.f # 2 X.* q # 2 ; z f . `+- 8 % f % % 3 4 * ) V Y   "};
