/* XPM */
static char *_24702_67081_00011713253983[] = {
/* columns rows colors chars-per-pixel */
"64 64 250 2 ",
"   c #D75D97",
".  c #CE6B9C",
"X  c #D6639B",
"o  c #DB659C",
"O  c #D46B9E",
"+  c #DC6B9E",
"@  c #DF6395",
"#  c #D3739E",
"$  c #D8769F",
"%  c #CA7A9F",
"&  c #E4649D",
"*  c #E36A9F",
"=  c #EB649F",
"-  c #EA5EA2",
";  c #DB65A1",
":  c #DC6CA3",
">  c #DE6DAA",
",  c #D46CA2",
"<  c #CD74A4",
"1  c #CD7AA5",
"2  c #D574A3",
"3  c #DC74A4",
"4  c #D47CA5",
"5  c #DA7BA5",
"6  c #D476AA",
"7  c #DD74AA",
"8  c #D57CAA",
"9  c #DD7BAB",
"0  c #DD7CB1",
"q  c #D67EB1",
"w  c #CF6AA6",
"e  c #E264A3",
"r  c #EA65A2",
"t  c #E36BA4",
"y  c #EA6BA5",
"u  c #ED66AC",
"i  c #E36DAA",
"p  c #EA6CAB",
"a  c #F26CAB",
"s  c #E372A5",
"d  c #EA72A6",
"f  c #E573AB",
"g  c #EA73AB",
"h  c #E37BAC",
"j  c #EB7BAE",
"k  c #E17BA5",
"l  c #F073AD",
"z  c #F775AF",
"x  c #ED6CB1",
"c  c #E474B1",
"v  c #EB74B2",
"b  c #E37CB2",
"n  c #EC7CB3",
"m  c #ED7CBA",
"M  c #E87BB9",
"N  c #F374B3",
"B  c #F37BB4",
"V  c #F575BB",
"C  c #F37CBA",
"Z  c #FC7DBD",
"A  c #FA78B6",
"S  c #F57FC2",
"D  c #FB7CC3",
"F  c #BE92A9",
"G  c #BEA8B5",
"H  c #BDB5BC",
"J  c #CD84A9",
"K  c #CD8BAB",
"L  c #C986A6",
"P  c #D584AC",
"I  c #DB83AD",
"U  c #D38BAD",
"Y  c #DC8AAF",
"T  c #D582A6",
"R  c #CC94AD",
"E  c #CC9BAE",
"W  c #C496AD",
"Q  c #D193AE",
"!  c #D793AF",
"~  c #CD8BB1",
"^  c #DB83B1",
"/  c #D48DB2",
"(  c #DB8BB3",
")  c #D989B7",
"_  c #CC94B3",
"`  c #CC9BB4",
"'  c #CD9DBA",
"]  c #C59AB5",
"[  c #D494B4",
"{  c #DB92B5",
"}  c #D39BB5",
"|  c #DC9AB6",
" . c #D594B9",
".. c #DC94BB",
"X. c #D49CBB",
"o. c #DB9CBC",
"O. c #E282AF",
"+. c #E483B3",
"@. c #EB83B4",
"#. c #E28CB5",
"$. c #EB8BB7",
"%. c #E585BB",
"&. c #EC84BA",
"*. c #E58CBB",
"=. c #EB8BBD",
"-. c #F283B6",
";. c #F383BC",
":. c #F982BE",
">. c #F48BBD",
",. c #F684B6",
"<. c #E292B6",
"1. c #E393BC",
"2. c #EB92BD",
"3. c #E39ABD",
"4. c #EA9ABE",
"5. c #E199B7",
"6. c #F395BE",
"7. c #F080AE",
"8. c #C4A4B4",
"9. c #CCA2B5",
"0. c #C4ABB5",
"q. c #C5A5BB",
"w. c #CCA4BB",
"e. c #C5ACBB",
"r. c #CCABBC",
"t. c #CAABB6",
"y. c #D2A2B6",
"u. c #D3A4BC",
"i. c #DBA3BD",
"p. c #D3ABBD",
"a. c #DAAABE",
"s. c #D9A6B6",
"d. c #C4B3BC",
"f. c #CBB2BD",
"g. c #C8BBBD",
"h. c #D2B3BF",
"j. c #DBB1BF",
"k. c #C8A2AF",
"l. c #E1A1BD",
"z. c #E2A9BF",
"x. c #CAC0BE",
"c. c #BFB8C1",
"v. c #DE96C2",
"b. c #D59EC1",
"n. c #DD9DC2",
"m. c #DD9EC9",
"M. c #D497C0",
"N. c #EC85C2",
"B. c #E58BC2",
"V. c #EC8CC3",
"C. c #EC8DC9",
"Z. c #E889C6",
"A. c #F385C2",
"S. c #FB85C4",
"D. c #F38CC4",
"F. c #FA8AC5",
"G. c #F38CCB",
"H. c #FA8DCA",
"J. c #F486C9",
"K. c #E594C3",
"L. c #EB93C4",
"P. c #E39CC3",
"I. c #EA9CC4",
"U. c #E694CB",
"Y. c #EC94CC",
"T. c #E49DCA",
"R. c #EB9BCB",
"E. c #F292C4",
"W. c #F29AC4",
"Q. c #F393CB",
"!. c #FA93CD",
"~. c #F29BCC",
"^. c #FB99CF",
"/. c #F98ED1",
"(. c #ED95D1",
"). c #EB9BD2",
"_. c #E699D3",
"`. c #F494D2",
"'. c #F39AD4",
"]. c #F99AD7",
"[. c #CCA5C2",
"{. c #C5ACC3",
"}. c #CCACC2",
"|. c #CDAAC9",
" X c #D4A4C2",
".X c #DCA4C3",
"XX c #D4ABC3",
"oX c #DBABC4",
"OX c #DCA4CA",
"+X c #D4ACCB",
"@X c #DCACCB",
"#X c #D5A7CA",
"$X c #C5B4C2",
"%X c #CCB3C3",
"&X c #C5BAC4",
"*X c #CCBAC5",
"=X c #CDB4C9",
"-X c #CCBCCA",
";X c #C5B7CA",
":X c #D3B2C4",
">X c #DBB2C5",
",X c #D2BBC5",
"<X c #D4B4CB",
"1X c #DCB3CB",
"2X c #D3BBCB",
"3X c #DBBACC",
"4X c #DBBBC4",
"5X c #DAAFD2",
"6X c #D6B4D1",
"7X c #DAB3D1",
"8X c #D5BCD1",
"9X c #DBBBD2",
"0X c #CFB9D0",
"qX c #E3A3C4",
"wX c #E3ABC4",
"eX c #E4A3CB",
"rX c #ECA2CB",
"tX c #E4ABCC",
"yX c #EAACCE",
"uX c #EAA3C4",
"iX c #F3A8CA",
"pX c #E3B3CB",
"aX c #E4B9CC",
"sX c #E5A5D2",
"dX c #EBA3D2",
"fX c #E3AAD2",
"gX c #EBACD4",
"hX c #EBA5D9",
"jX c #F3A3D7",
"kX c #E4B3D2",
"lX c #E2BDD5",
"zX c #E7B6D6",
"xX c #BFC2C7",
"cX c #CCC2C5",
"vX c #CDC2CB",
"bX c #C6C6CA",
"nX c #D3C2CC",
"mX c #DAC2CD",
"MX c #D3C4C9",
"NX c #CDC5D2",
"BX c #D5C5D3",
"VX c #DBC3D2",
"CX c #D5CAD4",
"ZX c #DAC9D4",
"AX c #D9C5D9",
"SX c #D9D4DC",
"DX c #E6C0CD",
"FX c #E5C4D8",
"GX c #E1D0DA",
"HX c #E7D5E4",
/* pixels */
"*.@.w.: < & K ` 7 s s p.XXR.'.T.,X) J.%.i.s.h v g 1XP 2 O O r.6.C.=.u. .s M s R R.*.$.$.w.2 N c 5.=Xd s k  X.X@.:.#.XX@.h n { 9.",
"B ;.}.: ; - P _ i c a #XtX!._.].XX=./.S 2..Xp m g <X*.t + : {.D.C.E.eXn.> : + [ T.D.*.=.{.t h i Y ' 7 v b @X.XB A.@.b.@.C B )  X",
"X.| d.[ K U ] d.~ R o.CX6X7XFXlXnX9X}.tX>X$X` ' W <Xu.K Q U =Xw.i. X8X>X| E K {.XXgX3.} $XQ | Y } :X ...R 2Xp.[ X.5.*X*XtXqXXX,X",
":X! E [ o.} ` i.X.r.i.>X]  XoXy.| i.8.pXyXoXOXl. XuXi.p.:X5.uXoX5.i.@XtXiXMXoX+X9XFXeX|.@Xi.,X>X| qXeXqXi.wX| i.<X5.>XmXwXwX.XwX",
" .y : : > v e s O.}.3 + X i O * ;   9.P.S.C.&.V.J.A.N.OXo.n &.:.n &.&.B >.:XeX'.jX'.U.].`.F.6Xv.B M %.V.V.n M K.#Xi d h p g n h ",
".Xh 5 5 b b 3 9 <.r.O + X 2 . 3 ^ 5 1X.XL.T.L.L.I.E.1.n.' @.B.=.%.&.*.&.$.}.eX'.rXsXfX).U.R.AX X=.*.=.K.L.=.@.v.+Xk 9 h h M M 4 ",
"CXh.H p.<X:Xd.e.9X%X8.&Xe.r.r.}.-Xr.}.XX%XVXlX9X-X9X-X=X-X3XmXf.w.u.t.f.:X;XXXbX<X<X8Xr.$X>XZX>X8.&Xi.:X4X,X%X{.NXp.cX$X*X>Xh.d.",
"-.$.XX$.,.D.o.} c g g w.eXD.R.Q.3XP O : [ oX@.K.%.+XtXQ.'.OX<X7.q h U qX=.@.n >Xo.* 4 5 q.$.h l { <X-.g k ] u.F.L.E.oXI ( g P 9.",
"C j r.@.m D v.E i p y w.n.D.=.`.>XO > e U XXD.U.&.oXeXU.U.T.%Xv p d L  XZ ;.n  X1 ; o k <Xl f i O.XXg N g  ..XH.U.W.9.5 7 u 8 r.",
"w.y.bXu.` o.%Xg.q.:Xi.H d.pX3X9Xg.W w.i.p.*XqX1X>X,X1XXX}.XXg.' _ } k.d.i.2Xi.d.w.E y.t.&X| t.9.t.H i. X` d.BXVX3Xz.g.<X>XwXh.*X",
"XX<.o.#...P.I.2.oX9XrXn.P.P.P.eXeXP.}.eXI.eXI.OXb.P.R.i.}.R.tXfXeX5XOXkXtXvXeXqXI.o.tXeXOXrX@X' U / +...{ Y K.+XFX#.^ {  . .{ | ",
"o.N V V n ;.C V =..XD.A.S.C N.S.N.Y..X..F.J.Q.&.N.:.J...+X`.H.'.)._.].].).{.&.Z.H.G.Y.].G.C.tX8 e y i i f r e ) 9Xb p v t > p c ",
"y.#.( 1.<.<.( { 5.f.3. .1.1.v.3...uX:Xi.I.M.o.1.1.1.v.y.*XeXrXn.P.@XgXfXqX,XI.1.P.n.o.n.eXOX-XQ I 1 J 8 L 5 Y W ,X{ ^ ( 9 T I P ",
"r.u.d.r.p.oXd.&Xi.2X3X&Xq.y.p.u.-Xp.e.p.>X-X}.@XXXnX<Xa.nX9XvXXXX.XX<X-Xu.0.} $X=Xu. XXXvX3X*XwXt.*X>X>X>X*X2X,XFXlX-X=X>X1X2XcX",
"h j u.@.c v { i.n @.-..X( g h M u.2 , s / @XL.).~.1XP.V.L.L.XXh b n (  Xh : & ` 1.-.-.@. Xj s p { @XD.Q.Y..XP.=.>.=.}.T.jX].fXXX",
"C @.w.h &.V ..u.D.;.-. X( l c b r.7 c e  .1X!.)._.<XOX(.'.R.2XC b B #.u.b v d e.U.@.+.#.{.f b > .X<XF.'.K.+XfXV.!.2.=XdX`.jXfXq.",
"cXj.MXXXr.oX*XVXa.-XmX%Xr.u.XXr.mX>Xt.] f.*X2XVX9X,X,Xr.-X4XMX Xy.u.e.ZXDX0.%X8XaX=Xy.2XSXu.e.e.:X&Xp.:Xr.*X2X-X%XmX&Xr.XX+X*XCX",
"i.$.3.Y ^ 9 #.<.( %X+.4 1 8 ^ ^ ^ ^ *XL s 6 4 U ) ^ h u.,X-.K.*.#.+./ =.4.r.2.1.L.R.*.K.eXD.wXo.b +.+.h 5 7 +.o.XX$.P 6 8 6 5 Y ",
"..y d : : 7 g s f w.y t o : t y c : } # - w ; & X X ; Q u.a m -.f g f u @.oX-.M n >.-.&.B B b./ t y 9 t h g t ( M.* s y : ; e & ",
"%X! K [ [ .XqX! R 8.} ( R [ K { / K r.W K K [ R U ~ } 9.XXo.o.{  .[ }  .} 2X.X@X.X.Xi.X.} { <X>XY U } ...X.X<. .}.L K R F / ` } ",
"i.X.d.qXOXtX9Xr.o.} a.:Xr.i. X1X,X1XtXqX%Xf.o. X .w.oXo..Xl.:XXX.XqXXX=XqX Xo.>X3X@XtX1X=X XOXu.}.c.o..X} $XXX[ o.y.%XpXm.tX%X%X",
"d 0 <XL.H.:.OX` u f g u.I d +.%.<X*.Z.A.eXwX& < O } 2.v B @.1XY.U.F.b..X,.M B u.dXQ.Q.T.|.L.!.Q.R.' y l r / 2.g A n w.*.:.V.P.XX",
"h / <Xn.~.R..Xu.n ( j u.( 9 ^ +.$X..K.V.1X:X3 6 2 q.n.I ^ ( <XP.n.L.X.u.<.v.$.p.fXgXgXtX9XeXP.B.OX] 2 9 5 w.{ P #.$.w.K.Q.T.OX X",
":X9.r.r.XXZX:X,X}.d.XX8.d.9.w.oX:Xp.f.f.VX2Xp.r.s.XX<Xt.f. X2XmX7Xr.p.:XXX$Xu.mX2X3XvXnXmX%X%Xp.p.r.p.p.XXbXp.u.2X:Xd.=Xe.:X-Xe.",
"..h h +.g &.-.9 j q.9 s 9 b n n b h } ..F.C.V.=.=.F.L.X.XXV.G.~.1.V.G.L.4.XXh b 9 h 7 7 < t ' 3.;.;.V.;.%.&.;.K.q.t h 3 3 i 7 3 ",
"( t s n j h h t f ' h p y f h v d t o.3.A.>.&.%.&.;.Z ...XZ V.&.=.C C :.2.u.h i y y , + : r ....l *.%.@.:.;.B 1.X.s s d > > + + ",
"d._ 8.i.oXr.%Xp.q.bX Xy.` ` 9.` t.W $X%X:X%X X}.r.FXa.q.BX.Xe.3X}.X.w.p.oXbX>X8.u.p.8.Q ] R r.f.p.CXpXh.} 9.y.d.&Xu.r.R ` aXXXF ",
"P.o.$XP.uXI.aXXXP [ ( }. X4.P.4.r.U ) / y.h.{ { { 2Xp.1.qXi.&XgXhXqX$Xr.5  .qX,Xw.o.Q ( e.i.eXeXaX-X#.3.1.r.i.<.2.i.*X.XP.rXwX*X",
":.V.|.b C A 1.~ e & p  Xm.C g &.w.g u e +.[ , > e [.R.A.S &.<XQ.C.Q.zX@X;   : ] ) i y s [.R.C.G.1.] p v > ] K.l A 0 ' *.:.S.K.[.",
"wXuX=X .1.#. Xp.% J O.r.' <.1.qX%X<./ T | ] 1 K < >XpX3.o.#.}.qXeXP.9XXX4 1 # ] o.I ^ U H K...P.tXr.{ =.( XX@X( 1.1.lXl.3.1.oX-X",
"vX>X%Xp.XX>X3XVX:XvXaX%Xu.wX:X>X3XpXcX%XpX<XXX>Xr.@XVX,Xd.XX9X:X3X>X2X1X4XcXu.:X>XoX>XoX=XuX2X4X>Xr.p.aXoX8.p.VXSXz.>X>X>Xu.p.:X",
"OXY.D.Y.!.Y.Q.U.L.[.U.E.D.V.B.H.V.V.XXOX/.).(.L.U.Q.G.P.@X(._.].Q._.U.!.R.XXU.Y.V.V.*.;.=.A.=Xo.9 p h c 0 f f [ +Xj b b b :.N.&.",
"sXK.D.U.H.Y.A.L.B.3XW.D.D.;.Y.D.U.:.#XeXQ._.Q.R.~.G.Q.P.+X'.].R.n.eX_.`.iX=X<.B.D.L.B.L.=.A.pXo.s s f f 5 t g 8 u.g n v n -.=.&.",
"c.>X%Xr.r.3X%Xd.p.cXmXd.$X=Xw.}.f.r.f.%X2X%XXX>Xd.CX3Xd.bXHXGXVXXXFXFX=X2XBX>X-XVX>X3XVXcXoXvXr.w.r.w.#Xr.e.r.9.H i.}.8.=Xp.q.}.",
"#.+.w.6 T h X.X.s U h q.1XdXsXgX:XqXR.I.kX] h ^ #.VXqXL.eXI.3XK 8 t / oXI.K.^.<X.X2.2.I.{.+.$.@.i.6XdXjXfX8X.XL.R.2. X..1.*.{ r.",
"z M [.+ : & U [ x c e b.hX`.).Q.%XU._.(.fX_ y 0 e q.L.D C.=. X: 6 e K @XL.Z.H.q.U.:.+.$.w.f A N [ 1X'.jX(.<XK.&.S.$.oX+.v N *.r.",
"} oX-X} U 5.9.8.K } 3.}.XX5XOXzXmXpXzX5XoXp.} ..P.GXoXv.5Xp.%XU K 5.E e.qXOX X4XoXqXw.| d.{ o.` y.2XOX7XtX8XqX} 1.pXnXy.o.P.o.f.",
"-XpXlXpXtX9X>X#XoX%X! 9.i.oX9.` t.{ $X|.l.wXoXwXoXoXi.w.bXoXu.4.#XtXp. X.X{.' i.OXoX+X.X+XP.=X}.i.>X@X+XOX@XOX}.-Xu.u.o..XOXi.i.",
"sX&.G.J.!.U.J.H.*.w.* s : X X : t * ' #.z %.&.;.>.C g <. XB :.-.%.>.B.S.;.@XF.M ;.A.G.J.V.S.eX3.A.V.C.D.&.V.E.R.@X: t N N B n v ",
"XX2.T.K.K.L.U.R.zX<XI $ 2 0 , 2 > 2 p.[ ;.%.) =.%.(.&.R XXD.V.K.#.P.K.E.5.r.{ 2.2.2.L.v.v.2.XX.XL.K.B.V.L.1.eXeX8.k I 8 5 5 9 b ",
"AX-Xe.e.:X<X%XmXGXHX1Xd.G q.u.XXd.%XNX3X1X&Xp.r.h.*X%X:X2Xr.vX>X2X3Xe.ZXr.*Xh.nX-X%Xu.2X&X%X2XGX-Xe.p.p.i.q.2XVXnXi.f.>X}.pXr.d.",
"Y.eX X5 s h [ u.*.L.,.wX{ d 5 n :XOXsX'.tXu.+.*.@.#XI s 5 3 q.h 5 n X.tXB -.7.y.P f h $.XXrX^.T.yXw.I +.d X.[ 5 9 5 w...+.=.o.:X",
"^.rXXXs f g  .XX@.h ,.@X3.y 5 h p.R./.G.yXi.Z N.&.<X9 @ + h }.h 7 u o.n.B n j o.Y d h h [.U.].Y.eX.Xg j y w.P * y 2 w.#.;.;.o.}.",
"XX{.$X` XXi.e.r.XX>XwX-X}.} o.u.&XXX|.|.nXcX.X+XoXCXq.` p.>XCXi.>XX.r.*Xu.w.p.2X<Xu.} w.BX+XtX[.}.e. .} _ 0.w.o.} } 2XoX.X X}.=X",
"+X.XP.P.qXeX4.qXOX3XtX.X.Xo.3.qXqXK.:Xi.P..XqX.XP.rXu.p.<XuXrX3.I.i.o.4.o.8.Q o.3.o... .{ T w.oX@X.XP.qXqXP.qX>XAXqXoXqX@XfXfXeX",
"qXV.S.&.;.S.:.N.=.|.H.V.L.H.N.D.V.V.XX1.D S.;.$.N.:.D.m.b.n C :.n n j z +. Xt t o > : t s a 8.1.:.V.K.D.&.S.B.U.5XL.L.'.Y.`.Q.Q.",
"XXn.T.eXqXI...M.I.;XP.OXOX).T.m.OX1.<Xb.W.T.*.L.eXT.eXoX<X( v.I. .1.( +.n.;XY 8 ^ ../ P U #.-XFXeXP.T.R.eXT.n.qX5Xm.#XeXrXgXsX.X",
"4Xw.2X1XcX8.0.OXs.d.oX<Xr.aXwX:X$Xu.%Xr.nX*X9.<X3X3Xh.a.4Xy.,X>X} 1Xq.=XaX%Xw.r.p.>Xi.r.XXa.3X2XBX:Xi.:XDX%X%X>XXXu.d.u.u.XX%Xr.",
"A.=.w.2 c v  .u.A.>.F.XX( j n :.r.D.Y./.rXw.z =.:. X1.N.N.B p.L.N.>.5.3XS.N.;.u...B -.j {.eX_.'.kX[.t l @.oXn.:.C.&.<X5 i N ^ y.",
"=.=.i.5 f g ) 3.%.=.>..X{ @.+.=.>XU.B.Y.gXo.+.=.@..XP.+.%.2.oXL.B.&.o..X>.@.B i.L.;.@.@.#X^.~.Q.tX Xs h 6 .XrX*.>.$.oX5 : : { XX",
"vX4X2Xt.u.u.r.$XXX$X X$X}. X[.XX-X:X%Xe.9X2Xr.oXr.%X}.p.h.1XVXXX<XXX*X-X:Xd. XnX3X}.XXr.$XoX-X%X|.r.w.oXr.%X>Xe.%Xp.%XG w.[ %XbX",
"oX2.L...6.I.2.P.qX<XrXI.R.R.eXrXT.T.:Xi.rXqXP.I.3.L.$.l.p.2.T.*.$.<.$.L.4.*X<.eXI.qXI.eXL.2.XX[ O.@.I *.1.^ n  .oX5 %.^ 9 h 5 6 ",
"v.;.J.N.H.H.D./.*.|.~.Q.J.C.U./.`.Z.@XT.S.V.Z.B.&.S S 3.X.S G.H.;.&.V C >.8XV.A.H.Y.C.C.D.S.5X/ p A f i 7 i a *.wX3 r > X &   r ",
"}.OXXX.Xo.b.X.oXpX-XoXXX.X.X XeXtXXX9X X.XyXgX.XOXR.qXp.d.OXo...X.o..Xo.X.&Xo.o.tXtX.X#X<XqX9XXXU / U 3.[ [ {  .d.Q U .X} } L L ",
"XXa.*Xa..X.X%X,XlX3Xa.g.%XoX}.+Xx.:XoXX.f.MXwX' E ,X8.y.:XDXNXoXXXl.h.h.u.w.o.f.u.o.u.E &X` oXa.p.H } wXu.d.r.u.>Xo.d.y.} o.t.g.",
"J.V. X=.H./.M.o.&.A Z #Xv.F.Q.].p.B m Z 3.F & i v lXI i f 9 3XD.N.:.#.<XS.S S.}.P t 3 & _ : > e P n.B C B v.^ v m l oX9 ; u 6 u.",
"2.n.}.1.;.L..XXX=.b >.q.n.L..XQ.d.$.=.b | 9.$ { Y FX..O 5 6 r.2.U.<.}  XV.eXL.4X_ + 4 4 H 3 2 2 U .Xh +.I i.qX8 @.Y r.<.3 ^ X.} ",
"<X<X-X:X}.=X:X<X%X}.>X%Xr.%X<X6Xd.1X-X$Xh.%XFX9Xr.MX<Xr.f.y.,XXXoX%X}.-X@XNX2XBX>X<X1Xp.%Xr.$X>Xf.$XXX<Xr.3XVXe.$Xr.-X1X<X9XBX*X",
"+XL.L.I.T.U.D.1.rX{.L.Y.K.U.v.K.R.*.6XOX^.hXT.R.P.L.^.XX+XD.2.U.1.K.B.~.L.=XrX~.R.dXT.'.dXY.6X XR.T.).).m.!.~.OX9X~.sXR.eXjXR.R.",
"fXB.D.B.G.Q.H.U.2.=X^.!.B.H.V.Q.Z.D.OXP.G.U.Y.D.].D.`. X.XS.@.C.=.D.C.G.D.=XL.V.Y.G.Q.'.).!.+XOXJ.Q.`.'.T.:.B.T.7X]._.(.Y.E.V.).",
"<XoX3XoX<X<XtXXX:X2XoXd.XXzXpXa.<Xr.:Xf.1X.Xu.>X XpX8X:X3X+Xp. XoX1X#X=Xa.cX>X<X3X1X.X|.1X:XZXj.u.=X@XzX<X}.3XoXg.1X6X@XaX>Xp.XX",
"o..X2Xo.o...' }.o.tXuX;X' <.{ 3.VX[ L ! 9X XY ` P >X6XeXzX7X3XP.3.eX.Xq.U } { <XpX( ( W %XqXl.{ } <XuXgXtX}.1XP.i.qX}.n.4.3.9.r.",
"G.L.}.s f u J =XH.B.:.@X..y 6 7 {.+ >   _ OXr b i u.).)._.'.<XD.B.D.P.[ t 6 e u.M.N f 9 {.l m n ( @XD.Q.E. Xv.;.F.L.[.#.B :.P.1X",
"L.<.w.2 5 y K XXN.L.2.oXT 3 f q ` 2 . < } u.g 5 3 ` hXsXOXsX>X*.L...l.} f h + ` ( k s $ 8.>.&.m o.}.V.R.C.XX1.*.U.$.u.3.%.&.o.p."
};
