/* XPM */
static char *_24702_67081_00001713253983[] = {
/* columns rows colors chars-per-pixel */
"64 64 250 2 ",
"   c #D95C99",
".  c #E55998",
"X  c #D5639D",
"o  c #DB639C",
"O  c #D46B9D",
"+  c #DA6A9E",
"@  c #D66296",
"#  c #CC749E",
"$  c #DA749F",
"%  c #D3759E",
"&  c #CB6D9F",
"*  c #E16B9F",
"=  c #E5639D",
"-  c #DC65A1",
";  c #D56DA2",
":  c #DC6BA3",
">  c #D56DAA",
",  c #DF6DA9",
"<  c #D765A0",
"1  c #CD79A4",
"2  c #D474A3",
"3  c #DC75A4",
"4  c #D47AA4",
"5  c #DB79A6",
"6  c #DD74AA",
"7  c #D47EAA",
"8  c #DC7CAB",
"9  c #D577AB",
"0  c #DD7DB4",
"q  c #E464A3",
"w  c #E36CA4",
"e  c #EA6CA5",
"r  c #E36CAA",
"t  c #EB6DAB",
"y  c #E965A8",
"u  c #F26DAD",
"i  c #F46DAA",
"p  c #E372A6",
"a  c #E474AB",
"s  c #EA74AC",
"d  c #E37CAD",
"f  c #EA7BAE",
"g  c #E974A7",
"h  c #F274AE",
"j  c #F279AF",
"k  c #EA6DB1",
"l  c #EC75B2",
"z  c #E57CB2",
"x  c #EB7BB3",
"c  c #EC7DBB",
"v  c #E978B7",
"b  c #F476B2",
"n  c #F37CB5",
"m  c #F97AB6",
"M  c #FA74BC",
"N  c #F47DBA",
"B  c #FB7CBC",
"V  c #F674B7",
"C  c #F06FB0",
"Z  c #FC7CC2",
"A  c #F77EC5",
"S  c #BDA5B4",
"D  c #BEAAB8",
"F  c #BFB3BE",
"G  c #B892A7",
"H  c #CC84A6",
"J  c #CE85AC",
"K  c #CC8CAC",
"L  c #C58BA4",
"P  c #D483AB",
"I  c #DB83AD",
"U  c #D48CAD",
"Y  c #D484A7",
"T  c #CE92AE",
"R  c #C49DAF",
"E  c #C896AC",
"W  c #D293AF",
"Q  c #D891AF",
"!  c #CE8EB1",
"~  c #D584B1",
"^  c #DC84B2",
"/  c #D38CB3",
"(  c #DB8CB3",
")  c #DC8EBA",
"_  c #CB94B3",
"`  c #C59BB1",
"'  c #CC9BB4",
"]  c #CD9CBA",
"[  c #C797B6",
"{  c #D493B3",
"}  c #DB93B5",
"|  c #D49BB5",
" . c #DB9BB6",
".. c #D595B9",
"X. c #DC94BB",
"o. c #D49CBB",
"O. c #DC9BBC",
"+. c #E382AE",
"@. c #E484B3",
"#. c #EC83B4",
"$. c #E28BB4",
"%. c #EA8AB6",
"&. c #E585B9",
"*. c #EC85BB",
"=. c #E48CBB",
"-. c #EB8BBC",
";. c #F383BB",
":. c #F982BD",
">. c #F389BC",
",. c #F283B5",
"<. c #E394B5",
"1. c #E493BC",
"2. c #EA93BD",
"3. c #E39ABD",
"4. c #E999BE",
"5. c #EA90B4",
"6. c #F194BD",
"7. c #F382AE",
"8. c #C5A4B4",
"9. c #CBA4B6",
"0. c #C5A5BB",
"q. c #CCA4BB",
"w. c #C4ACBD",
"e. c #CCABBC",
"r. c #C5ACB5",
"t. c #D3A3B6",
"y. c #D4A3BC",
"u. c #DBA3BD",
"i. c #D3ABBD",
"p. c #DAAABD",
"a. c #DAA0B6",
"s. c #C4B3BC",
"d. c #CBB1BE",
"f. c #C4BBBD",
"g. c #C7B7BA",
"h. c #D2B1BE",
"j. c #DCB2BE",
"k. c #C1A1AE",
"l. c #E1A2BE",
"z. c #C4C0BF",
"x. c #BCBBC3",
"c. c #DD94C3",
"v. c #DC9DC2",
"b. c #DD9FCA",
"n. c #D49EC4",
"m. c #ED85C3",
"M. c #E58BC3",
"N. c #EC8CC3",
"B. c #EC8DCA",
"V. c #E888C5",
"C. c #F484C3",
"Z. c #FB86C5",
"A. c #F38CC4",
"S. c #FA8BC5",
"D. c #F38CCB",
"F. c #FA8BCA",
"G. c #F480C9",
"H. c #E495C3",
"J. c #EB93C4",
"K. c #E49BC3",
"L. c #EB9CC4",
"P. c #EC94CA",
"I. c #E59CCA",
"U. c #EB9CCB",
"Y. c #E592CC",
"T. c #F392C5",
"R. c #F19CC5",
"E. c #F493CC",
"W. c #FB93CC",
"Q. c #F39BCC",
"!. c #FA99CF",
"~. c #F98ED3",
"^. c #EC94D2",
"/. c #EC9CD2",
"(. c #E498D2",
"). c #F294D2",
"_. c #FA93D2",
"`. c #F49AD3",
"'. c #FA9BDA",
"]. c #F59AD7",
"[. c #CDA4C1",
"{. c #C6ACC2",
"}. c #CCACC3",
"|. c #CEABC8",
" X c #D4A5C2",
".X c #DCA3C3",
"XX c #D3ABC3",
"oX c #DBABC4",
"OX c #D5A5CA",
"+X c #DCA5CA",
"@X c #D4ADCB",
"#X c #DCABCA",
"$X c #C5B4C2",
"%X c #CBB3C3",
"&X c #C4BBC4",
"*X c #CBBAC4",
"=X c #CCB4CA",
"-X c #C5BAC8",
";X c #CDBBCA",
":X c #D3B3C4",
">X c #DAB3C5",
",X c #D2BAC6",
"<X c #D4B4CA",
"1X c #DCB3CB",
"2X c #D4BCCC",
"3X c #DBBBCC",
"4X c #D8B9C4",
"5X c #DCACD2",
"6X c #DCB3D2",
"7X c #D3BCD2",
"8X c #DBBCD1",
"9X c #D9B7D7",
"0X c #E3A3C4",
"qX c #E1AAC4",
"wX c #E4A4CB",
"eX c #EBA3CC",
"rX c #E3ABCC",
"tX c #EEAACC",
"yX c #EAA5C6",
"uX c #E2B4CB",
"iX c #E3BACD",
"pX c #E4B1C8",
"aX c #E4A5D1",
"sX c #EBA3D1",
"dX c #E2ABD2",
"fX c #ECAAD3",
"gX c #EAA2DA",
"hX c #F2A5D5",
"jX c #E3B4D3",
"kX c #E3BBD3",
"lX c #E9B6D5",
"zX c #F3B4DA",
"xX c #BDC0C5",
"cX c #CDC3CB",
"vX c #C7C3C7",
"bX c #D3C2CC",
"nX c #DAC3CE",
"mX c #D2CBCD",
"MX c #D3C0C6",
"NX c #CECAD3",
"BX c #D3C4D1",
"VX c #DCC3D2",
"CX c #DDCBD4",
"ZX c #DDCCDB",
"AX c #D6C8D8",
"SX c #DDD2DB",
"DX c #E4C1CE",
"FX c #E2C2D4",
"GX c #E7C6D8",
"HX c #E7D2DC",
/* pixels */
"%.@.oX4 O o U ' r 8 p t.#XP.W.(.d.-.A.*.O.t.z V z  X( > > + i.J.T.N.O.o.a 8 p E U.=.*.#.q.3 s d U 0.g s p ..O.#.;.$.[.^ b #...9.",
"N A. X& q q P [ k 2 t  XdXW.Y./.XXJ.D.c K.u.6 c s q.^ o ; + 0.T.N.P.K...w 9 - _ I.A.-.>.{.a z r ^ ..t C a ..c.N B *.[.@.M m 1. X",
"| oXs.L } ..` d.( y.tX,X<XjXkXGXMXq. XO.oXs.! | { y.' L K L $Xp.o.u.8X1XU ' 3.%X[.v.3.n.w.K ( U t.}.{ ) ' }.e.O.u.| %X .( u.=X:X",
"3X| | | 3.o.| | u.CXDX:Xq.:X1XFXl.K %XuX0Xy.O.qXi.eX.Xp.e.1.wX Xl.o.rXjX<.f.pXjX<X#XrX<X#X@X3XXXO.u.n..Xi.u.u.XX*X .u. .o.y.oXqX",
"sXp + 6 t r q : x %X+ = - r ; w r @ 9.wXC.N.N.A.N.D.B.0XO.l C.;.#.*.0 c >.<XI.`.`.`.I.D.D.W.5X} x m C.B.%.b b H.b.s a r 6 k l a ",
"o.d 8 5 8 a p 5 ( -X# O > 2 # 2 9 d oXn.T.P.=.=.1.T.L.#X] d %.,.#.J.-.6.6.,XwXI.eXfXdX^./.U.7Xo.-.J.*.P.2.;.>.X.[.f +.+.^ z f 8 ",
"F :XbXi.}.e.F r.XXHX,Xs.e.0.XX}.F :XVX:X%X&X X2X,XnXBXbXx.s.h.t.XXi.3XSXXX$X1Xx.%X}.}.e.;Xq.%Xe.cXNXq.e.e.$X&Xw.x.XX;Xe.}.q.r.s.",
"n %.:X*.,.>.O.| g +.7.9.wXT.U.E.>X1 6 w / .X>.H.A.OXwX_.P.eX=X@.@.p U 1X%.x B XX( p & $ ' f @.e a.1Xj x 3 ' .X>.S.J.:X( s s U ' ",
"B #.q.@.N Z c.E t t w +XK.A.J.D.3X^ ; r U oX*.B.m.i.eXU.P.R.%Xa 6 w U OX*.V n XX/ - + +.=Xb s w ( [.s x a _ +XA.P.J.:XI w y ) 9.",
"q.9.&Xi.y.y.d.r.' d.9.&X%Xy.FX3Xs.9.y.p.:X*Xu.XX X4X7X<X=XXXf.o.`  .h.CXy.i.{ s.e.T E 0.vX .9.S r.&X .| t.*X,X3X1Xu.vX>Xy.a.r.s.",
"XX} ) } K.K.K.1.uX<XtXv.K.H.o.K.K.K.3XrXyXwXX..XO.K.I.y.,XhXrXrX#XsXzXrX#X$XyX0X0XU.0X.X#XyXjX3X( X.=.^ } 3...o.XXI / O.o.X./ X.",
"X.m V c n *.N M %.n.*.C.Z G.A.C.A A.[.X.Z.V.D.=.*.C.A ) oX~.W.^.U.^.^.'./.}.&.D.A.D.B.B._.!.+XJ q y k , , e q ^ #Xv t k w 6 t k ",
"y.1.1.} $.} ( ( } <XyXO.} 3.X.3.v.3.3Xa.2.b.X.3.X.L.wXa.h.+XL.rXK.dXlXfX#X,XK.K.v.0XwXaXrXv.%X| Y Y P P H Y ( y.XX<.) ( 8 $.I ^ ",
":Xp.s.0.p.XXh.f.p.g.kXvX*X>Xq.oXcX3XMXh.XX-X>XoX1XBXBX>XbX<XbX:Xy.8XAXw.9.w.rX*X2XoXy.i.-XXX,Xp.,X*X}.<X%Xe.4X;X:Xy.$X=X<XVX2X%X",
"z %.t.I s k } .X*.#.n oXK.a z z y.4 a + P oXM.Q.`.1XI.B.P.J.:Xd z x { 0Xa 6 p y.H.,.;.*.o.a d s 3.#XT.!.P..XI.=.S.-.|.K.sXgX#Xy.",
"c 2.<X-.;.c X.t.N.N N oXU b r *.i.4 r q U 6XP.gXU.1X+X).D.I.MX*.&.b } .Xz t p ` H.N x $.{.s a 6 T =XT.P.P.5X+XF.D.3.=XQ.'.'.5XoX",
"bX:XmXVXe.e.e.s.4X*Xh.e.%X:Xi.i.GXi.r.k.i.,X2X%Xp.CXs.s.f.9.bX:X>X:X{.%X9.s.0.%X%XoXy.=XHXe.g.h.e.2X=X:XXXbXkXr.g.1Xx.-XnXVXGXvX",
"OX%.@.I d @.z %.^ 0.6 P I ^ ^ &.1.I 2X..3 1 2 4 9 ( 5 ! y.@.H.N.=.*.7 @.+.i.2.J.H.T.H.2.K.-.rX0X$.-.^ #.I &.@.! e.d d z X.X.( d ",
"+Xa e : t : t w s q.w w + : + w : o .XP . < - = X o . 7 ..j c m a b w u g y.#.N >.:.@.;.f n .XP w s a e a e w ) n.* w q < = o p ",
"XXK U X.( ..} W | {.y.U _ U U ..{ H S G P K K J T  .{ q.:X..o.| o...o..X| e.] u.qXO..XpXu. .}.` K K | } | _  .oX%XK L U K o.u.] ",
".X.Xx.>X1XuX-X,XX.o.u.e.9.....O.-X0XtX0X<X{._ { K ,X=Xl.wXy.;X#XrX+X}.2X.Xu. .$X6X@XwXkX;X X+X.Xi.w.a..Xa.$Xu. .u.| $XoX0XuX8X;X",
"u n <X*.T.C.v...t z h o.8 t f s }.%.N.*.eXO.  2   o.) j n *.6XE.T.A...yX;.*.b v.sXU.E.`.=XP.D.A.L.] w f - o.=.a m z t.2.C.E.c.O.",
"7 I =XK.I.H..Xo.f ( d q.( +.) $.%X2.) H.rXq.2 7 3 y.O.@.@.$.}.yXc.2.n.0X=.1.*.oXdXfXwXI.7XeXU.H.v.0.O 8 4 _ v.^ ;.I.*Xu.-.E. X1X",
"$Xi.$Xp.1XXXr.:XoX*X:Xg.%X>Xi.3Xd.uX%X8X3Xg.e.>X:X2X,X9.d.e.&XnX}.:Xd.:X:XBX:Xg.3X,X3Xs.e.r.%X:X:X*XoX>X3Xs.,Xi.BXHXz.e.:X1X-Xr.",
"O.@.0 0 *.d s z ^ {.@.s 0 z x c x p t.v.Z.D.M.-.N.C.E.t.q.N.B.A.*.Y.B.N.3.%XI v 3 a r 2 : w | | N J.-.A.J.-.J.H.e.d z 9 p f d > ",
"( g k l s f s t z q.d t w 8 a s p g ] 1.:.-.C.%.*.:.:.X..XB A.A.-.;.N >.J.XXa w s - > : + = } O.f x :.#.x n ,.=.qXp - w w 3 < < ",
",X| S W t.q.8.9.p.xX8.9.' ' ` | e.i.-X-X3X>XoXq.q.i.i.}.*X .s.}.{. .XX3XFXNXy.e.XX' 8.T S E w.0.:X:X>X XuX%Xo.*X%Xy.e.| ` t.` ` ",
"0XqX*X<.4.1.i.GXO.} $.}.XX4.K.0XnXO.$.J 9.h.U ~ I *Xi.b.wX3.&XwX+XU.:X,X../ W MXoX$.} +.$X.XrXU.oXZXwX/ L.BXu.O.4.3.*Xl.K.Q..X%X",
"A.*. X@.N M I.' X q q [ H.N #.;.q.a k y $...X X o q.K.C.Z.*.<XW.V.T..X#X- < : XX/ y r w @XT.A.F.I.] : C r ] ) i V f q.&.m.A H.}.",
"O.3.:X} 1.) o.` % U I 0.XX4.1.1.,X( } P } 9.J } 1 XXqX} } } }.K.lXzX:XXX4 1 % y.t.^ P U <X4.O.#X>X,XI %.H q..X%.1.} <Xu.0X2.oX%X",
";XoXe.[.uX1Xp.<Xi.mX>X:X>X>XXX#XnX>XnX:XiX<X=XuXy.kXjX,X-XoX2X:X3XVX;X1X>Xz.i.<XuX>X9.9.%XoXbXCXnX,Xt.y.e.8.R :XmXT q.:XiXp.i.e.",
"+XP.^./.J.Q.P.B.wX9XE.J.A.m.M.E.N.A.[..X].(.P.T.P.D.B.v.#X).].^.^./.Y.F.hX|.J.P.A.P.A.m.N.A.@X( r t a a a s s ..oXs c 0 x #.;.;.",
"lXJ.E.U.D.H.A.N.E.7XJ.T.D.A.A.S.B.>.|.b._.(.U.I.U.).P.O.:X/.'.U.U./.(.'.sX=XN.m.Z.P.N.N.:.W.@XP a l a a 3 w g I q.l s @.N *.>.#.",
";X:XcX2Xe.XX=X$X:XvXDXs.-X*X}.e.=X0.s.$X3X,XnX>X}.GX>Xh.BX<X>Xd.XX3XVXAX2XvXXXs.}.1X1X2Xx.q.$Xi.0.e.q.i.}.$Xe.0.g.p.w.w.<X>Xq.r.",
"=.%.}.$.4 f o.o.g I d q.1XfXsXfX%XL.yXeXrXq.I 3 P ,X4.-.0X2.XX# P +.W XXK.H.R.%X.X-.$.3.}.@.&.#...<XfXhXwX=X.XJ.J.J.#X} $.%.o.XX",
"l f ] - X w 3.O.y a y +X+X).(.!.$XQ.^.B.aX[.r z r =XI.C.N.-.=X< > q 7 .XW.A.D. XH.:.%.*.[.s b b 3.#X`.`.`.@XJ.*.>.*.+X#.8 s ( o.",
"| _ $XK { W i.e.K _ qX3X8X#X#XdX-X#XrX#XkX3X{  .( MX:Xc.+XoXe..._ ( 9.1XwXn.v.%XoXv.9.} $X}  .T t.bXlX8X#Xw.oXqX0Xu.cX0XkXtXt.i.",
"<XoX<X#XwX1X<XXXXX&Xp.j.o.| ` o.t.K [.q.t.p.3.#XO.0Xu.}.;X.Xu.u.q.oXp.XXu.-X1XoX X#X<XwX}.O.<X=Xu.<X#X#X.XoX0X<X%X] XXrXjXrXy.' ",
"wXA.B.D.F.E.D.m.T. X@ g ; q X w , = o.1.h z B &.#.l V } y.B :.>.*.-.N.>.-.#X%.x :.A.m.D.B.Z.eX} N B.A.D.C.-.A.^.o.w a l t l c a ",
"XX2.I.1.K.L.U.K.K.q.8 % 4 8 : 4 6 4 i.| ;.&.=.1.=.A.*.} XXH.N.=.-.M.Y.C.2.%X$.N.1.J.P.wXH.-.XX| N.I.M.N.H.K.K.OXq.p $ J 8 +.@.8 ",
"7X2X;XS 3X2X3XbXXX<Xe.s.S e.oX<X&Xg.-X2X7X%X:Xd.i.:X$Xq.2XnXbXd.9.*X%X,X,Xi.<Xs.,X*XoXMXx.:X;XXXbXbXi.i.oXcX,Xe.AXu.d.i.q.kXd.r.",
"U.I. X6 d 5 { y.*.#.>.uX0Xp 5 @.3XfXsXU.rX| #.=.+.oX( + 8 I q.+.d d / v.f @.#.y.1.d #.&.|.H.Q.U.rX#X8 d @.y.( 2 8 P y.X.&.>.O.%X",
"W.R. Xa g e P o.,.;.n  X( a f x <XeX_.).uX .n A.%.#X3 o + p q.d w w } +Xn x s o.P w g p @XU.W.J.K..Xg x w ] +.* e 5 q.=.N ;. .XX",
"3X%Xx.[ o.o.e.&X' o.9.bX:X' { ] vX1X5X X,X*XoXjXy.NXD T ' :XNX' v. X<X2X XO.e.;XXXoXO.' bXGX#X[.%X$X_ 0X_ D ' { qXt.%X XwX#X{.%X",
"1X0X0X3.K.H.4.K..X1X.XrX.X.XL.wX0XoX<X[.K..XoXqXK.R.v.#X:X3.R.4.3.oXu.} y.XXy.u.| u.U W { l.;X}.qXoXv.tX.X0X.X XVXrX+XrX+XrX.XrX",
" X-.Z.C.N.-.:.*.N.|.N.A.T.m.c J.A.-.#X2.Z C.N.#.*.C.A.v...n *.n z z b j n OXw w e e - t w h XXeX*.C.B.S.N.:.C.c.@XE.Y.).P.!.W.D.",
"}.X.K.P.v.c.H.o.O.VXfXo..XfXeXfXwXv.<Xo.2.I.I.L.eXO.1. X|.#...H.1.( $.$.@.e.^ P 8 8 ^ I ( I 0.u.I.wXI.I.v.H.K.rX<XI.OX+XK.yXaXb.",
"p.y.-X1X}.t.e.e.p.3XiX%X2XkXu.VX2Xe.:XXX,X*X<X1XDX-Xp.y.h.t.*XoX1Xy.e.%Xi.e.,Xe.%Xi.y.e.XX:X:X,XGX,Xr.i.oX%X9.<X,Xy.{.q.| e.%X{.",
"C.-.i.3 a l O.p.C.>.S.XX} f z N e.A.Y.D.fXXXj -.;.XXX.C.;.$.:X2.M.;.O.XXC.m.:.q.1.;.f >.7XI.].).rX] e g w  Xv.:.F.%.:X8 a l P a.",
"&.-.t.4 z l ) o.*.=.>.o.} *.*.-.oX1.P.E.+Xv.@.c *..X2.*.-.J.kXJ.*.J.4.o.:.*.*.O.=.x &.#.oX`.sXQ..X_ p #.8 o.K.-.=.=. XP ; : / t.",
"r.uX2X}.uX#Xe.%Xq.$X#XBX8XjXXX|.AX%X,X2X,X2XXXy. X<X=Xy.%X8XSXuX#X8X<Xs.1X;X}.bX}.i.:Xe.w.oX$Xe.:Xe.' 1Xt.w.,X%X%Xi.*X}.t.t.XXs.",
"u.J.H.K.R.L.1.I.3.<XL.wXeXU.0XeXI.0X:XoXR.wXX.4.O.J.H.a.i.J.eXJ.%.4.( %.6.-X2.K.L.wXK.wXL.-.1Xu.^ #.I J.( @.%.X.u.3 8 ^ +.$.8 4 ",
"L.;.m.N.N.A.A.D.N.@XH.B.D.E.^._.B.P.@XH.S.P.m.N.=.A A 3. Xc m.*.z c c M *.}.C.C.S.P.B.Y.B.Z.+XX.w u 6 v a s t =.o.: k r X O o q ",
"XXX.y..XO.0XrXo.y.bX#XoX#XrX#X.XlXq.}.oXO.0X.Xn.oXtX0XoX,XK.rXoXo.o.L..X| $X.XrX0XwXlX X@XeX2XXXT X.| K X.{ { u.%X{ K { ..O.u.K ",
"XXi.f.y.y.rX<Xg.oXiXqXvX,X1X7X6XmXq.y.p.h.g.p.| | 2Xy.9.e.a.mXp. Xa.j.MXu.}.oXMX9.| >Xt.&Xt.:XoXg.cXoXp.p.*Xe.a.9.i.vXj.y.y.nXMX",
"D.A. XC.F.~.c.O.c B m  XwXC.E.].XX;.V M 3.E e r q o.7 y r : oXA.V.;.X.XXZ.V.:. X0 w ; w o.o r e 1.+Xb :.t I.) t M x  Xz r r O.>X",
"T.O.{.1.A.M..XXX=.#.2.q.0XK.yX`.-X#.%.<.qX[ ; Y 5 9.J 2 8 6 w.2.P.#.| t.T.I.1.1X/ 2 % $ 0.$ P g Q y.d $.+.o.P 8 z $.%X<.5 ; { p.",
"$X<X2X1X1X}.=X,XXX%XoX*X:X=X2X1X$Xi.g.bXZX<X1X<X1XFX=Xe.e.q.,X1X1X<X%X,X1XvX=X;X2X0.e.e.%X$XNX:X:X-X X1X>X=Xi.}.;XXXcXoXXX|.;X%X",
"#XH.-.H.I.P.E.1.0X@XU.P.J.H.H.I.Y.N.@XdX`.b.P.U.K.R.P.y.XXA.2.2.M.I.H.E.I.{.I.R.U._.I./.^.E.=XOXeXI.^.fXsXJ.E..X9XsXsXsXU././.I.",
"aXD.-.H.N.!.Z.J.H.@XP.E.B.B.m.T.J.C.+XU.).I.D._.P.E._..X XS.>.C.%.M.V.D.J.XXJ.D.P._.P.).`.W.#X+XB.D.^.).P.P._.n.dXU././.T.P.W.^.",
"=Xu.i.y. XXX X}.XX:XXX2XXX.Xu.pXnXuX:X,X1Xt.XX X@XoX2XXX%X}.:X#XpX#X@X1X3X*Xa.e.uX2XoX|.}.bXSX>Xq.@X<XwX|.,XkX:X*Xi.@XXX.Xp.XX}.",
"wXu.e.} X.X.y.=X.X0X0X;Xt.} ( O.*XK H K u.i.} ..( y.6XyX#X9X,XwXwXI.@XoX .W I 0..Xu.( { D p.wX<.t.XX.XeX.X;XuXl.oXO.}.o.1.3.u.%X",
"A.M.[.2 a q ~ @XA.D.A..XP p , z <X$ o o o. Xw 6 t ] gX`./.'.<X&.N.-.K.{ : 6 ; o.~ b p a =Xb n l 1.+XB.W.P.+Xc.*.S.N.}.=.N B I.XX",
"H.J.q.; 8 e K XXM.N.2.y.H p 3 ^ oXH O O o.o.w 8 $ o.5XaXaX/.1X1.H.=.p.' a d 2 E ( 5 3 % q.@.-.&.} XXP.H.H..XO.%.A.-.e.1.*.*.u.t."
};
