/* XPM */
static char *_24702_67081_00021713253983[] = {
/* columns rows colors chars-per-pixel */
"64 64 251 2 ",
"   c #DA5C9A",
".  c #E55B97",
"X  c #CC6A9A",
"o  c #D5629B",
"O  c #DC659C",
"+  c #DB6A9D",
"@  c #D36B9C",
"#  c #CB739B",
"$  c #DA729D",
"%  c #D5759F",
"&  c #E5659E",
"*  c #E3699F",
"=  c #DF5DA0",
"-  c #DD65A2",
";  c #D56DA2",
":  c #DC6CA3",
">  c #DE6DAA",
",  c #D567A4",
"<  c #CD7FA4",
"1  c #C77FA4",
"2  c #D573A3",
"3  c #DC73A4",
"4  c #D47BA5",
"5  c #DC74AA",
"6  c #D47CAB",
"7  c #DD7BAB",
"8  c #D978A7",
"9  c #D87EB1",
"0  c #E464A3",
"q  c #E46DA4",
"w  c #EB6AA5",
"e  c #E46DAA",
"r  c #EA6DAB",
"t  c #EB65A7",
"y  c #F16CAC",
"u  c #E473A6",
"i  c #E474AB",
"p  c #EC74AC",
"a  c #E37BAD",
"s  c #E97AAD",
"d  c #E875A7",
"f  c #F074AE",
"g  c #F17BAF",
"h  c #EC6EB0",
"j  c #E575B1",
"k  c #EB75B2",
"l  c #E37CB2",
"z  c #EC7CB3",
"x  c #ED7DBA",
"c  c #EC77B8",
"v  c #F375B2",
"b  c #F37BB5",
"n  c #F37CBB",
"m  c #FB7CBB",
"M  c #F977B6",
"N  c #F169B3",
"B  c #F67FC3",
"V  c #EE7FC1",
"C  c #BF9FAC",
"Z  c #BEABB7",
"A  c #BEB2BC",
"S  c #BEB8BE",
"D  c #CD8BAC",
"F  c #CB87A7",
"G  c #D283A6",
"H  c #D483AC",
"J  c #DB83AC",
"K  c #D48BAD",
"L  c #DC8BAE",
"P  c #D983A7",
"I  c #CC94AD",
"U  c #C49AAE",
"Y  c #C697AC",
"T  c #D594AC",
"R  c #CD8AB1",
"E  c #DC85B2",
"W  c #D38CB2",
"Q  c #DB8DB4",
"!  c #DD8DBA",
"~  c #D685B0",
"^  c #CE93B3",
"/  c #C59EB4",
"(  c #CC9CB4",
")  c #CD9DBB",
"_  c #C79BBA",
"`  c #D593B4",
"'  c #DB93B5",
"]  c #D49CB5",
"[  c #DA9DB7",
"{  c #D595BA",
"}  c #DC94BB",
"|  c #D39DBB",
" . c #DB9CBC",
".. c #E385AE",
"X. c #E484B3",
"o. c #EA84B5",
"O. c #E38BB5",
"+. c #EA8AB6",
"@. c #E485BA",
"#. c #EC85BB",
"$. c #E48CBB",
"%. c #EB8BBC",
"&. c #F183B6",
"*. c #F383BC",
"=. c #F985BE",
"-. c #F28BBD",
";. c #FA86BA",
":. c #E192B6",
">. c #E494BC",
",. c #E993BD",
"<. c #E29BBD",
"1. c #E99ABF",
"2. c #E19AB7",
"3. c #CBA2AF",
"4. c #C4A4B4",
"5. c #CCA2B5",
"6. c #C3ACB5",
"7. c #CBAAB6",
"8. c #C6A6BB",
"9. c #CDA3BB",
"0. c #C4ACBC",
"q. c #CCABBC",
"w. c #D2A3B6",
"e. c #DAA3B7",
"r. c #D3A3BC",
"t. c #DBA3BC",
"y. c #D3AABD",
"u. c #DAAABD",
"i. c #D2A9B7",
"p. c #C5B2BC",
"a. c #CAB2BD",
"s. c #C5B8BF",
"d. c #C7B9B9",
"f. c #D3B3BE",
"g. c #DAB2BD",
"h. c #E2A3BD",
"j. c #BEBCC2",
"k. c #DD8EC3",
"l. c #DE95C2",
"z. c #D59CC2",
"x. c #DD9DC3",
"c. c #DD9CCA",
"v. c #CF9DC0",
"b. c #ED85C2",
"n. c #E68DC2",
"m. c #EC8CC4",
"M. c #ED8BCA",
"N. c #E789C5",
"B. c #F484C2",
"V. c #FB84C3",
"C. c #F38BC4",
"Z. c #FA8BC5",
"A. c #F485CA",
"S. c #F38DCB",
"D. c #FA8CCA",
"F. c #F985C9",
"G. c #E494C4",
"H. c #EC93C4",
"J. c #E49BC3",
"K. c #EA9BC3",
"L. c #E595CB",
"P. c #EC94CB",
"I. c #E49DCA",
"U. c #EB9CCB",
"Y. c #F293C4",
"T. c #F393CB",
"R. c #FA92CD",
"E. c #F39BCD",
"W. c #F497C7",
"Q. c #F88DD2",
"!. c #EE95D1",
"~. c #ED9BD3",
"^. c #E99DD6",
"/. c #F393D2",
"(. c #F39AD3",
"). c #F89AD7",
"_. c #CCA5C1",
"`. c #C5AEC2",
"'. c #CCACC3",
"]. c #CDADCA",
"[. c #C7AFC9",
"{. c #D3A5C2",
"}. c #DCA4C3",
"|. c #D4ABC3",
" X c #DBABC4",
".X c #DDA5CB",
"XX c #D5ACCA",
"oX c #DCACCA",
"OX c #D5A5C9",
"+X c #C5B4C2",
"@X c #CBB3C3",
"#X c #C5BBC4",
"$X c #CCBBC5",
"%X c #CDB5CA",
"&X c #C5BCC9",
"*X c #CDBCCB",
"=X c #C5B7C8",
"-X c #D3B3C4",
";X c #DBB2C5",
":X c #D2BAC6",
">X c #D9BAC5",
",X c #D3B4CA",
"<X c #DBB3CB",
"1X c #D3BBCB",
"2X c #DABACC",
"3X c #DCADD1",
"4X c #DDB3D1",
"5X c #D3BDD1",
"6X c #DCBCD3",
"7X c #D7B5D4",
"8X c #CABFD0",
"9X c #E3A3C4",
"0X c #E9A2C6",
"qX c #E2ABC5",
"wX c #E4A3CB",
"eX c #EAA4CB",
"rX c #E3AACB",
"tX c #EAAACC",
"yX c #F1A3CE",
"uX c #E2B5CB",
"iX c #E2BBCD",
"pX c #E6B3CB",
"aX c #E2A6D3",
"sX c #EBA3D3",
"dX c #E4ACD1",
"fX c #EBADD1",
"gX c #EEA1D9",
"hX c #EDACD8",
"jX c #F2A4D3",
"kX c #F6A6D6",
"lX c #E3B2D2",
"zX c #EAB2D3",
"xX c #E3BBD2",
"cX c #E9BAD5",
"vX c #CCC3CC",
"bX c #C8C5C9",
"nX c #D3C2CC",
"mX c #DCC2CE",
"MX c #D6C7CA",
"NX c #CEC4D1",
"BX c #CFCAD1",
"VX c #D5C6D2",
"CX c #DBC4D3",
"ZX c #DAC9D5",
"AX c #D9C8D8",
"SX c #D7D2D6",
"DX c #E5C2CF",
"FX c #E2C2D3",
"GX c #E4C7D8",
"HX c #E9CFDD",
"JX c #E6C3E1",
/* pixels */
"o.o.,X8 2 + ` ( > 8 * r.oXE.M.sXf.} B.b.t.w.s x s t.9.2 5 # r.>.H.m.x.{ 5 u u / J.-.+.%.| 3 j i O.-Xu a 3 t. .o.=.O.7.+.7 x ' 5.",
"n #.].3 - 0 { | e q b | wX).).~.'.N.A.V 9X] p @.p {.! - 0 + |.H.m.m.wX} : : : _.wXB.$.%.[.3 l p O._ 5 p i oXwXn m O.| l V.m E y.",
"[ ] $X[ W D '.1XW I 2.A %X<XGXGX@Xe.}. .,X9.'  Xt.;X| F F K ,X|.| t.2Xq.G ( K &X'.oX} | +Xh.t.T ] 8.W ! I @Xq.' }.t.2X{.cX X| q.",
"2X] 5.h.9X[ r.h.qX:XT i./ ) uXuX[ I 9.y.zX Xt.cX<XtXt.6.a.<.rXqXJ.t. X9Xh.1X X;X<XxXwX,X].zX>Xy.e.<.J.0X| t.[ r.MX[ }.|.;X9.[ W ",
"G.u 2 i e e : : l q.X * o @ : : , o 8.l.Z.G.N.%.%.M.B.}.q.c @.*.*.@.X.n *.].wXE.kX!.~././.R.,X>.z l #.B.%.#.#.n.6X5 e k y s j k ",
"{ a P 5 7 9 ..a E 8.8 $ $ 5 ; 2 a ..,XrXC.I.I.m.$.H.Y.l.| k $.Y.+.%.O.&.%.%XfXU.gXI.aXsXU.!.%Xz.,.K.C.H.$.%.+.} <X+.X.i s %.E a ",
"+X5.s.e.,XCXBX6.-X&X XZ @X|.8.'.nXa.$X:Xq.vX5X<X,XCXAX%X=X|.1X,Xq.|.+X:X|.vX6X&X@X2XCX>X$X-Xq.'.:XSXoX'.9.0.+X@XvXZXBX7.@X6X@X7.",
"b +.@X-.#.-. X[ u d w _.rXY.H.E.1XJ 3 k Q  X#.H.*.2XxXP.P.0X-XX.+.3 ' 0X%.X.z }.Q 8 G a *X+.s p L :X#.a a 5.x.Z.D.<.9.$ 6 i X.3.",
"n o._.o.#.m wX[ h t w {.wXC.m.Y.%X3 : - D |.*.L.m.|.U.P.P.H.@Xk 5 p H |.*.M M 9.8 , @ 3 |.p a e ! XXp c e ^ wXC.D.W.a.4 > e ^ q.",
"7.9.j.w.5.] +Xp.Y 9.Y #X@Xw.6X2X6.Y / h.y.1Xt.<XuXf.`.q.@X<XMX{.) [ 4.$Xt._.[ +X/ I Y 5.bXt.'.5.f.bX] [ ( p.p.|.-X<XBXr.[ 9X-Xd.",
"<X! { >.J.J.<.O.r.2X0Xx.} yX9Xx.J.J.@X9X1.wXx.J. .>.L.y.@XU.fXdXwXhXwXzXtXj.J.wXeX0X9X9XoXU.<Xt.L t.} } Q O.W uX5X .` ~ K J.<.} ",
"l.v c M x n x M @..XC.F.B V #.B.F.n..X} D.M.M.#.b.#.F.l..XQ.R.!.!.^.gX).E.[.n.b.m.S.S.!.P.S.I.6 0 e > e e w 0 ! }.i h k q 7 e r ",
"9...:.' } K.} <.2.@X<.{  .0X .>.l.` y.;XkXx.} h.G.K.wXe.y.c.K.rXwXaXU..XrX:XK.J.<.J.wX.XwXwX6Xw.% P < K D G J I u.J Q G.~ K J K ",
"q.r.s.q. XiX1XbXt.:XHX&X@X;X9.uXvXw.7.-X1X5X|.<X<XZXAX-Xs.%XnX<X9.|.].+X5.8.[ &X-X|.y.'.$X X1Xy.6.:X}.<X@Xp.2X-XDXu.+X,X<XFX1Xp.",
"a a r...l b { }.*.o.b qX<.i a #.|.7 2 : K rXH.!.(.<XU.H.H.H.|.l a z Q  .u > w | $.&.*.&. Xa l w } lXZ.T.P..XJ.o.H.1.XXwX~.kXoX9.",
"b z ].a z M W r.b.B.*.r.W p l j |.7 5 t ~ XXP.gX~.,X.X/.T.L.-Xo.#.z K  Xk i 3 ( G.*.X.s _.3 5 k D ,XT.(.P.XXz.S.R.,.%X~.^.).3Xr.",
"nXw.j.r.-XuX:X0.9.s.>X:X:Xq.9.9.*X;X>X7.4.=X=XAXXX$X:X$Xs.i.s.|.2X$X$XnX-X6.4.8.-X:X X'.&X X7.8.7.vX|.FX:Xq.+X-XbXiX+X6.,XpX0.s.",
"| ..J E $.E E O.O._.J H H 7 6 X.E O.1X' q 2 7 ~ 4 4 7 ` w.o.G.-.G.+.O.%.>.|.O.,.W.H.G.,.J.K. X] 7 $.E +.6 a O.<.|.s J 4 6 7 l J ",
"{ q w i : 5 p p u _.: O : q + e : + {.6 O X - 0 @ - 0 P ' v x b p p u q p J.&.*.*.&.+.*.b &.wX' q w 3 e 7 u q ~ OX0 q q , + w - ",
";X'  . .D  .wXT ` +X] T ] | F { ' K q.Y K D D G ]  .| ( q.^  .{ |  .' ` ( 0.9.{  . .9X}.r.t.:Xy.H ` 9X9XzX| W  X2X] F T F E I ] ",
"}. XNX{.}.tX2X6.' t.t.`.y. .{  .1X XpX X,Xa.D ( ' $X-X . .] %XOXtX<X|.=Xt.<.t.`.XXoXfX,X8XoXoXoX;XA ] r.rX&Xy.[ oX|.0.|.{.wX+XbX",
"i 7 ].H.Y.C.}.) r z y  .E p 7 k _.%.m.=.I.} . 2 = 9.:.k b g |.R.m.%.K.L.-.*.b x.sX!.R.L.].W.B.C.L._ w p 0 { >.i f s }.Y.V.C.U.| ",
"J < _.I.G.G.oXe.a ~ s {.' a K X.#X} $.@.OX8.2 4 $ |. .X.@.O.|.K.H.G.}.{.%.>.+.) dXI.K.z.].U.0XH.}._ 2 X.X.<X9XL 1.+.'. .n.J.wX|.",
"7.r.q.q.u.-Xa.a.y.p.;X+X-X7.y.-X>X9.,Xy.2X2Xw.q.i.GX@Xi.q.8.&Xa._.@Xy.@Xa.$X,X$X+X Xy.p.0.y.VX`.y.@X7.y.DXbXy.5.MX-Xp.@X+X;Xa.0.",
"J.a 5 a c c k a a 4.E e 5 @.k #.l a )  .V.M.W.+.#.V.m.r.r.#.S.Y.-.L.! C.K.y.' a 2 i r > 6 * r.2.n %.$.=.#.%.o.%.9.3 j l i a 3 > ",
"} u u p j l s d a ( q i 5 w i i p q | } =.#.#.%.%.=.=.}  XV.C.N.-.z C.V.=.'.u q q 5 : , @ & } } f #.@.V.&.k o.:.| u u > - i 3 - ",
"0.Y 4.{ | 5.7.5.q.s.t.4./ r.[ 9.i.( &XnXFX:Xw.6X|.-X;X`.=X X+X].8.r.|.-Xy.+X9.a.e.{.'.( 4.^ 0.A r.0.r. X| q.8.nXnX;X:Xw.Y ( U U ",
"0X<.+X:.1.,.|.y.} Q >.9.[ K.>.x.a.W >.<.uX@XH l.K p.qXl.x.<.s.eX.XwX-X:X' X.qXMX[ <.<.<.-X}.eXwXoX-X..1. .`. X0XeX .$X2.9XE.qXa.",
"V.%.OXo.x M $.R = , 0 r.G.n #.n |.i t 0 ! ` o ,   ) J.B.B C.XXR./.C.wX) = , q '.W e 0 q z.H.D.S.x._ r r a OXW f n l {.@.b.B G.r.",
"x.<.@X{ >.G.r./ # F J 9.r.<.}.>.$X' Q 4 ` 5.G L 6 |. X .} O.@Xz.x.G.|.9.6 1 4 4.w.Q H F 0.2.eXqXuX-XK E ' <XqXO.Q ' ,Xx.} H.}.*X",
"$X|.:X;X;X<X,X-Xu.$X2Xa.y.FX<XuX$X XbX@X X%X|.iX-X6X2Xa.#X|.:X,Xq.<X'.<Xa.p.y.y.q.t.t.r.p.t.BXnX;X-Xr.] w.2Xu.f.VXu.;Xq.e.u.|.6.",
"aXm.C.U./.!.T.P.K.].H.T.D.b.G.C.S.*.{.wX).^.P.C.L.S.D.J. X(.!.(.U.!.~./.U.7XC.T.C.S.m.B.m.#.<X:.> k i s 5 7 j W |.p k l s %.#.B.",
".XP.m.I.C.~.Y.m.H.`.m.Z.b.B.H.C.S.N.|.eX!.I./.J.I././.x.,X~.gXU.P.^.^.^.jX`.Y.N.C.H.C.W.m.Y.].Q q z i i 3 q u 9 {.p s z k n %.z ",
"@X|.'.9.{.|.-X@X7.a.>X0.A =Xq.-X0.-XMXa.1XnX,Xu.-X<X X+XvX<XnXf.r.2XCXBX2XvXuX$X:X*XCXGX+Xr.nXy.q.q.9.{.7.0.9.q.s.t.+X0.-Xu.9.@X",
"O.$.) 4 H a  . X3 J $ 5.XXsXsXsXa.0X0XL.rX9.5 8 4 t.0XO. .K.|.4 4 7 T |.1.I.,.-XJ.H.:.<.@X..+.X.| <XgXkXdX*X9XH.Y.K.|.{ O.o. .`.",
"p z 9.: @ * ` t.N j 0 z.dX/.^.P.,X!.I./.gX( > l q |.J.A.S.$.9.i 5 - H oXR.b.m.'.Y.;.%.&._.i v x K XX).jX!.].G.#.;.%.OXX.s w ,.) ",
"` t.$X[ L K / 4.~ ] uX1Xr.rX6XJX$X}.oX3X;X5.W ` Q nX;Xz.z.t.$XK D K r.-XJ.OXrX,X6XJ.9.` $X9X .' t.-X}.lXtX@Xt.[ <. X*Xw.qX<.[ y.",
"$X<X6XrXoX;X X X X&XDX>X( ` {.<XU ` a._. .e.9X XrXu.{ '.,X[ |.}.r.h.qXu.<.+X}.e._.rX<Xx.2X.X+X<Xt.,XOX3XwX|.}.XX`.[ _.{ }. . .] ",
".Xm.M.m.M.P.S.S.H.w.u u 3 O ; * u 0 ^ ! M a n #.@.M f Q }.n B.#.%.%.#.B.-.|.-.*.V.B.A.Y.m.V.dX} #.P.M.C.b.m.C.L.| r r y r k #.k ",
"oXG.J.H.P.P.H.G.}.|.3 2 6 6 > 3 2 3 3.( z @.l.m.O.*.%.[ q.n.m.-.$.I.n.Y.>.&X>.$.%.rXG.I.l.#. Xe.H.I.G.C.,.>.J..XC d $ 7 E X.6 a ",
"5X,X+X5.MXZX$X$X1X2Xy.A @X-X X-XbX7.,X@X@X+X9.y.y.2XBX1X2X-XCX$X;XCXq.nXy.#Xy.$XAX5X|.bXj.a.vX5XvXmXy.9X| A 7.9.@X/ 7.5.'.GXy.Z ",
"P.U.].5 l s W r.%.-.-.| ~ s E #.%XeXsX(.rX9.&.$.o.,X}.7 7 K %XO.6 X.R  .o.O.&.| ,.s s o.|.P.(.W.}. Xa J a ) W : e G -X} #.*.' $X",
"W.I.1Xa u q K r.@.b =. XL q 7 u 9.E.!./.tX` M b.o.;X+.+ + u |.o.- q W }.b a b z.4 u u u ].(.R.!.9X) p 7 p ( E & y E |.O.V.*.l.@X",
",X@X&X| w.[ q.'./ r. XNXq.) }.OXp.,XXX].nXp. X7Xr.*X%Xr.y.Y $X( [ | <XVX .| ( +X:X2XqX-XvX6XxX5X:Xp.<.r.{ `.q.` w. X-X| | _.].@X",
"<X . .G.x.wXJ.0X{.-X XrXx.}.0X9XJ.9X:Xr.I.0Xt.qXH.0X<XoX;X{ J.,.J.}.9X9X{ @XI [ { 9X2.[ ` ' nX,XoXx.9X0X .}.x.r.2XzX{.9XOXhXfX{.",
"c.B.V.C.B.C.n %.W.4XT.C.%.C.-.m.S.%.'.>.m b.*.+.B.*.C.| ) k #.B.c z z v b {.q q q r > q w p <X0Xb.V.H.D.m.*.C.H.XXP.P.).L.T.S.E.",
"{.x.0XI.J.J.>.z.9X*XwX.Xx.L.I.wXwXL.,Xx.H.x.H.H.} G.Y.|.'.%.>.O.O.$.} O.+._.X.G E X.W E } O.%X|.x.L.J.U.I.l.wXfX6XwX}.U..XzXrXI.",
"a.y.$Xq.-X-Xy.q.>X>X<XCX|.y. X;X*X>X-X'.$XS ;X{.|.+Xy.u.f.5.#Xr.r.|.1X#Xr.s.-Xa.y.;Xy.-X2X;X<X-XmX@X4.,X2Xa.$XmXDXy.+X] / 2X1X0.",
"*.%.>X7 j r { i.B.%.-.<X>.o.a *.7.n.U.S.sX9.v N.x  XG.#.V &.|.G.m.*.[ |.n N.B.5.>.g m z [.H.^.Q.lX| w k i { I.B./.#.'.3 r c W t.",
"C.+.[ 3 i p ! t.#.#.*.{.Q z o.C.uXL.H.M.wXt.l +.#.}.J.#.$.+.}.H.C.H.K.}.n #.n  .} o.o.z 4XjXgXE.}.| 3 ..7 | x.@.#.%.4.# e p W 5.",
"MX-X&Xq.r.{.`.+X|.@X}.%X_. X|.<XnX_.a.'.,X6.9.t.r.:X<Xf.s.r.@X X{.@X1X*Xy.+Xr.@X'. X|.q.2X;X+Xa.a.-X7. X7.$X:X-XmXy.a.2Xt.Y 8.$X",
" X,.L.J.,.K.1.G. .%X0XwXJ.U.wXwXtXL.q.}.E.0XU.J.} H.>.[ y.H.G.,.X.$.O.%.,.p.>.l.J.eXrXJ.I.>.|.u.L o.' ,...O.O.[ GXG J :.J P P 7 ",
"<.*.#.S.C.C.B.Q.n.].P.W.S.!.P.T.S.M.oXL.F.m.M.@.n.F.B.} t.B.F.C.*.x c m *.'.C.S.S.S.P.M.M.b.wX{ h N i j j e r $.{ 5 e ; o o o - ",
"2X9X|.zXfX.X{. Xh.@X X{.x.}.z.I.x.OX-X{.9X9Xc.}.}.hXtX;X`.Q }.9X| | 2.}. X+X .t.zXfXrXdX4X9X6X9.` K K D W W  .<Xr.K K Q Q [ x.D ",
"iX X#XuXcXrX-Xf.t. Xt.s.a.qX|.oXbXw.( | >XMXt.] e.SXFX<Xy.( bX;X Xr.g.nXqXoXt.a.f. Xy. XBXe.-Xr.7.@X] t.] #X:XiX|.[ :Xt.I |.GXd.",
"Q.C.r.n.m.A.J.[ j m m v.J.D.S.^.y.*.n M >.3.r 5 e y.W i j 7 ;X*.B.m { {.B.m.V._.J i : 3 9.- q e E z.p m v x.} i B 7 @XE e e L y.",
"C.}.`.1.-.G. Xr.%.X.H.;X}.J.I.jX-XJ m.o.t./ 3 7 5 q.H 5 7 4 p.H.n.$.` ;XH.k.%.<X` X 2 s s.$ 7 3 G '...@.Q }.{.3 z L A O.3 : | ;X",
"-X2X1X<X@X+X'.y.|.*XGXAX1X@X,XGX$X8.@X,XFX>X;X-X].:X,Xq.q.9.a.;X|.;X:XCX;Xj.<XZX,X*X1Xy.&X@XNXq.q.vX<XxX2X-X:X'.=X9.#X;Xq.OX$X$X",
"XXH.H.H.E.U.Y.$.J.'.0XW.L.G.n.L.H.H._.wXkXL.E.L.G.W.P.{.;XC.Y.G.! H.P.sXH.'.J.U.~.(.wX(.U.H.%X}.H.U.~.kXI.%.P.c.7XU.eXsXI.U.P.wX",
".XH.C.#.D.P.S.L.K.|.U.T.m.Y.C.W.M.C.XX9XS.L.T.H.P.T./.}.{.B C.#.m.m.M.P.W.,XH.m.P.R.L.!./.).3XG.S.P.~.(.U.E.E.l.dX(.~.~.M.R.T.L.",
",X Xy.| ;X1X6XxX2X$Xy.0.|.pX}.r.}.9.BX1X}.XX9.y. X XAX|.:X<X|. X<XqXOX@Xy.$Xu.2X2XiXoX'.5XZXCXy.t.,X6XcX<XHXZX|.&X X|.<X}.>X X|.",
"wX{.6.K J.wX;X2X}.0XwX+X( } ` O.'.F e.` | XXD L ' q.6XwXrXlX1X0X9XJ.oX'.K D J =XoX .>.] *X[ [ ' ] @XwXtX XVX<X<.h. .`. .>.J.|.'.",
"B.G._.i i e R 9.N.V.C.OXH i 5 e '.$ ;   ~ |.i j i  XgX!.gX/.XX#.N.C.I.}.i > 0 ) ! e s u _.M n n $.XXT.T.C.{.x.*.Z.m.'.@.n n >.|.",
"Y.,.8.3 4 u D }.n.m.Y.|.1 3 8 l :X4 : @ K t.$ 5 4 e.fXc.aXsX@XG.G.>.e.r.u 3 q 4.9X7 8 2 e.X.E #.:.`.W.H.Y.{.x.@.P.%.9.,.N.x { y."
};
