/* XPM */
static char * duck_4_xpm[] = {
"64 64 592 2",
"  	c #446B24",
". 	c #46702A",
"+ 	c #3E6917",
"@ 	c #264A13",
"# 	c #3E622A",
"$ 	c #41641E",
"% 	c #345423",
"& 	c #3F6824",
"* 	c #527533",
"= 	c #4A6D2C",
"- 	c #325415",
"; 	c #416424",
"> 	c #4C732C",
", 	c #3C631D",
"' 	c #355A1B",
") 	c #426717",
"! 	c #3D6517",
"~ 	c #3D6223",
"{ 	c #4D7233",
"] 	c #355B15",
"^ 	c #3A5C1D",
"/ 	c #547B33",
"( 	c #2A461C",
"_ 	c #415E2B",
": 	c #48662D",
"< 	c #304E15",
"[ 	c #324E22",
"} 	c #395624",
"| 	c #294615",
"1 	c #224405",
"2 	c #5B833B",
"3 	c #496D25",
"4 	c #3B5C23",
"5 	c #496633",
"6 	c #456A2B",
"7 	c #365A22",
"8 	c #33541B",
"9 	c #3D5C2A",
"0 	c #25431B",
"a 	c #3D5D33",
"b 	c #2E511B",
"c 	c #415F24",
"d 	c #4B7325",
"e 	c #46701E",
"f 	c #537B2C",
"g 	c #4D792C",
"h 	c #4F7932",
"i 	c #35601B",
"j 	c #4B6D33",
"k 	c #2E5114",
"l 	c #466A32",
"m 	c #2A4C0E",
"n 	c #223E0C",
"o 	c #23430C",
"p 	c #314D1C",
"q 	c #2D4C1A",
"r 	c #2B4C14",
"s 	c #43642B",
"t 	c #4E7339",
"u 	c #476D39",
"v 	c #568132",
"w 	c #57822B",
"x 	c #597D33",
"y 	c #5F893D",
"z 	c #1E4107",
"A 	c #32590F",
"B 	c #4D7925",
"C 	c #385C16",
"D 	c #436A1D",
"E 	c #254313",
"F 	c #51762C",
"G 	c #28460E",
"H 	c #557B3A",
"I 	c #638B3D",
"J 	c #648C43",
"K 	c #3E691C",
"L 	c #14320E",
"M 	c #5E8A36",
"N 	c #365B29",
"O 	c #597F2D",
"P 	c #39571E",
"Q 	c #477123",
"R 	c #35542B",
"S 	c #57823B",
"T 	c #679146",
"U 	c #173406",
"V 	c #436431",
"W 	c #2F5023",
"X 	c #5B8334",
"Y 	c #2F4F28",
"Z 	c #376014",
"` 	c #557A1D",
" .	c #2C4B22",
"..	c #467735",
"+.	c #527B25",
"@.	c #3F6929",
"#.	c #526E35",
"$.	c #517625",
"%.	c #638C33",
"&.	c #1E410B",
"*.	c #556B32",
"=.	c #709E1B",
"-.	c #395D13",
";.	c #628432",
">.	c #3B572B",
",.	c #50772B",
"'.	c #567D22",
").	c #434E23",
"!.	c #553E2C",
"~.	c #4A3228",
"{.	c #627629",
"].	c #5E7B1A",
"^.	c #5F831C",
"/.	c #5F862F",
"(.	c #577E30",
"_.	c #496731",
":.	c #4D552D",
"<.	c #5E892F",
"[.	c #4B6C3A",
"}.	c #26490B",
"|.	c #1D3C0B",
"1.	c #587A37",
"2.	c #534F32",
"3.	c #603531",
"4.	c #6C2F35",
"5.	c #6C2E35",
"6.	c #5C342F",
"7.	c #5E3B33",
"8.	c #5E3D32",
"9.	c #575827",
"0.	c #70A30F",
"a.	c #4A761B",
"b.	c #5D8343",
"c.	c #53753B",
"d.	c #4C4B27",
"e.	c #512B2A",
"f.	c #5B2A2E",
"g.	c #52262A",
"h.	c #703237",
"i.	c #6D3136",
"j.	c #4D2429",
"k.	c #4C572A",
"l.	c #5D6531",
"m.	c #577724",
"n.	c #496B29",
"o.	c #597D3B",
"p.	c #5A7C42",
"q.	c #3D4E1C",
"r.	c #463B26",
"s.	c #4A2327",
"t.	c #1B0E12",
"u.	c #210F14",
"v.	c #632D32",
"w.	c #421D24",
"x.	c #2C1519",
"y.	c #743339",
"z.	c #484824",
"A.	c #527226",
"B.	c #557C27",
"C.	c #416422",
"D.	c #5B832C",
"E.	c #495C2C",
"F.	c #444225",
"G.	c #1E1A13",
"H.	c #170D11",
"I.	c #3E1D22",
"J.	c #79353C",
"K.	c #5D3B31",
"L.	c #4C532E",
"M.	c #70943A",
"N.	c #2D510C",
"O.	c #4B7021",
"P.	c #343421",
"Q.	c #618422",
"R.	c #41511D",
"S.	c #423B22",
"T.	c #51472A",
"U.	c #2F341C",
"V.	c #2E211A",
"W.	c #5D2C31",
"X.	c #678732",
"Y.	c #66913C",
"Z.	c #426916",
"`.	c #67924A",
" +	c #3A5316",
".+	c #5B3D30",
"++	c #51292A",
"@+	c #683133",
"#+	c #4F2B28",
"$+	c #1E1F11",
"%+	c #1C1213",
"&+	c #637C2D",
"*+	c #45691C",
"=+	c #203C13",
"-+	c #404C26",
";+	c #623B31",
">+	c #150B0E",
",+	c #241115",
"'+	c #452125",
")+	c #7C3E45",
"!+	c #4B3328",
"~+	c #405B24",
"{+	c #44652B",
"]+	c #688737",
"^+	c #527541",
"/+	c #30500F",
"(+	c #5C753A",
"_+	c #643830",
":+	c #51532E",
"<+	c #496B2A",
"[+	c #375A13",
"}+	c #4F5926",
"|+	c #34191D",
"1+	c #563431",
"2+	c #7B9D2E",
"3+	c #608C2E",
"4+	c #516E3B",
"5+	c #234803",
"6+	c #5F5C39",
"7+	c #180C0F",
"8+	c #3B4622",
"9+	c #668F2B",
"0+	c #32401F",
"a+	c #385718",
"b+	c #5A472C",
"c+	c #6D3339",
"d+	c #6C3636",
"e+	c #53372B",
"f+	c #405920",
"g+	c #5D882F",
"h+	c #2E4318",
"i+	c #733939",
"j+	c #6F4039",
"k+	c #583B2B",
"l+	c #536C2E",
"m+	c #39561E",
"n+	c #4E7A13",
"o+	c #65931E",
"p+	c #505F2B",
"q+	c #53292B",
"r+	c #0F0A0C",
"s+	c #35191D",
"t+	c #474326",
"u+	c #4C6A31",
"v+	c #416A24",
"w+	c #6B9C18",
"x+	c #4B3928",
"y+	c #584932",
"z+	c #322B1E",
"A+	c #7B7547",
"B+	c #372C22",
"C+	c #1A1713",
"D+	c #2A211B",
"E+	c #456324",
"F+	c #3A6028",
"G+	c #5A7716",
"H+	c #BBB26A",
"I+	c #F4E47D",
"J+	c #DBCD73",
"K+	c #9C9353",
"L+	c #261918",
"M+	c #665C37",
"N+	c #E2D375",
"O+	c #FDEB7C",
"P+	c #ABA263",
"Q+	c #70524D",
"R+	c #92464D",
"S+	c #8E444B",
"T+	c #793A3E",
"U+	c #76A61F",
"V+	c #476E15",
"W+	c #486F28",
"X+	c #443C1E",
"Y+	c #958A54",
"Z+	c #D6CA74",
"`+	c #D8C66E",
" @	c #FDED84",
".@	c #F6E985",
"+@	c #A95149",
"@@	c #D3B06F",
"#@	c #C5BA6B",
"$@	c #5A6731",
"%@	c #4A702A",
"&@	c #68952D",
"*@	c #533629",
"=@	c #6B633D",
"-@	c #9E955C",
";@	c #A76857",
">@	c #964750",
",@	c #DED278",
"'@	c #373224",
")@	c #5B5332",
"!@	c #497024",
"~@	c #688B49",
"{@	c #6D9B17",
"]@	c #28261A",
"^@	c #49442A",
"/@	c #B4A85C",
"(@	c #FCEE8A",
"_@	c #9C4B52",
":@	c #843D43",
"<@	c #6E3E36",
"[@	c #557B32",
"}@	c #4B731C",
"|@	c #496D2A",
"1@	c #60761D",
"2@	c #95938C",
"3@	c #33312D",
"4@	c #585734",
"5@	c #F6EA8B",
"6@	c #D8B777",
"7@	c #DAD9D6",
"8@	c #723838",
"9@	c #5B7D37",
"0@	c #639212",
"a@	c #E7D97A",
"b@	c #B2AEA8",
"c@	c #E99DA5",
"d@	c #68161E",
"e@	c #A29A5A",
"f@	c #EADE83",
"g@	c #E7D986",
"h@	c #A04D56",
"i@	c #5A5956",
"j@	c #AD8F59",
"k@	c #674D32",
"l@	c #48662C",
"m@	c #4B6F1B",
"n@	c #324F1C",
"o@	c #536625",
"p@	c #F4E684",
"q@	c #8D8850",
"r@	c #756D44",
"s@	c #F3E68A",
"t@	c #75683A",
"u@	c #906F31",
"v@	c #A47B32",
"w@	c #76483A",
"x@	c #9C5355",
"y@	c #482B29",
"z@	c #6F3837",
"A@	c #56572F",
"B@	c #FBEF91",
"C@	c #E3B038",
"D@	c #F9BD38",
"E@	c #B68F32",
"F@	c #8A5546",
"G@	c #F6E991",
"H@	c #643135",
"I@	c #694737",
"J@	c #44542B",
"K@	c #456439",
"L@	c #49672D",
"M@	c #41680D",
"N@	c #506D1E",
"O@	c #FDF293",
"P@	c #FDF18C",
"Q@	c #B58E32",
"R@	c #D9A835",
"S@	c #E1AD37",
"T@	c #C79A35",
"U@	c #834347",
"V@	c #60342E",
"W@	c #3C4223",
"X@	c #345122",
"Y@	c #587628",
"Z@	c #91AA3E",
"`@	c #94C919",
" #	c #324F0C",
".#	c #648821",
"+#	c #DACE7B",
"@#	c #FDF39A",
"##	c #ECE188",
"$#	c #CAC574",
"%#	c #9C9663",
"&#	c #847B4A",
"*#	c #B5A967",
"=#	c #C7BB75",
"-#	c #664F45",
";#	c #555F2A",
">#	c #45592B",
",#	c #85877F",
"'#	c #BEB673",
")#	c #1E3E12",
"!#	c #4E5832",
"~#	c #EADC7E",
"{#	c #5A564A",
"]#	c #50532E",
"^#	c #46682B",
"/#	c #415F26",
"(#	c #9B9E92",
"_#	c #E2DFD9",
":#	c #696763",
"<#	c #5A7941",
"[#	c #6A6943",
"}#	c #DBD081",
"|#	c #E9E379",
"1#	c #555A36",
"2#	c #5D7A38",
"3#	c #476A2B",
"4#	c #48672B",
"5#	c #606958",
"6#	c #D9DAD4",
"7#	c #F2F1ED",
"8#	c #3A5A1E",
"9#	c #B3AF61",
"0#	c #FCF4A6",
"a#	c #688334",
"b#	c #699823",
"c#	c #59832F",
"d#	c #547E2A",
"e#	c #517D21",
"f#	c #557924",
"g#	c #5E6752",
"h#	c #D9DAD3",
"i#	c #EEEDE9",
"j#	c #335615",
"k#	c #547233",
"l#	c #ABA85B",
"m#	c #829930",
"n#	c #81BA17",
"o#	c #74A920",
"p#	c #71A117",
"q#	c #63685B",
"r#	c #E5E2DD",
"s#	c #3A5A1D",
"t#	c #969050",
"u#	c #8AC312",
"v#	c #80B40E",
"w#	c #6C734D",
"x#	c #DA8088",
"y#	c #37501B",
"z#	c #D2C571",
"A#	c #6E8834",
"B#	c #F1D7D7",
"C#	c #F62946",
"D#	c #DD8953",
"E#	c #576931",
"F#	c #76716A",
"G#	c #F0E9E4",
"H#	c #F47A8A",
"I#	c #F71436",
"J#	c #B1961C",
"K#	c #90944F",
"L#	c #C7C3BE",
"M#	c #F1EDE9",
"N#	c #F1C3C4",
"O#	c #F42234",
"P#	c #C26C1D",
"Q#	c #C0BC68",
"R#	c #554F4C",
"S#	c #A6A29F",
"T#	c #89C50A",
"U#	c #456B25",
"V#	c #ECE07F",
"W#	c #5B5B3A",
"X#	c #82393F",
"Y#	c #453D3B",
"Z#	c #E72D2B",
"`#	c #89C607",
" $	c #4B5F26",
".$	c #CE722B",
"+$	c #DC3E26",
"@$	c #7C9E19",
"#$	c #3B5A1B",
"$$	c #818145",
"%$	c #A1A310",
"&$	c #64912E",
"*$	c #4A6E2C",
"=$	c #517638",
"-$	c #87834C",
";$	c #ADCA38",
">$	c #93B70B",
",$	c #65841E",
"'$	c #3F6612",
")$	c #84BF0D",
"!$	c #547A21",
"~$	c #496D28",
"{$	c #6A8729",
"]$	c #83BE0A",
"^$	c #4A710D",
"/$	c #3E5D2A",
"($	c #8AAD33",
"_$	c #78AE14",
":$	c #375919",
"<$	c #1C3D04",
"[$	c #3D6014",
"}$	c #86A933",
"|$	c #666825",
"1$	c #87B725",
"2$	c #A6C236",
"3$	c #4E6E17",
"4$	c #4D6F26",
"5$	c #507428",
"6$	c #3E651A",
"7$	c #4F7041",
"8$	c #517E21",
"9$	c #ACC546",
"0$	c #85BD0D",
"a$	c #6D970D",
"b$	c #FBEA77",
"c$	c #666538",
"d$	c #7DA61D",
"e$	c #5C881D",
"f$	c #5D8734",
"g$	c #B3CC48",
"h$	c #7FB80B",
"i$	c #659314",
"j$	c #58722A",
"k$	c #E5DA7D",
"l$	c #617729",
"m$	c #4F7912",
"n$	c #669427",
"o$	c #7A9C2F",
"p$	c #5A8421",
"q$	c #5A8626",
"r$	c #457119",
"s$	c #5F8638",
"t$	c #4C7622",
"u$	c #4E6730",
"v$	c #B0B057",
"w$	c #E7D871",
"x$	c #6F9F20",
"y$	c #415F2B",
"z$	c #3C592B",
"A$	c #455F25",
"B$	c #979854",
"C$	c #E6D870",
"D$	c #5F8624",
"E$	c #49652D",
"F$	c #94974D",
"G$	c #5D872E",
"H$	c #6E9637",
"I$	c #5A6B2D",
"J$	c #658F2D",
"K$	c #4A7412",
"L$	c #79A616",
"M$	c #A98431",
"N$	c #475124",
"O$	c #618541",
"P$	c #71A61C",
"Q$	c #46461C",
"R$	c #727434",
"S$	c #978F58",
"T$	c #ACA661",
"U$	c #ADA75E",
"V$	c #B3B367",
"W$	c #B2B166",
"X$	c #C5BD6B",
"Y$	c #E2D982",
"Z$	c #88914B",
"`$	c #57661B",
" %	c #61863B",
".%	c #4F742B",
"+%	c #70A50B",
"@%	c #58812A",
"#%	c #4B6E1E",
"$%	c #5F861B",
"%%	c #76AC14",
"&%	c #5B871D",
"*%	c #3F6212",
"=%	c #3B5D19",
"-%	c #3C621B",
";%	c #3F5E23",
">%	c #2E4E0C",
",%	c #385D14",
"'%	c #517529",
")%	c #5D831D",
"!%	c #6E9811",
"~%	c #6D9F11",
"{%	c #639314",
"]%	c #75A426",
"^%	c #6FA413",
"/%	c #7BB30E",
"(%	c #517A28",
"_%	c #5D862B",
":%	c #335515",
"<%	c #163903",
"[%	c #314F15",
"}%	c #466B32",
"|%	c #456C24",
"1%	c #385C22",
"2%	c #2E4F14",
"3%	c #395D22",
"4%	c #466B23",
"5%	c #73A81D",
"6%	c #30530E",
"7%	c #709641",
"8%	c #4B740E",
"9%	c #294521",
"0%	c #65951B",
"a%	c #426822",
"  . +   @ # $ % & * = = - ; >   ,   + . ' & ) ' ! ~ { ] ^ % / ( ( _ : < [ } | } : 1 ; 2 3 - 4 5 6 7 8 9 0 8 > ~ a b c c < c ~ 7 ",
"6 d e f ' { ! 4 g .   ] 8 8 ]   a ' h ' ' i ' j k l / b m 4 % c n o n p q n q : ] r 4 ;   8 8 4 # ' > s ^ = t u % - ; 9 [ s ; j ",
"~ v w i x v 3 y   z A   5 s B 6 q + v t . f C ) & t D E v F q & } } G | % r ; x ^ H { r k ' ' 4 7 I 3 6 J K # l @ d 3 p L 8 ^ @ ",
"4 M ) ~ v e M g h N ~ F 9 7 3 # k O f & > v x $ 6 g 6 4 O z . x } P p } ( ' / C 3 { * s 8 - 4 { & Q > # x & /   = = s 9 | ~ ^ q ",
"q ] A # f B v Q { N c x R % d l 6 j   { N 4 8 q { ' - S > @ M ~ m r } 8 - ~ 2 f , ^ s - 8 r ~ ~ ~ H > ~ ' T w B   ( q ; D 3 | N ",
"# , > ; # > K & & | c - U p 3 @ ' 4 ] > q ^ m V B W ] { 6 & X 6 8 9 4 b 6 , , g ; 8 4 p j @ 4 l Y N , Z , B X 8 r R R D ` ! | ( ",
"~ h . * k . X 6 6 ' ~ 8  .o r : 8 ^ X   r   x - , 9   ~ . ... . ; ' q r 6 * S x < P P 8 5 p % 4 % ' C   g +.f 6 p 9 ; O 3 m [ @ ",
"' & g , s h B @.~ s s _ s | 8 4 % = { E , g C ; j / ~ N , u ..& , - r r { / / ' #._ G P P 8 | 8 s M   { > , - { 5 k f O 7 [ 9 - ",
"= 9 ~ ; ~ h B # # ~ * k % % o p ] > > ' ~ . F 4 S   g > l h H 2 > = ; 3 g ; ^ 8 b k     8 , R 8 $.%.Q 6 = p % ' 8 &.^ _ : p n p ",
"- 6 s B # Q . ~ N q ~ 4 s r 9 _ q 6 { # # . j q d , f H = m 6 *.=.-.c D t u N > x { H s 6 ;.R 4 = 3 { s r p ( r ~ q E q 6 P c | ",
"] o   > h S D   V 8 s < 8 p c r | N 8 ; K j } >.g v ) ,.'.).!.~.{.].^./.(._.:.<., +   * [.8  .3 9 s j }.r _ ; : 6 8 ^ o ^ #.c r ",
"4 |.~ j d i g { q q 7 } : } | < ( ( s $ g >.E 8 > x * 1.2.3.4.5.5.5.4.6.7.8.9.0.a.* ~ # 8 m : ^ r # 6 F j = 3 g $ 8 n 8 }.8 #.= ",
"| G _ ;   K b./ % c c _ E } c.} | p j 3 $ p | n % l 6 d.e.f.g.5.h.5.g.i.h.j.k.l.m.n.b N s k ) o.4 q # K 4 ^ x ! 2 o.9 p E p.7 4 ",
"q 4 j , / f l ' 4 p.4 r n 5 5 p < : 6 F - < | p b q q.r.s.t.u.h.v.j.g.w.x.t.g.y.h.i.z.A.B.C.) 3 o 7 6 6 [.: 8 & 2 > % P } #.o - ",
"] = 3 # D.= 4 8 j ; }.8 p % | s 9 3 F > 4 q | p s E.F.G.H.t.I.v.x.u.t.t.t.x.y.J.J.h.i.i.K.L.M.s q o s 4 4 G b H h , l 6 n - } 8 ",
"j w * > f X 8 < , o.= * } < | } P N.$.O.P.Q.R.S.T.U.V.t.H.I.x.H.t.t.t.u.u.W.J.y.W.W.i.h.h.y.X.; R ^ s ' F x t B g B c.d p $ 9 % ",
"4 4 ; 7 * Y.Z.  K `.i B b.6 q 8 % 9 ;  +.+++@+#+$+t.t.t.I.%+H.t.t.t.t.t.I.y.i.j.j.w.w.v.J.W.&+*+>.C = ; 7 7 6 3 D M p.c } _ ^ < ",
"}.| =+r f * o.y 6 6 h . i h 6 4 ^ * : -+;+5.s.H.>+t.t.t.t.t.t.u.u.u.t.t.I.I.,+u.t.'+y.J.J.)+y.!+~+{+s F : 9 ; ]+# 3 4 3 ^ m 8 ^+",
"| p } c = ' S * ~ l t ^ >   * /+- t = (+_+f.t.>+t.%+t.t.t.t.t.t.t.%+t.t.H.H.t.u.j.h.y.J.J.J.h.h.:+<+m 8 8 _ = $.# g [.D ^ 8 }.^+",
"[+s s 8 * d * H p.; } q ~ { > ~ 6 ~ ^ }+5.,+H.>+t.t.t.t.>+t.t.t.u.%+t.H.H.t.t.u.t.,+,+|+'+W.)+1+2+3+#.} p 4 f 3 f $.>.- 4+8 5+> ",
"b ~ 6 ] h . & ~ { ' 8 | ' { ' s H ; c 6+s.7+H.7+t.t.t.t.>+t.t.t.t.t.>+H.t.t.t.t.t.t.u.t.t.t.,+I.8+9+6 E ( P   J $.$.s 5+9 j 3 x ",
". - 6 . / h S   & , ; ; ^ # 9 n - 4 ^ h.x.u.7+H.t.t.t.t.>+t.t.t.t.t.>+t.t.t.t.t.t.t.>+H.H.H.H.t.7+0+a+k m 8 ; O $ +.~ X * 3 2 ~ ",
"7 s H B K k # o.i H c.6 ] ~ b } >.s b+5.u.H.7+H.t.t.t.t.>+H.t.>+>+>+H.t.H.H.H.t.t.t.t.t.t.x.g.5.c+d+e+f+- j * $ H +.' g+, 6 6 q ",
" .  x H @.s ' 8 ~ ~ ; & { . s ( c h+5.v.t.t.7+H.t.H.t.t.>+>+t.t.t.>+H.t.>+>+t.t.t.t.t.t.t.%+x.g.c+J.i+j+k+l+m+c . w ~ g r 4 7 % ",
"4 >.~ s = f ; 8 P k ~ 2 w n+o+p+q+7+'+W.t.%+7+>+t.7+t.>+7+>+%+7+H.>+7+7+>+t.H.7+>+r+r+7+t.t.u.t.,+x.s+'+t+u+8 / { * - 7 8 1 o s ",
"  4 ; b o.$.N.s s : 3 2 v+w+x+g.f.u.7+s.t.t.7+>+t.%+y+z+7+>+t.7+H.%+A+x+7+s+c+)+B+r+>+>+7+u.u.t.t.u.C+D+E+> c.; 8 E 7 q - 4 * H ",
"g 2 / > ]+/ ^ c.q N 3 d F+G+s.5.h.u.u.7+7+%+7+r+%+H.H+I+J+K+y+L+M+N+O+P+Q+R+R+S+S+T+L+t.7+t.I.v.i.v.l.U+V+' 8 8 [ o q ' H b.6 6 ",
"d g   v 3 s ^ =+@ , 3 { W+X+v.y.h.,+u.7+7+>+z+Y+Z+`+J+ @ @ @ @I+.@ @ @ @+@R+R+S+S+@@#@L+t.t.H.j.T+J.c+$@%@H 8 p >.>.~ ; ~ = ^ , ",
"g B H I ; 9 7 E ' g ~ b &@*@y.y.g.7+t.t.D+=@-@I+ @ @ @ @ @ @ @ @ @ @ @.@;@>@R+R+>@@@,@'@>+t.t.,+J.J.J.)@!@> ~@c | 8 H ; ; r ~ t ",
"g Y.. > - 8 8 7 6 F @ # {@W.y.5.,+u.7+]@J+`+^@z+/@.@(@ @ @ @ @(@ @(@ @@@_@_@_@R+:@M+D+y+^@>+t.t.'+h.J.<@[@+.}@d c < = P s | b t ",
"v `.i ' | s ;   ; E q |@1@h.y.w.t.t.t.-@ @ @#@2@3@4@Z+(@(@(@(@(@(@(@5@6@_@_@_@y.I.)+7@3@P+t.>+t.I.i.h.8@9@f f C ( G c } q [ N ; ",
"w & g ' < ^ = v ^  .% 0@*@y.f.t.t.t.,+a@ @(@M+b@c@d@z+e@.@(@(@(@5@f@g@6@_@h@_@c+j.5.i@L+j@x.t.>+,+i.J.k@l@~ 3 5 % l } p [ | 8 F ",
"( q f & n m@B ..s |.n@o@h.f.%+t.t.t.L+p@ @(@q@C+C+=@Z+r@s@g@q@t@u@v@v@v@u@w@S+h@x@y@L+c+>@y@t.t.H.v.z@A@p p < p ; O - p 9 - H ' ",
"P %   ; ; f D g 4 1 } 3.j.t.t.>+t.,+D+s@(@(@p@P+-@s@(@B@5@t@C@D@D@D@D@D@D@D@E@F@g@G@6@;@>@H@H.t.H.w.I@J@p >.K@; o.6 ] E % = L@M@",
"c ~ ; P 3 F s d 7 P H N@z+q@L+>+%+t.L+f@(@(@(@B@(@O@P@O@O@q@u@Q@R@R@S@S@T@Q@u@K+O@O@O@f@x@U@t.t.>+u.V@W@% % V   ; > s _ X@Y@Z@`@",
"8   = R P  #}   = o.; .#A+O+=@%+A+%+%++#(@(@B@(@(@B@O@O@@#O@##$#%#&#r@r@q@*#g@B@P@P@P@P@g@=#t.t.r+y+-#;#4 q ; 4 8   j p.>#,#i@'#",
"6 v   )#| ; a q F ; r !#a@O+~#'@r@P+D+'#(@B@P@O@O@O@O@O@O@@#@#@#O@@#@#@#@#@#O@P@P@P@P@P@P@*#C+{#z+J+&#]#^#6 & b   N & /#(#_#:#{#",
"/ c.- 7 & 5 Y   X = <#,@ @O+(@a@[#g@g@}#O@(@O@P@P@P@O@O@O@O@O@@#@#O@@#@#@#O@P@P@P@P@P@P@P@=@M+|#+#(@+#1#2#3#' g . = 4#5#6#7#2@:#",
"+.j ' d / ^+q ^ g 8#9#O+O+O+(@P@5@(@B@B@P@O@O@P@P@P@P@P@P@O@O@0#O@@#@#@#@#P@P@P@P@P@P@P@P@'# @ @(@P@a@P+a#b#c#d#e#f#g#h#i#7#b@:#",
"M c.f $.. h ~ j#k#l# @O+O+(@ @ @ @ @ @(@P@O@O@P@P@P@P@P@P@O@O@@#@#0#@#@#P@P@P@P@P@P@P@P@P@P@ @P@(@P@a@H+-@m#n#o#p#q#r#i#7#7#b@{#",
"^+. O ]+c p 8 s#t# @ @ @ @ @(@O+ @ @ @ @ @P@P@P@P@P@P@P@P@P@P@P@O@O@O@O@P@P@P@P@P@P@P@P@P@P@P@P@P@(@g@#@a@4@u#v#w#r#i#i#7#7#x#+@",
". S X $ < p G y#I+(@ @ @ @ @ @ @(@(@ @ @(@P@P@P@P@P@P@P@P@P@P@P@P@O@O@P@P@P@P@P@P@P@P@P@P@P@P@P@P@(@f@z#(@r@A#w#r#r#i#i#7#B#C#D#",
"> $ ~ # 4 =+p E# @O+ @ @ @ @ @ @P@(@(@ @P@P@P@P@P@P@P@P@P@P@P@P@P@P@P@P@P@P@P@P@P@P@P@P@P@P@P@P@P@(@s@N+I+A+F#r#7#i#i#i#G#H#I#J#",
"  s % a c.^ c K# @O+(@(@P@(@(@ @(@(@ @ @P@P@P@P@P@P@P@P@P@P@P@P@P@P@P@P@P@P@P@P@P@P@P@P@ @ @P@P@P@P@e@z#P+z+L#M#G#i#i#i#N#I#O#P#",
"o E W 6   d = Q# @ @P@(@B@B@B@(@(@(@ @ @P@P@P@P@P@P@P@P@P@P@P@P@P@P@P@P@P@P@P@P@P@P@P@P@O+P@P@P@P@ @&#`+T+R#S#G#M#7#7#N#C#O#P#T#",
"% E 9 > + O U#V# @P@(@O@B@5@%#f@(@ @ @ @P@P@P@P@P@P@P@P@P@P@P@P@P@P@P@P@P@P@P@P@P@P@P@P@ @P@P@P@P@(@W#`+X#Y#i@7@G#G#c@C#O#J#Z#`#",
"o s { ' ] =  $(@ @(@(@O@O@'#$#O@P@ @(@ @ @P@P@P@P@P@P@P@P@P@P@P@P@P@P@P@P@P@P@P@P@P@P@P@ @P@P@P@P@5@^@N+F@f.i@3@F#h@O#.$+$`#@$#$",
"& o.~ | 9 t $$ @(@P@P@B@G@H+P@P@P@ @ @ @ @P@P@P@P@P@P@P@P@P@P@P@P@P@P@P@P@P@P@P@P@P@P@O+P@P@P@P@(@5@t@O+;@J.5.g.s.j@O#%$Z#&$*$4 ",
"> f 4 h d =$-$ @P@P@B@P@}#+#P@O@(@ @ @ @ @P@P@P@P@P@P@P@P@P@P@P@P@P@P@P@P@P@P@P@P@P@P@ @ @P@P@P@P@p@K+ @6@:@X#h.*@;$P#>$,$s % 3 ",
"f ; ~ H ' '$W#B@P@P@O@O@'#.@P@O@(@ @ @ @ @P@P@P@P@P@P@P@P@P@P@P@P@P@P@P@P@P@P@P@P@P@ @ @ @P@P@P@P@(@A+O+O+@@j@Y+$#`@)$!$P ^ %   ",
"X = ' g E ~${$f@P@P@P@B@P+P@P@O@(@ @ @ @ @ @P@P@P@P@P@P@P@P@P@P@P@P@P@P@P@P@P@P@P@P@ @P@ @P@P@P@P@##t@a@O+O+ @|#`@]$^$p @ k N l ",
"v t p ] j /$`#*#B@P@P@s@k.##O@B@P@ @ @ @ @O+ @P@P@P@P@P@P@P@P@P@P@P@P@P@P@P@P@P@P@P@ @P@ @ @P@P@ @%#*#K+`+J+q@($_$:$<$' 4 s 9 r ",
"h > p 7 #.8 [$}$##P@O@+#m#u@B@O@ @ @ @ @ @O+O+O+P@P@P@P@P@P@P@P@P@P@P@P@P@P@P@P@P@ @ @ @ @ @ @P@/@|$1$2$3$4$5$6$; o.] i * = 4 # ",
"4 - c ' $ s 7$8$9$P@O@H+0$a$K+s@(@ @ @ @O+b$O+b$O+ @P@P@P@P@P@P@P@P@P@P@P@P@P@P@ @ @ @P@ @ @ @.@c$d$e$9 r 4+c ; ^ g * S     g ~ ",
"' 9 s / 3 = ~ ^ f$g$B@A#`#h$i$j$k$ @ @ @O+O+O+O+O+b$b$O+ @ @ @P@ @ @ @ @ @ @ @ @ @.@ @ @ @ @ @z#l$m$^ 8 P G 4 l j d . h , . X ' ",
"- E 8 I * & ^ s 6 n$o$p$q$r$s$t$u$v$w$O+O+O+O+b$b$O+O+O+O+O+O+O+ @ @O+ @ @ @ @ @ @ @ @ @ @ @~#9.x$& & = c r r ^ @.D & @.K . w ' ",
"q s r = x D , 6 4 9 y$z$4 : 6 m $ A$B$C$O+O+b$O+b$O+b$b$O+O+O+O+O+ @ @ @ @ @O+ @ @ @ @ @ @N+W#D$y$k = E l B d ~   ~ K ; s # ~ ; ",
"c s ^ m 2 > ^ 9 4 E p n r o 7 _ < ^ E$F$I+O+O+O+O+b$O+O+O+O+ @O+ @O+ @ @O+ @ @ @ @ @ @ @=#4@G$8 o 8 8 8 s o.. @.* g   ; ; ' s k ",
"- ^ s * o.' p  .G } ( >._ r 8 8 9 = D.H$I$e@N+`+J+I+b$O+O+ @O+ @ @O+ @O+O+ @O+ @N+&#t@t@k.J$> 8 ^ s s o ' 7 ' t w B +./ , ; % ~ ",
"s % r j ; - - c | p _ c 4 ; = 9 * 3 F Z.K$L$x+M$M$t@#@O+O+O+O+ @ @ @O+ @ @O+ @p@M+R@D@S@N$; ^ 8 - % V ^ ~ 8 N.f X g d O 8 t ; c.",
"b.' s , }.^ ; s E r | - ^ O$; j $ > 4 c.b P$9.E@T@E@Q$R$q@S$T$U$V$W$X$Y$.@.@#@Z$`$`$|$|$r k 4 ; 8 % % :   ~ & g+d 8 o. %8 4 m H ",
"$.3   ^ ; H 4 } : s 7 ^  %6   : B v } q k .%+%@%#%$%0$%%&%*%=%-%;%>%,%'%)%!%~%{%]%^%/%(%- s ~ 4 # 7 ^ m ' b > D.# > 6 } = - E x ",
"_%f = s q 4 q q o p 8 t . A b.6 t X s { w = b , 4 ' :%r <$: s P } E <%p | q [%}%|%1%2%- - p.[.  % ^ = 8 W s > / 3%4%c.c 4 : s = ",
"5%6%8 o - H   ~ o _ 9 ' 6 6 c...l +.f 7%8%s N i # r ^ = 8 < 9 p n _ } >.| E 4 ; 8 E [.H o.' ^ B 7 = , q 9%% ~ 7 0%a%' ; 4 c.m j "};
