/* XPM */
static char * duck_3_xpm[] = {
"64 64 513 2",
"  	c #466C31",
". 	c #4E7933",
"+ 	c #4D792D",
"@ 	c #457125",
"# 	c #558134",
"$ 	c #456B2C",
"% 	c #4C7333",
"& 	c #467031",
"* 	c #4A6D32",
"= 	c #51763A",
"- 	c #517534",
"; 	c #4A732D",
"> 	c #496D2D",
", 	c #436B25",
"' 	c #3D691E",
") 	c #46712B",
"! 	c #4F793A",
"~ 	c #5E8941",
"{ 	c #446633",
"] 	c #5A833C",
"^ 	c #527B35",
"/ 	c #597E3C",
"( 	c #345D15",
"_ 	c #426E1F",
": 	c #517B2E",
"< 	c #56813A",
"[ 	c #578141",
"} 	c #547B3A",
"| 	c #496731",
"1 	c #4A672D",
"2 	c #3E6A29",
"3 	c #42662B",
"4 	c #4E7F24",
"5 	c #3A5E22",
"6 	c #416525",
"7 	c #496E25",
"8 	c #396317",
"9 	c #3E6924",
"0 	c #3D6324",
"a 	c #598436",
"b 	c #365C22",
"c 	c #4E7339",
"d 	c #476C38",
"e 	c #3E6431",
"f 	c #6A944C",
"g 	c #587638",
"h 	c #537541",
"i 	c #3D5E2B",
"j 	c #669245",
"k 	c #3E642A",
"l 	c #51762C",
"m 	c #4C6D3A",
"n 	c #5D8A3C",
"o 	c #62923E",
"p 	c #5B8937",
"q 	c #61863C",
"r 	c #496727",
"s 	c #3B631D",
"t 	c #4F812C",
"u 	c #53832E",
"v 	c #4A7426",
"w 	c #3F652A",
"x 	c #385D1E",
"y 	c #5A7F2B",
"z 	c #628B44",
"A 	c #5B8337",
"B 	c #4F7C2C",
"C 	c #577C22",
"D 	c #4A3927",
"E 	c #7CB21F",
"F 	c #71A41F",
"G 	c #6C9F19",
"H 	c #7CB512",
"I 	c #73A917",
"J 	c #4C7730",
"K 	c #597D42",
"L 	c #568027",
"M 	c #544B28",
"N 	c #5C3030",
"O 	c #7CAB1A",
"P 	c #89C50A",
"Q 	c #6B942A",
"R 	c #537738",
"S 	c #476D31",
"T 	c #628649",
"U 	c #506F33",
"V 	c #517738",
"W 	c #5A6829",
"X 	c #5D2C31",
"Y 	c #442225",
"Z 	c #54432B",
"` 	c #543B2A",
" .	c #632D33",
"..	c #6EA21B",
"+.	c #649627",
"@.	c #507E21",
"#.	c #4A722B",
"$.	c #486E31",
"%.	c #496F25",
"&.	c #457225",
"*.	c #618644",
"=.	c #4D7533",
"-.	c #50622A",
";.	c #6C2F36",
">.	c #703237",
",.	c #6D3136",
"'.	c #5A2A2E",
").	c #733339",
"!.	c #4A552A",
"~.	c #657527",
"{.	c #6C981B",
"].	c #71A519",
"^.	c #669720",
"/.	c #70A12E",
"(.	c #628D26",
"_.	c #72A12F",
":.	c #5A8829",
"<.	c #435F2E",
"[.	c #497330",
"}.	c #4F6129",
"|.	c #4C2328",
"1.	c #53262B",
"2.	c #291417",
"3.	c #200F13",
"4.	c #54332B",
"5.	c #7AAF1C",
"6.	c #578519",
"7.	c #567C41",
"8.	c #486E2B",
"9.	c #4F7728",
"0.	c #5B841E",
"a.	c #494027",
"b.	c #35191D",
"c.	c #1B0E12",
"d.	c #4A2226",
"e.	c #231215",
"f.	c #411E23",
"g.	c #79353C",
"h.	c #56292C",
"i.	c #7DB518",
"j.	c #5B8920",
"k.	c #5C8442",
"l.	c #416625",
"m.	c #467223",
"n.	c #588427",
"o.	c #64922F",
"p.	c #41502A",
"q.	c #698E1F",
"r.	c #545A27",
"s.	c #3C1D22",
"t.	c #6E3239",
"u.	c #76A420",
"v.	c #618B32",
"w.	c #33541B",
"x.	c #4F752C",
"y.	c #60881C",
"z.	c #80B713",
"A.	c #89C607",
"B.	c #56631B",
"C.	c #180C0F",
"D.	c #170D10",
"E.	c #1C1113",
"F.	c #7C3D43",
"G.	c #653234",
"H.	c #535C2C",
"I.	c #557C39",
"J.	c #4D7423",
"K.	c #7FB711",
"L.	c #35331F",
"M.	c #80B40E",
"N.	c #6E990E",
"O.	c #2B1419",
"P.	c #833B41",
"Q.	c #585D36",
"R.	c #6C9A31",
"S.	c #4B772A",
"T.	c #63941E",
"U.	c #6D9812",
"V.	c #150B0E",
"W.	c #6B8827",
"X.	c #81BA19",
"Y.	c #66971D",
"Z.	c #59882A",
"`.	c #598433",
" +	c #557B33",
".+	c #4B742D",
"++	c #355B1D",
"@+	c #4F782A",
"#+	c #638620",
"$+	c #39411C",
"%+	c #77A31B",
"&+	c #81B91A",
"*+	c #74A91C",
"=+	c #70A31D",
"-+	c #77AD1A",
";+	c #6FA124",
">+	c #669622",
",+	c #5A862F",
"'+	c #456C2C",
")+	c #75A154",
"!+	c #547E31",
"~+	c #68921A",
"{+	c #31161B",
"]+	c #382923",
"^+	c #63771B",
"/+	c #749B1B",
"(+	c #7EB014",
"_+	c #7AA820",
":+	c #81BA1A",
"<+	c #59842F",
"[+	c #638D37",
"}+	c #7BB116",
"|+	c #0F0A0C",
"1+	c #4B5A2C",
"2+	c #659527",
"3+	c #72A71E",
"4+	c #472B29",
"5+	c #709D20",
"6+	c #517730",
"7+	c #80B917",
"8+	c #79AA0F",
"9+	c #76A21F",
"0+	c #59871F",
"a+	c #6EA220",
"b+	c #7CAC13",
"c+	c #81BA16",
"d+	c #49702A",
"e+	c #567E39",
"f+	c #74A826",
"g+	c #574833",
"h+	c #322A1D",
"i+	c #89704F",
"j+	c #7A3A3E",
"k+	c #79B01A",
"l+	c #4B6F32",
"m+	c #618135",
"n+	c #5E8A36",
"o+	c #65871D",
"p+	c #BCB36B",
"q+	c #F5E57C",
"r+	c #DACD74",
"s+	c #9E9255",
"t+	c #261918",
"u+	c #625E49",
"v+	c #DFD175",
"w+	c #FDED84",
"x+	c #B5A866",
"y+	c #864748",
"z+	c #8E444B",
"A+	c #6D473C",
"B+	c #6E9E1C",
"C+	c #477131",
"D+	c #6B9E1B",
"E+	c #46461C",
"F+	c #968D55",
"G+	c #D6CA74",
"H+	c #D6C66F",
"I+	c #F4E582",
"J+	c #FDEB7C",
"K+	c #A76659",
"L+	c #92464D",
"M+	c #C8A569",
"N+	c #C4BA6C",
"O+	c #72A723",
"P+	c #557C3A",
"Q+	c #4B732B",
"R+	c #80B811",
"S+	c #2A211B",
"T+	c #797348",
"U+	c #E6D97B",
"V+	c #D1AE73",
"W+	c #A19757",
"X+	c #73A328",
"Y+	c #55822D",
"Z+	c #2C2B1B",
"`+	c #FDEE8A",
" @	c #964750",
".@	c #9B4B52",
"+@	c #EADC7D",
"@@	c #E5D575",
"#@	c #4D462B",
"$@	c #507C32",
"%@	c #659623",
"&@	c #FDF18C",
"*@	c #D9B877",
"=@	c #A04D56",
"-@	c #954A4F",
";@	c #B2AA70",
">@	c #527B31",
",@	c #79AC18",
"'@	c #FBEF91",
")@	c #F5EA8D",
"!@	c #EAE08B",
"~@	c #E7D885",
"{@	c #794943",
"]@	c #B68963",
"^@	c #4B4329",
"/@	c #517732",
"(@	c #5F8A28",
"_@	c #5C6829",
":@	c #3B3625",
"<@	c #A39B5D",
"[@	c #EADE83",
"}@	c #8B8453",
"|@	c #766839",
"1@	c #906F31",
"2@	c #A47B32",
"3@	c #82393E",
"4@	c #A15455",
"5@	c #90554D",
"6@	c #78A616",
"7@	c #5A832A",
"8@	c #2F5816",
"9@	c #3A601E",
"0@	c #51641E",
"a@	c #F3E889",
"b@	c #D5C876",
"c@	c #686439",
"d@	c #E3B038",
"e@	c #F9BD38",
"f@	c #B68F32",
"g@	c #F4E892",
"h@	c #626524",
"i@	c #67981C",
"j@	c #578126",
"k@	c #5C7812",
"l@	c #918856",
"m@	c #1E1813",
"n@	c #FDF294",
"o@	c #B58E32",
"p@	c #D9A835",
"q@	c #E1AD37",
"r@	c #6F6F32",
"s@	c #D5CD82",
"t@	c #514D2F",
"u@	c #4C6F31",
"v@	c #78AF1C",
"w@	c #7BA523",
"x@	c #7C775B",
"y@	c #DDD27D",
"z@	c #CEC577",
"A@	c #969166",
"B@	c #827B4A",
"C@	c #756E45",
"D@	c #87837D",
"E@	c #5C5853",
"F@	c #C6BB74",
"G@	c #668714",
"H@	c #557222",
"I@	c #44672A",
"J@	c #5F8748",
"K@	c #4A6931",
"L@	c #84C00E",
"M@	c #86BC13",
"N@	c #535A31",
"O@	c #ACA46A",
"P@	c #BEB672",
"Q@	c #FCF39A",
"R@	c #D2CECA",
"S@	c #C3C0BC",
"T@	c #7A7872",
"U@	c #888359",
"V@	c #5B5838",
"W@	c #729D13",
"X@	c #598432",
"Y@	c #675A37",
"Z@	c #B2AEA7",
"`@	c #EEEDE9",
" #	c #605D51",
".#	c #696643",
"+#	c #A69E62",
"@#	c #5C7B28",
"##	c #507339",
"$#	c #588333",
"%#	c #8AC312",
"&#	c #FCF4A6",
"*#	c #9C9992",
"=#	c #EEEBE5",
"-#	c #F2F1EC",
";#	c #939088",
">#	c #88844E",
",#	c #687040",
"'#	c #52773A",
")#	c #629139",
"!#	c #B0A55A",
"~#	c #E4D67C",
"{#	c #7D7F49",
"]#	c #4B6E32",
"^#	c #5D893E",
"/#	c #666B4A",
"(#	c #787467",
"_#	c #E9E6E1",
":#	c #F1EEEA",
"<#	c #507439",
"[#	c #648B49",
"}#	c #54802E",
"|#	c #E8E4DF",
"1#	c #C3B769",
"2#	c #4B6A2F",
"3#	c #547C2B",
"4#	c #F0ECE6",
"5#	c #D6D2CE",
"6#	c #495D2C",
"7#	c #628E2D",
"8#	c #E2DED9",
"9#	c #817E74",
"0#	c #EEE285",
"a#	c #505F31",
"b#	c #44692B",
"c#	c #648E2A",
"d#	c #7E804B",
"e#	c #57544A",
"f#	c #ABA261",
"g#	c #566735",
"h#	c #426824",
"i#	c #719F24",
"j#	c #6D6B66",
"k#	c #566836",
"l#	c #456A2B",
"m#	c #71A127",
"n#	c #4A5C2C",
"o#	c #66961D",
"p#	c #536A33",
"q#	c #557F27",
"r#	c #5D8C2E",
"s#	c #81A72F",
"t#	c #AAA456",
"u#	c #8E8E4B",
"v#	c #918B52",
"w#	c #4C702D",
"x#	c #61912C",
"y#	c #6B9847",
"z#	c #77AB23",
"A#	c #5B6638",
"B#	c #E1D995",
"C#	c #9D945C",
"D#	c #59723C",
"E#	c #649334",
"F#	c #719E49",
"G#	c #5E8C27",
"H#	c #A4A053",
"I#	c #796E46",
"J#	c #DCD183",
"K#	c #979857",
"L#	c #4E772C",
"M#	c #A5A663",
"N#	c #486D31",
"O#	c #9CB04D",
"P#	c #FCEA77",
"Q#	c #66702F",
"R#	c #537D35",
"S#	c #96B539",
"T#	c #5E8A27",
"U#	c #45721F",
"V#	c #A1BF3F",
"W#	c #4D6929",
"X#	c #517831",
"Y#	c #7E7A48",
"Z#	c #536B3B",
"`#	c #567A37",
" $	c #546533",
".$	c #4D762C",
"+$	c #54642B",
"@$	c #525C31",
"#$	c #4F782C",
"$$	c #61882C",
"%$	c #5A6929",
"&$	c #6C9F21",
"*$	c #578421",
"=$	c #78A61C",
"-$	c #443C1E",
";$	c #A98431",
">$	c #535029",
",$	c #63922E",
"'$	c #547C2A",
")$	c #C79A35",
"!$	c #AF8D32",
"~$	c #4A5524",
"{$	c #667837",
"]$	c #728045",
"^$	c #7B8347",
"/$	c #959755",
"($	c #9B9C56",
"_$	c #A1A25C",
":$	c #A9A85C",
"<$	c #B0AE61",
"[$	c #C4BE71",
"}$	c #DFD576",
"|$	c #D6D179",
"1$	c #ABBD53",
"2$	c #808645",
"3$	c #536821",
"4$	c #5D6724",
"5$	c #62702B",
"6$	c #606B29",
"7$	c #6A901E",
"8$	c #68972B",
"9$	c #72A217",
"0$	c #608920",
"a$	c #537A2F",
"b$	c #547D34",
"c$	c #496E2D",
"d$	c #4A6E32",
"e$	c #577D41",
"f$	c #406631",
"g$	c #406D29",
"h$	c #416E28",
"i$	c #497524",
"j$	c #557F34",
"k$	c #648E43",
"l$	c #47741E",
"m$	c #4D7433",
"n$	c #51801D",
"  . + @ # + $ % $ $ & * = - % $   $ ; + > , @ ' + ) + % ! . ~ . { % % > - % ] ^ / ( _ : < ; . ; [ } , } } | | 1 { 2 } % [ = 3 > ",
", ; 4 _ ^ % $ ) , ; , 5 = * 6 $ , $ , ; ^ 7 8 + @ ) ) 9 2 & < @ 0   & = 1 % / } ^ 7 : a ^ % . . % ^ . 3 / 3 3 =   b % = , 3 1 $ ",
", + + @ ^ . % - a 2 9 , * $ 1 $ $ , , + ; - ; ; + # . 9 2 c < ) $ ! ! = 6 d ! e $ / a ^ + % ; # + [ < ; f g 3 h { i ,   , * , 6 ",
"+ ^ + % / = ^ ] j @ ) c $ k 1 6 $ $ ; ^ , l l ; # # ^ @ $ c / ; ) & % $ $ * m   $ ] } > ; $ ; ^ 2 n o p q } 3 h i | * , 3 $ 0 & ",
"+ : ; ; & % . < # + & $ * 6 3 0 r ^ @ . ; 3 s # ~ + ^ % & & } $ # ; ; r } r 3 d & ] ^ 5 % $ l } . t n u + + $ 3 3 | > 3 k 2 0 $ ",
"v : ; $ , d % . $ ) }   $ * % 9 $ ^ + % $ , 9 . ] > . . & $ & $ p + # > ] = , > ^ # ; _ } > / } ! 2 ^ ^ ^ ^ } 6 { c 2 s 3 $ 0 ; ",
"+ + @ ; * % & % $ 2 } c , ; ] ; > ^ . ) 3 $ > ;   $ % $ > k 0 $ u @ p + / } c % + } % > = * } - ) 3 ! % ] ; ^ - w = > 6 > 6 6 ] ",
"# 2 ' ^ } & 2 c % $     % ) . n ; } @ 9 ! $ x + 0 % / 9 c   3 ^ p ( ^ < % , k } } n } g *   d , % } 0 * / - ; / { i $ ; $ 6 ^ y ",
"n ) 3 = / $ $ . c 0 & ; % ^ > = % z ; % & k | 3 % . z } s A g l 9 s B $ $ b | c ; # n y v q *   & 1 6 - = * } d 0 . , l 6 - $ } ",
"u ; ; 1 * , $ & 2 0 [ ^ ~ > % g 1 } ; % &   3 3 2 ; q % C D E F G H I J [ | | , v ^ ~ . a z = 3 $ $ g = * * $ 0 2 9 - ; - = $ & ",
"u : - > > , ) & m * K % / 6 > > { 3 , ; % > $ * ) % % L M N O P P P P Q R S $ 0 ) ) < ^ n ; % % $   T * 6 > & = + s & * * 3 3 % ",
"l ; % & =   c ! 3 $ $ = ; % g - m U , < < 6 1 U & . V W X Y Z Z ` Z `  .` ..+.@.#.$.w K %.&.; ] %   K 5 5 $ & ! ) + $ | | 3   % ",
"$ 3     } . # ^ 5 $ $ g 6 g *.g d * > q < 6 1 3 & =.-.X ;.;.;.>.,.'.).;.D !.Z M ~.{.].^./.(._.:.  k   0 * = % ) + z $ { m K 3 6 ",
"$ | d $ } a # ) = ^ c > 6 1 = 3 <.6 g ^ ; * $ 3 [.}. .|.'.'.).;.1. .1.2.3.).).).).;.4.Z ` 4.5.6.0 k $ 3 } } } c % } & k | h 5 $ ",
"d | * & ^ . . & 7./ % 6 * 3 {   * $ / % * 8.9.0.a.X 1.b.c.|.>.d.b.e.c.c.f.g.g.>.h.;.).).;.~.i.j.6 % % | > 3 $   * , c & $ , 0 = ",
"> 6 6 % ^ ; . 7.& ] } c k.  k [ l.m.n.o.p.q.r.X  .2.2.c.c.1.s.c.3.c.c.3.t.g.;.h. .1.,.).N ~.u.v.; = % 3 1 * 3 3 k & c / , > c 3 ",
"= x w.c > , ^ / + ~ t u j ! d x.y.z.A.B. .h.;.1.C.D.c.E.s.e.c.3.c.3.c.s.F.;.s.s.2. .g.g.).t.G.H.I.% $ + / 1     { $ > l l g > 3 ",
"6 x $ $ % ; z ^ % p n # ! . J.K.L.M.N.'.>.;.d.C.C.c.c.D.E.c.c.c.c.c.c.f.s.c.c.O. .g.g.P.F.).F.Q.R.S.- / ] > 3 c k 0 ; q 6 - &   ",
"5 x 6 0 % ^ < ; & , a $   $ T.U.'.M D ;.>.h.C.V.c.c.c.c.D.c.c.3.3.c.c.c.V.c.c.s.f.1.f.X X ;.X W.X.Y.Z.`. +.+0 , $ , % < r ; $   ",
"++% $ 6 % - ; ^ j , 3 - 0 c @+#+ .X  .>.;.2.C.V.c.E.c.c.V.c.c.c.c.3.c.C.c.c.3.c.c.3.c.c.c.3.2.O.$+%+&+*+=+-+;+>+,+'+; ; ] } ; d ",
"k } % $ } z / ; )+, k $ * * !+~+ .1.,.,.d.C.C.C.c.c.c.c.V.c.c.c.c.c.D.D.c.c.c.c.3.c.C.V.D.D.D.e.{+]+Z ^+/+(+_+:+<+> ; v ] / ) * ",
"= , ^ , + ] z % } v l { m > [+}+D d.).,.2.3.C.C.c.c.c.c.|+c.c.c.c.c.D.c.c.c.c.c.V.V.c.c.c.s.;.).F.).).).G.N 1+2+= $ + ] ; ; ) 3 ",
") $ ] ) 2 @ / < $ n g / i = 3+A.^+{+).;.E.C.C.C.c.c.c.c.V.D.c.c.c.V.D.c.C.C.V.c.c.c.3.c.c.e.2.f.1. . .X 1.4+5+, % , ; } s + % % ",
"$ *.] ) . < ) % + + - _ - 6+7+8+D C.;. .c.E.C.c.c.C.c.c.V.C.C.c.c.|+c.D.V.V.c.c.c.c.3.c.c.e.c.c.c.c.c.c.L.9+0+l ] % , , 9 % & * ",
"v ] ) $ ^ g ; v r > $ *   a+b+4.1.C.Y X c.c.C.C.c.c.C.D.V.C.C.E.V.|+V.V.V.C.D.C.|+|+|+C.c.3.e.e.O.b.!.%+P c+d+T *.- ) , , ; + ; ",
"+ / $ $ - l + a ^ > $ > e+f+D 1.'.3.3.d.c.c.c.V.C.E.g+h+c.V.C.C.D.e.i+D C.b.t.F.f.V.V.V.c.c.2.;.j+g.G.~.P k+l+} * 6 9 $ ) ; ; ; ",
". / > $ > l l m+} , $ > n+o+d.;.>.e.C.C.C.c.C.V.E.D.p+q+r+s+g+t+u+v+w+x+y+z+z+z+z+A+t+c.c.V.D.{+g.g.g.;.W.B+C+3 | 3 3 $ % } % % ",
". } $ $ 1 1 7 - + + % '+D+E+ .).>.2.C.E.c.V.h+F+G+H+G+w+w+w+w+I+w+J+J+I+K+L+L+L+L+M+N+e.c.c.c.V.|.).g.).g+O+P+3 | c { k   % c   ",
"u ] % > * g U > v < ^ Q+R+4.).).1.C.c.c.S+T+U+w+w+w+w+w+w+w+w+w+w+w+w+w+K+L+L+L+L+V+w+W+D.c.c.c.E.X >.).N X+P+{   % |   d % * = ",
"p j ^ + = } c ; + < ; Y+8+X ).>.2.C.c.Z+r+w+w+w+w+w+`+w+w+w+w+`+w+w+w+V+ @L+ @L+.@+@w+@@#@D.c.c.E.h.g.).,.W.$@  c > % g g $ $ = ",
"# ~ . $ > ; $ ; : ^ 1 %@^+,.).f.c.c.c.s+w+w+w+w+w+w+w+w+`+w+`+w+`+w+&@*@=@.@.@ @-@@@w+M+;@c.V.c.c.O.).>.,.g+>@} ; , > U * 3 3 * ",
") ~ % ) % + v a l l ; ,@4.).'.c.c.c.e.U+w+w+I+r+q+H+&@`+`+'@`+'@)@!@~@V+.@=@=@.@z+h+M {@]@e.c.V.c.c.X >.Y ^@/@^ & > * | <.* = d ",
"c 0 < + @ + ; % | _ (@_@t.X 3.D.c.c.t+I+w+w+~@:@Z+<@`+`+&@[@}@|@1@2@2@2@1@3@y+4@4@5@F. @ @4+c.c.D.c.O.;.N 6@7@c % g *   = { | { ",
"  $ & , + , 8@/ d 9@0@ .|.c.c.V.c.E.S+a@`+&@w+[@b@'@`+`+)@c@d@e@e@e@e@e@e@e@f@5@~@g@*@K+ @G.c.c.c.c.s. .,.h@i@* * $ 1 3 = 3 * 1 ",
"  3 ; / + , 0 c ^ j@b+k@Z+l@m@D.E.c.t+[@&@`+`+'@'@'@n@n@&@l@1@o@p@p@d@q@p@o@r@s+g@s@g@!@=@{@c.c.D.D.|+O.1.t@u@* % & * c $ 1 c = ",
"& , . ~ $ $ }   & v@P w@T+q+c@E.x@E.c.y@`+'@'@'@'@'@n@n@n@n@!@z@A@B@C@C@}@;@~@w+x@D@E@!@~@F@c.c.|+g+:@G@H@I@= = $ & } J@c * * > ",
"+ % % ; ;   % & K@L@M@N@q+w+U+:@C@O@S+P@'@`+n@`+n@n@n@n@n@Q@Q@Q@n@Q@n@Q@n@n@n@A@R@S@T@U@n@x+E.V@h+y@C@W@X@$ = $ % > / > - 3 = 6 ",
"^ < ; , } $   c J A.W.x+J+J+`+U+Y@!@~@y@n@&@&@n@&@&@`+n@n@n@n@Q@n@Q@Q@n@n@Q@A@Z@`@`@T@ #)@.#Y@+@b@w++#@###= $ $ } % % s > % - $ ",
"] < ^ % } c ) ! $#%#Y@q+w+w+w+w+`+`+'@'@&@&@n@&@&@&@&@&@n@n@n@&#Q@Q@&#Q@Q@;@*#=#-#-#;# #)@P@a@w+w+w+>#,#'#= $ & ; . ; > } [ 6 1 ",
"n ~ ^ 1 & % ) a )#w@!#w+w+w+w+w+w+w+w+w+&@n@n@&@&@&@&@&@&@n@n@Q@Q@&#Q@Q@F@T@=#`@-#`@*#u+&@&@`+`+w+~#!#{#]#| *   % / + _ } % , / ",
"# z % k c 1 ^ + ^#/#q+w+w+w+w+w+w+w+w+w+w+&@&@&@&@&@&@&@&@&@&@&@&@n@n@z@(#_#`@`@:#`@*#U@&@&@&@&@&@x+@@x+<#3 c % ; } * 3 > c & ^ ",
"^ [#} $ * 0 l g }#/#J+w+w+w+w+`+`+w+w+w+w+n@&@&@&@&@&@&@&@&@&@&@&@n@y@T@|#`@`@`@:#`@D@b@&@&@&@`+`+p+J+1#2#5 $ % $ ! % * g c ! ; ",
". / % % - > ^ ^ 3#T+J+J+w+&@&@n@n@~@w+w+w+&@&@&@&@&@&@&@&@&@&@&@y@U@D@_#`@`@`@4#:#5#x@w+`+&@&@n@U+z@w+z@6#3 & = $ c 2 * * * ^ , ",
"& $ , & : - - ; 7#T+w+w+&@&@&@n@g@l@w+w+w+&@&@&@&@&@&@&@&@&@w++@A+]+8#`@`@`@`@4#=#9#y@`+w+`+&@&@>#0#w+P@a#b#= % c $ 2 % > > % $ ",
", $ ; - 7 > ; - c#d#`+`+`+`+`+n@P@G+w+w+&@&@&@&@&@&@&@&@&@&@N+G.N e#R@`@`@`@:#=#;#N+w+w+w+&@`+y@>#w+w+f#g#h#= $ % , c / = * $ > ",
"% & ^ % $ > 7 = i#T+w+w+`+&@n@n@+#w+w+w+w+&@&@&@&@&@&@&@&@&@I+A+G.E@j#_#`@`@R@(#N+w+n@w+w+&@`+}@y@w+w+d#k#l#/ . ^ 0 } g % % 3 > ",
"] = ^ ; > g > = m#/#I+w+`+&@n@n@f#w+w+w+w+&@&@&@&@&@&@&@&@&@w+5@F.Y E@e#D@(#l@U+J+&@w+&@w+&@~@T+`+&@a@V@n#l+7.< a . ^ - > = = - ",
"^ + %   * / $ l o#r@+@w+&@&@&@n@f#w+w+w+w+&@&@&@&@&@&@&@&@w+w+M+F.).X |.f.N+w+J+w+&@`+w+`+w+<@y@`+&@U+C@p#& % . + + ; $ 6 d g q#",
"; } : @ # % % / r#s#t#)@&@&@&@'@x+w+w+w+w+&@&@&@&@&@&@&@&@w+w+~@P.P.3@ .g+g@w+w+&@&@w+&@w+w+u#)@`+w+f#v#w#g w.3 c $ / $ 0 ] > x#",
"+ % r < ; ; ) < y#z#A#0#&@&@n@'@F+w+w+w+w+w+&@&@&@&@w+&@&@w+w+[@P.g.;.g+B#Q@`+n@&@&@w+w+w+w+p+a@`+!@C#D#= % 0 6 ^ 9 $ > * ^ + E#",
"% ; ; # , ) ^ + F#^ G#H#)@&@&@`+F+w+w+w+w+w+w+&@&@&@&@&@&@w+w+r+ .|.I#[@w+n@`+`+w+&@w+&@w+&@v+J#)@U@K#% % % ^ ^ ; , s $ + . / ^ ",
"$ $ & . % + ] ; ^ # . L#M#n@n@'@<@w+w+w+w+J+J+J+w+w+w+w+w+w+w+H+Y@N+w+&@w+&@&@`+&@w+w+&@w+w+w+G+F+u+N#% 5 % ] < , % s ; > ; ^ ) ",
". & $ < < ^ # % & $ %   l+O#&@n@F+w+w+w+w+J+J+P#J+J+P#P#J+w+w+w+w+`+w+&@&@w+&@&@`+w+w+w+w+w+`+w+t#Q#'#% 3 % z a c ! 2 } , ) ; $ ",
"^ % , . ~ ^ n ^ !   { { * R#S#s@F+w+w+w+w+P#J+J+P#J+P#P#J+J+w+w+w+w+`+w+w+w+w+w+w+w+&@w+w+w+w+a@c@T#/ & % % ] ^ % } + . 9 . < . ",
") , $ $ k.^ f # ! j , { h , U#V#w+w+w+w+J+J+J+P#J+P#P#J+J+w+w+w+w+w+w+w+w+w+w+w+w+w+w+w+w+w+w+*@W#; > , > ; = & ) < ^ + , # f . ",
". ; 9 < . ) ] . n p a e = r ^ X#Y#q+J+J+J+J+J+J+P#J+J+J+J+J+J+J+J+w+w+w+w+w+w+w+w+w+w+w+w+w++@Z#0 . > ; % } $ % ^ . + u + + j , ",
"> % ^ + = } $ & < = d 3 = 6 ^ : `#|@U+J+J+J+J+P#J+P#P#J+J+J+J+J+w+w+w+w+w+w+w+J+w+w+w+w+w+~# $$ b . . < + [ J@2 ^ } . ! & , / $ ",
"$ & . < / * $ ) ; > 1 3 3 3 / n } .$+$!#q+J+J+P#P#P#P#J+J+J+w+J+w+J+w+w+J+w+w+w+w+J+w+w+F@@$#$, 2 . . ) / < < @ & ) , r % & & $ ",
"  % s + ^ r . ; - } > c 1 c & % $ > % $$%$W+@@H+r+q+J+J+J+w+J+w+w+J+w+J+J+w+I+w+~#B@|@|@!.&$y + 3 . . $ % * $ + > $ $ $ *.K > > ",
"{ } ) ) 7 ; ] a $ ; 3 c * * $ 6 c . % $ *$=$-$;$;$|@1#J+J+J+J+w+w+w+w+J+w+J+w+I+c@p@e@d@>$,$~ # , ) . $   $ 9 ^ % ^ % % *./ > % ",
"| & ) ; l / / ; @ $ 6 > , 3 3 % = $ , 9 + '$%$o@)$!$~${$]$^$/$($_$:$<$[$}$|$1$2$3$4$5$6$7$$#] % , $ % ) | c ; ^ } / % + > > > = ",
"c 2 @ ; ^ / v , ! ) $ $ * $ * c $ $ k $ ^ + 8$9$0$a$b$c$) ; . , 0 1 > d$e$f$g$h$i$j$k$S.l$m$& & 3 , } $ = $ % ^ c ^ % ^ > 6 1 1 ",
"c ; < ^ ; - % ! c $ 6 $ ^ % ^ % $ 7.% % = ; - n$) % % , ) . / ; * > > % } k 2 & ) ; z ; ; ; $ = $ & . , } 6 $ c ) c ^ / % } > $ ",
"% v + @ $ / < & . . + % . . / } k } $ ^ ; ' ; $ ; . % ; / } } ^ % % + - } ++> *.% 8@< ^ ] % + % $ . 9 @ [ % $ & . % ^ % ^ [#  | "};
