/* XPM */
static char * duck_1_xpm[] = {
"64 64 517 2",
"  	c #456B2B",
". 	c #446C1E",
"+ 	c #4B7325",
"@ 	c #548126",
"# 	c #527B2D",
"$ 	c #466B32",
"% 	c #4C7332",
"& 	c #4B732C",
"* 	c #4E792C",
"= 	c #537B34",
"- 	c #496E24",
"; 	c #496E2C",
"> 	c #517634",
", 	c #3E642A",
"' 	c #41661D",
") 	c #436B25",
"! 	c #3C641D",
"~ 	c #467125",
"{ 	c #3F6924",
"] 	c #568134",
"^ 	c #4E7932",
"/ 	c #47712B",
"( 	c #5F8942",
"_ 	c #4E743A",
": 	c #597E34",
"< 	c #56803A",
"[ 	c #335A15",
"} 	c #5A8235",
"| 	c #557C3A",
"1 	c #467030",
"2 	c #5C8341",
"3 	c #52763A",
"4 	c #436532",
"5 	c #42662B",
"6 	c #4B6E39",
"7 	c #55812D",
"8 	c #3F692A",
"9 	c #37601D",
"0 	c #4A6E32",
"a 	c #5B833B",
"b 	c #3B5E24",
"c 	c #506F33",
"d 	c #3E691D",
"e 	c #638B3D",
"f 	c #4D7925",
"g 	c #679146",
"h 	c #5D893B",
"i 	c #395E1C",
"j 	c #3D6424",
"k 	c #416625",
"l 	c #51762D",
"m 	c #4F793A",
"n 	c #5A892B",
"o 	c #486E1F",
"p 	c #597E3B",
"q 	c #607F43",
"r 	c #3B5F28",
"s 	c #4F802F",
"t 	c #355C1C",
"u 	c #3C5D30",
"v 	c #587F2E",
"w 	c #366021",
"x 	c #416815",
"y 	c #4A731E",
"z 	c #60903A",
"A 	c #496F2C",
"B 	c #6A8A3F",
"C 	c #629036",
"D 	c #578221",
"E 	c #6EA022",
"F 	c #689324",
"G 	c #506F26",
"H 	c #639223",
"I 	c #638E37",
"J 	c #4E7631",
"K 	c #507739",
"L 	c #4B762A",
"M 	c #618642",
"N 	c #7AB219",
"O 	c #89C508",
"P 	c #545D1A",
"Q 	c #472F26",
"R 	c #84BC0D",
"S 	c #84C011",
"T 	c #7BB413",
"U 	c #65961C",
"V 	c #679627",
"W 	c #5F8727",
"X 	c #485422",
"Y 	c #6FA321",
"Z 	c #4A7328",
"` 	c #3B6414",
" .	c #689A22",
"..	c #6A9C26",
"+.	c #628A43",
"@.	c #5D8A29",
"#.	c #84BF12",
"$.	c #729A17",
"%.	c #552A2D",
"&.	c #4E2529",
"*.	c #5A6A1B",
"=.	c #504C1E",
"-.	c #4E4E1F",
";.	c #4C4225",
">.	c #613632",
",.	c #523329",
"'.	c #85BD0C",
").	c #7FB40C",
"!.	c #6C9C1D",
"~.	c #6B9D1A",
"{.	c #6A9D15",
"].	c #85C012",
"^.	c #89C607",
"/.	c #7AB21A",
"(.	c #598328",
"_.	c #587A24",
":.	c #466D24",
"<.	c #75A922",
"[.	c #7FB111",
"}.	c #6A2E35",
"|.	c #5E2C31",
"1.	c #6D3136",
"2.	c #5B2B2E",
"3.	c #703137",
"4.	c #683135",
"5.	c #2C231B",
"6.	c #4A3827",
"7.	c #504B1E",
"8.	c #62791A",
"9.	c #59691B",
"0.	c #484C2B",
"a.	c #5D872F",
"b.	c #61863A",
"c.	c #5A7E41",
"d.	c #4C742A",
"e.	c #689A1F",
"f.	c #7AAA18",
"g.	c #4D3C24",
"h.	c #59272D",
"i.	c #53262A",
"j.	c #632D32",
"k.	c #291317",
"l.	c #200F14",
"m.	c #743339",
"n.	c #4C3F24",
"o.	c #80B810",
"p.	c #7EB128",
"q.	c #68951F",
"r.	c #3D661B",
"s.	c #5E8935",
"t.	c #4C742C",
"u.	c #598428",
"v.	c #6DA116",
"w.	c #6D951A",
"x.	c #431F24",
"y.	c #32161B",
"z.	c #35191D",
"A.	c #231115",
"B.	c #1B0E12",
"C.	c #79353C",
"D.	c #81B60D",
"E.	c #84BB13",
"F.	c #82BB0D",
"G.	c #5C8825",
"H.	c #59832D",
"I.	c #6D9C35",
"J.	c #659622",
"K.	c #5A8619",
"L.	c #57831A",
"M.	c #659137",
"N.	c #495731",
"O.	c #5F8018",
"P.	c #525624",
"Q.	c #38191E",
"R.	c #49531B",
"S.	c #7BB11A",
"T.	c #547839",
"U.	c #6A9345",
"V.	c #74A926",
"W.	c #74A51B",
"X.	c #7CB319",
"Y.	c #5A6D21",
"Z.	c #180C0F",
"`.	c #2B1419",
" +	c #79A616",
".+	c #6D9F25",
"++	c #679527",
"@+	c #3B3323",
"#+	c #78A90D",
"$+	c #4B2327",
"%+	c #140B0E",
"&+	c #462325",
"*+	c #65942D",
"=+	c #5C8620",
"-+	c #59302D",
";+	c #2B2316",
">+	c #56681A",
",+	c #84B615",
"'+	c #4F763A",
")+	c #547725",
"!+	c #61862B",
"~+	c #613A31",
"{+	c #4B4727",
"]+	c #5B7416",
"^+	c #4E6B25",
"/+	c #52772C",
"(+	c #6D954F",
"_+	c #68942A",
":+	c #5A392E",
"<+	c #170D10",
"[+	c #3C1C21",
"}+	c #4B592C",
"|+	c #688C42",
"1+	c #618435",
"2+	c #72A51D",
"3+	c #4B4A27",
"4+	c #1D1213",
"5+	c #372820",
"6+	c #638A35",
"7+	c #517931",
"8+	c #79AF23",
"9+	c #6E9315",
"0+	c #221B15",
"a+	c #567530",
"b+	c #649249",
"c+	c #598528",
"d+	c #71A01F",
"e+	c #63951C",
"f+	c #5E8A2B",
"g+	c #51482B",
"h+	c #0D0909",
"i+	c #6A9A1B",
"j+	c #598533",
"k+	c #4F632D",
"l+	c #645B3B",
"m+	c #867C4B",
"n+	c #5A5934",
"o+	c #74393F",
"p+	c #8A454A",
"q+	c #5C6B23",
"r+	c #466E25",
"s+	c #4A7524",
"t+	c #658D37",
"u+	c #4B452A",
"v+	c #A69B5B",
"w+	c #FDED84",
"x+	c #EBDD7C",
"y+	c #B5AC67",
"z+	c #756638",
"A+	c #746D42",
"B+	c #E6D87A",
"C+	c #FCEB7C",
"D+	c #CBBD6C",
"E+	c #92464D",
"F+	c #7D4542",
"G+	c #382A24",
"H+	c #669627",
"I+	c #486F2A",
"J+	c #699A22",
"K+	c #4E6124",
"L+	c #DBCD75",
"M+	c #AC715B",
"N+	c #C69A6A",
"O+	c #688917",
"P+	c #61893D",
"Q+	c #70A419",
"R+	c #87C10A",
"S+	c #8D844E",
"T+	c #94484E",
"U+	c #C0B46B",
"V+	c #82BB1A",
"W+	c #4D7231",
"X+	c #4F782B",
"Y+	c #D2AE71",
"Z+	c #9C4B52",
"`+	c #974850",
" @	c #8A6C4E",
".@	c #797545",
"+@	c #AE875D",
"@@	c #5A832A",
"#@	c #547D30",
"$@	c #938B55",
"%@	c #CFC475",
"&@	c #FDEE8B",
"*@	c #E6CA7E",
"=@	c #534F4D",
"-@	c #5C4A39",
";@	c #DACD7B",
">@	c #4B6214",
",@	c #588022",
"'@	c #547E29",
")@	c #533728",
"!@	c #323132",
"~@	c #534D34",
"{@	c #F6EA8E",
"]@	c #EBE188",
"^@	c #E3D883",
"/@	c #D4CA77",
"(@	c #5B3632",
"_@	c #B78964",
":@	c #5E8A30",
"<@	c #5F8834",
"[@	c #E7DA83",
"}@	c #F4E984",
"|@	c #8C8553",
"1@	c #826A33",
"2@	c #977731",
"3@	c #AB8534",
"4@	c #B68A33",
"5@	c #A47C2E",
"6@	c #845A34",
"7@	c #A25455",
"8@	c #9C5B54",
"9@	c #5A8431",
"0@	c #496724",
"a@	c #F4E68A",
"b@	c #FBEF92",
"c@	c #6B6339",
"d@	c #E6B139",
"e@	c #FBBE37",
"f@	c #D7A636",
"g@	c #695C39",
"h@	c #5A7F32",
"i@	c #649128",
"j@	c #353920",
"k@	c #989258",
"l@	c #1F1A18",
"m@	c #DED37D",
"n@	c #FDF294",
"o@	c #ADA56A",
"p@	c #9B7C2E",
"q@	c #BD9232",
"r@	c #CFA030",
"s@	c #C29532",
"t@	c #6E562D",
"u@	c #978E5A",
"v@	c #FDF08D",
"w@	c #524B2D",
"x@	c #72A524",
"y@	c #7DA624",
"z@	c #847D55",
"A@	c #C6B973",
"B@	c #F7ED95",
"C@	c #D6CE85",
"D@	c #B9B171",
"E@	c #A49C65",
"F@	c #504B28",
"G@	c #64880D",
"H@	c #4E752B",
"I@	c #7EB21B",
"J@	c #545A2E",
"K@	c #F3E583",
"L@	c #CCC37A",
"M@	c #A49B5D",
"N@	c #FCF39A",
"O@	c #5D6730",
"P@	c #6D9F23",
"Q@	c #5D8934",
"R@	c #779729",
"S@	c #DCD081",
"T@	c #DDD076",
"U@	c #BCB468",
"V@	c #637925",
"W@	c #689928",
"X@	c #578333",
"Y@	c #74AB1F",
"Z@	c #F5E57C",
"`@	c #D6C66D",
" #	c #577F21",
".#	c #689934",
"+#	c #7DA922",
"@#	c #FBF4AC",
"##	c #FCF4A4",
"$#	c #C4BA6C",
"%#	c #EFE07D",
"&#	c #526927",
"*#	c #5A8338",
"=#	c #79B024",
"-#	c #688325",
";#	c #77715C",
">#	c #686558",
",#	c #8A8A50",
"'#	c #4B7024",
")#	c #5E8632",
"!#	c #83BD0E",
"~#	c #716B57",
"{#	c #89867D",
"]#	c #D6D3CE",
"^#	c #EBE7E2",
"/#	c #7A7873",
"(#	c #69654C",
"_#	c #4B6F2B",
":#	c #456C2B",
"<#	c #78B015",
"[#	c #807B73",
"}#	c #C6C2BC",
"|#	c #F0ECE7",
"1#	c #F3F2EE",
"2#	c #EFEBE6",
"3#	c #726D64",
"4#	c #5D5F36",
"5#	c #5F8A35",
"6#	c #B0ADA7",
"7#	c #F0EDE9",
"8#	c #EEEDE9",
"9#	c #D7D4CE",
"0#	c #FAF084",
"a#	c #628A30",
"b#	c #466C2B",
"c#	c #485821",
"d#	c #463737",
"e#	c #908D88",
"f#	c #615E56",
"g#	c #658125",
"h#	c #507931",
"i#	c #4D6E13",
"j#	c #5B682F",
"k#	c #5A882E",
"l#	c #527C22",
"m#	c #928C57",
"n#	c #82393F",
"o#	c #586529",
"p#	c #659533",
"q#	c #4F7923",
"r#	c #5C6930",
"s#	c #823940",
"t#	c #C2BFBA",
"u#	c #E1DFDA",
"v#	c #A6A39E",
"w#	c #5D8B2D",
"x#	c #315611",
"y#	c #416B24",
"z#	c #76A41B",
"A#	c #31231F",
"B#	c #65712C",
"C#	c #6A9C20",
"D#	c #FCEA77",
"E#	c #F3E686",
"F#	c #8D8B51",
"G#	c #547626",
"H#	c #7AB017",
"I#	c #7D923B",
"J#	c #F3EBA2",
"K#	c #3E4622",
"L#	c #7AB01C",
"M#	c #56762A",
"N#	c #4D6E31",
"O#	c #557A39",
"P#	c #6A9732",
"Q#	c #6F743F",
"R#	c #597D37",
"S#	c #4B702C",
"T#	c #64783E",
"U#	c #CEC674",
"V#	c #4C6B2B",
"W#	c #57712B",
"X#	c #C8C368",
"Y#	c #727C40",
"Z#	c #658D48",
"`#	c #365814",
" $	c #B4B35E",
".$	c #BDB86B",
"+$	c #4F702B",
"@$	c #4E702E",
"#$	c #E0D56E",
"$$	c #566634",
"%$	c #537E29",
"&$	c #376115",
"*$	c #70813C",
"=$	c #628D22",
"-$	c #7A8344",
";$	c #516530",
">$	c #4E7924",
",$	c #48722B",
"'$	c #648D3B",
")$	c #868047",
"!$	c #486126",
"~$	c #4D752C",
"{$	c #4C7824",
"]$	c #77A61F",
"^$	c #45471D",
"/$	c #F9BC38",
"($	c #CDA435",
"_$	c #47702B",
":$	c #30550F",
"<$	c #577D37",
"[$	c #8A7E30",
"}$	c #AAA662",
"|$	c #C0BA69",
"1$	c #CDC674",
"2$	c #D7D175",
"3$	c #D7D074",
"4$	c #A8A65E",
"5$	c #7D8540",
"6$	c #628230",
"7$	c #4E6A1C",
"8$	c #59752B",
"9$	c #5E8535",
"0$	c #456E24",
"a$	c #517930",
"b$	c #608931",
"c$	c #527B28",
"d$	c #57812F",
"e$	c #547D29",
"f$	c #527A29",
"g$	c #4E7529",
"h$	c #52792A",
"i$	c #50772B",
"j$	c #4F752B",
"k$	c #598139",
"l$	c #4B7131",
"m$	c #426D29",
"n$	c #578234",
"o$	c #4F7B25",
"p$	c #5F8C3A",
"q$	c #4D781F",
"r$	c #2D5414",
"  . + . @ # $ % & * = - ; > = - , ' - & ) ! ~ { ) % ] ^ / / ( _ ; ^ : ) _ % ] = < [ * } = + | 1 2 3 4 3 % : 5 4 $ 4 6 | | & & ; ",
"; + . * @ 7 8 ) / * { ) > ; - ;   9 - = * [ [ * ) ~ | { ) ^ ^ ; ,   1 _ % 0 a < & / = = < & & % 3 % = & = 8 = 1 b 5 3 > ; 8 8 $ ",
"~ ] * * # # % } < ~ [ % c ) >   {   = & = =   * ^ & % d ^ = ^ ^   % 1 _ 8 5 a + ) : | ^ : % ~ = { e f + g 3 & * 8 ) & 5 5 $ 8 5 ",
") # *   = + ] } h { 9 = ;   % ) i & # - & < & ) = &   / a & ] * & ^ % 0 4 _ : ' ~ | < &   ~ & % ! h + } a ( | = ) / ; j , $ k 0 ",
"* # / - = > # + & /   1   ; , ) ) ~ * < ; { ; l = ^ ^ * ^ * h ~ ] / %   _ % * f ^ < = ) & ; > > % m $   * n ] * 0 ; k j k 5 ' - ",
"~ / ! d j - o 9   ; _ 1   0   ) & & & < k [ ) * ] ~ ] * / * ^ * ] * h ~ | _ + # / p & { p & 3 q _ 1 r [ ] 7 *   4 ; k -   k ' o ",
"s m / o k = = 0 $ 8 _ 1 ; 1 < % & = : /   & > / % {     { /   % { / < * = | : = l : l 5 3 0 3 c 8 ) t & ~ & ] & u c l v ; i & v ",
"s 8 & . 5 3 = k , $ w , _ 1 < < & & & ) 5 ; ' + / | , j 8 1 1 5 w j * a = = 3 % a a > p ; 5 c 5 > e x y = k % > u 0 o v ; 5 p > ",
"z w k ) _ % f 8 8 8 ~ { m |   = & } +   5 ) > 5 ] + l & A _ a < = ~ ~ & ^ , 1 % * h h . ] < ; 4 l B ;   > > 0 5 b % ) = ' = % % ",
"C & ! +   * ) / , w ^ % 2 1 & _ _ & & _ b 0 l 5 ~ D E F G H I # / 8 ) J K   % % # & = L = M 3 0 l ; l l   ; 0 b k { > l > = ; 0 ",
"@ = ) # > ^ & m 6 $ 2 3 | r % ; 8 4 k ; 1 0 5 0 f N O P Q R S T U V W X Y Z   % ` )  ...~ _ % ; ! - > ; ; > 5 > ) k & 5 c 5   % ",
"~ = > & > ) & % 4 5   3 0 0 p > $ _ 5 * +.r 4 0 @.#.$.%.&.*.P =.-.;.>.,.'.).!.~.{.].^./.(.  & p k b 0 ; k ; > ) & | 5 0 5 5 0 ; ",
"j 5 k ; - * < a r 5 b > ; p q 3 0 6 0 _.= b _ :.<.[.,.}.|.}.1.1.2.3.4.5.6.2.2.,.7.*.8.9.0.a.: * k b k 5 ; > p - b.< r c c c.0 i ",
"6 0 4 5 # * = ~ 3 > k 5 0 4 3 r k ; ; + ~ 0 d.e.f.g.h.}.}.3.3.i.j.h.k.l.1.m.m.3.}.3.1.3.n.o.p.q.r.0 k 5 > > > = +.; 5 5 6 3 b k ",
"c - ;   s.v 1 ~ % 3 l k c r 0 5 5 > & % t.u.v.w.,.h.x.y.z.3.h.x.A.B.B.z.C.C.1.i.1.3.m.4.8.D.E.F.G.0 ; ; ; ; / ; = { % k k 0 b c ",
"; v + > H.h 5 | ; % = > c.4 4 I.J.K.L.M.N.O.P.|.2.A.B.B.Q.j.A.B.B.B.B.h.C.1.i.i.Q.j.C.m.4.2.,.R.S.T.; b p a ; | & & = ; 5 % 5 $ ",
"> i   , = U.+ } 1 < s s h m $ V.w.W.X.Y.j.i.}.&.Z.B.B.B.`.l.B.B.B.B.A.3.4.z.k.A.}.C.C.C.C.m.|. +^..+  / | ; k = ) } | f 3 # % 8 ",
"k i 5 ) & ) } } 8 m ^ / ] = / ++@+#+ +%.1.1.$+Z.%+B.B.B.B.%+B.B.B.B.k.&+B.B.A.j.m.m.m.m.C.3.P.'.^.^.*+< M % ) b.! + = } j - 1 _ ",
"b k r , & ; +.l j 8 3 8 8 ~ & =+-+g.6.}.3.h.B.%+B.B.B.B.B.B.B.B.B.B.B.%+B.B.l.k.A.A.A.A.A.`.z.;+>+,+O .+'+; . )+, - % b.0 v ; 1 ",
"i 0 5 i & = / l |   ; _ j ^ ~ !+~+j.j.1.1.k.B.%+B.B.B.B.%+B.B.B.B.B.B.B.B.B.B.B.B.B.B.%+%+%+%+A.z.&+{+P ]+^+/+)+= l ; o c.= & % ",
"  1 / j > < ) % (+{ k ; %   ) _+:+i.1.3.i.B.B.%+B.B.B.B.%+B.B.B.B.B.%+B.B.B.B.B.B.%+<+B.B.[+}.C.C.C.m.3.1.}+|+1+& f l o a l & = ",
"_ { {   = % = % } ~ & { ;   0 2+3+$+3.3.y.B.<+<+B.B.B.B.%+B.B.B.B.B.%+B.B.B.B.%+B.B.B.B.4+`.[+&.%.2.h.&+5+, p : . o : 6+> )+> ) ",
"8 ) | & ~ ) = % ) < / ; w 2 7+8+9+k.3.1.A.B.%+<+B.B.B.B.%+B.B.B.B.%+%+B.B.%+%+B.B.B.B.B.B.B.B.B.B.B.B.0+a+3 ) ) ] f ) s.5 ~ | ; ",
"  < b+& / h & / _ 1 8 ! : & c+d+g.B.}.j.B.B.<+B.B.B.B.B.%+<+B.B.B.%+B.B.%+%+B.B.B.Z.%+B.B.B.A.A.`.z.>+'.e+= k l < # 9 +   ) _ $ ",
"& < p { > > & - ! & ! a # # f+g+i.Z.Q.j.B.B.B.%+B.B.B.B.%+%+B.Z.B.%+B.%+%+B.B.B.h+%+%+B.B.B.y.1.C.m.4.P.i+& ; p a | 0 ; d & & ; ",
"= : / ' B l - : % & & 2 * j+k+i.|.A.B.x.B.B.B.%+B.B.l+6.0+%+<+Z.%+0+m+n+B.[+o+p+%.B.B.B.%+%+B.y.C.C.C.1.q+r+5 p c r 5   * - & | ",
"& } } o : # & p = , 1 = s+t+u+}.3.k.B.B.%+B.B.%+4+4+v+w+x+y+z+@+A+B+C+D+p+E+E+E+p+F+G+B.B.B.B.%+&+m.C.m.,.H+r 4 ; 4 4 b / = ^ & ",
"& f # ] - ' ; 3 : k   I+J+K+j.m.3.k.B.B.B.%+@+v+B+B+L+w+w+w+w+w+w+w+w+w+M+E+E+E+E+N+L+5.B.B.B.B.B.&.3.m.4.O+P+b c 4 , j   > { ; ",
"s ^ # h - ; $ > l ; A Q+R+6.3.m.i.B.B.B.5.S+B+w+w+w+w+w+w+w+w+w+w+w+w+w+M+T+E+E+E+N+w+U+4+B.B.B.B.[+m.m.3.7.V+W+  3 3 k k 3 0 4 ",
"s ( & & l M & 5 - & X+^.[.2.m.3.A.B.B.5.L+w+w+w+w+w+w+w+w+w+w+w+w+w+w+Y+Z+`+`+T+T+ @.@+@l+%+B.B.B.l.}.3.2.%.$.@@%   ; % 3 4 0 3 ",
"h s d   > l j & & ^ #@^.O+1.m.x.B.B.B.$@w+w+w+$@n+%@&@&@&@&@&@&@&@&@&@*@Z+Z+Z+Z+E+%+=@-@;@4+%+B.B.B.z.3.2.R.>@,@1   k   6 4 6 5 ",
"s s *   ; ; # v # / '@'.)@m.h.B.B.B.4+;@w+w+B+h+!@~@&@&@&@&@&@{@]@^@/@Y+Z+Z+Z+Z+T+A.h+(@_@z.B.%+B.B.B.i.3.7.O :@1 _ k > 5 5 3 l ",
"4 5 | - - ] f *   r <@*.1.2.l.B.B.B.0+[@w+&@}@6.h+|@&@&@&@^@m+1@2@3@4@4@5@6@F+Z+7@8@p+T+E+%.B.B.%+B.B.A.|.2.$.9@> > ; 5 c.0 0 k ",
"%   k ) = # ! & ; t 0@|.$+4+B.%+B.B.0+[@&@&@&@a@^@&@&@b@&@c@d@e@e@e@e@e@e@e@f@g@[@&@Y+Z+`+o+Z.B.B.Z.`.&+i.1.,.h@v & & b 5 > ; ) ",
"1 ~ ) ; : & j ^ l ) i@O+j@k@5.B.l@B.4+m@&@&@&@&@&@&@n@n@n@o@z+p@q@r@r@r@s@5@t@u@v@v@a@7@Z+p+B.B.%+<+%+A.i.}.w@; ; & 0 $ 5 0 0 ; ",
"% / & > 1 / % ^ l l x@y@A+C+S+B.z@0+B.A@&@&@b@&@v@n@n@n@n@n@B@C@D@k@|@|@E@A@]@n@n@v@&@N+*@;@4+B.%+~@F@O+G@G@,   ) & > 3 0 5 c l ",
"^ & & & ; 0 _ _ > H@I@J@x+w+K@~@~@L@@+M@b@&@v@v@n@n@n@n@n@n@n@N@n@n@N@N@N@N@n@n@n@n@v@&@w+A@%+l+@+L+S+O@R+P@5 8 & ) p ; 5 c ; ; ",
"* ] &   1 ; { | p Q@R@v+w+C+w+K@m+^@a@S@n@v@v@n@n@n@n@n@n@n@n@n@n@n@n@N@n@n@n@n@n@n@n@v@&@.@l+K@T@w+v+U@V@W@  1 ~   | b 0 3 c b ",
"= } < & > 1 { a X@Y@J@Z@w+C+w+&@&@&@v@n@n@n@n@N@n@n@n@n@n@n@n@N@n@N@N@N@n@n@n@n@n@n@n@n@v@L@&@w+w+w+U@`@S+ #& =   & &   > > > k ",
"h & < > ^ a ^ ^ .#+#m+w+w+&@&@&@n@n@n@n@n@n@n@@#n@N@##N@n@b@b@N@N@n@n@n@n@n@n@n@n@n@n@n@v@v@v@v@w+w+D+$#%#&#= { ] / = ; & % { | ",
"& & = p : ) - *#=#-#D+w+w+&@v@n@n@b@L@{@n@n@N@@###@#n@[@o@;#>#C@n@n@n@n@n@n@n@n@n@v@v@v@v@v@v@v@v@&@/@y+w+,#'#] = ^ l ) & )   a ",
"^ * a = ; k = )#!#O@x+w+&@v@v@n@n@u@D@n@n@n@n@B@^@E@~#{#]#^#/#(#n@n@n@n@n@n@n@v@&@&@v@v@v@v@v@v@v@&@;@M@w+B+_#/   ^ > ; a | ^ ^ ",
"= 1 & ) ; l = :#<#J@K@w+&@v@n@n@D@~@z@o@]@L@u@(#[#}#^#|#1#2#3#(#n@##N@n@n@v@v@v@&@&@&@&@&@&@&@v@v@v@^@u@w+w+4#% 8 & ) ) a > & ) ",
"  / / / > & * > 5#J@}@v@&@v@n@{@{+h.&.l@{#6#]#^#7#8#8#7#1#9#/#z@N@@#N@n@n@v@&@&@&@&@v@w+w+&@&@v@v@v@^@|@0#C+u@a#%   5 > p     5 ",
"    ; & ; & & ; b#c#]@&@v@v@n@A@&.C.d#>#2#7#8#8#8#8#1#1#2#e#f#C@n@##n@n@n@v@&@&@&@&@&@w+w+w+v@v@v@v@^@|@w+w+$#g#h#i > c.3 5 ; 4 ",
"=   1 & i % p i { i#/@&@v@v@b@l+3.1.=@e#7#7#8#8#8#7#7#7#}#>#E@N@N@n@n@n@v@v@v@&@&@&@&@w+w+w+v@v@v@v@m@|@&@&@m@j#k#{ p p ; ; c ; ",
": | = ^ j % = ; & l#m#v@v@v@^@&+n#4.=@/#8#8#8#8#8#7#7#9#>#E@b@@#N@n@n@n@&@v@v@v@&@&@&@&@w+w+&@v@v@v@/@k@&@&@x+o#p#^ | %   ; p 0 ",
"& | ) ) > | - > % q#r#{@n@v@u@j.s#C.&+!@t#2#2#7#2#u#v#~#%@b@@#N@n@n@n@v@v@v@v@v@v@&@&@w+w+w+w+&@v@v@U@M@&@&@[@o#w#^ ) k     3   ",
"+ = x#; % > & | ^ y#z#D@n@{@6.m.s#n#m.i.A#~#;#3#;#|@D+K@w+&@n@&@&@&@&@v@v@v@v@v@v@&@&@w+w+w+&@&@&@v@|@~@a@&@/@B#=   _ 1 j m ^ ^ ",
"= ) ) %     k a ( / C#R@]@y+G+2.j.2.&.)@$#C+Z@Z@C+D#C+C+C+w+w+w+w+&@&@v@v@&@&@&@&@&@&@w+w+w+w+&@&@&@~@R@$@E#F#G#&   ~ /   | = ^ ",
"a ~ ) ~ 8 % / 8 (+^ = H#I#F@o@M@M@y+C@J#N@w+C+C+C+C+C+C+C+w+w+w+w+&@&@&@&@v@&@&@&@&@&@w+w+w+w+w+&@L+K#L#M#N#O#& ~   ! ) & = ] ^ ",
"| = 1 = / % < ) ^ 3 _ | P#9+A@&@w+w+w+C+C+C+C+C+C+C+C+C+C+w+w+w+w+&@&@&@&@&@&@&@&@&@w+w+w+w+w+w+&@Q#R#1 t , +.h   % 9 { / / & * ",
"= ^   < +.= | _ > ; 5 0 ; S#T#w+w+w+w+C+D#C+C+C+C+C+D#D#C+w+w+w+w+w+w+&@&@&@&@&@&@w+w+w+w+w+w+w+U#V#_ _ { ; a h 8 ^ {   / 8   ) ",
"| ~ ) & 2 2   ) & ; % ; p : - W#X#w+w+C+D#D#C+C+C+C+D#D#C+w+w+w+w+w+w+w+w+w+w+&@w+w+w+w+w+w+w+w+Y#/ | ; % | | |   < % ^ / / / { ",
"~ / & = ^   ! , | Z#; j c.) l ) `# $C+C+C+C+C+C+C+C+C+C+C+C+w+w+w+w+w+w+w+w+w+w+w+w+w+w+w+w+w+.$+$~ & k ; > 0     ^ * * ~ * = ) ",
"_ / ) b.p k k   h a | 5 > ; : + { @$#$C+C+C+C+C+C+C+C+C+C+C+w+w+w+w+w+w+w+w+w+w+w+w+w+w+w+w+x+$$%$] ) > ; > 3 5 d d d d &$f ] d ",
", _ = < : & % 5 % _ $ $ 1 ; & < k , *$C+C+C+C+C+C+C+C+C+C+C+C+C+w+w+w+w+w+w+w+w+w+w+w+w+w+B+n+=$I+/ = ] m 2 < 8 d i k j k k % $ ",
"    & = 1+= ; ! > 0 ; 5 5 / a a < j ' -$x+C+C+C+C+C+C+C+C+C+w+w+w+w+w+w+w+w+w+w+w+w+w+w+A@;$>$,$8 / = % ^ 2 ^ ^ # * k k ;   = 8 ",
"5 % k # =   | ; > _ 1 0 8 ; | ; & | } '$q+)$`@D+D+x+C+C+C+C+C+C+w+w+w+C+C+w+w+w+T@z+z+c@!$~$~ #   & ^   m _ d # 7 H.+ v < = = ) ",
"% 3 k & / ) a a   /   % ; | > ) ; ) = f {$]$^$4@q@1@v+Z@D#C+C+C+w+w+w+w+w+w+w+}@g@f@/$($_$] h ]   / ^ 8 1 { &$7 * # v h } <   = ",
"<   / ) % a ^ ^ ) ; w ) % 3 % 0 5 & :$- o & <$[$q@3@7.B#.@$@}$y+U@$#|$1$2$3$4$5$6$7$8$9$) = +.~ {   ^   1 8 ) s.v : = p & > j 2 ",
"< ) ) ) ^ h ^ ) > &   { | ; & ; > l -   * = ^ ^ 0$a$b$c$d$e$d$f$g$h$i$j$k$l$m$y#n$o$p$n$j ^ 1 8 { 8 ^ 8 _   * ] = < ; : & ; 5 | ",
"# # ) ) / m <   > ; ;   > / % % c.v ) ] 6+~ 3 { 8 ^   8   p & >   0 & 1 c.j   1 / ] b+= * < { / 5 $   { 3 / / ^   ^ & = > = $ 1 ",
"f l / d   | | % > % ) % { / & > ; v = g q$d 1 )   : _ ~ p a > = _ & = 3 _ [ % < _ r$= ^ a ^ / / $ / { 8 ( 1 / & 8   = > > +.; ; "};
