/* XPM */
static char * duck_2_xpm[] = {
"64 64 518 2",
"  	c #456B2B",
". 	c #446C1E",
"+ 	c #4B7325",
"@ 	c #548126",
"# 	c #527B2D",
"$ 	c #466B32",
"% 	c #4C7332",
"& 	c #4B732C",
"* 	c #4E792C",
"= 	c #537B34",
"- 	c #496E24",
"; 	c #496E2C",
"> 	c #517634",
", 	c #3E642A",
"' 	c #41661D",
") 	c #436B25",
"! 	c #3C641D",
"~ 	c #467125",
"{ 	c #3F6924",
"] 	c #568134",
"^ 	c #4E7932",
"/ 	c #47712B",
"( 	c #5F8942",
"_ 	c #4E743A",
": 	c #597E34",
"< 	c #56803A",
"[ 	c #335A15",
"} 	c #5A8235",
"| 	c #557C3A",
"1 	c #467030",
"2 	c #5C8341",
"3 	c #52763A",
"4 	c #436532",
"5 	c #42662B",
"6 	c #4B6E39",
"7 	c #55812D",
"8 	c #3F692A",
"9 	c #37601D",
"0 	c #4A6E32",
"a 	c #5B833B",
"b 	c #3B5E24",
"c 	c #506F33",
"d 	c #3E691D",
"e 	c #638B3D",
"f 	c #4D7925",
"g 	c #679146",
"h 	c #5D893B",
"i 	c #395E1C",
"j 	c #3D6424",
"k 	c #416625",
"l 	c #51762D",
"m 	c #4F793A",
"n 	c #5A892B",
"o 	c #486E1F",
"p 	c #597E3B",
"q 	c #607F43",
"r 	c #3B5F28",
"s 	c #4F802F",
"t 	c #355C1C",
"u 	c #4C742C",
"v 	c #3E5F30",
"w 	c #517133",
"x 	c #52782D",
"y 	c #59812E",
"z 	c #587F2E",
"A 	c #366021",
"B 	c #416815",
"C 	c #4A731E",
"D 	c #3C5D30",
"E 	c #486F1F",
"F 	c #60903A",
"G 	c #6A8A3F",
"H 	c #629036",
"I 	c #436C25",
"J 	c #4D7432",
"K 	c #618642",
"L 	c #44672B",
"M 	c #62902B",
"N 	c #67972B",
"O 	c #62911F",
"P 	c #4F7A21",
"Q 	c #629029",
"R 	c #638B28",
"S 	c #63892A",
"T 	c #4C782E",
"U 	c #3B6414",
"V 	c #628A43",
"W 	c #567F2E",
"X 	c #5E8B29",
"Y 	c #5C8731",
"Z 	c #587D2A",
"` 	c #555932",
" .	c #505725",
"..	c #86BC13",
"+.	c #79AA0E",
"@.	c #739C15",
"#.	c #698A17",
"$.	c #575827",
"%.	c #5D2C31",
"&.	c #5C741A",
"*.	c #6EA21E",
"=.	c #4D7927",
"-.	c #49702A",
";.	c #406A24",
">.	c #38611D",
",.	c #587A24",
"'.	c #6FA319",
").	c #81BB16",
"!.	c #7DB119",
"~.	c #4C4328",
"{.	c #53252B",
"].	c #432125",
"^.	c #54292C",
"/.	c #642D32",
"(.	c #703137",
"_.	c #5A6827",
":.	c #534926",
"<.	c #4B4026",
"[.	c #54622F",
"}.	c #4F662C",
"|.	c #5C7C2C",
"1.	c #5D7F2F",
"2.	c #527422",
"3.	c #486125",
"4.	c #4A6830",
"5.	c #61863A",
"6.	c #5A7E41",
"7.	c #517A28",
"8.	c #89C607",
"9.	c #7FB113",
"0.	c #6D3136",
"a.	c #743339",
"b.	c #6C2F36",
"c.	c #6E3339",
"d.	c #2C1519",
"e.	c #31171C",
"f.	c #61781C",
"g.	c #75AB16",
"h.	c #6A8B3F",
"i.	c #547725",
"j.	c #5E8935",
"k.	c #4E762B",
"l.	c #71A616",
"m.	c #739A1B",
"n.	c #543628",
"o.	c #391A1E",
"p.	c #241216",
"q.	c #1B0E12",
"r.	c #4D232A",
"s.	c #79353C",
"t.	c #55312C",
"u.	c #80B810",
"v.	c #73A239",
"w.	c #59832D",
"x.	c #577F40",
"y.	c #4A6C38",
"z.	c #60851B",
"A.	c #535323",
"B.	c #180C0F",
"C.	c #643134",
"D.	c #5A2A2E",
"E.	c #421E24",
"F.	c #56592E",
"G.	c #6A9345",
"H.	c #4F753A",
"I.	c #3F652A",
"J.	c #476B31",
"K.	c #547D2E",
"L.	c #57712B",
"M.	c #210F14",
"N.	c #54462B",
"O.	c #69972B",
"P.	c #59842C",
"Q.	c #3F5122",
"R.	c #729A0F",
"S.	c #150B0E",
"T.	c #170D10",
"U.	c #1C1113",
"V.	c #391B20",
"W.	c #773A3E",
"X.	c #667332",
"Y.	c #81B616",
"Z.	c #618E2F",
"`.	c #4F7723",
" +	c #4C3A26",
".+	c #2A221A",
"++	c #56671B",
"@+	c #679325",
"#+	c #5A7E33",
"$+	c #5C5630",
"%+	c #4F5E2C",
"&+	c #4D672E",
"*+	c #46652A",
"=+	c #577C2A",
"-+	c #6D954F",
";+	c #547C33",
">+	c #57562F",
",+	c #7D3F45",
"'+	c #4E482A",
")+	c #6B913F",
"!+	c #618435",
"~+	c #4F782B",
"{+	c #51552A",
"]+	c #35191D",
"^+	c #261817",
"/+	c #4E7327",
"(+	c #638A35",
"_+	c #5D8636",
":+	c #5E7418",
"<+	c #0F090B",
"[+	c #39391C",
"}+	c #709B22",
"|+	c #649249",
"1+	c #4C752C",
"2+	c #6A9921",
"3+	c #5E7026",
"4+	c #6CA019",
"5+	c #649226",
"6+	c #564631",
"7+	c #6C991E",
"8+	c #69992B",
"9+	c #4A2226",
"0+	c #322B1E",
"a+	c #7A7448",
"b+	c #56622B",
"c+	c #548222",
"d+	c #688A1E",
"e+	c #BDB269",
"f+	c #F4E47C",
"g+	c #DBCD73",
"h+	c #9E9255",
"i+	c #69653A",
"j+	c #E0C779",
"k+	c #FDEB7C",
"l+	c #B5A665",
"m+	c #7C4343",
"n+	c #92464D",
"o+	c #8E444B",
"p+	c #6C463A",
"q+	c #5B862D",
"r+	c #78AF1A",
"s+	c #46461C",
"t+	c #D6CA73",
"u+	c #FDED84",
"v+	c #EFE07E",
"w+	c #F6EA86",
"x+	c #A56657",
"y+	c #D0AC71",
"z+	c #C5BB6B",
"A+	c #586D2B",
"B+	c #618A3D",
"C+	c #4C7623",
"D+	c #7DB318",
"E+	c #E5D97C",
"F+	c #974A50",
"G+	c #D8B574",
"H+	c #7DB022",
"I+	c #679A21",
"J+	c #FDEE8A",
"K+	c #9B4A52",
"L+	c #944A4E",
"M+	c #AF755C",
"N+	c #B88863",
"O+	c #4B4328",
"P+	c #6E9C24",
"Q+	c #80BA15",
"R+	c #A39759",
"S+	c #FDF18D",
"T+	c #B3AB6C",
"U+	c #6D9711",
"V+	c #6A9620",
"W+	c #467130",
"X+	c #5A8527",
"Y+	c #84BD0C",
"Z+	c #523A2A",
"`+	c #1E1813",
" @	c #F5EA8C",
".@	c #EADE83",
"+@	c #E5D986",
"@@	c #A04D56",
"#@	c #834246",
"$@	c #9A5452",
"%@	c #6EA027",
"&@	c #3C6028",
"*@	c #74A625",
"=@	c #F5E582",
"-@	c #D2C571",
";@	c #8C8453",
">@	c #766839",
",@	c #906F31",
"'@	c #A47B32",
")@	c #7B4D36",
"!@	c #6A9928",
"~@	c #3F671B",
"{@	c #54671C",
"]@	c #F5E68A",
"^@	c #DACF81",
"/@	c #FCEF91",
"(@	c #E3B038",
"_@	c #F9BD38",
":@	c #C79A35",
"<@	c #805744",
"[@	c #C89C6D",
"}@	c #52652E",
"|@	c #548022",
"1@	c #76A614",
"2@	c #2B2A1C",
"3@	c #948A54",
"4@	c #FDF294",
"5@	c #B58E32",
"6@	c #D9A835",
"7@	c #E1AD37",
"8@	c #EEE286",
"9@	c #A15455",
"0@	c #526129",
"a@	c #4A6F2C",
"b@	c #689824",
"c@	c #7EA625",
"d@	c #696345",
"e@	c #777254",
"f@	c #DDD179",
"g@	c #ECE18A",
"h@	c #C8BD76",
"i@	c #9E945C",
"j@	c #837D57",
"k@	c #756D45",
"l@	c #D7CB7C",
"m@	c #575933",
"n@	c #3A3524",
"o@	c #58740F",
"p@	c #6A9C20",
"q@	c #679723",
"r@	c #8AC212",
"s@	c #EBDC7C",
"t@	c #AEA566",
"u@	c #BCB472",
"v@	c #FCF299",
"w@	c #B4AA65",
"x@	c #5B6633",
"y@	c #73A81B",
"z@	c #457029",
"A@	c #6C9E2C",
"B@	c #698726",
"C@	c #EBDD8F",
"D@	c #5E5B3B",
"E@	c #507929",
"F@	c #6CA224",
"G@	c #FCF4AA",
"H@	c #FCF4A2",
"I@	c #70A419",
"J@	c #658C2D",
"K@	c #FAF4B0",
"L@	c #F5EC93",
"M@	c #CBC480",
"N@	c #A49C5C",
"O@	c #ABA05D",
"P@	c #5F8C1F",
"Q@	c #5B7B2E",
"R@	c #CDC377",
"S@	c #726E62",
"T@	c #B5B1AC",
"U@	c #E1DDD8",
"V@	c #85827C",
"W@	c #6C675A",
"X@	c #668426",
"Y@	c #547B2F",
"Z@	c #5C7D32",
"`@	c #A4A098",
" #	c #D7D3CD",
".#	c #EDEAE5",
"+#	c #F1F1EC",
"@#	c #EEEDE9",
"##	c #576A27",
"$#	c #5D862C",
"%#	c #5D842B",
"&#	c #7C5442",
"*#	c #F4F4F0",
"=#	c #73716A",
"-#	c #5B6E34",
";#	c #527F24",
">#	c #68912D",
",#	c #938953",
"'#	c #8A674E",
")#	c #453131",
"!#	c #57524E",
"~#	c #F1EDE9",
"{#	c #5D633B",
"]#	c #557B2C",
"^#	c #5B8819",
"/#	c #665D38",
"(#	c #C4BB73",
"_#	c #8C8881",
":#	c #646642",
"<#	c #416627",
"[#	c #5B8A0D",
"}#	c #823940",
"|#	c #E6E3DF",
"1#	c #545B33",
"2#	c #507438",
"3#	c #598721",
"4#	c #82A830",
"5#	c #3A2A24",
"6#	c #3C3A37",
"7#	c #F0ECE7",
"8#	c #C6C3BE",
"9#	c #545F35",
"0#	c #4A712A",
"a#	c #456D25",
"b#	c #7EB618",
"c#	c #857F74",
"d#	c #607332",
"e#	c #477024",
"f#	c #315611",
"g#	c #578132",
"h#	c #75A41C",
"i#	c #452A26",
"j#	c #E5D678",
"k#	c #6B9026",
"l#	c #507831",
"m#	c #588429",
"n#	c #709623",
"o#	c #766F4A",
"p#	c #D2C46E",
"q#	c #7DAE23",
"r#	c #577F39",
"s#	c #649121",
"t#	c #57531B",
"u#	c #80B914",
"v#	c #5F8738",
"w#	c #56561D",
"x#	c #FCEA77",
"y#	c #87B624",
"z#	c #4A751A",
"A#	c #4C722B",
"B#	c #61881A",
"C#	c #A1974E",
"D#	c #B3A759",
"E#	c #687227",
"F#	c #89BD1A",
"G#	c #659430",
"H#	c #5A7F3B",
"I#	c #74A724",
"J#	c #85B817",
"K#	c #6E9F2D",
"L#	c #658D48",
"M#	c #5A8820",
"N#	c #80B50D",
"O#	c #72A818",
"P#	c #5C8333",
"Q#	c #628A1E",
"R#	c #7CAE1F",
"S#	c #588333",
"T#	c #376115",
"U#	c #486C24",
"V#	c #6E6737",
"W#	c #74A31B",
"X#	c #486F2A",
"Y#	c #4A6121",
"Z#	c #ADA456",
"`#	c #608D21",
" $	c #48722B",
".$	c #668D38",
"+$	c #636724",
"@$	c #DDD174",
"#$	c #AEAC5D",
"$$	c #939851",
"%$	c #ACAD5A",
"&$	c #CCC561",
"*$	c #837A48",
"=$	c #485C24",
"-$	c #547D2A",
";$	c #66971E",
">$	c #6B9329",
",$	c #587D33",
"'$	c #4E7325",
")$	c #477030",
"!$	c #557735",
"~$	c #708D41",
"{$	c #CDC461",
"]$	c #F4E680",
"^$	c #CEC86B",
"/$	c #CCC56A",
"($	c #D9D171",
"_$	c #C8A133",
":$	c #496C2A",
"<$	c #30550F",
"[$	c #4A701F",
"}$	c #4F792B",
"|$	c #6A7B3D",
"1$	c #929859",
"2$	c #6D8243",
"3$	c #637A3C",
"4$	c #5A7234",
"5$	c #678039",
"6$	c #8F9A53",
"7$	c #D3CD73",
"8$	c #C7BC69",
"9$	c #7B8840",
"0$	c #5C742A",
"a$	c #616622",
"b$	c #656623",
"c$	c #617931",
"d$	c #4A702C",
"e$	c #638D36",
"f$	c #6F9C29",
"g$	c #629222",
"h$	c #588620",
"i$	c #66962D",
"j$	c #699B1E",
"k$	c #74A92B",
"l$	c #618F30",
"m$	c #5A7F41",
"n$	c #426A23",
"o$	c #689846",
"p$	c #578033",
"q$	c #4D781F",
"r$	c #2D5414",
"s$	c #4F7A32",
"  . + . @ # $ % & * = - ; > = - , ' - & ) ! ~ { ) % ] ^ / / ( _ ; ^ : ) _ % ] = < [ * } = + | 1 2 3 4 3 % : 5 4 $ 4 6 | | & & ; ",
"; + . * @ 7 8 ) / * { ) > ; - ;   9 - = * [ [ * ) ~ | { ) ^ ^ ; ,   1 _ % 0 a < & / = = < & & % 3 % = & = 8 = 1 b 5 3 > ; 8 8 $ ",
"~ ] * * # # % } < ~ [ % c ) >   {   = & = =   * ^ & % d ^ = ^ ^   % 1 _ 8 5 a + ) : | ^ : % ~ = { e f + g 3 & * 8 ) & 5 5 $ 8 5 ",
") # *   = + ] } h { 9 = ;   % ) i & # - & < & ) = &   / a & ] * & ^ % 0 4 _ : ' ~ | < &   ~ & % ! h + } a ( | = ) / ; j , $ k 0 ",
"* # / - = > # + & /   1   ; , ) ) ~ * < ; { ; l = ^ ^ * ^ * h ~ ] / %   _ % * f ^ < = ) & ; > > % m $   * n ] * 0 ; k j k 5 ' - ",
"~ / ! d j - o 9   ; _ 1   0   ) & & & < k [ ) * ] ~ ] * / * ^ * ] * h ~ | _ + # / p & { p & 3 q _ 1 r [ ] 7 *   4 ; k -   k ' o ",
"s m / o k = = 0 $ 8 _ 1 ; 1 < % & = : /   & > / % {     { /   % { / < * = | : = l : l 5 3 0 3 c 8 ) t & ~ & ] u v w x y ; i & z ",
"s 8 & . 5 3 = k , $ A , _ 1 < < & & & ) 5 ; ' + / | , j 8 1 1 5 A j * a = = 3 % a a > p ; 5 c 5 > e B C = k % > D 0 E z ; 5 p > ",
"F A k ) _ % f 8 8 8 ~ { m |   = & } +   5 ) > 5 ] + l & ; _ a < = ~ ~ & ^ , 1 % * h h . ] < ; 4 l G ;   > > 0 5 b % ) = ' = % % ",
"H & ! +   * ) / , A ^ % 2 1 & _ _ & & _ b 0 l 5 ~ - # l &   a # / 8 I J _   % % # & = / = K 3 0 l ; l l   ; 0 b k { > l > = ; 0 ",
"@ = ) # > ^ & m 6 $ 2 3 | r % ; 8 4 k ; 1 0 5 0 f * k = L M N O P Q R S T ,   % U ) & % ~ _ % ; ! - > ; ; > 5 > ) k & 5 c 5   % ",
"~ = > & > ) & % 4 5   3 0 0 p > $ _ 5 * V r 4 W X Y Z `  ...+.@.#.$.%.&.*.=.-.;.>._ _ 1 ;   & p k b 0 ; k ; > ) & | 5 0 5 5 0 ; ",
"j 5 k ; - * < a r 5 b > ; p q 3 0 6 0 ,.= b _ '.).!.~.{.].^.%././.(./._.:.<.[.}.|.1.2.3.4.= : * k b k 5 ; > p - 5.< r c c 6.0 i ",
"6 0 4 5 # * = ~ 3 > k 5 0 4 3 r k ; ; + ~ 0 7.8.9.$./.0.a.b.c.^.0.b.d.e.a.(.a.(.(.b.b.0.f.g.h.i.t 0 k 5 > > > = V ; 5 5 6 3 b k ",
"c - ;   j.z 1 ~ % 3 l k c r 0 5 5 > & % & k.l.m.n.%.{.{.%.a.%.^.o.p.q.r.s.a.0.{.(.(.a.t.@.u.v.' 5 0 ; ; ; ; / ; = { % k k 0 b c ",
"; z + > w.h 5 | ; % = > 6.4 4 6.  ' ' x.y.z.A.%.%.d.d.q.{.b.e.p.B.q.q.C.s.0.D.D.E.b.s.(./.C.F.l 0 3 ; b p a ; | & & = ; 5 % 5 $ ",
"> i   , = G.+ } 1 < s s h m $ H.I.J.K.L./.^.(.r.B.q.q.q.r.e.q.M.q.q.d.a.0.E.d.d.b.s.s.s.s.a.N.O.> %   / | ; k = ) } | f 3 # % 8 ",
"k i 5 ) & ) } } 8 m ^ / ] = / P.Q.9.R.D.b.b.E.B.S.q.q.T.U.S.q.M.q.q.V.%.p.q.M.b.s.s.s.W.s.b.X.Y.Z.& = < K % ) 5.! + = } j - 1 _ ",
"b k r , & ; V l j 8 3 8 8 ~ & `.D.:. +b.(.D.M.S.q.U.q.q.q.q.q.q.q.U.M.T.q.q.d.o.d.p.p.p.d.d.e..+++@+* % _ ; . i., - % 5.0 z ; 1 ",
"i 0 5 i & = / l |   ; _ j ^ ~ #+$+D./.b.b.p.q.S.q.q.q.q.S.q.q.q.q.M.q.q.q.M.q.q.q.M.q.q.S.S.B.d.].^.n.%+&+*+=+i.= l ; o 6.= & % ",
"  1 / j > < ) % -+{ k ; %   ) ;+>+{.0.(.E.B.B.B.q.T.q.q.S.q.q.q.q.q.S.q.q.q.q.q.q.S.T.q.M.E.c.,+W.a.a.a.c.'+)+!+& f l o a l & = ",
"_ { {   = % = % } ~ & { ;   0 ~+{+r.(.(.d.M.S.q.q.q.q.U.S.q.q.q.q.q.T.q.q.q.q.S.q.q.q.q.U.e.V.E.r.r.].]+^+/+p : . o : (+> i.> ) ",
"8 ) | & ~ ) = % ) < / ; A 2 % _+:+]+(.b.U.q.S.q.q.q.q.q.S.S.T.q.q.S.T.q.q.B.<+q.q.q.q.M.q.M.q.q.q.q.U.[+}+3 ) ) ] f ) j.5 ~ | ; ",
"  < |+& / h & / _ 1 8 ! : & 1+2+ +U.b./.B.q.S.q.q.B.q.q.S.T.q.q.q.<+q.T.S.S.q.q.q.q.q.q.U.U.p.p.o.].3+..4+= k l < # 9 +   ) _ $ ",
"& < p { > > & - ! & ! a # # 5+n.r.B.].%.q.q.q.S.q.S.q.q.S.S.U.B.T.<+S.S.S.U.T.S.<+S.S.T.q.q.e.0.s.s.(.6+7+& ; p a | 0 ; d & & ; ",
"= : / ' G l - : % & & 2 * 8+ +{.D.U.B.9+q.q.q.S.B.U.6+0+U.S.q.S.q.U.a+ +q.]+c.,+V.q.q.S.S.T.q.d.a.s.a.s.b+) 5 p c r 5   * - & | ",
"& } } o : # & p = , 1 = c+d+9+b.(.p.M.B.S.q.S.S.B.B.e+f+g+h+6+e.i+j+k+l+m+n+o+o+o+p+^+q.q.q.q.T.o.(.s.(.%.q+r 4 ; 4 4 b / = ^ & ",
"& f # ] - ' ; 3 : k     r+s+/.a.(.p.M.B.q.S.0+h+g+t+t+u+u+k+u+v+w+u+k+u+x+n+n+o+o+y+z+U.q.q.q.q.U.r.(.a.(.A+B+b c 4 , j   > { ; ",
"s ^ # h - ; $ > l ; ; C+D+^.a.a.{.B.q.q.e.a+E+k+u+u+u+u+u+u+u+u+u+u+u+u+x+F+n+n+n+G+u+h+S.q.M.q.M.e.a.a.0.n.H+W   3 3 k k 3 0 4 ",
"s ( & & l K & 5 - & & I++.C.a.0.p.q.q..+g+u+u+u+u+u+u+u+J+u+u+J+J+u+J+y+K+F+F+n+L+x+M+N+O+S.q.q.q.q.{.a.D.^._.P+%   ; % 3 4 0 3 ",
"h s d   > l j & & ^ J Q+:+(.a.E.q.q.q.R+u+u+J+S+S+u+J+J+u+J+J+J+J+J+J+G+K+K+K+K+L+L+L+L+T+q.S.q.q.q.p.b.0.$.U+V+W+  k   6 4 6 5 ",
"s s *   ; ; # z # / X+Y+Z+(.D.q.q.q.`+E+u+J+u+w+ @J+J+J+J+J+J+J+ @.@+@y+K+@@K+K+o+,+#@$@N+d.q.S.q.q.q.]+0.^.9.%@W+_ k > 5 5 3 l ",
"4 5 | - - ] f *   &@*@_.(.D.M.q.q.q..+=@J+J+.@e+-@+@J+J+ @.@;@>@,@'@'@'@,@)@#@@@@@L+#@n+n+].q.q.T.T.q.q.].0.A.!@> > ; 5 6.0 0 k ",
"%   k ) = # ! & ; ~@{@%.r.q.q.S.q.q..+]@J+J+J+.@^@ @/@J+ @>@(@_@_@_@_@_@_@_@:@<@.@]@[@K+K+C.q.q.T.q.d.%.%.0./.}@z & & b 5 > ; ) ",
"1 ~ ) ; : & j ^ l |@1@:+2@3@^+S.U.q.^+.@J+J+J+/@J+/@/@4@4@3@,@5@6@6@7@7@6@5@,@3@4@J+8@9@K+m+q.q.<+q.T.d.D./.^.0@a@& 0 $ 5 0 0 ; ",
"% / & > 1 / % ^ l b@8.c@a+k+d@q.e@U.q.f@J+J+/@/@J+/@4@4@4@4@g@h@i@j@k@k@;@T++@ @S+J+]@N+l@y+q.q.S.m@n@#.o@o@#.p@) & > 3 0 5 c l ",
"^ & & & ; 0 _ _ > q@r@m@f+u+s@n@k@t@.+u@J+/@S+S+4@4@4@4@v@4@v@4@4@v@v@v@v@v@4@v@4@4@S+J+u+w@T.x@0+f@i+@.8.8.y@z@& ) p ; 5 c ; ; ",
"* ] &   1 ; { | p A@B@l+k+k+w+E+i+C@+@^@4@S+4@S+S+S+S+4@4@4@v@v@4@v@v@v@/@v@v@4@v@4@4@S+S+d@D@v+-@u+a+#.8.8.E@1 ~   | b 0 3 c b ",
"= } < & > 1 { a ] F@m@f+u+k+u+J+ @J+/@/@4@S+4@S+S+S+S+S+S+4@4@G@4@v@H@v@v@v@v@4@v@4@4@4@J+u@u+w+u+=@;@a+r@I@u =   & &   > > > k ",
"h & < > ^ a ^ ^ h J@3@u+u+J+S+J+4@/@4@S+S+4@S+S+S+S+S+S+4@4@v@K@H@G@v@L@M@e@e@C@4@4@4@S+4@S+J+w+u+s@N@O@c@P@= { ] / = ; & % { | ",
"& & = p : ) - | < Q@h@u+u+J+J+4@4@J+]@S+S+S+S+S+S+S+S+S+4@4@v@v@L@R@;@S@T@U@V@W@/@v@4@S+S+S+S+S+S+-@-@g+X@Y@- ] = ^ l ) & )   a ",
"^ * a = ; k = : ~ Z@z+u+k+J+J+4@4@^@w@S+S+S+S+S+w+ @ @f@L@g@u@a+W@`@ #.#+#@#W@W@/@H@v@S+S+S+S+S+S+-@v+f+##$#/ /   ^ > ; a | ^ ^ ",
"= 1 & ) ; l =   ~ %#w@u+u+u+S+J+4@T+f@S+S+S+S+J+R+&#p+^+S@V@T@U@.#@#+#+#*#U@=#e@v@H@v@S+J+S+S+S+S+t@u+w+-#;#) % 8 & ) ) a > & ) ",
"  / / / > & * > | >#,#u+u+S+S+4@4@t@s@S+S+u+S+J+'#W.)#!#.#@#+#~#@#@#+#+#@#`@=#u@v@H@4@S+u+J+J+S+8@;@u+u+{#]#= = %   5 > p     5 ",
"    ; & ; & & ;   ^#/#u+S+u+S+4@S+(#E+u+S+u+u+w+m+(.!#_#~#~#~#~#@#@#~#~# #S@;@L@v@v@4@S+u+J+S+S+t@z+u+u+:#<#; i.% i > 6.3 5 ; 4 ",
"=   1 & i % p i { [#x@E+u+u+S+S+4@+@z+u+u+u+u+j+}#b.!#=#@#@#@#~#+#@#@#|#V@e@ @G@H@4@4@u+u+J+S+S+k@8@k+w+1#2#V + ^ { p p ; ; c ; ",
": | = ^ j % = ; & 3#4#3@u+u+J+S+J+]@e+u+u+u+u+[@}#s.5#6# #7#~#~#@#.#8#S@w@ @K@H@4@S+S+u+J+J+J+v+k@S+S+w+9#0#= ^ < ^ | %   ; p 0 ",
"& | ) ) > | - > % a#b#x@E+S+J+S+4@/@,#u+u+u+g+m+}#}#a.9+5#=#_#_#c#e@N@s@u+J+v@J+S+S+J+u+u+u+u+w@z+S+S+f@d#e#) _ ^ ^ ) k     3   ",
"+ = f#; % > & | ^ { g#h#i+g@S+S+S+4@N@E+u+=@p+0.0.b.D.i#R+v+j#j#f+k+k+k+u+u+S+S+S+S+S+u+u+J+u+O@8@ @S+w@k#l#t 4 =   _ 1 j m ^ ^ ",
"= ) ) %     k a ( /   m#n#o# @S+S+S+R@p#u+=@3@k@a+;@T+C@L@u+k+k+k+k+u+u+S+S+S+S+J+S+u+S+u+J+u+t+R@J+ @i+q#r#k j &   ~ /   | = ^ ",
"a ~ ) ~ 8 % / 8 -+^ = 5 s#t#a++@4@4@g@R+u+u+k+u+u+u+u+u+u+u+u+u+u+J+S+S+S+S+S+S+J+u+u+u+J+u+u+k+t@v@R@X.u#W+| & ~   ! ) & = ] ^ ",
"| = 1 = / % < ) ^ 3 _ | v#w#t+z+R@ @g@k@u+k+k+x#x#x#x#k+k+u+u+u+u+J+u+J+S+u+u+S+S+u+S+u+u+w+u+u+f@T+m@y#z#, V h   % 9 { / / & * ",
"= ^   < V = | _ > ; 5 0 A#B#C#J+J+f@(#.@k+k+x#x#x#x#x#k+k+u+u+u+u+J+J+J+J+J+u+u+u+u+S+u+u+u+u+J+D#E#F#G#{ ; a h 8 ^ {   / 8   ) ",
"| ~ ) & 2 2   ) & ; % ; H#I#_.E+J+J+J+u+x#x#k+k+x#k+x#k+k+k+u+u+u+u+u+u+J+u+u+J+u+u+u+u+u+u+u+J+i+J#K#; % | | |   < % ^ / / / { ",
"~ / & = ^   ! , | L#; j 6.M#N#i+k+u+u+k+k+k+k+k+k+k+x#x#k+u+u+u+k+u+u+u+u+J+J+J+u+u+u+u+u+u+u+p#3+O#& k ; > 0     ^ * * ~ * = ) ",
"_ / ) 5.p k k   h a | 5 > ; P#Q#a+u+k+k+k+k+k+k+k+x#k+k+k+k+k+k+u+u+u+u+u+u+k+k+u+u+J+u+u+u+E+m@R#S#) > ; > 3 5 d d d d T#f ] d ",
", _ = < : & % 5 % _ $ $ 1 ; & < U#V#E+k+k+k+k+x#k+x#k+k+k+u+k+u+u+u+u+u+u+u+k+u+u+u+u+w+u+E+/#W#X#/ = ] m 2 < 8 d i k j k k % $ ",
"    & = !+= ; ! > 0 ; 5 5 / a a < j Y#Z#f+k+x#x#x#k+k+k+k+k+k+k+u+k+k+u+u+u+u+u+u+u+u+u+z+m@`# $8 / = % ^ 2 ^ ^ # * k k ;   = 8 ",
"5 % k # =   | ; > _ 1 0 8 ; | ; & | } .$+$R+@$#$$$%$&$k+k+k+u+k+k+u+k+k+k+k+u+k+j#*$>@>@=$-$~ #   & ^   m _ d # 7 w.+ z < = = ) ",
"% 3 k & / ) a a   /   % ; | > ) ; ) = f ;$>$,$'$)$= !$~${$u+k+]$^$/$($u+u+u+u+=@/#6@_@_$:$] h ]   / ^ 8 1 { T#7 * # z h } <   = ",
"<   / ) % a ^ ^ ) ; A ) % 3 % 0 5 & <$- [$}$< ] & & ( < | |$1$2$3$4$5$6$7$w+8$9$0$a$b$c$) = V ~ {   ^   1 8 ) j.z : = p & > j 2 ",
"< ) ) ) ^ h ^ ) > &   { | ; & ; > l -   * = ^ ^ ) % :   % ; l#  5 ; ; d$e$f$g$h$i$j$k$l$j ^ 1 8 { 8 ^ 8 _   * ] = < ; : & ; 5 | ",
"# # ) ) / m <   > ; ;   > / % % 6.z ) ] (+~ 3 { 8 ^   8   p & >   0 & 1 m$n$  1 / ] o$p$* < { / 5 $   { 3 / / ^   ^ & = > = $ 1 ",
"f l / d   | | % > % ) % { / & > ; z = g q$d 1 )   : _ ~ p a > = _ & = 3 _ [ % < _ r$= s$a ^ / / $ / { 8 ( 1 / & 8   = > > V ; ; "};
