/* XPM */
static char *grass_21713258498[] = {
/* columns rows colors chars-per-pixel */
"64 64 153 2 ",
"   c #173406",
".  c #1A3606",
"X  c #163903",
"o  c #1C3D04",
"O  c #14320E",
"+  c #1D3C0B",
"@  c #1E3E12",
"#  c #223E0C",
"$  c #203C13",
"%  c #1E4107",
"&  c #1E410B",
"*  c #1F4012",
"=  c #224405",
"-  c #234803",
";  c #23430C",
":  c #28460E",
">  c #26490B",
",  c #2A4C0E",
"<  c #324F0C",
"1  c #2D510C",
"2  c #30500F",
"3  c #32590F",
"4  c #254313",
"5  c #294615",
"6  c #264A13",
"7  c #2B4C14",
"8  c #25431B",
"9  c #2A461C",
"0  c #2D4C1A",
"q  c #304E15",
"w  c #314D1C",
"e  c #2E5114",
"r  c #2E511B",
"t  c #325415",
"y  c #355B15",
"u  c #385C16",
"i  c #33541B",
"p  c #39571E",
"a  c #355A1B",
"s  c #3A5C1D",
"d  c #376014",
"f  c #3D6517",
"g  c #3E6917",
"h  c #35601B",
"j  c #3C631D",
"k  c #3E691C",
"l  c #294521",
"z  c #2C4B22",
"x  c #2F4F28",
"c  c #324E22",
"v  c #2F5023",
"b  c #345423",
"n  c #395624",
"m  c #365A22",
"M  c #3B5C23",
"N  c #35542B",
"B  c #3B572B",
"V  c #365B29",
"C  c #3D5C2A",
"Z  c #3D5D33",
"A  c #3D6223",
"S  c #3F6824",
"D  c #3E622A",
"F  c #3F6929",
"G  c #4B740E",
"H  c #426717",
"J  c #426916",
"K  c #41641E",
"L  c #436A1D",
"P  c #4B6F1B",
"I  c #46701E",
"U  c #4B731C",
"Y  c #557A1D",
"T  c #415F24",
"R  c #415E2B",
"E  c #415E34",
"W  c #416424",
"Q  c #446B24",
"!  c #496D25",
"~  c #43642B",
"^  c #48662D",
"/  c #456A2B",
"(  c #4A6D2C",
")  c #477123",
"_  c #4B7325",
"`  c #4D7925",
"'  c #46702A",
"]  c #4C732C",
"[  c #4D792C",
"{  c #517625",
"}  c #527B25",
"|  c #51762C",
" . c #537B2C",
".. c #597F2D",
"X. c #436431",
"o. c #496633",
"O. c #466A32",
"+. c #4B6D33",
"@. c #456439",
"#. c #476D39",
"$. c #4B6C3A",
"%. c #526E35",
"&. c #516E3B",
"*. c #467735",
"=. c #4D7233",
"-. c #4F7932",
";. c #4E7339",
":. c #4C783D",
">. c #527533",
",. c #547B33",
"<. c #597D33",
"1. c #53753B",
"2. c #557B3A",
"3. c #597D3B",
"4. c #4F7041",
"5. c #527541",
"6. c #547C40",
"7. c #5A7C42",
"8. c #568221",
"9. c #5E8624",
"0. c #57822B",
"q. c #5B832C",
"w. c #5D882F",
"e. c #568132",
"r. c #5B8334",
"t. c #5E8A36",
"y. c #57823B",
"u. c #5B833B",
"i. c #5F893D",
"p. c #628B2F",
"a. c #628432",
"s. c #688737",
"d. c #638C33",
"f. c #688C32",
"g. c #61863B",
"h. c #638B3D",
"j. c #6A9337",
"k. c #66913C",
"l. c #6D963A",
"z. c #70943A",
"x. c #5D8343",
"c. c #5E8149",
"v. c #618541",
"b. c #648C43",
"n. c #698E46",
"m. c #61894A",
"M. c #688B49",
"N. c #679146",
"B. c #6B9243",
"V. c #67924A",
"C. c #6D934D",
"Z. c #709641",
"A. c #6E9650",
/* pixels */
"Q ' g Q 6 D K b S >.( ( t W ] Q j Q g ' a S H a f A =.y s b ,.9 9 R ^ q c n 5 n ^ = W u.! t M o./ m i C 8 i ] A Z r T T q T A m ",
"/ _ I  .a =.f M [ ' Q y i i y Q Z a -.a a h a +.e O.,.r , M b T # ; # w 0 # 0 ^ y 7 M W Q i i M D a ] ~ s ( ;.#.b t W C c ~ W +.",
"A e.0.h <.e.! i.Q % 3 Q o.~ ` / 0 g e.;.'  .u H S ;.L 4 e.| 0 S n n : 5 b 7 W <.s 2.=.7 e a a M m h.! / b.k D O.6 _ ! w O i s 6 ",
"M t.H A e.I t.[ -.V A | C m ! D e .. .S ] e.<.K / [ / M ..% ' <.n p w n 9 a ,.u ! =.>.~ i t M =.S ) ] D <.S ,.Q ( ( ~ C 5 A s 0 ",
"0 y 3 D  .` e.) =.V T <.N b _ O./ +.Q =.V M i 0 =.a t y.] 6 t.A , 7 n i t A u. .j s ~ t i 7 A A A 2.] A a N.0.` Q 9 0 W L ! 5 V ",
"D j ] W D ] k S S 5 T t   w ! 6 a M y ] 0 s , X.` v y =./ S r./ i C M r / j j [ W i M w +.6 M O.x V j d j ` r.i 7 N N L Y f 5 9 ",
"A -.' >.e ' r./ / a A i z ; 7 ^ i s r.Q 7 Q <.t j C Q A ' *.' ' W a 0 7 / >.y.<.q p p i o.w b M b a u Q [ }  ./ w C W ..! , c 6 ",
"a S [ j ~ -.` F A ~ ~ R ~ 5 i M b ( =.4 j [ u W +.,.A V j #.*.S j t 7 7 =.,.,.a %.R : p p i 5 i ~ t.Q =.] j t =.o.e  ...m c C t ",
"( C A W A -.` D D A >.e b b ; w y ] ] a A ' | M y.Q [ ] O.-.2.u.] ( W ! [ W s i r e Q Q i j N i { d.) / ( w b a i & s R ^ w # w ",
"t / ~ ` D ) ' A V 0 A M ~ 7 C R 0 / =.D D ' +.0 _ j  .2.( , / ,.T 7 T L ;.#.V ] <.=.2.~ / a.N M ( ! =.~ 7 w 9 7 A 0 4 0 / p T 5 ",
"y ; Q ] -.y.L Q X.i ~ q i w T 7 5 V i W k +.n B [ e.H ] W e s ( i w s <.=.Z r ,.j g Q >.$.i z ! C ~ +.> 7 R W ^ / i s ; s %.T 7 ",
"M + A +._ h [ =.0 0 m n ^ n 5 q 9 9 ~ K [ B 4 i ] <.>.2.=.~ ~ p w M X.0 V j A t k >.A D i , ^ s 7 D / | +.( ! [ K i # i > i %.( ",
"5 : R W Q k x.,.b T T R 4 n 1.n 5 w +.! K w 5 # b O./ s W ^ w s 4 i ;.~ M [ W ~ -.~ r V ~ e H 3.M 0 D k M s <.f u.3.C w 4 7.m M ",
"0 M +.j ,. .O.a M 7.M 7 # o.o.w q ^ / | t q 5 w r 0 t M i W , t 7 / M.j A D x.b.#.6 a W ~ b H ! ; m / / $.^ i S u.] b p n %.; t ",
"y ( ! D q.( M i +.W > i w b 5 ~ C ! | ] M 0 5 w ~ ~ W W W i M ~ c ~ ! ` / a *./ =.o 6 =.,.~ z.~ 0 ; ~ M M : r 2.-.j O./ # t n i ",
"+.0.>.]  .r.i q j 3.( >.n q 5 n p 1 { M 9 C 7 4 A | ] | A i m 4 c K _ +.=.! S z / 1 S >.| b f.W N s ~ a | <.;.` [ ` 1._ w K C b ",
"M M W m >.k.J Q k V.h ` x./ 0 i b C W 7 C b : , 0.3.A ' Q 4 b t p q Q >.C Q [ ~ A ' Q ( f ! a.s B u ( W m m / ! L t.7.T n R s q ",
"> 5 $ 7  .>.3.i./ / -.' h -./ M s >.^ b n 4 M  .[ A Q / ;.D X.( b b ~ a b / S ~ [ ' A F H d.,.$ M ~ ~ | ^ C W s.D ! M ! s , i 5.",
"5 w n T ( a y.>.A O.;.s ] Q >.2 t ;.( 3.t m ( [ h A ,.e.<./ / Q 4 # 5 V y A p | 0.' ( ~ u...>.9 W ~ , i i R ( { D [ $.L s i > 5.",
"7 ~ ~ i >._ >.2.7.W n 0 A =.] A / A s j K W A M a ' x.0.,.S ,.,./ ~ o.Q _ A &...A ! | y ~ O.M ; a ,.%.n w M  .!  .{ B t &.i - ] ",
"r A / y -.' S A =.a i 5 a =.a ~ 2.W T &.c M M j M ;.>.r.L =.f ] 2.] i ( ..Q n : 8 % <.s 8 V n s F >./ 4 9 p Q b.{ { ~ - C +.! <.",
"' t / ' ,.-.y.Q S j W W s D C # t M s i b 5 m / ~ ~ ' j ] Q ,.y./ s X e C.t # R N O.=.; m ~ +.M ' / 6 e , i W ..K } A r.>.! u.A ",
"m ~ 2.` k e D 3.h 2.1./ y A r n B ~ p s i C 4 ; b j ] A *.y >.j i r i 7.+.s ~ @.M i 7 C > Q C.( y.=.& s t +.>.K 2.} a w.j / / 0 ",
"z Q <.2.F ~ a i A A W S =.' ~ 9 T s w q n R , >.M s u./ D Q ] e m 1.s >.| U a.C A t m M j t.x.D a =.2.#.6 [ p T ' 0.A [ 7 M m b ",
"M B A ~ (  .W i p e A u.0.y F [ ! r ~ e.Q F  .' 5 n ;./ [ ~ W n 5 i w %.P a.{ c Z > Q i C m./ M 9 D D r W =.i ,.=.>.t m i = ; ~ ",
"Q M W r 3.{ 1 ~ ~ ^ ! u.S m 6.] / +.x.` ' ;.x.L 7 i f 1.S F s 7 i z R a.Y %.5 m >.Q T . v ] Q >.( ' S y ! ] 1.W i 4 m 0 t M >.2.",
"[ u.,.] s.,.s 1.0 V ! _ V % S 2.] ' / A  .s M | >.:.a ( L e A 7.2.N C a.} O.C ` >.<.^ n A [ ] ( Q ! A.D u a i i c ; 0 a 2.x./ / ",
"_ [ Q e.! ~ s $ 6 j ! =.D -._ ( ' Q j Q =.a a  .] / ' a ! 0 ( 2.| t 4 T ~ / D _ <.] M i _ } ] C a u./ Q / 2.i w B B A W A ( s j ",
"[ ` 2.h.W C m 4 a [ A r r.k.<.W F F ] ] a j g.] D e ! 5 <.R q n ' W 7 0 #./ y <._ M O.y e. .^ b h 2.] ] Q ] M.T 5 i 2.W W 7 A ;.",
"[ k.' ] t i i m / | 6 D } } | | O.O.[ Q m / B.S s i # # ^ w # ^ ] ~ 4 s <.S 6 X. .i o.A j ] ~ / r.S [ 0.,.} U _ T q ( p ~ 5 r ;.",
"e.V.h a 5 ~ W Q W 4 0 ~ Q W 2.u /  . .( +.3.<.M M ~ , b q w >.;.~ V > | e.m * e g., ~ <.Q 6./ _  .Q t.I u. . .u 9 : T n 0 c V W ",
"0.S [ a q s ( e.s z b y ~ X.s / ] } _ W a ( M D / D W ~ ^ W Q Q D m D [ ;.N + ( A # ! a.e.F i W L / ] _ / A ! o.b O.n w c 5 i | ",
"9 0  .S # P ` *.~ + w o.v r A e x _ _ 0 $.f ) Q Q >.| +.4 s V D V ! D =.2.r _ _ Q a s B.r.T c 4 W >.| ( w w q w W ..t w C t 2.a ",
"p b Q W W  .L [ M = n ~ a A 1.~ ~ .._ ;.~ a ^ ~ 1.3.! 7 +.n.#.M / Q s ! 2.M { 3.-./ a r.{ +.1.7 / g.%.R w B @.W 3./ y 4 b ( ^ , ",
"T A W p ! | ~ _ m p 2.W y +.M ~ ) ,.f A s W / r t B / Q u.! / | ..Q ] L D D ` +.S D O. .| 2.T m / <.; 9 b b X.Q W ] ~ R c T ^ 0 ",
"i Q ( N p < n Q ( 3.W s m ~ 7 6 ! +.i t e.) u { T n / d ] ( ~ u.<.S 3.( m i 7 ~ Q / ;.u. .[ 3.3.m 0 ; ! M 0 W M i Q +.7.q w 2.7 ",
"/ e.Q @ 5 W Z 0 | W 7 b b 0 7 ^ { M o.] a.I  ...| +.2. .' A *.a a S i 4 M ~ C 2.<.2.>./ k Q ` / +.$.^ =./ / S r Q V S M i : w n ",
",.1.t m S o.x Q r.( 7.0 @ o./ ] U ] >.` r.j ] _ ! Q -.S <.m A ~ e ~ b B >.u n 3.( 2.3.D =.[ Q >.| _ 7 b 7./ a [ ' ( ~ ; T w R q ",
"} +.a _ ,.5.0 s [ a M M t +.] ! _ _ | >.( t / | j | ~ a ~ 7 ] A :.D q w %.,.+.<.....] *.=.k [ ( .. .;.C +.( =.] ) ! 6 y 2.9 t u ",
"t.1. .{ ' -.A t =.Q D +.K ,.L ,.,.! L y m / +.| ~ { w 5 n W ..j 0.b s p %.<.s 7.<._ s r 5.] L W s.>.,.Q S k ,.O.8./ =.=.M M 0 <.",
"5.' ..s.T w i i O.V D D A <.J / 2.W w n C b 7 , i ( i 0 ! ,.~  .S / -.*.M $.a | { $.m A x.L q.q.%.| ..[ W [ S 2.2.] y.$.o p O.r.",
"' y.r.K q w : , 7 ~ Q / ~ ! q.>.W s w o m W =./ C Q ;.6 <.( ~ _ 0 :.] Q e t W M W } ) u.-.' w.= 3 n.! / ] ..' A / / s 5 ( ( 6 ,.",
"] K A D M $ w M [ *.( ~ 9 W q.{ W s s O.+.>.+.] / e =.+.x.+.W ( W M A / m 0 e 3.j.Q L j.U ..M 8 s.~ 0 W <. .] / a t 7 D g.W ~ a ",
"Q ~ b Z 1.s T ^ -.( =.Q $.>.H 2.2.3.| <.2.S j ~ ,./ =.~ ( / > / j > m $.0 i ;.2.s @. .a.K j r / u m 5 e <.] ] -.=.+.r C ,., +.m ",
"; 4 v / Q _ ( ^ / A / ! 1.i M ~ 1 v.>.Q ,.] =./ ] ( ;.M s +.a 3.1.D a ;.| A r o 9 e ^ M m ~ f M K ~ M e W A W 0.Q w c n >.Q T b ",
"b 4 C ] g ..Q M S r Q e.a + m 6 a <.~ a t M 3.( ( M / j 7 / K a ] a Q :.1.( a A [ r 9 + N i S b =.W ~ = ~ +.x._ a 5 i q R %.i R ",
"; ~ =.a y ( t +.] / Q  .0 b ~ ;.( A / e b e 2.( / $./ y M 2.] s ..x.~ r ~ ' Q Q r.1.t.u N x D a.%.>.7 + X.i y.' ~ 0 M T 4 n ! w ",
"S 3.A 5 C ;.m A ` W ,. .m 9 / K / >.+.V D D F / i m ^ j 1.( ` ] ,.( e A ,._ ;.;. ._ K t C s  .] Q y ; E ~ K S D > 0 : o 9 @.( M ",
"]  .M -._ ;.* K ,.D -.` #.D 3.f _ h.a $ q >.M b N i _ r.( ~ ;.,.w T W A ~ O.( ( e.t.m , r ' ' ] D e s T 7 ^ $ n > $ i s T ~ b ! ",
" .W A 2.a 6 7 =.t.O.M ! W ~ / O.Q t.O.4 p t b m a =.] <.M r g.J 9 C p > W ~ ` | _ 2.e 6 =.x.r.` / A +.^ ^ M q 4 s z C T p s b Q ",
"r.( a [ 4 C =.i B.~ 7 s ; a m O.>.,.o.$.q ~ m e <./ a >./ s ] K O.! i ,.] 0 Q ~ Q ~ ( O.t.>.I [ y.j A A A / t Q m 9 : w 6 e V O.",
"e.;.w y +.C D F / D ( W M D A  .] { ; M ^ W #.~ ;.> s 3.W / M b `  .( u.>.M a C M ~ s t t ! i.] -.S r M i r +.2.W 0 o a M ~ C 7 ",
"-.] w m %.i 5 -.w 6 W m D O.>.` | ! K q / Q S ! 6 0 R ~ t y r N y.e.=.>.<.! { ` A a b e w g.>.r ' s q n 5 C ~ a W 3.y h >.( M D ",
"M t T a K ~ 4.S ~ t 9 z >. .[ d | _ _ >.[ D s ! A 7 b b w i W / | _ q.L u >.] ,.t ~ 5 > 0 <.$.b 3.6 M C 7 &.T W s [ >.y.Q Q [ A ",
"a C ~ ,.! ( A s ;.u.t * ] H k / e _ [ > W +.~ ] w 4 ; ; m / u K  .u.9. .C s 6 ..^ i 4 4 w M e / ] e s i p : M O.+._ ' -.j ' r.a ",
"t 4 i h.>.S s ~ / 0.! D / h 3.) ~ ] W / =.6 M ! 9 B t ! ! ( k <.m C 9.! n A V 8.s i q 9 y ~ ] y.' S S ( T 7 7 s F L S F k ' 0.a ",
"0 ~ 7 ( <.L j / M C R B M ^ / , K T Z a K M t 6 5 7 ( ,.,.] ( | 9 e ( s t A +.2.,.<.i 9 r Q j N R e ( 4 O.` _ A Q A k W ~ D A W ",
"T ~ s , u.] s C M 4 w # 7 ; m R q s ^ <.<.O.s +.o.q Q a ,.i ] K i S ] [ / 1./ i ] j t B X ] =.i ; i i i ~ 3.' F >.[ Q W W a ~ e ",
"t s ~ >.3.a w z : n 9 B R 7 i i C ( q.l.2.t } ;.0 M ^ t 5 t >./ s K ,.K >.( s O./ 2.=.5 T <.] i s ~ ~ ; a m a ;.0.` } ,.j W b A ",
"~ b 7 +.W t t T 5 w R T M W ( C >.! | J e ] j.e ; 7 $.5 w +.~ ! ( W [ >./ M ~ / N.<.2.~ a W s i t b X.s A i 1  .r.[ _ ..i ;.W 1.",
"x.a ~ j > s W ~ 4 7 5 t s v.W +.K ] M 1.r / q.O.i C i i 9 ; i a +.A ^ W M w 5 R N.1 ] M.7 e M W i b b ^ Q A S w._ i 3.g.i M , 2.",
"{ ! Q s W 2.M n ^ ~ m s g./ Q ^ ` e.n 0 e ( 3 O.b W 7.b b 4 0 a n ; e ~ p . 0 i a.j f / t ~ A M D m s , a r ] q.D ] / n ( t 4 <.",
"q. .( ~ 0 M 0 0 ; w i ;.' 3 x./ ;.r.~ =.0.( r j M a t 7 o ^ ~ p n 4 X w 5 0 q O.Q m 7 t t 7.$.Q b s ( i v ~ ] ,.m W 1.T M ^ ~ ( ",
"] , i ; t 2.Q A ; R C a / / 1.*.O.}  .Z.G ~ V h D 7 s ( i q C w # R n B 5 4 M W i 4 $.2.3.a s ` m ( j 0 l b A m A A a W M 1., +."
};
