/* XPM */
static char *_0011713259306[] = {
/* columns rows colors chars-per-pixel */
"64 64 92 1 ",
"  c #2C5314",
". c #2F5816",
"X c #285119",
"o c #345D15",
"O c #33541B",
"+ c #355B1D",
"@ c #385D1E",
"# c #396317",
"$ c #3B631D",
"% c #3D691E",
"& c #365C22",
"* c #3A5E22",
"= c #3D5E2B",
"- c #3F5F30",
"; c #3D6324",
": c #3E6924",
"> c #3E642A",
", c #3E6A29",
"< c #3E6431",
"1 c #426E1F",
"2 c #4B791F",
"3 c #435F2E",
"4 c #405B32",
"5 c #416525",
"6 c #496727",
"7 c #436B25",
"8 c #496E25",
"9 c #42662B",
"0 c #4A672D",
"q c #456B2C",
"w c #496D2D",
"e c #457125",
"r c #4A7426",
"t c #4E7F24",
"y c #46712B",
"u c #4A732D",
"i c #4D792D",
"p c #577923",
"a c #51762C",
"s c #517B2E",
"d c #5A7F2B",
"f c #446633",
"g c #496731",
"h c #466C31",
"j c #4A6D32",
"k c #476C38",
"l c #4C6D3A",
"z c #506F33",
"x c #467031",
"c c #4C7333",
"v c #4E7933",
"b c #4E7339",
"n c #4F793A",
"m c #517534",
"M c #527B35",
"N c #51763A",
"B c #587638",
"V c #547B3A",
"C c #597E3C",
"Z c #537541",
"A c #567C41",
"S c #597D42",
"D c #587F48",
"F c #4F812C",
"G c #53832E",
"H c #558134",
"J c #598436",
"K c #5B8937",
"L c #56813A",
"P c #5A833C",
"I c #5D8A3C",
"U c #618135",
"Y c #608C35",
"T c #61863C",
"R c #628E3D",
"E c #62923E",
"W c #578141",
"Q c #5C8442",
"! c #5E8941",
"~ c #5F8748",
"^ c #618644",
"/ c #628B44",
"( c #6B8D41",
") c #628649",
"_ c #648B49",
"` c #669245",
"' c #689047",
"] c #6B9847",
"[ c #669149",
"{ c #6A944C",
"} c #719E49",
"| c #75A154",
/* pixels */
"hvieHiqcqqxjNmcqhquiw7e%iyicnv!vfccwmcPMCo1sLuvuWV7VVgg0f,VcWN9w",
"7ut1Mcqy7u7*Nj5q7q7uM8#ieyy:,xLe;hxN0cCVM8sJMcvvcMv9C99Nh&cN790q",
"7iieMvcmJ,:7jq0qq77iumuuiHv:,bLyqnnN5kn<qCJMicuHiWLu{B9Zf=7h7j75",
"iMicCNMP`eybq>05qquM7aauHHMeqbCuyxcqqjlhqPVwuquM,IEKTV9Z=gj79q;x",
"isuuxcvLHixqj59;6Mevu9$H!iMcxxVqHuu6V69kxPM*cqaVvFIGiiq99gw9>,;q",
"rsuq7kcvqyVhqjc:qMicq7:vPwvvxqxqKiHwPN7wMHu1VwCVn,MMMMV5fb,$9q;u",
"iieujcxcq,Vb7uPuwMvy9qwuhqcqw>;qGeKiCVbciVcwNjVmy9ncPuMm>Nw5w55P",
"H,%MVx,bcqhhcyvIuVe:nq@i;cC:bh9MKoMLc7>VVIVBjhk7cV;jCmuCf=quq5Md",
"Iy9NCqqvb;xucMwNc/ucx>g9cv/V$VBa:$iqq&gbuHIdrTjhx05mNjVk;v7a5mqV",
"Guu0j7qx,;WM!wcB0Vucxh99,uTc*wNa;77xWgg7rM!vJ/N9qqBNjjq;,:mumNqx",
"Gsmww7yxljScC5wwf97ucwqjycc9;jsr>h,bVhq;yyLMIuccqh)j5wxNi$xjj99c",
"aucxNhbn9qqNucBmlz7LL50zxvb999Baf>ebq,x:qh>S8euPchS**qxnyiqgg9hc",
"q9hhVvHM*qqB5B^BkjwTL509xcw9gxPa99Hv,cMvx,7>CiTuh>h;jNcyi/qflS95",
"qgkqVJHyNMbw50N935BMujq9xq5qxNC8qV!,unc!vh&ncPM$;>q9VVVbcVx>gZ*q",
"kgjxMvvxACc5j9fhjqCcjq977qmVwuVuqP!:hqqLMq;bciu75ccgw9qhj7bxq7;N",
"w55cMuvAxPVbQh>W5:qnc>7:krMIcVVxqvv:chh;Jey;quCNuNc90j99>xbC7wb9",
"N@Obw7MCi!FG`nkw5gkMMhbvbwM/PcMsmaMC>qViyv;$7MIsVcqiC0hhfqwaaBw9",
"5@qqcu/McKIHnv59cBSawjcGc7i`!vNuquJm7;Miiyi7PxCwCymCPw9b>;uT5mxh",
"*@5;cMLux7Jqhq7NHyi5u0727eH/VyviPq5Cg>;qiyM7WhxqJ7iMmu;7q7cL6uqh",
"+cq5cmuM`79m;bqJH,q6BjqtrHIIyencCVqV=h3;yicqbc0wvMBq9qj9cquuPVuk",
">VcqV/Cu|7>qjjcsiNm0BlPHJJLVuqMccchh5393,nnxcPmw6nVf>9QNcwurPCyj",
"N7M7iP/cVraflwCyyNjmwgvuHcxnu7qvvh>cw56j<nVccPVrun99h>VhNqiPuuy9",
"yqPy,eCLqIBC=NubuqjIuhcqwffjw7qcqCNN5mBjcxxmvvWyJV;bk9q7c7uV$icc",
"q^PyvLyciim1mjciqxPL#cbiqh4fmmc9iVNqMT^qm77LMcCqvM9A9j;aPc77:cxj",
"rPyqMBur6wqjhuLdiVMJiiHHxh>fbqjqw9zCp(C97aMmVHiCxxyPim9)^my77uiu",
"iCqqmaiJMwqwVLLHMMMHvvvHc;b>0m6Cj=j(ddwwMmu8vCvCcxPPVujVj5:qyuuu",
"vCwqwaaUV7qwV~LPcquiCiisiybqcmi/~hkTdu9cPxq;invcAv!Hi6x9g99qcVcc",
"vVqq008miicq7quMx7qxLcMMuxh,MimNVf7iacqM!uc:vvMwnyvLevV9gbf>hcbh",
"GPcwjBzwrLMqqqwckqu5cxNMy,9;xu;*,9jurbquvuVyVcmwccv/iWVfhcghkcjN",
"K`MiNVbuiLuxNbN9xxx;cwcw7q<hc7h&hhcaikq7qeVvVNiwvvHIivvhbwcBBqqN",
"H!vqwuqusM0qbg==cMcqCNxqhcfcbqSfh>qiulkuybVcHVcVxyyHHycVu7wzj99j",
"y!cycirJaau0jl=Zmmw5VBj0V;h99NNfqqCVxlzsybx7ucwMxy,P!McMxwjg3jNk",
"b;Lieiucg1am95qf;Z3gVq<-llfj9VgllbNiV7/Hyc5xc6qVwVjBS=wbcBjhNfgf",
"hqx7i7.Ck@5Nmjjfhjfhx,f>0lbjV_Vjb>quCcJMuc:Mxw)qMcj9l07jjq09N9j0",
"h9uCi7;bM9kPBlkjy99hqxvy5NNcT'Mwh9yxVccMw7icCMjMuwN9gjjjcxjbq0bN",
"x7v!qqVhxhjNjf=gu>xx,LHi9jxMHPsM&qcqh97iauMPCqb;wcjjg9NNqxV~bjjw",
"iccuuhcxguj>fk9=iuvqcCuicybviiMs9cuwqhfqqVMucu7 Px>9kqNqcwCwm9N5",
"MLu7VqhbxJCkkMcfcMveuNyMMwn7cuPwccuxchhju(/a/~uCPqq>lNqqVcc$wcmq",
"PLMcVbynMMCchjhgiFFicjuncbx>cuN9xwcwfff9wCm_!u//cyVhNNqxuvuwVW50",
"I!M0xcyJIcyuuhhiuFFGa0hbuA>hbc;hMuCqgZf=;u6MCuuMyVVfjgjhcCi1Vc7C",
"H/c>b0MiWqyvnMcwbxuV99wubxy5VN7HuiIM9Z<Xqqh,cMiiMc,9b9bcuVj9wbxM",
"M_Vqj;aBxnyVMWqVqqL5Vk_Mq6c:PqL`~vvPqh>xVqhvxccMBMhhj*qcqncjBbnu",
"vCccmwMMqxqvu!VcuTHLw^PHmiIu_qPMxN7x0wV{ScxbcVccMMxcx9xNqb,jjjM7",
"xq7xsmmucquqVCcqiTM/mPsMJVBcNbPP9xqqqmJPwVcqbV79uuq7h9Ncbq,cwwcq",
"7qum8wumwVCq{c;cwiMNVucMccCNfbM!VucbNmcu5cxqjN;;wuj+q;Nqc7bCNjqw",
"cxMcqw8N0wxuPc5VjNiuqkVaMqCcbcqiKH/WNuccM7cVqqq5uVV;h9CvM;VBcc9w",
"PNMuwBwNj3qyqvVmqbV9jV/MC7u;xciHY]QVwuucTeCVj9bhcCBkjjALJvMmwNNm",
"MichjCqa57CcecVwjCMuq!Teyq5qb9sHE[+qiImcIiLuchcqcVqjwxcviiuq5kB9",
"uVseHccCvhNiM9SMH/9hc_MNi$xxc7iKlh99VQxqiPbxxMciVHuuwBO9bqCq;Pwv",
"ic6LuuyL]v:s15QuHHvhbMcxNmccCuMi>h97ucvc5MqyvCMLMvPmNc;5M:qwjMiL",
"cuuH7yMi}Muu8c9cvccb9yxjccyM/wHv>h7cMqMI@cyyVCiMvqCcccMMu7$qivCM",
"qqxvciPuMHvuMcwuychhqqqb5xyL/qcc9hqvCMVP90cyvMici:xc*cPL7c$uwuMy",
"vxqLLMHcxqchjcCacbv;VqjxqNvyMwqq7cb7uCMuV,qyuCCvieNc9c/Jbn,V7yuq",
"Mc7v!MIMnhffjM1McVx;Mq7qNh,:6u6xycc;,Mqwc&qywMcqvyCxccPMcViv:vLv",
"y7qqQM{Hn`7fZ71wcv7qwc50k;;>quwMMvyhh99b,;uyiu9q,uw7wuNxyLMi7H{v",
"vu:LvyPvIKJ<N6Mcx7hyMuiN59hhjNBsMn7hl>hhhyHyMbqZ;vwucVqcMviGii`7",
"wcMiNVqxLNk9N5MsNqq7qiPw;9N7xbhh,:yyxbhguMyncxuq&vvLiW~,MVvnx7Cq",
"qxvLCjqyuw0999CIVuvLMcMNccV>wVx7:qMchxfccW,;xxu7,vvyCLLexy76cxxq",
"hc$iM6vumVwb0bxcqwcMuccMbyMqxchqeuMuybbexnb;iidi9vvqcjqiwqqq^Sww",
"fVyy8uPJqu9bjjq5bvcq7yqmvqCPVwhcquiyvnbqxqLMuM!H7yvqhq:McMcc^Cwc",
"gxyuaCCueq5w799cNq7:iwuBiiPPVqqq;wmubxhhu7IM7MPc7qcygbuMVCciwwwN",
"b,euMCr7nyqqjqjbqq>qMiMuucMwyuv7;0wjA<,,eM/y1cxx97VqNqcMbMcMw500",
"buLMumcnbq5qMcMcqAccNum1ycc7yvCujwwcV>,xyu/uuuqNqxv7V5qbybMCcVwq",
"crieqCLxvvicvvCV>VqMu%uquvcuCVVMccimV+w^c.LMPcicqv:eWcqxvcMcM_hg"
};
