/* XPM */
static char *grass_31713258498[] = {
/* columns rows colors chars-per-pixel */
"64 64 97 2 ",
"   c #2E5614",
".  c #375D14",
"X  c #355B1D",
"o  c #395F1D",
"O  c #36611A",
"+  c #3B631E",
"@  c #3D681D",
"#  c #2F5526",
"$  c #365B23",
"%  c #3A5D23",
"&  c #3C5D2B",
"*  c #3A5B30",
"=  c #3D6424",
"-  c #3F6A25",
";  c #3E642A",
":  c #3D682A",
">  c #3F6431",
",  c #426C1E",
"<  c #405D2D",
"1  c #416525",
"2  c #436B25",
"3  c #496E26",
"4  c #42652B",
"5  c #48672E",
"6  c #456B2C",
"7  c #496D2D",
"8  c #467125",
"9  c #4A7326",
"0  c #4D7B25",
"q  c #47712B",
"w  c #4B732D",
"e  c #4D792C",
"r  c #517B24",
"t  c #5B7F25",
"y  c #52762D",
"u  c #517B2D",
"i  c #5B7D29",
"p  c #436632",
"a  c #496733",
"s  c #466C32",
"d  c #4A6D33",
"f  c #426539",
"g  c #466B39",
"h  c #4A6D3A",
"j  c #526F35",
"k  c #516F3B",
"l  c #467232",
"z  c #4C7333",
"x  c #4E7933",
"c  c #4E7439",
"v  c #4E7A39",
"b  c #517635",
"n  c #527B34",
"m  c #597E35",
"M  c #52753A",
"N  c #547B3A",
"B  c #597E3C",
"V  c #466941",
"C  c #4E7540",
"Z  c #537442",
"A  c #597741",
"S  c #567D43",
"D  c #5A7E42",
"F  c #4F8428",
"G  c #54822D",
"H  c #58842F",
"J  c #57882F",
"K  c #5D8C2E",
"L  c #558134",
"P  c #5A8335",
"I  c #5B8833",
"U  c #56813A",
"Y  c #5A833C",
"T  c #5E893C",
"R  c #5F9132",
"E  c #678C2D",
"W  c #628831",
"Q  c #60863E",
"!  c #618C3D",
"~  c #6D8E3D",
"^  c #5C8442",
"/  c #5E8942",
"(  c #5F8248",
")  c #608543",
"_  c #628B44",
"`  c #698F46",
"'  c #668D49",
"]  c #669246",
"[  c #6A9544",
"{  c #6C9841",
"}  c #659048",
"|  c #69954A",
" . c #6D994D",
".. c #709A48",
"X. c #6C9253",
"o. c #769F53",
"O. c #79A34F",
/* pixels */
"d x u 8 T x 6 z 6 q w 7 z z x 2 6 w q e q 2 w - q q 8 n z w Y u h q s 6 M z H N m . 1 Y n z e w Y v 6 b M j 6 p 6 4 M M B x 4 d ",
"6 2 u 9 8 x 6 6 q w 6 = z 6 4 2 4 6 2 q n 9 O u - 8 n - s z U 6 4 2 M N l 6 m v N w n u T w z n z n N 6 n = g c 4 % M M 6 4 2 6 ",
"1 n 9 w n N b n U - - : 7 5 d 6 a 4 6 e w y 3 u v L x - : z M w s n M 5 p a b a s N P e n q w U l R w M ..w f S 4 < 5 6 1 6 6 : ",
"q T 2 e N z N U } q 6 z 2 ; d 4 4 z q x 2 w u 9 U L e x l z N x z w b s 5 d k a 6 U n 2 w 2 w n l T T ' I N g z & h w 6 : 6 ; z ",
"e e L l q : N U Y w w s h 6 4 ; 2 n 2 x q : 1 z T F L w w q N 2 F q x w b 6 p d w Y b 6 z 6 e n z L ] e 0 x % s & s 7 w : : = 3 ",
"q n q q 6 l N N q 6 c s d z b + 9 9 e e q 6 : v ^ q n w 6 6 6 6 L L L 2 m v p z e Y x % S s b P v : n n n x N 4 p c 1 = 4 1 + w ",
"x U @ q v 6 s q 2 6 D N - 4 N e y w n q : l 6 z : = 6 z 6 s = z F : L u n U c 6 x N e 5 A s M n = n 2 z Y n ^ e p k 2 + 4 = 2 m ",
"U - - I x z 6 z v 6 6 5 z e n T 5 Y 8 - x 6 - w ; M S 4 l > s l J : e Y x 2 p n ^ Y y Q 1 s h 4 Z w 2 s P q s L p 4 w 8 6 5 n i ",
"/ 3 7 N v q 1 x z 6 6 w x v x z w ! 0 s ; : q ; w M _ n - v e q = 1 z c p % s z 0 L Q e e ) 2 6 z s < M b 7 b h ; q 2 b 1 y w z ",
"I 9 5 7 6 6 6 l s = B M Y q 2 N z v w v c 6 4 2 6 z _ n % w N n : 8 - l m 7 s 2 w x T e L ] N g s 7 M b b 7 5 : q = n d d b 6 l ",
"G u 7 d 6 6 6 s 4 M B b n = b 4 & p 4 w z 6 6 5 6 v 3 7 $ s u 3 ; : : M M 6 6 O z 6 ^ Y P w b s 4 7 ) w 4 p s n w = z d 5 4 6 w ",
"0 n w x z 6 z v p s s b 7 b N b Z h s P N 4 p b w v z ; d 4 m w & g 6 q > s q s l 6 ; S 6 q e P s 7 N o $ 6 s z 9 z ; z 6 p p w ",
"= 6 4 j N n U N ; 6 5 N 5 m ) M a h b ! P 4 4 5 z c d - h 6 T b 1 f U L > v L l 6 6 ; ; M v T q 6 p s % 7 e z d e ( 4 6 d M p = ",
"z s 5 d L L x 2 z D 7 5 1 5 B < $ 5 m 9 w z s ; 6 s X w 4 M n 3 6 Y / @ 2 x e ] s z ; b x T x O = > g s n u n z x M d 4 d M % 4 ",
"s 4 5 z x U L x D x x 1 j 4 4 h h 2 n v z 6 4 6 7 6 x n z l n z s L T - 8 3 s n N 6 + e 8 w v 6 4 z c s d 5 6 6 z 6 z s s 6 % z ",
"d ; 7 x x q w M q Y m w B 6 h A p 1 6 z z + 2 1 z s n T v N N z s z v = e s p ; I , 2 s 6 6 T w d b w 1 4 g p 2 > q n v s x 3 p ",
"M X $ h d 1 x P 9 } F I T N p s p 1 w r M s c e h 6 T T U M z b M 7 m m > 2 r x z l - O 2 n T u u z d w n a s 7 6 6 2 b b N 4 : ",
"= % 1 d w b / L q T / L U x 2 p b M D b s s z H z - e | U n x x 7 x m w 4 = u M 8 N x + Y b N d n e w T _ h s d 4 6 y Y 1 y d s ",
"= 4 - = n x ^ w q , T 6 z 2 3 b u w z a 6 p 1 0 - 8 L [ L 2 n w N z 6 N s 4 s 2 x x e 7 Y 4 d 4 Y y 3 b b 1 : 6 2 6 b Y w b 6 4 ",
"X 7 5 , n n M z ] 6 4 z % d 2 B F 6 ; g b l e 0 8 P ! L x 2 n z n c s m % p a % q w z w d z b 4 b w n d 6 3 6 s b 5 3 3 B m d z ",
"4 M x q x ' N z o.6 : 6 7 s b y F c 7 d u d Y n L T L x 2 q w N x z s 6 o < p 5 - M M z d ) 7 d 2 n N 6 4 6 B c b 2 y w P y j z ",
"M 2 n 8 w Y ^ x N w b 4 h 2 m w z z b y 9 1 v z Y 7 z M w 2 q v v z 4 d y 4 $ k s z M v x Y n w z N 4 p s % B s b 6 b Y w 7 7 1 ",
"5 3 ^ - q 2 U Y 6 Y N M 4 b w M z s b L 6 s s q 3 4 p b b + q 6 4 P b v 3 m d z d 6 x x w b _ 6 N U : M h 4 5 1 b 4 q e + w n d ",
"2 ' ^ l q U e q 9 n x 6 3 v d n s 7 D I ; v c e 4 M & p d e z 6 h n b g 7 W ' 6 z 3 2 N P w N 6 n M s M 2 s ; u N e x - = z v 2 ",
"e L w 3 m r 3 y 2 y 1 7 6 s Y L w L Y Y 8 e U L s g > ; c 6 d 6 7 d 5 B i E m f 5 b x n n P b N l s l T 8 z M Y D N 5 w + w y x ",
"M N h 6 y 9 b P n 7 s 6 n n Q L m M z N e L L L v : s 4 z 3 = B 7 < k ~ t m h 3 n e w 6 v N n N z s / Y n z 5 N j < ; 6 e 8 z z ",
"M N s s y 3 b Q n 5 s s x T L T v q q v U e w n z q z 6 b n e ) _ p k W r h 4 r T w 6 : d M x u M z / n w q 6 6 4 4 g 4 v x M 6 ",
"z N s s 1 3 7 b M z w w : z 2 u q : l 6 T q x n 2 x l = b n n x m s 4 b b b 1 n T q z 6 x N e 6 z e e U w n M ; M s 4 6 6 s d v ",
"u T z c 2 b h j y n L 8 z s d z 6 6 s + M w n m 6 6 6 - 7 7 ; o 4 6 4 z b 9 2 z M w n e x N z 6 z e u } l L ^ h 6 z 5 s 6 M z z ",
"I ~ n v 7 m d w 9 P M 6 z v k p 6 z d = 7 3 d d 6 6 4 s z 6 5 % w s s N 9 3 d s s 6 n e u n s l v w U / w e z s c 6 3 B M 6 4 x ",
"L R z s w w 6 w e U 6 d 6 a < & w M z z b n d 6 6 s 6 s z d D p 6 & h n w a h 3 6 v n x x N z N z s q L x x w x M 3 y 5 p 4 s 7 ",
"x U z s b w e I M w w 5 M p 4 j n z s 6 M N x ; M 6 d 4 4 b M p > s m u e h s m 2 x l l l z q e 6 v : P ] z z n d 6 7 a a g h 7 ",
"s - U w 8 e q x s = y b % 1 j 4 < c s 4 x s ; * k h s h 4 b d z z z N z x - T T , v = n p 1 3 v 6 M 5 b B 1 4 S s B s a M h a 7 ",
"d 6 z w e 2   N j X 1 B b s d 4 h h 4 s z 6 s ; 5 M h s m ' b d l 6 6 6 U z T x n z = n s z / z N z b 7 4 a s 4 d z 4 4 z 4 h 1 ",
"s - 6 U n 1 X U b 4 s B B h f h s 6 ; s 2 z N 6 4 M z w _ ' n w s = ; c N z x v e ; 3 b S M 2 M w 3 s a d 4 6 M z d 6 N 4 s n h ",
"w 6 n ^ 6 w z z d s h d s d > s 6 2 s 6 6 n U e p s x P u L N z : = v z 6 6 : z w w N P T d 6 6 2 n d h s 4 d z 3 s z ' s 4 y b ",
"q x v 6 6 6 z z d y 7 4 d s & p n 8 z q z x q L b 6 z n 9 w Y b 4 z M 7 6 s 6 z 1 ^ N 2 q q 6   m z 6 p p s v 6 z z N e j 1 w 4 ",
"u n e 1 v 6 6 M z n Y h g b 2 d n e L q z v q L M z v 1 x w N w z N 6 d z p s s 7 ` P b _ ^ l U D 2 : s s M 6 z w M e + d b y 5 ",
"Q P N v v z 6 x n N Y s s b 6 7 q L I q w z w n z M l - n z z 6 z s 5 d d ; p > y m z X.] n / ! d M N 6 z M 4 s 6 n 6 7 n Y 7 3 ",
"P T n 6 z n q L ! w z x z s 4 b e L G P z 6 d z q M 4 h d d 4 6 n 6 ^ a p M s & = w 7 M w u q e z M M z s 6 z z M n e d u w 4 N ",
"N | 7 = z 2 z n n s q x M x q s z d z N 4 ; s s c s 5 2 A M 6 n x x T L 6 v > # - z 6 6 z v w n n w p s h p z d z B d 1 d d 3 N ",
"N ) N z w - b x 6 c l n n Y w S z 7 m + n M X.n z 6 b 1 N q U | N v e v s g : 6 N 7 6 6 z n n e n M s s s 4 d z 5 b c 2 b B z z ",
"e b z z z 5 m n z w 6 z q T v z 7 T m T x ^ Y n v e Y w / 6 N U v q 1 v s s x ~ ^ z 7 3 b m e w N N z d s ; s z 7 z 6 s d z b 5 ",
"z z 6 d z z b y z 2 z s n N M 7 z ^ N ' z x w Y U n N z D M Y L 2 6 h s 6 x P _ 7 n z 6 z n ; 1 6 w 6 1 2 6 z c z z = c z 4 n 5 ",
"6 6 s b z 7 w b 5 n m d ' z 4 w s n N z b w z n v x n z 6 c v T n 7 M z w y x s 1 z z s 6 z $ = 6 z 6 X 2 1 z d v : s ^ M 6 h 2 ",
"x 7 b b 1 7 b b h b z z ^ z 6 x 6 b x 7 z z v w z q M z l 6 6 x _ N T T n 6 s z M 6 x M 6 s s ; w ^ m = 2 1 N n n 1 U N l z 5 d ",
"^ n x w 4 z d b 5 % 2 q 6 M n z z z n - s z T N n w x 6 z l e L T  .T z d z N w _ w n U 6 6 v s 7 B M 4 d z N Y L e N z 2 M w d ",
"e n w 2 b m 3 M 4 p n x s v n z 7 ^ N q w / _ 9 6 2 = 1 z l e I R | X > n m L x U x U x x 1 b 6 w B s d s s w e x x 2 6 6 z b d ",
"z U 9 9 N b z U e c x u N 6 Y x L / q 6 w ' n z s 6 z s z 6 q P k 4 s - v U s z q / l q z n x e U n q e z z $ & x w v 6 1 N w e ",
"z n 2 Y z z : Y [ c 6 e - ; N x P n z s b z x M n z z d N 3 n u p s : 6 x z v q q z 6 l v U n x n z Y x b b % 4 n 1 6 z 6 x n n ",
"z z 3 B 6 s z b O.m 6 3 w b 3 6 x v z z 6 6 6 6 z z 6 N T 2 N v & h 6 z x 1 Y } = : q z x L z n U @ ^ M ; z B w q 2 = w q e Y n ",
"s z 6 b w v ^ e w P n n M 4 b x 1 c z 2 4 w 6 z ; 3 w T Q 2 e z 5 5 z x U U n U 2 6 z q v x q n w 1 x z = w / P 2 n = 6 q q n q ",
"e z 2 Y Y n N e z 1 h d b N n w w z z ; n 6 w d 4 M b w n 3 6 6 2 z b : w ^ x 6 c 2 d 6 q L x n x q z c 6 z T P q N : z 2 q q w ",
"n w 6 v T L T e c w 5 f s b 2 u n M s : n 2 ; 6 M b 1 o 7 d 6 s 3 n w ; 1 z x z z X 8 q q N N : v q B z w b Y N z N z N - e Y x ",
"e 6 : 6 Y n  .L z | 2 h M + w e 7 x - 6 7 z 2 7 h 1 % ; 6 d 7 n n n 2 d h p 6 6 6 O q q x z 7 4 = z z = d b 7 N w n v n 8 L | e ",
"x 6 4 ^ x 8 Y v ! K n 4 M w z w w 6 6 q n q z z 1 % 7 b 7 w n b x w q 5 d 4 4 s 6 v L q n 6 4 A + b 3 7 5 n z 6 e L x n F e Q w ",
"1 N z Y w w w y Y h a 6 c 1 w L z s z - 2 x ) 2 ; d N 1 2 N b 6 q = s q 6 h h s 3 ) w z w z z 6 = z v n y P ^ 6 N N M z w 1 N 2 ",
"5 z b n Y w = 4 w b p 4 : 4 N T D w q Y e w z N 7 z N X z z z 4 : l b x z h s z b N 6 4 2 q x 2 1 w v w m Y U w w 7 w s z 2 w 6 ",
"s s 1 w n 4 B 6 w S 6 c 5 z v q 4 d 7 n 6 n x b M w n z 6 z z 6 - e n w z w 6 z d z v + , L e e 5 x M 6 v 7 2 q 7 6 1 6 ^ T 3 6 ",
"p ) 5 w 9 2 B ^ 6 w 1 M z 5 6 1 b M b 2 2 q 2 7 v q M ' 7 s l s 6 q u x z x v s d s N x e L T L 2 z n 6 6 4 - n b b z n Y N d n ",
"s q q e , T N b z 6 1 5 4 1 6 h b 5 2 = z 3 n N w e ^ Y N q 6 6 4 3 e z c q z 6 e 3 b T 2 q ' w 1 2 x 6 4 d e L N B z e w 2 6 z ",
"d 1 2 w n T 9 2 v 6 w 6 2 5 b b a d 2 2 w x x w 6 x n 6 7 z z 6 % 6 7 5 Z : = : 2 N _ 9 O w z 6 4 1 N 6 z s z n n M z x 6 6 s 4 ",
"z x Y N q q x z w 6 6 z b z N 7 s z 6 n n w w 2 w z w 1 2 n N z 6 s z w B ; : w 6 n { 2 6 U - b 4 w u 8 M 6 s q 2 z B N y b d s ",
"x x n 2 6 Y v z n v 7 b x w Y N 6 M z x q - w - 6 n n 2 _ n b n z z z n z X s T v X w N T v e y s x , 2 B z s z z b M w n ' h d "
};
