/* XPM */
static char *_0021713259306[] = {
/* columns rows colors chars-per-pixel */
"64 64 96 2 ",
"   c #30550F",
".  c #325B0F",
"X  c #2D5414",
"o  c #315611",
"O  c #335A15",
"+  c #355C1C",
"@  c #395E1C",
"#  c #376115",
"$  c #3B6414",
"%  c #37601D",
"&  c #3C641D",
"*  c #3E691D",
"=  c #375C24",
"-  c #3B5E24",
";  c #3B5F28",
":  c #3C5D30",
">  c #366021",
",  c #3D6424",
"<  c #3F6924",
"1  c #3E642A",
"2  c #3F692A",
"3  c #416815",
"4  c #41661D",
"5  c #446C1E",
"6  c #486E1F",
"7  c #4A731E",
"8  c #4D781F",
"9  c #52751B",
"0  c #517919",
"q  c #416625",
"w  c #436B25",
"e  c #496E24",
"r  c #42662B",
"t  c #456B2B",
"y  c #496E2C",
"u  c #467125",
"i  c #4B7325",
"p  c #4D7925",
"a  c #47712B",
"s  c #4B732C",
"d  c #4E792C",
"f  c #547725",
"g  c #527A24",
"h  c #587A24",
"j  c #51762D",
"k  c #527B2D",
"l  c #587F2E",
"z  c #436532",
"x  c #466B32",
"c  c #4A6E32",
"v  c #4B6E39",
"b  c #506F33",
"n  c #467030",
"m  c #4C7332",
"M  c #4E7932",
"N  c #4E743A",
"B  c #4F793A",
"V  c #517634",
"C  c #537B34",
"Z  c #597E34",
"A  c #52763A",
"S  c #557C3A",
"D  c #597E3B",
"F  c #577F40",
"G  c #5A7E41",
"H  c #607F43",
"J  c #4F802F",
"K  c #548126",
"L  c #55812D",
"P  c #59832D",
"I  c #5A892B",
"U  c #568134",
"Y  c #5A8235",
"T  c #5E8935",
"R  c #56803A",
"E  c #5B833B",
"W  c #5D893B",
"Q  c #618435",
"!  c #638A35",
"~  c #61863A",
"^  c #638B3D",
"/  c #6A8A3F",
"(  c #629036",
")  c #60903A",
"_  c #6A923A",
"`  c #5C8341",
"'  c #5F8942",
"]  c #618642",
"[  c #628A43",
"{  c #688C42",
"}  c #628448",
"|  c #658D48",
" . c #679146",
".. c #6A9345",
"X. c #649249",
"o. c #6D954F",
/* pixels */
"t 5 i 5 K k x m s d C e y V C e 1 4 e s w & u < w m U M a a ' N y M Z w N m U C R O d Y C i S n ` A z A m Z r z x z v S S s s y ",
"y i 5 d K L 2 w a d < w V y e y t % e C d O O d w u S < w M M y 1 t n N m c E R s a C C R s s m A m C s C 2 C n - r A V y 2 2 x ",
"u U d d k k m Y R u O m b w V t < t C s C C t d M s m * M C M M t m n N 2 r E i w Z S M Z m u C < ^ p i  .A s d 2 w s r r x 2 r ",
"w k d t C i U Y W < % C y t m w @ s k e s R s w C s t a E s U d s M m c z N Z 4 u S R s t u s m & W i Y E ' S C w a y , 1 x q c ",
"d k a e C V k i s a t n t y 1 w w u d R y < y j C M M d M d W u U a m t N m d p M R C w s y V V m B x t d I U d c y q , q r 4 e ",
"u a & * , e 6 % t y N n t c t w s s s R q O w d U u U d a d M d U d W u S N i k a D s < D s A H N n ; O U L d t z y q e t q 4 6 ",
"J B a 6 q C C c x 2 N n y n R m s C Z a t s V a m < t t < a t m < a R d C S Z C j Z j r A c A b 2 w + s u s U s : b j l y @ s l ",
"J 2 s 5 r A C q 1 x > 1 N n R R s s s w r y 4 i a S 1 , 2 n n r > , d E C C A m E E V D y r b r V ^ 3 7 C q m V : c 6 l y r D V ",
") > q w N m p 2 2 2 u < B S t C s Y i t r w V r U i j s y N E R C u u s M 1 n m d W W 5 U R y z j / y t V V c r - m w C 4 C m m ",
"( s & i t d w a 1 > M m ` n s N N s s N - c j r u e k j s t E k a 2 w m N t m m k s C a C ] A c j y j j t y c - q < V j V C y c ",
"K C w k V M s B v x ` A S ; m y 2 z q y n c r c p d q C r m C i , x M C n 1 t m $ w s m u N m y & e V y y V r V w q s r b r t m ",
"u C V s V w s m z r t A c c D V x N r d [ ; z c k C j m r t C f 1 t x a t 2 t < % N N n y t s D q - c y q y V w s S r c r r c y ",
", r q y e d R E ; r - V y D H A c v c h C - N q V t m t z x S C 2 v m w t t S m Z A ; = c C Z d q - q r y V D e ~ R ; b b G c @ ",
"v c z r k d C u A V q r c z A ; q y y i u c t 1 c q q t 1 F S y z B ` w w 1 ` ` y t y t q e / f + c q r V V V C [ y r r v A - q ",
"b e y t T l n u m A j q b ; c r r V s m s s > 2 r t C s d a S y v n a w y y N a C q < y j f ..4 r c y y y y a y C < m q q c - b ",
"y l i V P W r S y m C V G z z G t 4 4 F v + y 1 m Z p W M S ` y n t u C V a t , j a w i Z 5 / j c A y - D E y S s s C y r m r x ",
"V @ t 1 C ..i Y n R J J W B x N 1 z z D m v N d Y ' d p R C U N N s 1 F t 6 p N * a y a $ p Q C V m t a S y q C w Y S p A k m 2 ",
"q @ r w s w Y Y 2 B M a U C a x s N S s 4 r N U u < u u B R e c x r r r t 4 C y i w & w d W Y t C s C R ] m w ~ & i C Y , e n N ",
"- q ; 1 s y [ j , 2 A 2 2 u s i U t a t w q * g * a d U R s i V E x t D e @ y C Y u s @ Z V S r Y d d m N y 5 f 1 e m ~ c l y n ",
"@ c r @ s C a j S t y N , M u Z d < t a V r w 8 u R W Y C & k m C A z C e y b Z w d V y t D v v M C C c c t j f C j y 6 G C s m ",
"t n a , V R w m o.< q y m t w C d n c c A c A l R S s Y 4 C 4 D U N z u Z q r q @ V A C n ] m y a C N r 1 r { Q s p j 6 E j s C ",
"N < < t C m C m Y u s < y t c s s x y V c z A d E 2 s 4 V q l D u y > Z { q - A c m D y S S S e M s 2 2 z 1 D Z 5 6 Z ! V f V w ",
"2 w S s u w C m w R a y > ` m A t , y C a x n w t 1 y 4 c o C s r E V ] V k y v r t w j a R E C S a t M A A w w U p w T r u S y ",
"t R X.s a W s a N n 2 & Z s s M & r E T 4 N N s q x D e - w s r N m j V S l D z x q p C ` R ' M B M s s < C q j R k % i t w N x ",
"s R D < V V s e & s & E k k M M a A E U w U P k x r N r A , q y n z c H 9 Z A ; q s D C C [ C S a a s Y e s y D E S c y * s s y ",
"C Z a 4 / j e Z m s s ` d U C S m Z C M d R R l n s m n w t w S s z b / 9 f b b s C c t j E u N n B J X.C w r D b ; r t d e s S ",
"s Y Y 6 Z k s D C 1 n C u ' E R a 7 < 2 L s V d s s u s e C j Z R t c ~ h 4 r y D D w % s Z w V B M [ s s M ; z y z z - a C M s ",
"s p k U e 4 y A Z q t t s W U s 2 * < M E w C j C M s a D S C y k r z y j y y j C s w w C E w x s ' a d u C G - b z 1 , t V < y ",
"J M k W e y x V j y y w C T C i a 2 t s C s Q j M u u 1 Z y y @ u t c a C y m j w & a s Z Z t q i Y 6  .i C E c t A A q q A c z ",
"J ' s s j ] s r e s s a M d l y < N C 6 y j ! e r r t r m r t , y t c M D x t e d w C C C C s b Y $ Y P P l j j m t y m A z c A ",
"W J * t V j , s s M m m w e y q e M Z w y C D r x v t c A c V b t > x C A v x s C s S C V d V D C 5 k p ^ i V e n t q t v z v r ",
"J J d t y y k l k a y n 1 y V t s 8 s 2 d M x 1 v c r y V y j e t v R R s 2 v A i a U C Z e q A 4 e e ^ ~ ~ q C n N q V r r A j ",
"z r S e e U p d t ; A V r ; z - 1 y C w s m j e y C s N r A t q n D s C N t E C n s i ..C 4 V m r a C E A z z V V V y r G c c q ",
"m t q w C k & s y + q A V c c r t A w w t - y @ c C t t ` | y r s w a s m u S k M s * Y j s G v c S m y c : ; Z l s s - r V y w ",
"n u w y Z s , M j w m D V S c c u M w t r r , r y m u u ~ | s V D w s C t t s j m @ s j j Z r m m D t t c v ; y y s c x r c c y ",
"m a s V n a m M j j V b r c , r u u w q v c q f c t d k d U m C C w s V t ; , s A y S D C V j V y n n A r r 1 t w s V A c r b j ",
"M s s s y c N N V y y r x x = > a k e u ` e j g V t s k L d M C @ 4 q y v ; - D V D V , q a s e V w r c r z r 2 s w D y r b y y ",
"d U s t n y < S D N G t v b t y C d s s ~ e p g s s M w E i s a + r r y A z ; G V C D w y N y s l s r r N m t n u t S - c A b - ",
"C Y R s V n < E U J ` x t V y e d i l d V y w C y j a w A t s 4 m m b b A A r D f C u N S t a j f Z D y a w s C t s s t V V V q ",
"W s R V M E M M W a u t r j 6 f d k i k s q c m j V , m r A C @ ` s V y b H q C Q i & X a A y C _ Z D q 4 e C < U a C y s m < S ",
"s s C D Z w e S R r 1 1 a C w e m w V A q @ y m x c y > D S M C C i Y m c z = V i y + < Y 7 0 P C C g f q c e U C M j w s w t E ",
"M d E C y q C Z u x 2 n a ~ d V w s A y A V ' y , t y r S t Z { m a s t t r q y P m w Y V 6 Q e ^ U j V i l a a t M V y E S M M ",
"C n s w y j C t u n 2 t t ^ j Z u ] C ] V V m n t M S s [ t Z l N t w y t t C ^ ! w d ) a d d r ! a y c Y p w m 2 s w w E V s w ",
"t a a a V s d V S x y q Z D j V m [ C D D q e S C M C w E C D C 1 2 t 1 1 V E E i t R Y 1 n < v u d V - D j C C m t r V D t t r ",
"t t y s y s s y t + t w [ V s a s [ s s D y s C c 1 y t N m t Z M w B N s M n m q A a u > v w ; r < w @ m ; y f m @ V G A r y z ",
"C t n s @ m D @ <   w C E s t m w E w y y V s y t , N N m m @ w W U ' ' M y t A S v s s z c i q x a Z t z v [ i M < D D y y b y ",
"Z S C M , m C y s w d Z m N m N w a M < m M R a m y n 1 t C s C U W ' a w s M N ^ s  .Y N z j ^ s c b c v t C M R M S m t y D c ",
"s S w w V S e V m w k a t m m w s E R t a ` ` w y q y t k w L W R M , a U u a s I Y I w N x Y e & G N z m w w N M M w q t t A t ",
"i C o y m V s S M < C w s t V a L X.x 2 B ' C v s < S A s & k T c x z x s r y c L W u u u m t i m R a M y m + z C t N n , B M M ",
"C w w m t t q E ' a t s w > E w U W n N n m m m S d C m m i Y C @ , 1 r t @ V A s s t s S W C k U w E M V S q , s t u a t S C M ",
"E u w u 2 m a 2 o.M C r r y s M p M m c t t m t R s t k R i C C t w t n m q w q y 2 n N S k p k E < ' m y n S s u t & w s C U M ",
"S C n C a m R w M A N S D y s a k k s t y c c q n s s Z W t m N D V s Z ` C w O > = n n C R Z Y M u N n + 1 [ W t m % < a a s d ",
"C M t R [ C S N V y r c y y D s E l y w A y r s r N V y C c c r E l i j V S s w m m M w s | S t a s N N < y E W 2 M < t a 2 t w ",
"S u w s ` ` t w s y m y D Z e 4 e j s 4 A y & y m c q , y y q ; Z Y l i , t y D u w w a s S m t s a S y m S S S t R m M a a a < ",
"u a s C M t & 1 S | y , G w j w o y d w V c & e m - , q y w @ w d Y Q p @ , t M a a a d s & , c s u s q y V c t t M d d u d C w ",
"N a w ~ D q q t W E S r V y Z i < y i w n c q C - @ y V y i 4 h t k l e @ s a d < n M u Y a D ` a U w V y V A r * * * * # p U * ",
"1 N C R Z s m r m N x x n y s R q 1 y . m x W y r t s V k V j V > < m & + N c A M W a a N B n t t a C U B ` R 2 * @ q , q q m x ",
"t t s C Q C y & V c y r r a E E R , 4 Y S Z d s r y V e V V V q w a M q y S r c m C + < t m u a 2 a C m M ` M M k d q q y t C 2 ",
"r m q k C t S y V N n c 2 y S y s S Y ^ s d T w x m a s e V m t a w k i C S w s a R < O u s u k t s M t B N * k L P i l R C C w ",
"m A q s a w E E t a t m y S V w y w C p u k Y i n C V E y j y S j q k V t m V a ' R U u a U W U t a M 2 n < # L d k l W Y R t C ",
"R t a w m E M M w y > w m A m c r s   e 6 s R U s s ' R S t n n c , s N c r N < ..* U W w C [ u < t M t n 2 w T l Z C D s V , ` ",
"R w w w M W M w V s t < S y s y V j e t d C M M w m Z t m y m t r y y y S x 2 < U p W U , M n 2 < 2 M 2 N t d U C R y Z s y r S ",
"k k w w a B R t V y y t V a m m G l w U ! u A < 2 M t 2 t D s V t c s n G , t n a U X.C d R < a r x t < A a a M t M s C V C x n ",
"p j a * t S S m V m w m < a s V y l C  .8 * n w t Z N u D E V C N s C A N O m R N X C M E M a a x a < 2 ' n a s 2 t C V V [ y y "
};
