/* XPM */
static char *result[] = {
/* columns rows colors chars-per-pixel */
"26 32 3 1 ",
"  c yellow",
". c pink",
"X c White",
/* pixels */
"XXX                 XXXXXX",
"XXX                 XXXXXX",
"XXX                 XXXXXX",
"      ...........      XXX",
"      ...........      XXX",
"      ...........      XXX",
"   .................      ",
"   .................      ",
"   .................      ",
"   ......     ......      ",
"   ......     ......      ",
"   ......     ......      ",
"   ......     ......      ",
"   ......     ......      ",
"   ......     ......      ",
"   ......     ......      ",
"   ......     ......      ",
"   ......     ......      ",
"   ......     ......      ",
"   ......     ......      ",
"   .................      ",
"   .................      ",
"   .................      ",
"      ...........         ",
"      ...........         ",
"      ...........         ",
"XXX                       ",
"XXX                       ",
"XXX                       ",
"XXXXXX                 XXX",
"XXXXXX                 XXX",
"XXXXXX                 XXX"
};
