/* XPM */
static char *result[] = {
/* columns rows colors chars-per-pixel */
"26 32 3 1 ",
"  c yellow",
". c pink",
"X c White",
/* pixels */
"                    XXXXXX",
"                    XXXXXX",
"                    XXXXXX",
"   ..............      XXX",
"   ..............      XXX",
"   ..............      XXX",
"   .................      ",
"   .................      ",
"   .................      ",
"              ......      ",
"              ......      ",
"              ......      ",
"XXX      ...........      ",
"XXX      ...........      ",
"XXX      ...........      ",
"XXXXXX   ........         ",
"XXXXXX   ........         ",
"              ......      ",
"              ......      ",
"              ......      ",
"   .................      ",
"   .................      ",
"   .................      ",
"   ..............         ",
"   ..............         ",
"   ..............         ",
"                          ",
"                          ",
"                          ",
"XXX                    XXX",
"XXX                    XXX",
"XXX                    XXX"
};
