/* XPM */
static char *result[] = {
/* columns rows colors chars-per-pixel */
"26 32 3 1 ",
"  c yellow",
". c pink",
"X c White",
/* pixels */
"            XXXXXXXXXXXXXX",
"            XXXXXXXXXXXXXX",
"            XXXXXXXXXXXXXX",
"   ......     XXXXXXXXXXXX",
"   ......     XXXXXXXXXXXX",
"   ......     XXXXXXXXXXXX",
"   ......     XXXXXXXXXXXX",
"   ......     XXXXXXXXXXXX",
"   ......     XXXXXXXXXXXX",
"   ......           XXXXXX",
"   ......           XXXXXX",
"   ......           XXXXXX",
"   ..............      XXX",
"   ..............      XXX",
"   ..............      XXX",
"   .................      ",
"   .................      ",
"   ......     ......      ",
"   ......     ......      ",
"   ......     ......      ",
"   .................      ",
"   .................      ",
"   .................      ",
"      ..............      ",
"      ..............      ",
"      ..............      ",
"XXX                       ",
"XXX                       ",
"XXX                       ",
"XXXXXX                 XXX",
"XXXXXX                 XXX",
"XXXXXX                 XXX"
};
