/* XPM */
static char *result[] = {
/* columns rows colors chars-per-pixel */
"26 32 3 1 ",
"  c yellow",
". c pink",
"X c White",
/* pixels */
"                       XXX",
"                       XXX",
"                       XXX",
"   .................      ",
"   .................      ",
"   .................      ",
"   .................      ",
"   .................      ",
"   .................      ",
"              ......      ",
"              ......      ",
"              ......      ",
"XXX      ...........      ",
"XXX      ...........      ",
"XXX      ...........      ",
"XXXXXX   ...........      ",
"XXXXXX   ...........      ",
"XXXXXX        ......      ",
"XXXXXX        ......      ",
"XXXXXX        ......      ",
"XXXXXXXXX     ......      ",
"XXXXXXXXX     ......      ",
"XXXXXXXXX     ......      ",
"XXXXXXXXXXXX  ......      ",
"XXXXXXXXXXXX  ......      ",
"XXXXXXXXXXXX  ......      ",
"XXXXXXXXXXXX              ",
"XXXXXXXXXXXX              ",
"XXXXXXXXXXXX              ",
"XXXXXXXXXXXXXXXXX         ",
"XXXXXXXXXXXXXXXXX         ",
"XXXXXXXXXXXXXXXXX         "
};
